<svg xmlns="http://www.w3.org/2000/svg" width="70.001" height="70.001" viewBox="0 0 70.001 70.001">
  <path id="Color_Overlay" data-name="Color Overlay" d="M1778,9423.843c0,.859-.038,1.717-.1,2.573l-32.484,32.484q-1.285.1-2.573.1Zm-45.621,33.6,44.057-44.06c.2.641.377,1.286.536,1.935l-42.659,42.661Q1733.342,9457.733,1732.38,9457.438Zm41.823-17.771a35.383,35.383,0,0,1-15.537,15.535Zm-50.058,13.978,48.5-48.5c.32.508.631,1.025.923,1.548l-47.877,47.874Q1724.909,9454.13,1724.145,9453.645Zm-5.994-4.795c-.209-.207-.411-.413-.613-.624l49.686-49.687c.211.2.42.4.627.61s.411.416.61.627l-49.686,49.686C1718.566,9449.26,1718.357,9449.059,1718.151,9448.85Zm-5.719-7.542,47.874-47.877c.522.295,1.04.6,1.548.924l-48.5,48.5Q1712.871,9442.089,1712.432,9441.308Zm-3.407-8.622,42.661-42.659c.648.159,1.294.34,1.932.537l-44.055,44.057Q1709.265,9433.659,1709.025,9432.686Zm-.923-11.1,32.482-32.484c.857-.063,1.716-.1,2.573-.1L1708,9424.158C1708,9423.3,1708.035,9422.439,1708.1,9421.585Zm10.227-22.255a35.334,35.334,0,0,1,9-6.533l-15.535,15.537A35.178,35.178,0,0,1,1718.328,9399.33Z" transform="translate(-1708 -9388.999)" fill="#1d1f44"/>
</svg>
