<svg xmlns="http://www.w3.org/2000/svg" width="301.003" height="239.001" viewBox="0 0 301.003 239.001">
  <g id="Vector_Smart_Object" data-name="Vector Smart Object" transform="translate(-1312.588 -501.883)">
    <g id="Group_196" data-name="Group 196">
      <path id="Path_597" data-name="Path 597" d="M1612.573,704.5l-7.1-4.7-.552-.362-88.916-58.752-.531-.342-.791-.523c12.546-9.521,22.453-17.528,25.526-20.923.36-.386.709-.766,1.058-1.138.329-.352.644-.687.949-1.029,5.677-6.167,9.264-14.643,11.5-22.9l22.029,1.99a2.371,2.371,0,0,0,1.877-.667l1.312-1.285.2-.191a2.1,2.1,0,0,0,.456-.653,2.157,2.157,0,0,0,.192-.79l.027-.674-8.034-5.258-14.916-9.785c.147-1.508.25-2.9.315-4.133.079-1.292.113-2.431.137-3.368A11.221,11.221,0,0,0,1557,566c-1.219-4.889-5.992-2.95-7.448-2.468-.274.092-5.29,2.93-13.549,7.651l-23.125-13.846-3.8,2.537a1.6,1.6,0,0,0-.428.414,1.687,1.687,0,0,0-.127,1.781l10.165,19.043-3.9,2.239c-.463.26-.925.53-1.4.8-10.055,5.778-21.576,12.407-33.728,19.412-.487.28-.97.564-1.456.831-3.851,2.222-7.777,4.485-11.72,6.762l-88.21-52.533-1.627-.968-2.186-1.3L1345.019,569.2s-1.127,2.533,0,3.378c.959.721,55.212,52.13,71.42,67.487l-.925.537q-.766.451-1.524.879c-19.747,11.439-37.079,21.5-48.011,27.89-.555.315-1.1.633-1.614.937-5.677,3.32-9.332,5.494-10.305,6.113-4.478,2.872-7.592,5.381-12.073,11.993-1.161,1.713-2.426,3.7-3.813,6.058-2.72,4.561-5.958,10.458-10.065,18.267a51.984,51.984,0,0,0-3.6,8.352c-.192.609-.36,1.193-.507,1.757s-.236.981-.325,1.4c-.075.345-.147.691-.209,1.026-.027.164-.058.328-.082.485-.041.243-.092.5-.127.735s-.058.451-.079.663c-1.829,14.369,7.9,13.887,12.32,13.661,1.131-.058,2.268-.137,3.433-.239,9.771-.879,20.716-3.569,30.1-8.9,7.335-4.144,16.5-9.347,26.506-15.019.473-.27.959-.55,1.446-.824,14.488-8.222,30.6-17.385,45.369-25.819.541-.315,1.083-.619,1.627-.923,1.374-.786,2.922-1.713,4.615-2.759,3.656-2.256,7.993-5.077,12.761-8.273,14.077,5.381,39.045,14.824,62.955,23.856.4.15.8.3,1.2.451q.786.3,1.572.591c24.512,9.258,47.343,17.863,55.339,20.872a7.91,7.91,0,0,0,6.773-.564l24.4-14.154v-3.942Z" fill="#49768f" opacity="0.2" style="mix-blend-mode: multiply;isolation: isolate"/>
      <g id="Group_195" data-name="Group 195">
        <g id="Group_101" data-name="Group 101">
          <g id="Group_100" data-name="Group 100">
            <g id="Group_97" data-name="Group 97">
              <path id="Path_598" data-name="Path 598" d="M1394.832,597.414a6.631,6.631,0,0,1-1.206,4.164,85.712,85.712,0,0,1-11.651,12.369c-6.2,5.439-14.522,11.224-24.1,13.914,0,0-3.412-3.395-7.2-7.829-5.762-6.776-12.357-15.983-8.932-19.285a68.019,68.019,0,0,1,15.564-10.492c1.261-.66,2.58-1.285,3.943-1.894a67.148,67.148,0,0,1,21.477-5.774,6.875,6.875,0,0,1,4.132,1.05c.127.068.243.15.36.219a17.079,17.079,0,0,1,5.752,6.581A15.706,15.706,0,0,1,1394.832,597.414Z" fill="#ff8c36"/>
              <path id="Path_599" data-name="Path 599" d="M1394.832,597.417a6.649,6.649,0,0,1-1.209,4.168s-14.906,20.4-35.749,26.273c0,0-3.422-3.391-7.2-7.829,21.347-7.579,37.1-23.737,42.3-29.59A15.758,15.758,0,0,1,1394.832,597.417Z" fill="#e8593a"/>
              <path id="Path_600" data-name="Path 600" d="M1362.3,620.074c0,3.289-1.055,5.679-2.8,6.968-2.073,1.535-5.115,1.508-8.513-.448-6.242-3.6-11.305-12.352-11.305-19.545,0-3.9,1.49-6.554,3.851-7.579,1.99-.868,4.6-.585,7.455,1.06C1357.24,604.129,1362.3,612.881,1362.3,620.074Z" fill="#f6f7ef"/>
              <path id="Path_601" data-name="Path 601" d="M1361.039,620.07c0,2.752-.809,4.872-2.282,5.962a3.446,3.446,0,0,1-.308.205,4.528,4.528,0,0,1-2.405.636,7.717,7.717,0,0,1-2.915-.636l2.4-8.222a3.438,3.438,0,0,1-1.74-.38c-.113-.058-.233-.12-.353-.185a7.78,7.78,0,0,1-2.12-1.887,9.961,9.961,0,0,1-1.881-3.757l-5.92,1.419-1.316.318a19.083,19.083,0,0,1-1.261-6.5,9.933,9.933,0,0,1,.651-3.733,4.443,4.443,0,0,1,4.354-3.063,7.678,7.678,0,0,1,2.823.6,11.142,11.142,0,0,1,1.593.773,21.72,21.72,0,0,1,7.465,7.812c.045.075.086.15.137.232.2.335.329.581.452.834A21.138,21.138,0,0,1,1361.039,620.07Z" fill="#9a9893"/>
              <path id="Path_602" data-name="Path 602" d="M1351.316,615.564l-5.238,4.951c-.065-.086-.127-.161-.185-.243a25.63,25.63,0,0,1-3.693-6.728l1.316-.318,5.92-1.419A9.961,9.961,0,0,0,1351.316,615.564Z" fill="#b5b3ad"/>
              <path id="Path_603" data-name="Path 603" d="M1353.79,617.636l-4.2,6.475a21.385,21.385,0,0,1-3.515-3.6l5.238-4.951a7.78,7.78,0,0,0,2.12,1.887C1353.557,617.517,1353.677,617.578,1353.79,617.636Z" fill="#c9cdcb"/>
              <path id="Path_604" data-name="Path 604" d="M1355.53,618.016l-2.4,8.222a11.067,11.067,0,0,1-1.507-.732,15.513,15.513,0,0,1-2.028-1.395l4.2-6.475A3.438,3.438,0,0,0,1355.53,618.016Z" fill="#b5b3ad"/>
              <path id="Path_605" data-name="Path 605" d="M1357.661,615.011a2.974,2.974,0,0,1-1.189,2.694,2.013,2.013,0,0,1-.887.3,6.684,6.684,0,0,1-5.1-.366,4.234,4.234,0,0,1-1.36-1.344c-2.193-3.371-.188-6.957.562-8.082a1.856,1.856,0,0,1,.2-.28c.819-.944,2.1-1.056,3.559-.215a7.778,7.778,0,0,1,2.093,1.846c.175.219.339.444.493.68a6.245,6.245,0,0,1,.36.544,10.411,10.411,0,0,1,.774,1.631A7.665,7.665,0,0,1,1357.661,615.011Z" fill="#6d6b68"/>
              <path id="Path_606" data-name="Path 606" d="M1357.661,615.011a2.974,2.974,0,0,1-1.189,2.694,2.013,2.013,0,0,1-.887.3,6.684,6.684,0,0,1-5.1-.366,10.413,10.413,0,0,0,5.05-8.068,7.568,7.568,0,0,1,.493.674,6.245,6.245,0,0,1,.36.544,10.411,10.411,0,0,1,.774,1.631A7.665,7.665,0,0,1,1357.661,615.011Z" fill="#585654"/>
              <path id="Path_607" data-name="Path 607" d="M1361.039,620.07c0,2.752-.809,4.872-2.282,5.962a3.446,3.446,0,0,1-.308.205c-.021-21.935-16.859-22.926-16.859-22.926a4.443,4.443,0,0,1,4.354-3.063,7.678,7.678,0,0,1,2.823.6,11.142,11.142,0,0,1,1.593.773,21.72,21.72,0,0,1,7.465,7.812c.045.075.086.15.137.232.2.335.329.581.452.834A21.138,21.138,0,0,1,1361.039,620.07Z" fill="#bbc6cb" style="mix-blend-mode: multiply;isolation: isolate"/>
            </g>
            <g id="Group_99" data-name="Group 99">
              <g id="Group_98" data-name="Group 98">
                <path id="Path_608" data-name="Path 608" d="M1387.275,585.541s-6.852,3.409-13.758,6.721c-6.019,2.9-12.093,5.73-13.69,6.188a4.826,4.826,0,0,1-.579.116c-2.974.369-4-3.337-4-3.337l2.059-4.974,1.84-4.461,4.512-10.923,3.4-1.88,15.749-8.65,3.69-2.034.13,3.88.589,17.668Z" fill="#f9642d"/>
                <path id="Path_609" data-name="Path 609" d="M1367.065,572.99l-7.821,25.573c-2.974.376-4-3.333-4-3.333l8.411-20.362Z" fill="#ffa634"/>
              </g>
            </g>
          </g>
          <path id="Path_610" data-name="Path 610" d="M1394.832,597.414a6.631,6.631,0,0,1-1.206,4.164,85.712,85.712,0,0,1-11.651,12.369c3.251-16.595-8.459-21.685-8.459-21.685s-9.257-3.856-11.213-3.7a1.91,1.91,0,0,1-1.055-.205,5.528,5.528,0,0,1-2.1-2.567l4.512-10.923,3.4-1.88,15.749-8.65c1.144.533,2.443,1.156,3.82,1.846l.589,17.668a17.079,17.079,0,0,1,5.752,6.581A15.706,15.706,0,0,1,1394.832,597.414Z" fill="#cc8c8c" opacity="0.5" style="mix-blend-mode: multiply;isolation: isolate"/>
        </g>
        <g id="Group_102" data-name="Group 102">
          <path id="Path_611" data-name="Path 611" d="M1469.448,596.747,1441.1,618.4l-18.747,4.444-9.243,2.195s-76.734-72.749-77.888-73.617,0-3.463,0-3.463L1365.41,534.8l2.244,1.33,1.668.991,98.947,58.93.671.4Z" fill="#f0f3ed"/>
          <path id="Path_612" data-name="Path 612" d="M1422.459,622.4l-.1.451-9.246,2.195s-76.73-72.749-77.888-73.617,0-3.463,0-3.463Z" fill="#d3dbdc"/>
          <path id="Path_613" data-name="Path 613" d="M1468.941,596.449l-14,4.239-35.374-22.312-.567-.356-19.266-12.149-.556-.347-19.1-12.054-.556-.347-19.173-12.092,8.98-3.914L1388.09,548.3l.58.347,19.683,11.72.567.334,19.855,11.827.58.347,38.915,23.175Z" fill="#bbc6cb"/>
          <path id="Path_614" data-name="Path 614" d="M1468.27,596.046l-13.249,4.018-93.451-58.94,8.359-3.646Z" fill="#e5eae7"/>
        </g>
        <path id="Path_615" data-name="Path 615" d="M1535.329,552.546l-16.907,10.321-2.765,1.7-12.765-23.914a1.728,1.728,0,0,1,.13-1.826,1.67,1.67,0,0,1,.439-.424l3.9-2.6Z" fill="#ffa634"/>
        <path id="Path_616" data-name="Path 616" d="M1518.422,562.867l-2.765,1.7-12.765-23.914a1.728,1.728,0,0,1,.13-1.826Z" fill="#ff8c36"/>
        <g id="Group_122" data-name="Group 122">
          <g id="Group_116" data-name="Group 116">
            <g id="Group_103" data-name="Group 103">
              <path id="Path_617" data-name="Path 617" d="M1352.705,718.921l3.726-2.159-.006,2.335-3.726,2.162Z" fill="#55575d"/>
            </g>
            <g id="Group_112" data-name="Group 112">
              <g id="Group_107" data-name="Group 107">
                <g id="Group_106" data-name="Group 106" style="isolation: isolate">
                  <g id="Group_104" data-name="Group 104" style="isolation: isolate">
                    <path id="Path_618" data-name="Path 618" d="M1354.239,723.175a4,4,0,0,1,.034-.492l-1.494-.865a4.883,4.883,0,0,0-.031.5,1.771,1.771,0,0,0,.74,1.621l1.49.862A1.76,1.76,0,0,1,1354.239,723.175Z" fill="#58595a"/>
                    <path id="Path_619" data-name="Path 619" d="M1353.17,720.453c-.031.075-.065.15-.092.226s-.058.157-.086.239-.055.171-.079.256-.051.195-.069.291c-.027.12-.048.236-.065.352l1.494.865a3.137,3.137,0,0,1,.062-.352c.021-.1.045-.195.068-.287s.051-.174.079-.26.058-.157.086-.239l.093-.226Z" fill="#767b7d"/>
                    <path id="Path_620" data-name="Path 620" d="M1353.776,719.376c-.051.072-.1.144-.147.219l-.13.212c-.041.072-.082.14-.12.215s-.072.14-.109.212l-.1.219,1.49.865c.034-.075.065-.147.1-.219s.072-.144.11-.215.079-.14.12-.212.086-.144.13-.212.1-.15.147-.219Z" fill="#93999b"/>
                    <path id="Path_621" data-name="Path 621" d="M1355.273,717.951a4.184,4.184,0,0,0-.846.653c-.1.092-.188.191-.277.294-.072.079-.137.164-.206.25s-.113.154-.168.229l1.49.865c.055-.079.11-.154.168-.229s.134-.168.205-.25c.089-.1.182-.2.278-.294a4.061,4.061,0,0,1,.846-.653Z" fill="#767b7d"/>
                    <path id="Path_622" data-name="Path 622" d="M1357.181,718.614c.062-.021.12-.041.178-.058a3.111,3.111,0,0,1,.589-.085,1.463,1.463,0,0,1,.223.024,1.7,1.7,0,0,1,.394.144l-1.49-.865a5.185,5.185,0,0,0-1.384-.021,3.852,3.852,0,0,0-.418.2l1.49.865a2.8,2.8,0,0,1,.319-.161Z" fill="#58595a"/>
                  </g>
                  <g id="Group_105" data-name="Group 105">
                    <path id="Path_623" data-name="Path 623" d="M1356.763,718.816c1.4-.8,2.535-.161,2.539,1.443a5.543,5.543,0,0,1-2.521,4.362c-1.4.807-2.535.157-2.542-1.446A5.55,5.55,0,0,1,1356.763,718.816Z" fill="#494445"/>
                  </g>
                </g>
              </g>
              <g id="Group_111" data-name="Group 111">
                <g id="Group_110" data-name="Group 110" style="isolation: isolate">
                  <g id="Group_108" data-name="Group 108" style="isolation: isolate">
                    <path id="Path_624" data-name="Path 624" d="M1356.781,724.573a4.08,4.08,0,0,1,.031-.5l-1.49-.865a4.049,4.049,0,0,0-.034.5,1.771,1.771,0,0,0,.74,1.621l1.49.862A1.756,1.756,0,0,1,1356.781,724.573Z" fill="#58595a"/>
                    <path id="Path_625" data-name="Path 625" d="M1355.708,721.848c-.031.075-.062.15-.092.229s-.058.157-.086.239-.055.167-.079.253-.048.195-.068.291a3.137,3.137,0,0,0-.062.352l1.49.865a3.08,3.08,0,0,1,.062-.349c.021-.1.045-.2.068-.291s.051-.174.082-.26.055-.161.082-.239.062-.15.1-.226Z" fill="#767b7d"/>
                    <path id="Path_626" data-name="Path 626" d="M1356.315,720.771c-.051.072-.1.144-.147.219s-.089.14-.13.212-.082.144-.12.215-.072.144-.106.215-.069.144-.1.215l1.494.865c.031-.072.065-.147.1-.219s.068-.144.106-.215l.12-.212c.041-.068.086-.144.13-.212s.1-.147.147-.219Z" fill="#93999b"/>
                    <path id="Path_627" data-name="Path 627" d="M1357.812,719.345a4.312,4.312,0,0,0-.846.653c-.1.1-.188.191-.277.3-.068.079-.137.164-.205.25s-.113.15-.168.226l1.49.865c.055-.075.11-.154.168-.229s.137-.168.206-.25c.089-.1.182-.2.277-.294a4.184,4.184,0,0,1,.846-.653Z" fill="#767b7d"/>
                    <path id="Path_628" data-name="Path 628" d="M1359.72,720.012c.062-.024.12-.044.178-.062a2.767,2.767,0,0,1,.589-.085,1.168,1.168,0,0,1,.226.024,1.822,1.822,0,0,1,.391.144l-1.49-.862a5.166,5.166,0,0,0-1.384-.024,3.877,3.877,0,0,0-.418.2l1.49.865a3.408,3.408,0,0,1,.319-.157C1359.655,720.036,1359.686,720.026,1359.72,720.012Z" fill="#58595a"/>
                  </g>
                  <g id="Group_109" data-name="Group 109">
                    <path id="Path_629" data-name="Path 629" d="M1359.3,720.21c1.4-.807,2.535-.164,2.542,1.443a5.551,5.551,0,0,1-2.525,4.362c-1.4.807-2.535.161-2.539-1.443A5.534,5.534,0,0,1,1359.3,720.21Z" fill="#494445"/>
                  </g>
                </g>
              </g>
            </g>
            <g id="Group_113" data-name="Group 113">
              <path id="Path_630" data-name="Path 630" d="M1360.589,721.984l3.726-2.162-.011,3.816-3.726,2.162Z" fill="#6d7881"/>
            </g>
            <g id="Group_114" data-name="Group 114">
              <path id="Path_631" data-name="Path 631" d="M1351.488,716.74l3.726-2.162,9.1,5.244-3.726,2.162Z" fill="#a2afb8"/>
            </g>
            <g id="Group_115" data-name="Group 115">
              <path id="Path_632" data-name="Path 632" d="M1360.589,721.984l-.011,3.816-1.225-.706.006-2.339-6.653-3.835-.006,2.338-1.222-.7.011-3.816Z" fill="#85929c"/>
            </g>
          </g>
          <g id="Group_121" data-name="Group 121">
            <g id="Group_120" data-name="Group 120" style="isolation: isolate">
              <g id="Group_117" data-name="Group 117">
                <path id="Path_633" data-name="Path 633" d="M1358.384,704.27l1.49-.863,3.7,2.133-1.492.864Z" fill="#a2afb8"/>
              </g>
              <g id="Group_118" data-name="Group 118">
                <path id="Path_634" data-name="Path 634" d="M1362.086,706.4l1.492-.864-3.046,13.747-1.491.866Z" fill="#6d7881"/>
              </g>
              <g id="Group_119" data-name="Group 119">
                <path id="Path_635" data-name="Path 635" d="M1358.384,704.27l3.7,2.134-3.044,13.749-3.7-2.137Z" fill="#85929c"/>
              </g>
            </g>
          </g>
        </g>
        <g id="Group_141" data-name="Group 141">
          <g id="Group_135" data-name="Group 135">
            <g id="Group_123" data-name="Group 123">
              <path id="Path_636" data-name="Path 636" d="M1438.762,669.212l3.726-2.159-.006,2.335-3.726,2.162Z" fill="#55575d"/>
            </g>
            <g id="Group_127" data-name="Group 127">
              <g id="Group_126" data-name="Group 126" style="isolation: isolate">
                <g id="Group_124" data-name="Group 124" style="isolation: isolate">
                  <path id="Path_637" data-name="Path 637" d="M1440.3,673.465a4.082,4.082,0,0,1,.031-.5l-1.49-.862a3.462,3.462,0,0,0-.031.5,1.76,1.76,0,0,0,.737,1.617l1.49.865A1.766,1.766,0,0,1,1440.3,673.465Z" fill="#58595a"/>
                  <path id="Path_638" data-name="Path 638" d="M1439.225,670.744c-.031.075-.062.15-.089.226s-.062.157-.089.239-.052.171-.079.256-.048.195-.072.291c-.021.12-.041.236-.058.352l1.49.862q.026-.174.062-.349c.021-.1.045-.195.072-.291s.048-.171.079-.256a2.507,2.507,0,0,1,.086-.239c.027-.079.058-.154.089-.226Z" fill="#767b7d"/>
                  <path id="Path_639" data-name="Path 639" d="M1439.832,669.664c-.048.075-.1.147-.144.222s-.089.14-.133.212-.079.14-.117.212-.075.144-.11.215l-.1.219,1.49.865c.034-.075.068-.147.1-.219s.072-.144.11-.215.075-.14.117-.212l.134-.215c.045-.075.1-.147.144-.215Z" fill="#93999b"/>
                  <path id="Path_640" data-name="Path 640" d="M1441.329,668.241a4.283,4.283,0,0,0-.846.653c-.093.092-.188.191-.278.294-.068.079-.137.164-.206.25s-.113.15-.168.226l1.49.868c.055-.079.113-.154.168-.229s.137-.167.209-.25c.086-.1.182-.2.274-.294a4.3,4.3,0,0,1,.846-.656Z" fill="#767b7d"/>
                  <path id="Path_641" data-name="Path 641" d="M1443.237,668.9a1.853,1.853,0,0,1,.182-.058,3.1,3.1,0,0,1,.586-.085c.1,0,.164.014.226.021a1.714,1.714,0,0,1,.391.147l-1.49-.865a5.19,5.19,0,0,0-1.384-.021,3.305,3.305,0,0,0-.418.2l1.49.862a3.405,3.405,0,0,1,.319-.157Z" fill="#58595a"/>
                </g>
                <g id="Group_125" data-name="Group 125">
                  <path id="Path_642" data-name="Path 642" d="M1442.819,669.1c1.4-.8,2.539-.161,2.542,1.446a5.556,5.556,0,0,1-2.525,4.362c-1.4.8-2.535.157-2.539-1.446A5.539,5.539,0,0,1,1442.819,669.1Z" fill="#494445"/>
                </g>
              </g>
            </g>
            <g id="Group_131" data-name="Group 131">
              <g id="Group_130" data-name="Group 130" style="isolation: isolate">
                <g id="Group_128" data-name="Group 128" style="isolation: isolate">
                  <path id="Path_643" data-name="Path 643" d="M1442.836,674.863a4.062,4.062,0,0,1,.031-.5l-1.49-.868a4.137,4.137,0,0,0-.031.5,1.768,1.768,0,0,0,.74,1.621l1.49.862A1.754,1.754,0,0,1,1442.836,674.863Z" fill="#58595a"/>
                  <path id="Path_644" data-name="Path 644" d="M1441.767,672.139q-.051.113-.093.226a2.5,2.5,0,0,0-.086.243c-.031.082-.055.168-.079.253s-.051.195-.072.291c-.024.116-.045.236-.062.349l1.49.868c.017-.116.038-.232.062-.352.021-.1.045-.195.072-.287s.048-.174.079-.26.055-.161.086-.239.058-.15.093-.226Z" fill="#767b7d"/>
                  <path id="Path_645" data-name="Path 645" d="M1442.37,671.062c-.048.072-.1.144-.144.215s-.089.144-.134.215-.079.144-.116.212-.075.144-.11.219-.068.144-.1.215l1.49.865.1-.219c.034-.072.072-.144.11-.215s.075-.14.116-.212.089-.144.134-.212.1-.147.147-.222Z" fill="#93999b"/>
                  <path id="Path_646" data-name="Path 646" d="M1443.867,669.636a4.384,4.384,0,0,0-.846.653c-.093.1-.188.191-.277.3-.069.079-.137.161-.206.25-.055.072-.113.15-.168.226l1.494.862c.051-.075.11-.15.165-.226s.137-.167.209-.25c.089-.1.182-.2.274-.294a4.28,4.28,0,0,1,.846-.653Z" fill="#767b7d"/>
                  <path id="Path_647" data-name="Path 647" d="M1445.779,670.3a1.834,1.834,0,0,1,.178-.061,2.754,2.754,0,0,1,.586-.086,1.168,1.168,0,0,1,.226.024,1.819,1.819,0,0,1,.391.144l-1.487-.865a5.241,5.241,0,0,0-1.387-.021,3.865,3.865,0,0,0-.418.2l1.49.865a2.137,2.137,0,0,1,.322-.157Z" fill="#58595a"/>
                </g>
                <g id="Group_129" data-name="Group 129">
                  <path id="Path_648" data-name="Path 648" d="M1445.358,670.5c1.4-.807,2.539-.164,2.542,1.443a5.55,5.55,0,0,1-2.525,4.362c-1.4.807-2.535.161-2.539-1.443A5.546,5.546,0,0,1,1445.358,670.5Z" fill="#494445"/>
                </g>
              </g>
            </g>
            <g id="Group_132" data-name="Group 132">
              <path id="Path_649" data-name="Path 649" d="M1446.646,672.274l3.726-2.162-.011,3.816-3.726,2.162Z" fill="#6d7881"/>
            </g>
            <g id="Group_133" data-name="Group 133">
              <path id="Path_650" data-name="Path 650" d="M1437.543,667.031l3.728-2.162,9.1,5.244-3.726,2.162Z" fill="#a2afb8"/>
            </g>
            <g id="Group_134" data-name="Group 134">
              <path id="Path_651" data-name="Path 651" d="M1446.646,672.274l-.011,3.816-1.225-.706.006-2.338-6.654-3.835-.006,2.338-1.222-.7.01-3.816Z" fill="#85929c"/>
            </g>
          </g>
          <g id="Group_140" data-name="Group 140">
            <g id="Group_139" data-name="Group 139" style="isolation: isolate">
              <g id="Group_136" data-name="Group 136">
                <path id="Path_652" data-name="Path 652" d="M1444.44,654.561l1.49-.863,3.7,2.133-1.491.864Z" fill="#a2afb8"/>
              </g>
              <g id="Group_137" data-name="Group 137">
                <path id="Path_653" data-name="Path 653" d="M1448.143,656.694l1.491-.864-3.044,13.746-1.49.863Z" fill="#6d7881"/>
              </g>
              <g id="Group_138" data-name="Group 138">
                <path id="Path_654" data-name="Path 654" d="M1444.44,654.561l3.7,2.134L1445.1,670.44l-3.7-2.133Z" fill="#85929c"/>
              </g>
            </g>
          </g>
        </g>
        <path id="Path_655" data-name="Path 655" d="M1552.917,547.79c-.024.957-.058,2.123-.137,3.45-.072,1.268-.175,2.691-.325,4.239-.291,2.92-.73,6.27-1.4,9.815-.082.451-.171.9-.264,1.35-.428,2.147-.939,4.352-1.552,6.581-2.292,8.465-5.971,17.159-11.792,23.487-.312.349-.637.694-.969,1.053-.363.383-.719.773-1.089,1.166-8.493,9.4-67.936,53.108-93.949,69.159-1.734,1.073-3.323,2.017-4.735,2.827-.552.315-1.11.626-1.665.947-15.146,8.65-31.669,18.048-46.527,26.479-.5.277-1,.568-1.483.844-10.264,5.819-19.658,11.152-27.181,15.4-9.627,5.463-20.85,8.222-30.871,9.125-1.192.1-2.36.181-3.508.243-4.546.229-14.522.725-12.648-14.007.024-.222.048-.451.082-.684a32.424,32.424,0,0,1,.764-3.73c.151-.588.325-1.19.521-1.812a53.154,53.154,0,0,1,3.693-8.568c4.21-8,7.53-14.051,10.319-18.732,1.425-2.41,2.72-4.458,3.912-6.212,4.594-6.779,7.787-9.354,12.381-12.3,1-.636,4.745-2.865,10.566-6.27.531-.315,1.086-.636,1.655-.957,11.213-6.561,28.987-16.875,49.237-28.6q.781-.436,1.559-.9c20.415-11.8,43.221-24.978,64.294-37.128.5-.277.993-.564,1.49-.855,12.464-7.18,24.279-13.979,34.588-19.9.486-.277.963-.557,1.435-.82,20.83-11.976,35.177-20.164,35.653-20.325,1.49-.5,6.386-2.482,7.636,2.53A11.358,11.358,0,0,1,1552.917,547.79Z" fill="#d3dbdc"/>
        <path id="Path_656" data-name="Path 656" d="M1330.665,718.747c7.832-1.179,30.271-12.137,57.775-27.47a28.57,28.57,0,0,1-1.411,7.911c-10.264,5.819-19.658,11.152-27.181,15.4-9.627,5.463-20.85,8.222-30.871,9.125A7.354,7.354,0,0,0,1330.665,718.747Z" fill="#bbc6cb"/>
        <path id="Path_657" data-name="Path 657" d="M1437.375,662.559a27.787,27.787,0,0,1-1.62,7.6c-.219.591-.449,1.156-.716,1.709-15.146,8.65-31.669,18.048-46.527,26.479a31.047,31.047,0,0,0,1.12-7.727C1404.606,682.238,1421.037,672.607,1437.375,662.559Z" fill="#bbc6cb"/>
        <path id="Path_658" data-name="Path 658" d="M1501.217,620.549a33.135,33.135,0,0,1-.336,5.911c-20.542,15.323-45.085,32.735-59.443,41.631-1.734,1.073-3.323,2.017-4.735,2.827.048-.116.1-.243.141-.359a29.314,29.314,0,0,0,1.723-8.742c18.109-11.128,36.068-22.735,51.817-33.638Q1496.165,624.18,1501.217,620.549Z" fill="#bbc6cb"/>
        <path id="Path_659" data-name="Path 659" d="M1534.623,592.778a38.263,38.263,0,0,1,.764,6.154c-3.625,4.051-17,14.793-33.221,26.557a32.565,32.565,0,0,0,.161-5.747C1517.336,608.918,1527.552,600.433,1534.623,592.778Z" fill="#bbc6cb"/>
        <path id="Path_660" data-name="Path 660" d="M1551.054,565.294c-1.98,10.622-5.934,23.084-13.608,31.419-.312.349-.637.694-.969,1.053a41.707,41.707,0,0,0-.894-6.041c1.483-1.638,2.8-3.241,4-4.824C1546.867,577.291,1549.457,567.684,1551.054,565.294Z" fill="#bbc6cb"/>
        <path id="Path_661" data-name="Path 661" d="M1379.251,663.322c-4.406,2.376-6.907,3.706-6.907,3.706a90.862,90.862,0,0,0-14.824,14.41c-1.213,1.535.7,4.838-1.12,7.446-7.732,11.111-23.769,22.15-29.692,24.612-3.08,1.268-2.5,4.779-5.358,9.193-4.526-2.267-11.549-5.337-7.164-18.964a53.154,53.154,0,0,1,3.693-8.568c4.21-8,7.53-14.051,10.319-18.732,1.425-2.41,2.72-4.458,3.912-6.212,4.594-6.779,7.787-9.354,12.381-12.3,1-.636,4.745-2.865,10.566-6.27C1359.7,652.1,1371.385,654.115,1379.251,663.322Z" fill="#f6f7ef"/>
        <path id="Path_662" data-name="Path 662" d="M1429.6,635.26c-21.083,12.113-39.377,22.137-49.319,27.508-7.349-8.756-18.027-11.33-23.57-12.079,11.213-6.561,28.987-16.875,49.237-28.6C1411.746,622.929,1422.647,625.756,1429.6,635.26Z" fill="#f6f7ef"/>
        <path id="Path_663" data-name="Path 663" d="M1493.231,596.7c-20.134,13.07-42.594,26.455-62.636,37.979-6.643-9.169-16.825-12.38-23.087-13.5,20.415-11.8,43.221-24.978,64.294-37.128C1477.818,585.25,1487.054,588.388,1493.231,596.7Z" fill="#f6f7ef"/>
        <path id="Path_664" data-name="Path 664" d="M1526.1,573.872c-9.164,7-20.1,14.54-31.882,22.195-5.982-8.082-14.718-11.467-20.922-12.865,12.464-7.18,24.279-13.979,34.588-19.9C1513.365,564.635,1520.632,567.544,1526.1,573.872Z" fill="#f6f7ef"/>
        <path id="Path_665" data-name="Path 665" d="M1552.606,544.683c.068,6.338-10.079,16.567-25.595,28.489a35.424,35.424,0,0,0-17.695-10.694c20.83-11.976,35.177-20.164,35.653-20.325C1546.459,541.657,1551.355,539.671,1552.606,544.683Z" fill="#f6f7ef"/>
        <g id="Group_146" data-name="Group 146">
          <g id="Group_142" data-name="Group 142">
            <path id="Path_666" data-name="Path 666" d="M1389.632,690.617a31.047,31.047,0,0,1-1.12,7.727c-.5.277-1,.568-1.483.844a28.57,28.57,0,0,0,1.411-7.911C1388.833,691.058,1389.241,690.836,1389.632,690.617Z" fill="#a2afb8"/>
            <path id="Path_667" data-name="Path 667" d="M1380.282,662.768c-.36.195-.706.379-1.031.554-7.866-9.207-19.555-11.224-24.194-11.675.531-.315,1.086-.636,1.655-.957C1362.255,651.438,1372.934,654.012,1380.282,662.768Z" fill="#e5eae7"/>
            <path id="Path_668" data-name="Path 668" d="M1388.439,691.277c.3-6.838-1.48-14.482-5.242-21.986a29.518,29.518,0,0,0-3.947-5.969c.325-.174.672-.359,1.031-.554a29.432,29.432,0,0,1,3.957,6,47.1,47.1,0,0,1,5.392,21.846C1389.241,690.836,1388.833,691.058,1388.439,691.277Z" fill="#bbc6cb"/>
          </g>
          <g id="Group_143" data-name="Group 143">
            <path id="Path_669" data-name="Path 669" d="M1438.567,661.817a29.314,29.314,0,0,1-1.723,8.742c-.045.116-.093.243-.141.359-.552.315-1.11.626-1.665.947.267-.554.5-1.118.716-1.709a27.787,27.787,0,0,0,1.62-7.6C1437.783,662.317,1438.173,662.074,1438.567,661.817Z" fill="#a2afb8"/>
            <path id="Path_670" data-name="Path 670" d="M1430.6,634.682c-.336.208-.671.393-.994.578-6.955-9.5-17.856-12.332-23.652-13.173q.781-.436,1.559-.9C1413.771,622.3,1423.952,625.513,1430.6,634.682Z" fill="#e5eae7"/>
            <path id="Path_671" data-name="Path 671" d="M1438.567,661.817c-.394.256-.785.5-1.192.742.534-7.115-1.237-15.162-5.194-23.063a29.914,29.914,0,0,0-2.58-4.236c.322-.185.658-.369.994-.578a30.381,30.381,0,0,1,2.614,4.308C1437.111,646.775,1438.937,654.72,1438.567,661.817Z" fill="#bbc6cb"/>
          </g>
          <g id="Group_144" data-name="Group 144">
            <path id="Path_672" data-name="Path 672" d="M1502.166,625.489q-.642.467-1.285.971a33.135,33.135,0,0,0,.336-5.911c.37-.267.74-.53,1.11-.807A32.565,32.565,0,0,1,1502.166,625.489Z" fill="#c74c32"/>
            <path id="Path_673" data-name="Path 673" d="M1494.214,596.067c-.322.222-.647.431-.983.636-6.177-8.315-15.413-11.453-21.429-12.646.5-.277.993-.564,1.49-.855C1479.5,584.6,1488.233,587.985,1494.214,596.067Z" fill="#e5eae7"/>
            <path id="Path_674" data-name="Path 674" d="M1502.327,619.742c-.37.277-.74.54-1.11.807a47.123,47.123,0,0,0-5.266-19.436,29.087,29.087,0,0,0-2.72-4.41c.336-.205.661-.414.983-.636a32.319,32.319,0,0,1,2.768,4.526A48.629,48.629,0,0,1,1502.327,619.742Z" fill="#bbc6cb"/>
          </g>
          <g id="Group_145" data-name="Group 145">
            <path id="Path_675" data-name="Path 675" d="M1536.476,597.766c-.363.383-.719.773-1.089,1.166a38.851,38.851,0,0,0-.764-6.154c.336-.359.661-.708.959-1.053A41.707,41.707,0,0,1,1536.476,597.766Z" fill="#a2afb8"/>
            <path id="Path_676" data-name="Path 676" d="M1527.011,573.171c-.3.243-.613.472-.915.7-5.464-6.328-12.731-9.238-18.216-10.574.486-.277.963-.557,1.435-.82A35.424,35.424,0,0,1,1527.011,573.171Z" fill="#e5eae7"/>
            <path id="Path_677" data-name="Path 677" d="M1535.582,591.725c-.3.345-.624.694-.959,1.053a50.917,50.917,0,0,0-4.488-12.841,29.141,29.141,0,0,0-4.039-6.065c.3-.229.61-.458.915-.7a30.412,30.412,0,0,1,4.152,6.246A52.328,52.328,0,0,1,1535.582,591.725Z" fill="#bbc6cb"/>
          </g>
        </g>
        <g id="Group_148" data-name="Group 148">
          <path id="Path_678" data-name="Path 678" d="M1357.891,683.653v3.241a2.085,2.085,0,0,1-1.494,2l-12.159,3.61-.418.15-.73-.383-14.635-7.576-.257-.123v-8.144c1.425-2.41,2.72-4.458,3.912-6.212l.822,2.113.277.694.531.308,12.487,7.118.487.277.658-.1,7.8.236A2.8,2.8,0,0,1,1357.891,683.653Z" fill="#175d7e"/>
          <path id="Path_679" data-name="Path 679" d="M1357.891,686.877a2.09,2.09,0,0,1-1.494,2.014l-12.159,3.61-.418.15-.73-.383-14.635-7.576-.257-.123V676.9c.072,1.453,0,4.591,8.205,8.636,9.277,4.574,13.2,3.07,13.2,3.07Z" fill="#7eaeab" opacity="0.5"/>
          <g id="Group_147" data-name="Group 147">
            <path id="Path_680" data-name="Path 680" d="M1347.373,680.629l-3.136,11.871-.416.151-.73-.381,3.136-11.824.486.277Z" fill="#f0f3ed"/>
            <path id="Path_681" data-name="Path 681" d="M1333.742,673.33l-5.287,11.364-.254-.126v-2.08l4.732-10.16.278.693Z" fill="#f6f7ef"/>
          </g>
        </g>
        <path id="Path_682" data-name="Path 682" d="M1575.991,570.908l-.034.691a2.185,2.185,0,0,1-.661,1.477l-1.548,1.515a2.4,2.4,0,0,1-1.922.68l-22.587-2.044-19.442-1.754s-1.525-2.321-.391-4.123a2.575,2.575,0,0,1,.391-.5l1.805-1.173,18.25-11.908,2.6,1.709,15.3,10.034Z" fill="#ffa634"/>
        <path id="Path_683" data-name="Path 683" d="M1330.665,718.747a7.354,7.354,0,0,1-1.689,4.968c-1.192.1-2.36.181-3.508.243-2.429.127-6.4.321-9.291-1.768-2.535-1.826-4.224-5.385-3.358-12.239.014-.222.048-.451.082-.684a32.424,32.424,0,0,1,.764-3.73s11.734-3.323,16.455,10.359A9.63,9.63,0,0,1,1330.665,718.747Z" fill="#ff8c36"/>
        <path id="Path_684" data-name="Path 684" d="M1330.665,718.747a7.354,7.354,0,0,1-1.689,4.968c-1.192.1-2.36.181-3.508.243-2.429.127-6.4.321-9.291-1.768C1324.012,724.463,1330.665,718.747,1330.665,718.747Z" fill="#e8593a"/>
        <g id="Group_163" data-name="Group 163">
          <g id="Group_151" data-name="Group 151">
            <g id="Group_149" data-name="Group 149">
              <path id="Path_685" data-name="Path 685" d="M1395.168,666.036a.752.752,0,0,1,.384-.113,1.2,1.2,0,0,1,.137.41l.51,3.552a1.789,1.789,0,0,1-.774,1.7l-1.97,1.138a1.019,1.019,0,0,1-.39.127,1.075,1.075,0,0,1-.141-.414l-.51-3.552a1.814,1.814,0,0,1,.774-1.7Z" fill="#265f91"/>
            </g>
            <g id="Group_150" data-name="Group 150">
              <path id="Path_686" data-name="Path 686" d="M1395.552,665.923c.356-.017.654.263.72.735l.51,3.552a1.806,1.806,0,0,1-.774,1.7l-1.98,1.142a.672.672,0,0,1-.963-.2,1.075,1.075,0,0,1-.141-.414l-.51-3.552.51,3.552a1.075,1.075,0,0,0,.141.414,1.019,1.019,0,0,0,.39-.127l1.97-1.138a1.789,1.789,0,0,0,.774-1.7l-.51-3.552A1.2,1.2,0,0,0,1395.552,665.923Z" fill="#5a8db7"/>
            </g>
          </g>
          <g id="Group_154" data-name="Group 154">
            <g id="Group_152" data-name="Group 152">
              <path id="Path_687" data-name="Path 687" d="M1402.369,661.848a.849.849,0,0,1,.387-.113,1.223,1.223,0,0,1,.137.414l.51,3.552a1.8,1.8,0,0,1-.774,1.7l-1.973,1.135a.932.932,0,0,1-.391.126,1.039,1.039,0,0,1-.137-.41l-.51-3.552a1.827,1.827,0,0,1,.771-1.706Z" fill="#265f91"/>
            </g>
            <g id="Group_153" data-name="Group 153">
              <path id="Path_688" data-name="Path 688" d="M1402.756,661.735c.356-.014.651.267.719.738l.51,3.552a1.8,1.8,0,0,1-.774,1.692l-1.98,1.138a.67.67,0,0,1-.966-.2,1.039,1.039,0,0,1-.137-.41l-.51-3.552.51,3.552a1.039,1.039,0,0,0,.137.41.932.932,0,0,0,.391-.126l1.973-1.135a1.8,1.8,0,0,0,.774-1.7l-.51-3.552A1.223,1.223,0,0,0,1402.756,661.735Z" fill="#5a8db7"/>
            </g>
          </g>
          <g id="Group_157" data-name="Group 157">
            <g id="Group_155" data-name="Group 155">
              <path id="Path_689" data-name="Path 689" d="M1409.574,657.664a.847.847,0,0,1,.384-.113,1.133,1.133,0,0,1,.141.414l.507,3.552a1.781,1.781,0,0,1-.771,1.692l-1.973,1.138a.924.924,0,0,1-.391.123,1.037,1.037,0,0,1-.137-.41l-.51-3.549a1.821,1.821,0,0,1,.771-1.706Z" fill="#265f91"/>
            </g>
            <g id="Group_156" data-name="Group 156">
              <path id="Path_690" data-name="Path 690" d="M1409.958,657.551c.356-.017.654.263.723.735l.507,3.556a1.794,1.794,0,0,1-.771,1.692l-1.98,1.138a.67.67,0,0,1-.966-.2,1.037,1.037,0,0,1-.137-.41l-.51-3.549.51,3.549a1.037,1.037,0,0,0,.137.41.924.924,0,0,0,.391-.123l1.973-1.138a1.781,1.781,0,0,0,.771-1.692l-.507-3.552A1.133,1.133,0,0,0,1409.958,657.551Z" fill="#5a8db7"/>
            </g>
          </g>
          <g id="Group_160" data-name="Group 160">
            <g id="Group_158" data-name="Group 158">
              <path id="Path_691" data-name="Path 691" d="M1416.779,653.479a.77.77,0,0,1,.384-.113,1.135,1.135,0,0,1,.14.41l.507,3.556a1.781,1.781,0,0,1-.771,1.692l-1.973,1.135a.931.931,0,0,1-.391.127,1.057,1.057,0,0,1-.14-.41l-.507-3.552a1.8,1.8,0,0,1,.771-1.7Z" fill="#265f91"/>
            </g>
            <g id="Group_159" data-name="Group 159">
              <path id="Path_692" data-name="Path 692" d="M1417.162,653.366c.36-.017.654.263.723.735l.507,3.552a1.8,1.8,0,0,1-.771,1.7l-1.98,1.138a.67.67,0,0,1-.966-.2,1.057,1.057,0,0,1-.14-.41l-.507-3.552.507,3.552a1.057,1.057,0,0,0,.14.41.931.931,0,0,0,.391-.127l1.973-1.135a1.781,1.781,0,0,0,.771-1.692l-.507-3.556A1.135,1.135,0,0,0,1417.162,653.366Z" fill="#5a8db7"/>
            </g>
          </g>
          <g id="Group_161" data-name="Group 161">
            <path id="Path_693" data-name="Path 693" d="M1394.986,663.947c1.339-.769,2.617-.051,2.85,1.583l1.73,12.065a4.643,4.643,0,0,1-1.994,4.383l-2.2,1.268c-1.336.769-2.617.051-2.85-1.593l-1.73-12.065a4.638,4.638,0,0,1,2-4.373Zm4.306,13.805-1.727-12.055c-.212-1.463-1.343-2.1-2.532-1.415l-2.2,1.272a4.108,4.108,0,0,0-1.768,3.887l1.727,12.055c.212,1.463,1.34,2.092,2.532,1.405l2.2-1.268a4.1,4.1,0,0,0,1.771-3.88Z" fill="#a2afb8"/>
          </g>
          <g id="Group_162" data-name="Group 162">
            <path id="Path_694" data-name="Path 694" d="M1395.034,664.282c1.189-.684,2.319-.048,2.532,1.415l1.727,12.055a4.1,4.1,0,0,1-1.771,3.88l-2.2,1.268c-1.192.687-2.319.058-2.532-1.405l-1.727-12.055a4.108,4.108,0,0,1,1.768-3.887Zm1.747,5.928-.51-3.552c-.065-.472-.363-.752-.72-.735a.752.752,0,0,0-.384.113l-1.98,1.142a1.814,1.814,0,0,0-.774,1.7l.51,3.552a1.075,1.075,0,0,0,.141.414.672.672,0,0,0,.963.2l1.98-1.142a1.806,1.806,0,0,0,.774-1.7Z" fill="#d3dbdc"/>
          </g>
        </g>
        <g id="Group_173" data-name="Group 173">
          <g id="Group_166" data-name="Group 166">
            <g id="Group_164" data-name="Group 164">
              <path id="Path_695" data-name="Path 695" d="M1508.065,600.935a.771.771,0,0,1,.384-.113,1.135,1.135,0,0,1,.14.41l.507,3.552a1.787,1.787,0,0,1-.771,1.7l-1.973,1.135a.932.932,0,0,1-.391.127,1.037,1.037,0,0,1-.137-.41l-.51-3.552a1.82,1.82,0,0,1,.771-1.706Z" fill="#265f91"/>
            </g>
            <g id="Group_165" data-name="Group 165">
              <path id="Path_696" data-name="Path 696" d="M1508.449,600.823c.356-.017.654.263.723.735l.507,3.552a1.788,1.788,0,0,1-.771,1.692l-1.98,1.138a.667.667,0,0,1-.966-.2,1.037,1.037,0,0,1-.137-.41l-.51-3.552.51,3.552a1.037,1.037,0,0,0,.137.41.932.932,0,0,0,.391-.127l1.973-1.135a1.787,1.787,0,0,0,.771-1.7l-.507-3.552A1.135,1.135,0,0,0,1508.449,600.823Z" fill="#5a8db7"/>
            </g>
          </g>
          <g id="Group_169" data-name="Group 169">
            <g id="Group_167" data-name="Group 167">
              <path id="Path_697" data-name="Path 697" d="M1515.27,596.747a.847.847,0,0,1,.384-.113,1.071,1.071,0,0,1,.137.414l.51,3.552a1.774,1.774,0,0,1-.774,1.692l-1.97,1.135a.9.9,0,0,1-.39.126,1.059,1.059,0,0,1-.141-.407l-.507-3.552a1.81,1.81,0,0,1,.771-1.706Z" fill="#265f91"/>
            </g>
            <g id="Group_168" data-name="Group 168">
              <path id="Path_698" data-name="Path 698" d="M1515.654,596.635c.356-.017.654.267.719.735l.51,3.555a1.786,1.786,0,0,1-.774,1.692l-1.98,1.138a.667.667,0,0,1-.963-.2,1.059,1.059,0,0,1-.141-.407l-.507-3.552.507,3.552a1.059,1.059,0,0,0,.141.407.9.9,0,0,0,.39-.126l1.97-1.135a1.774,1.774,0,0,0,.774-1.692l-.51-3.552A1.071,1.071,0,0,0,1515.654,596.635Z" fill="#5a8db7"/>
            </g>
          </g>
          <g id="Group_172" data-name="Group 172">
            <g id="Group_170" data-name="Group 170">
              <path id="Path_699" data-name="Path 699" d="M1522.475,592.563a.761.761,0,0,1,.384-.113,1.2,1.2,0,0,1,.137.414l.51,3.552a1.784,1.784,0,0,1-.774,1.692l-1.97,1.135a.947.947,0,0,1-.391.126,1.057,1.057,0,0,1-.141-.414l-.51-3.549a1.814,1.814,0,0,1,.774-1.7Z" fill="#265f91"/>
            </g>
            <g id="Group_171" data-name="Group 171">
              <path id="Path_700" data-name="Path 700" d="M1522.858,592.45c.356-.017.654.26.719.735l.511,3.552a1.8,1.8,0,0,1-.771,1.7l-1.98,1.138a.669.669,0,0,1-.966-.2,1.057,1.057,0,0,1-.141-.414l-.51-3.549.51,3.549a1.057,1.057,0,0,0,.141.414.947.947,0,0,0,.391-.126l1.97-1.135a1.784,1.784,0,0,0,.774-1.692l-.51-3.552A1.2,1.2,0,0,0,1522.858,592.45Z" fill="#5a8db7"/>
            </g>
          </g>
        </g>
        <path id="Path_701" data-name="Path 701" d="M1575.3,573.076l-1.548,1.511a2.408,2.408,0,0,1-1.922.684l-42.032-3.8s-1.525-2.321-.391-4.123l42.354,6.427a1.9,1.9,0,0,0,1.555-.468l2.676-2.4-.031.687A2.2,2.2,0,0,1,1575.3,573.076Z" fill="#ff8c36"/>
        <g id="Group_177" data-name="Group 177">
          <g id="Group_174" data-name="Group 174">
            <path id="Path_702" data-name="Path 702" d="M1415.853,566l-9.186,5.175-.556-.347,9.175-5.162Z" fill="#bbc6cb"/>
          </g>
          <g id="Group_175" data-name="Group 175">
            <path id="Path_703" data-name="Path 703" d="M1436.288,578.168l-9.788,5.509-.567-.356,9.777-5.5Z" fill="#bbc6cb"/>
          </g>
          <g id="Group_176" data-name="Group 176">
            <path id="Path_704" data-name="Path 704" d="M1395.6,553.943l-8.6,4.825-.555-.344,8.573-4.828Z" fill="#bbc6cb"/>
          </g>
        </g>
        <path id="Path_705" data-name="Path 705" d="M1567.752,565.513l-2.915,1.836-14.046-.7-19.189-.968-8.678-.441,23.248-15.405,2.559.544a4.722,4.722,0,0,1,3.728,5.056C1552.455,555.479,1567.752,565.513,1567.752,565.513Z" fill="#cc8c8c" opacity="0.5" style="mix-blend-mode: multiply;isolation: isolate"/>
        <g id="Group_178" data-name="Group 178">
          <path id="Path_706" data-name="Path 706" d="M1546.172,549.838s-21.011,15.049-23.094,15.378a4.877,4.877,0,0,1-5.433-2.985s9.527-51.039,10.367-52.861,14.176-7.487,14.176-7.487l2.063.834.01.229Z" fill="#e8593a"/>
          <path id="Path_707" data-name="Path 707" d="M1544.26,502.946c-2.6,1.142-13.628,6.1-14.286,7.85-.668,1.788-5.992,45.637-7.047,54.441a4.807,4.807,0,0,1-5.283-3.005s9.527-51.039,10.367-52.861,14.176-7.487,14.176-7.487l2.063.834Z" fill="#ff8c36"/>
        </g>
        <g id="Group_184" data-name="Group 184">
          <g id="Group_179" data-name="Group 179">
            <path id="Path_708" data-name="Path 708" d="M1393.908,686.557l-2.717,4.708-28.643,16.5-.009-3.133Z" fill="#e8593a"/>
          </g>
          <g id="Group_180" data-name="Group 180">
            <path id="Path_709" data-name="Path 709" d="M1400.995,682.475l-2.726,4.708-3.229,1.863,2.718-4.7Z" fill="#e8593a"/>
          </g>
          <g id="Group_181" data-name="Group 181">
            <path id="Path_710" data-name="Path 710" d="M1408.05,678.411l-2.717,4.7-3.213,1.853,2.717-4.705Z" fill="#e8593a"/>
          </g>
          <g id="Group_182" data-name="Group 182">
            <path id="Path_711" data-name="Path 711" d="M1415.128,674.332l-2.717,4.705-3.229,1.862,2.718-4.708Z" fill="#e8593a"/>
          </g>
          <g id="Group_183" data-name="Group 183">
            <path id="Path_712" data-name="Path 712" d="M1449.349,654.617l.008,3.132-33.1,19.072,2.717-4.708Z" fill="#e8593a"/>
          </g>
        </g>
        <g id="Group_194" data-name="Group 194">
          <g id="Group_189" data-name="Group 189">
            <g id="Group_188" data-name="Group 188">
              <g id="Group_185" data-name="Group 185">
                <path id="Path_713" data-name="Path 713" d="M1538.131,692.812a6.635,6.635,0,0,1-1.206,4.168,85.715,85.715,0,0,1-11.652,12.369c-6.2,5.439-14.522,11.224-24.1,13.914,0,0-3.412-3.395-7.2-7.832-5.759-6.776-12.357-15.979-8.931-19.282a67.9,67.9,0,0,1,15.564-10.5c1.261-.66,2.58-1.282,3.943-1.894a67.3,67.3,0,0,1,21.477-5.774,6.856,6.856,0,0,1,4.132,1.053c.127.068.243.147.36.215a17.092,17.092,0,0,1,5.752,6.585A15.717,15.717,0,0,1,1538.131,692.812Z" fill="#ff8c36"/>
                <path id="Path_714" data-name="Path 714" d="M1538.131,692.816a6.648,6.648,0,0,1-1.209,4.167s-14.906,20.407-35.749,26.277c0,0-3.422-3.391-7.2-7.829,21.347-7.58,37.1-23.737,42.3-29.593A15.792,15.792,0,0,1,1538.131,692.816Z" fill="#e8593a"/>
                <path id="Path_715" data-name="Path 715" d="M1505.6,715.475c0,3.286-1.055,5.682-2.792,6.971-2.076,1.532-5.118,1.5-8.517-.455-6.242-3.6-11.306-12.349-11.306-19.545,0-3.9,1.49-6.55,3.851-7.576,1.99-.868,4.6-.588,7.455,1.06C1500.539,699.53,1505.6,708.279,1505.6,715.475Z" fill="#f6f7ef"/>
                <path id="Path_716" data-name="Path 716" d="M1504.341,715.472c0,2.752-.812,4.868-2.285,5.962a3.428,3.428,0,0,1-.308.205,4.567,4.567,0,0,1-2.4.636,7.783,7.783,0,0,1-2.916-.636l2.4-8.226a3.411,3.411,0,0,1-1.737-.376c-.116-.058-.236-.12-.353-.188a7.735,7.735,0,0,1-2.124-1.887,9.911,9.911,0,0,1-1.881-3.75l-5.92,1.415-1.316.318a19.1,19.1,0,0,1-1.261-6.5,9.958,9.958,0,0,1,.651-3.733,4.445,4.445,0,0,1,4.354-3.06,7.772,7.772,0,0,1,2.826.595,11.885,11.885,0,0,1,1.593.773,21.766,21.766,0,0,1,7.462,7.812c.045.075.086.15.137.233.2.338.329.581.456.834A21.205,21.205,0,0,1,1504.341,715.472Z" fill="#9a9893"/>
                <path id="Path_717" data-name="Path 717" d="M1494.615,710.963l-5.242,4.95c-.062-.082-.123-.157-.182-.239a25.781,25.781,0,0,1-3.693-6.728l1.316-.318,5.92-1.415A9.911,9.911,0,0,0,1494.615,710.963Z" fill="#b5b3ad"/>
                <path id="Path_718" data-name="Path 718" d="M1497.092,713.038l-4.2,6.472a21.149,21.149,0,0,1-3.519-3.6l5.242-4.95a7.735,7.735,0,0,0,2.124,1.887C1496.856,712.918,1496.976,712.98,1497.092,713.038Z" fill="#c9cdcb"/>
                <path id="Path_719" data-name="Path 719" d="M1498.829,713.414l-2.4,8.226a11.7,11.7,0,0,1-1.507-.732,15.772,15.772,0,0,1-2.028-1.4l4.2-6.472A3.411,3.411,0,0,0,1498.829,713.414Z" fill="#b5b3ad"/>
                <path id="Path_720" data-name="Path 720" d="M1500.96,710.412a2.982,2.982,0,0,1-1.189,2.694,2.008,2.008,0,0,1-.887.294,6.666,6.666,0,0,1-5.1-.362,4.279,4.279,0,0,1-1.36-1.347c-2.193-3.371-.189-6.954.562-8.079a2.1,2.1,0,0,1,.2-.284c.819-.944,2.1-1.056,3.563-.215a7.879,7.879,0,0,1,2.09,1.846c.175.222.339.448.5.68a6.506,6.506,0,0,1,.356.547,10.149,10.149,0,0,1,.774,1.631A7.671,7.671,0,0,1,1500.96,710.412Z" fill="#6d6b68"/>
                <path id="Path_721" data-name="Path 721" d="M1500.96,710.412a2.982,2.982,0,0,1-1.189,2.694,2.008,2.008,0,0,1-.887.294,6.666,6.666,0,0,1-5.1-.362,10.4,10.4,0,0,0,5.05-8.072c.175.215.339.441.5.673a6.506,6.506,0,0,1,.356.547,10.149,10.149,0,0,1,.774,1.631A7.671,7.671,0,0,1,1500.96,710.412Z" fill="#585654"/>
                <path id="Path_722" data-name="Path 722" d="M1504.341,715.472c0,2.752-.812,4.868-2.285,5.962a3.428,3.428,0,0,1-.308.205c-.021-21.938-16.859-22.93-16.859-22.93a4.445,4.445,0,0,1,4.354-3.06,7.772,7.772,0,0,1,2.826.595,11.885,11.885,0,0,1,1.593.773,21.766,21.766,0,0,1,7.462,7.812c.045.075.086.15.137.233.2.338.329.581.456.834A21.205,21.205,0,0,1,1504.341,715.472Z" fill="#bbc6cb" style="mix-blend-mode: multiply;isolation: isolate"/>
              </g>
              <g id="Group_187" data-name="Group 187">
                <g id="Group_186" data-name="Group 186">
                  <path id="Path_723" data-name="Path 723" d="M1530.574,680.942s-6.852,3.405-13.759,6.721c-6.016,2.9-12.094,5.727-13.69,6.188-.2.044-.394.092-.579.116-2.974.369-4-3.337-4-3.337l2.059-4.978,1.84-4.458,4.512-10.923,3.4-1.884,15.749-8.646,3.69-2.034.13,3.88.589,17.665Z" fill="#f9642d"/>
                  <path id="Path_724" data-name="Path 724" d="M1510.364,668.388l-7.821,25.576c-2.974.376-4-3.337-4-3.337l8.411-20.359Z" fill="#ffa634"/>
                </g>
              </g>
            </g>
            <path id="Path_725" data-name="Path 725" d="M1538.131,692.812a6.635,6.635,0,0,1-1.206,4.168,85.715,85.715,0,0,1-11.652,12.369c3.251-16.595-8.459-21.685-8.459-21.685s-9.257-3.856-11.213-3.7a1.881,1.881,0,0,1-1.055-.205,5.525,5.525,0,0,1-2.1-2.564l4.512-10.923,3.4-1.884,15.749-8.646c1.148.53,2.443,1.152,3.82,1.846l.589,17.665a17.092,17.092,0,0,1,5.752,6.585A15.717,15.717,0,0,1,1538.131,692.812Z" fill="#cc8c8c" opacity="0.5" style="mix-blend-mode: multiply;isolation: isolate"/>
          </g>
          <path id="Path_726" data-name="Path 726" d="M1610.637,687.407v4.044l-25.019,14.513a8.092,8.092,0,0,1-6.941.578c-21.535-8.106-132.435-49.908-135.827-51.467-3.762-1.73,0-9.238,0-9.238s38.764-25.405,46.288-29.737a12.906,12.906,0,0,1,13.594,0l7.29,4.827.534.349,91.194,60.253.565.369,7.28,4.814Z" fill="#f0f3ed"/>
          <path id="Path_727" data-name="Path 727" d="M1610.637,687.407v1.685l-25.019,16.872a8.1,8.1,0,0,1-6.941.578c-20.076-7.556-131.353-49.5-135.827-51.467-3.792-1.668,0-9.238,0-9.238l140.3,54.8,26.441-13.928Z" fill="#d3dbdc"/>
          <path id="Path_728" data-name="Path 728" d="M1602.316,681.9l-7.325,3.523L1564.524,667.9l-.59-.334-20.227-11.628-.578-.334L1523.1,644.082l-.591-.334-25.526-14.679,13.041-8.14.532.347,23.872,15.763.543.356,18.63,12.322.543.359,18.8,12.423.545.359,28.257,18.672Z" fill="#bbc6cb"/>
          <path id="Path_729" data-name="Path 729" d="M1601.75,681.53l-6.734,3.246L1498.1,629.047l12.452-7.771Z" fill="#e5eae7"/>
          <g id="Group_193" data-name="Group 193">
            <g id="Group_190" data-name="Group 190">
              <path id="Path_730" data-name="Path 730" d="M1554.144,650.076l-10.437,5.865-.578-.334,10.472-5.89Z" fill="#bbc6cb"/>
            </g>
            <g id="Group_191" data-name="Group 191">
              <path id="Path_731" data-name="Path 731" d="M1573.492,662.858l-8.969,5.045-.59-.334,9.014-5.07Z" fill="#bbc6cb"/>
            </g>
            <g id="Group_192" data-name="Group 192">
              <path id="Path_732" data-name="Path 732" d="M1534.97,637.395l-11.872,6.688-.591-.334,11.919-6.709Z" fill="#bbc6cb"/>
            </g>
          </g>
        </g>
      </g>
      <path id="Path_733" data-name="Path 733" d="M1409.553,607.7a6.524,6.524,0,0,1,1.367-.615C1410.444,607.312,1409.992,607.523,1409.553,607.7Z" fill="#cc8c8c"/>
    </g>
  </g>
</svg>
