<svg xmlns="http://www.w3.org/2000/svg" width="250" height="270" viewBox="0 0 250 270">
  <g id="Ai" transform="translate(-1217 -9186)">
    <g id="Vector_Smart_Object" data-name="Vector Smart Object" transform="translate(443.084 9144.012)">
      <path id="Path_1" data-name="Path 1" d="M784.775,309.777c0-1.22,49.764-2.211,111.152-2.211s111.155.991,111.155,2.211-49.766,2.211-111.155,2.211S784.775,311,784.775,309.777Z" fill="#fff6e3"/>
      <g id="Group_6" data-name="Group 6">
        <rect id="Rectangle_1" data-name="Rectangle 1" width="31.101" height="45.381" transform="translate(810.873 145.819)" fill="#ffc817"/>
        <g id="Group_1" data-name="Group 1">
          <rect id="Rectangle_2" data-name="Rectangle 2" width="16.558" height="45.381" transform="matrix(-1, 0, 0, -1, 858.533, 191.2)" fill="#fff"/>
          <path id="Path_2" data-name="Path 2" d="M857.9,146.456v44.106H842.61V146.456Zm.636-.637H841.974V191.2h16.558v-45.38Z" fill="#c5ac75"/>
        </g>
        <g id="Group_3" data-name="Group 3">
          <rect id="Rectangle_3" data-name="Rectangle 3" width="64.024" height="67.093" transform="translate(807.881 222.105)" fill="#ffedd9"/>
          <g id="Group_2" data-name="Group 2">
            <rect id="Rectangle_4" data-name="Rectangle 4" width="15.052" height="67.093" transform="matrix(-1, 0, 0, -1, 886.956, 289.199)" fill="#fff"/>
            <path id="Path_3" data-name="Path 3" d="M886.321,222.742v65.82H872.54v-65.82Zm.636-.637H871.9V289.2h15.052V222.1Z" fill="#b75230"/>
          </g>
          <path id="Path_4" data-name="Path 4" d="M810.031,289.2l12.749-31.591,13.1,14.121,12.308-5.094,2.993,22.564Z" fill="#ffedd9"/>
          <path id="Path_5" data-name="Path 5" d="M839.242,222.105l.651,22.951,2.277-4.368,1.236,4.368.976-3.195,2.212,3.195,2.017-1.7,1.106,3.977,1.171-25.233Z" fill="#faebda"/>
          <path id="Path_6" data-name="Path 6" d="M834.882,289.2l1.627-27.907,2.212,3.195.52-.782,1.822,2.543,1.757-3.521.521.848,1.724-3.13V289.2Z" fill="#faebda"/>
          <path id="Path_7" data-name="Path 7" d="M878.861,287.179h-.006a.254.254,0,0,1-.248-.261l1.637-62.543a.255.255,0,0,1,.256-.249h.006a.254.254,0,0,1,.248.261l-1.637,62.543A.256.256,0,0,1,878.861,287.179Z" fill="#b75230"/>
        </g>
        <g id="Group_4" data-name="Group 4">
          <path id="Path_8" data-name="Path 8" d="M878.793,295.32l-3.119,14.342h-7.543L851.739,295.32Z" fill="#070707"/>
          <path id="Path_9" data-name="Path 9" d="M873.044,295.32l-3.119,14.342h-1.794l-11.091-9.7-5.3-4.638Z" fill="#070707"/>
          <path id="Path_10" data-name="Path 10" d="M886.957,295.327h-73.98a3.064,3.064,0,0,1,0-6.128h73.98a3.064,3.064,0,0,1,0,6.128Z" fill="#070707"/>
          <path id="Path_11" data-name="Path 11" d="M878.8,295.327h-73.98a3.064,3.064,0,0,1,0-6.128H878.8a3.064,3.064,0,0,1,0,6.128Z" fill="#070707"/>
          <path id="Path_12" data-name="Path 12" d="M804.822,295.327a3.061,3.061,0,0,1-3.059-3.063V177.3a9.9,9.9,0,0,0-9.875-9.9h-4.44a3.065,3.065,0,0,1,0-6.13h4.44A16.027,16.027,0,0,1,807.881,177.3V292.264A3.061,3.061,0,0,1,804.822,295.327Z" fill="#070707"/>
          <rect id="Rectangle_5" data-name="Rectangle 5" width="20.561" height="11.345" rx="3.325" transform="translate(773.916 158.338)" fill="#2fc0f2"/>
          <path id="Rectangle_6" data-name="Rectangle 6" d="M1.983,0H7.288a0,0,0,0,1,0,0V14.345a0,0,0,0,1,0,0H1.983A1.983,1.983,0,0,1,0,12.362V1.983A1.983,1.983,0,0,1,1.983,0Z" transform="translate(794.477 198.372)" fill="#2d0d08"/>
          <path id="Path_13" data-name="Path 13" d="M789.059,208.458l5.418,2.043v-9.915l-5.418,2.043Z" fill="#8f3a1e"/>
          <path id="Path_14" data-name="Path 14" d="M790.733,205.544a6.359,6.359,0,1,1-6.359-6.372A6.366,6.366,0,0,1,790.733,205.544Z" fill="#2d0d08"/>
          <path id="Path_15" data-name="Path 15" d="M785.956,205.544a1.582,1.582,0,1,1-1.582-1.585A1.583,1.583,0,0,1,785.956,205.544Z" fill="#fefaf1"/>
          <path id="Path_16" data-name="Path 16" d="M822.194,292.264a17.373,17.373,0,1,1-17.372-17.41A17.391,17.391,0,0,1,822.194,292.264Z" fill="#070707"/>
          <path id="Path_17" data-name="Path 17" d="M810.17,292.264a5.348,5.348,0,1,1-5.348-5.359A5.353,5.353,0,0,1,810.17,292.264Z" fill="#fefaf1"/>
          <path id="Path_18" data-name="Path 18" d="M790.639,292.519a.256.256,0,0,1-.254-.256,14.47,14.47,0,0,1,14.437-14.468.256.256,0,0,1,0,.511,13.958,13.958,0,0,0-13.929,13.956A.256.256,0,0,1,790.639,292.519Z" fill="#fff"/>
          <path id="Path_19" data-name="Path 19" d="M873.044,295.32l-16,4.638-5.3-4.638Z" fill="#fff"/>
        </g>
        <g id="Group_5" data-name="Group 5">
          <rect id="Rectangle_7" data-name="Rectangle 7" width="47.757" height="30.906" transform="translate(807.881 191.2)" fill="#fa402f"/>
          <rect id="Rectangle_8" data-name="Rectangle 8" width="23.792" height="30.906" transform="matrix(-1, 0, 0, -1, 879.43, 222.105)" fill="#ff6661"/>
          <path id="Path_20" data-name="Path 20" d="M820.893,191.2l.846,9.845.651-2.673.52,1.7.781-.913,2.277,2.608.976-10.563Z" fill="#faebda"/>
          <path id="Path_21" data-name="Path 21" d="M820.894,222.1c-.13,0,0-14.976,0-14.976l2.276,3.957.749-1.238,1.268,2.068,1.757-2.981L827.4,222.1Z" fill="#faebda"/>
          <path id="Path_22" data-name="Path 22" d="M866.832,220.869h0a.256.256,0,0,1-.25-.261l.668-27.921a.267.267,0,0,1,.261-.25.256.256,0,0,1,.248.261l-.666,27.921A.257.257,0,0,1,866.832,220.869Z" fill="#fff"/>
          <path id="Path_23" data-name="Path 23" d="M831.759,222.105l4.88-20.343,5.335,20.343Z" fill="#ffe0dc"/>
        </g>
        <path id="Path_24" data-name="Path 24" d="M787.668,161.034H777.227a.564.564,0,0,1-.563-.564h0a.565.565,0,0,1,.563-.564h10.441a.566.566,0,0,1,.563.564h0A.565.565,0,0,1,787.668,161.034Z" fill="#fff"/>
      </g>
      <g id="Group_11" data-name="Group 11">
        <g id="Group_7" data-name="Group 7">
          <path id="Path_25" data-name="Path 25" d="M946.133,92.24l1.4,10.316,3.068-.964s.461,8.8,8.107,5.924l.389,12.873s9,2.77,15.2-3.232L962.09,84.477S950.22,81.382,946.133,92.24Z" fill="#f89184"/>
          <path id="Path_26" data-name="Path 26" d="M946.133,92.24c-13.15,2.64-12.539-14.348-5.2-14.973s4.607,5.576,10.547-.213,13.166-6.233,14.733-2.507,7.67,1.647,6.667,7.949,5.453,8.83.316,11.795-3.651,10.147-3.651,10.147-3.569-5.257-7.441-5.526c1.965-5.8,1.172-10.284-2.319-9.48s-.439,7.492-.439,7.492l-2.534.538s.118-7.908-3.527-7.836S946.133,92.24,946.133,92.24Z" fill="#2d0d08"/>
          <path id="Path_27" data-name="Path 27" d="M949.642,95.944c.315,1.485.887,2.62,1.278,2.538s.453-1.354.138-2.839-.885-2.622-1.277-2.539S949.329,94.457,949.642,95.944Z" fill="#2d0d08"/>
          <path id="Path_28" data-name="Path 28" d="M947.141,77.367a.322.322,0,0,0,.2-.573c-5.772-4.577-10.652-2.413-11.684-1.152a.321.321,0,1,0,.5.406c.8-.975,5.344-3.07,10.791,1.249A.318.318,0,0,0,947.141,77.367Z" fill="#2d0d08"/>
          <path id="Path_29" data-name="Path 29" d="M972.725,87.123a.361.361,0,0,0,.114-.021.323.323,0,0,0,.184-.416c-.577-1.52-.008-2.754.653-4.185a8.688,8.688,0,0,0,.881-6.638.321.321,0,1,0-.618.172c.761,2.724-.056,4.489-.846,6.2-.69,1.494-1.342,2.907-.668,4.683A.321.321,0,0,0,972.725,87.123Z" fill="#2d0d08"/>
          <path id="Path_30" data-name="Path 30" d="M969.457,77.887a.323.323,0,0,0,.234-.543,5.86,5.86,0,0,1-1.291-2.48,9.815,9.815,0,0,0-2.073-3.85.321.321,0,1,0-.483.422,9.238,9.238,0,0,1,1.947,3.627,6.449,6.449,0,0,0,1.434,2.724A.316.316,0,0,0,969.457,77.887Z" fill="#2d0d08"/>
        </g>
        <path id="Path_31" data-name="Path 31" d="M955.821,125.874a38.685,38.685,0,0,1-1.393-7.076s11.9-8.339,20.437-4.989a16.942,16.942,0,0,1,1.369,8.554Z" fill="#fa402f"/>
        <path id="Path_32" data-name="Path 32" d="M942.514,259.121c5.025,7.09,13.382,20.91,19.995,32.187.742,1.284,1.486,2.517,2.178,3.724l4.871-2.826c-.307-1.053-.666-2.26-1.1-3.57-3.1-9.633-8.947-25.816-13.868-37.659a6.5,6.5,0,0,1,.205-5.394c7.408-14.514,15.874-24.575,21.61-32.572.641-.564,1.2-1.155,1.742-1.72,12.023-12.817,1.359-24.865-.486-26.613-8.46-2.157-27.3,8.658-27.3,8.658,3.512,11.79-4.384,28.821-10.767,53.044C938.412,250.85,939.848,255.346,942.514,259.121Z" fill="#ffc817"/>
        <path id="Path_33" data-name="Path 33" d="M950.359,193.346c.076.718.153,1.438.256,2.157,4.461,36.22,25.069,58.8,28.3,100.259.18,2.362.205,3.672.205,3.672h5.639s.1-1.591.232-4.392c.615-13.357,1.666-54.3-6.845-83.741,5.05-5.368,6.1-10.609,5.486-15a21.435,21.435,0,0,0-5.972-11.611C969.2,182.531,950.359,193.346,950.359,193.346Z" fill="#ffc817"/>
        <path id="Path_34" data-name="Path 34" d="M950.359,193.346c.076.718.153,1.438.256,2.157,7.382-3.442,22.018-6.781,33.016.8a21.435,21.435,0,0,0-5.972-11.611C969.2,182.531,950.359,193.346,950.359,193.346Z" fill="#3e5cbc"/>
        <path id="Path_35" data-name="Path 35" d="M932.707,137.1c-.982-5.657-5.073-12.707-6.219-14.018l-1.636,1.639s-3.518-6.477-7.527-2.377c-1.083,3.914,7.855,15.412,11.29,17.544Z" fill="#f89184"/>
        <path id="Path_36" data-name="Path 36" d="M946.286,155.3c3.1-20.878,14.584-37.036,24.311-33.343s1.009,34.965-23.983,52.034c-13.417-13.936-18-34.1-18-34.1l4.092-2.788S937.416,147.981,946.286,155.3Z" fill="#fa402f"/>
        <path id="Path_37" data-name="Path 37" d="M917.24,116.762l8.177,15.823,2.025-1.207,5.434-3.211-7.536-16.157-5.947,3.493Z" fill="#2fc0f2"/>
        <path id="Path_38" data-name="Path 38" d="M917.24,116.762l8.177,15.823,2.025-1.207L919.393,115.5Z" fill="#a7e7f9"/>
        <path id="Path_39" data-name="Path 39" d="M969.548,292.206l4.764,7.29a2.244,2.244,0,0,1-.194,2.727c-1.494,1.679-4.147,4.624-6.006,6.5a3.192,3.192,0,0,1-2.284.945H953.977a.793.793,0,0,1-.275-1.537c2.928-1.07,6.311-2.643,7.638-4.529a23.956,23.956,0,0,0,3.354-8.574Z" fill="#2d0d08"/>
        <path id="Path_40" data-name="Path 40" d="M941.522,198.479c22.346-31.213-.968-72.162,22.983-80.391s26.422,38.339,14.523,65.743C954.743,188.612,941.522,198.479,941.522,198.479Z" fill="#ff3f41"/>
        <path id="Path_41" data-name="Path 41" d="M985,295.032c-.129,2.8-.231,4.394-.231,4.394h-5.64s-.025-1.311-.205-3.675Z" fill="#f89184"/>
        <path id="Path_42" data-name="Path 42" d="M984.765,299.426a31.949,31.949,0,0,1,.741,7.554,2.7,2.7,0,0,1-2.694,2.692H961.4a.918.918,0,0,1-.256-1.8c6.813-1.877,16.207-5.016,17.984-8.445Z" fill="#2d0d08"/>
        <path id="Path_43" data-name="Path 43" d="M962.509,291.308c.742,1.284,1.486,2.517,2.178,3.724l4.871-2.826c-.307-1.053-.666-2.26-1.1-3.57Z" fill="#f89184"/>
        <path id="Path_44" data-name="Path 44" d="M964.837,139.593a11.614,11.614,0,0,1,.119-2.714.318.318,0,0,1,.289-.271.322.322,0,0,1,.331.22c1.58,4.809,6.336,8.569,9.209,9.706a.329.329,0,0,1,.18.417.318.318,0,0,1-.415.178,18.554,18.554,0,0,1-9.093-8.84c-.278,6.716,5.627,11.051,5.689,11.1a.318.318,0,0,1,.073.448.321.321,0,0,1-.447.073C970.711,149.862,965.3,145.873,964.837,139.593Z" fill="#fff"/>
        <g id="Group_10" data-name="Group 10">
          <g id="Group_8" data-name="Group 8">
            <rect id="Rectangle_9" data-name="Rectangle 9" width="46.304" height="44.597" transform="matrix(-0.998, -0.064, 0.064, -0.998, 1020.718, 210.93)" fill="#fff"/>
            <path id="Path_45" data-name="Path 45" d="M1021.014,211.269l-46.844-3.024.022-.319,2.88-44.822,46.842,3.024-.021.317Zm-46.167-3.618,45.574,2.941,2.818-43.87-45.572-2.941Z" fill="#b75230"/>
          </g>
          <g id="Group_9" data-name="Group 9">
            <rect id="Rectangle_10" data-name="Rectangle 10" width="9.152" height="44.597" transform="matrix(0.998, 0.064, -0.064, 0.998, 968.237, 162.853)" fill="#fff"/>
            <path id="Path_46" data-name="Path 46" d="M974.806,208.287l-9.768-.631.022-.317,2.88-44.824,9.768.631-.022.317Zm-9.091-1.225,8.5.548,2.818-43.87-8.5-.548Z" fill="#b75230"/>
          </g>
        </g>
        <path id="Path_47" data-name="Path 47" d="M994.124,150c-20.855-2.961-36.99-12.591-33.373-22.364,3.4-9.176,28.7-4.048,46.022,17.236a13.966,13.966,0,0,1,3.046,9.574,297.956,297.956,0,0,1-4.944,39.761l-4.758-1.419S1001.188,176.358,994.124,150Z" fill="#fa402f"/>
        <path id="Path_48" data-name="Path 48" d="M1004.875,194.206c.946,4.347,1.146,7.546-1,11.167a3.355,3.355,0,0,1-6.266-2.031,16.342,16.342,0,0,1,1.936-6.968c-3.4.51-2.99,4.86-4.852,4.049-1.981-.862,1.2-5.681,5.424-7.637Z" fill="#f89184"/>
      </g>
      <g id="Group_14" data-name="Group 14">
        <g id="Group_12" data-name="Group 12">
          <path id="Path_49" data-name="Path 49" d="M920.386,110.942,894.253,88a23.291,23.291,0,0,0,2.389-10.152c0-19.627-25.69-35.538-57.38-35.538s-57.38,15.911-57.38,35.538,25.69,35.537,57.38,35.537c18.3,0,34.58-5.309,45.088-13.571Z" fill="#fff"/>
          <path id="Path_50" data-name="Path 50" d="M839.262,113.7c-31.815,0-57.7-16.086-57.7-35.857s25.883-35.857,57.7-35.857,57.7,16.086,57.7,35.857a23.575,23.575,0,0,1-2.316,10.071L920.6,110.7a.319.319,0,0,1,.068.4.316.316,0,0,1-.37.15l-35.88-11.083C873.391,108.769,856.946,113.7,839.262,113.7Zm0-71.077c-31.464,0-57.061,15.8-57.061,35.22s25.6,35.218,57.061,35.218c17.613,0,33.976-4.921,44.89-13.5a.316.316,0,0,1,.289-.054L919.055,110.2,894.043,88.237a.322.322,0,0,1-.078-.378,22.981,22.981,0,0,0,2.359-10.014C896.325,58.425,870.726,42.626,839.262,42.626Z" fill="#0c0b0b"/>
        </g>
        <g id="Group_13" data-name="Group 13">
          <path id="Path_51" data-name="Path 51" d="M850.891,91.209a.317.317,0,0,1-.11-.019l-3.645-1.335c-.04.258-.107.629-.211,1.072a.313.313,0,0,1-.381.237.318.318,0,0,1-.235-.384,11.655,11.655,0,0,0,.25-1.394.321.321,0,0,1,.148-.237.324.324,0,0,1,.278-.03l3.663,1.343,2.435-13.252a.318.318,0,1,1,.625.116l-2.5,13.622a.32.32,0,0,1-.154.22A.327.327,0,0,1,850.891,91.209Z" fill="#161414"/>
          <path id="Path_52" data-name="Path 52" d="M834.547,113.583h-.022a.318.318,0,0,1-.294-.341l.728-10.116a.335.335,0,0,1,.34-.3.321.321,0,0,1,.294.341l-.728,10.116A.318.318,0,0,1,834.547,113.583Z" fill="#161414"/>
          <path id="Path_53" data-name="Path 53" d="M813.16,109.82a.319.319,0,0,1-.289-.449l8.67-19.358a.318.318,0,0,1,.58.261l-8.67,19.358A.319.319,0,0,1,813.16,109.82Z" fill="#161414"/>
          <path id="Path_54" data-name="Path 54" d="M848.5,81.971c-.51,1.955-1.34,3.428-1.854,3.294s-.52-1.829-.01-3.782,1.339-3.43,1.854-3.294S849.01,80.017,848.5,81.971Z" fill="#161414"/>
          <path id="Path_55" data-name="Path 55" d="M852.73,57.329a.389.389,0,0,1-.073-.08.412.412,0,0,1,.1-.575c7.947-5.717,14.288-2.536,15.58-.809a.416.416,0,0,1-.084.578.411.411,0,0,1-.579-.084c-1.006-1.346-6.918-4.422-14.439.986A.412.412,0,0,1,852.73,57.329Z" fill="#161414"/>
          <path id="Path_56" data-name="Path 56" d="M818.369,65.691a12.645,12.645,0,0,0-.97-3.076c-.954-2.346-2.035-5-.761-8.87a.413.413,0,1,1,.785.258c-1.181,3.578-.205,5.977.741,8.3.106.261.211.521.313.779Z" fill="#161414"/>
          <path id="Path_57" data-name="Path 57" d="M823.308,55.719a8.391,8.391,0,0,0,1.575-2.918,13,13,0,0,1,2.992-4.986.383.383,0,0,1,.582-.013.41.41,0,0,1,.013.583,12.368,12.368,0,0,0-2.815,4.707,12.814,12.814,0,0,1-.935,2.09Z" fill="#161414"/>
          <path id="Path_58" data-name="Path 58" d="M843.755,109.446a.31.31,0,0,1-.135-.03c-.169-.08-16.827-8.075-13.3-20.118a.331.331,0,0,1,.091-.145,24.154,24.154,0,0,0,4.828-6.582.209.209,0,0,1,.019-.043l.017-.04c.013-.025.025-.051.037-.078a.3.3,0,0,1,.025-.045c.451-.93,2.609-5.622,1.547-8.059a2.239,2.239,0,0,0-1.552-1.311,2.824,2.824,0,0,0-2.963.594c-1.7,1.717-1.822,6.219-.312,11.468a.317.317,0,0,1-.3.406c-4.95.113-9.935,6.691-9.985,6.758a.319.319,0,0,1-.393.1.315.315,0,0,1-.169-.366c.022-.092,2.276-9.282-4.092-13.365-3.965-2.542-2.749-4.742-1.208-7.53,1.165-2.112,2.617-4.741,2.21-8.36-.59-5.278,2.224-6.27,4.942-7.227,1.831-.645,3.561-1.254,4.44-3.1a5.609,5.609,0,0,1,4.432-3c4.675-.726,10.768,2.085,15.515,7.162,4.016,4.3,4.713,3.769,6.246,2.616,1.326-1,3.141-2.361,7.568-1.776,2.664.352,4.836,2.3,5.958,5.332a12.512,12.512,0,0,1-1.987,12.236c-1.869,2.092-5.451,4.249-11.918,2.635a.3.3,0,0,1-.119-.059c-.046-.035-4.494-3.538-9.175-3.849-.062,0-.124-.006-.186-.006-3.093,0-4.138,5.238-4.464,7.78a.306.306,0,0,1,.052.213c-.73,6.347,7.67,9.032,7.756,9.059a.318.318,0,0,1,.194.436c-.044.1-4.4,9.8-2.375,17.576a.319.319,0,0,1-.205.381l-.936.32A.327.327,0,0,1,843.755,109.446ZM830.9,89.56c-3.127,10.968,11.426,18.5,12.873,19.223l.536-.183c-1.734-7.224,1.591-15.634,2.342-17.394-1.6-.589-8.379-3.442-7.885-9.381a.32.32,0,0,1-.057-.221c.391-3.309,1.626-8.833,5.354-8.572,4.647.311,8.912,3.509,9.471,3.943,6.109,1.507,9.478-.5,11.223-2.458a11.851,11.851,0,0,0,1.865-11.588c-1.038-2.81-3.022-4.6-5.446-4.924-4.152-.553-5.863.725-7.1,1.657-1.815,1.367-2.879,1.816-7.088-2.691-5.6-5.988-11.55-7.5-14.957-6.969a4.937,4.937,0,0,0-3.953,2.643c-.992,2.082-2.93,2.764-4.8,3.423-2.714.956-5.055,1.781-4.519,6.555.426,3.823-1.078,6.549-2.289,8.739-1.537,2.785-2.464,4.467,1,6.686,5.3,3.4,4.987,10.06,4.593,12.819,1.586-1.846,5.33-5.681,9.282-6.018-1.48-5.38-1.264-9.845.58-11.709a3.463,3.463,0,0,1,3.586-.758,2.878,2.878,0,0,1,1.963,1.669c1.246,2.864-1.318,8.116-1.62,8.719A24.242,24.242,0,0,1,830.9,89.56Z" fill="#161414"/>
        </g>
      </g>
    </g>
  </g>
</svg>
