<svg xmlns="http://www.w3.org/2000/svg" xmlns:xlink="http://www.w3.org/1999/xlink" width="514" height="395.577" viewBox="0 0 514 395.577">
  <defs>
    <linearGradient id="linear-gradient" y1="0.5" x2="1" y2="0.5" gradientUnits="objectBoundingBox">
      <stop offset="0" stop-color="#d8dee8"/>
      <stop offset="1" stop-color="#fff"/>
    </linearGradient>
    <linearGradient id="linear-gradient-2" x1="0.498" y1="1.339" x2="0.494" y2="2.748" xlink:href="#linear-gradient"/>
    <linearGradient id="linear-gradient-4" x1="0.448" y1="2.745" x2="0.501" y2="0.849" xlink:href="#linear-gradient"/>
    <linearGradient id="linear-gradient-5" x1="0.64" y1="-0.109" x2="0.226" y2="1.762" gradientUnits="objectBoundingBox">
      <stop offset="0.004" stop-color="#e38ddd"/>
      <stop offset="1" stop-color="#9571f6"/>
    </linearGradient>
    <linearGradient id="linear-gradient-6" x1="0.632" y1="-0.11" x2="0.246" y2="1.762" xlink:href="#linear-gradient-5"/>
    <linearGradient id="linear-gradient-7" x1="11.269" y1="0.069" x2="10.171" y2="1.106" gradientUnits="objectBoundingBox">
      <stop offset="0" stop-color="#ffc444"/>
      <stop offset="0.314" stop-color="#fba94a"/>
      <stop offset="0.996" stop-color="#f36f56"/>
    </linearGradient>
    <linearGradient id="linear-gradient-8" x1="9.242" y1="0.094" x2="8.309" y2="1.17" xlink:href="#linear-gradient-7"/>
    <linearGradient id="linear-gradient-9" x1="7.117" y1="0.061" x2="6.15" y2="1.175" xlink:href="#linear-gradient-7"/>
    <linearGradient id="linear-gradient-10" x1="8.627" y1="0.063" x2="7.53" y2="1.101" xlink:href="#linear-gradient-7"/>
    <linearGradient id="linear-gradient-11" y1="0.5" x2="1" y2="0.5" gradientUnits="objectBoundingBox">
      <stop offset="0" stop-color="#311944"/>
      <stop offset="1" stop-color="#6b3976"/>
    </linearGradient>
    <linearGradient id="linear-gradient-15" x1="0" y1="0.5" x2="1" y2="0.5" xlink:href="#linear-gradient-7"/>
    <linearGradient id="linear-gradient-16" y1="0.5" x2="1" y2="0.5" gradientUnits="objectBoundingBox">
      <stop offset="0" stop-color="#40447e"/>
      <stop offset="0.996" stop-color="#3c3b6b"/>
    </linearGradient>
    <linearGradient id="linear-gradient-26" x1="0.506" y1="-1.961" x2="0.5" y2="0.518" xlink:href="#linear-gradient-7"/>
    <linearGradient id="linear-gradient-27" x1="3.894" y1="1.893" x2="2.675" y2="0.222" gradientUnits="objectBoundingBox">
      <stop offset="0" stop-color="#aa80f9"/>
      <stop offset="0.996" stop-color="#6165d7"/>
    </linearGradient>
    <linearGradient id="linear-gradient-28" x1="5.247" y1="1.983" x2="3.521" y2="0.244" xlink:href="#linear-gradient-27"/>
    <linearGradient id="linear-gradient-29" x1="2.102" y1="2.102" x2="1.009" y2="0.481" xlink:href="#linear-gradient-27"/>
    <linearGradient id="linear-gradient-30" x1="0.625" y1="0.808" x2="1.465" y2="-0.847" gradientUnits="objectBoundingBox">
      <stop offset="0" stop-color="#ff9085"/>
      <stop offset="1" stop-color="#fb6fbb"/>
    </linearGradient>
    <linearGradient id="linear-gradient-31" y1="0.5" x2="1" y2="0.5" gradientUnits="objectBoundingBox">
      <stop offset="0" stop-color="#311944"/>
      <stop offset="1" stop-color="#893976"/>
    </linearGradient>
    <linearGradient id="linear-gradient-33" x1="0.838" y1="0.728" x2="0.376" y2="0.417" xlink:href="#linear-gradient-11"/>
    <linearGradient id="linear-gradient-34" x1="-4.121" y1="0.56" x2="-5.165" y2="1.057" xlink:href="#linear-gradient-7"/>
    <linearGradient id="linear-gradient-35" x1="0.521" y1="4.564" x2="0.495" y2="-0.403" xlink:href="#linear-gradient-11"/>
  </defs>
  <g id="Vector_Smart_Object" data-name="Vector Smart Object" transform="translate(-88.797 -235.005)">
    <g id="Group_427" data-name="Group 427">
      <path id="Path_1278" data-name="Path 1278" d="M584.775,301.434,585.3,457.48l-343.653,6.606L165.488,235l338.4,16.277-1.316,6.615Z" fill="url(#linear-gradient)"/>
      <path id="Path_1279" data-name="Path 1279" d="M584.775,301.434,503.232,248.1,165.488,235l75.044,53.965Z" fill="#46c4d1"/>
      <path id="Path_1280" data-name="Path 1280" d="M590.343,314.478l-356.234-16.4V284.941l356.239,16.626Z" fill="url(#linear-gradient-2)"/>
      <g id="Group_422" data-name="Group 422">
        <path id="Path_1281" data-name="Path 1281" d="M165.488,235l-60.9,66.012-1.06,145.411,130.726,17.693-.009-179.181Z" fill="url(#linear-gradient)"/>
        <path id="Path_1282" data-name="Path 1282" d="M234.243,299.742l-69.15-54.218L103.43,310.673l.07-9.479,61.873-66.164,68.87,49.911Z" fill="url(#linear-gradient-4)"/>
        <g id="Group_421" data-name="Group 421">
          <g id="Group_418" data-name="Group 418">
            <path id="Path_1283" data-name="Path 1283" d="M115.149,421.719,115.9,309.4l31.218-3.3-.579,118.531Z" fill="#fff"/>
            <path id="Path_1284" data-name="Path 1284" d="M144.4,419.938,117.35,417.9l.683-104.625,26.918-2.761Z" fill="url(#linear-gradient-5)"/>
            <path id="Path_1285" data-name="Path 1285" d="M129.8,422.978l.671-115.151,2.691-.3-.656,115.66Z" fill="#fff"/>
            <g id="Group_417" data-name="Group 417">
              <path id="Path_1286" data-name="Path 1286" d="M146.713,388.234l-31.334-1,.027-4.083,31.328.775Z" fill="#fff"/>
              <path id="Path_1287" data-name="Path 1287" d="M146.92,345.849l-31.274,1.221.027-4.064,31.268-1.446Z" fill="#fff"/>
            </g>
          </g>
          <g id="Group_420" data-name="Group 420">
            <path id="Path_1288" data-name="Path 1288" d="M170.687,426.657l.434-123.167,38.553-4.175L209.5,429.978Z" fill="#fff"/>
            <path id="Path_1289" data-name="Path 1289" d="M205.8,425.023l-32.429-2.537.387-114.782,32.229-3.268Z" fill="url(#linear-gradient-6)"/>
            <path id="Path_1290" data-name="Path 1290" d="M187.756,428.175l.324-126.5,3.17-.343-.3,127.117Z" fill="#fff"/>
            <g id="Group_419" data-name="Group 419">
              <path id="Path_1291" data-name="Path 1291" d="M209.553,389.83l-38.732-1.006.016-4.478,38.723.733Z" fill="#fff"/>
              <path id="Path_1292" data-name="Path 1292" d="M209.615,343.106l-38.64,1.674.016-4.456,38.63-1.945Z" fill="#fff"/>
            </g>
          </g>
        </g>
      </g>
      <g id="Group_424" data-name="Group 424">
        <path id="Path_1293" data-name="Path 1293" d="M414.193,344.387l.5,115.48L298.043,461.5l-1.109-119.669Z" fill="#fff"/>
        <path id="Path_1294" data-name="Path 1294" d="M412.08,459.9,301.411,461.45l-.961-105.118-.092-10.4L411.58,348.22l.487,108.986Z" fill="#efcb35"/>
        <path id="Path_1295" data-name="Path 1295" d="M412.08,459.9,301.411,461.45l-.961-105.118c7.513-.336,25.3,2,35.232,29.362,12.829,35.332,17.908,43.239,39.712,46.533,17.152,2.59,31.073,12.52,36.673,24.98Z" fill="#efcb35" opacity="0.3" style="mix-blend-mode: multiply;isolation: isolate"/>
        <path id="Path_1296" data-name="Path 1296" d="M418.958,352.9l-126.468-2.428L292.343,335,418.9,338.015Z" fill="#d8dee8"/>
        <path id="Path_1297" data-name="Path 1297" d="M417.435,365.162l-123.128-1.895-.12-12.761,123.2,2.366Z" fill="#fff"/>
        <g id="Group_423" data-name="Group 423" opacity="0.5" style="mix-blend-mode: multiply;isolation: isolate">
          <path id="Path_1298" data-name="Path 1298" d="M417.4,356.754l-123.174-2.217-.019-2.015,123.185,2.291Z" fill="#d8dee8"/>
          <path id="Path_1299" data-name="Path 1299" d="M417.419,361.282,294.27,359.239l-.019-2.015,123.16,2.118Z" fill="#d8dee8"/>
        </g>
      </g>
      <g id="Group_426" data-name="Group 426">
        <path id="Path_1300" data-name="Path 1300" d="M563.269,347.639l-.205,110.152-105.992,1.483-.295-113.958Z" fill="#fff"/>
        <path id="Path_1301" data-name="Path 1301" d="M560.867,351.3l-.188,106.526-101.059,1.414-.273-110.032Z" fill="#efcb35"/>
        <path id="Path_1302" data-name="Path 1302" d="M567.555,355.756,452.181,353.54l-.041-14.733,115.444,2.75Z" fill="#d8dee8"/>
        <path id="Path_1303" data-name="Path 1303" d="M565.622,367.442l-111.354-1.714-.033-12.149,111.41,2.139Z" fill="#fff"/>
        <g id="Group_425" data-name="Group 425" opacity="0.5" style="mix-blend-mode: multiply;isolation: isolate">
          <path id="Path_1304" data-name="Path 1304" d="M565.28,359.389l-111.2-1.987-.088-1.927,111.294,2.063Z" fill="#d8dee8"/>
          <path id="Path_1305" data-name="Path 1305" d="M565.27,363.708l-111.18-1.83L454,359.951l111.273,1.906Z" fill="#d8dee8"/>
        </g>
      </g>
    </g>
    <g id="Group_431" data-name="Group 431">
      <g id="Group_429" data-name="Group 429">
        <path id="Path_1306" data-name="Path 1306" d="M172.435,412.29l-54.683-6.7V324.823l54.683-10.374Z" fill="url(#linear-gradient-7)"/>
        <g id="Group_428" data-name="Group 428">
          <path id="Path_1307" data-name="Path 1307" d="M239.135,408.035l-66.7,4.256V314.45l66.7,9.222Z" fill="url(#linear-gradient-8)"/>
          <path id="Path_1308" data-name="Path 1308" d="M197.578,317.926v13.718l22.205,2.078V321Z" fill="#fff" style="mix-blend-mode: soft-light;isolation: isolate"/>
        </g>
      </g>
      <g id="Group_430" data-name="Group 430">
        <path id="Path_1309" data-name="Path 1309" d="M252.253,519.112l-89.642,6.314V393.933l89.642,6.314Z" fill="url(#linear-gradient-9)"/>
        <path id="Path_1310" data-name="Path 1310" d="M162.612,525.426l-73.491-9v-114.1l73.491-8.394Z" fill="url(#linear-gradient-10)"/>
        <path id="Path_1311" data-name="Path 1311" d="M194.345,396.168v20.558l30.035,1.527v-19.97Z" fill="#fff" style="mix-blend-mode: soft-light;isolation: isolate"/>
      </g>
    </g>
    <g id="Group_448" data-name="Group 448">
      <g id="Group_433" data-name="Group 433">
        <path id="Path_1312" data-name="Path 1312" d="M590.752,506.1c0-6.88-2.723-12.908-6.6-16.559l.091-3.972-9.815.324c-8.062.613-14.812,9.773-14.812,20.763s6.893,19.906,14.669,20.236v.012l10.367-.048v-3.967A26.588,26.588,0,0,0,590.752,506.1Z" fill="url(#linear-gradient-11)"/>
        <g id="Group_432" data-name="Group 432">
          <path id="Path_1313" data-name="Path 1313" d="M599.521,505.722c0,11.405-6.779,20.99-15.194,21.411-8.475.424-15.389-8.595-15.389-20.146s6.914-21.142,15.389-21.419C592.743,485.292,599.521,494.316,599.521,505.722Z" fill="url(#linear-gradient-11)"/>
          <path id="Path_1314" data-name="Path 1314" d="M591.9,506.037c0,6.551-3.383,12.018-7.57,12.212s-7.618-4.992-7.618-11.584,3.417-12.061,7.618-12.214S591.9,499.486,591.9,506.037Z" fill="#fff"/>
          <path id="Path_1315" data-name="Path 1315" d="M584.327,494.451a5.046,5.046,0,0,0-1.216.2c3.615.779,6.369,5.578,6.369,11.488s-2.754,10.937-6.369,12.015a4.887,4.887,0,0,0,1.216.1c4.187-.194,7.57-5.661,7.57-12.212S588.514,494.3,584.327,494.451Z" fill="#d8dee8"/>
        </g>
      </g>
      <g id="Group_435" data-name="Group 435">
        <path id="Path_1316" data-name="Path 1316" d="M427.593,502.792c0-11.043-4.266-20.592-10.769-26.466l-.681-6.28-15.723.417c-14.385.948-26.261,16.149-26.261,34.531s12.22,32.639,25.827,32.476v.02l16.847-.859V530.21C423.313,523.824,427.593,513.835,427.593,502.792Z" fill="url(#linear-gradient-11)"/>
        <g id="Group_434" data-name="Group 434">
          <path id="Path_1317" data-name="Path 1317" d="M442.9,502.189c0,18.267-11.6,33.683-26.063,34.441-14.624.766-26.6-13.72-26.6-32.365s11.978-34.076,26.6-34.463C431.3,469.42,442.9,483.922,442.9,502.189Z" fill="url(#linear-gradient-11)"/>
          <path id="Path_1318" data-name="Path 1318" d="M429.85,502.7c0,10.512-5.809,19.307-13.011,19.644-7.242.34-13.144-7.993-13.144-18.613s5.9-19.418,13.144-19.649C424.041,483.855,429.85,492.191,429.85,502.7Z" fill="#fff"/>
          <path id="Path_1319" data-name="Path 1319" d="M416.839,484.085a9.234,9.234,0,0,0-2.094.314c6.222,1.264,10.956,8.977,10.956,18.468s-4.733,17.578-10.956,19.332a9.011,9.011,0,0,0,2.094.149c7.2-.337,13.011-9.132,13.011-19.644S424.041,483.855,416.839,484.085Z" fill="#d8dee8"/>
        </g>
      </g>
      <path id="Path_1320" data-name="Path 1320" d="M578.833,435.577l-51.661.407-.019.074a14.132,14.132,0,0,0-3.609.132l-11.352,1.9c-21.463,3.591-40.6,17.664-51.721,38.285l-3.285,6.092a.536.536,0,0,1-.453.287l-18.057.482c-.293.008-.46-.233-.46-.538V471.082a8.555,8.555,0,0,0-8.589-8.7l-27.061.5a5.388,5.388,0,0,0-5.172,5.53v18.361l44.151,39.721a2.833,2.833,0,0,0,2.073.767l46.611-2.049a3.242,3.242,0,0,0,2.834-2.158l7.024-18.487a14.883,14.883,0,0,1,13.166-9.892l20.834-.666a6.949,6.949,0,0,0,5.586-3.317l27.358-4.038Z" fill="url(#linear-gradient-15)"/>
      <g id="Group_436" data-name="Group 436">
        <path id="Path_1321" data-name="Path 1321" d="M487.288,450.824c-7.711.116-13.785-8.409-13.785-19.408s6.074-19.612,13.785-19.607c7.664,0,13.634,8.53,13.634,19.409S494.952,450.709,487.288,450.824Zm0-32.935c-4.327.008-7.994,6.184-7.994,13.485s3.667,13.424,7.994,13.369,7.944-6.23,7.944-13.485S491.6,417.881,487.288,417.889Z" fill="url(#linear-gradient-16)"/>
      </g>
      <g id="Group_437" data-name="Group 437">
        <path id="Path_1322" data-name="Path 1322" d="M476.487,434.446l-.171-6.1,21.68-.8.168,6.05Z" fill="url(#linear-gradient-16)"/>
      </g>
      <g id="Group_438" data-name="Group 438">
        <path id="Path_1323" data-name="Path 1323" d="M456.566,466.352l-4.843-5.062,33.129-33.136,3.407,5.353Z" fill="url(#linear-gradient-16)"/>
      </g>
      <g id="Group_439" data-name="Group 439">
        <path id="Path_1324" data-name="Path 1324" d="M422.7,464.457l-6.167-.823,11.866-89.293c2.309-17.381,16.761-30.158,33.576-29.723l63.055,1.633,5.32,100.233-6.212.331-5.015-94.484-57.309-1.484c-13.643-.332-25.359,10.1-27.248,24.317Z" fill="#a2dbf4"/>
      </g>
      <path id="Path_1325" data-name="Path 1325" d="M555.5,448.957a5.981,5.981,0,0,1-5.685,6.162l-25.72.421a6.148,6.148,0,0,1-6.177-6.209V407.8a6,6,0,0,1,6.2-6.067l25.659.988a6.176,6.176,0,0,1,5.721,6.291Z" fill="url(#linear-gradient-11)"/>
      <path id="Path_1326" data-name="Path 1326" d="M562.624,471.779a6.392,6.392,0,0,1-5.938,6.493L498.3,479.83a6.279,6.279,0,0,1-6.3-6.355V451.743a6.531,6.531,0,0,1,6.245-6.6l58.385-.748a6.141,6.141,0,0,1,6,6.26Z" fill="url(#linear-gradient-11)"/>
      <path id="Path_1327" data-name="Path 1327" d="M473.167,459.374l-70.116.649a6.211,6.211,0,0,0-6.305,5.908v29.743l78.36-2.235Z" fill="url(#linear-gradient-15)"/>
      <g id="Group_440" data-name="Group 440">
        <path id="Path_1328" data-name="Path 1328" d="M488.2,463.15l-6.17-.8,11.27-87.021c2.164-16.712,15.541-29.078,31.282-29.078.26,0,.519,0,.78.01l51.2,1.326c5,.13,9.128,4.406,9.4,9.736l4.574,88.35-6.213.323-4.574-88.35a3.792,3.792,0,0,0-3.352-3.83l-51.2-1.325c-12.885-.349-23.942,9.83-25.731,23.64Z" fill="#a2dbf4"/>
      </g>
      <path id="Path_1329" data-name="Path 1329" d="M602.8,448.847v33.4c0,4.009-2.929,7.347-6.548,7.461l-19.934.639c-5.5.176-10.483,3.988-12.593,9.663L557,518.083a3.132,3.132,0,0,1-2.722,2.108L509.7,522.148a2.779,2.779,0,0,1-2.032-.753l-2.711-2.5L465.43,482.546v-17.94a5.327,5.327,0,0,1,5.08-5.4l26.062-.473a8.419,8.419,0,0,1,8.383,8.5V478.59c0,.3-.02.529.26.524l17.1-.462a.485.485,0,0,0,.417-.28l3.128-5.951c10.628-20.157,28.92-33.911,49.445-37.416l10.854-1.859a13.508,13.508,0,0,1,11.628,3.635A16.607,16.607,0,0,1,602.8,448.847Z" fill="url(#linear-gradient-15)"/>
      <g id="Group_441" data-name="Group 441">
        <path id="Path_1330" data-name="Path 1330" d="M440.549,486.367l-18,.516c.6-51.941,1.2-104.042,1.795-155.749l14.429.462Q439.664,409.036,440.549,486.367Z" fill="#a2dbf4"/>
        <path id="Path_1331" data-name="Path 1331" d="M433.032,486.567l-3.888.124v-155.4l3.888.134Z" fill="#fff" opacity="0.5" style="mix-blend-mode: soft-light;isolation: isolate"/>
      </g>
      <g id="Group_442" data-name="Group 442">
        <path id="Path_1332" data-name="Path 1332" d="M370.41,488.38l-19,.545q.949-80.07,1.9-160.063l15.237.487Q369.475,408.9,370.41,488.38Z" fill="#a2dbf4"/>
        <path id="Path_1333" data-name="Path 1333" d="M362.4,488.592l-3.888.132V329.033l3.888.137Z" fill="#fff" opacity="0.5" style="mix-blend-mode: soft-light;isolation: isolate"/>
      </g>
      <path id="Path_1334" data-name="Path 1334" d="M505.936,519.8c-.106-.1,4.542-38.037-13.651-43.235-31.814-.148-26.877.041-26.877.041H449.336l-5.055,19.113Z" fill="url(#linear-gradient-16)"/>
      <g id="Group_444" data-name="Group 444">
        <path id="Path_1335" data-name="Path 1335" d="M490.12,511.75c0-10.774-4.134-20.114-10.42-25.855l-.652-6.1L464,480.188c-13.594.9-24.428,15.387-24.428,32.925s10.951,31.467,24.558,31.7v.02l15.551-.375v-6.236C486.164,532.171,490.12,522.524,490.12,511.75Z" fill="url(#linear-gradient-11)"/>
        <g id="Group_443" data-name="Group 443">
          <path id="Path_1336" data-name="Path 1336" d="M504.71,511.176c0,17.824-11.046,32.852-24.808,33.573-13.914.729-25.308-13.414-25.308-31.6s11.393-33.225,25.308-33.593C493.664,479.195,504.71,493.352,504.71,511.176Z" fill="url(#linear-gradient-11)"/>
          <path id="Path_1337" data-name="Path 1337" d="M492.285,511.665c0,10.256-5.529,18.829-12.383,19.15-6.891.323-12.506-7.811-12.506-18.169s5.615-18.935,12.506-19.156C486.756,493.272,492.285,501.409,492.285,511.665Z" fill="#fff"/>
          <path id="Path_1338" data-name="Path 1338" d="M479.9,493.491a8.6,8.6,0,0,0-1.993.3c5.921,1.237,10.426,8.766,10.426,18.025s-4.5,17.143-10.426,18.847a8.368,8.368,0,0,0,1.993.147c6.854-.321,12.383-8.894,12.383-19.15S486.756,493.272,479.9,493.491Z" fill="#d8dee8"/>
        </g>
      </g>
      <g id="Group_445" data-name="Group 445">
        <path id="Path_1339" data-name="Path 1339" d="M445.991,530.487l-94.6-3.764V476.638l94.6-.391Z" fill="url(#linear-gradient-26)"/>
        <path id="Path_1340" data-name="Path 1340" d="M435.624,530.055,342.966,526.4V476.656l92.658-.4Z" fill="#fc4444"/>
      </g>
      <g id="Group_446" data-name="Group 446">
        <path id="Path_1341" data-name="Path 1341" d="M357.869,544.146v4.816l14.9,2.163,51.657-20.787,1.822-53.055-2.182-3.981-8.876,53.046Z" fill="#a2dbf4"/>
        <path id="Path_1342" data-name="Path 1342" d="M414.479,473.407l-1.048,51.219-55.778,19.52,14.706,1.947,50.288-18.323,1.359-54.366Z" fill="#a2dbf4"/>
      </g>
      <g id="Group_447" data-name="Group 447">
        <path id="Path_1343" data-name="Path 1343" d="M297.608,539.43V544.2l12.719,1.19,50.048-18.978L362.1,476.4l-2.055-3.752-8.383,50Z" fill="#a2dbf4"/>
        <path id="Path_1344" data-name="Path 1344" d="M351.005,472.752l-.988,48.279-52.576,18.4,12.235.771L358.7,523.993l1.281-51.245Z" fill="#a2dbf4"/>
      </g>
      <path id="Path_1345" data-name="Path 1345" d="M602.8,450.171v32.074c0,4.009-2.929,7.347-6.548,7.461l-19.934.639c-5.5.176-10.483,3.988-12.593,9.663L557,518.083a3.132,3.132,0,0,1-2.722,2.108L509.7,522.148a2.779,2.779,0,0,1-2.032-.753l-2.722-2.5c.415-1,.892-2.03,1.441-3.084,10.975-21.065,37.474-13.5,43.353-32.193s5.185-21.808,33.367-24.243C592.61,458.552,598.784,454.8,602.8,450.171Z" fill="#fc4444" opacity="0.4" style="mix-blend-mode: multiply;isolation: isolate"/>
    </g>
    <path id="Path_1346" data-name="Path 1346" d="M327.185,430.267s-1.816-9.025.4-10.843,9.549-14.48,9.213-10.91a44.128,44.128,0,0,1-1.883,8.149s6.926.674,5.178,4.782-6.15,4.336-5.8,6.445S327.454,437.608,327.185,430.267Z" fill="#fff"/>
    <path id="Path_1347" data-name="Path 1347" d="M325.6,428.5l10.291-.719c8.093,32.751,2.288,64.521-15.977,76.2-28.536,18.254-81.568-16.138-93.061-53.586-5.044-16.437-3.9-40.159,6.186-44.768,2.8-1.28,7.141-1.478,16.549,3.812,28.1,15.8,28.836,45.659,43.119,48.188C299.059,458.753,309.314,454.7,325.6,428.5Z" fill="#fc5465"/>
    <path id="Path_1348" data-name="Path 1348" d="M249.273,630.582c-1.737-31.547-1.709-60.8-.635-87.316l-52.4,8.12c2.493,34.192,9.167,60.028,15.035,77.7" fill="url(#linear-gradient-27)"/>
    <path id="Path_1349" data-name="Path 1349" d="M233.684,630.582c-2.372-11.828-9.729-19.175-13.726-27.729-4.97-10.639-6.874-27.728,6.521-56.153l-30.239,4.686c2.493,34.191,9.167,60.028,15.035,77.7" opacity="0.3" fill="url(#linear-gradient-28)" style="mix-blend-mode: multiply;isolation: isolate"/>
    <path id="Path_1350" data-name="Path 1350" d="M201.831,630.582q4.207-45.272,9-89.363c-34.552-3.495-47.074,8.183-51.121,12.89-11.154,12.969-9.181,34.019-3.013,73.523" fill="url(#linear-gradient-29)"/>
    <path id="Path_1351" data-name="Path 1351" d="M118.508,420.944c15.227-9.7,28.871-17.259,45.113-20.853,14.425-3.192,25.351-2.179,38.872-1.151,26.186,1.992,42.558,3.238,53.3,15.589,9.5,10.923,9.712,25.1,9.777,28.118.263,12.155-4.458,18.357-7.926,28.432-5.582,16.214.067,19.252,1.706,62.36,0,0,1.628,51.143-11.384,58.932-5.568,3.333-10.317,14.793-38.73,11.972-19.053-1.891-25.249-2.242-34.9,1.028-13.139,4.452-18.328-4.083-23.748-6.515-5.2-2.333-5.859-11.32-6.487-26.989-.968-24.171-.909-40.6-1-46.48-.41-26.982-7.232-47.583-15.969-73.968C121.676,434.915,122.905,430.331,118.508,420.944Z" fill="#ff3f41"/>
    <path id="Path_1352" data-name="Path 1352" d="M236.926,578.364c-13.975-5.972-13.894-18.332-26.947-23.49-18.29-7.227-41.523,7.069-42.417,5-.993-2.3,33.147-11.338,42.839-36.766,3.683-9.663,4.64-23.806-2.3-29.771-8.281-7.115-19.742,4.326-32.616-2.042-14.8-7.322-12.246-28.68-24.869-32.257-6.687-1.895-13.808,2.284-18.923,6.281,6.455,20.192,11.084,38,11.419,60.07.089,5.881.03,22.309,1,46.48.628,15.669,1.29,24.656,6.487,26.989,5.42,2.432,10.1,6.484,23.235,2.032,9.649-3.27,17.385-1.892,36.438,0,28.414,2.82,32.136-5.183,37.7-8.517,3.626-2.171,5.35-5.434,6.5-11.7A34.719,34.719,0,0,1,236.926,578.364Z" opacity="0.4" fill="url(#linear-gradient-30)" style="mix-blend-mode: multiply;isolation: isolate"/>
    <path id="Path_1353" data-name="Path 1353" d="M147.858,488.52s-3.021-41.132,24.772-42.456,74.876-18.588,81.846,4.273,8.668,113.081,5.4,124.586-13.522,35.5-26.72,31.711-86.105,11.48-89.327-3.758S130.94,501.621,147.858,488.52Z" fill="#ff3f41"/>
    <g id="Group_450" data-name="Group 450">
      <path id="Path_1354" data-name="Path 1354" d="M199.934,372.21a79.472,79.472,0,0,1-2.258,15.766c-1.044,4.176-1.691,5.234-2.491,6.079-1.2,1.271-2.981,2.3-12.811,4.187-5.349,1.029-6.027.957-6.171,1.475-.705,2.529,13.226,12.024,28.212,10.716,9.171-.8,17.731-5.558,17.368-8.317-.365-2.776-9.536-1.788-11.982-6.906-1.7-3.56.674-8.359,3.389-12.292C211.012,378.249,202.111,376.879,199.934,372.21Z" fill="#fff"/>
      <g id="Group_449" data-name="Group 449">
        <path id="Path_1355" data-name="Path 1355" d="M216.686,375.794a9.615,9.615,0,0,0,.392-11.012c-1.986-2.828-5.317-3.394-7.311-3.734-5.78-.983-13.247,1.056-16.085,6.279-1.681,3.1,1.238,9.871,1.687,11.085.509,1.373,1.536,1.889,2.455,2.956,1.273,1.479,3.265,3.829,6.511,7.755a24.058,24.058,0,0,1,1.532-3.882,21.209,21.209,0,0,1,3.009-4.5C212.1,377.207,214.5,378.394,216.686,375.794Z" fill="url(#linear-gradient-31)"/>
        <path id="Path_1356" data-name="Path 1356" d="M199.587,385.715s3.488,6.486,11.126,6.4c6.839-.08,8.653-15.333,4.473-18.814a8.6,8.6,0,0,0-6.679-1.23c-1.418.318-1.922.874-4.248,1.347-2.146.437-2.731.17-3.4.674-.835.631-1.509,2.251-.413,6.8-1.23-1.388-2.764-1.978-3.9-1.514a2.341,2.341,0,0,0-.955.837C194.549,381.907,196.025,384.225,199.587,385.715Z" fill="#fff"/>
        <path id="Path_1357" data-name="Path 1357" d="M200.6,373.157c.315.263-.754,1.437-.922,3.171-.326,3.366,2.868,7.6,6.328,8.128,2.046.313,2.677-.9,6.1-1.076a15.576,15.576,0,0,1,4.944.552c.871,3.757-.331,7.393-2.892,8.973-2.757,1.7-6.094.4-7.489-.142a9.768,9.768,0,0,1-5.366-4.4c-1.5-3,.218-4.671-1.578-6.743-.906-1.045-2.143-1.543-3.267-3.533a9.51,9.51,0,0,1-.622-1.333C197.691,374.979,200.144,372.776,200.6,373.157Z" fill="url(#linear-gradient-31)"/>
        <path id="Path_1358" data-name="Path 1358" d="M214.5,385.172a8.294,8.294,0,0,1-4.049.412c-.123-.014-.261.015-.281.079-.071.238,1.5,1.409,3.029,1.067,1.083-.244,1.968-1.211,1.838-1.477C214.983,385.141,214.741,385.142,214.5,385.172Z" fill="#fff"/>
      </g>
    </g>
    <path id="Path_1359" data-name="Path 1359" d="M164.415,399.919s17.881,40.868,14.457,53.69-13.493,3.947-13.9,1.325-21.243-48.13-21.243-48.13A25,25,0,0,1,164.415,399.919Z" fill="#ff3f41"/>
    <path id="Path_1360" data-name="Path 1360" d="M222.58,400.734c-.4.228,14.848,37.079,13.035,45.437s13.675,3.517,11.973-3.441-6.225-36.083-9.363-38.993S225.148,399.282,222.58,400.734Z" fill="#ff3f41"/>
    <path id="Path_1361" data-name="Path 1361" d="M185.77,466.178l51.2-8.623s6.016,28.584-18.289,32.218S186.374,479.49,185.77,466.178Z" fill="#ff3f41"/>
    <g id="Group_451" data-name="Group 451">
      <path id="Path_1362" data-name="Path 1362" d="M283.384,444.523l-54.421,7.736a1.482,1.482,0,0,0-1.229,1.11L209.3,527.521c-.264,1.064,1.155,3.511,2.226,3.284l53.268-12.9a1.483,1.483,0,0,0,1.122-1.063l19.958-69.495C286.155,446.321,284.437,444.373,283.384,444.523Z" fill="url(#linear-gradient-33)"/>
      <path id="Path_1363" data-name="Path 1363" d="M284.41,446.186l-54.42,7.736a1.482,1.482,0,0,0-1.229,1.111l-18.431,74.151a1.483,1.483,0,0,0,1.745,1.81l53.749-11.424a1.482,1.482,0,0,0,1.122-1.063l19.1-70.464A1.483,1.483,0,0,0,284.41,446.186Z" fill="url(#linear-gradient-34)"/>
      <path id="Path_1364" data-name="Path 1364" d="M269.742,450.381l1.523-5.917a.792.792,0,0,0-.846-.986l-19.889,2.039a.792.792,0,0,0-.694.626l-1.355,6.511a.792.792,0,0,0,.879.947l19.721-2.633A.792.792,0,0,0,269.742,450.381Z" fill="url(#linear-gradient-35)"/>
      <path id="Path_1365" data-name="Path 1365" d="M241.893,510.445c2.371-11.89-4.237-18.8.81-28.365,7.138-13.533,25.8-10.028,30.388-20.827,1.237-2.912,1.544-7.095-1.16-13.294l12.479-1.773a1.482,1.482,0,0,1,1.638,1.857l-19.1,70.464a1.482,1.482,0,0,1-1.122,1.062l-32.666,6.944C238.515,520.773,240.93,515.278,241.893,510.445Z" fill="#fff" opacity="0.3" style="mix-blend-mode: soft-light;isolation: isolate"/>
    </g>
    <path id="Path_1366" data-name="Path 1366" d="M201.118,505.971s8.088-2.492,11.068-4.825,6.026-5.906,10.739-6.212,9.682,1.6,7.569,2.373-5.724,5.494-8.645,7.508-9.978,2.892-11.3,2.934-6.205,3.707-6.205,3.707Z" fill="#fff"/>
    <path id="Path_1367" data-name="Path 1367" d="M205.927,495.539c4.327,3.632,6.171,7.2,6.587,10.5,1.842,14.637-23.246,33.154-47.184,35.167-17.719,1.49-35.455-6.043-46.625-17.545-21.8-22.445-23.084-64.648-.2-102.72l17.553,8.708c16.312,8.092,26.152,25.639,23.627,43.694-1.666,11.913,2.167,22.667,9.064,27.566C177.56,507.168,193.113,505.114,205.927,495.539Z" fill="#fc5465"/>
    <path id="Path_1368" data-name="Path 1368" d="M131.514,569.008c-39.131-40.037-61.358-167.915-22.233-206.07,38.534-37.579,208.276-6.98,236.785,39.524,38.892,63.442-42.508,130.721-78.714,168.048C230.608,608.39,169.874,608.257,131.514,569.008Z" fill="none"/>
  </g>
</svg>
