<svg xmlns="http://www.w3.org/2000/svg" xmlns:xlink="http://www.w3.org/1999/xlink" width="126" height="166" viewBox="0 0 126 166">
  <defs>
    <linearGradient id="linear-gradient" x1="1764.843" y1="-13.5" x2="1765.809" y2="-13.5" gradientUnits="objectBoundingBox">
      <stop offset="0.122" stop-color="#feb9b8"/>
      <stop offset="1" stop-color="#ffdede"/>
    </linearGradient>
    <linearGradient id="linear-gradient-2" x1="0.362" y1="0.571" x2="0.902" y2="1.142" gradientUnits="objectBoundingBox">
      <stop offset="0.122" stop-color="#fca4b5"/>
      <stop offset="0.99" stop-color="#ffadb7"/>
    </linearGradient>
    <linearGradient id="linear-gradient-3" x1="1044.445" y1="0.684" x2="1045.821" y2="0.188" xlink:href="#linear-gradient"/>
    <linearGradient id="linear-gradient-4" x1="1919.461" y1="0.207" x2="1918.753" y2="0.871" xlink:href="#linear-gradient-2"/>
  </defs>
  <g id="Vector_Smart_Object" data-name="Vector Smart Object" transform="translate(-629.004 -50.712)">
    <g id="Group_410" data-name="Group 410">
      <path id="Path_780" data-name="Path 780" d="M711.252,191.632c10.053-5.764,26.3-5.791,36.292-.064s9.939,15.04-.114,20.8-26.3,5.791-36.292.064S701.2,197.4,711.252,191.632Z" fill="#f5f2e8"/>
      <path id="Path_781" data-name="Path 781" d="M708.695,205.563l-21.615-12.39,21.615-12.39,21.615,12.39Z" fill="#f5f2e8"/>
      <g id="Group_409" data-name="Group 409">
        <g id="Group_404" data-name="Group 404">
          <path id="Path_782" data-name="Path 782" d="M704.957,89.183s.1-1.167.993-.811a29.206,29.206,0,0,1,5.227,4.071,15.756,15.756,0,0,0,1.7,3.159c.817.965,15.35,7.263,15.519,7.826s-3.213,4.83-6.17,3.412-10.223-7.207-11.481-7.549a7.941,7.941,0,0,1-2.6-1.043,13.8,13.8,0,0,1-1.906-2.037,13.225,13.225,0,0,1-2.825-1.206.562.562,0,0,1,.48-.866,24.024,24.024,0,0,1,2.859.768l-1.236-1.093s-2.41-1.148-2.427-1.607a1.1,1.1,0,0,1,.772-.926c.219-.008-.427-.3-.4-.9s.942-.86.942-.86Z" fill="#febfbf"/>
          <path id="Path_783" data-name="Path 783" d="M710.931,96.256s-1.293.436-1.612-1.128.4-2.7.366-3.5a5.448,5.448,0,0,0-.17-1.255A2.667,2.667,0,0,1,709,88.179c.337-1.144,1,.189,1.064.331s.684,1.344.754,1.583.658,2.138.737,2.749S713.484,96.042,710.931,96.256Z" fill="#fec7c6"/>
        </g>
        <g id="Group_405" data-name="Group 405">
          <path id="Path_784" data-name="Path 784" d="M693.914,109.957l15.209-8.718V83.911L693.914,92.63Z" fill="#c99a6b"/>
          <path id="Path_785" data-name="Path 785" d="M693.914,109.957,678.7,101.239V83.911l15.209,8.718Z" fill="#ae835b"/>
          <path id="Path_786" data-name="Path 786" d="M693.914,92.63,678.7,83.911l15.209-8.718,15.209,8.718Z" fill="#e8b687"/>
          <path id="Path_787" data-name="Path 787" d="M700.767,95.546l2.444-1.4V87.3l-2.444,1.4Z" fill="#d9af84"/>
          <path id="Path_788" data-name="Path 788" d="M700.767,88.7l-15.209-8.718,2.444-1.4L703.211,87.3Z" fill="#ebcbab"/>
          <path id="Path_789" data-name="Path 789" d="M701.9,88.053,686.69,79.334l.138-.079,15.209,8.718Z" fill="#d1a986"/>
          <path id="Path_790" data-name="Path 790" d="M678.7,83.911l15.209,8.718-8.207-4.359Z" fill="#87623f"/>
        </g>
        <g id="Group_407" data-name="Group 407">
          <path id="Path_791" data-name="Path 791" d="M740.891,95.538s1.518-1.171,4.246-.012,3.928,4.558,4.153,5.373.421,11.323.421,11.323-1.2,3.112-6.177,1.858S740.891,95.538,740.891,95.538Z" fill="#ffdc6e"/>
          <path id="Path_792" data-name="Path 792" d="M736.34,191.257a11.491,11.491,0,0,0-4.9-1.531c-2.049.043-1.859,2.523-1.491,3.639s3.956,4.023,3.956,4.023l1.656,1.618a22.992,22.992,0,0,0,2.394,2.27,3.86,3.86,0,0,0,3.356.136c1.089-.461,1.309-.694,1.369-.794a7.637,7.637,0,0,0-.008-4.556C741.9,193.9,736.34,191.257,736.34,191.257Z" fill="#5c6467"/>
          <path id="Path_793" data-name="Path 793" d="M743.2,176.4c.372,4.318.372,9.882.333,14.2a61.867,61.867,0,0,1-.274,6.419,3.845,3.845,0,0,1-3.331,1.537,5.9,5.9,0,0,1-2.077-.506,9.851,9.851,0,0,1-3.429-2.334,13.014,13.014,0,0,1,.2-3.424,44.049,44.049,0,0,0-.216-12.663c-1.058-5.777-3.272-14.667-3.37-17.507a44.347,44.347,0,0,1,.313-4.9c.431-4.668,1.176-10.6,1.176-10.6l13.146-5.155s.451,6.691-2.155,11.263c-2.567,4.493-2.155,9.084-2.1,10.815C741.494,165.295,742.846,172.083,743.2,176.4Z" fill="#7282b5"/>
          <path id="Path_794" data-name="Path 794" d="M737.85,198.052a9.851,9.851,0,0,1-3.429-2.334,13.014,13.014,0,0,1,.2-3.424,44.049,44.049,0,0,0-.216-12.663c-1.058-5.777-3.272-14.667-3.37-17.507a44.347,44.347,0,0,1,.313-4.9,14.11,14.11,0,0,1,5.016-3.21s-2.547,8.345-1.646,13.461c.882,5.116,2.606,12.644,2.527,17.662-.1,5.038-1.8,9.493,0,12.08C737.419,197.488,737.635,197.76,737.85,198.052Z" fill="#e8d0c8" style="mix-blend-mode: multiply;isolation: isolate"/>
          <path id="Path_795" data-name="Path 795" d="M714.214,203.44c.46,1.017,1,2.517,4.586,3.418s4.706.57,5.5.9,2.286,1.109,2.741,1.19,2.945.527,4.265.006a2.755,2.755,0,0,0,1.661-1.5,1.464,1.464,0,0,0,.092-.348c.047-.42.194-2.655-.114-3.062s-7.416-4.252-7.416-4.252-5.909.284-7.178.265a11.024,11.024,0,0,0-3.6.391,3.041,3.041,0,0,0-.674,1.7A2.426,2.426,0,0,0,714.214,203.44Z" fill="#5c6467"/>
          <path id="Path_796" data-name="Path 796" d="M724.868,200.335s-2.506,0-3.172.44a2.291,2.291,0,0,0,.437,3.723c1.452.887,5.409.737,6.062.809a3.478,3.478,0,0,0,2.292-.51c.407-.428-2.553-2.507-2.553-2.507Z" fill="#febfbf"/>
          <path id="Path_797" data-name="Path 797" d="M714.214,203.44c.46,1.017,1,2.517,4.586,3.418s4.706.57,5.5.9,2.286,1.109,2.741,1.19,2.945.527,4.265.006a2.755,2.755,0,0,0,1.661-1.5,1.233,1.233,0,0,0-.533.346c-.987,1.054-4.177.858-5.253.506a11.367,11.367,0,0,0-3.689-.834,34.95,34.95,0,0,1-3.781-.782c-1.248-.4-3.288-.965-4.328-2.021a5.322,5.322,0,0,1-1.3-2.525A2.426,2.426,0,0,0,714.214,203.44Z" fill="#504f60"/>
          <path id="Path_798" data-name="Path 798" d="M739.515,152.573c-1.352,2.237-5.721,5.447-5.976,7.061-.274,1.634-1.94,9.065-1.43,15.892s1.019,9.843.96,16.826c-.078,6.983.1,12.08.1,12.08a4.825,4.825,0,0,1-4.545,1.517A6.105,6.105,0,0,1,724.8,204a3.206,3.206,0,0,1-.94-1.751c-.039-.973-1.136-18.246-2.743-26.455s-3.742-23.77-2.469-29.625a1.6,1.6,0,0,1,.157-.428c2.175-5.058,21.708,1.887,21.708,1.887A8.551,8.551,0,0,1,739.515,152.573Z" fill="#7282b5"/>
          <g id="Group_406" data-name="Group 406">
            <path id="Path_799" data-name="Path 799" d="M725.552,204.512l-.49-.027c.547-9.553-.513-16.25-1.853-24.729-.842-5.336-1.8-11.383-2.521-19.255-.492-5.341-.762-12.5-.764-12.576l.49-.018c0,.072.272,7.221.76,12.55.723,7.855,1.679,13.895,2.52,19.222C725.039,188.188,726.1,194.906,725.552,204.512Z" fill="#a0abcd"/>
          </g>
          <path id="Path_800" data-name="Path 800" d="M724.8,204a3.206,3.206,0,0,1-.94-1.751c-.039-.973-1.136-18.246-2.743-26.455s-3.742-23.77-2.469-29.625a1.6,1.6,0,0,1,.157-.428c.509.311,1.038.661,1.567,1.05a34.913,34.913,0,0,0-.353,11.924c.9,6.808,3.193,20.6,3.487,23.887C723.763,185.447,724.43,198.985,724.8,204Z" fill="#e8d0c8" style="mix-blend-mode: multiply;isolation: isolate"/>
          <path id="Path_801" data-name="Path 801" d="M745.9,134.21c.176,2.179.509,7.392-.411,8.87-.94,1.459-2.018,1.828-4.545,3.774-2.508,1.926-8.973,4.3-15.125,3.89a11.024,11.024,0,0,1-6.348-2.276,6.55,6.55,0,0,1-1.724-1.984s1.861-9.376,1.626-13.908c-.176-3.657-1.273-14.394-1.058-20.852a17.9,17.9,0,0,1,.431-3.832c1.254-4.552,5.838-7.1,8.444-9.279s8.6-3.715,10.893-3.949c2.273-.214,6.348.253,7.053.856s3.174,2.84,2.939,9.454c-.235,6.594-2.135,14.842-2.939,19.471C744.335,129.095,745.726,132.032,745.9,134.21Z" fill="#fdd249"/>
          <path id="Path_802" data-name="Path 802" d="M721.961,136.019c-.431,4.26-2.253,5.933-2.488,12.449a6.55,6.55,0,0,1-1.724-1.984s1.861-9.376,1.626-13.908c-.176-3.657-1.273-14.394-1.058-20.852.255-.506.392-.759.392-.759l8.366-1.225s-4.8,7.333-5.114,9.668C721.647,121.761,722.431,131.234,721.961,136.019Z" fill="#dedede" style="mix-blend-mode: multiply;isolation: isolate"/>
          <path id="Path_803" data-name="Path 803" d="M738.6,84.186s-1.172,5.244-.913,6.948.517,2.564.993,3.1.88.92.88.92-.2,1.7-4.561,2.445-6.381.751-6.93.9l-.547.148.588-.692s-.629-4.8-.813-5.371-1.242-.117-2.52-.36a1.53,1.53,0,0,1-1.391-1.533c-.082-.449-.619-5.275-.666-5.661a4.46,4.46,0,0,0-.764-1.264l.733-1.319a2.824,2.824,0,0,1-.711-1.62c-.033-.9.18-4.756,1.177-5.956s7.668-1.994,9.479-1.445A10.132,10.132,0,0,1,738.6,84.186Z" fill="#febfbf"/>
          <path id="Path_804" data-name="Path 804" d="M723.223,76.74a1.367,1.367,0,0,1,.257.766c.053.547-.511,1.085-.482,1.891s.219,2.416.219,2.416a1.08,1.08,0,0,1,1.005.737,15.955,15.955,0,0,1,.525,1.887l.029.774.756.231s.19-1.881,1.507-1.476a4.992,4.992,0,0,1,3.254,2.657c.741,1.523.944,2.647,1.712,3.136a7.383,7.383,0,0,0,4.14.2,5.167,5.167,0,0,0,1.591-.8,25.519,25.519,0,0,0,3.017-6.474c1.587-4.581.609-7.258-.01-8.141a6.664,6.664,0,0,0-2.467-1.583s.088-2.011-4.633-2.968-10.233,3.058-10.858,3.727a5.059,5.059,0,0,0-.723,2.449Z" fill="#754554"/>
          <path id="Path_805" data-name="Path 805" d="M725.151,80.1a77.69,77.69,0,0,1-7.878-2.009c-1.046-.467-1.2-.833-.94-2.35a7.073,7.073,0,0,1,1.7-3.412,4.782,4.782,0,0,1,2.78-1.251c1.385.025,7.476.731,9.312,1.054S725.151,80.1,725.151,80.1Z" fill="#725e6d"/>
          <path id="Path_806" data-name="Path 806" d="M741.286,80.834s-1.32,2.383-6.892,2.262-11.953-4.266-12.143-5.6-.713-4.616,3.205-6.441,7.774-2.126,11.02-.91S743.089,74.89,741.286,80.834Z" fill="#fecb4c"/>
          <path id="Path_807" data-name="Path 807" d="M726.044,84.923a1.377,1.377,0,0,1,.168-1.3c.466-.6,1.785.305,2,2.027s-.119,2.912-.805,3.309-1.025-.724-1.025-.724S727.131,86.125,726.044,84.923Z" fill="url(#linear-gradient)"/>
        </g>
        <g id="Group_408" data-name="Group 408">
          <path id="Path_808" data-name="Path 808" d="M721.79,102.694c-1.532.648-1.851.85-5.664,3.2-7.222,4.454-8.932,5.941-10.891,6.542s-2.78,3.064-2.612,4.871.022,2.8,4.238,1.965,15.352-6.361,18.657-8.635C729.578,107.851,726.42,100.743,721.79,102.694Z" fill="#febfbf"/>
          <path id="Path_809" data-name="Path 809" d="M684.47,96.709s-.768-1.074-.572-1.2.662-.994,1.464.016a37.172,37.172,0,0,0,3.474,3.492c.129.033.723-.735.723-.735s-1.509-1.792-1.3-2.856,1.726-.3,1.853-.045.985,2.044,1.434,2.7a11.754,11.754,0,0,1,1.693,2.826c.282.971.3,2.682.874,3.367s12.651,8.689,12.651,8.689.063,8.858-3.368,6.122-12.558-12.587-13.044-12.85-4.338-1.661-4.628-1.889a11.744,11.744,0,0,1-.95-2.367l-.633-1.718s-.543-.782-.507-1.072a9.024,9.024,0,0,0,.008-.969s-.543-1.039.016-1.259A3.7,3.7,0,0,1,684.47,96.709Z" fill="#febfbf"/>
          <path id="Path_810" data-name="Path 810" d="M684.471,96.709l2.855,3.549L685.3,98.477l-1.235-1.665Z" fill="#fa9698"/>
          <path id="Path_811" data-name="Path 811" d="M683.64,98.217l2.028,2.688-1.019-.869-1-1.366Z" fill="#fa9698"/>
          <path id="Path_812" data-name="Path 812" d="M711.123,108.8a6.369,6.369,0,0,0,1.275,4.9,17.194,17.194,0,0,0,3.476,3.525s10.166-5.04,11.209-7.489c.882-2.07,2.232-5.958-3.131-7.65C721.244,101.236,711.123,108.8,711.123,108.8Z" fill="#ffdc6e"/>
        </g>
      </g>
    </g>
    <g id="Group_414" data-name="Group 414">
      <path id="Path_813" data-name="Path 813" d="M635,167.5c7.954-4.56,20.813-4.583,28.718-.051s7.864,11.9-.09,16.46-20.812,4.583-28.718.053S627.042,172.058,635,167.5Z" fill="#f5f2e8"/>
      <g id="Group_413" data-name="Group 413">
        <path id="Path_814" data-name="Path 814" d="M660.5,177.355c-3.938-2.7-5.78-2.509-5.78-2.509s-4.9.331-4.369-2.587c.431-2.49,1.078-4.027,1.234-5.1a2.288,2.288,0,0,0,.039-.506c-.137-6.322-2.86-16.67-2.018-21.611.627-3.676.1-7.742-.549-11.632a1.354,1.354,0,0,1-.059-.272c-.176-1.089-.353-2.159-.529-3.19a1.465,1.465,0,0,0-.059-.311c-.1-.661-.2-1.3-.274-1.926-.039-.331-.078-.642-.118-.953-.078-.622-.137-1.225-.157-1.79a16.285,16.285,0,0,1,.039-2.607,7.934,7.934,0,0,1,.274-1.42c1.587-5.5,11.951-7.022,11.951-7.022a78.354,78.354,0,0,1-.666,19.277c-2.645,13.889-3.35,30.637-3.448,35.072-.039,1.828,2.429,3.346,3.566,4.007,1.607.914,4.722,2.976,4.722,2.976S664.439,180.059,660.5,177.355Z" fill="#10154c"/>
        <path id="Path_815" data-name="Path 815" d="M651.1,126.6a121.54,121.54,0,0,1,.392,14.745c-.313,7.022-.745,6.477-.235,11.477.529,5,1.489,12.157,1.215,13.772s-1.861,4.882-1.8,7a1.791,1.791,0,0,1-.235-1.323c.392-2.49,1.019-4.027,1.156-5.116a2.288,2.288,0,0,0,.039-.506c-.137-6.322-2.86-16.67-2.018-21.611.627-3.676.1-7.742-.549-11.632a1.354,1.354,0,0,1-.059-.272c-.176-1.089-.353-2.159-.529-3.19a1.465,1.465,0,0,0-.059-.311c-.1-.661-.2-1.3-.274-1.926-.039-.331-.078-.642-.118-.953-.078-.622-.137-1.225-.157-1.79a16.285,16.285,0,0,1,.039-2.607,14.2,14.2,0,0,1,5.917-.817s.294,1.459-1.273,3.54C651.352,126.721,651.1,126.6,651.1,126.6Z" fill="#e8d0c8" style="mix-blend-mode: multiply;isolation: isolate"/>
        <path id="Path_816" data-name="Path 816" d="M657.274,170.418c.923-.266,1.834,1.027,2.478,1.6,0,0,4.97,2.893,5.121,3.278a3.643,3.643,0,0,1,.21,1.76,4.1,4.1,0,0,1-4.383.975c-2.49-.9-3.387-1.745-5.051-2.151s-4.933-1.072-5.36-1.972.047-3.9.047-3.9.521-.2.729.171a4.929,4.929,0,0,0,2.294,1.774,5.51,5.51,0,0,0,2.494.1c-.051-.23-.139-.455.031-.663a1.926,1.926,0,0,1,.464-.34c.223-.15.415-.342.641-.49A1.011,1.011,0,0,1,657.274,170.418Z" fill="#5c6467"/>
        <path id="Path_817" data-name="Path 817" d="M653.017,123.726a6.193,6.193,0,0,1-2.39,1.751s-1,19.024-2.723,23.187c-1.724,4.182-3.154,19.549-3.115,20.191a10.966,10.966,0,0,0,3.135,7.333c3,2.918,4.31,3.482,4.271,3.929a3.677,3.677,0,0,1-4.212,2.218c-2.821-.467-3.6-.661-4.976-2.1s-2.821-2.412-3.037-3.54c-.2-1.128.764-3.346.176-5.466.02-.019,0-.019,0-.039-.02-.117-.059-.253-.1-.408a.329.329,0,0,0-.02-.136c-.039-.136-.059-.311-.1-.486-.078-.486-.157-1.05-.255-1.712-.627-4.668-1.391-13.325-1.078-16.067.882-7.742,1.763-6.964,1.509-9.162-.274-2.2-3.879-13.22-3.664-25.863a1.66,1.66,0,0,1,.216-.836c1.842-3.618,16.888.031,16.888.031S654.388,121.995,653.017,123.726Z" fill="#171b56"/>
        <g id="Group_411" data-name="Group 411">
          <path id="Path_818" data-name="Path 818" d="M641.454,173.653c-3.6-16.68-1.172-24.786-.259-27.838.122-.41.219-.735.257-.94.2-1.146-1.371-7.594-2.414-11.862-.462-1.9-.864-3.54-1.021-4.342-.523-2.673-.208-10.736-.194-11.076l.49.018c0,.084-.327,8.349.186,10.965.155.792.553,2.428,1.015,4.32,1.444,5.917,2.621,10.909,2.42,12.06a9.946,9.946,0,0,1-.27,1c-.9,3.017-3.3,11.037.268,27.594Z" fill="#b0b2ff"/>
        </g>
        <path id="Path_819" data-name="Path 819" d="M641.693,178.93a4.482,4.482,0,0,1-1.567-2.062c-.216-1.128.705-3.346.078-5.466l-.059-.175c.02-.019,0-.019,0-.039-.02-.117-.059-.253-.1-.408a.329.329,0,0,0-.02-.136c-.02-.156-.059-.311-.1-.486-.078-.486-.157-1.05-.255-1.712-.627-4.668-1.391-13.325-1.078-16.067.882-7.742,1.763-6.964,1.509-9.162-.274-2.2-3.879-13.22-3.664-25.863a1.66,1.66,0,0,1,.216-.836c.568.136,1,.272,1,.272a46.033,46.033,0,0,0,0,10.562c.686,5.972,3.429,15.807,3.429,17.032,0,1.206-1.881,4.746-1.822,11.3.078,6.555,2,15.814,1.881,17.137C641.066,173.756,639.871,176.013,641.693,178.93Z" fill="#e8d0c8" style="mix-blend-mode: multiply;isolation: isolate"/>
        <path id="Path_820" data-name="Path 820" d="M647.549,175.19a3.034,3.034,0,0,0-1.542.025,8.509,8.509,0,0,0-1.751.615c-.558.255-.574.471-.539,1-.721-.354-2.745-1.354-3.058-2.112a10.166,10.166,0,0,1-.321-2.072,4.229,4.229,0,0,0-.2,1.144c-.088.918-.3,3.25-.268,3.869s3.339,3.282,4.255,3.922c2.367,1.648,3.152,2.264,6.461,2.369s3.123-2.142,3.09-2.675-3.3-3.3-4.2-3.97a6.6,6.6,0,0,1-1.275-1.618A1.251,1.251,0,0,0,647.549,175.19Z" fill="#5c6467"/>
        <path id="Path_821" data-name="Path 821" d="M653.842,72.346s2.177-.385,4.892,4.009c2.406,3.89,4.15,6.633,6.906,9.36s3.548,3.155,3.658,4.906-.449,5.065-4.073,3.721-7.866-8.637-9.447-11.722S639.812,72.25,653.842,72.346Z" fill="#febfbf"/>
        <path id="Path_822" data-name="Path 822" d="M665.475,85.522a16.266,16.266,0,0,0-4.8,1.978c-1.967,1.346-9.917-15.256-8.84-15.493a5.783,5.783,0,0,1,4.726,1.4C657.956,74.474,665.475,85.522,665.475,85.522Z" fill="#ff3f41"/>
        <path id="Path_823" data-name="Path 823" d="M643.54,53.843s-.809-4.762-5.325-2.54c-2.567,1.262-5.354,5.662-2.085,12.7a13.606,13.606,0,0,1-.59,12.879s4.675-.731,6.344-2.286,1.138-2.922.923-7.744A107.228,107.228,0,0,1,643.54,53.843Z" fill="#131744"/>
        <path id="Path_824" data-name="Path 824" d="M661.148,90.327a5.47,5.47,0,0,1-.509,2.626v.019c-.078.156-.157.331-.235.506-.274.564-.607,1.225-.96,2.1-.98,2.529,1.078,17.915.764,19.024-.314,1.089-.705,2.12-5.505,3.56-5.349,1.634-12.892,1.459-16.692-.019a7.852,7.852,0,0,1-1.567-.8s1.038-10.835.784-14.881c-.157-2.354-1.391-5.388-2.625-8.442-.059-.136-.118-.292-.176-.428a45.405,45.405,0,0,1-2.057-5.913c-2.038-8.384,1.2-9.376,3.762-11.321a18,18,0,0,1,6.975-3.132c3.8-.934,7.915-1.6,9.071-1.478s4.467,1.77,5.858,6.75c1.215,4.318,2.527,7.956,2.958,10.465a7.616,7.616,0,0,1,.137,1.07A1.457,1.457,0,0,1,661.148,90.327Z" fill="#ff3f41"/>
        <path id="Path_825" data-name="Path 825" d="M661.148,90.327a5.47,5.47,0,0,1-.509,2.626v.019c-.078.156-.157.331-.235.506-.98.233-2.194.545-2.9.7-1.352.311-4.722-.8-4.722-.8l2.194-1.342s-3.722-.8-4.682-1.576a2.807,2.807,0,0,1-.647-2.393c2.135-2.334,8.033-.428,11.344.895a7.616,7.616,0,0,1,.137,1.07A1.457,1.457,0,0,1,661.148,90.327Z" fill="#e79bf2" style="mix-blend-mode: multiply;isolation: isolate"/>
        <path id="Path_826" data-name="Path 826" d="M660.207,114.6c-.314,1.089-.705,2.12-5.505,3.56-5.349,1.634-12.892,1.467-16.692-.012a7.853,7.853,0,0,1-1.567-.8s1.038-10.842.784-14.889c-.157-2.354-1.391-5.388-2.625-8.442.764-4.007,1.959-6.983,3.664-7.158,5.172-.545.131,10.432,7.206,10.743,6.538.292,6.238-2.2,9.341-2.642,3.476-.484,5.121-.768,5.827-1.994-.313.7-.725,1.459-1.2,2.607C658.464,98.108,660.521,113.494,660.207,114.6Z" fill="#ff3f41" style="mix-blend-mode: multiply;isolation: isolate"/>
        <path id="Path_827" data-name="Path 827" d="M652.174,113.047l-12.167-6.73s-1.648.576-1.842,4.443c-.131,2.607.137,5.252-.157,7.392a7.853,7.853,0,0,1-1.567-.8s1.038-10.842.784-14.889c-.157-2.47-1.509-5.68-2.8-8.87,3.115-3.307,5.956-5.972,5.956-5.972a63.242,63.242,0,0,0,1.509,7.022c1.128,3.665,7.754,2.731,10.364,1.4-2.188,1.632-7.76,2.1-9.88,1a33.552,33.552,0,0,1,.261,6.23Z" fill="#e79bf2" style="mix-blend-mode: multiply;isolation: isolate"/>
        <path id="Path_828" data-name="Path 828" d="M633.774,79.156s4.242-1.4,5.948,5.555c2.78,11.313,1.8,17.207,1.873,18.279,4.616,5.7,12.764,10.308,12.954,10.3s2.418.389,2.663.755,3.8,2.552,3.987,3.015,3.28,1.916,3.28,1.916l.36.679s.625.235.637.792-.607.609-.607.609.2.9-.492.957a13.854,13.854,0,0,1-3.354-1.041c-.088-.066-.153.056-.153.056s.95.549,1.091.932.11,1.239-.8.844a33.575,33.575,0,0,1-3.871-2.231c-.627-.459-2.682-2.523-2.9-2.7a7.374,7.374,0,0,0-2.4-2.414,23.8,23.8,0,0,0-2.715-1.259c-4.443-1.792-11.879-6.439-12.329-8.644-.968-4.752-5.95-20.294-5.294-24.048A3.136,3.136,0,0,1,633.774,79.156Z" fill="#febfbf"/>
        <g id="Group_412" data-name="Group 412">
          <path id="Path_829" data-name="Path 829" d="M637.531,105.976c.427.7,1.25,1.634,4.59,4.025s9.759,5,10,5.178,1.418,1.366,1.418,1.366l.866.066,1.264-.7-.131.42-.5.663a2.78,2.78,0,0,0,.358,1.2c.315.455,1.7,1.922,1.992,2.253a29.669,29.669,0,0,0,3.86,2.3.875.875,0,0,0,.709-.088c-.1.224-.333.35-.8.148a33.575,33.575,0,0,1-3.871-2.231c-.627-.459-2.682-2.523-2.9-2.7a7.374,7.374,0,0,0-2.4-2.414,23.8,23.8,0,0,0-2.715-1.259c-3.956-1.593-10.274-5.448-11.935-7.833C637.39,106.019,637.457,105.855,637.531,105.976Z" fill="#fa9698"/>
          <path id="Path_830" data-name="Path 830" d="M660.869,121.024s.1.058.233.146c-.178-.091-.31-.144-.31-.144l-2-1.895-.147-.317,2.21,1.937A14.975,14.975,0,0,0,664,121.777c.688-.025.817-.06.8-.4a1.161,1.161,0,0,0-.347-.692c-.139-.2-1.828-.424-2.2-.617s-1.991-1.229-1.991-1.229,1.142.638,2.126,1.08a7.45,7.45,0,0,0,2.041.508c.17.053.4.442.4.442l.333-.019a.691.691,0,0,0,.159-.533.564.564,0,0,0-.321-.393l-2.469-.833-1.5-.988,1.522.8s1.971.683,2.339.774a.934.934,0,0,1,.582.768c.01.558-.607.609-.607.609s.2.9-.492.957a13.854,13.854,0,0,1-3.354-1.041C660.934,120.9,660.869,121.024,660.869,121.024Z" fill="#fa9698"/>
          <path id="Path_831" data-name="Path 831" d="M642.369,103.9c-1.246-.768-.037.27-1.136.29s-2.974-.1-2.974-.1l1.034-.3c2.175-.418,2.3-.8,2.3-.8.251.311.511.617.778.916Z" fill="#fa9698"/>
        </g>
        <path id="Path_832" data-name="Path 832" d="M652.388,119.137a4.773,4.773,0,0,0,.176-1.364,8.055,8.055,0,0,1-.384-1.949,2.32,2.32,0,0,1,1.391-2.223c.978-.315,1.714-.535,2.375.85s-1.534,1.877-1.626,2.286a13.923,13.923,0,0,1-.122,1.885C654,119.3,652.656,120.357,652.388,119.137Z" fill="#febfbf"/>
        <path id="Path_833" data-name="Path 833" d="M650.558,89l.02,0a1.905,1.905,0,0,0,.061,1c.19.342,3.031.953,3.031.953l3.331.838s-2.61.375-3.115.335-1.74.084-1.385.8,4.377.3,5.5.3,1.6-.48,2.988-.475,4.816,2.793,6.281,2.109,2.9-3.459,1.783-5.4-3.771-1.085-5.012-1.082a10.315,10.315,0,0,1-3.148-.587,2.4,2.4,0,0,1-1.23-1.278,10.527,10.527,0,0,0-1.323-1.27c-.421-.366-2.38-1.994-2.555-2.2s-.494-.741-.623-.9-.406-.541-.731-.175l-.023.033c-.286.348-.078.65.1,1.259a5.811,5.811,0,0,0,1.4,1.675l1.224,1.2a1.335,1.335,0,0,1-.766.428.782.782,0,0,1-.178.027h0a10.717,10.717,0,0,1-1.348-.066l-.024,0c-1.6-.14-3.9-.432-4.406-.354s-.313.669-.259.992a.334.334,0,0,1,0,.187.063.063,0,0,1-.074.031c-.313-.053-.6.395-.631.99a.4.4,0,0,0,.17.35A1.9,1.9,0,0,0,650.558,89Z" fill="#febfbf"/>
        <path id="Path_834" data-name="Path 834" d="M649.818,66.275a73.886,73.886,0,0,0,.253,7.514c.315,2.048,1,3.264-1.324,4.011-1.33.428-6.32-.934-8.4-3.245-.182-.282.37-.64.837-2.253a14.414,14.414,0,0,0,.8-5.544c-.014-3.178.147-6.088.147-6.088Z" fill="#ffadb7"/>
        <path id="Path_835" data-name="Path 835" d="M650.117,73.968a4.531,4.531,0,0,1-1.587-.195c-3.174-.8-4.036-.953-5,0-.96.934-.607,1.984.47,3.112a9.943,9.943,0,0,1-3.664-2.334c-.176-.272.372-.642.842-2.256a14.667,14.667,0,0,0,.8-5.544V65.234l7.954,7.217c.039.525.078.992.137,1.342A.563.563,0,0,0,650.117,73.968Z" fill="url(#linear-gradient-2)"/>
        <path id="Path_836" data-name="Path 836" d="M646.61,51.149s5.27,1.1,6.642,5.1,1.152,4.176,1.064,5.781.431,3.851-.188,6.458S652.9,73.306,651.7,73.7s-8.015-.969-10.493-5.585-4.82-8.841-2.923-13.13C639.614,51.985,643.954,50.489,646.61,51.149Z" fill="#febfbf"/>
        <path id="Path_837" data-name="Path 837" d="M637.884,55.265c1-2.618,2.281-3.122,2.281-3.122s1.234-1.336,4.716-1.34a10.97,10.97,0,0,1,7.557,3.163c1.875,2.031,1.1,3.128,1.1,3.128l-.016-.031a.762.762,0,0,0-1.013-.407c-.889.354-1.26,1.045-1.987,1.3-5.117,1.793-6.146.432-6.567,2.782-.425,2.367-.652,3.212-1.722,2.84-1.724-.6-1.646-.224-2.484.928a29.921,29.921,0,0,0,1.156,3.332s-.043,1.072-2.012-3.235C638.139,62.826,636.223,60.439,637.884,55.265Z" fill="#131744"/>
        <path id="Path_838" data-name="Path 838" d="M641.581,64.162a2.1,2.1,0,0,0-2.435-1.1c-1.695.459-1.373,2.375.443,4.089s2.259-.307,2.347-.44S641.138,65.351,641.581,64.162Z" fill="url(#linear-gradient-3)"/>
        <path id="Path_839" data-name="Path 839" d="M640.966,64.4s-.746-.875-1.473-.5c-1.119.586.5,2.4.654,2.634s.982.14,1.074-.416S640.4,65.1,640.966,64.4Z" fill="url(#linear-gradient-4)"/>
        <path id="Path_840" data-name="Path 840" d="M643.679,62.135a11.3,11.3,0,0,0-.247,3.482,8.837,8.837,0,0,1-.39,3.381,10.43,10.43,0,0,0,0-3.315c-.327-1.206-.966-1.854-.872-2.519S643.679,62.135,643.679,62.135Z" fill="#131744"/>
        <path id="Path_841" data-name="Path 841" d="M656.359,86.573a.782.782,0,0,1-.178.027l.776.035,1.244-.492-1.477-.669s-1.755-1.792-1.92-2.1a9.409,9.409,0,0,1-.4-1.369c-.286.348-.078.65.1,1.259a5.811,5.811,0,0,0,1.4,1.675l1.224,1.2A1.335,1.335,0,0,1,656.359,86.573Z" fill="#fa9698"/>
        <path id="Path_842" data-name="Path 842" d="M652.143,87.722c1.044.158,4.1.348,4.1.348l-6.1-.9a.334.334,0,0,1,0,.187C650.593,87.442,651.363,87.608,652.143,87.722Z" fill="#fa9698"/>
        <path id="Path_843" data-name="Path 843" d="M649.61,88.732a1.9,1.9,0,0,0,.948.268l.02,0c.264.021,1.485.251,2.494.348.933.086,2.617.278,2.872.305-.46-.076-5.384-.85-5.889-.85A1.418,1.418,0,0,1,649.61,88.732Z" fill="#fa9698"/>
      </g>
      <path id="Path_844" data-name="Path 844" d="M632.957,78.959a4.734,4.734,0,0,0-1.671,3.217,76.558,76.558,0,0,0,2.467,11.945c2.951.344,7.51-1,7.615-1.883a43.554,43.554,0,0,0-2.153-9.7C638.154,79.819,636.2,77.617,632.957,78.959Z" fill="#ff3f41"/>
    </g>
  </g>
</svg>
