<svg xmlns="http://www.w3.org/2000/svg" width="210" height="170" viewBox="0 0 210 170">
  <g id="Vector_Smart_Object" data-name="Vector Smart Object" transform="translate(-848.983 -682.767)">
    <g id="Group_403" data-name="Group 403">
      <path id="Path_747" data-name="Path 747" d="M909.4,821.146l-60.415-34.7,60.415-34.7,39.457,69.406Z" fill="#f5f2e8"/>
      <g id="Group_391" data-name="Group 391">
        <g id="Group_390" data-name="Group 390">
          <path id="Path_748" data-name="Path 748" d="M948.856,821.146l60.415-34.7V717.47l-60.415,34.7Z" fill="#c99a6b"/>
          <path id="Path_749" data-name="Path 749" d="M1009.27,717.47l-60.415,34.7,32.6-17.352Z" fill="#87623f"/>
          <path id="Path_750" data-name="Path 750" d="M948.856,821.146l-60.415-34.7V717.47l60.415,34.7Z" fill="#ae835b"/>
          <path id="Path_751" data-name="Path 751" d="M948.856,752.173l-60.415-34.7,60.415-34.7,60.415,34.7Z" fill="#e8b687"/>
          <path id="Path_752" data-name="Path 752" d="M976.081,763.782l9.707-5.576V730.959l-9.707,5.576Z" fill="#d9af84"/>
          <path id="Path_753" data-name="Path 753" d="M976.081,736.534l-60.415-34.7,9.707-5.576,60.415,34.7Z" fill="#ebcbab"/>
          <path id="Path_754" data-name="Path 754" d="M888.441,717.47l60.415,34.7-32.6-17.352Z" fill="#87623f"/>
          <path id="Path_755" data-name="Path 755" d="M922.65,764.368l-9.707-5.576V731.544l9.707,5.576Z" fill="#9c754e"/>
          <path id="Path_756" data-name="Path 756" d="M922.65,737.12l60.415-34.7-9.707-5.576-60.415,34.7Z" fill="#54493e" style="mix-blend-mode: screen;isolation: isolate"/>
          <path id="Path_757" data-name="Path 757" d="M918.16,734.541l60.415-34.7-.668-.384-60.415,34.7Z" fill="#d1a986"/>
          <path id="Path_758" data-name="Path 758" d="M922.65,737.12v1.124l-5.918-3.15-3.789-2.364v-1.187Z" fill="#ae835b"/>
        </g>
        <path id="Path_759" data-name="Path 759" d="M981.455,734.822l-5.374,2.861v-1.148l9.707-5.576v1.16Z" fill="#ae835b"/>
      </g>
      <g id="Group_394" data-name="Group 394">
        <g id="Group_392" data-name="Group 392">
          <path id="Path_760" data-name="Path 760" d="M945.168,768.216l-12.748-7.324V746.329l12.748,7.324Zm-11.91-7.805,11.072,6.36V754.134l-11.072-6.36Z" fill="#87623f"/>
        </g>
        <g id="Group_393" data-name="Group 393">
          <path id="Path_761" data-name="Path 761" d="M940.2,763.552l-2.812-1.615V754.6l2.812,1.615Z" fill="#87623f"/>
          <path id="Path_762" data-name="Path 762" d="M942.965,759.2l-8.342-4.792,4.171-2.61Z" fill="#87623f"/>
        </g>
      </g>
      <g id="Group_402" data-name="Group 402">
        <path id="Path_763" data-name="Path 763" d="M981.875,776.768v19.523l25.966-14.915V761.853Z" fill="#fff8e6"/>
        <path id="Path_764" data-name="Path 764" d="M1052.244,746.3l-.069.04a4.241,4.241,0,0,0-4.218-.043l-12.849,7.381c-1.1-9.406-5.2-16.56-11.858-20.388-5.627-3.236-12.42-3.686-19.68-1.52l1.6-17.662-4.621-2.876a4.522,4.522,0,0,0-1.055-.658l-.055-.035v.023a4.554,4.554,0,0,0-6.254,4.266v21.694c-19.665,12.077-34.895,38.615-34.962,61.318l-14.856,8.529a4.259,4.259,0,0,0-1.568,5.83,4.183,4.183,0,0,0,1.273,1.338l0,.026,5.43,3.386,11.232-7.762c1.885,6.487,5.494,11.492,10.675,14.466a22.088,22.088,0,0,0,11.153,2.887,31.916,31.916,0,0,0,11.626-2.46v21.143a4.506,4.506,0,0,0,2.035,3.707l-.009.1,5.407,3.378.339-3.857a4.548,4.548,0,0,0,1.467-3.326V831.911l1.194-13.557c16.514-11.717,29.267-33.451,31.451-53.472l11.2-7.765,5.969-3.43a4.153,4.153,0,0,0,1.629-1.837l3.375-2.342Zm-38.322,19.548a4.253,4.253,0,0,0-1.571,5.827,4.209,4.209,0,0,0,1.316,1.361l-.014.032,4.94,3.15,2.94-4.684-.191-.1,3.615-2.077c-.119.545-.18,1.087-.313,1.635-.061.239-.136.482-.2.724q-.683,2.635-1.6,5.264c-.081.234-.154.467-.238.7q-1.039,2.86-2.343,5.671c-.1.219-.209.436-.313.658a77.243,77.243,0,0,1-6.48,11.154l-.217.312a70.258,70.258,0,0,1-8.489,9.96c-.765.741-1.548,1.448-2.337,2.135v-.609l2.943-6.089-5.123-3.314-.041.052a4.518,4.518,0,0,0-2.4-.764,4.606,4.606,0,0,0-4.618,4.595V814c-4.271,2.244-8.3,3.4-11.837,3.343a14.852,14.852,0,0,1-2.267-.2,12.288,12.288,0,0,1-4.056-1.436,11.647,11.647,0,0,1-2.3-1.8c-.154-.144-.3-.294-.449-.453a13.886,13.886,0,0,1-1.864-2.469l-.017-.029a18.58,18.58,0,0,1-1.418-3.161c-.049-.133-.1-.262-.142-.4a25.335,25.335,0,0,1-.936-3.839c-.07-.427-.116-.874-.168-1.318l13.965-8.022c.049-.029.078-.081.125-.11l1.113.58,4.047-4.419-5.613-3.669-.087.1a4.229,4.229,0,0,0-3.873.127l-9.547,5.483q.209-1.674.528-3.369l.038-.2h0a68.792,68.792,0,0,1,6.9-19.029l0,0a77.183,77.183,0,0,1,4.172-6.943h0a67.294,67.294,0,0,1,13.693-15.045v10.892a4.557,4.557,0,0,0,2.554,4.055l-.035.032,4.772,3.029,3.125-4.292-1.644-.885a4.506,4.506,0,0,0,.467-1.938V741.971c.052-.026.107-.061.156-.084a26.768,26.768,0,0,1,6.494-2.025,18.269,18.269,0,0,1,2.986-.254,13.64,13.64,0,0,1,4.387.773,11.864,11.864,0,0,1,2.18.874c4.85,2.786,7.532,9.017,7.564,17.543Z" fill="#ff4c4a"/>
        <g id="Group_395" data-name="Group 395">
          <path id="Path_765" data-name="Path 765" d="M986.413,791.218l-2.068,1.188v-14.59l2.068-1.188Z" fill="#ab9589"/>
          <path id="Path_766" data-name="Path 766" d="M1001.51,782.546l-2.068,1.188v-14.59l2.068-1.188Z" fill="#ab9589"/>
          <path id="Path_767" data-name="Path 767" d="M988.7,789.905l-1.267.727v-14.59l1.267-.727Z" fill="#ab9589"/>
          <path id="Path_768" data-name="Path 768" d="M998.548,784.247l-1.267.728v-14.59l1.267-.728Z" fill="#ab9589"/>
          <path id="Path_769" data-name="Path 769" d="M990.535,788.85l-.9.516v-14.59l.9-.516Z" fill="#ab9589"/>
          <path id="Path_770" data-name="Path 770" d="M992.6,787.661l-.9.516v-14.59l.9-.516Z" fill="#ab9589"/>
          <path id="Path_771" data-name="Path 771" d="M1003.3,781.517l-.9.516V767.442l.9-.516Z" fill="#ab9589"/>
          <path id="Path_772" data-name="Path 772" d="M1005.371,780.328l-1.515.87v-14.59l1.515-.87Z" fill="#ab9589"/>
          <path id="Path_773" data-name="Path 773" d="M994.075,786.816l-.9.516v-14.59l.9-.516Z" fill="#ab9589"/>
          <path id="Path_774" data-name="Path 774" d="M996.388,785.488l-1.587.912V771.809l1.587-.912Z" fill="#ab9589"/>
        </g>
        <g id="Group_401" data-name="Group 401">
          <g id="Group_396" data-name="Group 396">
            <path id="Path_775" data-name="Path 775" d="M986.16,829.486A22.125,22.125,0,0,1,975,826.6c-7.86-4.514-12.188-13.626-12.188-25.657,0-23.249,15.943-50.62,36.3-62.31,10.608-6.095,20.813-6.952,28.734-2.4,7.86,4.517,12.188,13.629,12.188,25.657,0,23.249-15.946,50.62-36.3,62.31C997.621,827.714,991.645,829.486,986.16,829.486Zm30.5-86.935c-3.847,0-8.257,1.359-12.928,4.044-17.468,10.035-31.68,34.415-31.68,54.349,0,8.607,2.69,14.9,7.573,17.7,4.934,2.83,11.858,1.984,19.488-2.4,17.468-10.032,31.685-34.412,31.685-54.349,0-8.607-2.691-14.893-7.573-17.7A12.985,12.985,0,0,0,1016.66,742.55Z" fill="#ff7270"/>
          </g>
          <g id="Group_397" data-name="Group 397">
            <path id="Path_776" data-name="Path 776" d="M1002.4,766.16h0a4.611,4.611,0,0,1-4.621-4.6V717.776a4.608,4.608,0,0,1,4.621-4.595h0a4.606,4.606,0,0,1,4.618,4.595v43.786A4.608,4.608,0,0,1,1002.4,766.16Z" fill="#ff7270"/>
          </g>
          <g id="Group_398" data-name="Group 398">
            <path id="Path_777" data-name="Path 777" d="M1002.4,852.766h0a4.608,4.608,0,0,1-4.621-4.6V804.385a4.608,4.608,0,0,1,4.621-4.6h0a4.606,4.606,0,0,1,4.618,4.6v43.786A4.606,4.606,0,0,1,1002.4,852.766Z" fill="#ff7270"/>
          </g>
          <g id="Group_399" data-name="Group 399">
            <path id="Path_778" data-name="Path 778" d="M1016.95,774.62h0a4.25,4.25,0,0,1,1.568-5.827l34.034-19.551a4.3,4.3,0,0,1,5.856,1.56h0a4.255,4.255,0,0,1-1.568,5.827l-34.034,19.551A4.3,4.3,0,0,1,1016.95,774.62Z" fill="#ff7270"/>
          </g>
          <g id="Group_400" data-name="Group 400">
            <path id="Path_779" data-name="Path 779" d="M946.4,815.147h0a4.253,4.253,0,0,1,1.568-5.83L982,789.766a4.3,4.3,0,0,1,5.854,1.56h0a4.253,4.253,0,0,1-1.569,5.83L952.254,816.7A4.294,4.294,0,0,1,946.4,815.147Z" fill="#ff7270"/>
          </g>
        </g>
      </g>
    </g>
  </g>
</svg>
