<svg xmlns="http://www.w3.org/2000/svg" width="431" height="344.999" viewBox="0 0 431 344.999">
  <g id="Vector_Smart_Object" data-name="Vector Smart Object" transform="translate(-1001.871 -785.732)">
    <g id="Group_330" data-name="Group 330">
      <g id="Group_247" data-name="Group 247">
        <path id="Path_229" data-name="Path 229" d="M1412.494,916.412l-10.637-6.182-57.244,87.778-45.5,13.969,3.459,2-3.459,1.371,66.723,36.366,15.43-15.557,34.914-115.372Z" fill="#f5f2e8"/>
        <path id="Path_230" data-name="Path 230" d="M1052.064,910.462v.008a10.965,10.965,0,0,0,.147,1.16c1.173,6.59,90.067,82.4,101.4,90.872,12.447,9.314,40.909,25.8,59.941,37.419.016,0,.024.008.039.024,3.353,2.044,6.763,4.1,10.2,6.17l.039.024c54.558,32.709,117.524,66.157,117.524,66.157a136.583,136.583,0,0,0,35.307,14.456c21.873,5.346,46.093,5.026,50.449.716a14.145,14.145,0,0,0-1.336-7.307v-.008c-2.211-5.283-6.669-11.22-11.134-16.44a.524.524,0,0,1-.092-.11c-.864-1-1.718-1.976-2.556-2.908l-.107-.118c-1.3-1.454-2.572-2.824-3.735-4.06-1.048-1.121-2.019-2.141-2.858-3.029-7.074-7.469-28.282-25.184-28.282-25.184l-75.858-42.175-165.4-93.785c-42.916-25.281-43.707-25.523-44.516-25.733s-1.613-.4-2.273-.622a22.288,22.288,0,0,0-5.382-1.16l-24.652-3.766c-2.09-.194-5.134,1.837-6.352,5.33a9.576,9.576,0,0,0-.521,2.483A10.7,10.7,0,0,0,1052.064,910.462Z" fill="#f5f2e8"/>
        <path id="Path_231" data-name="Path 231" d="M1129.29,930.187l3.946-5.411-2.655-47.2-9.728-7.715-26.744,39.973Z" fill="#f5f2e8"/>
        <path id="Path_232" data-name="Path 232" d="M1107.634,942.691l-9.35,2.283-19.566-.209-63.175-.656-13.672-5.433,28.706-9.92,26.637-9.212,5.788-1.995,10.791,6.063Z" fill="#f5f2e8"/>
        <path id="Path_233" data-name="Path 233" d="M1285.67,1072.592l-62.86-32.993-40.18,24.427-133.2,42.919,21.015,7.842,192.193-29.9,26.89-8.927Z" fill="#f5f2e8"/>
      </g>
      <g id="Group_248" data-name="Group 248">
        <path id="Path_234" data-name="Path 234" d="M1340.957,1082.684a9.314,9.314,0,0,0-4.214-7.283,2.891,2.891,0,0,0-3.109-.226l-2.635,1.53,1.784,2.916a9.954,9.954,0,0,0,2.855,4.664l1.569,2.564,2.315-1.352a2.082,2.082,0,0,0,.419-.244h0A3.1,3.1,0,0,0,1340.957,1082.684Z" fill="#23222d"/>
        <path id="Path_235" data-name="Path 235" d="M1338.354,1084.191c0,2.677-1.889,3.755-4.214,2.409a9.31,9.31,0,0,1-4.217-7.285c0-2.677,1.888-3.753,4.217-2.407A9.314,9.314,0,0,1,1338.354,1084.191Z" fill="#393843"/>
        <path id="Path_236" data-name="Path 236" d="M1337.929,1084.143c0,2.575-1.815,3.611-4.054,2.315a8.953,8.953,0,0,1-4.055-7.007c0-2.575,1.815-3.611,4.055-2.315A8.952,8.952,0,0,1,1337.929,1084.143Z" fill="#2d2c37"/>
        <path id="Path_237" data-name="Path 237" d="M1336.989,1083.506c0,1.861-1.312,2.609-2.928,1.674a6.467,6.467,0,0,1-2.928-5.063c0-1.858,1.31-2.609,2.928-1.672A6.47,6.47,0,0,1,1336.989,1083.506Z" fill="#504f58"/>
        <path id="Path_238" data-name="Path 238" d="M1336.793,1083.288c0,1.685-1.189,2.365-2.653,1.517a5.86,5.86,0,0,1-2.653-4.588c0-1.685,1.187-2.362,2.653-1.514A5.862,5.862,0,0,1,1336.793,1083.288Z" fill="#c4c2bb"/>
        <path id="Path_239" data-name="Path 239" d="M1336.526,1083.133c0,1.517-1.069,2.126-2.386,1.365a5.263,5.263,0,0,1-2.386-4.126c0-1.514,1.066-2.126,2.386-1.362a3.28,3.28,0,0,1,.354.234,5.471,5.471,0,0,1,2,3.448A3.631,3.631,0,0,1,1336.526,1083.133Z" fill="#b0ac9e"/>
        <path id="Path_240" data-name="Path 240" d="M1335,1083.881a4.986,4.986,0,0,1-2.26-3.905,1.754,1.754,0,0,1,.445-1.291c-.843-.063-1.433.562-1.433,1.688a5.263,5.263,0,0,0,2.386,4.126c.959.556,1.786.38,2.166-.339A1.813,1.813,0,0,1,1335,1083.881Z" fill="#b7b4a9"/>
        <path id="Path_241" data-name="Path 241" d="M1336.5,1082.692c-.251.365-.728.433-1.273.118a3.235,3.235,0,0,1-1.464-2.53c0-.625.293-1,.734-1.037A5.471,5.471,0,0,1,1336.5,1082.692Z" fill="#9d9783"/>
        <path id="Path_242" data-name="Path 242" d="M1334.139,1079.367l-1.1.637,2.163,3.519,1.083-.626-.739-1.77Z" fill="#9d9783"/>
        <path id="Path_243" data-name="Path 243" d="M1335.6,1082.6c0,.929-.657,1.3-1.464.837a3.231,3.231,0,0,1-1.464-2.53c0-.932.655-1.3,1.464-.837A3.238,3.238,0,0,1,1335.6,1082.6Z" fill="#d5d2c9"/>
      </g>
      <path id="Path_244" data-name="Path 244" d="M1331.672,1080.721a.7.7,0,0,0,.385.557,2.188,2.188,0,0,0,1.985.045.712.712,0,0,0,.422-.549h.005v-.021l.909-38.328-2.787-.186-.927,38.453v.029Z" fill="#23222d"/>
      <g id="Group_249" data-name="Group 249">
        <path id="Path_245" data-name="Path 245" d="M1336.547,1085.261a9.3,9.3,0,0,0-4.214-7.283,2.885,2.885,0,0,0-3.109-.226l-2.635,1.527,1.784,2.916a9.947,9.947,0,0,0,2.855,4.666l1.572,2.564,2.315-1.352a2.041,2.041,0,0,0,.419-.247h0A3.1,3.1,0,0,0,1336.547,1085.261Z" fill="#23222d"/>
        <path id="Path_246" data-name="Path 246" d="M1333.943,1086.768c0,2.677-1.886,3.756-4.214,2.409a9.308,9.308,0,0,1-4.214-7.286c0-2.677,1.886-3.756,4.214-2.407A9.3,9.3,0,0,1,1333.943,1086.768Z" fill="#393843"/>
        <path id="Path_247" data-name="Path 247" d="M1333.521,1086.721c0,2.574-1.815,3.611-4.055,2.315a8.953,8.953,0,0,1-4.054-7.007c0-2.575,1.815-3.611,4.054-2.315A8.952,8.952,0,0,1,1333.521,1086.721Z" fill="#2d2c37"/>
        <path id="Path_248" data-name="Path 248" d="M1332.578,1086.083c0,1.861-1.31,2.609-2.928,1.672a6.469,6.469,0,0,1-2.928-5.06c0-1.861,1.312-2.609,2.928-1.672A6.459,6.459,0,0,1,1332.578,1086.083Z" fill="#504f58"/>
        <path id="Path_249" data-name="Path 249" d="M1332.382,1085.865c0,1.685-1.187,2.362-2.653,1.517a5.86,5.86,0,0,1-2.653-4.588c0-1.685,1.186-2.362,2.653-1.514A5.855,5.855,0,0,1,1332.382,1085.865Z" fill="#c4c2bb"/>
        <path id="Path_250" data-name="Path 250" d="M1332.115,1085.71c0,1.517-1.069,2.126-2.386,1.365a5.278,5.278,0,0,1-2.386-4.126c0-1.517,1.069-2.126,2.386-1.365a3.743,3.743,0,0,1,.354.236,5.471,5.471,0,0,1,2,3.448A3.634,3.634,0,0,1,1332.115,1085.71Z" fill="#b0ac9e"/>
        <path id="Path_251" data-name="Path 251" d="M1330.59,1086.458a4.987,4.987,0,0,1-2.26-3.905,1.749,1.749,0,0,1,.445-1.291c-.843-.066-1.433.562-1.433,1.688a5.278,5.278,0,0,0,2.386,4.126c.961.554,1.786.38,2.166-.341A1.8,1.8,0,0,1,1330.59,1086.458Z" fill="#b7b4a9"/>
        <path id="Path_252" data-name="Path 252" d="M1332.086,1085.269c-.251.365-.728.433-1.273.118a3.236,3.236,0,0,1-1.464-2.533c0-.625.3-1,.733-1.034A5.471,5.471,0,0,1,1332.086,1085.269Z" fill="#9d9783"/>
        <path id="Path_253" data-name="Path 253" d="M1329.729,1081.944l-1.1.637,2.163,3.519,1.083-.626-.74-1.77Z" fill="#9d9783"/>
        <path id="Path_254" data-name="Path 254" d="M1331.193,1085.177c0,.929-.655,1.3-1.464.837a3.236,3.236,0,0,1-1.464-2.533c0-.929.655-1.3,1.464-.835A3.227,3.227,0,0,1,1331.193,1085.177Z" fill="#d5d2c9"/>
      </g>
      <g id="Group_250" data-name="Group 250">
        <path id="Path_255" data-name="Path 255" d="M1269.33,1050.991a9.31,9.31,0,0,0-4.217-7.286,2.9,2.9,0,0,0-3.109-.226l-2.635,1.53,1.786,2.916a9.932,9.932,0,0,0,2.855,4.664l1.569,2.567,2.315-1.354a2.159,2.159,0,0,0,.419-.244h0A3.094,3.094,0,0,0,1269.33,1050.991Z" fill="#23222d"/>
        <path id="Path_256" data-name="Path 256" d="M1266.726,1052.5c0,2.674-1.888,3.753-4.217,2.407a9.315,9.315,0,0,1-4.214-7.286c0-2.674,1.888-3.753,4.214-2.407A9.311,9.311,0,0,1,1266.726,1052.5Z" fill="#393843"/>
        <path id="Path_257" data-name="Path 257" d="M1266.3,1052.448c0,2.575-1.815,3.611-4.055,2.317a8.956,8.956,0,0,1-4.055-7.007c0-2.577,1.815-3.614,4.055-2.317A8.956,8.956,0,0,1,1266.3,1052.448Z" fill="#2d2c37"/>
        <path id="Path_258" data-name="Path 258" d="M1265.362,1051.81c0,1.861-1.312,2.609-2.928,1.674a6.47,6.47,0,0,1-2.931-5.063c0-1.858,1.312-2.609,2.931-1.672A6.469,6.469,0,0,1,1265.362,1051.81Z" fill="#504f58"/>
        <path id="Path_259" data-name="Path 259" d="M1265.163,1051.592c0,1.685-1.187,2.365-2.653,1.517a5.862,5.862,0,0,1-2.653-4.585c0-1.685,1.189-2.365,2.653-1.517A5.856,5.856,0,0,1,1265.163,1051.592Z" fill="#c4c2bb"/>
        <path id="Path_260" data-name="Path 260" d="M1264.9,1051.44c0,1.514-1.069,2.126-2.389,1.362a5.27,5.27,0,0,1-2.386-4.126c0-1.514,1.069-2.126,2.386-1.362a3.34,3.34,0,0,1,.356.234,5.478,5.478,0,0,1,2,3.449A3.674,3.674,0,0,1,1264.9,1051.44Z" fill="#b0ac9e"/>
        <path id="Path_261" data-name="Path 261" d="M1263.371,1052.185a4.991,4.991,0,0,1-2.258-3.905,1.752,1.752,0,0,1,.443-1.289c-.843-.066-1.433.559-1.433,1.685a5.27,5.27,0,0,0,2.386,4.126c.961.556,1.789.38,2.169-.339A1.821,1.821,0,0,1,1263.371,1052.185Z" fill="#b7b4a9"/>
        <path id="Path_262" data-name="Path 262" d="M1264.869,1051c-.251.365-.728.433-1.276.118a3.238,3.238,0,0,1-1.464-2.53c0-.625.3-1,.736-1.037A5.478,5.478,0,0,1,1264.869,1051Z" fill="#9d9783"/>
        <path id="Path_263" data-name="Path 263" d="M1262.511,1047.672l-1.1.637,2.163,3.519,1.083-.626-.739-1.77Z" fill="#9d9783"/>
        <path id="Path_264" data-name="Path 264" d="M1263.974,1050.9c0,.932-.655,1.3-1.464.837a3.238,3.238,0,0,1-1.464-2.53c0-.932.657-1.3,1.464-.837A3.231,3.231,0,0,1,1263.974,1050.9Z" fill="#d5d2c9"/>
      </g>
      <g id="Group_251" data-name="Group 251">
        <path id="Path_265" data-name="Path 265" d="M1264.919,1053.566a9.314,9.314,0,0,0-4.214-7.283,2.885,2.885,0,0,0-3.109-.226l-2.635,1.53,1.784,2.913a9.95,9.95,0,0,0,2.855,4.666l1.569,2.564,2.315-1.351a2.082,2.082,0,0,0,.419-.244h0A3.1,3.1,0,0,0,1264.919,1053.566Z" fill="#23222d"/>
        <path id="Path_266" data-name="Path 266" d="M1262.316,1055.072c0,2.677-1.886,3.756-4.214,2.409a9.31,9.31,0,0,1-4.217-7.286c0-2.677,1.888-3.753,4.217-2.407A9.307,9.307,0,0,1,1262.316,1055.072Z" fill="#393843"/>
        <path id="Path_267" data-name="Path 267" d="M1261.891,1055.025c0,2.575-1.815,3.611-4.054,2.315a8.952,8.952,0,0,1-4.055-7.007c0-2.574,1.815-3.611,4.055-2.315A8.952,8.952,0,0,1,1261.891,1055.025Z" fill="#2d2c37"/>
        <path id="Path_268" data-name="Path 268" d="M1260.951,1054.387c0,1.861-1.312,2.609-2.928,1.674a6.467,6.467,0,0,1-2.928-5.063c0-1.858,1.31-2.609,2.928-1.672A6.469,6.469,0,0,1,1260.951,1054.387Z" fill="#504f58"/>
        <path id="Path_269" data-name="Path 269" d="M1260.755,1054.169c0,1.685-1.189,2.365-2.653,1.517a5.86,5.86,0,0,1-2.653-4.588c0-1.685,1.187-2.362,2.653-1.514A5.862,5.862,0,0,1,1260.755,1054.169Z" fill="#c4c2bb"/>
        <path id="Path_270" data-name="Path 270" d="M1260.487,1054.015c0,1.517-1.069,2.126-2.386,1.365a5.269,5.269,0,0,1-2.389-4.126c0-1.514,1.069-2.126,2.389-1.362a3.28,3.28,0,0,1,.354.234,5.471,5.471,0,0,1,2,3.449A3.631,3.631,0,0,1,1260.487,1054.015Z" fill="#b0ac9e"/>
        <path id="Path_271" data-name="Path 271" d="M1258.963,1054.763a4.986,4.986,0,0,1-2.26-3.905,1.753,1.753,0,0,1,.445-1.291c-.843-.063-1.435.562-1.435,1.688a5.269,5.269,0,0,0,2.389,4.126c.959.556,1.786.381,2.166-.339A1.813,1.813,0,0,1,1258.963,1054.763Z" fill="#b7b4a9"/>
        <path id="Path_272" data-name="Path 272" d="M1260.458,1053.574c-.251.365-.728.433-1.273.118a3.235,3.235,0,0,1-1.464-2.53c0-.625.293-1,.733-1.037A5.471,5.471,0,0,1,1260.458,1053.574Z" fill="#9d9783"/>
        <path id="Path_273" data-name="Path 273" d="M1258.1,1050.249l-1.1.637,2.163,3.519,1.083-.626-.74-1.77Z" fill="#9d9783"/>
        <path id="Path_274" data-name="Path 274" d="M1259.565,1053.482c0,.929-.657,1.3-1.464.837a3.235,3.235,0,0,1-1.464-2.53c0-.932.655-1.307,1.464-.837A3.238,3.238,0,0,1,1259.565,1053.482Z" fill="#d5d2c9"/>
      </g>
      <g id="Group_329" data-name="Group 329">
        <g id="Group_324" data-name="Group 324">
          <g id="Group_274" data-name="Group 274">
            <path id="Path_275" data-name="Path 275" d="M1328.744,992.19a6.623,6.623,0,0,0,.134,1.378,3.981,3.981,0,0,0,.943,1.937l.078.079.026.021a2.824,2.824,0,0,0,.417.339,2.087,2.087,0,0,0,.275.163l14.542,7.781.7-1.139.4-.648v0l1.823-2.947,5.943-9.608-14.854-7.978-.013-.008a2.7,2.7,0,0,0-.791-.386h0l-.128-.037a4.746,4.746,0,0,0-3.52.722c-.089.052-.178.1-.267.163-.165.1-.33.213-.49.333a13.729,13.729,0,0,0-4.772,6.963,11.07,11.07,0,0,0-.39,1.89c-.021.168-.037.336-.045.5-.008.081-.008.163-.01.244S1328.744,992.109,1328.744,992.19Z" fill="#554d4e"/>
            <path id="Path_276" data-name="Path 276" d="M1335.017,995.544a8.246,8.246,0,0,0,.086,1.223,6.31,6.31,0,0,0,.351,1.4,4.224,4.224,0,0,0,1.215,1.753l2.734,4.068a6.018,6.018,0,0,1-1.433-2.945,10.039,10.039,0,0,1-.2-2.1c0-.126,0-.247.005-.373s.008-.247.018-.37c.01-.249.034-.5.066-.758.178-.089.359-.184.54-.289a11.825,11.825,0,0,0,2.027-1.5,17.287,17.287,0,0,0,4.091-5.816,13.78,13.78,0,0,0,1.213-5.354c0-.176-.008-.344-.013-.509.244-.181.492-.349.744-.507.134-.087.27-.165.406-.247a10.2,10.2,0,0,1,2.041-.916,5.965,5.965,0,0,1,3.316-.181l-5.071.031a5.45,5.45,0,0,0-4.8.714c-.126.073-.249.152-.375.231a14.753,14.753,0,0,0-4.251,4.336,17.639,17.639,0,0,0-1.983,4.034,13.321,13.321,0,0,0-.7,3.477v0C1335.025,995.151,1335.017,995.35,1335.017,995.544Z" fill="#dad3cc"/>
            <path id="Path_277" data-name="Path 277" d="M1337.767,998.946a10.039,10.039,0,0,0,.2,2.1,6.018,6.018,0,0,0,1.433,2.945l.12.121.039.032a4.221,4.221,0,0,0,.631.517,3.755,3.755,0,0,0,.422.247l23.408,13.723,1.071-1.735.613-.987v0l2.774-4.483,9.042-14.621-23.885-14.02-.021-.013a4.265,4.265,0,0,0-1.2-.585h-.005l-.191-.055a7.209,7.209,0,0,0-5.356,1.1c-.136.081-.272.16-.406.247-.251.157-.5.325-.744.507a20.922,20.922,0,0,0-7.263,10.595,16.886,16.886,0,0,0-.594,2.874c-.031.255-.055.509-.066.758-.01.123-.013.249-.018.37S1337.767,998.82,1337.767,998.946Z" fill="#f3f1ee"/>
            <path id="Path_278" data-name="Path 278" d="M1337.723,987.437l3.921.7,2.871,1.7,22.358,13.172,8.607-5.236L1348.9,982.307h0l-6.928.8A14.753,14.753,0,0,0,1337.723,987.437Z" fill="#fcfbfa"/>
            <path id="Path_279" data-name="Path 279" d="M1335.017,995.544a8.246,8.246,0,0,0,.086,1.223,6.31,6.31,0,0,0,.351,1.4,4.224,4.224,0,0,0,1.215,1.753l2.734,4.068.12.121.039.032a4.221,4.221,0,0,0,.631.517,3.755,3.755,0,0,0,.422.247l23.408,13.723,1.071-1.735.613-.987v0l2.774-4.483-28.06-15.765-1.972-1.084-2.711-3.1a13.321,13.321,0,0,0-.7,3.477v0C1335.025,995.151,1335.017,995.35,1335.017,995.544Z" fill="#ebe7e3"/>
            <path id="Path_280" data-name="Path 280" d="M1335.017,995.544a8.246,8.246,0,0,0,.086,1.223,6.31,6.31,0,0,0,.351,1.4,4.224,4.224,0,0,0,1.215,1.753l2.734,4.068.12.121.039.032a4.221,4.221,0,0,0,.631.517,3.755,3.755,0,0,0,.422.247l23.408,13.723,1.071-1.735.613-.987v0a15.178,15.178,0,0,0-.846-1.535l-27.1-15.421-2.729-4v0C1335.025,995.151,1335.017,995.35,1335.017,995.544Z" fill="#ded8d1"/>
            <path id="Path_281" data-name="Path 281" d="M1335.1,996.767a6.31,6.31,0,0,0,.351,1.4,4.224,4.224,0,0,0,1.215,1.753l2.734,4.068.12.121.039.032a4.221,4.221,0,0,0,.631.517,3.755,3.755,0,0,0,.422.247l23.408,13.723,1.071-1.735-27.122-15.846,0,0Z" fill="#cdc6bc"/>
            <path id="Path_282" data-name="Path 282" d="M1353.637,982.774h-.026a4,4,0,0,0-1.2-.6l-.183-.053-5.084.029a5.44,5.44,0,0,0-4.793.735,2.616,2.616,0,0,0-.367.21,14.727,14.727,0,0,0-4.269,4.357,18.393,18.393,0,0,0-1.964,4.015,13.132,13.132,0,0,0-.707,3.491,4.27,4.27,0,0,0-.026.577,6.183,6.183,0,0,0,.1,1.234,5.411,5.411,0,0,0,.34,1.391,4.374,4.374,0,0,0,1.2,1.758l2.753,4.065.1.131.052.026a4.167,4.167,0,0,0,.629.525c.131.079.262.157.419.236l17.261,10.13a4.016,4.016,0,0,1-.341-.315l-.052-.026-.1-.131a7.138,7.138,0,0,1-1.65-5.039c0-5.774,4.086-12.807,9.115-15.72a7.194,7.194,0,0,1,5.343-1.1l.183.053a4,4,0,0,1,1.2.6h.026l.1.026Zm-4.845-.42c.052-.026.079-.026.1-.052h.052A.372.372,0,0,0,1348.791,982.354Z" fill="#fecb4c" style="mix-blend-mode: multiply;isolation: isolate"/>
            <path id="Path_283" data-name="Path 283" d="M1364.415,989.107s-4.421.388-7.816,7.661-4.374,12.97-1.755,16.476c-2.944-1.724-15.272-9.107-15.272-9.107l7.8-15.03,6.268-6.333Z" fill="#d9b5a5" style="mix-blend-mode: multiply;isolation: isolate"/>
            <g id="Group_252" data-name="Group 252">
              <path id="Path_284" data-name="Path 284" d="M1361.523,1012.866c0,5.779,4.073,8.1,9.1,5.2s9.1-9.949,9.1-15.726-4.073-8.1-9.1-5.2S1361.523,1007.089,1361.523,1012.866Z" fill="#fcfbfa"/>
            </g>
            <g id="Group_253" data-name="Group 253">
              <path id="Path_285" data-name="Path 285" d="M1361.916,1012.753c0,5.653,3.984,7.928,8.9,5.084s8.9-9.732,8.9-15.385-3.986-7.928-8.9-5.084S1361.916,1007.1,1361.916,1012.753Z" fill="#ebe7e3"/>
            </g>
            <g id="Group_254" data-name="Group 254">
              <path id="Path_286" data-name="Path 286" d="M1362.943,1012.042c0,.1,0,.2.005.289,0,.131.01.255.021.381a7.867,7.867,0,0,0,.128,1.008c.021.1.042.2.068.3a5.666,5.666,0,0,0,.325.974c.031.076.066.152.1.226a4.413,4.413,0,0,0,.453.737c1.341,1.785,3.785,2.081,6.574.467a16.944,16.944,0,0,0,7.674-13.264c0-2.6-.972-4.364-2.522-5.081a3.648,3.648,0,0,0-.812-.268c-.068-.016-.141-.029-.215-.039a4.263,4.263,0,0,0-.864-.05c-.092.005-.178.01-.267.018a5.71,5.71,0,0,0-.838.142c-.1.026-.207.05-.306.081a7.771,7.771,0,0,0-.794.281c-.11.05-.225.1-.34.155-.236.11-.472.236-.715.375l-.008.005c-.12.071-.244.144-.364.226-.223.136-.443.289-.66.446-.131.094-.254.192-.38.289-.2.16-.4.328-.592.5-.128.113-.257.234-.383.352-.181.171-.356.346-.526.533-.131.131-.254.268-.377.4q-.244.276-.479.567c-.126.15-.244.3-.359.457-.149.194-.293.391-.432.593-.115.16-.228.323-.335.491-.136.207-.267.417-.393.633-.107.171-.2.346-.3.52-.126.223-.244.449-.359.675-.092.178-.178.357-.257.538-.115.244-.223.488-.325.735-.073.178-.141.354-.207.535-.1.265-.2.533-.278.8-.058.173-.11.346-.155.522-.084.291-.157.585-.217.874-.037.163-.071.331-.094.493-.06.315-.1.625-.136.934-.013.147-.029.3-.034.441C1362.951,1011.58,1362.943,1011.813,1362.943,1012.042Z" fill="#f3f1ee"/>
            </g>
            <g id="Group_273" data-name="Group 273">
              <path id="Path_287" data-name="Path 287" d="M1362.943,1012.042c0,.1,0,.2.005.289,0,.131.01.255.021.381a7.867,7.867,0,0,0,.128,1.008c.021.1.042.2.068.3a5.666,5.666,0,0,0,.325.974c.031.076.066.152.1.226a4.413,4.413,0,0,0,.453.737c1.362.632,3.169.451,5.152-.7a16.944,16.944,0,0,0,7.674-13.264,6.431,6.431,0,0,0-1.1-3.918,3.648,3.648,0,0,0-.812-.268c-.068-.016-.141-.029-.215-.039a4.263,4.263,0,0,0-.864-.05c-.092.005-.178.01-.267.018a5.71,5.71,0,0,0-.838.142c-.1.026-.207.05-.306.081a7.771,7.771,0,0,0-.794.281c-.11.05-.225.1-.34.155-.236.11-.472.236-.715.375l-.008.005c-.12.071-.244.144-.364.226-.223.136-.443.289-.66.446-.131.094-.254.192-.38.289-.2.16-.4.328-.592.5-.128.113-.257.234-.383.352-.181.171-.356.346-.526.533-.131.131-.254.268-.377.4q-.244.276-.479.567c-.126.15-.244.3-.359.457-.149.194-.293.391-.432.593-.115.16-.228.323-.335.491-.136.207-.267.417-.393.633-.107.171-.2.346-.3.52-.126.223-.244.449-.359.675-.092.178-.178.357-.257.538-.115.244-.223.488-.325.735-.073.178-.141.354-.207.535-.1.265-.2.533-.278.8-.058.173-.11.346-.155.522-.084.291-.157.585-.217.874-.037.163-.071.331-.094.493-.06.315-.1.625-.136.934-.013.147-.029.3-.034.441C1362.951,1011.58,1362.943,1011.813,1362.943,1012.042Z" fill="#493f41"/>
              <g id="Group_255" data-name="Group 255">
                <path id="Path_288" data-name="Path 288" d="M1372.511,1004.578a10.149,10.149,0,0,0,1.045-.58l3.078-1.958c.118-.076.22-.071.22.01a.35.35,0,0,1-.157.223l-3.177,2.346a10.153,10.153,0,0,1-2.273,1.286l-2.035.793v-.535Z" fill="#554d4e"/>
                <path id="Path_289" data-name="Path 289" d="M1363.14,1009.966l1.726-1.1a9.64,9.64,0,0,1,.891-.509c.052-.029.1-.052.152-.076l.28-.134,1.328-.635.484-.234.178-.084.3-.144.168-.079.113-.052.081-.039.058-.032.05-.021.042-.021.031-.013.031-.018.024-.008.029-.016.023-.01.021-.01.024-.013h.008l.034-.018v-.535h0l-.013.005-.021.008-.021.008-.026.013-.023.008-.026.01-.037.013-.037.013-.05.021-.06.026-.078.026-.11.047-.168.06-.293.115-.173.071-.487.186-.411.163a9.642,9.642,0,0,0-.914.42c-.144.081-.293.163-.44.252-.307.184-.613.386-.914.609l-1.671,1.234C1363.2,1009.635,1363.163,1009.8,1363.14,1009.966Z" fill="#554d4e"/>
              </g>
              <g id="Group_256" data-name="Group 256">
                <path id="Path_290" data-name="Path 290" d="M1372.472,1003.943c.346-.236.691-.5,1.029-.782l3.007-2.527c.115-.1.223-.118.236-.047a.353.353,0,0,1-.134.241l-3.054,2.9a12.8,12.8,0,0,1-2.242,1.722l-2.061,1.223-.081-.483Z" fill="#6b6164"/>
                <path id="Path_291" data-name="Path 291" d="M1362.969,1011.341l1.951-1.64q.424-.354.856-.661c.06-.042.115-.084.173-.121l.28-.192,1.32-.9.492-.331v0l.176-.118.291-.2.178-.118.107-.076.081-.052.06-.042.05-.034.039-.026.034-.024.026-.021.031-.016.026-.018.021-.016.031-.018.016-.016h.005l.034-.024,0,0-.042-.239v-.005l-.042-.236-.016.01-.018.008-.029.016-.016.013-.029.013-.031.018-.031.021-.042.024-.047.029-.06.039-.079.045-.113.066-.17.1-.3.178-.175.1-.485.286-.424.249a9.8,9.8,0,0,0-.917.612c-.147.1-.291.215-.435.333-.3.242-.6.5-.891.777L1363,1010.9C1362.99,1011.047,1362.974,1011.2,1362.969,1011.341Z" fill="#6b6164"/>
              </g>
              <g id="Group_257" data-name="Group 257">
                <path id="Path_292" data-name="Path 292" d="M1372.33,1003.384c.335-.3.665-.622.988-.963l2.839-3.018c.11-.115.223-.163.249-.1s-.026.152-.107.249l-2.837,3.367a15.408,15.408,0,0,1-2.145,2.1l-2.025,1.611-.16-.412Z" fill="#554d4e"/>
                <path id="Path_293" data-name="Path 293" d="M1362.948,1012.33c0,.131.01.255.021.381l2.137-2.27c.267-.286.54-.559.82-.814.055-.047.113-.1.168-.15l.267-.239,1.276-1.134.485-.428.162-.147.3-.26.162-.142.107-.1.076-.068.06-.052.044-.042.042-.034.031-.029.029-.029.026-.018.021-.024.029-.024.021-.016.021-.018,0,0,.01-.008.029-.029v0l-.076-.194-.005-.005v-.005h0l-.076-.2-.005,0-.013.01-.024.018-.018.013-.021.021-.026.018-.029.024-.034.029-.039.031-.047.034-.06.047-.076.063-.113.087-.165.134-.286.228-.181.144-.479.381-.411.325c-.3.239-.6.5-.891.777-.149.136-.291.278-.437.425-.283.286-.553.588-.817.9Z" fill="#554d4e"/>
              </g>
              <g id="Group_258" data-name="Group 258">
                <path id="Path_294" data-name="Path 294" d="M1372.094,1002.914c.314-.349.621-.722.914-1.107l2.59-3.422c.1-.129.215-.2.249-.15s-.005.142-.076.249l-2.533,3.732a17.283,17.283,0,0,1-1.983,2.425l-1.928,1.955-.233-.331Z" fill="#6b6164"/>
                <path id="Path_295" data-name="Path 295" d="M1363.1,1013.719c.021.1.042.2.068.3l2.25-2.966c.246-.328.5-.646.765-.945l.147-.168.254-.286,1.2-1.336.451-.5.162-.186.267-.3.155-.171.1-.113.071-.081.055-.058.042-.05.034-.042.031-.034.029-.029.023-.029.026-.026.016-.021.05-.05v0l.034-.039-.11-.155-.005-.005v0h0v0l-.115-.16-.031.031-.021.024-.024.021-.023.024-.029.029-.031.034-.039.034-.044.05-.236.236-.157.16-.278.283-.162.165-.466.467-.385.394c-.286.286-.563.593-.838.916-.136.16-.267.325-.4.491-.257.328-.508.669-.744,1.018Z" fill="#6b6164"/>
              </g>
              <g id="Group_259" data-name="Group 259">
                <path id="Path_296" data-name="Path 296" d="M1369.062,1006.313l.147.115v0h0l.149.118.016-.021.016-.021.021-.021.021-.026.021-.029.029-.031.026-.037.031-.042.047-.052.052-.066.065-.089.1-.121.147-.181.254-.325.128-.16.448-.564.354-.449c.254-.32.5-.659.741-1.005.126-.184.246-.37.369-.559.228-.362.448-.735.65-1.108l2.067-3.826c-.068-.016-.141-.029-.215-.039l-2.161,3.554c-.212.352-.44.7-.673,1.026-.045.066-.092.134-.139.2l-.246.344-1.071,1.48-.419.585-.126.171-.244.341-.139.192-.089.126-.068.092-.047.068-.042.058-.031.045-.029.037-.024.031-.021.032-.024.029-.018.026-.021.029-.013.021-.008.008Z" fill="#554d4e"/>
                <path id="Path_297" data-name="Path 297" d="M1363.49,1015c.031.076.066.152.1.226l2.247-3.693c.207-.344.432-.685.668-1.016.045-.071.094-.136.141-.207l.23-.32,1.084-1.5,0,0,.4-.562.139-.194,0-.008.244-.331.139-.194.092-.126.065-.089.05-.071.042-.052.031-.05.026-.037.026-.031.024-.034.021-.026,0,0,.013-.024.023-.029.016-.029.008-.005.024-.034,0-.005-.149-.118h0v0l-.147-.115-.011.013-.005.008-.005.008-.01.013-.021.021-.042.055-.026.031-.029.039-.034.042-.042.05-.052.068-.071.087-.089.118-.149.184-.257.326-.149.186-.432.543-.351.444c-.262.331-.513.677-.757,1.034-.118.176-.233.349-.348.53-.23.362-.448.735-.65,1.108Z" fill="#554d4e"/>
              </g>
              <g id="Group_260" data-name="Group 260">
                <path id="Path_298" data-name="Path 298" d="M1369.03,1006.362h.005l.173.068h0l.178.071.013-.026.016-.021.034-.055.021-.031.024-.034.023-.039.031-.047.037-.055.045-.073.063-.094.084-.134.128-.2.223-.352.118-.181.385-.609.32-.5q.338-.528.644-1.087c.107-.2.215-.4.314-.606.188-.378.367-.761.524-1.144l1.446-3.485c-.092.005-.178.01-.267.018l-1.556,3.265c-.176.367-.364.735-.568,1.089-.037.074-.073.142-.115.213l-.215.373-.919,1.585-.367.638-.11.186-.207.362-.123.207-.076.139-.06.1-.039.076-.037.06-.026.047-.026.042-.024.037-.018.037-.021.029-.016.031-.018.032-.021.037-.005.008-.005.008Z" fill="#6b6164"/>
                <path id="Path_299" data-name="Path 299" d="M1367.05,1010.551c-.244.423-.474.861-.684,1.3l-1.865,3.9c-.071.15-.178.26-.23.239s-.039-.11.01-.228l1.705-4.112a18.779,18.779,0,0,1,1.482-2.84l1.564-2.449.356.136Z" fill="#6b6164"/>
              </g>
              <g id="Group_261" data-name="Group 261">
                <path id="Path_300" data-name="Path 300" d="M1369.009,1006.412l.2.018h0l.2.018.011-.021.016-.026.013-.026.013-.031.018-.034.018-.037.024-.045.024-.047.031-.063.039-.073.047-.1.071-.139.107-.213.186-.373.1-.186.325-.654.265-.522c.189-.373.367-.751.526-1.139.087-.2.17-.409.244-.619.149-.386.28-.777.393-1.16l.893-3.052c-.1.026-.207.05-.306.081l-1.027,2.887c-.131.373-.278.748-.44,1.118-.031.074-.063.147-.1.221l-.17.383h-.005l-.744,1.664-.3.656-.087.2-.17.378-.1.218-.065.144-.045.1-.037.079-.026.06-.021.05-.021.045-.018.039-.013.034-.018.031-.01.029-.021.042-.005.021Z" fill="#554d4e"/>
                <path id="Path_301" data-name="Path 301" d="M1367.516,1010.669c-.2.441-.38.89-.537,1.339l-1.409,3.968c-.052.152-.152.278-.212.273s-.058-.092-.024-.21l1.208-4.118a17.465,17.465,0,0,1,1.16-2.916l1.307-2.593.4.034Z" fill="#554d4e"/>
              </g>
              <g id="Group_262" data-name="Group 262">
                <path id="Path_302" data-name="Path 302" d="M1368.993,1006.462v0l.207-.031.008,0h0l.22-.034.008-.021.008-.029.011-.026.016-.031.01-.032.018-.039.013-.045.021-.052.024-.063.029-.076.042-.1.05-.142.084-.22.147-.383.076-.194.254-.672.2-.525c.141-.381.275-.766.39-1.155.063-.2.118-.409.17-.617.1-.383.176-.766.238-1.139l.435-2.585c-.11.05-.225.1-.34.155l-.574,2.462c-.084.37-.183.745-.3,1.118-.021.074-.047.147-.071.221l-.126.383-.553,1.688-.215.656-.066.2-.126.383-.073.221-.047.142-.031.1-.026.079-.021.06-.016.05-.013.047-.016.037-.011.039-.01.032-.01.031-.005.021-.016.037Z" fill="#6b6164"/>
                <path id="Path_303" data-name="Path 303" d="M1368.035,1010.659c-.147.446-.272.895-.375,1.336l-.911,3.913c-.034.15-.121.286-.186.3s-.076-.066-.057-.181l.673-4a15.522,15.522,0,0,1,.8-2.908l1.008-2.653.44-.068Z" fill="#6b6164"/>
              </g>
              <g id="Group_263" data-name="Group 263">
                <path id="Path_304" data-name="Path 304" d="M1368.983,1006.517l.217-.084h.008v0h0l.005,0,.225-.084.005-.021.008-.029.013-.055.008-.034.01-.039.011-.045.013-.05.018-.058.021-.081.024-.1.039-.139.055-.218.1-.383.052-.2.17-.656.136-.527c.1-.381.181-.761.246-1.136.034-.2.068-.4.092-.593.044-.367.076-.732.087-1.084l.065-2.115c-.12.071-.244.144-.364.226l-.212,2.042c-.039.346-.092.706-.16,1.066-.01.076-.029.15-.042.226l-.076.375-.338,1.646-.133.648-.037.2-.076.378-.047.215-.026.139-.021.1-.013.079-.016.058-.01.052-.01.042-.005.039-.008.034-.008.031,0,.024-.008.034-.005.029v0Z" fill="#554d4e"/>
                <path id="Path_305" data-name="Path 305" d="M1368.587,1010.52a12.82,12.82,0,0,0-.2,1.294l-.385,3.737c-.016.144-.086.289-.157.315-.055.021-.089-.042-.087-.15l.118-3.756a12.9,12.9,0,0,1,.422-2.811l.681-2.632.461-.173Z" fill="#554d4e"/>
              </g>
              <g id="Group_264" data-name="Group 264">
                <path id="Path_306" data-name="Path 306" d="M1368.978,1006.567l.223-.134h.008v0h0l.005,0,.228-.134,0-.021.005-.024,0-.024,0-.031.005-.031,0-.039.008-.042.005-.047.008-.06.011-.074.013-.1.018-.136.029-.213.047-.362.026-.192.081-.627.068-.512q.071-.551.094-1.087c0-.186.005-.375,0-.559a7.941,7.941,0,0,0-.071-.984l-.217-1.677c-.131.094-.254.192-.38.289l.073,1.651c.013.328.01.669-.008,1.018l-.01.194-.023.352-.115,1.567-.042.6-.013.2-.029.357-.013.2-.011.131-.008.1,0,.071,0,.058-.005.05,0,.042,0,.034-.005.034v.026l0,.032v.026l0,.032Z" fill="#6b6164"/>
                <path id="Path_307" data-name="Path 307" d="M1369.158,1010.257a11.039,11.039,0,0,0-.018,1.21l.152,3.451a.4.4,0,0,1-.118.32c-.058.034-.1-.013-.118-.11l-.44-3.4a10.3,10.3,0,0,1,.026-2.627l.335-2.535.466-.268Z" fill="#6b6164"/>
              </g>
              <g id="Group_265" data-name="Group 265">
                <path id="Path_308" data-name="Path 308" d="M1368.234,1000.594l.293,1.3a7.594,7.594,0,0,1,.147.911c.005.06.013.121.016.178l.024.32.12,1.438.045.554.013.181.023.325.018.184.008.123.005.087.008.068,0,.052.005.047,0,.034,0,.034v.024l.005.031,0,.029v.024l0,.029.005.042.217-.176h.008v0h0v0h.005v-.005h0l.223-.173v-.157l0-.037v-.262l-.005-.131v-.192l0-.339,0-.178-.008-.591,0-.47a8.777,8.777,0,0,0-.068-1c-.021-.163-.045-.328-.076-.483a6.082,6.082,0,0,0-.225-.887l-.432-1.283C1368.488,1000.355,1368.359,1000.476,1368.234,1000.594Z" fill="#554d4e"/>
                <path id="Path_309" data-name="Path 309" d="M1369.734,1009.877a7.894,7.894,0,0,0,.16,1.092l.686,3.06a.346.346,0,0,1-.081.318c-.055.042-.113.013-.141-.071l-.985-2.942a7.733,7.733,0,0,1-.367-2.365l-.026-2.359.461-.357Z" fill="#554d4e"/>
              </g>
              <g id="Group_266" data-name="Group 266">
                <path id="Path_310" data-name="Path 310" d="M1367.33,1001.531l.464,1a5.128,5.128,0,0,1,.291.782,1.564,1.564,0,0,1,.044.155l.079.278.34,1.265.131.483.042.16.081.286.042.16.031.108.018.081.016.055.013.05.01.037.008.031.005.029.01.026.008.026,0,.024.008.021.008.021v0l.011.034v.005l.207-.21.008-.008h0v0l.008-.008.212-.207v-.005l0-.013-.005-.024,0-.021,0-.029-.008-.024,0-.031-.008-.034-.008-.039-.01-.053-.011-.058-.013-.084-.021-.113-.031-.173-.055-.307-.031-.16-.094-.522-.076-.425a6.1,6.1,0,0,0-.223-.882c-.044-.142-.1-.281-.152-.415a4.962,4.962,0,0,0-.377-.735l-.589-.942C1367.576,1001.258,1367.453,1001.394,1367.33,1001.531Z" fill="#6b6164"/>
                <path id="Path_311" data-name="Path 311" d="M1370.292,1009.394a5.557,5.557,0,0,0,.338.937l1.194,2.577a.293.293,0,0,1-.037.3.1.1,0,0,1-.162-.029l-1.5-2.393a5.783,5.783,0,0,1-.752-2.031l-.382-2.11.44-.436Z" fill="#6b6164"/>
              </g>
              <g id="Group_267" data-name="Group 267">
                <path id="Path_312" data-name="Path 312" d="M1366.492,1002.554l.61.732a4.477,4.477,0,0,1,.427.619,1.363,1.363,0,0,1,.076.136l.123.228.558,1.052.212.4.071.134.128.236.068.136.05.089.034.068.026.045.018.037.018.037.013.024.016.029.011.021.01.016.01.021.01.018.011.016v.005l.016.031.191-.241.008-.008h0v-.005h.005v-.005h0l.194-.239v0l-.005-.018-.008-.013-.008-.021-.01-.021-.005-.021-.01-.029-.016-.029-.013-.034-.013-.042-.026-.055-.026-.066-.039-.1-.058-.15-.1-.26-.06-.142-.176-.443-.147-.357a4.814,4.814,0,0,0-.377-.743,3.678,3.678,0,0,0-.225-.328,3.8,3.8,0,0,0-.511-.567l-.723-.648C1366.725,1002.247,1366.607,1002.4,1366.492,1002.554Z" fill="#554d4e"/>
                <path id="Path_313" data-name="Path 313" d="M1370.816,1008.819a4.555,4.555,0,0,0,.505.758l1.671,2.01a.241.241,0,0,1,.005.283.117.117,0,0,1-.178.016l-1.972-1.772a4.431,4.431,0,0,1-1.111-1.635l-.728-1.8.4-.5Z" fill="#554d4e"/>
              </g>
              <g id="Group_268" data-name="Group 268">
                <path id="Path_314" data-name="Path 314" d="M1365.725,1003.638l.746.5a3.7,3.7,0,0,1,.558.454,1.2,1.2,0,0,1,.1.1l.165.173.754.8.288.307.1.1.173.186.1.105.065.066.045.047.034.039.029.029.021.024.021.024.016.018.018.016.013.016.016.013.013.013.013.016v0l.021.021.17-.265.008-.008v0h0v0l.005-.005,0-.005.17-.262,0,0-.008-.01-.01-.013-.01-.016-.01-.016-.013-.018-.016-.021-.016-.021-.021-.026-.024-.037-.031-.042-.042-.055-.058-.076-.086-.118-.149-.207-.087-.113-.257-.352-.209-.286a3.664,3.664,0,0,0-.511-.572,3.38,3.38,0,0,0-.3-.247,3.566,3.566,0,0,0-.629-.373l-.841-.386C1365.945,1003.307,1365.832,1003.47,1365.725,1003.638Z" fill="#6b6164"/>
                <path id="Path_315" data-name="Path 315" d="M1371.293,1008.173a3.852,3.852,0,0,0,.655.554l2.1,1.388a.186.186,0,0,1,.05.252.148.148,0,0,1-.188.058l-2.381-1.1a3.767,3.767,0,0,1-1.441-1.192l-1.05-1.43.356-.551Z" fill="#6b6164"/>
              </g>
              <g id="Group_269" data-name="Group 269">
                <path id="Path_316" data-name="Path 316" d="M1365.031,1004.79l.9.265a3.2,3.2,0,0,1,.657.265c.044.021.086.045.128.068l.2.115.932.53.354.2.123.068.212.118.12.071.081.045.055.031.042.024.034.021.029.018.024.01.024.013.018.01.018.01.016.01.018.011.013.008.031.018.147-.291h0v-.005h.005v-.005l0-.005.141-.278-.013-.01-.011-.008-.013-.011-.018-.013-.013-.01-.021-.018-.021-.013-.029-.021-.031-.024-.037-.031-.052-.039-.073-.055-.113-.084-.194-.147-.107-.084-.327-.247-.27-.2a3.392,3.392,0,0,0-.637-.383,3.182,3.182,0,0,0-.351-.147,3.783,3.783,0,0,0-.733-.178l-.964-.139C1365.224,1004.441,1365.127,1004.617,1365.031,1004.79Z" fill="#554d4e"/>
                <path id="Path_317" data-name="Path 317" d="M1371.707,1007.473a3.661,3.661,0,0,0,.786.333l2.457.722a.146.146,0,0,1,.089.215.192.192,0,0,1-.194.1l-2.716-.391a3.729,3.729,0,0,1-1.723-.706l-1.344-1.024.3-.583Z" fill="#554d4e"/>
              </g>
              <g id="Group_270" data-name="Group 270">
                <path id="Path_318" data-name="Path 318" d="M1364.415,1006l1.068.013a4.748,4.748,0,0,1,.76.073c.044.01.089.018.136.029l.23.05,1.087.244.406.094.141.032.244.055.139.031.092.021.066.016.05.01.042.01.034.005.026.008.026,0,.021.008.042.008.016.005.021.005.031.005.115-.3h0v-.005h.005v-.005l0-.005.11-.286h0l-.013-.008-.016,0-.016-.008-.018-.005-.042-.016-.026-.01-.031-.01-.037-.013-.047-.018-.063-.024-.084-.031-.131-.045-.233-.087-.128-.045-.393-.144-.314-.115a3.939,3.939,0,0,0-.741-.184,2.918,2.918,0,0,0-.406-.045,4.656,4.656,0,0,0-.807.024l-1.108.121C1364.58,1005.643,1364.494,1005.822,1364.415,1006Z" fill="#6b6164"/>
                <path id="Path_319" data-name="Path 319" d="M1372.045,1006.743a4.475,4.475,0,0,0,.893.1l2.742.031c.1,0,.165.081.128.171a.233.233,0,0,1-.191.136l-2.975.331a4.332,4.332,0,0,1-1.951-.2l-1.6-.583.236-.6Z" fill="#6b6164"/>
              </g>
              <g id="Group_271" data-name="Group 271">
                <path id="Path_320" data-name="Path 320" d="M1363.883,1007.273l1.27-.281a6.034,6.034,0,0,1,.812-.123l.162-.01.254-.01,1.2-.052.448-.016.16-.008.27-.013.152-.008.1,0,.073,0h.058l.044-.005h.034l.034,0h.05l.024-.005h.047l.016,0h.039v0l.079-.294v-.005l.005-.005.076-.291h-.016l-.016,0h-.042l-.021-.005h-.029l-.026,0-.037,0h-.039l-.058-.005-.068-.005-.1-.008-.147-.01-.264-.018-.147-.01-.437-.026-.354-.024a4.856,4.856,0,0,0-.825.018,3.46,3.46,0,0,0-.427.06,6.629,6.629,0,0,0-.878.226l-1.276.423C1364.017,1006.916,1363.949,1007.092,1363.883,1007.273Z" fill="#554d4e"/>
                <path id="Path_321" data-name="Path 321" d="M1372.3,1006a5.872,5.872,0,0,0,.972-.134l2.947-.656c.113-.024.188.031.165.121a.288.288,0,0,1-.189.171l-3.135,1.042a5.666,5.666,0,0,1-2.127.3l-1.8-.121.16-.6Z" fill="#554d4e"/>
              </g>
              <g id="Group_272" data-name="Group 272">
                <path id="Path_322" data-name="Path 322" d="M1363.451,1008.6l1.5-.648a6.769,6.769,0,0,1,.872-.32l.149-.042.27-.074,1.294-.352.466-.129.178-.047.28-.076.168-.045.1-.029.079-.024.057-.013.047-.016.039-.01.031-.005.031-.01.024-.008.024,0,.021-.008.021-.008.013,0,.016,0,.037-.01.042-.283v-.005l.042-.286-.016,0-.018.005-.021,0-.021,0-.031.005-.024.005-.031,0-.039.008-.044.008-.06.01-.071.013-.11.018-.16.031-.28.047-.16.029-.469.079-.39.071a6.643,6.643,0,0,0-.888.223c-.147.05-.3.1-.453.163a8.827,8.827,0,0,0-.893.42l-1.467.787C1363.548,1008.249,1363.5,1008.423,1363.451,1008.6Z" fill="#6b6164"/>
                <path id="Path_323" data-name="Path 323" d="M1372.453,1005.273a7.378,7.378,0,0,0,1.024-.362l3.059-1.325c.115-.05.2-.018.194.068a.323.323,0,0,1-.176.2l-3.206,1.719a7.591,7.591,0,0,1-2.232.806l-1.946.341.081-.577Z" fill="#6b6164"/>
              </g>
              <path id="Path_324" data-name="Path 324" d="M1367.349,1010.236a1.942,1.942,0,0,1-1.16-2.055,6.655,6.655,0,0,1,3.009-5.2c1.084-.627,2.03-.514,2.562.168h0l.024.032a1.613,1.613,0,0,1,.157.255,5.618,5.618,0,0,1,.71,3.588,6.56,6.56,0,0,0-.974,1.756,7.725,7.725,0,0,1-3.5,1.506,1.892,1.892,0,0,1-.594.008h-.026l-.034-.008-.016,0A.57.57,0,0,1,1367.349,1010.236Z" fill="#ebe7e3"/>
              <path id="Path_325" data-name="Path 325" d="M1370.253,1008.241c0,.764.537,1.073,1.2.688a2.652,2.652,0,0,0,1.2-2.079c0-.764-.537-1.073-1.2-.688A2.651,2.651,0,0,0,1370.253,1008.241Z" fill="#ebe7e3"/>
            </g>
            <path id="Path_326" data-name="Path 326" d="M1369.3,1005.937c.28.811.972,1.307,1.543,1.108a1.389,1.389,0,0,0,.526-1.827c-.28-.811-.972-1.307-1.543-1.108S1369.02,1005.126,1369.3,1005.937Z" fill="#fcfbfa"/>
          </g>
          <g id="Group_297" data-name="Group 297">
            <path id="Path_327" data-name="Path 327" d="M1243.735,1052.975l-5.946,9.605-1.807,2.939-.419.656-.707,1.155-9.324-4.986-5.212-2.808a2.346,2.346,0,0,1-.262-.157,2.662,2.662,0,0,1-.419-.341l-.1-.105a3.868,3.868,0,0,1-.943-1.942,5.612,5.612,0,0,1-.131-1.365v-.5a3.585,3.585,0,0,1,.052-.5,12.787,12.787,0,0,1,.393-1.89,13.622,13.622,0,0,1,4.767-6.955,3.332,3.332,0,0,1,.5-.341c.079-.052.183-.1.262-.157a4.688,4.688,0,0,1,3.51-.709l.131.026a2.217,2.217,0,0,1,.786.394h.026l2.8,1.522h.026Z" fill="#554d4e"/>
            <path id="Path_328" data-name="Path 328" d="M1224.722,1058.975a8.23,8.23,0,0,0,.086,1.223,6.313,6.313,0,0,0,.351,1.4,4.261,4.261,0,0,0,1.213,1.753l2.737,4.068a6.017,6.017,0,0,1-1.433-2.945,10.067,10.067,0,0,1-.2-2.1c0-.126,0-.247.005-.373s.008-.247.018-.37c.01-.249.034-.5.065-.758.178-.089.359-.184.54-.289a11.817,11.817,0,0,0,2.027-1.5,17.275,17.275,0,0,0,4.091-5.818,13.768,13.768,0,0,0,1.213-5.351c0-.176-.008-.344-.013-.509.241-.181.492-.349.744-.507.134-.087.27-.165.406-.247a10.2,10.2,0,0,1,2.04-.916,5.964,5.964,0,0,1,3.316-.181l-5.071.031a5.449,5.449,0,0,0-4.8.714c-.126.073-.249.15-.375.231a14.719,14.719,0,0,0-4.251,4.336,17.526,17.526,0,0,0-1.983,4.034,13.317,13.317,0,0,0-.7,3.477v0C1224.73,1058.581,1224.722,1058.778,1224.722,1058.975Z" fill="#dad3cc"/>
            <path id="Path_329" data-name="Path 329" d="M1227.472,1062.376a10.067,10.067,0,0,0,.2,2.1,6.017,6.017,0,0,0,1.433,2.945l.12.121.039.032a4.047,4.047,0,0,0,.631.514,3.437,3.437,0,0,0,.422.249l23.408,13.723,1.071-1.735.61-.987v0l2.774-4.483,9.042-14.621-23.882-14.017-.021-.016a4.278,4.278,0,0,0-1.2-.585h0l-.191-.055a7.209,7.209,0,0,0-5.356,1.1c-.136.081-.272.16-.406.247-.251.157-.5.325-.744.507a20.906,20.906,0,0,0-7.263,10.595,16.9,16.9,0,0,0-.595,2.874c-.031.255-.055.509-.065.758-.01.123-.013.249-.018.37S1227.472,1062.25,1227.472,1062.376Z" fill="#f3f1ee"/>
            <path id="Path_330" data-name="Path 330" d="M1227.428,1050.868l3.918.7,2.873,1.7,22.358,13.175,8.607-5.236-26.575-15.469h0l-6.928.8A14.719,14.719,0,0,0,1227.428,1050.868Z" fill="#fcfbfa"/>
            <path id="Path_331" data-name="Path 331" d="M1224.722,1058.975a8.23,8.23,0,0,0,.086,1.223,6.313,6.313,0,0,0,.351,1.4,4.261,4.261,0,0,0,1.213,1.753l2.737,4.068.12.121.039.032a4.047,4.047,0,0,0,.631.514,3.437,3.437,0,0,0,.422.249l23.408,13.723,1.071-1.735.61-.987v0l2.774-4.483-28.057-15.765-1.972-1.084-2.711-3.1a13.317,13.317,0,0,0-.7,3.477v0C1224.73,1058.581,1224.722,1058.778,1224.722,1058.975Z" fill="#ebe7e3"/>
            <path id="Path_332" data-name="Path 332" d="M1224.722,1058.975a8.23,8.23,0,0,0,.086,1.223,6.313,6.313,0,0,0,.351,1.4,4.261,4.261,0,0,0,1.213,1.753l2.737,4.068.12.121.039.032a4.047,4.047,0,0,0,.631.514,3.437,3.437,0,0,0,.422.249l23.408,13.723,1.071-1.735.61-.987v0a15.151,15.151,0,0,0-.843-1.538l-27.1-15.419-2.729-4v0C1224.73,1058.581,1224.722,1058.778,1224.722,1058.975Z" fill="#ded8d1"/>
            <path id="Path_333" data-name="Path 333" d="M1224.808,1060.2a6.313,6.313,0,0,0,.351,1.4,4.261,4.261,0,0,0,1.213,1.753l2.737,4.068.12.121.039.032a4.047,4.047,0,0,0,.631.514,3.437,3.437,0,0,0,.422.249l23.408,13.723,1.071-1.735-27.122-15.846,0,0Z" fill="#cdc6bc"/>
            <path id="Path_334" data-name="Path 334" d="M1257.931,1054.76l-14.589-8.556h-.026a4,4,0,0,0-1.2-.6l-.183-.052-5.081.026a5.44,5.44,0,0,0-4.793.735,2.4,2.4,0,0,0-.34.21h-.026a14.729,14.729,0,0,0-4.269,4.357,18.392,18.392,0,0,0-1.964,4.015,13.131,13.131,0,0,0-.707,3.491,4.25,4.25,0,0,0-.026.577,6.182,6.182,0,0,0,.1,1.233,5.406,5.406,0,0,0,.34,1.391,5.14,5.14,0,0,0,.367.761,3.935,3.935,0,0,0,.838,1l2.75,4.068.1.131.052.026a4.178,4.178,0,0,0,.629.525c.131.079.262.157.419.236l3.353,1.968,13.908,8.162a4.022,4.022,0,0,1-.34-.315l-.052-.026-.1-.131a7.138,7.138,0,0,1-1.65-5.039c0-5.774,4.086-12.807,9.115-15.72a7.194,7.194,0,0,1,5.343-1.1l.183.052a4,4,0,0,1,1.2.6h.026l.1.026Zm-19.33-9.028h.052a.372.372,0,0,0-.157.052C1238.549,1045.758,1238.575,1045.758,1238.6,1045.732Z" fill="#fecb4c" style="mix-blend-mode: multiply;isolation: isolate"/>
            <path id="Path_335" data-name="Path 335" d="M1257.931,1054.76s-8.355-.289-12.651,4.3-4.845,10.682-5.71,11.731c-.864,1.076-5.893-.5-5.893-.5l-3.353-1.968c-.157-.079-.288-.157-.419-.236a4.178,4.178,0,0,1-.629-.525l-.052-.026-.1-.131-2.75-4.068a3.935,3.935,0,0,1-.838-1l-5.212-2.808a2.346,2.346,0,0,1-.262-.157,2.662,2.662,0,0,1-.419-.341l-.1-.105a3.868,3.868,0,0,1-.943-1.942,5.612,5.612,0,0,1-.131-1.365v-.5a3.585,3.585,0,0,1,.052-.5,12.787,12.787,0,0,1,.393-1.89,13.622,13.622,0,0,1,4.767-6.955,3.332,3.332,0,0,1,.5-.341c.079-.052.183-.1.262-.157a4.688,4.688,0,0,1,3.51-.709l.131.026a2.217,2.217,0,0,1,.786.394h.026l2.8,1.522h.026a2.4,2.4,0,0,1,.34-.21,5.44,5.44,0,0,1,4.793-.735l5.081-.026.183.052a4,4,0,0,1,1.2.6h.026Z" fill="#d9b5a5" style="mix-blend-mode: multiply;isolation: isolate"/>
            <g id="Group_275" data-name="Group 275">
              <path id="Path_336" data-name="Path 336" d="M1251.226,1076.3c0,5.779,4.076,8.1,9.1,5.2s9.1-9.949,9.1-15.726-4.073-8.1-9.1-5.2S1251.226,1070.52,1251.226,1076.3Z" fill="#fcfbfa"/>
            </g>
            <g id="Group_276" data-name="Group 276">
              <ellipse id="Ellipse_6" data-name="Ellipse 6" cx="12.549" cy="7.26" rx="12.549" ry="7.26" transform="translate(1247.934 1078.225) rotate(-59.69)" fill="#ebe7e3"/>
            </g>
            <g id="Group_277" data-name="Group 277">
              <path id="Path_337" data-name="Path 337" d="M1252.648,1075.472c0,.1,0,.194,0,.289.005.129.013.255.021.381a8.369,8.369,0,0,0,.131,1.008c.021.1.039.2.068.3a5.582,5.582,0,0,0,.325.974c.031.076.065.152.1.226a4.238,4.238,0,0,0,.453.737c1.341,1.785,3.785,2.081,6.574.467a16.944,16.944,0,0,0,7.674-13.264c0-2.6-.972-4.365-2.522-5.081a3.644,3.644,0,0,0-.812-.268c-.068-.016-.141-.029-.215-.039a4.27,4.27,0,0,0-.864-.05c-.092.005-.178.01-.27.018a5.744,5.744,0,0,0-.836.142c-.1.026-.207.05-.306.081a7.776,7.776,0,0,0-.794.281c-.11.05-.225.1-.341.155-.236.11-.471.236-.715.375l-.008,0c-.12.073-.244.147-.364.228-.223.134-.443.289-.663.446-.128.094-.252.192-.377.289-.2.16-.4.328-.592.5-.128.113-.257.231-.383.352-.181.171-.359.346-.529.533-.128.131-.251.268-.375.4q-.244.276-.479.567c-.126.15-.244.3-.359.457-.149.194-.3.391-.435.59-.113.163-.225.325-.333.493-.136.207-.267.417-.393.632-.107.171-.2.346-.3.52-.123.223-.241.449-.356.674-.092.179-.178.357-.257.538-.115.244-.223.488-.325.735-.073.178-.141.354-.207.535-.1.265-.2.533-.28.8-.055.173-.107.346-.152.522-.084.291-.157.585-.22.874-.034.163-.068.331-.094.493-.058.315-.1.625-.134.934-.016.147-.029.3-.037.441Q1252.648,1075.13,1252.648,1075.472Z" fill="#f3f1ee"/>
            </g>
            <g id="Group_296" data-name="Group 296">
              <path id="Path_338" data-name="Path 338" d="M1252.648,1075.472c0,.1,0,.194,0,.289.005.129.013.255.021.381a8.369,8.369,0,0,0,.131,1.008c.021.1.039.2.068.3a5.582,5.582,0,0,0,.325.974c.031.076.065.152.1.226a4.238,4.238,0,0,0,.453.737c1.362.633,3.169.449,5.152-.7a16.944,16.944,0,0,0,7.674-13.264,6.431,6.431,0,0,0-1.1-3.918,3.644,3.644,0,0,0-.812-.268c-.068-.016-.141-.029-.215-.039a4.27,4.27,0,0,0-.864-.05c-.092.005-.178.01-.27.018a5.744,5.744,0,0,0-.836.142c-.1.026-.207.05-.306.081a7.776,7.776,0,0,0-.794.281c-.11.05-.225.1-.341.155-.236.11-.471.236-.715.375l-.008,0c-.12.073-.244.147-.364.228-.223.134-.443.289-.663.446-.128.094-.252.192-.377.289-.2.16-.4.328-.592.5-.128.113-.257.231-.383.352-.181.171-.359.346-.529.533-.128.131-.251.268-.375.4q-.244.276-.479.567c-.126.15-.244.3-.359.457-.149.194-.3.391-.435.59-.113.163-.225.325-.333.493-.136.207-.267.417-.393.632-.107.171-.2.346-.3.52-.123.223-.241.449-.356.674-.092.179-.178.357-.257.538-.115.244-.223.488-.325.735-.073.178-.141.354-.207.535-.1.265-.2.533-.28.8-.055.173-.107.346-.152.522-.084.291-.157.585-.22.874-.034.163-.068.331-.094.493-.058.315-.1.625-.134.934-.016.147-.029.3-.037.441Q1252.648,1075.13,1252.648,1075.472Z" fill="#493f41"/>
              <g id="Group_278" data-name="Group 278">
                <path id="Path_339" data-name="Path 339" d="M1262.216,1068.008a9.707,9.707,0,0,0,1.045-.583l3.078-1.955c.118-.076.22-.071.22.01a.351.351,0,0,1-.157.223l-3.177,2.346a10.152,10.152,0,0,1-2.273,1.286l-2.035.793v-.535Z" fill="#554d4e"/>
                <path id="Path_340" data-name="Path 340" d="M1252.842,1073.4l1.729-1.1a9.61,9.61,0,0,1,.891-.509c.052-.029.1-.052.152-.076l.28-.134,1.325-.638.487-.231.178-.084.3-.144.165-.079.115-.052.081-.039.058-.031.05-.021.042-.021.031-.013.031-.018.024-.01.029-.013.024-.01.021-.01.024-.013h.008l.034-.018v-.535h0l-.016.008-.018.005-.021.008-.026.013-.024.008-.029.01-.034.013-.037.013-.05.021-.06.026-.079.026-.113.045-.165.063-.293.115-.173.071-.487.186-.411.16a10,10,0,0,0-.914.422c-.144.081-.3.163-.44.252-.307.184-.613.386-.914.609l-1.674,1.233C1252.9,1073.066,1252.868,1073.233,1252.842,1073.4Z" fill="#554d4e"/>
              </g>
              <g id="Group_279" data-name="Group 279">
                <path id="Path_341" data-name="Path 341" d="M1262.177,1067.373c.343-.236.689-.5,1.029-.785l3.007-2.525c.113-.1.223-.118.236-.047a.365.365,0,0,1-.134.241l-3.054,2.9a12.8,12.8,0,0,1-2.242,1.722l-2.064,1.223-.079-.483Z" fill="#6b6164"/>
                <path id="Path_342" data-name="Path 342" d="M1252.672,1074.771l1.954-1.64q.424-.354.856-.661c.058-.042.115-.084.173-.121l.278-.192,1.323-.9.492-.331v0l.176-.118.291-.2.178-.118.107-.076.078-.052.063-.042.05-.034.037-.026.037-.024.026-.021.031-.018.026-.016.021-.013.029-.024.018-.013h0l.037-.024,0,0-.042-.239v-.005l-.042-.239-.016.01-.018.01-.029.016-.016.013-.029.013-.031.018-.031.021-.042.024-.047.029-.06.037-.079.047-.113.066-.17.1-.3.178-.175.105-.484.286-.424.249a9.767,9.767,0,0,0-.917.612c-.147.1-.293.215-.435.333-.3.241-.6.5-.891.777l-1.862,1.766C1252.693,1074.477,1252.679,1074.627,1252.672,1074.771Z" fill="#6b6164"/>
              </g>
              <g id="Group_280" data-name="Group 280">
                <path id="Path_343" data-name="Path 343" d="M1262.035,1066.811c.335-.3.665-.619.987-.961l2.839-3.018c.11-.116.223-.163.246-.1.021.047-.024.152-.1.249l-2.837,3.367a15.4,15.4,0,0,1-2.145,2.1l-2.027,1.611-.157-.412Z" fill="#554d4e"/>
                <path id="Path_344" data-name="Path 344" d="M1252.651,1075.761c.005.129.013.255.021.381l2.14-2.27c.267-.286.537-.559.82-.813.055-.047.11-.1.168-.15l.267-.239,1.276-1.134.482-.428.165-.147.3-.26.162-.142.107-.1.076-.068.06-.052.045-.042.042-.034.031-.029.029-.029.026-.021.021-.018.029-.026.021-.016.021-.018,0,0,.01-.008.029-.029v0l-.078-.194,0-.005v-.005h0l-.076-.2-.005,0-.013.01-.024.018-.018.013-.021.021-.029.018-.026.024-.034.026-.039.031-.05.037-.058.047-.076.063-.113.087-.168.134-.283.228-.181.144-.482.378-.409.328c-.3.239-.6.5-.891.777-.149.136-.291.278-.437.425-.283.286-.553.588-.817.9Z" fill="#554d4e"/>
              </g>
              <g id="Group_281" data-name="Group 281">
                <path id="Path_345" data-name="Path 345" d="M1261.8,1066.344c.314-.349.621-.722.914-1.108l2.59-3.422c.1-.131.212-.2.249-.15s-.005.142-.079.249l-2.53,3.732a17.3,17.3,0,0,1-1.983,2.425l-1.928,1.955-.236-.331Z" fill="#6b6164"/>
                <path id="Path_346" data-name="Path 346" d="M1252.8,1077.149c.021.1.039.2.068.3l2.25-2.966c.246-.328.5-.646.765-.945l.147-.168.251-.286,1.2-1.336.451-.5.162-.186.267-.3.155-.171.1-.113.071-.081.055-.058.042-.05.034-.042.031-.034.029-.029.024-.026.026-.029.016-.021.05-.05v0l.034-.039-.113-.155,0-.005v0h0v0l-.115-.16-.031.032-.021.024-.024.021-.024.024-.029.029-.031.034-.039.034-.045.05-.236.236-.157.16-.278.283-.162.165-.466.467-.388.394c-.283.286-.563.593-.836.916-.136.16-.27.325-.4.491-.257.328-.508.669-.744,1.018Z" fill="#6b6164"/>
              </g>
              <g id="Group_282" data-name="Group 282">
                <path id="Path_347" data-name="Path 347" d="M1258.766,1069.743l.147.115v0h0l.149.118.016-.021.016-.021.021-.021.021-.026.021-.029.029-.031.026-.039.031-.039.045-.053.052-.068.068-.087.1-.121.147-.181.251-.326.128-.16.451-.564.354-.449c.254-.32.5-.659.741-1.005.126-.181.246-.37.367-.559.23-.362.451-.735.652-1.107l2.067-3.826c-.068-.016-.141-.029-.215-.039l-2.161,3.553c-.212.352-.44.7-.673,1.026-.045.066-.092.134-.139.2l-.246.344-1.071,1.48-.419.585-.126.171-.244.341-.139.192-.092.126-.065.092-.047.068-.042.055-.031.047-.029.037-.024.031-.021.031-.024.029-.018.026-.021.029-.013.021-.008.008Z" fill="#554d4e"/>
                <path id="Path_348" data-name="Path 348" d="M1253.2,1078.427c.031.076.065.152.1.226l2.247-3.693c.207-.344.43-.685.668-1.016.044-.071.092-.136.141-.207l.23-.32,1.084-1.5,0,0,.4-.562.139-.194,0-.008.244-.331.139-.194.092-.126.065-.092.05-.068.042-.053.031-.05.026-.037.026-.031.024-.034.021-.026,0,0,.013-.024.021-.029.018-.029.008-.005.024-.034,0-.005-.149-.118h0v0l-.147-.115-.01.013-.008.008,0,.008-.01.013-.021.021-.042.055-.026.031-.029.039-.034.042-.042.05-.052.068-.071.087-.089.118-.149.184-.257.325-.152.186-.43.543-.351.444c-.262.331-.516.674-.757,1.034-.12.173-.233.349-.348.53-.23.362-.448.735-.65,1.108Z" fill="#554d4e"/>
              </g>
              <g id="Group_283" data-name="Group 283">
                <path id="Path_349" data-name="Path 349" d="M1258.735,1069.79h0l.175.071h0l.178.071.013-.026.013-.021.037-.055.021-.031.024-.034.024-.039.031-.047.034-.058.047-.071.063-.094.081-.134.131-.2.22-.352.12-.181.385-.609.32-.5c.225-.352.437-.714.644-1.087.107-.2.215-.4.314-.606.189-.381.367-.761.521-1.144l1.448-3.485c-.092.005-.178.01-.27.018l-1.553,3.265c-.178.367-.364.735-.571,1.089a2.35,2.35,0,0,1-.113.213l-.217.373-.917,1.585-.369.638-.107.186-.207.362-.123.207-.076.139-.06.1-.042.076-.034.06-.029.047-.024.042-.024.037-.018.037-.021.029-.016.031-.018.031-.021.037-.008.008,0,.008Z" fill="#6b6164"/>
                <path id="Path_350" data-name="Path 350" d="M1256.755,1073.981c-.246.422-.474.861-.686,1.3l-1.862,3.9c-.071.15-.178.26-.23.239s-.039-.11.01-.228l1.705-4.113a18.537,18.537,0,0,1,1.482-2.84l1.564-2.451.356.139Z" fill="#6b6164"/>
              </g>
              <g id="Group_284" data-name="Group 284">
                <path id="Path_351" data-name="Path 351" d="M1258.714,1069.843l.2.018h0l.2.018.01-.021.013-.026.016-.026.013-.031.018-.034.016-.037.026-.045.024-.047.031-.063.037-.073.05-.1.071-.139.107-.213.186-.373.1-.186.327-.653.265-.522q.283-.559.526-1.139c.086-.2.17-.409.241-.619.152-.386.283-.777.393-1.16l.9-3.052c-.1.026-.207.05-.306.081l-1.027,2.887c-.131.373-.278.748-.44,1.118-.031.073-.063.147-.1.22l-.17.383h0l-.744,1.664-.3.656-.086.2-.17.378-.1.218-.065.144-.045.1-.037.076-.026.063-.021.05-.021.045-.018.039-.013.034-.018.031-.01.029-.021.042-.008.018Z" fill="#554d4e"/>
                <path id="Path_352" data-name="Path 352" d="M1257.221,1074.1c-.2.441-.38.89-.54,1.339l-1.407,3.968c-.055.152-.152.278-.212.273s-.058-.092-.024-.21l1.208-4.118a17.673,17.673,0,0,1,1.16-2.918l1.307-2.59.4.034Z" fill="#554d4e"/>
              </g>
              <g id="Group_285" data-name="Group 285">
                <path id="Path_353" data-name="Path 353" d="M1258.7,1069.892v0l.207-.031.008,0h0l.22-.034.005-.021.01-.029.01-.026.016-.032.01-.031.016-.039.016-.045.021-.053.024-.063.026-.076.042-.1.052-.142.084-.22.147-.383.076-.194.254-.672.2-.527c.141-.378.275-.766.39-1.152.063-.2.118-.409.17-.617.1-.383.176-.766.238-1.139l.435-2.585c-.11.05-.225.1-.341.155l-.573,2.462c-.084.37-.183.745-.3,1.118-.021.073-.047.147-.071.22l-.126.383-.553,1.688-.215.656-.066.2-.126.383-.073.22-.047.142-.031.1-.026.079-.021.06-.016.052-.016.045-.013.037-.01.039-.01.031-.01.031-.008.021-.013.037Z" fill="#6b6164"/>
                <path id="Path_354" data-name="Path 354" d="M1257.737,1074.089c-.144.446-.27.895-.375,1.336l-.909,3.913c-.034.15-.12.286-.186.3s-.076-.066-.057-.181l.673-4a15.534,15.534,0,0,1,.8-2.908l1.008-2.653.44-.068Z" fill="#6b6164"/>
              </g>
              <g id="Group_286" data-name="Group 286">
                <path id="Path_355" data-name="Path 355" d="M1258.688,1069.948l.217-.084h.008v0h0l0,0,.228-.084.005-.021.008-.029.013-.055.008-.034.01-.039.01-.045.013-.05.018-.058.021-.081.024-.1.039-.139.055-.218.1-.383.052-.2.17-.656.136-.53c.1-.378.181-.759.246-1.134.034-.2.066-.4.092-.593.044-.367.076-.732.086-1.084l.065-2.118c-.12.073-.244.147-.364.228l-.212,2.042c-.039.346-.092.706-.16,1.065-.01.076-.029.15-.042.226l-.076.375-.338,1.646-.134.648-.037.2-.076.375-.047.218-.026.139-.021.1-.016.079-.013.058-.01.052-.01.042-.008.039-.005.034-.008.031,0,.024-.008.034-.005.029v0Z" fill="#554d4e"/>
                <path id="Path_356" data-name="Path 356" d="M1258.292,1073.95c-.089.436-.157.871-.2,1.294l-.385,3.737c-.013.144-.084.289-.155.315-.055.021-.092-.042-.086-.15l.118-3.756a12.918,12.918,0,0,1,.422-2.811l.681-2.632.461-.173Z" fill="#554d4e"/>
              </g>
              <g id="Group_287" data-name="Group 287">
                <path id="Path_357" data-name="Path 357" d="M1258.683,1070l.223-.134h.008v0h0l0,0,.23-.134,0-.021.005-.024,0-.024,0-.031.005-.031,0-.039.008-.042.005-.047.008-.06.01-.073.013-.1.018-.136.029-.213.047-.362.024-.192.084-.627.065-.512q.075-.551.094-1.086c.005-.186.008-.375.005-.559a8.5,8.5,0,0,0-.071-.984l-.22-1.677c-.128.094-.252.192-.377.289l.073,1.651c.013.328.01.669-.008,1.016l-.01.2-.024.352-.115,1.567-.042.6-.013.2-.029.357-.013.2-.01.131-.008.1,0,.071,0,.058-.005.05,0,.042,0,.034-.005.034v.026l0,.031v.026l0,.031Z" fill="#6b6164"/>
                <path id="Path_358" data-name="Path 358" d="M1258.863,1073.688a10.435,10.435,0,0,0-.018,1.21l.152,3.451a.391.391,0,0,1-.12.32c-.055.034-.1-.013-.115-.11l-.44-3.4a10.3,10.3,0,0,1,.026-2.627l.335-2.535.466-.27Z" fill="#6b6164"/>
              </g>
              <g id="Group_288" data-name="Group 288">
                <path id="Path_359" data-name="Path 359" d="M1257.939,1064.024l.293,1.3a7.6,7.6,0,0,1,.144.911c.008.06.016.121.018.178l.024.32.118,1.438.047.554.013.181.024.326.018.184.008.123.005.087.008.068,0,.052.005.045,0,.037,0,.034v.024l.005.031,0,.029v.024l0,.029.005.042.217-.176h.008v0h0v0h0v-.005h.005l.223-.173v-.157l-.005-.037v-.262l0-.131v-.192l0-.339-.005-.178-.005-.59-.005-.47a8.173,8.173,0,0,0-.066-1c-.021-.163-.044-.328-.076-.485a6.161,6.161,0,0,0-.225-.884l-.432-1.283C1258.193,1063.785,1258.064,1063.9,1257.939,1064.024Z" fill="#554d4e"/>
                <path id="Path_360" data-name="Path 360" d="M1259.437,1073.307a8.278,8.278,0,0,0,.162,1.092l.686,3.06a.36.36,0,0,1-.081.318c-.055.042-.113.013-.141-.071l-.985-2.942a7.811,7.811,0,0,1-.369-2.365l-.024-2.359.461-.357Z" fill="#554d4e"/>
              </g>
              <g id="Group_289" data-name="Group 289">
                <path id="Path_361" data-name="Path 361" d="M1257.035,1064.961l.464,1a5.32,5.32,0,0,1,.291.782,1.529,1.529,0,0,1,.045.155l.078.278.341,1.265.131.483.042.16.081.286.039.16.031.108.021.081.016.055.013.047.01.039.008.031.005.029.01.026.008.026,0,.024.008.021.008.021v0l.01.034v.005l.207-.21.008-.008h0v0l.008-.008.212-.207v-.005l-.005-.013,0-.024,0-.021-.005-.029-.005-.024-.005-.031-.005-.034-.008-.039-.01-.052-.01-.058-.013-.084-.021-.113-.031-.173-.055-.307-.031-.16-.094-.522-.076-.425a6.2,6.2,0,0,0-.223-.882,4.364,4.364,0,0,0-.155-.415,4.833,4.833,0,0,0-.375-.735l-.592-.942C1257.281,1064.688,1257.158,1064.825,1257.035,1064.961Z" fill="#6b6164"/>
                <path id="Path_362" data-name="Path 362" d="M1259.995,1072.824a6.012,6.012,0,0,0,.34.937l1.194,2.577a.292.292,0,0,1-.036.3.1.1,0,0,1-.162-.029l-1.5-2.394a5.78,5.78,0,0,1-.752-2.031l-.383-2.11.44-.436Z" fill="#6b6164"/>
              </g>
              <g id="Group_290" data-name="Group 290">
                <path id="Path_363" data-name="Path 363" d="M1256.2,1065.985l.608.732a4.262,4.262,0,0,1,.43.619c.026.045.052.089.076.134l.123.231.558,1.052.212.4.071.134.128.236.068.136.05.089.034.066.024.047.021.037.018.037.013.024.016.029.01.018.01.018.01.021.01.018.01.016v.005l.016.032.191-.242.008-.008h0v-.005h0v-.005h.005l.194-.239v0l-.008-.018-.005-.016-.008-.021-.01-.018-.005-.021-.01-.029-.016-.029-.013-.034-.013-.042-.026-.055-.026-.066-.039-.1-.058-.152-.1-.257-.06-.142-.178-.444-.144-.357a4.808,4.808,0,0,0-.377-.743c-.073-.115-.144-.223-.225-.328a3.8,3.8,0,0,0-.511-.567l-.723-.648C1256.43,1065.678,1256.312,1065.827,1256.2,1065.985Z" fill="#554d4e"/>
                <path id="Path_364" data-name="Path 364" d="M1260.521,1072.249a4.547,4.547,0,0,0,.505.758l1.671,2.01a.241.241,0,0,1,.005.283.117.117,0,0,1-.178.016l-1.972-1.771a4.432,4.432,0,0,1-1.11-1.635l-.728-1.8.4-.5Z" fill="#554d4e"/>
              </g>
              <g id="Group_291" data-name="Group 291">
                <path id="Path_365" data-name="Path 365" d="M1255.43,1067.069l.746.5a3.709,3.709,0,0,1,.558.454c.034.031.068.066.1.1l.165.176.754.8.288.307.1.1.173.186.1.1.068.068.045.047.034.039.029.029.021.024.021.024.016.018.018.016.013.016.016.013.013.013.013.016v0l.021.021.17-.265.008-.008v0h0v0l0-.005.005-.005.17-.262-.005,0-.005-.011-.01-.016-.01-.013-.01-.016-.013-.018-.016-.021-.016-.021-.021-.029-.026-.034-.029-.042-.042-.055-.058-.076-.086-.118-.149-.207-.086-.113-.257-.352-.21-.286a3.663,3.663,0,0,0-.511-.572,3.365,3.365,0,0,0-.3-.247,3.575,3.575,0,0,0-.629-.373l-.844-.388C1255.65,1066.738,1255.537,1066.9,1255.43,1067.069Z" fill="#6b6164"/>
                <path id="Path_366" data-name="Path 366" d="M1261,1071.6a3.859,3.859,0,0,0,.655.554l2.1,1.388a.186.186,0,0,1,.05.252.148.148,0,0,1-.189.058l-2.381-1.1a3.767,3.767,0,0,1-1.441-1.192l-1.05-1.43.356-.551Z" fill="#6b6164"/>
              </g>
              <g id="Group_292" data-name="Group 292">
                <path id="Path_367" data-name="Path 367" d="M1254.733,1068.221l.9.265a3.251,3.251,0,0,1,.657.265c.045.021.087.045.128.068l.2.115.932.53.354.2.123.068.212.118.12.071.081.045.055.031.042.024.034.021.029.018.024.01.024.013.018.01.018.01.016.01.018.01.013.008.031.018.147-.291h0v-.005h0v-.005l.005-.005.141-.278-.013-.013-.01-.005-.013-.01-.018-.013-.013-.01-.021-.018-.021-.013-.029-.021-.031-.026-.037-.029-.052-.039-.073-.055-.113-.084-.194-.147-.107-.084-.327-.247-.27-.2a3.385,3.385,0,0,0-.636-.383,2.761,2.761,0,0,0-.351-.147,3.886,3.886,0,0,0-.733-.178l-.964-.139C1254.929,1067.872,1254.833,1068.047,1254.733,1068.221Z" fill="#554d4e"/>
                <path id="Path_368" data-name="Path 368" d="M1261.412,1070.9a3.66,3.66,0,0,0,.786.333l2.457.722a.149.149,0,0,1,.089.215.192.192,0,0,1-.194.1l-2.716-.391a3.706,3.706,0,0,1-1.723-.709l-1.344-1.021.3-.583Z" fill="#554d4e"/>
              </g>
              <g id="Group_293" data-name="Group 293">
                <path id="Path_369" data-name="Path 369" d="M1254.12,1069.433l1.069.013a4.465,4.465,0,0,1,.76.073l.134.029.233.052,1.084.241.409.094.141.031.244.055.139.031.092.021.065.016.047.01.042.01.037.005.026.008.026,0,.021.008.039.005.018.008.021.005.031.005.115-.3h0v-.005h0v-.005l.005-.005.11-.286h0l-.013-.008-.016,0-.016-.008-.018-.005-.042-.016-.029-.01-.029-.01-.037-.013-.047-.018-.063-.024-.084-.032-.131-.045-.233-.087-.131-.045-.39-.144-.314-.115a3.915,3.915,0,0,0-.741-.184,2.9,2.9,0,0,0-.406-.045,4.65,4.65,0,0,0-.807.024l-1.108.121C1254.285,1069.074,1254.2,1069.252,1254.12,1069.433Z" fill="#6b6164"/>
                <path id="Path_370" data-name="Path 370" d="M1261.747,1070.173a4.49,4.49,0,0,0,.9.1l2.742.032a.124.124,0,0,1,.128.171.237.237,0,0,1-.194.136l-2.973.331a4.312,4.312,0,0,1-1.954-.2l-1.6-.58.236-.6Z" fill="#6b6164"/>
              </g>
              <g id="Group_294" data-name="Group 294">
                <path id="Path_371" data-name="Path 371" d="M1253.588,1070.7l1.27-.281a6.061,6.061,0,0,1,.809-.123l.165-.01.254-.01,1.2-.052.448-.016.16-.008.267-.013.155-.008.1,0,.073,0h.055l.047-.005h.034l.034,0h.05l.024,0h.044l.018-.005h.039v0l.079-.294v-.005l0-.005.078-.291h-.016l-.016-.005h-.042l-.021,0h-.029l-.026,0-.037,0h-.042l-.055-.005-.068-.005-.1-.008-.144-.01-.264-.018-.147-.01-.437-.026-.354-.026a5.166,5.166,0,0,0-.825.021,3.489,3.489,0,0,0-.427.06,6.648,6.648,0,0,0-.878.226l-1.276.423C1253.722,1070.347,1253.654,1070.522,1253.588,1070.7Z" fill="#554d4e"/>
                <path id="Path_372" data-name="Path 372" d="M1262,1069.433a5.918,5.918,0,0,0,.974-.134l2.947-.656c.113-.024.189.031.162.121a.278.278,0,0,1-.186.171l-3.138,1.042a5.645,5.645,0,0,1-2.124.3l-1.8-.121.16-.6Z" fill="#554d4e"/>
              </g>
              <g id="Group_295" data-name="Group 295">
                <path id="Path_373" data-name="Path 373" d="M1253.156,1072.029l1.5-.648a6.752,6.752,0,0,1,.872-.32l.149-.042.27-.073,1.294-.352.466-.129.178-.047.28-.076.168-.045.1-.029.079-.024.055-.013.05-.016.039-.01.031-.005.031-.01.024-.008.024,0,.021-.008.021-.005.013-.005.016,0,.037-.01.042-.283v-.005l.042-.286-.018,0-.016,0-.021.005-.021,0-.031.005-.024.005-.031.005-.039.005-.045.008-.06.01-.073.013-.107.018-.16.031-.28.047-.16.029-.471.079-.388.071a6.661,6.661,0,0,0-.888.223c-.149.047-.3.1-.456.163a9.351,9.351,0,0,0-.893.42l-1.467.787C1253.253,1071.68,1253.2,1071.853,1253.156,1072.029Z" fill="#6b6164"/>
                <path id="Path_374" data-name="Path 374" d="M1262.158,1068.7a7.358,7.358,0,0,0,1.024-.362l3.057-1.325c.118-.05.207-.018.2.068a.332.332,0,0,1-.176.2l-3.206,1.719a7.611,7.611,0,0,1-2.234.806l-1.946.341.084-.577Z" fill="#6b6164"/>
              </g>
              <path id="Path_375" data-name="Path 375" d="M1257.054,1073.667a1.944,1.944,0,0,1-1.16-2.055,6.644,6.644,0,0,1,3.01-5.2c1.084-.627,2.03-.514,2.562.168v0l.021.034a1.541,1.541,0,0,1,.16.252,5.631,5.631,0,0,1,.71,3.59,6.512,6.512,0,0,0-.974,1.756,7.724,7.724,0,0,1-3.5,1.506,1.887,1.887,0,0,1-.594.008h-.029l-.031-.008-.016,0A.668.668,0,0,1,1257.054,1073.667Z" fill="#ebe7e3"/>
              <path id="Path_376" data-name="Path 376" d="M1259.958,1071.672c0,.764.537,1.071,1.2.688a2.652,2.652,0,0,0,1.2-2.079c0-.764-.537-1.073-1.2-.687A2.651,2.651,0,0,0,1259.958,1071.672Z" fill="#ebe7e3"/>
            </g>
            <path id="Path_377" data-name="Path 377" d="M1259,1069.368c.28.811.972,1.307,1.543,1.108a1.389,1.389,0,0,0,.526-1.827c-.28-.811-.972-1.307-1.543-1.108S1258.725,1068.557,1259,1069.368Z" fill="#fcfbfa"/>
          </g>
          <path id="Path_378" data-name="Path 378" d="M1335.6,1019.744l15.43-15.556,45.277-107.7-3.684-4.375-7.178-6.182-88.61,86.37-27.958,11.081Z" fill="#ded8d1"/>
          <path id="Path_379" data-name="Path 379" d="M1392.638,892.1l-45.47,108.7-15.427,15.564L1268.881,980l4.715-2.572.393-.21,35.333-19.395.367-.21.262-.263,12.834-12.728.524-.525,31.089-30.811.5-.472,27.083-26.875Z" fill="#fcfbfa"/>
          <g id="Group_298" data-name="Group 298">
            <path id="Path_380" data-name="Path 380" d="M1319.2,960.917,1288.236,982.2l-.157-.026-14.589-4.436.1-.315.078-.315.314.1,14.144,4.3,29.7-20.419-8.512-3.281.367-.21.262-.263Z" fill="#f3f1ee"/>
          </g>
          <g id="Group_299" data-name="Group 299">
            <path id="Path_381" data-name="Path 381" d="M1361.155,916.223l-.262.315-28.654,30.942-9.455-2.861.524-.525,8.722,2.677,28.1-30.365-5.736-3.123.5-.472Z" fill="#f3f1ee"/>
          </g>
          <path id="Path_382" data-name="Path 382" d="M1387.646,889.791l-56.582,100.381-28.954,21.272,29.63,4.928,15.43-15.556,45.456-108.706Z" fill="#f3f1ee"/>
          <path id="Path_383" data-name="Path 383" d="M1057.726,877.662v.008a10.938,10.938,0,0,0,.147,1.16c1.173,6.59,47.748,57.46,59.084,65.932,12.449,9.314,83.228,50.736,102.259,62.36.016,0,.024.008.039.024q5.033,3.067,10.2,6.17l.039.021c54.558,32.711,117.524,66.16,117.524,66.16a136.58,136.58,0,0,0,35.307,14.455c21.876,5.346,46.093,5.026,50.451.717a14.172,14.172,0,0,0-1.336-7.307v-.008c-2.213-5.283-6.671-11.22-11.137-16.44a.753.753,0,0,1-.092-.11c-.862-1-1.716-1.976-2.556-2.911-.068-.076-.107-.115-.107-.115-1.3-1.454-2.569-2.824-3.735-4.063-1.048-1.121-2.019-2.139-2.858-3.026-7.074-7.469-28.28-25.184-28.28-25.184L1264.5,968.389l-165.4-93.785a9.408,9.408,0,0,0-2.2-.793c-.8-.218-1.616-.4-2.276-.622a22.171,22.171,0,0,0-5.38-1.16l-24.655-3.766c-2.09-.194-5.134,1.835-6.352,5.33a9.546,9.546,0,0,0-.521,2.48A10.666,10.666,0,0,0,1057.726,877.662Z" fill="#ebe7e3"/>
          <path id="Path_384" data-name="Path 384" d="M1058.248,873.594c8.044,7.133,42.73,42.5,56.148,52.237,15.011,10.894,241.68,140.794,241.68,140.794s40.239,26.7,74.092,23.5c2.129-.2-3.1-12.044-16.352-26.407-1.048-1.121-2.019-2.139-2.858-3.026-.3-.325-.636-.669-1-1.018-2.941-2.981-7.514-7.112-12.072-11.12-7.619-6.7-15.212-13.046-15.212-13.046L1099.107,874.6a9.408,9.408,0,0,0-2.2-.793c-.8-.218-1.616-.4-2.276-.622a22.171,22.171,0,0,0-5.38-1.16l-24.655-3.766C1062.509,868.069,1059.465,870.1,1058.248,873.594Z" fill="#f3f1ee"/>
          <path id="Path_385" data-name="Path 385" d="M1432.789,1094.678c-4.374,4.3-28.576,4.619-50.472-.735a135.953,135.953,0,0,1-35.307-14.461s-19.854-10.76-48.22-26.454c-2.357-1.312-4.793-2.677-7.281-4.068-.341-.184-.707-.394-1.074-.6-19.382-10.76-41.881-23.41-64.38-36.322-44.108-25.3-88.241-51.7-109.09-67.265-4.322-3.254-13.751-12.624-23.887-23.384-2.881-3.071-5.815-6.246-8.7-9.422-.681-.735-1.336-1.5-2.017-2.231-.76-.866-1.545-1.732-2.3-2.6q-2.121-2.4-4.165-4.724c-1.781-2.021-3.484-3.989-5.055-5.852-.576-.682-1.126-1.339-1.676-1.968-.681-.84-1.336-1.627-1.991-2.415-1.6-1.968-3.064-3.805-4.3-5.433-.236-.315-.471-.6-.681-.892a33,33,0,0,1-4.165-6.535,2.657,2.657,0,0,1-.157-.5,8.713,8.713,0,0,1-.157-1.155q-.039-.827,0-1.575c5.474,7.27,46.7,47.03,56.68,55.848,7.2,6.377,119.436,72.671,190.731,114.347,27.449,16.062,48.822,28.449,55.842,32.386,25.249,14.12,71.085,19.053,71.583,14.093.5-4.934-8.46-17.138-11.944-21.468,4.374,5.118,8.67,10.918,10.844,16.062a.2.2,0,0,0,.026.079.158.158,0,0,1,.026.1l.078.157a14.693,14.693,0,0,1,.524,1.5,2.308,2.308,0,0,1,.131.394,10.342,10.342,0,0,1,.393,1.68,1.455,1.455,0,0,1,.078.446A9.471,9.471,0,0,1,1432.789,1094.678Z" fill="#ded8d1"/>
          <path id="Path_386" data-name="Path 386" d="M1058.546,872.833s14.338,14.372,20.448,17.907,37.84,21.087,37.84,21.087,213.749,126.6,234.713,136.745,41.543,11.931,49.7,10.582-18.565-23.649-18.565-23.649L1098.2,874.741l-7.507-2.076s-25.215-4.152-26.936-3.947S1059.678,870.725,1058.546,872.833Z" fill="#fcfbfa"/>
          <path id="Path_387" data-name="Path 387" d="M1100.59,877.507l34.359,19.88c3.177-1.409,3.3-.016,3.3-.016l2.074-2.84-4.075-48.07-9.73-7.718Z" fill="#de4037"/>
          <path id="Path_388" data-name="Path 388" d="M1138.889,891.973l-3.929,5.407-35.176-20.339,20.587-30.785.366-.551,5.788-8.635,9.717,7.716Z" fill="#ff8e8c"/>
          <g id="Group_300" data-name="Group 300" style="mix-blend-mode: multiply;isolation: isolate">
            <path id="Path_389" data-name="Path 389" d="M1125.819,850.349l-.131.209-12.258,23.935-7.753-4.567.314-.551,7.177,4.225,11.865-23.1-4.662-4.251.366-.551Z" fill="#ffa7c4"/>
          </g>
          <path id="Path_390" data-name="Path 390" d="M1134.953,897.386l3.946-5.411-2.656-47.2-9.728-7.715-2.685,4.013,6.661,8.86-1.31,33.134-6.82,7.034Z" fill="#ffa4a6"/>
          <path id="Path_391" data-name="Path 391" d="M1432.789,1094.678c-4.374,4.3-28.576,4.619-50.472-.735a135.953,135.953,0,0,1-35.307-14.461s-19.854-10.76-48.22-26.454c-2.357-1.312-4.793-2.677-7.281-4.068-.341-.184-.707-.394-1.074-.6-19.382-10.76-41.881-23.41-64.38-36.322-44.108-25.3-88.241-51.7-109.09-67.265-4.322-3.254-13.751-12.624-23.887-23.384-2.881-3.071-5.815-6.246-8.7-9.422-.681-.735-1.336-1.5-2.017-2.231-.76-.866-1.545-1.732-2.3-2.6q-2.121-2.4-4.165-4.724c-1.781-2.021-3.484-3.989-5.055-5.852-.576-.682-1.126-1.339-1.676-1.968-.681-.84-1.336-1.627-1.991-2.415-1.6-1.968-3.064-3.805-4.3-5.433-.236-.315-.471-.6-.681-.892a33,33,0,0,1-4.165-6.535,2.657,2.657,0,0,1-.157-.5,8.713,8.713,0,0,1-.157-1.155c4.453,8.372,48.508,52.961,57.177,59.969,6.469,5.249,117.131,71.569,188.059,112.537,23.94,13.8,43.348,24.722,52.725,29.42,37.167,18.686,76.376,15.9,76.979,13.857a4.671,4.671,0,0,0,.052-1.732A9.471,9.471,0,0,1,1432.789,1094.678Z" fill="#cdc6bc"/>
          <path id="Path_392" data-name="Path 392" d="M1333.967,1007.835c-.76-.262-9.482-4.672-9.744-4.672,0,0-12.494-8.031-21.739,1.312-7.36,7.48-.131,19.526,2.724,32.989a17.2,17.2,0,0,1-.079,8.818,10.453,10.453,0,0,1-6.339,6.745c-.1.026-.183.052-.183.052s-2.724-1.575-7.1-4.12c-.341-.184-.707-.394-1.074-.6-3.274-1.916-7.36-4.252-11.839-6.85-19.225-11.1-45.784-26.428-49.11-28.16a.026.026,0,0,0-.026-.026,18.149,18.149,0,0,0-3.4-1.286c-44.108-25.3-88.241-51.7-109.09-67.265-4.322-3.254-13.751-12.624-23.887-23.384-2.881-3.071-5.815-6.246-8.7-9.422-.681-.735-1.336-1.5-2.017-2.231-.76-.866-1.545-1.732-2.3-2.6q-2.121-2.4-4.165-4.724c-1.781-2.021-3.484-3.989-5.055-5.852-.576-.682-1.126-1.339-1.676-1.968-.681-.84-1.336-1.627-1.991-2.415-1.6-1.968-3.064-3.805-4.3-5.433-.236-.315-.471-.6-.681-.892a33,33,0,0,1-4.165-6.535,2.657,2.657,0,0,1-.157-.5,8.713,8.713,0,0,1-.157-1.155q-.039-.827,0-1.575a10.237,10.237,0,0,1,.524-2.493c1.231-3.491,4.269-5.538,6.365-5.328l24.385,3.727.262.026a22.069,22.069,0,0,1,5.369,1.181c.681.21,1.493.394,2.279.6a8.349,8.349,0,0,1,2.2.814Z" fill="#fecb4c" style="mix-blend-mode: multiply;isolation: isolate"/>
          <path id="Path_393" data-name="Path 393" d="M1295.2,1043.16a21.493,21.493,0,0,1-4.767,5.2c-3.274-1.916-7.36-4.252-11.839-6.85-.079-.42-.131-.682-.131-.682Z" fill="#d9b5a5" style="mix-blend-mode: multiply;isolation: isolate"/>
          <path id="Path_394" data-name="Path 394" d="M1110.1,913.564s-4.662,4.829-8.565,5.905c-1.7.472-5.107,1.234-8.46,1.916-5.788-6.167-11.786-12.807-17.182-18.975l6.967-.446Z" fill="#d9b5a5" style="mix-blend-mode: multiply;isolation: isolate"/>
          <path id="Path_395" data-name="Path 395" d="M1295.2,1043.162l-26.89,8.926-197.856,30.777-15.352-8.722,133.2-42.92,40.18-24.427,62.86,32.994Z" fill="#ded8d1"/>
          <g id="Group_302" data-name="Group 302">
            <path id="Path_396" data-name="Path 396" d="M1111.543,911.438c-.3.4-1.435,2.131-1.435,2.131l-4.73,1.155L1021.2,912.99l-13.657-5.443c-1.166-.777,0-1.685,0-1.685l61.119-19.416,44.644,23.436A11.146,11.146,0,0,0,1111.543,911.438Z" fill="#de4037"/>
            <path id="Path_397" data-name="Path 397" d="M1113.3,909.9l-9.35,2.283-19.565-.209-63.176-.656-13.672-5.433,16.344-5.642.865-.315,11.5-3.963,26.3-9.081.681-.262,5.448-1.864,10.791,6.063Z" fill="#ff8e8c"/>
            <path id="Path_398" data-name="Path 398" d="M1097.249,900.846l-7.573,3-65.589,2.953-10.638-2.976-5.908,2.04L1021.2,911.3l82.755.861,9.353-2.283Z" fill="#ffa4a6"/>
            <g id="Group_301" data-name="Group 301" style="mix-blend-mode: multiply;isolation: isolate">
              <path id="Path_399" data-name="Path 399" d="M1070.056,892.235l-38.79,11.285-.1-.053-7.281-3.228.865-.315,6.574,2.913,37.4-10.892-6.181-5.065.681-.262Z" fill="#ffa7c4"/>
            </g>
          </g>
          <path id="Path_400" data-name="Path 400" d="M1136.19,903.145c-1.179-.394-20.063-6.955-24.516-7.3-4.584-.315-15.558-1.785-15.558-1.785l-16.658-3.254-.472-.079-11.813,1.443-30.933,3.779,26.637-9.212c-2.933-3.832-4.767-6.666-5-7.926a8.713,8.713,0,0,1-.157-1.155q-.039-.827,0-1.575a10.237,10.237,0,0,1,.524-2.493c1.231-3.491,4.269-5.538,6.365-5.328l24.385,3.727,1.7.682Z" fill="#ffd69d" style="mix-blend-mode: multiply;isolation: isolate"/>
          <path id="Path_401" data-name="Path 401" d="M1066.833,785.732l17.334,11.5c7.187,5.16,13.869,20.2,13.869,20.2l22.617,63.024,16.695,22.077-1.1.648-53.175-30.407-15.3-2.955,5.341-12.122-5.341-29.341-2.038-41.965Z" fill="#ffdd8a"/>
          <path id="Path_402" data-name="Path 402" d="M1136.242,903.179l-29.911-13.28L1077.6,872.578l-10.919-2.1,5.34-12.125-3.536-19.447-.157-.814-1.647-9.081-.655-29.026v-.761l-.291-12.834,17.342,11.5c7.177,5.144,13.853,20.182,13.853,20.182l22.63,63.039Z" fill="#f5a938"/>
          <path id="Path_403" data-name="Path 403" d="M1136.242,903.171l-29.911-13.28-4.793-13.91-15.9-57-2.567-21.1c7.177,5.144,13.856,20.182,13.856,20.182l22.63,63.039Z" fill="#f5b53d"/>
          <path id="Path_404" data-name="Path 404" d="M1291.327,1039.782l-26.873,8.923L1066.6,1079.49l-11.5-5.354,61.342-21.31.812-.289,50-17.4.76-.263,20.273-7.033,2.148-1.312.629-.367L1220.949,1008l.6-.368,6.915-4.2Z" fill="#fcfbfa"/>
          <path id="Path_405" data-name="Path 405" d="M1271.244,1028.168l-23.894,11.711-186.995,36.713,6.232,2.9,197.856-30.777,26.89-8.926Z" fill="#f3f1ee"/>
          <path id="Path_406" data-name="Path 406" d="M1375.4,1067.89l8.539,2.541a47.221,47.221,0,0,0,12.648,1.727c.521,0,1.042-.008,1.569-.024l5.087-.171a11.223,11.223,0,0,0,6.794-2.582l1.273-1.06a3.354,3.354,0,0,0,.877-4.044l-2.221-4.606c-2.941-2.981-4.822-5.07-9.382-9.078l-.278.257,5.558,7.236a2.392,2.392,0,0,1-.162,3.113,7.406,7.406,0,0,1-5.039,2.288l-.351.016c-.673.029-1.349.047-2.025.047a46.405,46.405,0,0,1-8.691-.827l-11.6-2.21Z" fill="#554d4e"/>
          <path id="Path_407" data-name="Path 407" d="M1400.61,1050.613l8.528,8.233,2.7,5.6a2.977,2.977,0,0,1-.781,3.58l-1.273,1.058a10.815,10.815,0,0,1-6.556,2.49l-5.089.168a46.833,46.833,0,0,1-14.1-1.685l-8.133-2.433,2.336-6.663,11.281,2.147a47.017,47.017,0,0,0,10.8.782l.348-.016a7.808,7.808,0,0,0,5.3-2.409h0a2.786,2.786,0,0,0,.194-3.619Z" fill="#573f3f"/>
          <g id="Group_303" data-name="Group 303">
            <path id="Path_408" data-name="Path 408" d="M1276,1009.422l-2.525-1.459a1.083,1.083,0,0,0-1.558.719l-1.331,3.7a1.665,1.665,0,0,0,.592,1.963l2.525,1.462a1.083,1.083,0,0,0,1.558-.719l1.331-3.7A1.665,1.665,0,0,0,1276,1009.422Z" fill="#5e7286"/>
            <path id="Path_409" data-name="Path 409" d="M1288.513,1016.661l-2.522-1.459a1.082,1.082,0,0,0-1.558.716l-1.333,3.7a1.666,1.666,0,0,0,.594,1.963l2.522,1.459a1.082,1.082,0,0,0,1.558-.716l1.333-3.7A1.666,1.666,0,0,0,1288.513,1016.661Z" fill="#5e7286"/>
            <path id="Path_410" data-name="Path 410" d="M1301.025,1023.9l-2.525-1.462a1.083,1.083,0,0,0-1.558.719l-1.331,3.7a1.665,1.665,0,0,0,.592,1.963l2.522,1.459a1.086,1.086,0,0,0,1.561-.719l1.331-3.7A1.669,1.669,0,0,0,1301.025,1023.9Z" fill="#5e7286"/>
          </g>
          <g id="Group_306" data-name="Group 306">
            <path id="Path_411" data-name="Path 411" d="M1274.2,1016.333a1.564,1.564,0,0,0,1.427-1.113l1.333-3.7a2.044,2.044,0,0,0-.765-2.433l-2.522-1.459a1.369,1.369,0,0,0-.692-.192,1.567,1.567,0,0,0-1.427,1.115l-1.333,3.7a2.051,2.051,0,0,0,.765,2.433l2.522,1.459A1.365,1.365,0,0,0,1274.2,1016.333Z" fill="#9c958d"/>
            <path id="Path_412" data-name="Path 412" d="M1276,1009.422l-2.525-1.459a1.083,1.083,0,0,0-1.558.719l-1.331,3.7a1.665,1.665,0,0,0,.592,1.963l2.525,1.462a1.083,1.083,0,0,0,1.558-.719l1.331-3.7A1.665,1.665,0,0,0,1276,1009.422Z" fill="#573f3f"/>
            <path id="Path_413" data-name="Path 413" d="M1286.714,1023.571a1.564,1.564,0,0,0,1.427-1.113l1.333-3.7a2.043,2.043,0,0,0-.767-2.43l-2.522-1.462a1.365,1.365,0,0,0-.692-.189,1.564,1.564,0,0,0-1.427,1.113l-1.333,3.7a2.048,2.048,0,0,0,.767,2.433l2.522,1.459A1.365,1.365,0,0,0,1286.714,1023.571Z" fill="#9c958d"/>
            <path id="Path_414" data-name="Path 414" d="M1288.513,1016.661l-2.522-1.459a1.082,1.082,0,0,0-1.558.716l-1.333,3.7a1.666,1.666,0,0,0,.594,1.963l2.522,1.459a1.082,1.082,0,0,0,1.558-.716l1.333-3.7A1.666,1.666,0,0,0,1288.513,1016.661Z" fill="#573f3f"/>
            <path id="Path_415" data-name="Path 415" d="M1299.223,1030.809a1.567,1.567,0,0,0,1.427-1.115l1.333-3.7a2.05,2.05,0,0,0-.765-2.433l-2.525-1.459a1.358,1.358,0,0,0-.691-.189,1.561,1.561,0,0,0-1.425,1.113l-1.333,3.7a2.046,2.046,0,0,0,.765,2.433l2.522,1.462A1.364,1.364,0,0,0,1299.223,1030.809Z" fill="#9c958d"/>
            <path id="Path_416" data-name="Path 416" d="M1301.025,1023.9l-2.525-1.462a1.083,1.083,0,0,0-1.558.719l-1.331,3.7a1.665,1.665,0,0,0,.592,1.963l2.522,1.459a1.086,1.086,0,0,0,1.561-.719l1.331-3.7A1.669,1.669,0,0,0,1301.025,1023.9Z" fill="#573f3f"/>
            <path id="Path_417" data-name="Path 417" d="M1311.735,1038.047a1.567,1.567,0,0,0,1.427-1.115l1.331-3.7a2.044,2.044,0,0,0-.765-2.433l-2.522-1.459a1.368,1.368,0,0,0-.692-.192,1.567,1.567,0,0,0-1.427,1.115l-1.333,3.7a2.051,2.051,0,0,0,.765,2.433l2.525,1.459A1.367,1.367,0,0,0,1311.735,1038.047Z" fill="#9c958d"/>
            <path id="Path_418" data-name="Path 418" d="M1313.534,1031.135l-2.522-1.459a1.086,1.086,0,0,0-1.561.719l-1.33,3.7a1.669,1.669,0,0,0,.594,1.966l2.522,1.459a1.083,1.083,0,0,0,1.558-.719l1.333-3.7A1.673,1.673,0,0,0,1313.534,1031.135Z" fill="#f3f1ee"/>
            <path id="Path_419" data-name="Path 419" d="M1324.244,1045.283a1.564,1.564,0,0,0,1.427-1.113l1.333-3.7a2.05,2.05,0,0,0-.765-2.433l-2.525-1.459a1.368,1.368,0,0,0-.692-.192,1.567,1.567,0,0,0-1.427,1.115l-1.33,3.7a2.047,2.047,0,0,0,.765,2.433l2.522,1.459A1.364,1.364,0,0,0,1324.244,1045.283Z" fill="#9c958d"/>
            <path id="Path_420" data-name="Path 420" d="M1326.044,1038.373l-2.522-1.459a1.083,1.083,0,0,0-1.558.719l-1.333,3.7a1.674,1.674,0,0,0,.595,1.966l2.522,1.459a1.086,1.086,0,0,0,1.561-.719l1.331-3.7A1.666,1.666,0,0,0,1326.044,1038.373Z" fill="#f3f1ee"/>
            <path id="Path_421" data-name="Path 421" d="M1363.223,1063.932a1.731,1.731,0,0,0,1.537-1.412l1.171-4.207a2.049,2.049,0,0,0-.867-2.454l-2.512-1.092a1.2,1.2,0,0,0-.487-.1,1.734,1.734,0,0,0-1.537,1.412l-1.168,4.207a2.044,2.044,0,0,0,.864,2.451l2.512,1.094A1.211,1.211,0,0,0,1363.223,1063.932Z" fill="#9c958d"/>
            <path id="Path_422" data-name="Path 422" d="M1364.91,1056.216l-2.512-1.092c-.592-.26-1.26.215-1.5,1.058l-1.171,4.207a1.684,1.684,0,0,0,.65,1.992l2.509,1.092c.592.26,1.262-.215,1.5-1.058l1.171-4.207A1.68,1.68,0,0,0,1364.91,1056.216Z" fill="#f3f1ee"/>
            <g id="Group_304" data-name="Group 304">
              <path id="Path_423" data-name="Path 423" d="M1339.944,1070.714a.272.272,0,0,1-.139-.039l-6.5-3.59c-.668-.388-1.5-5.178-.953-7.579a59.059,59.059,0,0,1,3.36-10.435,4.456,4.456,0,0,1,1.776-2.614.617.617,0,0,1,.537.029l5.673,3.115c.715.412.519,2.289-.026,3.845a61.849,61.849,0,0,0-3.345,10.369,21.221,21.221,0,0,0-.06,3.871c.079,2.247.063,2.834-.2,2.989A.238.238,0,0,1,1339.944,1070.714Zm.05-.381,0,0Zm-2.252-23.536a.287.287,0,0,0-.113.024,4.181,4.181,0,0,0-1.551,2.4,58.511,58.511,0,0,0-3.342,10.375c-.558,2.449.335,6.858.767,7.154l6.375,3.525a18.407,18.407,0,0,0,0-2.569,21.542,21.542,0,0,1,.071-3.968,61.758,61.758,0,0,1,3.366-10.432c.626-1.782.534-3.163.191-3.362l-5.668-3.115A.206.206,0,0,0,1337.741,1046.8Z" fill="#9c958d"/>
            </g>
            <g id="Group_305" data-name="Group 305">
              <path id="Path_424" data-name="Path 424" d="M1173.8,973.948a.289.289,0,0,1-.147-.045l-6.263-3.819c-.647-.409-1.357-5.317-.773-7.755a62.546,62.546,0,0,1,3.507-10.577,4.5,4.5,0,0,1,1.807-2.638.591.591,0,0,1,.521.047l5.474,3.312c.689.438.458,2.346-.11,3.918a64.649,64.649,0,0,0-3.489,10.516,22.921,22.921,0,0,0-.147,3.958c.029,2.3,0,2.9-.259,3.05A.26.26,0,0,1,1173.8,973.948Zm.058-.378v0Zm-1.7-24.106a.286.286,0,0,0-.1.018,4.368,4.368,0,0,0-1.574,2.417A62.188,62.188,0,0,0,1167,962.421c-.594,2.485.183,7.018.6,7.333l6.142,3.745a19.786,19.786,0,0,0,.058-2.627,22.938,22.938,0,0,1,.155-4.047,65.528,65.528,0,0,1,3.51-10.579c.652-1.811.594-3.225.262-3.441l-5.472-3.312A.175.175,0,0,0,1172.16,949.464Z" fill="#fcfbfa" style="mix-blend-mode: soft-light;isolation: isolate"/>
            </g>
          </g>
          <g id="Group_307" data-name="Group 307" style="mix-blend-mode: multiply;isolation: isolate">
            <path id="Path_425" data-name="Path 425" d="M1075.688,842.817l-7.2-3.91-.157-.814,6.391,3.465-2.8-11.233.052-26.48-5.945-3.859v-.761l6.574,4.278v.184l-.052,26.559Z" fill="#e7d08c"/>
          </g>
          <path id="Path_426" data-name="Path 426" d="M1381.136,886.759l1.978-10.016,13.2,19.741-3.684-4.375Z" fill="#f5a938"/>
          <path id="Path_427" data-name="Path 427" d="M1055.1,1074.143l1.978-10.016,13.374,18.738-3.862-3.372Z" fill="#f5a938"/>
          <g id="Group_308" data-name="Group 308">
            <path id="Path_428" data-name="Path 428" d="M1249.183,1001.859a1.561,1.561,0,0,0,1.425-1.115l1.333-3.7a2.047,2.047,0,0,0-.765-2.433l-2.522-1.459a1.371,1.371,0,0,0-.691-.189,1.561,1.561,0,0,0-1.427,1.113l-1.333,3.7a2.045,2.045,0,0,0,.765,2.433l2.525,1.459A1.341,1.341,0,0,0,1249.183,1001.859Z" fill="#9c958d"/>
            <path id="Path_429" data-name="Path 429" d="M1250.982,994.949l-2.522-1.462a1.086,1.086,0,0,0-1.561.719l-1.331,3.7a1.665,1.665,0,0,0,.592,1.963l2.525,1.459a1.082,1.082,0,0,0,1.558-.719l1.331-3.7A1.665,1.665,0,0,0,1250.982,994.949Z" fill="#e9e5e1"/>
          </g>
          <g id="Group_309" data-name="Group 309">
            <path id="Path_430" data-name="Path 430" d="M1261.692,1009.1a1.567,1.567,0,0,0,1.427-1.115l1.333-3.7a2.048,2.048,0,0,0-.767-2.433l-2.522-1.459a1.368,1.368,0,0,0-.692-.192,1.566,1.566,0,0,0-1.427,1.115l-1.331,3.7a2.044,2.044,0,0,0,.765,2.433l2.522,1.459A1.368,1.368,0,0,0,1261.692,1009.1Z" fill="#9c958d"/>
            <path id="Path_431" data-name="Path 431" d="M1263.492,1002.184l-2.522-1.459a1.083,1.083,0,0,0-1.558.719l-1.333,3.7a1.669,1.669,0,0,0,.594,1.966l2.522,1.459a1.083,1.083,0,0,0,1.558-.719l1.333-3.7A1.669,1.669,0,0,0,1263.492,1002.184Z" fill="#573f3f"/>
          </g>
          <g id="Group_310" data-name="Group 310">
            <path id="Path_432" data-name="Path 432" d="M1236.671,994.621a1.564,1.564,0,0,0,1.427-1.113l1.333-3.7a2.047,2.047,0,0,0-.765-2.433l-2.525-1.459a1.364,1.364,0,0,0-.692-.189,1.564,1.564,0,0,0-1.427,1.113l-1.331,3.7a2.047,2.047,0,0,0,.765,2.433l2.522,1.459A1.365,1.365,0,0,0,1236.671,994.621Z" fill="#9c958d"/>
            <path id="Path_433" data-name="Path 433" d="M1238.47,987.71l-2.522-1.459a1.082,1.082,0,0,0-1.558.717l-1.333,3.7a1.67,1.67,0,0,0,.595,1.963l2.522,1.459a1.084,1.084,0,0,0,1.561-.719l1.331-3.7A1.666,1.666,0,0,0,1238.47,987.71Z" fill="#e9e5e1"/>
          </g>
          <g id="Group_311" data-name="Group 311">
            <path id="Path_434" data-name="Path 434" d="M1249.183,1001.859a1.561,1.561,0,0,0,1.425-1.115l1.333-3.7a2.044,2.044,0,0,0-.765-2.433l-2.522-1.459a1.371,1.371,0,0,0-.691-.189,1.561,1.561,0,0,0-1.427,1.113l-1.333,3.7a2.045,2.045,0,0,0,.765,2.433l2.525,1.459A1.341,1.341,0,0,0,1249.183,1001.859Z" fill="#9c958d"/>
            <path id="Path_435" data-name="Path 435" d="M1250.982,994.949l-2.522-1.462a1.086,1.086,0,0,0-1.561.719l-1.331,3.7a1.663,1.663,0,0,0,.595,1.963l2.522,1.459a1.082,1.082,0,0,0,1.558-.719l1.331-3.7A1.665,1.665,0,0,0,1250.982,994.949Z" fill="#573f3f"/>
          </g>
          <g id="Group_312" data-name="Group 312">
            <path id="Path_436" data-name="Path 436" d="M1224.161,987.382a1.564,1.564,0,0,0,1.427-1.113l1.331-3.7a2.041,2.041,0,0,0-.765-2.433l-2.522-1.462a1.392,1.392,0,0,0-.691-.189,1.567,1.567,0,0,0-1.427,1.113l-1.333,3.7a2.05,2.05,0,0,0,.765,2.433l2.525,1.459A1.364,1.364,0,0,0,1224.161,987.382Z" fill="#9c958d"/>
            <path id="Path_437" data-name="Path 437" d="M1225.961,980.472l-2.522-1.459a1.084,1.084,0,0,0-1.561.719l-1.331,3.7a1.666,1.666,0,0,0,.595,1.963l2.522,1.462a1.083,1.083,0,0,0,1.558-.719l1.333-3.7A1.669,1.669,0,0,0,1225.961,980.472Z" fill="#e9e5e1"/>
          </g>
          <g id="Group_313" data-name="Group 313">
            <path id="Path_438" data-name="Path 438" d="M1236.671,994.621a1.564,1.564,0,0,0,1.427-1.113l1.333-3.7a2.047,2.047,0,0,0-.765-2.433l-2.525-1.459a1.364,1.364,0,0,0-.692-.189,1.564,1.564,0,0,0-1.427,1.113l-1.331,3.7a2.047,2.047,0,0,0,.765,2.433l2.522,1.459A1.365,1.365,0,0,0,1236.671,994.621Z" fill="#9c958d"/>
            <path id="Path_439" data-name="Path 439" d="M1238.47,987.71l-2.522-1.459a1.082,1.082,0,0,0-1.558.717l-1.333,3.7a1.67,1.67,0,0,0,.595,1.963l2.522,1.459a1.084,1.084,0,0,0,1.561-.719l1.331-3.7A1.666,1.666,0,0,0,1238.47,987.71Z" fill="#573f3f"/>
          </g>
          <g id="Group_314" data-name="Group 314">
            <path id="Path_440" data-name="Path 440" d="M1211.65,980.147a1.567,1.567,0,0,0,1.427-1.115l1.333-3.7a2.047,2.047,0,0,0-.765-2.433l-2.525-1.459a1.366,1.366,0,0,0-.689-.192,1.564,1.564,0,0,0-1.427,1.115l-1.333,3.7a2.047,2.047,0,0,0,.765,2.433l2.522,1.459A1.369,1.369,0,0,0,1211.65,980.147Z" fill="#9c958d"/>
            <path id="Path_441" data-name="Path 441" d="M1213.452,973.234l-2.525-1.459a1.083,1.083,0,0,0-1.558.719l-1.331,3.7a1.669,1.669,0,0,0,.592,1.966l2.522,1.459a1.086,1.086,0,0,0,1.561-.719l1.331-3.7A1.671,1.671,0,0,0,1213.452,973.234Z" fill="#e9e5e1"/>
          </g>
          <g id="Group_315" data-name="Group 315">
            <path id="Path_442" data-name="Path 442" d="M1224.161,987.382a1.564,1.564,0,0,0,1.427-1.113l1.331-3.7a2.041,2.041,0,0,0-.765-2.433l-2.522-1.462a1.364,1.364,0,0,0-.691-.189,1.567,1.567,0,0,0-1.427,1.113l-1.333,3.7a2.05,2.05,0,0,0,.765,2.433l2.525,1.459A1.364,1.364,0,0,0,1224.161,987.382Z" fill="#9c958d"/>
            <path id="Path_443" data-name="Path 443" d="M1225.961,980.472l-2.522-1.459a1.084,1.084,0,0,0-1.561.719l-1.331,3.7a1.666,1.666,0,0,0,.595,1.963l2.522,1.462a1.083,1.083,0,0,0,1.558-.719l1.333-3.7A1.669,1.669,0,0,0,1225.961,980.472Z" fill="#573f3f"/>
          </g>
          <g id="Group_316" data-name="Group 316">
            <path id="Path_444" data-name="Path 444" d="M1199.14,972.909a1.567,1.567,0,0,0,1.427-1.115l1.331-3.7a2.044,2.044,0,0,0-.765-2.433l-2.522-1.459a1.365,1.365,0,0,0-.691-.189,1.564,1.564,0,0,0-1.428,1.113l-1.33,3.7a2.043,2.043,0,0,0,.765,2.433l2.522,1.459A1.368,1.368,0,0,0,1199.14,972.909Z" fill="#9c958d"/>
            <path id="Path_445" data-name="Path 445" d="M1200.94,966l-2.522-1.459a1.083,1.083,0,0,0-1.558.719l-1.333,3.7a1.669,1.669,0,0,0,.595,1.966l2.522,1.459a1.083,1.083,0,0,0,1.558-.719l1.333-3.7A1.671,1.671,0,0,0,1200.94,966Z" fill="#e9e5e1"/>
          </g>
          <g id="Group_317" data-name="Group 317">
            <path id="Path_446" data-name="Path 446" d="M1211.65,980.147a1.567,1.567,0,0,0,1.427-1.115l1.333-3.7a2.047,2.047,0,0,0-.765-2.433l-2.525-1.459a1.366,1.366,0,0,0-.689-.192,1.564,1.564,0,0,0-1.427,1.115l-1.333,3.7a2.047,2.047,0,0,0,.765,2.433l2.522,1.459A1.369,1.369,0,0,0,1211.65,980.147Z" fill="#9c958d"/>
            <path id="Path_447" data-name="Path 447" d="M1213.452,973.234l-2.525-1.459a1.083,1.083,0,0,0-1.558.719l-1.331,3.7a1.67,1.67,0,0,0,.592,1.966l2.522,1.459a1.086,1.086,0,0,0,1.561-.719l1.331-3.7A1.671,1.671,0,0,0,1213.452,973.234Z" fill="#573f3f"/>
          </g>
          <g id="Group_318" data-name="Group 318">
            <path id="Path_448" data-name="Path 448" d="M1186.628,965.67a1.567,1.567,0,0,0,1.427-1.115l1.333-3.7a2.047,2.047,0,0,0-.765-2.433l-2.525-1.459a1.362,1.362,0,0,0-.689-.189,1.561,1.561,0,0,0-1.427,1.113l-1.333,3.7a2.045,2.045,0,0,0,.765,2.433l2.522,1.462A1.372,1.372,0,0,0,1186.628,965.67Z" fill="#9c958d"/>
            <path id="Path_449" data-name="Path 449" d="M1188.43,958.76l-2.525-1.459a1.081,1.081,0,0,0-1.558.716l-1.33,3.7a1.665,1.665,0,0,0,.592,1.963l2.525,1.459a1.082,1.082,0,0,0,1.558-.719l1.33-3.7A1.665,1.665,0,0,0,1188.43,958.76Z" fill="#573f3f"/>
          </g>
          <g id="Group_319" data-name="Group 319">
            <path id="Path_450" data-name="Path 450" d="M1199.14,972.909a1.567,1.567,0,0,0,1.427-1.115l1.331-3.7a2.044,2.044,0,0,0-.765-2.433l-2.522-1.459a1.365,1.365,0,0,0-.691-.189,1.564,1.564,0,0,0-1.428,1.113l-1.33,3.7a2.043,2.043,0,0,0,.765,2.433l2.522,1.459A1.368,1.368,0,0,0,1199.14,972.909Z" fill="#9c958d"/>
            <path id="Path_451" data-name="Path 451" d="M1200.94,966l-2.522-1.459a1.083,1.083,0,0,0-1.558.719l-1.333,3.7a1.669,1.669,0,0,0,.595,1.966l2.522,1.459a1.083,1.083,0,0,0,1.558-.719l1.333-3.7A1.67,1.67,0,0,0,1200.94,966Z" fill="#573f3f"/>
          </g>
          <g id="Group_320" data-name="Group 320">
            <path id="Path_452" data-name="Path 452" d="M1186.628,965.67a1.567,1.567,0,0,0,1.427-1.115l1.333-3.7a2.044,2.044,0,0,0-.765-2.433l-2.525-1.459a1.362,1.362,0,0,0-.689-.189,1.561,1.561,0,0,0-1.427,1.113l-1.333,3.7a2.045,2.045,0,0,0,.765,2.433l2.522,1.462A1.372,1.372,0,0,0,1186.628,965.67Z" fill="#9c958d"/>
            <path id="Path_453" data-name="Path 453" d="M1188.43,958.76l-2.525-1.459a1.081,1.081,0,0,0-1.558.716l-1.33,3.7a1.665,1.665,0,0,0,.592,1.963l2.525,1.459a1.082,1.082,0,0,0,1.558-.719l1.33-3.7A1.665,1.665,0,0,0,1188.43,958.76Z" fill="#573f3f"/>
          </g>
          <g id="Group_321" data-name="Group 321">
            <path id="Path_454" data-name="Path 454" d="M1161.609,951.194a1.558,1.558,0,0,0,1.425-1.113l1.333-3.7a2.047,2.047,0,0,0-.765-2.433l-2.522-1.459a1.375,1.375,0,0,0-.692-.192,1.567,1.567,0,0,0-1.427,1.115l-1.333,3.7a2.05,2.05,0,0,0,.765,2.433l2.525,1.459A1.364,1.364,0,0,0,1161.609,951.194Z" fill="#9c958d"/>
            <path id="Path_455" data-name="Path 455" d="M1163.409,944.284l-2.522-1.459a1.086,1.086,0,0,0-1.561.719l-1.331,3.7a1.665,1.665,0,0,0,.592,1.963l2.525,1.462a1.083,1.083,0,0,0,1.558-.719l1.331-3.7A1.665,1.665,0,0,0,1163.409,944.284Z" fill="#573f3f"/>
          </g>
          <g id="Group_322" data-name="Group 322">
            <path id="Path_456" data-name="Path 456" d="M1149.1,943.958a1.567,1.567,0,0,0,1.427-1.115l1.333-3.7a2.047,2.047,0,0,0-.765-2.433l-2.525-1.459a1.369,1.369,0,0,0-.692-.192,1.567,1.567,0,0,0-1.427,1.115l-1.33,3.7a2.047,2.047,0,0,0,.765,2.433l2.522,1.459A1.368,1.368,0,0,0,1149.1,943.958Z" fill="#9c958d"/>
            <path id="Path_457" data-name="Path 457" d="M1150.9,937.045l-2.522-1.459a1.083,1.083,0,0,0-1.558.719l-1.331,3.7a1.668,1.668,0,0,0,.592,1.966l2.522,1.459a1.086,1.086,0,0,0,1.561-.719l1.331-3.7A1.669,1.669,0,0,0,1150.9,937.045Z" fill="#573f3f"/>
          </g>
          <g id="Group_323" data-name="Group 323">
            <path id="Path_458" data-name="Path 458" d="M1161.609,951.194a1.558,1.558,0,0,0,1.425-1.113l1.333-3.7a2.044,2.044,0,0,0-.765-2.433l-2.522-1.459a1.375,1.375,0,0,0-.692-.192,1.567,1.567,0,0,0-1.427,1.115l-1.333,3.7a2.05,2.05,0,0,0,.765,2.433l2.525,1.459A1.364,1.364,0,0,0,1161.609,951.194Z" fill="#9c958d"/>
            <path id="Path_459" data-name="Path 459" d="M1163.409,944.284l-2.522-1.459a1.086,1.086,0,0,0-1.561.719l-1.331,3.7a1.665,1.665,0,0,0,.592,1.963l2.525,1.462a1.083,1.083,0,0,0,1.558-.719l1.331-3.7A1.665,1.665,0,0,0,1163.409,944.284Z" fill="#573f3f"/>
          </g>
        </g>
        <path id="Path_460" data-name="Path 460" d="M1068.614,872.353l51.842,34.554,237.188,136.472s18.738,8.75,20.65,10.062c1.786,1.226,12.811,16.949,17.394,20.447s20.006,12.776,34.94,16.5c-2.42-2.942-25.694-18.621-25.694-18.621l-6.65-8.22a29.065,29.065,0,0,0-2.051-4.008c-5.238-7.742-14.576-13.261-14.576-13.261l-22-9.894L1129.291,903.171l-51.022-29.507-8.12-2.11Z" fill="#fcfbfa" style="mix-blend-mode: soft-light;isolation: isolate"/>
        <g id="Group_325" data-name="Group 325">
          <path id="Path_461" data-name="Path 461" d="M1230.614,1013.406l-.419.263-28.549,19.289-11.21-6.43.629-.367,10.555,6.036,27.816-18.765-8.486-5.432.6-.368Z" fill="#f3f1ee"/>
        </g>
        <g id="Group_326" data-name="Group 326">
          <path id="Path_462" data-name="Path 462" d="M1177.444,1040.884l-.681.184-53.982,15.38-.1-.079-6.234-3.543.812-.289,5.631,3.2,53.013-15.091-8.643-5.512.76-.263Z" fill="#f3f1ee"/>
        </g>
        <g id="Group_327" data-name="Group 327">
          <path id="Path_463" data-name="Path 463" d="M1102.049,849.635c0,7.928-5.589,11.122-12.486,7.133s-12.488-13.65-12.488-21.581,5.592-11.122,12.488-7.133S1102.049,841.707,1102.049,849.635Z" fill="#ebe7e3"/>
        </g>
        <g id="Group_328" data-name="Group 328">
          <path id="Path_464" data-name="Path 464" d="M1096.842,839.1v4.162a1.456,1.456,0,0,1-2.716.732l-3.62-6.257a1.457,1.457,0,0,1,1.988-1.995l3.62,2.094A1.456,1.456,0,0,1,1096.842,839.1Z" fill="#de4037"/>
          <path id="Path_465" data-name="Path 465" d="M1082.281,845.727v-4.162a1.455,1.455,0,0,1,2.716-.73l3.62,6.254a1.458,1.458,0,0,1-1.988,2l-3.62-2.094A1.463,1.463,0,0,1,1082.281,845.727Z" fill="#de4037"/>
          <path id="Path_466" data-name="Path 466" d="M1094.657,853.729l-4.688-2.714a1.459,1.459,0,0,1,.005-2.53l4.691-2.68a1.457,1.457,0,0,1,2.177,1.268v5.393A1.456,1.456,0,0,1,1094.657,853.729Z" fill="#f5b53d"/>
          <path id="Path_467" data-name="Path 467" d="M1084.466,831.094l4.691,2.714a1.459,1.459,0,0,1-.008,2.53l-4.688,2.68a1.457,1.457,0,0,1-2.179-1.268v-5.391A1.457,1.457,0,0,1,1084.466,831.094Z" fill="#f5b53d"/>
        </g>
      </g>
    </g>
  </g>
</svg>
