<svg xmlns="http://www.w3.org/2000/svg" width="239" height="115" viewBox="0 0 239 115">
  <g id="Vector_Smart_Object_copy_17" data-name="Vector Smart Object copy 17" transform="translate(-110.898 -103.365)" opacity="0.102">
    <g id="Group_397" data-name="Group 397">
      <path id="Path_804" data-name="Path 804" d="M337.069,184.8a11.655,11.655,0,0,1,.473,3.331c0,3.612-1.47,6.542-3.285,6.542-1.017,0-1.915-.939-2.517-2.386a14.45,14.45,0,0,0,.337-3.137,13.614,13.614,0,0,0-.659-4.254c.01-.035.022-.063.031-.1H330.2a10.779,10.779,0,0,1,.847,4.35c0,3.612-1.47,6.542-3.285,6.542s-3.283-2.929-3.283-6.542a10.779,10.779,0,0,1,.847-4.35h-7.816a13.575,13.575,0,0,0-.686,4.35c0,4.47,1.931,8.093,4.313,8.093h6.625a2.928,2.928,0,0,0,2.056-1.018h4.439c2.382,0,4.313-3.624,4.313-8.095a14.237,14.237,0,0,0-.391-3.331Z" fill="#646464"/>
      <path id="Path_805" data-name="Path 805" d="M273.321,189.324h-1.746a21.055,21.055,0,0,1,.192,2.815c0,6.013-2.448,10.887-5.466,10.887-1.689,0-3.2-1.525-4.2-3.921a23.97,23.97,0,0,0,.57-5.27,24.225,24.225,0,0,0-.421-4.511h-1.788a20.333,20.333,0,0,1,.5,4.511c0,6.012-2.448,10.887-5.466,10.887s-5.466-4.875-5.466-10.887a20.245,20.245,0,0,1,.5-4.511H239.158c-.266,1.412-1.868,2.926-1.868,4.511,0,7.439,3.214,13.47,7.179,13.47h11.026a4.863,4.863,0,0,0,3.482-1.695H266.3c3.964,0,7.178-6.031,7.178-13.471A24.944,24.944,0,0,0,273.321,189.324Z" fill="#646464"/>
      <path id="Path_806" data-name="Path 806" d="M241.377,176.748v8.737l8.256-5.235,1.229-1.395,73.061,1.713-1.706,1.874-80.84,3.044v6.654l98.79-5.524,2.093-7.774Z" fill="#646464"/>
      <g id="Group_394" data-name="Group 394">
        <path id="Path_807" data-name="Path 807" d="M124.17,199.08c.623,8.131,4.34,14.387,8.845,14.387,4.467,0,8.161-6.153,8.828-14.185A40.816,40.816,0,0,1,124.17,199.08Z" fill="#646464"/>
        <path id="Path_808" data-name="Path 808" d="M118.364,197.637c.266,8.823,4.151,15.83,8.921,15.83h5.729v-3.9a22.5,22.5,0,0,0,3.021-9.462A53.9,53.9,0,0,1,118.364,197.637Z" fill="#646464"/>
      </g>
      <path id="Path_809" data-name="Path 809" d="M185.4,184.793h-5.729c-4.94,0-8.947,7.515-8.947,16.786s4.006,16.786,8.947,16.786H185.4c4.942,0,8.947-7.515,8.947-16.786S190.339,184.793,185.4,184.793Zm.618,29.7c-3.485,0-6.312-5.78-6.312-12.911s2.826-12.911,6.312-12.911,6.31,5.78,6.31,12.911S189.5,214.49,186.016,214.49Z" fill="#646464"/>
      <path id="Path_810" data-name="Path 810" d="M307.021,192.545l-23.482,1.705a4.452,4.452,0,0,1-4.768-4.26h0a4.694,4.694,0,0,1,4.3-4.919l23.483-1.705a4.451,4.451,0,0,1,4.767,4.26h0A4.694,4.694,0,0,1,307.021,192.545Z" fill="#646464"/>
      <g id="Group_396" data-name="Group 396">
        <path id="Path_811" data-name="Path 811" d="M149.17,167.9H127.175l-1.736,1.6H149.17Z" fill="#646464"/>
        <path id="Path_812" data-name="Path 812" d="M120.987,167.9v1.6H149.17v-1.6Zm-.832,7.353h28.183v-1.6H120.155ZM119.324,181H147.5v-1.6H119.324Zm-.832,5.748h28.183v-1.6H118.491Z" fill="#646464"/>
        <rect id="Rectangle_33" data-name="Rectangle 33" width="28.182" height="1.604" transform="translate(119.323 179.398)" fill="#646464"/>
        <g id="Group_395" data-name="Group 395">
          <path id="Path_813" data-name="Path 813" d="M245.276,178.854h-7.987v-70.86l4.2-.548L229.746,104.3h-6.9c-4.192-1.278-5.984-.882-5.984-.882-.993.026-2.111.092-3.312.185-7.375,2.037-14.038,5.939-17.29,11.939-12.276-.069-25.615,1.242-33.568,3.424a62.838,62.838,0,0,1,10.072-8.908l-.19.039A40.747,40.747,0,0,0,149.891,129.7c-3.3.632-5.174,1.1-5.174,1.1L140.675,141.6l2.729-.176-2.933,10.041v-6.113h-2.317l-1.5,1.505v10.154a94.911,94.911,0,0,0-17.344,7.109c17.722-3.939,35.605-.847,35.605-.847s-4.4,24.217-4.668,27.677c-26.183,1.945-33.954-.319-33.954-.319a78.255,78.255,0,0,1,.383-13.7,13.151,13.151,0,0,0-1.012,1.016l-.042.047c-.186.211-.373.443-.56.685-.034.045-.069.083-.1.128-.171.226-.341.474-.511.727-.049.072-.1.137-.148.214-.156.238-.307.5-.458.763-.061.107-.124.2-.186.313-.136.247-.265.519-.4.787-.072.146-.147.28-.217.434-.124.274-.243.573-.361.868-.069.169-.141.324-.207.5-.121.322-.231.673-.343,1.019-.055.173-.117.331-.169.51q-.24.806-.442,1.7l1.5,1.638-2.132,1.639v14s42.52,4.285,62.292,1.054v1.209h6.933a25.133,25.133,0,0,1-.419-4.594c0-7.132,2.826-12.911,6.312-12.911s6.31,5.78,6.31,12.911a25.138,25.138,0,0,1-.418,4.594h4.261l53.464-4.594v-21.33h-4.357Zm-21.613-68.825c6.393,1.285,6.961,9.711,6.961,9.711-8.24-16.852-22.587,0-22.587,0C210.878,114.6,217.27,108.744,223.663,110.029Zm-26.442,47.2a.25.25,0,0,1,.24-.242l.135,0a2.834,2.834,0,0,1,2.855,1.973l3.758-4.544-6.987.357,3.193-16.328,12.617,1.233v14.286l-6.9.354-5.735,6.939-.007-.006A2.8,2.8,0,0,1,198.3,162.9a6.435,6.435,0,0,1-.829.114.231.231,0,0,1-.247-.238Zm-2.877-22.518-3.919,17.444s-1.171,3.072-8.262,2.708c0,0-10.26-.167-21.624.083l5.18-17.906Zm-53.669,21.277,5.137-17.331,16.88-1.373-5.131,17.736C151.587,155.194,145.53,155.487,140.675,155.991Zm26.483,31.3c-1.246.25-7.364,1.219-13.746,2.225,0,0,0-4.059,2.352-6.478,3.861-2.363,10.647-5.172,12.39-3.838S168.4,187.04,167.158,187.29Zm-12.734-4.681s5.714-12.376,36.933-16.2c0,0,10.495-.659,19.151,1.188C210.508,167.6,165.893,172.434,154.424,182.609Zm41.7,10.274-1.231-1.779,38.771-3.019,4.821,2.423Z" fill="#646464"/>
          <path id="Path_814" data-name="Path 814" d="M247.868,109.65v66.194h-7.584v-65.2l7.584-.99m2.994-3.426-13.573,1.77v70.86h13.573v-72.63Z" fill="#646464"/>
        </g>
        <path id="Path_815" data-name="Path 815" d="M148.338,175.254v-1.6H120.953l-.8.737v.867Z" fill="#646464"/>
        <rect id="Rectangle_34" data-name="Rectangle 34" width="28.182" height="1.604" transform="translate(118.491 185.146)" fill="#646464"/>
      </g>
      <rect id="Rectangle_35" data-name="Rectangle 35" width="5.517" height="14.286" transform="translate(203.581 139.677)" fill="#646464"/>
      <path id="Path_816" data-name="Path 816" d="M201.776,153.041l1.8.922V139.677l-1.8.922Z" fill="#646464"/>
      <path id="Path_817" data-name="Path 817" d="M344.236,167.7l1.374-7.7L320.236,152.5l26.091,3.494.524-2.933L257.1,119.741l92.166,19.793.632-3.54-1.364-.408-97.672-29.362-.834,68.228L340.24,175.6l-2.309,11.142,2.94-.186Z" fill="#646464"/>
    </g>
    <path id="Path_818" data-name="Path 818" d="M338.11,204.384,216.69,218.365h45.983l75.358-13.982Z" fill="#646464"/>
  </g>
</svg>
