<svg xmlns="http://www.w3.org/2000/svg" width="311" height="291" viewBox="0 0 311 291">
  <g id="Vector_Smart_Object" data-name="Vector Smart Object" transform="translate(-358.107 -801.257)">
    <g id="Group_389" data-name="Group 389">
      <g id="Group_387" data-name="Group 387">
        <g id="Group_378" data-name="Group 378">
          <g id="Group_364" data-name="Group 364">
            <path id="Path_468" data-name="Path 468" d="M436.661,913.182l232.446,133.851-78.555,45.223L358.107,958.406Z" fill="#f5f2e8"/>
            <path id="Path_469" data-name="Path 469" d="M403.5,969.16l10.533-8.1,37.372,26.2,89.848,61.2,11.7-7.01,31.18,19.737L569.7,1021.238l-165.75-82.061Z" fill="#0f0e1b"/>
            <path id="Path_470" data-name="Path 470" d="M589.086,1060.643c0-10.158-7.2-22.538-16.079-27.65-4.425-2.547-8.432-2.808-11.34-1.172h0l0,0-.067.038-10.152,5.848v7.842l22.8,31.213,9.523-5.516a7.62,7.62,0,0,0,1.276-.74l.005,0h0C587.561,1068.706,589.086,1065.317,589.086,1060.643Z" fill="#23222d"/>
            <path id="Path_471" data-name="Path 471" d="M450.167,980.669c0-10.159-7.2-22.538-16.079-27.65-4.695-2.7-8.917-2.831-11.856-.85l-10.052,5.8,6.8,11.067a37.7,37.7,0,0,0,10.891,17.706l5.988,9.736,8.83-5.134a7.728,7.728,0,0,0,1.6-.929h0C448.706,988.588,450.167,985.242,450.167,980.669Z" fill="#23222d"/>
            <g id="Group_343" data-name="Group 343">
              <path id="Path_472" data-name="Path 472" d="M660.561,997.11v28.315l-12.126-6.98c-3.178-10.263-10.5-19.59-19.041-24.5-11.445-6.591-13.014,1.078-19.454,12.513a26.146,26.146,0,0,0-1.26,3.194l-96.4-55.5c.021-1.231.031-2.529.031-3.9,0-13.094-9.279-36.142-20.725-42.73S470.855,906.2,470.855,919.3q0,2.077.072,3.96l-30.738-17.7v-101.8L628.019,911.9,639.092,971.1Z" fill="#e4dfd9"/>
              <path id="Path_473" data-name="Path 473" d="M646.577,1027.547c0,10.158-7.2,14.251-16.076,9.137s-16.076-17.489-16.076-27.65,7.2-14.251,16.076-9.14S646.577,1017.386,646.577,1027.547Z" fill="#2d2c37"/>
              <path id="Path_474" data-name="Path 474" d="M507.658,947.572c0,10.158-7.2,14.251-16.076,9.14S475.5,932.134,475.5,921.975s7.2-14.251,16.079-9.14S507.658,937.411,507.658,947.572Z" fill="#2d2c37"/>
              <path id="Path_475" data-name="Path 475" d="M502.751,944.747c0,7.059-5,9.9-11.168,6.35s-11.171-19.237-11.171-26.3,5-9.9,11.171-6.35S502.751,937.688,502.751,944.747Z" fill="#504f58"/>
              <path id="Path_476" data-name="Path 476" d="M501.7,944.143c0,6.4-4.533,8.971-10.121,5.754s-10.121-18.1-10.121-24.491,4.53-8.971,10.121-5.754S501.7,937.747,501.7,944.143Z" fill="#c2c7d6"/>
              <path id="Path_477" data-name="Path 477" d="M500.684,943.557c0,5.754-4.074,8.07-9.1,5.175s-9.1-16.99-9.1-22.743,4.076-8.07,9.1-5.175S500.684,937.806,500.684,943.557Z" fill="#a5acc2"/>
              <path id="Path_478" data-name="Path 478" d="M497.168,934.445c0,3.53-2.5,12.037-5.585,10.261S486,931.545,486,928.016s2.5-4.95,5.585-3.176A12.27,12.27,0,0,1,497.168,934.445Z" fill="#cfd9e7"/>
              <path id="Path_479" data-name="Path 479" d="M641.67,1024.722c0,7.059-5,9.9-11.168,6.35s-11.171-12.152-11.171-19.211,5-9.9,11.171-6.35S641.67,1017.663,641.67,1024.722Z" fill="#504f58"/>
              <path id="Path_480" data-name="Path 480" d="M640.622,1024.118c0,6.4-4.533,8.971-10.121,5.754s-10.121-11.011-10.121-17.407,4.53-8.971,10.121-5.754S640.622,1017.722,640.622,1024.118Z" fill="#b5bbcd"/>
              <path id="Path_481" data-name="Path 481" d="M638.261,1022.759c0,4.9-3.473,6.88-7.76,4.413s-7.762-8.444-7.762-13.348,3.475-6.88,7.762-4.412S638.261,1017.855,638.261,1022.759Z" fill="#cfd9e7"/>
              <path id="Path_482" data-name="Path 482" d="M634.734,1020.729c0,2.675-1.894,3.752-4.233,2.406a9.3,9.3,0,0,1-4.235-7.282c0-2.675,1.9-3.752,4.235-2.406A9.289,9.289,0,0,1,634.734,1020.729Z" fill="#e1e7ef"/>
              <path id="Path_483" data-name="Path 483" d="M632.8,1019.616c0,1.454-1.029,2.04-2.3,1.308a5.052,5.052,0,0,1-2.3-3.957c0-1.454,1.029-2.04,2.3-1.308A5.052,5.052,0,0,1,632.8,1019.616Z" fill="#c2c7d6"/>
              <path id="Path_484" data-name="Path 484" d="M663.833,1036.446l-67.73,29.613-11.326-3.873-7.077-4.074,72.212-41.572,11.1,6.392,2.817,4.135Z" fill="#6b6164"/>
              <path id="Path_485" data-name="Path 485" d="M626.773,907.779,441.739,801.257l-1.55,2.507L628.02,911.9Z" fill="#f3f1ee"/>
              <path id="Path_486" data-name="Path 486" d="M577.208,948.65,443.061,871.424v-3.878l134.147,77.227Z" fill="#98979d"/>
              <g id="Group_331" data-name="Group 331">
                <path id="Path_487" data-name="Path 487" d="M579.016,988.652V895.209l38.674,22.264v62.2l-12.719,23.924Z" fill="#cdc6bc"/>
              </g>
              <path id="Path_488" data-name="Path 488" d="M628.86,923.9l-8.716-5.018V968.08l12.913,7.434,3.65-5.927Z" fill="#2d2c37"/>
              <path id="Path_489" data-name="Path 489" d="M621.306,967.42V920.884l6.658,3.833,7.5,44-3.117,5.062Z" fill="#7572a4"/>
              <g id="Group_332" data-name="Group 332">
                <path id="Path_490" data-name="Path 490" d="M608.681,1006.915,577.208,988.8v2.733l31.474,18.119Z" fill="#9b897f"/>
              </g>
              <g id="Group_333" data-name="Group 333">
                <path id="Path_491" data-name="Path 491" d="M440.189,902.829l-11.024-6.346v2.733l11.024,6.347Z" fill="#9b897f"/>
              </g>
              <path id="Path_492" data-name="Path 492" d="M657.091,1007.413l-4.616-2.658v-5.282l4.616,2.657Z" fill="#504f58"/>
              <path id="Path_493" data-name="Path 493" d="M656.7,1006.739l-3.833-2.206v-4.385l3.833,2.207Z" fill="#ff9a2e"/>
              <path id="Path_494" data-name="Path 494" d="M450.11,884.915c0,1.633-1.155,2.291-2.582,1.469a5.671,5.671,0,0,1-2.582-4.443c0-1.63,1.155-2.288,2.582-1.467A5.666,5.666,0,0,1,450.11,884.915Z" fill="#504f58"/>
              <path id="Path_495" data-name="Path 495" d="M449.574,884.6c0,1.3-.916,1.815-2.046,1.165a4.5,4.5,0,0,1-2.046-3.519c0-1.293.916-1.812,2.046-1.162A4.49,4.49,0,0,1,449.574,884.6Z" fill="#ff512e"/>
              <path id="Path_496" data-name="Path 496" d="M448.994,894.287c0,1.108-.785,1.556-1.756,1a3.851,3.851,0,0,1-1.756-3.018c0-1.108.785-1.556,1.756-1A3.852,3.852,0,0,1,448.994,894.287Z" fill="#f9f1ec"/>
              <path id="Path_497" data-name="Path 497" d="M448.727,894.134c0,.939-.667,1.318-1.489.845a3.272,3.272,0,0,1-1.489-2.559c0-.942.667-1.321,1.489-.847A3.273,3.273,0,0,1,448.727,894.134Z" fill="#ff9a2e"/>
              <path id="Path_498" data-name="Path 498" d="M520.59,942.589c0,1.108-.788,1.556-1.756,1a3.852,3.852,0,0,1-1.756-3.02c0-1.108.785-8.641,1.756-8.083S520.59,941.481,520.59,942.589Z" fill="#f9f1ec"/>
              <path id="Path_499" data-name="Path 499" d="M520.323,942.436c0,.942-.667,1.321-1.489.847a3.266,3.266,0,0,1-1.489-2.562c0-.939.665-1.318,1.489-.845A3.272,3.272,0,0,1,520.323,942.436Z" fill="#ff9a2e"/>
              <path id="Path_500" data-name="Path 500" d="M573.215,965.8c0,1.111-.788,1.556-1.756,1a3.852,3.852,0,0,1-1.756-3.018c0-1.111.785-1.556,1.756-1A3.858,3.858,0,0,1,573.215,965.8Z" fill="#f9f1ec"/>
              <path id="Path_501" data-name="Path 501" d="M572.948,965.645c0,.942-.667,1.321-1.489.847a3.265,3.265,0,0,1-1.489-2.559c0-.942.665-1.321,1.489-.847A3.272,3.272,0,0,1,572.948,965.645Z" fill="#ff9a2e"/>
              <g id="Group_334" data-name="Group 334">
                <path id="Path_502" data-name="Path 502" d="M451.487,814.552l-6-3.457v-2.659l6,3.457Z" fill="#cdc6bc"/>
              </g>
              <path id="Path_503" data-name="Path 503" d="M450.955,813.775l-4.941-2.845v-1.967l4.941,2.845Z" fill="#ff9a2e"/>
              <g id="Group_335" data-name="Group 335">
                <path id="Path_504" data-name="Path 504" d="M526.327,857.637l-6-3.457V851.52l6,3.457Z" fill="#cdc6bc"/>
              </g>
              <path id="Path_505" data-name="Path 505" d="M525.8,856.86l-4.941-2.845v-1.967l4.941,2.845Z" fill="#ff9a2e"/>
              <g id="Group_336" data-name="Group 336">
                <path id="Path_506" data-name="Path 506" d="M620.693,911.962l-6-3.457v-2.66l6,3.457Z" fill="#cdc6bc"/>
              </g>
              <path id="Path_507" data-name="Path 507" d="M620.161,911.185l-4.941-2.845v-1.967l4.941,2.845Z" fill="#ff9a2e"/>
              <g id="Group_338" data-name="Group 338">
                <g id="Group_337" data-name="Group 337">
                  <path id="Path_508" data-name="Path 508" d="M492.958,884.93a6.045,6.045,0,0,1-2.98-.886l-37.825-21.778c-3.876-2.229-7.025-8.208-7.025-13.33V827.414c0-2.818.957-4.988,2.628-5.951a4.927,4.927,0,0,1,5.018.353L490.6,843.593c3.876,2.229,7.028,8.211,7.028,13.332v21.52c0,2.82-.957,4.991-2.634,5.951A4,4,0,0,1,492.958,884.93Zm-2.359-1.961a3.749,3.749,0,0,0,3.773.353c1.276-.737,2.01-2.513,2.01-4.878v-21.52c0-4.727-2.872-10.225-6.4-12.257l-37.825-21.776a3.749,3.749,0,0,0-3.773-.353c-1.278.735-2.01,2.513-2.01,4.876v21.522c0,4.725,2.872,10.222,6.4,12.255Z" fill="#cdc6bc"/>
                </g>
              </g>
              <g id="Group_340" data-name="Group 340">
                <g id="Group_339" data-name="Group 339">
                  <path id="Path_509" data-name="Path 509" d="M551.82,918.815a6.023,6.023,0,0,1-2.98-.885l-37.83-21.778c-3.873-2.229-7.025-8.211-7.025-13.33V861.3c0-2.821.96-4.991,2.634-5.953a4.922,4.922,0,0,1,5.016.353l37.827,21.776c3.873,2.229,7.023,8.211,7.023,13.33v21.522c0,2.821-.957,4.991-2.631,5.953A4.033,4.033,0,0,1,551.82,918.815ZM508.657,856.06a2.785,2.785,0,0,0-1.414.363c-1.278.735-2.012,2.513-2.012,4.878v21.52c0,4.725,2.872,10.222,6.4,12.255l37.827,21.778a3.751,3.751,0,0,0,3.771.353c1.276-.735,2.01-2.513,2.01-4.878V890.807c0-4.725-2.872-10.222-6.4-12.255l-37.83-21.776A4.79,4.79,0,0,0,508.657,856.06Z" fill="#cdc6bc"/>
                </g>
              </g>
              <path id="Path_510" data-name="Path 510" d="M607.893,961.027,587.1,941.972c-2.2-1.267-3.986-4.668-3.986-7.6V906.158c0-2.928,1.784-4.274,3.986-3.007l20.791,11.971c2.2,1.267,3.986,4.668,3.986,7.594v35.307C611.879,960.948,610.1,962.294,607.893,961.027Z" fill="#2d2c37"/>
              <path id="Path_511" data-name="Path 511" d="M584.278,935.261v-28.65c0-2.076,1.265-3.028,2.823-2.129l20.791,11.968a6.737,6.737,0,0,1,2.823,5.383v35.735c0,2.076-1.263,3.028-2.823,2.129L587.1,940.644A6.748,6.748,0,0,1,584.278,935.261Z" fill="#7572a4"/>
              <path id="Path_512" data-name="Path 512" d="M593.511,985.1l-6.409-3.691c-2.2-1.267-3.986-11.753-3.986-14.681v-17.97c0-2.928,1.784-4.272,3.986-3l6.409,3.688c2.2,1.267,3.986,4.668,3.986,7.6v25.057C597.5,985.017,595.713,986.363,593.511,985.1Z" fill="#2d2c37"/>
              <path id="Path_513" data-name="Path 513" d="M584.278,967.61v-18.4c0-2.073,1.265-3.028,2.823-2.129l6.409,3.691a6.736,6.736,0,0,1,2.823,5.38v25.487c0,2.076-1.263,3.028-2.823,2.129l-6.409-3.688C585.543,979.179,584.278,969.683,584.278,967.61Z" fill="#7572a4"/>
              <path id="Path_514" data-name="Path 514" d="M626.071,1018.372a8.8,8.8,0,0,0,1.956,3.453,1.725,1.725,0,0,1,.485,1.38h0c-.115.361-.644.256-1.129-.312a13.942,13.942,0,0,1-2.592-4.581c-.234-.7-.039-1.185.339-1.08h0A1.775,1.775,0,0,1,626.071,1018.372Z" fill="#504f58"/>
              <path id="Path_515" data-name="Path 515" d="M634.929,1018.211a8.794,8.794,0,0,0-1.953-3.453,1.721,1.721,0,0,1-.485-1.382h0c.115-.358.642-.253,1.127.315a13.923,13.923,0,0,1,2.6,4.581c.231.7.039,1.185-.339,1.08h0A1.778,1.778,0,0,1,634.929,1018.211Z" fill="#504f58"/>
              <path id="Path_516" data-name="Path 516" d="M632.8,1024.681a1.877,1.877,0,0,0,2.035-1.065c.19-.307.59-.346.963,0h0a1.3,1.3,0,0,1,.3,1.461,2.9,2.9,0,0,1-2.7,1.413,1.373,1.373,0,0,1-1.117-1.031h0C632.177,1024.97,632.426,1024.668,632.8,1024.681Z" fill="#504f58"/>
              <path id="Path_517" data-name="Path 517" d="M628.2,1011.9a1.875,1.875,0,0,0-2.033,1.065c-.19.307-.59.346-.963,0h0a1.3,1.3,0,0,1-.3-1.461,2.9,2.9,0,0,1,2.7-1.413,1.366,1.366,0,0,1,1.114,1.031h0C628.825,1011.612,628.576,1011.914,628.2,1011.9Z" fill="#504f58"/>
              <g id="Group_341" data-name="Group 341">
                <path id="Path_518" data-name="Path 518" d="M635.616,998.255h-.622l.023-17.785,3.788-9.48.576.23-3.765,9.425Z" fill="#c9c3b9"/>
              </g>
              <g id="Group_342" data-name="Group 342">
                <path id="Path_519" data-name="Path 519" d="M660.329,1001.991l-23.36-25.938.461-.415,23.36,25.938Z" fill="#c9c3b9"/>
              </g>
            </g>
            <path id="Path_520" data-name="Path 520" d="M372.765,949.494l-11.024-6.347,13.1-7.54,11.024,6.346Z" fill="#6b6164"/>
            <g id="Group_358" data-name="Group 358">
              <path id="Path_521" data-name="Path 521" d="M593.136,1035.927v28.313l-12.126-6.98c-3.175-10.261-10.5-19.59-19.038-24.5-11.445-6.588-13.016,1.08-19.454,12.516a26,26,0,0,0-1.26,3.192l-96.4-55.5q.031-1.847.031-3.9c0-13.1-9.282-29.057-20.727-35.645s-20.725-1.313-20.725,11.781q0,2.077.072,3.959l-30.74-17.7V842.579L560.6,950.71l11.073,59.21Z" fill="#ded8d1"/>
              <g id="Group_344" data-name="Group 344">
                <path id="Path_522" data-name="Path 522" d="M381.676,932.484c0,1.293-.914,1.812-2.046,1.162a4.491,4.491,0,0,1-2.046-3.519c0-1.293.916-1.812,2.046-1.162A4.488,4.488,0,0,1,381.676,932.484Z" fill="#cdc6bc"/>
              </g>
              <g id="Group_345" data-name="Group 345">
                <path id="Path_523" data-name="Path 523" d="M508.063,996.517,373.917,919.29v-3.878l1.721-1.966,132.426,79.193,1.721,1.913Z" fill="#cdc6bc"/>
              </g>
              <g id="Group_346" data-name="Group 346">
                <path id="Path_524" data-name="Path 524" d="M587.63,1047.037l-3.083-1.774v-3.527l.9-2.773,3.833,6.592Z" fill="#b5aa9c"/>
              </g>
              <path id="Path_525" data-name="Path 525" d="M579.155,1066.361c0,10.158-7.2,14.251-16.076,9.14S547,1058.01,547,1047.851s7.2-14.251,16.079-9.14S579.155,1056.2,579.155,1066.361Z" fill="#2d2c37"/>
              <path id="Path_526" data-name="Path 526" d="M579.155,1066.361c0,10.158-7.2,14.251-16.076,9.14S547,1058.01,547,1047.851s7.2-14.251,16.079-9.14S579.155,1056.2,579.155,1066.361Z" fill="#393843"/>
              <ellipse id="Ellipse_7" data-name="Ellipse 7" cx="12.587" cy="21.74" rx="12.587" ry="21.74" transform="matrix(0.863, -0.505, 0.505, 0.863, 540.816, 1044.839)" fill="#2d2c37"/>
              <path id="Path_527" data-name="Path 527" d="M440.236,986.386c0,10.161-7.2,14.251-16.079,9.14s-16.076-17.491-16.076-27.65,7.2-14.251,16.076-9.14S440.236,976.228,440.236,986.386Z" fill="#393843"/>
              <path id="Path_528" data-name="Path 528" d="M438.621,986.2c0,9.772-6.925,13.708-15.465,8.792s-15.465-16.826-15.465-26.6,6.923-13.708,15.465-8.792S438.621,976.43,438.621,986.2Z" fill="#2d2c37"/>
              <path id="Path_529" data-name="Path 529" d="M435.03,983.786c0,7.056-5,9.9-11.171,6.35s-11.168-12.152-11.168-19.211,5-9.9,11.168-6.35S435.03,976.727,435.03,983.786Z" fill="#504f58"/>
              <path id="Path_530" data-name="Path 530" d="M434.278,982.959c0,6.393-4.53,8.971-10.121,5.754s-10.118-11.013-10.118-17.407,4.53-8.971,10.118-5.754S434.278,976.563,434.278,982.959Z" fill="#c4c2bb"/>
              <path id="Path_531" data-name="Path 531" d="M433.262,982.373c0,5.751-4.076,8.07-9.1,5.175s-9.1-9.905-9.1-15.656,4.074-8.073,9.1-5.178a13.285,13.285,0,0,1,1.353.9,20.727,20.727,0,0,1,7.644,13.086A13.343,13.343,0,0,1,433.262,982.373Z" fill="#b0ac9e"/>
              <path id="Path_532" data-name="Path 532" d="M427.445,985.206c-4.761-2.736-8.619-9.375-8.619-14.819a6.629,6.629,0,0,1,1.7-4.9c-3.219-.248-5.467,2.129-5.467,6.4,0,5.751,4.074,12.761,9.1,15.656,3.663,2.106,6.82,1.449,8.265-1.287A6.923,6.923,0,0,1,427.445,985.206Z" fill="#b7b4a9"/>
              <g id="Group_347" data-name="Group 347" style="mix-blend-mode: multiply;isolation: isolate">
                <path id="Path_533" data-name="Path 533" d="M432.73,981.36c0,3.529-2.5,4.953-5.585,3.176a12.263,12.263,0,0,1-5.585-9.606c0-3.529,2.5-4.95,5.585-3.176A12.263,12.263,0,0,1,432.73,981.36Z" fill="#cdc6bc"/>
              </g>
              <path id="Path_534" data-name="Path 534" d="M433.154,980.7c-.957,1.385-2.777,1.646-4.862.445a12.27,12.27,0,0,1-5.585-9.606c0-2.37,1.129-3.791,2.8-3.926A20.727,20.727,0,0,1,433.154,980.7Z" fill="#9d9783"/>
              <path id="Path_535" data-name="Path 535" d="M424.159,968.076l-4.188,2.419,8.251,13.358,4.13-2.377-2.82-6.717Z" fill="#9d9783"/>
              <ellipse id="Ellipse_8" data-name="Ellipse 8" cx="4.546" cy="7.851" rx="4.546" ry="7.851" transform="translate(416.26 972.641) rotate(-30.311)" fill="#b7b4a9"/>
              <path id="Path_536" data-name="Path 536" d="M429.2,980.259c0,3.373-2.392,4.732-5.342,3.036a11.724,11.724,0,0,1-5.339-9.183c0-3.376,2.39-4.735,5.339-3.038A11.731,11.731,0,0,1,429.2,980.259Z" fill="#d5d2c9"/>
              <path id="Path_537" data-name="Path 537" d="M573.949,1063.758c0,7.059-5,9.9-11.171,6.352s-11.168-12.155-11.168-19.211,5-9.9,11.168-6.35S573.949,1056.7,573.949,1063.758Z" fill="#504f58"/>
              <path id="Path_538" data-name="Path 538" d="M573.2,1062.932c0,6.4-4.53,8.973-10.118,5.754s-10.121-11.011-10.121-17.4,4.53-8.974,10.121-5.754S573.2,1056.538,573.2,1062.932Z" fill="#c4c2bb"/>
              <path id="Path_539" data-name="Path 539" d="M571.932,1062.2c0,5.595-3.963,7.85-8.853,5.034s-8.856-9.634-8.856-15.231,3.963-7.85,8.856-5.034S571.932,1056.607,571.932,1062.2Z" fill="#b7b4a9"/>
              <path id="Path_540" data-name="Path 540" d="M570.838,1061.575c0,4.9-3.475,6.88-7.76,4.412s-7.762-8.446-7.762-13.35,3.475-6.88,7.762-4.412S570.838,1056.669,570.838,1061.575Z" fill="#d5d2c9"/>
              <path id="Path_541" data-name="Path 541" d="M567.07,1060.359c0,2.931-2.077,4.113-4.641,2.636a10.182,10.182,0,0,1-4.638-7.978c0-2.931,2.077-4.11,4.638-2.636A10.182,10.182,0,0,1,567.07,1060.359Z" fill="#cac6bc"/>
              <path id="Path_542" data-name="Path 542" d="M558.648,1057.186a8.808,8.808,0,0,0,1.953,3.453,1.712,1.712,0,0,1,.485,1.382h0c-.113.361-.642.253-1.127-.312a13.959,13.959,0,0,1-2.6-4.584c-.231-.7-.036-1.182.341-1.08h0A1.781,1.781,0,0,1,558.648,1057.186Z" fill="#504f58"/>
              <path id="Path_543" data-name="Path 543" d="M565.961,1060.07c0,2.583-1.83,3.622-4.086,2.324a8.976,8.976,0,0,1-4.086-7.028c0-2.58,1.83-3.622,4.086-2.321A8.972,8.972,0,0,1,565.961,1060.07Z" fill="#dddddb"/>
              <path id="Path_544" data-name="Path 544" d="M564.1,1059c0,1.4-1,1.966-2.22,1.262a4.875,4.875,0,0,1-2.22-3.819c0-1.4.993-1.968,2.22-1.262A4.882,4.882,0,0,1,564.1,1059Z" fill="#b7b4a9"/>
              <path id="Path_545" data-name="Path 545" d="M596.1,1075.438l-11.72-1.29-5.423-3.122-1.259-12.914,7.077,4.074,11.326,3.873Z" fill="#493f41"/>
              <path id="Path_546" data-name="Path 546" d="M559.349,946.594,374.315,840.072l-1.55,2.507L560.6,950.711Z" fill="#f3f1ee"/>
              <path id="Path_547" data-name="Path 547" d="M508.525,991.4,374.378,914.171l1.26-.725,134.146,77.227Z" fill="#6b6164"/>
              <path id="Path_548" data-name="Path 548" d="M508.525,991.4v3.879l1.26-.725v-3.878Z" fill="#554d4e"/>
              <g id="Group_348" data-name="Group 348">
                <path id="Path_549" data-name="Path 549" d="M511.592,1027.467V941.11l38.674,22.264v55.111l-12.719,23.924Z" fill="#cdc6bc"/>
              </g>
              <path id="Path_550" data-name="Path 550" d="M561.436,962.718,552.72,957.7V1006.9l12.913,7.434,3.649-5.927Z" fill="#2d2c37"/>
              <path id="Path_551" data-name="Path 551" d="M553.882,1006.235V959.7l6.659,3.833,7.5,44-3.117,5.062Z" fill="#573f3f"/>
              <path id="Path_552" data-name="Path 552" d="M372.765,949.494l-11.024-6.347v1.969l11.024,6.347Z" fill="#493f41"/>
              <path id="Path_553" data-name="Path 553" d="M589.668,1046.228l-4.616-2.657v-5.282l4.616,2.658Z" fill="#504f58"/>
              <path id="Path_554" data-name="Path 554" d="M589.276,1045.554l-5.07-5.018,1.238-1.574,3.833,2.207Z" fill="#ff9a2e"/>
              <path id="Path_555" data-name="Path 555" d="M587.288,1045.837l-3.083-1.774v-3.527l3.083,1.775Z" fill="#e06f2e"/>
              <path id="Path_556" data-name="Path 556" d="M382.688,930.816c0,1.633-1.155,2.291-2.582,1.469a5.673,5.673,0,0,1-2.585-4.443c0-1.63,1.158-2.288,2.585-1.467A5.666,5.666,0,0,1,382.688,930.816Z" fill="#504f58"/>
              <path id="Path_557" data-name="Path 557" d="M382.151,930.506c0,1.3-.916,1.815-2.046,1.164a4.5,4.5,0,0,1-2.046-3.519c0-1.293.916-1.812,2.046-1.162A4.49,4.49,0,0,1,382.151,930.506Z" fill="#d83b2e"/>
              <path id="Path_558" data-name="Path 558" d="M378.509,926.946a7.441,7.441,0,0,0-1.119,1.418c-.19.476,2.182,3.791,2.182,3.791a5.283,5.283,0,0,0,1.953-.323C382.269,931.476,378.509,926.946,378.509,926.946Z" fill="#d83b2e"/>
              <g id="Group_349" data-name="Group 349">
                <path id="Path_559" data-name="Path 559" d="M381.761,940.905c0,1.108-.785,1.556-1.756,1a3.859,3.859,0,0,1-1.756-3.02c0-1.108.788-1.556,1.756-1A3.86,3.86,0,0,1,381.761,940.905Z" fill="#b5aa9c"/>
              </g>
              <g id="Group_350" data-name="Group 350">
                <path id="Path_560" data-name="Path 560" d="M453.357,982.122c0,1.108-.785,1.556-1.756,1a3.852,3.852,0,0,1-1.756-3.02c0-1.108.785-1.556,1.756-1A3.856,3.856,0,0,1,453.357,982.122Z" fill="#b5aa9c"/>
              </g>
              <g id="Group_351" data-name="Group 351">
                <path id="Path_561" data-name="Path 561" d="M505.982,1012.419c0,1.108-.785,1.556-1.756,1a3.852,3.852,0,0,1-1.756-3.02c0-1.108.785-1.556,1.756-1A3.852,3.852,0,0,1,505.982,1012.419Z" fill="#b5aa9c"/>
              </g>
              <path id="Path_562" data-name="Path 562" d="M380.385,931.018c0,1.016-.719,1.426-1.607.914a3.527,3.527,0,0,1-1.609-2.764c0-1.016.721-1.426,1.609-.914A3.528,3.528,0,0,1,380.385,931.018Z" fill="#ff512e"/>
              <path id="Path_563" data-name="Path 563" d="M381.951,940.019c0,1.111-.785,1.556-1.756,1A3.856,3.856,0,0,1,378.442,938c0-1.111.785-1.556,1.753-1A3.852,3.852,0,0,1,381.951,940.019Z" fill="#9da1bf"/>
              <path id="Path_564" data-name="Path 564" d="M453.547,981.237c0,1.111-.785,1.556-1.756,1a3.859,3.859,0,0,1-1.756-3.018c0-1.111.788-1.556,1.756-1A3.852,3.852,0,0,1,453.547,981.237Z" fill="#9da1bf"/>
              <path id="Path_565" data-name="Path 565" d="M506.172,1011.533c0,1.108-.785,1.556-1.756,1a3.859,3.859,0,0,1-1.756-3.02c0-1.108.788-1.556,1.756-1A3.856,3.856,0,0,1,506.172,1011.533Z" fill="#9da1bf"/>
              <path id="Path_566" data-name="Path 566" d="M381.568,940.188c0,1.108-.785,1.556-1.753,1a3.852,3.852,0,0,1-1.756-3.018c0-1.108.785-1.556,1.756-1A3.856,3.856,0,0,1,381.568,940.188Z" fill="#f9f1ec"/>
              <path id="Path_567" data-name="Path 567" d="M381.3,940.035c0,.939-.667,1.318-1.489.845a3.268,3.268,0,0,1-1.491-2.559c0-.942.667-1.321,1.491-.847A3.273,3.273,0,0,1,381.3,940.035Z" fill="#e06f2e"/>
              <path id="Path_568" data-name="Path 568" d="M453.165,981.406c0,1.108-.785,1.556-1.756,1a3.856,3.856,0,0,1-1.753-3.018c0-1.111.785-1.556,1.753-1A3.852,3.852,0,0,1,453.165,981.406Z" fill="#f9f1ec"/>
              <path id="Path_569" data-name="Path 569" d="M452.9,981.252c0,.939-.667,1.318-1.491.845a3.272,3.272,0,0,1-1.489-2.559c0-.942.667-1.321,1.489-.847A3.269,3.269,0,0,1,452.9,981.252Z" fill="#e06f2e"/>
              <path id="Path_570" data-name="Path 570" d="M505.79,1011.7c0,1.111-.785,1.556-1.756,1a3.856,3.856,0,0,1-1.753-3.018c0-1.111.785-1.556,1.753-1A3.852,3.852,0,0,1,505.79,1011.7Z" fill="#f9f1ec"/>
              <path id="Path_571" data-name="Path 571" d="M505.523,1011.546c0,.942-.665,1.321-1.489.847a3.272,3.272,0,0,1-1.489-2.559c0-.942.667-1.321,1.489-.847A3.265,3.265,0,0,1,505.523,1011.546Z" fill="#e06f2e"/>
              <g id="Group_352" data-name="Group 352">
                <path id="Path_572" data-name="Path 572" d="M384.063,853.367l-6-3.457V847.25l6,3.457Z" fill="#cdc6bc"/>
              </g>
              <path id="Path_573" data-name="Path 573" d="M383.532,852.59l-4.941-2.844v-1.967l4.941,2.845Z" fill="#e06f2e"/>
              <g id="Group_353" data-name="Group 353">
                <path id="Path_574" data-name="Path 574" d="M458.9,896.452l-6-3.457v-2.659l6,3.457Z" fill="#cdc6bc"/>
              </g>
              <path id="Path_575" data-name="Path 575" d="M458.372,895.675l-4.941-2.845v-1.967l4.941,2.845Z" fill="#e06f2e"/>
              <g id="Group_354" data-name="Group 354">
                <path id="Path_576" data-name="Path 576" d="M553.269,950.777l-6-3.457v-2.66l6,3.457Z" fill="#cdc6bc"/>
              </g>
              <path id="Path_577" data-name="Path 577" d="M552.737,950l-4.941-2.845v-1.967l4.941,2.845Z" fill="#e06f2e"/>
              <path id="Path_578" data-name="Path 578" d="M540.468,999.841l-20.789-11.968c-2.2-1.267-3.986-4.668-3.986-7.6V952.059c0-2.928,1.784-4.274,3.986-3.007l20.789,11.971c2.2,1.267,3.989,4.668,3.989,7.594v28.22C544.456,999.765,542.67,1001.111,540.468,999.841Z" fill="#2d2c37"/>
              <path id="Path_579" data-name="Path 579" d="M516.855,981.163v-28.65c0-2.076,1.263-3.028,2.824-2.129l20.789,11.968a6.739,6.739,0,0,1,2.826,5.383v28.65c0,2.073-1.265,3.028-2.826,2.129l-20.789-11.968A6.741,6.741,0,0,1,516.855,981.163Z" fill="#573f3f"/>
              <path id="Path_580" data-name="Path 580" d="M526.086,1023.91l-6.407-3.688c-2.2-1.267-3.986-4.668-3.986-7.6v-17.97c0-2.928,1.784-4.274,3.986-3l6.407,3.688c2.2,1.267,3.989,4.668,3.989,7.6v17.97C530.074,1023.834,528.288,1025.18,526.086,1023.91Z" fill="#2d2c37"/>
              <path id="Path_581" data-name="Path 581" d="M516.855,1013.511v-18.4c0-2.073,1.263-3.028,2.824-2.129l6.407,3.691a6.738,6.738,0,0,1,2.826,5.38v18.4c0,2.073-1.266,3.025-2.826,2.129l-6.407-3.691A6.736,6.736,0,0,1,516.855,1013.511Z" fill="#573f3f"/>
              <path id="Path_582" data-name="Path 582" d="M567.506,1057.027a8.807,8.807,0,0,0-1.953-3.453,1.712,1.712,0,0,1-.485-1.382h0c.113-.361.642-.256,1.127.312a13.934,13.934,0,0,1,2.6,4.584c.231.7.036,1.182-.341,1.08h0A1.782,1.782,0,0,1,567.506,1057.027Z" fill="#504f58"/>
              <path id="Path_583" data-name="Path 583" d="M565.376,1063.5a1.877,1.877,0,0,0,2.033-1.065c.19-.31.59-.346.965,0h0a1.3,1.3,0,0,1,.293,1.459,2.889,2.889,0,0,1-2.7,1.413,1.366,1.366,0,0,1-1.114-1.029h0C564.752,1063.784,565,1063.482,565.376,1063.5Z" fill="#504f58"/>
              <path id="Path_584" data-name="Path 584" d="M560.779,1050.715a1.877,1.877,0,0,0-2.033,1.065c-.19.31-.59.345-.965,0h0a1.3,1.3,0,0,1-.293-1.459,2.889,2.889,0,0,1,2.7-1.413,1.366,1.366,0,0,1,1.114,1.029h0C561.4,1050.426,561.151,1050.731,560.779,1050.715Z" fill="#504f58"/>
              <path id="Path_585" data-name="Path 585" d="M560.314,1061.237a13.932,13.932,0,0,1-2.6-4.584,1.634,1.634,0,0,1-.085-.6c-.323-.018-.483.425-.27,1.072a13.933,13.933,0,0,0,2.6,4.584c.485.566,1.011.673,1.127.312.026-.077-.021-.187-.026-.279A1.366,1.366,0,0,1,560.314,1061.237Z" fill="#b7b4a9"/>
              <path id="Path_586" data-name="Path 586" d="M568.8,1057.7a1.775,1.775,0,0,1-.942-1.141,8.8,8.8,0,0,0-1.956-3.453,1.913,1.913,0,0,1-.457-1.1.3.3,0,0,0-.38.189,1.712,1.712,0,0,0,.485,1.382,8.807,8.807,0,0,1,1.953,3.453,1.788,1.788,0,0,0,.942,1.142c.252.069.408-.138.426-.479C568.849,1057.687,568.831,1057.705,568.8,1057.7Z" fill="#b7b4a9"/>
              <path id="Path_587" data-name="Path 587" d="M566.32,1064.836a1.369,1.369,0,0,1-1.114-1.031c-.023-.1.028-.161.036-.248a.546.546,0,0,0-.39.719,1.366,1.366,0,0,0,1.114,1.029,2.889,2.889,0,0,0,2.7-1.413l.01-.031A2.91,2.91,0,0,1,566.32,1064.836Z" fill="#b7b4a9"/>
              <g id="Group_355" data-name="Group 355">
                <path id="Path_588" data-name="Path 588" d="M558.135,1051.309a1.3,1.3,0,0,1-.3-1.428,2.453,2.453,0,0,0-.344.44,1.3,1.3,0,0,0,.293,1.459c.375.345.775.31.965,0a3.418,3.418,0,0,1,.321-.438C558.866,1051.614,558.492,1051.642,558.135,1051.309Z" fill="#b7b4a9"/>
                <path id="Path_589" data-name="Path 589" d="M561.133,1050.245a1.862,1.862,0,0,0-1.974.983,1.864,1.864,0,0,1,1.62-.512c.293.013.457-.213.488-.53C561.215,1050.2,561.189,1050.247,561.133,1050.245Z" fill="#b7b4a9"/>
              </g>
              <g id="Group_356" data-name="Group 356">
                <path id="Path_590" data-name="Path 590" d="M568.191,1037.071h-.622l.023-17.785,3.79-9.48.576.23-3.768,9.425Z" fill="#c9c3b9"/>
              </g>
              <g id="Group_357" data-name="Group 357">
                <path id="Path_591" data-name="Path 591" d="M592.907,1040.8l-23.362-25.937.461-.415,23.362,25.937Z" fill="#c9c3b9"/>
              </g>
            </g>
            <path id="Path_592" data-name="Path 592" d="M660.561,997.111l-67.423,38.815v28.314l67.423-38.815Z" fill="#e4dfd9"/>
            <path id="Path_593" data-name="Path 593" d="M645.979,1006.959l-38.26,22.026v27.946l38.26-22.026Z" fill="#ebe7e3"/>
            <path id="Path_594" data-name="Path 594" d="M644.041,1011.556l-34.384,19.794v6.962l34.384-19.794Z" fill="#554d4e"/>
            <path id="Path_595" data-name="Path 595" d="M644.041,1023.923l-34.384,19.794v10.255l34.384-19.794Z" fill="#554d4e"/>
            <path id="Path_596" data-name="Path 596" d="M642.042,1017.368l-32.385,18.644v2.3l34.384-19.794v-6.962l-2,1.151Z" fill="#cdc6bc"/>
            <path id="Path_597" data-name="Path 597" d="M642.042,1025.073v7.954l-32.385,18.644v2.3l34.384-19.794v-10.255Z" fill="#cdc6bc"/>
            <path id="Path_598" data-name="Path 598" d="M593.137,1035.926l67.423-38.815L639.094,971.1,571.67,1009.92Z" fill="#f3f1ee"/>
            <path id="Path_599" data-name="Path 599" d="M571.67,1009.92l21.633,24.729,12.667-6.843,53.666-31.061L639.094,971.1l21.467,26.006-67.423,38.815Z" fill="#faf8f5"/>
            <path id="Path_600" data-name="Path 600" d="M607.719,1028.985l38.26-22.026-13.56-15.827-38.26,22.026Z" fill="#f3f1ee"/>
            <path id="Path_601" data-name="Path 601" d="M560.6,950.711,628.02,911.9,639.094,971.1,571.67,1009.92Z" fill="#ebe7e3"/>
            <path id="Path_602" data-name="Path 602" d="M606.035,986.5l.244,1.146-33.633,19.363-7.933-45.465,33.437-19.25.244,1.148Z" fill="#554d4e"/>
            <path id="Path_603" data-name="Path 603" d="M605.016,987.085l-12.225,7.039-19.362,11.149L571.67,995.1l-5.491-31.78-.208-1.209,18.693-10.763,12.709-7.315,4.923,27.726,1,5.649Z" fill="#b08480"/>
            <path id="Path_604" data-name="Path 604" d="M637.2,969.846l-29.668,17.079-.244-1.146-7.642-43.056-.244-1.148,29.867-17.193Z" fill="#554d4e"/>
            <path id="Path_605" data-name="Path 605" d="M635.939,969.282l-10.129,5.832-13.766,7.926-3.737,2.152-1.445-8.151-.264-1.483L601.529,947l-.866-4.871,17.226-9.915,10.595-6.1,3.966,22.955,3.1,17.962Z" fill="#b08480"/>
            <path id="Path_606" data-name="Path 606" d="M635.467,968.715l-.8,1.3-4.428,2.549L621.3,967.42V930.252l6.922-3.985Z" fill="#d6b6b2"/>
            <path id="Path_607" data-name="Path 607" d="M560.6,950.711,628.02,911.9l-1.247-4.117-67.424,38.815Z" fill="#f3f1ee"/>
            <path id="Path_608" data-name="Path 608" d="M626.773,907.779,441.739,801.257l-67.423,38.815L559.349,946.594Z" fill="#fcfbfa"/>
            <path id="Path_609" data-name="Path 609" d="M663.833,1027.067l-67.73,38.992v9.379l67.73-38.992Z" fill="#554d4e"/>
            <path id="Path_610" data-name="Path 610" d="M589.276,1041.169l-1.988,1.142v3.527l1.988-.283Z" fill="#e07427"/>
            <path id="Path_611" data-name="Path 611" d="M606.379,1028.3v28.314l1.34.314v-27.946Z" fill="#ded8d1"/>
            <path id="Path_612" data-name="Path 612" d="M508.525,995.277,374.378,918.05v-3.878L508.525,991.4Z" fill="#493f41"/>
            <g id="Group_360" data-name="Group 360">
              <path id="Path_613" data-name="Path 613" d="M647.057,1030.332l9.224-5.31-8.439,1.266-.785,1.266Z" fill="#b5aa9c"/>
              <path id="Path_614" data-name="Path 614" d="M647.681,1007.243l7.12-3.355c.7-.4,1.263-.079,1.263.719v14.8a2.778,2.778,0,0,1-1.263,2.176l-7.12,4.1c-.7.4-1.263.079-1.263-.719v-14.8C646.418,1009.363,646.983,1007.645,647.681,1007.243Z" fill="#b5aa9c"/>
              <path id="Path_615" data-name="Path 615" d="M656.978,1002.849l-.724-.422-.015-.008-.005-.005v0a.9.9,0,0,0-.88.1l-7.12,4.1a2.773,2.773,0,0,0-1.263,2.173v14.8a.9.9,0,0,0,.326.781h0l0,0c.028.018.056.033.085.049l.7.4.226-.555,7.043-4.054a2.773,2.773,0,0,0,1.263-2.175v-14.295Z" fill="#393843"/>
              <g id="Group_359" data-name="Group 359">
                <path id="Path_616" data-name="Path 616" d="M648.9,1006.99l7.118-4.1c.7-.4,1.265-.079,1.265.719v14.8a2.78,2.78,0,0,1-1.265,2.176l-7.118,4.1c-.7.4-1.265.079-1.265-.719v-14.8A2.784,2.784,0,0,1,648.9,1006.99Z" fill="#5c5b64"/>
                <path id="Path_617" data-name="Path 617" d="M649.252,1007.852l6.4-3.686c.472-.274.857-.059.857.481v13.611a1.877,1.877,0,0,1-.857,1.469l-6.4,3.686c-.472.274-.857.059-.857-.481v-13.611A1.881,1.881,0,0,1,649.252,1007.852Z" fill="#cfcedf"/>
                <path id="Path_618" data-name="Path 618" d="M657.8,1005.345l-1.485-1.206-7.607,19.368,1.8.375Z" fill="#cfcedf"/>
                <path id="Path_619" data-name="Path 619" d="M651.021,1008.886l6.132-3.532c.452-.261.821-.054.821.463v13.035a1.807,1.807,0,0,1-.821,1.408l-6.132,3.529c-.454.261-.824.054-.824-.461v-13.035A1.8,1.8,0,0,1,651.021,1008.886Z" fill="#f3f1ee"/>
                <path id="Path_620" data-name="Path 620" d="M649.57,1008.323l6.132-3.529c.452-.261.821-.056.821.461v13.035a1.8,1.8,0,0,1-.821,1.408l-6.132,3.529c-.454.264-.824.056-.824-.461v-13.035A1.8,1.8,0,0,1,649.57,1008.323Z" fill="#eefaf9" style="mix-blend-mode: multiply;isolation: isolate"/>
              </g>
              <path id="Path_621" data-name="Path 621" d="M648.986,1029.724l9.224-5.31v-2.777l-9.224,5.31Z" fill="#e07427"/>
              <path id="Path_622" data-name="Path 622" d="M648.986,1026.947l-1.144-.659,9.225-5.311,1.144.659Z" fill="#ff9a2e"/>
              <path id="Path_623" data-name="Path 623" d="M648.986,1026.947l-1.144-.659v2.778l1.144.659Z" fill="#e06f2e"/>
            </g>
            <g id="Group_362" data-name="Group 362">
              <path id="Path_624" data-name="Path 624" d="M595.225,1060.224l9.224-5.31-8.439,1.266-.785,1.266Z" fill="#b5aa9c"/>
              <path id="Path_625" data-name="Path 625" d="M595.849,1037.135l7.12-3.355c.7-.4,1.263-.079,1.263.719v14.8a2.777,2.777,0,0,1-1.263,2.176l-7.12,4.1c-.7.4-1.263.079-1.263-.719v-14.8C594.586,1039.254,595.151,1037.537,595.849,1037.135Z" fill="#b5aa9c"/>
              <path id="Path_626" data-name="Path 626" d="M605.146,1032.74l-.724-.422-.015-.008-.005,0h0a.9.9,0,0,0-.88.1l-7.12,4.1a2.773,2.773,0,0,0-1.263,2.173v14.806a.9.9,0,0,0,.326.778h0l0,0a.56.56,0,0,0,.085.049l.7.4.226-.555,7.043-4.054a2.773,2.773,0,0,0,1.263-2.173v-14.3Z" fill="#393843"/>
              <g id="Group_361" data-name="Group 361">
                <path id="Path_627" data-name="Path 627" d="M597.063,1036.884l7.118-4.1c.7-.4,1.265-.079,1.265.719v14.8a2.78,2.78,0,0,1-1.265,2.176l-7.118,4.1c-.7.4-1.265.079-1.265-.719v-14.8A2.776,2.776,0,0,1,597.063,1036.884Z" fill="#5c5b64"/>
                <path id="Path_628" data-name="Path 628" d="M597.42,1037.744l6.4-3.686c.472-.274.857-.059.857.481v13.611a1.877,1.877,0,0,1-.857,1.469l-6.4,3.688c-.472.271-.857.056-.857-.484v-13.611A1.885,1.885,0,0,1,597.42,1037.744Z" fill="#cfcedf"/>
                <path id="Path_629" data-name="Path 629" d="M605.97,1035.237l-1.485-1.206-7.607,19.368,1.8.375Z" fill="#cfcedf"/>
                <path id="Path_630" data-name="Path 630" d="M599.189,1038.778l6.132-3.532c.452-.261.821-.054.821.463v13.035a1.8,1.8,0,0,1-.821,1.408l-6.132,3.529c-.454.261-.824.056-.824-.461v-13.035A1.8,1.8,0,0,1,599.189,1038.778Z" fill="#f3f1ee"/>
              </g>
              <path id="Path_631" data-name="Path 631" d="M597.154,1059.617l9.224-5.311v-2.777l-9.224,5.311Z" fill="#e07427"/>
              <path id="Path_632" data-name="Path 632" d="M648.036,1029.2l9.224-5.31v-2.778l-9.224,5.31Z" fill="#f5ec73" style="mix-blend-mode: multiply;isolation: isolate"/>
              <path id="Path_633" data-name="Path 633" d="M596.2,1059.1l9.225-5.311v-2.777l-9.225,5.31Z" fill="#f5ec73" style="mix-blend-mode: multiply;isolation: isolate"/>
              <path id="Path_634" data-name="Path 634" d="M597.154,1056.839l-1.144-.659,9.224-5.31,1.144.659Z" fill="#ff9a2e"/>
              <path id="Path_635" data-name="Path 635" d="M597.154,1056.839l-1.144-.659v2.778l1.144.659Z" fill="#e06f2e"/>
            </g>
            <path id="Path_636" data-name="Path 636" d="M513.606,1026.307V942.269l-2.014-1.159v86.357l25.955,14.942.944-1.775Z" fill="#9b897f"/>
            <path id="Path_637" data-name="Path 637" d="M603.3,977.4l1.718,9.681-31.588,18.187L571.67,995.1Z" fill="#997a77"/>
            <path id="Path_638" data-name="Path 638" d="M635.939,969.282l-27.633,15.91-1.709-9.635,19.253-10.769,9.7,2.248Z" fill="#997a77"/>
            <path id="Path_639" data-name="Path 639" d="M513.606,1026.307l-2.014,1.159,25.955,14.942.944-1.775Z" fill="#f3f1ee"/>
            <g id="Group_363" data-name="Group 363">
              <path id="Path_640" data-name="Path 640" d="M536.282,1049.359l-31.474-18.119v1.969l31.474,18.119Z" fill="#493f41"/>
              <path id="Path_641" data-name="Path 641" d="M536.282,1049.359l4.976-2.865v1.969l-4.976,2.865Z" fill="#554d4e"/>
              <path id="Path_642" data-name="Path 642" d="M536.282,1049.359l4.976-2.865-31.474-18.119-4.976,2.865Z" fill="#6b6164"/>
            </g>
            <path id="Path_643" data-name="Path 643" d="M597.7,1037.995l6.132-3.529c.452-.261.821-.056.821.461v13.035a1.8,1.8,0,0,1-.821,1.408L597.7,1052.9c-.454.261-.824.054-.824-.463V1039.4A1.8,1.8,0,0,1,597.7,1037.995Z" fill="#eefaf9" style="mix-blend-mode: multiply;isolation: isolate"/>
            <path id="Path_644" data-name="Path 644" d="M513.606,942.269v1.76L547.8,964.1v54.2l-10.979,21.379,1.674.964,11.775-22.148V963.374Z" fill="#f2f1f0" style="mix-blend-mode: multiply;isolation: isolate"/>
          </g>
          <path id="Path_645" data-name="Path 645" d="M606.379,1028.3l-18.051-21.889,19.391,22.571Z" fill="#ded8d1"/>
          <path id="Path_646" data-name="Path 646" d="M642.042,1017.368l2,1.151-34.384,19.794v-2.3Z" fill="#f3f1ee"/>
          <path id="Path_647" data-name="Path 647" d="M642.042,1033.027l2,1.151-34.384,19.794v-2.3Z" fill="#f3f1ee"/>
          <path id="Path_648" data-name="Path 648" d="M597.373,944.03l1.277,7.2-5.314-4.873Z" fill="#cbcadd"/>
          <path id="Path_649" data-name="Path 649" d="M610.716,936.347V957.57c0,2.073-1.263,3.025-2.823,2.127l-4.91-4.5-2.32-13.063Z" fill="#cbcadd"/>
          <path id="Path_650" data-name="Path 650" d="M598.65,951.227l-5.314-4.873,4.037-2.324Z" fill="#d6b6b2"/>
          <path id="Path_651" data-name="Path 651" d="M600.662,942.134l10.054-5.787V957.57c0,2.073-1.263,3.025-2.823,2.127l-4.91-4.5Z" fill="#d6b6b2"/>
          <g id="Group_373" data-name="Group 373">
            <g id="Group_365" data-name="Group 365">
              <path id="Path_652" data-name="Path 652" d="M558.627,942.792,378.75,839.091l1.26-.725L559.064,942.792Z" fill="#ebe7e3"/>
              <path id="Path_653" data-name="Path 653" d="M559.064,942.38l-179.876-103.7,1.26-.725,179.876,103.7Z" fill="#fcfbfa"/>
              <path id="Path_654" data-name="Path 654" d="M559.064,942.38v.412l1.26-.725v-.412Z" fill="#ebe7e3"/>
              <path id="Path_655" data-name="Path 655" d="M559.064,942.792l-179.876-103.7v-.412l179.876,103.7Z" fill="#cdc6bc"/>
            </g>
            <g id="Group_366" data-name="Group 366">
              <path id="Path_656" data-name="Path 656" d="M566.9,938.027l-179.876-103.7,1.26-.725L567.342,938.027Z" fill="#ebe7e3"/>
              <path id="Path_657" data-name="Path 657" d="M567.342,937.615l-179.876-103.7,1.26-.725L568.6,936.89Z" fill="#fcfbfa"/>
              <path id="Path_658" data-name="Path 658" d="M567.342,937.615v.412l1.26-.725v-.412Z" fill="#ebe7e3"/>
              <path id="Path_659" data-name="Path 659" d="M567.342,938.027l-179.876-103.7v-.412l179.876,103.7Z" fill="#cdc6bc"/>
            </g>
            <g id="Group_367" data-name="Group 367">
              <path id="Path_660" data-name="Path 660" d="M575.182,933.262,395.306,829.56l1.26-.725L575.619,933.262Z" fill="#ebe7e3"/>
              <path id="Path_661" data-name="Path 661" d="M575.619,932.85l-179.876-103.7,1.26-.725,179.877,103.7Z" fill="#fcfbfa"/>
              <path id="Path_662" data-name="Path 662" d="M575.619,932.85v.412l1.26-.725v-.412Z" fill="#ebe7e3"/>
              <path id="Path_663" data-name="Path 663" d="M575.619,933.262,395.743,829.56v-.412l179.876,103.7Z" fill="#cdc6bc"/>
            </g>
            <g id="Group_368" data-name="Group 368">
              <path id="Path_664" data-name="Path 664" d="M583.46,928.5l-179.877-103.7,1.26-.725L583.9,928.5Z" fill="#ebe7e3"/>
              <path id="Path_665" data-name="Path 665" d="M583.9,928.084,404.02,824.383l1.26-.725,179.876,103.7Z" fill="#fcfbfa"/>
              <path id="Path_666" data-name="Path 666" d="M583.9,928.084v.412l1.26-.725v-.412Z" fill="#ebe7e3"/>
              <path id="Path_667" data-name="Path 667" d="M583.9,928.5,404.02,824.795v-.412L583.9,928.084Z" fill="#cdc6bc"/>
            </g>
            <g id="Group_369" data-name="Group 369">
              <path id="Path_668" data-name="Path 668" d="M591.737,923.731,411.861,820.03l1.26-.725L592.174,923.731Z" fill="#ebe7e3"/>
              <path id="Path_669" data-name="Path 669" d="M592.174,923.319,412.3,819.618l1.26-.725,179.876,103.7Z" fill="#fcfbfa"/>
              <path id="Path_670" data-name="Path 670" d="M592.174,923.319v.412l1.26-.725v-.412Z" fill="#ebe7e3"/>
              <path id="Path_671" data-name="Path 671" d="M592.174,923.731,412.3,820.03v-.412l179.876,103.7Z" fill="#cdc6bc"/>
            </g>
            <g id="Group_370" data-name="Group 370">
              <path id="Path_672" data-name="Path 672" d="M600.015,918.966l-179.876-103.7,1.26-.725L600.452,918.966Z" fill="#ebe7e3"/>
              <path id="Path_673" data-name="Path 673" d="M600.452,918.554l-179.877-103.7,1.26-.725,179.876,103.7Z" fill="#fcfbfa"/>
              <path id="Path_674" data-name="Path 674" d="M600.452,918.554v.412l1.26-.725v-.412Z" fill="#ebe7e3"/>
              <path id="Path_675" data-name="Path 675" d="M600.452,918.966l-179.877-103.7v-.412l179.877,103.7Z" fill="#cdc6bc"/>
            </g>
            <g id="Group_371" data-name="Group 371">
              <path id="Path_676" data-name="Path 676" d="M608.293,914.2,428.416,810.5l1.259-.725L608.73,914.2Z" fill="#ebe7e3"/>
              <path id="Path_677" data-name="Path 677" d="M608.73,913.788l-179.876-103.7,1.26-.725,179.877,103.7Z" fill="#fcfbfa"/>
              <path id="Path_678" data-name="Path 678" d="M608.73,913.788v.412l1.26-.725v-.412Z" fill="#ebe7e3"/>
              <path id="Path_679" data-name="Path 679" d="M608.73,914.2,428.853,810.5v-.412l179.876,103.7Z" fill="#cdc6bc"/>
            </g>
            <g id="Group_372" data-name="Group 372">
              <path id="Path_680" data-name="Path 680" d="M616.57,909.435l-179.876-103.7,1.26-.725L617.007,909.435Z" fill="#ebe7e3"/>
              <path id="Path_681" data-name="Path 681" d="M617.007,909.023l-179.877-103.7,1.26-.725L618.267,908.3Z" fill="#fcfbfa"/>
              <path id="Path_682" data-name="Path 682" d="M617.007,909.023v.412l1.26-.725V908.3Z" fill="#ebe7e3"/>
              <path id="Path_683" data-name="Path 683" d="M617.007,909.435l-179.877-103.7v-.412l179.877,103.7Z" fill="#cdc6bc"/>
            </g>
          </g>
          <g id="Group_377" data-name="Group 377">
            <g id="Group_374" data-name="Group 374">
              <path id="Path_684" data-name="Path 684" d="M576.16,934.95l-2.967-1.693,2.345-1.392,2.307,3.084Z" fill="#ebe7e3"/>
              <path id="Path_685" data-name="Path 685" d="M577.845,934.95l2.345-1.392V932.4l-2.345,1.392Z" fill="#e07427"/>
              <path id="Path_686" data-name="Path 686" d="M577.845,933.791l-2.967-1.693,2.345-1.392,2.967,1.693Z" fill="#ff9a2e"/>
              <path id="Path_687" data-name="Path 687" d="M577.845,933.791l-2.967-1.693v1.159l2.967,1.693Z" fill="#e06f2e"/>
            </g>
            <g id="Group_375" data-name="Group 375">
              <path id="Path_688" data-name="Path 688" d="M587.886,927.992l-2.967-1.693,2.345-1.392,2.307,3.084Z" fill="#ebe7e3"/>
              <path id="Path_689" data-name="Path 689" d="M589.572,927.992l2.345-1.392v-1.159l-2.345,1.392Z" fill="#e07427"/>
              <path id="Path_690" data-name="Path 690" d="M589.572,926.833,586.6,925.14l2.345-1.392,2.967,1.693Z" fill="#ff9a2e"/>
              <path id="Path_691" data-name="Path 691" d="M589.572,926.833,586.6,925.14V926.3l2.967,1.693Z" fill="#e06f2e"/>
            </g>
            <g id="Group_376" data-name="Group 376">
              <path id="Path_692" data-name="Path 692" d="M599.613,921.034l-2.967-1.693,2.345-1.392,2.307,3.084Z" fill="#ebe7e3"/>
              <path id="Path_693" data-name="Path 693" d="M601.3,921.034l2.345-1.392v-1.159l-2.345,1.392Z" fill="#e07427"/>
              <path id="Path_694" data-name="Path 694" d="M601.3,919.875l-2.967-1.693,2.345-1.392,2.967,1.693Z" fill="#ff9a2e"/>
              <path id="Path_695" data-name="Path 695" d="M601.3,919.875l-2.967-1.693v1.159l2.967,1.693Z" fill="#e06f2e"/>
            </g>
          </g>
          <path id="Path_696" data-name="Path 696" d="M593.913,1004.019l15.382-8.856-2.984-3.64-15.382,8.856Z" fill="#cdc6bc"/>
          <path id="Path_697" data-name="Path 697" d="M615.392,991.572l15.382-8.855-2.984-3.64-15.382,8.855Z" fill="#cdc6bc"/>
          <path id="Path_698" data-name="Path 698" d="M600.434,992.644a.693.693,0,0,0,1.109-.133,1.126,1.126,0,0,0-.1-1.362.693.693,0,0,0-1.109.136A1.122,1.122,0,0,0,600.434,992.644Z" fill="#493f41"/>
          <path id="Path_699" data-name="Path 699" d="M600.5,992.55a.6.6,0,0,0,.968-.118.98.98,0,0,0-.087-1.185.594.594,0,0,0-.906.036c-.021.026-.041.051-.062.079A.984.984,0,0,0,600.5,992.55Z" fill="#493f41"/>
          <path id="Path_700" data-name="Path 700" d="M600.952,991.055a3.593,3.593,0,0,1,.7.115c.172.072.1,1.275.1,1.275a2.845,2.845,0,0,1-.744.292C600.675,992.793,600.952,991.055,600.952,991.055Z" fill="#493f41"/>
          <path id="Path_701" data-name="Path 701" d="M601.222,992.337a.474.474,0,0,0,.76-.092.773.773,0,0,0-.069-.934.477.477,0,0,0-.76.092A.774.774,0,0,0,601.222,992.337Z" fill="#5c504e"/>
          <path id="Path_702" data-name="Path 702" d="M603.3,977.4l1.718,9.681-12.225,7.039-26.611-30.808-.208-1.209,18.693-10.763L602.3,971.755Z" fill="#383838" style="mix-blend-mode: screen;isolation: isolate"/>
          <path id="Path_703" data-name="Path 703" d="M612.043,983.04l-3.737,2.152-1.445-8.151Z" fill="#383838" style="mix-blend-mode: screen;isolation: isolate"/>
          <path id="Path_704" data-name="Path 704" d="M635.939,969.282l-10.129,5.832L601.529,947l-.866-4.871,17.226-9.915,14.56,16.855,3.1,17.962Z" fill="#383838" style="mix-blend-mode: screen;isolation: isolate"/>
          <path id="Path_705" data-name="Path 705" d="M616.188,1058.74l-4.294,2.472v-1.9l4.294-2.472Z" fill="#493f41"/>
          <path id="Path_706" data-name="Path 706" d="M615.808,1058.623l-3.533,2.034v-1.406l3.533-2.034Z" fill="#e06f2e"/>
          <path id="Path_707" data-name="Path 707" d="M646.747,1040.335l-3.534,2.034v-1.407l3.534-2.034Z" fill="#e06f2e"/>
          <path id="Path_708" data-name="Path 708" d="M593.706,992.312l-.971.916,8.166-.826-.089-1.151Z" fill="#493f41"/>
          <path id="Path_709" data-name="Path 709" d="M601.507,988.928c-.085.01-23.153,11.942-23.153,11.942l-.246-.729,22.478-12.122Z" fill="#5c504e"/>
        </g>
        <g id="Group_381" data-name="Group 381">
          <g id="Group_379" data-name="Group 379">
            <path id="Path_710" data-name="Path 710" d="M484.421,966.666a6.738,6.738,0,0,1-3.345-.985L443.252,943.9c-4.14-2.383-7.385-8.513-7.385-13.951v-21.52c0-3.084,1.091-5.482,2.99-6.575a5.614,5.614,0,0,1,5.737.353l37.827,21.776c4.14,2.385,7.385,8.513,7.385,13.952v21.522c0,3.084-1.091,5.48-2.99,6.573A4.74,4.74,0,0,1,484.421,966.666Zm-2-3.3a3.128,3.128,0,0,0,3.052.353c1.034-.6,1.65-2.186,1.65-4.256V937.939c0-4.42-2.77-9.746-6.047-11.633l-37.825-21.778a3.129,3.129,0,0,0-3.052-.351c-1.034.594-1.65,2.183-1.65,4.256v21.52c0,4.42,2.77,9.749,6.045,11.635Z" fill="#e9e5e1"/>
          </g>
          <g id="Group_380" data-name="Group 380">
            <path id="Path_711" data-name="Path 711" d="M484.4,965.435a6.68,6.68,0,0,1-3.339-.985l-37.83-21.776c-4.14-2.385-7.385-8.513-7.385-13.952V907.2c0-3.084,1.091-5.482,2.993-6.575a5.614,5.614,0,0,1,5.737.353L482.4,922.759c4.14,2.383,7.385,8.51,7.385,13.949V958.23c0,3.084-1.091,5.48-2.99,6.575A4.78,4.78,0,0,1,484.4,965.435Zm-43.159-62.763a2.069,2.069,0,0,0-1.06.274c-1.034.594-1.653,2.186-1.653,4.256v21.52c0,4.42,2.77,9.746,6.047,11.635L482.4,962.133a3.116,3.116,0,0,0,3.049.353c1.034-.6,1.653-2.186,1.653-4.256V936.708c0-4.418-2.77-9.746-6.045-11.633L443.226,903.3A4.19,4.19,0,0,0,441.237,902.672Z" fill="#d9d3cc"/>
          </g>
        </g>
        <g id="Group_384" data-name="Group 384">
          <g id="Group_382" data-name="Group 382">
            <path id="Path_712" data-name="Path 712" d="M425.561,932.781a6.749,6.749,0,0,1-3.342-.985L384.392,910.02c-4.14-2.383-7.385-8.51-7.385-13.952V874.546c0-3.082,1.091-5.477,2.99-6.573a5.612,5.612,0,0,1,5.739.353l37.825,21.778c4.14,2.383,7.385,8.51,7.385,13.949v21.522c0,3.082-1.091,5.48-2.99,6.573A4.746,4.746,0,0,1,425.561,932.781Zm-2-3.3a3.12,3.12,0,0,0,3.052.353c1.034-.594,1.65-2.186,1.65-4.256V904.054c0-4.42-2.77-9.746-6.045-11.633l-37.827-21.778a3.128,3.128,0,0,0-3.049-.353c-1.034.6-1.653,2.186-1.653,4.256v21.522c0,4.42,2.77,9.749,6.047,11.633Z" fill="#e9e5e1"/>
          </g>
          <g id="Group_383" data-name="Group 383">
            <path id="Path_713" data-name="Path 713" d="M425.538,931.55a6.742,6.742,0,0,1-3.342-.985l-37.827-21.776c-4.143-2.385-7.385-8.513-7.385-13.951V873.315c0-3.082,1.088-5.477,2.99-6.573a5.614,5.614,0,0,1,5.737.353l37.827,21.778c4.143,2.383,7.385,8.513,7.385,13.952v21.52c0,3.084-1.088,5.48-2.993,6.573A4.73,4.73,0,0,1,425.538,931.55Zm-43.161-62.763a2.1,2.1,0,0,0-1.06.274c-1.032.594-1.65,2.186-1.65,4.254v21.522c0,4.42,2.77,9.746,6.045,11.633l37.827,21.778a3.12,3.12,0,0,0,3.052.353c1.032-.594,1.65-2.186,1.65-4.256v-21.52c0-4.42-2.77-9.749-6.045-11.635l-37.827-21.776A4.165,4.165,0,0,0,382.377,868.788Z" fill="#d9d3cc"/>
          </g>
        </g>
        <path id="Path_714" data-name="Path 714" d="M506.912,985.745,372.765,908.518v-3.879l134.147,77.227Z" fill="#f5b53d"/>
        <g id="Group_386" data-name="Group 386">
          <path id="Path_715" data-name="Path 715" d="M392.909,885.593v7.84a1.93,1.93,0,0,0,2.885,1.671l6.851-3.9a1.921,1.921,0,0,0,.008-3.338l-6.851-3.944A1.928,1.928,0,0,0,392.909,885.593Z" fill="#de4037"/>
          <path id="Path_716" data-name="Path 716" d="M413.222,913.867v-7.84a1.93,1.93,0,0,0-2.885-1.671l-6.851,3.9a1.922,1.922,0,0,0-.01,3.337l6.853,3.944A1.928,1.928,0,0,0,413.222,913.867Z" fill="#de4037"/>
          <path id="Path_717" data-name="Path 717" d="M393.874,906.058l5.434,3.13a1.926,1.926,0,0,0,2.634-2.631l-5.434-9.347a1.93,1.93,0,0,0-3.6.965v6.219A1.918,1.918,0,0,0,393.874,906.058Z" fill="#f5b53d"/>
          <path id="Path_718" data-name="Path 718" d="M412.257,893.4l-5.434-3.128a1.926,1.926,0,0,0-2.634,2.631l5.434,9.347a1.93,1.93,0,0,0,3.6-.965v-6.219A1.925,1.925,0,0,0,412.257,893.4Z" fill="#f5b53d"/>
          <g id="Group_385" data-name="Group 385">
            <path id="Path_719" data-name="Path 719" d="M427.979,908.935c0,2.82-1.769,3.629-4.51,2.05l-3.517-2.024V899.68l3.619,2.086A8.558,8.558,0,0,1,427.979,908.935Zm-2.741-1.551a3.777,3.777,0,0,0-1.722-3.268l-.878-.507v4.517l1,.578C424.614,909.263,425.238,908.748,425.238,907.384Z" fill="#493f41"/>
            <path id="Path_720" data-name="Path 720" d="M435.595,908.684v2.332l-4.176-2.4v1.139l3.791,2.183v2.329l-3.791-2.183v1.152L435.7,915.7v2.329l-6.964-4.011v-9.281Z" fill="#493f41"/>
            <path id="Path_721" data-name="Path 721" d="M439.4,910.878V917.6l3.375,1.943V922.1l-6.06-3.488v-9.281Z" fill="#493f41"/>
            <path id="Path_722" data-name="Path 722" d="M446.16,914.768v9.281l-2.685-1.546v-9.281Z" fill="#493f41"/>
            <path id="Path_723" data-name="Path 723" d="M449.548,916.718l1.676,7.056,1.668-5.132,2.739,1.579-3.1,7.494-2.775-1.6-3.078-11.052Z" fill="#493f41"/>
            <path id="Path_724" data-name="Path 724" d="M463.014,924.471V926.8l-4.174-2.4v1.139l3.794,2.183v2.329l-3.794-2.183v1.152l4.279,2.465v2.329l-6.964-4.011v-9.28Z" fill="#493f41"/>
            <path id="Path_725" data-name="Path 725" d="M468.8,937.084l-.973-2.969-1-.578v2.409L464.14,934.4v-9.281l3.922,2.257a6.228,6.228,0,0,1,3.458,5.316c0,1.351-.452,2.1-1.283,2.2l1.6,3.939Zm-1.976-5.876,1.237.711c.578.333.914.115.914-.6a1.813,1.813,0,0,0-.914-1.612L466.825,929Z" fill="#493f41"/>
            <path id="Path_726" data-name="Path 726" d="M477.424,939.162v2.884l-2.682-1.546v-2.818l-2.965-8.167,2.672,1.541,1.633,4.512,1.571-2.669,2.672,1.538Z" fill="#493f41"/>
            <path id="Path_727" data-name="Path 727" d="M422.137,916.519c-.216-.123-.354-.13-.354.069,0,.832,3,2.042,3,4.443,0,1.474-1.135,1.474-2.438.722a9.643,9.643,0,0,1-2.906-2.731l.708-1.236a8.694,8.694,0,0,0,2.21,2.3c.285.164.465.164.465-.072,0-.86-3-2.022-3-4.349,0-1.321.978-1.592,2.485-.724a9.283,9.283,0,0,1,2.521,2.237l-.693,1.264A10.489,10.489,0,0,0,422.137,916.519Z" fill="#493f41"/>
            <path id="Path_728" data-name="Path 728" d="M430.181,919.572v1.661l-2.988-1.717v.811l2.716,1.564v1.664l-2.716-1.564v.822l3.065,1.763v1.664l-4.985-2.867v-6.626Z" fill="#493f41"/>
            <path id="Path_729" data-name="Path 729" d="M434.314,928.574l-.7-2.119-.719-.415v1.72l-1.92-1.106V920.03l2.806,1.615a4.448,4.448,0,0,1,2.474,3.8c0,.965-.323,1.5-.919,1.569l1.142,2.813Zm-1.417-4.2.886.509c.416.241.652.084.652-.427a1.287,1.287,0,0,0-.652-1.149l-.886-.512Z" fill="#493f41"/>
            <path id="Path_730" data-name="Path 730" d="M438.524,924.374l1.2,5.04,1.191-3.663,1.964,1.131-2.22,5.347-1.987-1.144-2.2-7.891Z" fill="#493f41"/>
            <path id="Path_731" data-name="Path 731" d="M445.159,928.195v6.624l-1.917-1.106v-6.624Z" fill="#493f41"/>
            <path id="Path_732" data-name="Path 732" d="M448.865,932.083c-.7-.4-1.2-.056-1.2.824a2.666,2.666,0,0,0,1.2,2.222,1.287,1.287,0,0,0,1.314,0l1.109,1.989a2.447,2.447,0,0,1-2.523-.131,6.387,6.387,0,0,1-3.072-5.188c0-1.948,1.324-2.6,3.147-1.554a7.218,7.218,0,0,1,2.449,2.618l-1.109.865A3.96,3.96,0,0,0,448.865,932.083Z" fill="#493f41"/>
            <path id="Path_733" data-name="Path 733" d="M456.573,934.765v1.664l-2.988-1.72v.814l2.716,1.561v1.664l-2.716-1.564v.824l3.065,1.763v1.664l-4.982-2.869v-6.624Z" fill="#493f41"/>
          </g>
        </g>
        <path id="Path_734" data-name="Path 734" d="M631.164,974.894a.694.694,0,0,0,1.109-.133,1.126,1.126,0,0,0-.1-1.362.694.694,0,0,0-1.109.133A1.126,1.126,0,0,0,631.164,974.894Z" fill="#493f41"/>
        <path id="Path_735" data-name="Path 735" d="M631.228,974.8a.606.606,0,0,0,.968-.118.984.984,0,0,0-.087-1.187.6.6,0,0,0-.906.038c-.021.023-.041.051-.062.079A.984.984,0,0,0,631.228,974.8Z" fill="#493f41"/>
        <path id="Path_736" data-name="Path 736" d="M631.682,973.305a3.594,3.594,0,0,1,.7.115c.175.072.1,1.272.1,1.272a2.785,2.785,0,0,1-.747.292C631.4,975.043,631.682,973.305,631.682,973.305Z" fill="#493f41"/>
        <path id="Path_737" data-name="Path 737" d="M631.952,974.587a.477.477,0,0,0,.76-.092.773.773,0,0,0-.069-.934.474.474,0,0,0-.76.092A.774.774,0,0,0,631.952,974.587Z" fill="#5c504e"/>
        <path id="Path_738" data-name="Path 738" d="M624.436,974.562l-.97.915,8.166-.826-.089-1.151Z" fill="#493f41"/>
        <path id="Path_739" data-name="Path 739" d="M632.237,971.178c-.085.008-23.15,11.94-23.15,11.94l-.249-.727,22.478-12.122Z" fill="#5c504e"/>
        <path id="Path_740" data-name="Path 740" d="M632.419,991.133l12.546,15.606L607.914,1028.1l-19.586-21.687,19.391,22.571,38.26-22.026Z" fill="#faf8f5"/>
      </g>
      <path id="Path_741" data-name="Path 741" d="M620.809,1065l10.917-6.286a4.623,4.623,0,0,0,1.935-3.691v-6.209c0-1.423-.868-2.078-1.935-1.461l-10.917,6.283a4.626,4.626,0,0,0-1.938,3.691v6.212C618.871,1064.966,619.739,1065.619,620.809,1065Z" fill="#faf8f5"/>
      <path id="Path_742" data-name="Path 742" d="M634.257,1049.067v6.219a4.633,4.633,0,0,1-1.953,3.686l-10.922,6.273c-1.07.614-1.928-.028-1.928-1.443v-6.219a4.61,4.61,0,0,1,1.928-3.683l10.922-6.3C633.374,1046.986,634.257,1047.654,634.257,1049.067Z" fill="#ebe7e3"/>
      <path id="Path_743" data-name="Path 743" d="M634.257,1049.067v.694l-14.8,8.515v-.694a4.61,4.61,0,0,1,1.928-3.683l10.922-6.3C633.374,1046.986,634.257,1047.654,634.257,1049.067Z" fill="#ff8e8c" style="mix-blend-mode: multiply;isolation: isolate"/>
      <g id="Group_388" data-name="Group 388">
        <path id="Path_744" data-name="Path 744" d="M366.25,942.8c0-.164-.046-12.587-.033-20.023-1.373-.658-2.816-1.364-3.632-1.8l-.757-.4.213-1.011c.4-1.139,4-3.082,5.2-2.874a1.2,1.2,0,0,1,1.014,1.218c-.013.681-.023,1.966-.026,3.606,1.35.642,2.436,1.149,2.462,1.159a2.53,2.53,0,0,0,2.775.084l1.376-.878,1.083,1.687-1.378.878a4.457,4.457,0,0,1-4.831-.026c-.033-.013-.634-.289-1.489-.691-.01,7.479.028,18.907.028,19.063Zm-1.638-23.032c.488.243,1.042.512,1.612.788,0-.63.005-1.188.01-1.656A12.614,12.614,0,0,0,364.612,919.764Z" fill="#898184"/>
      </g>
      <path id="Path_745" data-name="Path 745" d="M367.962,942.384a1.575,1.575,0,0,0-1.419,0c-.393.225-.39.591,0,.819a1.584,1.584,0,0,0,1.419,0C368.357,942.978,368.354,942.612,367.962,942.384Z" fill="#898184"/>
      <path id="Path_746" data-name="Path 746" d="M374.666,922.326a1.56,1.56,0,0,0,.732,1.213c.4.218.708.028.7-.425a1.564,1.564,0,0,0-.729-1.213C374.972,921.684,374.659,921.873,374.666,922.326Z" fill="#898184"/>
    </g>
  </g>
</svg>
