<svg xmlns="http://www.w3.org/2000/svg" xmlns:xlink="http://www.w3.org/1999/xlink" width="53.054" height="179.65" viewBox="0 0 53.054 179.65">
  <defs>
    <linearGradient id="linear-gradient" x1="382.396" y1="0.831" x2="382.159" y2="-0.042" gradientUnits="objectBoundingBox">
      <stop offset="0.122" stop-color="#f7413e"/>
      <stop offset="0.99" stop-color="#ff6d67"/>
    </linearGradient>
    <linearGradient id="linear-gradient-2" x1="0.362" y1="0.571" x2="0.902" y2="1.142" gradientUnits="objectBoundingBox">
      <stop offset="0.122" stop-color="#fcbbb5"/>
      <stop offset="0.99" stop-color="#ffc6be"/>
    </linearGradient>
    <linearGradient id="linear-gradient-3" x1="868.985" y1="0.684" x2="870.362" y2="0.188" gradientUnits="objectBoundingBox">
      <stop offset="0.122" stop-color="#fed3c9"/>
      <stop offset="1" stop-color="#fff2ef"/>
    </linearGradient>
    <linearGradient id="linear-gradient-4" x1="1596.961" y1="0.208" x2="1596.253" y2="0.871" xlink:href="#linear-gradient-2"/>
  </defs>
  <g id="Group_608" data-name="Group 608" transform="translate(-769.005 -593.152)">
    <path id="Path_1374" data-name="Path 1374" d="M776.833,746.709c10.391-6,27.188-6.025,37.514-.067s10.274,15.648-.119,21.644-27.186,6.025-37.514.067S766.442,752.705,776.833,746.709Z" fill="#eae2d6" style="mix-blend-mode: multiply;isolation: isolate"/>
    <g id="Group_607" data-name="Group 607">
      <path id="Path_1375" data-name="Path 1375" d="M810.148,759.669c-5.144-3.556-7.549-3.3-7.549-3.3s-6.4.435-5.709-3.4c.564-3.273,1.409-5.295,1.614-6.7a2.967,2.967,0,0,0,.052-.664c-.179-8.314-3.737-21.918-2.638-28.416.82-4.833.129-10.18-.716-15.294a2.016,2.016,0,0,1-.077-.36c-.229-1.431-.46-2.838-.691-4.194a1.862,1.862,0,0,0-.077-.41c-.127-.868-.254-1.712-.358-2.53-.05-.435-.1-.845-.154-1.255-.1-.818-.177-1.61-.2-2.353a21.533,21.533,0,0,1,.052-3.427,10.519,10.519,0,0,1,.358-1.866c2.074-7.238,15.612-9.233,15.612-9.233s1.355,13.53-.87,25.345c-3.456,18.263-4.376,40.283-4.505,46.115-.05,2.4,3.175,4.4,4.659,5.268,2.1,1.2,6.167,3.913,6.167,3.913S815.293,763.224,810.148,759.669Z" fill="#9c9edb"/>
      <path id="Path_1376" data-name="Path 1376" d="M797.865,692.94a161.292,161.292,0,0,1,.512,19.386c-.41,9.233-.974,8.518-.308,15.09.691,6.574,1.945,15.985,1.586,18.109s-2.432,6.421-2.355,9.206a2.363,2.363,0,0,1-.306-1.739c.51-3.273,1.33-5.293,1.509-6.726a2.967,2.967,0,0,0,.052-.664c-.179-8.314-3.737-21.918-2.638-28.416.82-4.833.129-10.18-.716-15.294a2.016,2.016,0,0,1-.077-.36c-.229-1.431-.46-2.838-.691-4.194a1.862,1.862,0,0,0-.077-.41c-.127-.868-.254-1.712-.358-2.53-.05-.435-.1-.845-.154-1.255-.1-.818-.177-1.61-.2-2.353a21.533,21.533,0,0,1,.052-3.427,18.417,18.417,0,0,1,7.728-1.073s.385,1.918-1.663,4.654C798.2,693.094,797.865,692.94,797.865,692.94Z" fill="#e8d0c8" style="mix-blend-mode: multiply;isolation: isolate"/>
      <path id="Path_1377" data-name="Path 1377" d="M805.935,750.548c1.205-.349,2.394,1.352,3.237,2.1,0,0,6.494,3.8,6.689,4.309a4.806,4.806,0,0,1,.275,2.314,5.328,5.328,0,0,1-5.725,1.282c-3.254-1.184-4.424-2.293-6.6-2.827s-6.444-1.411-7-2.592.06-5.131.06-5.131.681-.262.954.223a6.407,6.407,0,0,0,3,2.332,7.181,7.181,0,0,0,3.258.127c-.067-.3-.181-.6.039-.872a2.518,2.518,0,0,1,.608-.449c.291-.2.543-.449.835-.643A1.312,1.312,0,0,1,805.935,750.548Z" fill="#5c6467"/>
      <path id="Path_1378" data-name="Path 1378" d="M800.372,689.155a8.085,8.085,0,0,1-3.121,2.3s-1.305,25.014-3.558,30.488c-2.253,5.5-4.12,25.7-4.07,26.548a14.475,14.475,0,0,0,4.1,9.641c3.916,3.836,5.632,4.579,5.58,5.168a4.8,4.8,0,0,1-5.5,2.915c-3.685-.614-4.709-.87-6.5-2.761s-3.687-3.173-3.968-4.656c-.256-1.483,1-4.4.231-7.186.025-.027,0-.027,0-.052-.027-.154-.077-.333-.129-.537a.44.44,0,0,0-.025-.179c-.052-.179-.077-.41-.127-.641-.1-.639-.206-1.379-.333-2.249-.82-6.14-1.818-17.52-1.407-21.126,1.151-10.18,2.3-9.158,1.969-12.048-.358-2.89-5.067-17.381-4.784-34a2.193,2.193,0,0,1,.281-1.1c2.4-4.756,22.06.04,22.06.04S802.164,686.877,800.372,689.155Z" fill="#9c9edb"/>
      <g id="Group_605" data-name="Group 605">
        <path id="Path_1379" data-name="Path 1379" d="M785.267,754.8c-4.7-21.931-1.53-32.589-.337-36.6.16-.541.287-.97.335-1.238.262-1.506-1.793-9.984-3.152-15.6-.606-2.5-1.13-4.654-1.334-5.707-.683-3.514-.271-14.116-.252-14.566l.639.025c0,.11-.427,10.977.241,14.418.2,1.04.722,3.189,1.328,5.68,1.884,7.779,3.425,14.343,3.158,15.856a13.015,13.015,0,0,1-.352,1.311c-1.18,3.968-4.314,14.512.35,36.282Z" fill="#b0b2ff"/>
      </g>
      <path id="Path_1380" data-name="Path 1380" d="M785.579,761.741a5.9,5.9,0,0,1-2.049-2.711c-.281-1.483.922-4.4.1-7.188l-.077-.229c.025-.027,0-.027,0-.052-.027-.154-.077-.333-.129-.537a.44.44,0,0,0-.025-.179c-.025-.206-.077-.41-.127-.641-.1-.639-.206-1.379-.333-2.249-.82-6.14-1.818-17.52-1.407-21.126,1.151-10.18,2.3-9.158,1.969-12.048-.358-2.89-5.067-17.381-4.784-34a2.193,2.193,0,0,1,.281-1.1c.741.179,1.305.358,1.305.358a60.9,60.9,0,0,0,0,13.888c.9,7.852,4.478,20.782,4.478,22.395,0,1.585-2.457,6.24-2.382,14.859.1,8.62,2.611,20.793,2.459,22.534C784.759,754.938,783.2,757.9,785.579,761.741Z" fill="#e8d0c8" style="mix-blend-mode: multiply;isolation: isolate"/>
      <path id="Path_1381" data-name="Path 1381" d="M793.231,756.821a3.951,3.951,0,0,0-2.015.033,10.95,10.95,0,0,0-2.286.809c-.729.335-.752.618-.7,1.311-.943-.466-3.587-1.781-4-2.78a13.426,13.426,0,0,1-.423-2.725,5.553,5.553,0,0,0-.258,1.506c-.117,1.207-.4,4.273-.352,5.087s4.36,4.315,5.559,5.156c3.092,2.166,4.118,2.979,8.44,3.117s4.078-2.817,4.037-3.516-4.312-4.34-5.492-5.222a8.577,8.577,0,0,1-1.668-2.128A1.631,1.631,0,0,0,793.231,756.821Z" fill="#5c6467"/>
      <path id="Path_1382" data-name="Path 1382" d="M801.45,621.6s2.844-.506,6.394,5.27c3.142,5.116,5.419,8.722,9.019,12.308s4.634,4.149,4.778,6.452-.585,6.658-5.321,4.891-10.272-11.356-12.34-15.413S783.123,621.472,801.45,621.6Z" fill="#fed8d0"/>
      <path id="Path_1383" data-name="Path 1383" d="M816.648,638.921a21.177,21.177,0,0,0-6.269,2.6c-2.569,1.768-12.954-20.06-11.546-20.373,2.157-.481,4.272.389,6.173,1.848C806.826,624.395,816.648,638.921,816.648,638.921Z" fill="#ff5e5e"/>
      <path id="Path_1384" data-name="Path 1384" d="M787.994,597.267s-1.058-6.258-6.956-3.339c-3.354,1.66-7,7.446-2.725,16.7a17.985,17.985,0,0,1-.77,16.935s6.106-.961,8.288-3,1.487-3.843,1.2-10.182S787.994,597.267,787.994,597.267Z" fill="url(#linear-gradient)"/>
      <path id="Path_1385" data-name="Path 1385" d="M810.994,645.24a7.227,7.227,0,0,1-.666,3.454v.025c-.1.2-.2.435-.306.666-.358.741-.793,1.61-1.253,2.761-1.28,3.325,1.407,23.556,1,25.014-.41,1.431-.922,2.788-7.191,4.681-6.987,2.147-16.841,1.918-21.806-.027a10.157,10.157,0,0,1-2.049-1.049s1.357-14.245,1.024-19.565c-.2-3.1-1.818-7.084-3.429-11.1-.077-.179-.154-.385-.231-.564a60.054,60.054,0,0,1-2.688-7.775c-2.661-11.023,1.561-12.327,4.915-14.886a23.452,23.452,0,0,1,9.111-4.117c4.965-1.228,10.339-2.1,11.85-1.943s5.836,2.328,7.653,8.875c1.584,5.678,3.3,10.461,3.864,13.759a10.057,10.057,0,0,1,.179,1.409A1.974,1.974,0,0,1,810.994,645.24Z" fill="#ff6b68"/>
      <path id="Path_1386" data-name="Path 1386" d="M810.994,645.24a7.227,7.227,0,0,1-.666,3.454v.025c-.1.2-.2.435-.306.666-1.28.306-2.867.716-3.787.92-1.768.41-6.169-1.049-6.169-1.049l2.867-1.764s-4.863-1.049-6.117-2.072c-1.228-1.049-.845-3.146-.845-3.146,2.79-3.069,10.493-.562,14.819,1.176a10.057,10.057,0,0,1,.179,1.409A1.974,1.974,0,0,1,810.994,645.24Z" fill="#e79bf2" style="mix-blend-mode: multiply;isolation: isolate"/>
      <path id="Path_1387" data-name="Path 1387" d="M809.765,677.159c-.41,1.431-.922,2.788-7.191,4.681-6.987,2.147-16.841,1.929-21.806-.015a10.3,10.3,0,0,1-2.047-1.049s1.355-14.258,1.022-19.578c-.2-3.1-1.818-7.084-3.429-11.1,1-5.27,2.559-9.183,4.784-9.412,6.758-.718.175,13.715,9.414,14.125,8.542.385,8.149-2.892,12.2-3.472,4.539-.637,6.689-1.009,7.609-2.621-.408.922-.945,1.918-1.559,3.427C807.488,655.47,810.175,675.7,809.765,677.159Z" fill="#fffbf7" style="mix-blend-mode: multiply;isolation: isolate"/>
      <path id="Path_1388" data-name="Path 1388" d="M799.272,675.114l-15.893-8.851s-2.153.757-2.407,5.842c-.171,3.427.179,6.905-.2,9.72a10.3,10.3,0,0,1-2.047-1.049s1.355-14.258,1.022-19.578c-.2-3.248-1.972-7.469-3.66-11.664,4.07-4.348,7.78-7.852,7.78-7.852a83.832,83.832,0,0,0,1.972,9.233c1.474,4.818,10.129,3.591,13.541,1.845-2.859,2.147-10.139,2.763-12.91,1.319a44.205,44.205,0,0,1,.341,8.191Z" fill="#e79bf2" style="mix-blend-mode: multiply;isolation: isolate"/>
      <path id="Path_1389" data-name="Path 1389" d="M775.234,630.551s5.54-1.835,7.772,7.3c3.631,14.874,2.357,22.624,2.444,24.034,6.031,7.5,16.674,13.553,16.924,13.538s3.158.512,3.479.99,4.961,3.356,5.207,3.965,4.285,2.52,4.285,2.52l.473.893s.816.308.831,1.04-.8.8-.8.8.262,1.186-.639,1.257-4.27-1.28-4.385-1.367-.2.075-.2.075,1.243.72,1.426,1.223.144,1.631-1.047,1.111A43.757,43.757,0,0,1,805.951,685c-.818-.6-3.5-3.316-3.791-3.545a9.658,9.658,0,0,0-3.138-3.177,31.581,31.581,0,0,0-3.548-1.652c-5.8-2.357-15.519-8.468-16.106-11.368-1.266-6.248-7.774-26.683-6.916-31.62A4.114,4.114,0,0,1,775.234,630.551Z" fill="#fed8d0"/>
      <g id="Group_606" data-name="Group 606">
        <path id="Path_1390" data-name="Path 1390" d="M780.143,665.816c.558.924,1.634,2.147,6,5.291s12.748,6.579,13.062,6.81,1.855,1.8,1.855,1.8l1.128.087,1.653-.922-.175.551-.648.874a3.648,3.648,0,0,0,.466,1.575c.414.6,2.221,2.526,2.6,2.961a38.446,38.446,0,0,0,5.045,3.019,1.142,1.142,0,0,0,.926-.114c-.131.293-.437.462-1.047.193A43.757,43.757,0,0,1,805.951,685c-.818-.6-3.5-3.316-3.791-3.545a9.658,9.658,0,0,0-3.138-3.177,31.581,31.581,0,0,0-3.548-1.652c-5.167-2.1-13.422-7.167-15.592-10.3C779.96,665.872,780.048,665.656,780.143,665.816Z" fill="#fab4a7"/>
        <path id="Path_1391" data-name="Path 1391" d="M810.631,685.6s.129.077.3.191c-.233-.121-.4-.189-.4-.189l-2.613-2.49-.194-.418,2.89,2.549a19.448,19.448,0,0,0,4.106,1.348c.9-.035,1.068-.079,1.051-.524a1.54,1.54,0,0,0-.454-.909c-.181-.258-2.39-.558-2.873-.809s-2.6-1.619-2.6-1.619,1.493.841,2.777,1.421a9.529,9.529,0,0,0,2.667.666c.223.069.516.583.516.583l.435-.027a.9.9,0,0,0,.206-.7.734.734,0,0,0-.416-.516l-3.227-1.1-1.955-1.3,1.986,1.044s2.575.9,3.056,1.019a1.225,1.225,0,0,1,.76,1.009c.015.734-.8.8-.8.8s.262,1.186-.639,1.257-4.27-1.28-4.385-1.367S810.631,685.6,810.631,685.6Z" fill="#fab4a7"/>
        <path id="Path_1392" data-name="Path 1392" d="M786.462,663.091c-1.628-1.009-.048.356-1.484.383s-3.885-.133-3.885-.133l1.351-.4c2.842-.551,3.006-1.055,3.006-1.055.329.41.67.809,1.016,1.2Z" fill="#fab4a7"/>
      </g>
      <path id="Path_1393" data-name="Path 1393" d="M799.551,683.122a6.286,6.286,0,0,0,.231-1.8,10.674,10.674,0,0,1-.5-2.561,3.063,3.063,0,0,1,1.82-2.925c1.276-.412,2.238-.7,3.1,1.119s-2,2.468-2.126,3.006a18.389,18.389,0,0,1-.158,2.478C801.658,683.334,799.9,684.724,799.551,683.122Z" fill="#fed8d0"/>
      <path id="Path_1394" data-name="Path 1394" d="M797.161,643.494l.025,0a2.528,2.528,0,0,0,.081,1.311c.248.449,3.96,1.252,3.96,1.252l4.349,1.1s-3.41.493-4.068.439-2.273.112-1.811,1.053,5.717.393,7.183.4,2.086-.63,3.9-.624,6.292,3.672,8.207,2.773,3.783-4.548,2.328-7.1-4.926-1.427-6.546-1.421a13.45,13.45,0,0,1-4.114-.774,3.147,3.147,0,0,1-1.605-1.679,13.822,13.822,0,0,0-1.73-1.673c-.55-.481-3.108-2.619-3.335-2.886s-.647-.974-.814-1.18-.531-.711-.956-.229a.2.2,0,0,0-.031.042c-.373.458-.1.855.127,1.656a7.632,7.632,0,0,0,1.828,2.2l1.6,1.585a1.731,1.731,0,0,1-1,.562.916.916,0,0,1-.233.035h0a13.923,13.923,0,0,1-1.761-.085l-.031,0c-2.1-.185-5.1-.568-5.754-.466s-.41.88-.339,1.307a.486.486,0,0,1,.006.243.086.086,0,0,1-.1.042c-.41-.071-.779.518-.825,1.3a.527.527,0,0,0,.223.462A2.45,2.45,0,0,0,797.161,643.494Z" fill="#fed8d0"/>
      <path id="Path_1395" data-name="Path 1395" d="M796.193,613.613a97.692,97.692,0,0,0,.331,9.883c.412,2.692,1.305,4.29-1.732,5.272-1.736.562-8.255-1.228-10.974-4.265-.239-.372.481-.843,1.093-2.963a19.159,19.159,0,0,0,1.047-7.288c-.017-4.18.192-8.008.192-8.008Z" fill="#ffc6be"/>
      <path id="Path_1396" data-name="Path 1396" d="M796.585,623.729a5.9,5.9,0,0,1-2.074-.254c-4.145-1.051-5.271-1.255-6.527,0-1.253,1.228-.793,2.607.614,4.09a12.936,12.936,0,0,1-4.784-3.069c-.231-.358.485-.843,1.1-2.967a19.391,19.391,0,0,0,1.049-7.288v-2l10.391,9.487c.052.691.1,1.307.179,1.766A.745.745,0,0,0,796.585,623.729Z" fill="url(#linear-gradient-2)"/>
      <path id="Path_1397" data-name="Path 1397" d="M792,593.728s6.883,1.444,8.678,6.706,1.5,5.49,1.387,7.6.564,5.062-.246,8.491-1.605,6.337-3.167,6.857-10.47-1.271-13.71-7.342-6.3-11.624-3.816-17.264C782.865,594.826,788.534,592.86,792,593.728Z" fill="#fed8d0"/>
      <path id="Path_1398" data-name="Path 1398" d="M780.6,599.137c1.3-3.441,2.979-4.1,2.979-4.1s1.614-1.756,6.16-1.762a14.271,14.271,0,0,1,9.87,4.161c2.45,2.667,1.439,4.111,1.439,4.111l-.019-.042a1,1,0,0,0-1.324-.535c-1.162.466-1.645,1.373-2.6,1.708-6.683,2.357-8.026.57-8.578,3.66-.556,3.112-.852,4.221-2.251,3.732-2.251-.784-2.149-.3-3.244,1.221a38.752,38.752,0,0,0,1.512,4.382s-.058,1.409-2.63-4.255C780.937,609.08,778.434,605.94,780.6,599.137Z" fill="#ff6d67"/>
      <path id="Path_1399" data-name="Path 1399" d="M785.434,610.838a2.738,2.738,0,0,0-3.181-1.446c-2.213.6-1.792,3.121.579,5.376s2.95-.4,3.065-.578S784.855,612.4,785.434,610.838Z" fill="url(#linear-gradient-3)"/>
      <path id="Path_1400" data-name="Path 1400" d="M784.632,611.144s-.976-1.153-1.926-.653c-1.461.77.652,3.158.854,3.464s1.282.183,1.4-.549S783.885,612.065,784.632,611.144Z" fill="url(#linear-gradient-4)"/>
      <path id="Path_1401" data-name="Path 1401" d="M788.176,608.173a15.007,15.007,0,0,0-.323,4.577,11.657,11.657,0,0,1-.51,4.444,13.814,13.814,0,0,0,0-4.357c-.427-1.585-1.26-2.44-1.139-3.314S788.176,608.173,788.176,608.173Z" fill="#ff6d67"/>
      <path id="Path_1402" data-name="Path 1402" d="M804.739,640.3a.916.916,0,0,1-.233.035l1.014.046,1.624-.645-1.93-.88s-2.292-2.355-2.507-2.757a12.587,12.587,0,0,1-.523-1.8c-.373.458-.1.855.127,1.656a7.632,7.632,0,0,0,1.828,2.2l1.6,1.585A1.731,1.731,0,0,1,804.739,640.3Z" fill="#fab4a7"/>
      <path id="Path_1403" data-name="Path 1403" d="M799.233,641.815c1.362.206,5.359.458,5.359.458l-7.976-1.178a.486.486,0,0,1,.006.243C797.207,641.447,798.213,641.665,799.233,641.815Z" fill="#fab4a7"/>
      <path id="Path_1404" data-name="Path 1404" d="M795.922,643.142a2.45,2.45,0,0,0,1.239.352l.025,0c.346.029,1.94.329,3.258.458,1.218.114,3.421.366,3.752.4-.6-.1-7.031-1.117-7.693-1.115A1.94,1.94,0,0,1,795.922,643.142Z" fill="#fab4a7"/>
    </g>
    <path id="Path_1405" data-name="Path 1405" d="M774.168,630.293a6.234,6.234,0,0,0-2.184,4.23c0,2.438,2.43,13.619,3.223,15.708,3.854.451,9.808-1.313,9.948-2.478s-1.428-9.167-2.813-12.747S778.4,628.529,774.168,630.293Z" fill="#ff5e5e"/>
  </g>
</svg>
