<svg xmlns="http://www.w3.org/2000/svg" xmlns:xlink="http://www.w3.org/1999/xlink" width="244" height="365" viewBox="0 0 244 365">
  <defs>
    <clipPath id="clip-path">
      <rect id="Rectangle_62" data-name="Rectangle 62" width="244" height="365" transform="translate(756.005 317.287)" fill="#fff" stroke="#707070" stroke-width="1"/>
    </clipPath>
  </defs>
  <g id="Mask_Group_1" data-name="Mask Group 1" transform="translate(-756.005 -317.287)" clip-path="url(#clip-path)">
    <g id="Group_575" data-name="Group 575">
      <g id="Group_572" data-name="Group 572">
        <g id="Group_563" data-name="Group 563">
          <g id="Group_533" data-name="Group 533">
            <path id="Path_1010" data-name="Path 1010" d="M889.158,486.145,1231.2,683.707l-114.82,66.247L774.338,552.391Z" fill="#eae2d6" style="mix-blend-mode: multiply;isolation: isolate"/>
            <path id="Path_1011" data-name="Path 1011" d="M884.279,451.5l-98.117,56.609,16.106,13.67,7.139,4.119,101.91-58.8Z" fill="#6b6164"/>
            <path id="Path_1012" data-name="Path 1012" d="M810.979,523.442l.858,1.05-.858,11,14.87-8.66,72.512,53.091L1010,658.907l13.486-11.2,63.126,38.81,1.536-57.084L816.9,497.75Z" fill="#0f0e1b"/>
            <path id="Path_1013" data-name="Path 1013" d="M891.806,414.879l-98.55,56.86,31.378-1.888,98.55-56.86Z" fill="#f3f1ee"/>
            <g id="Group_512" data-name="Group 512">
              <path id="Path_1014" data-name="Path 1014" d="M891.806,414.879v41.477l17.724,10.226c4.643-9.674,15.354-10.981,27.831-3.782,16.728,9.652,19.023,23.535,28.433,51.144.756,2.216,1.843,6.8,1.843,6.8l140.912,81.3q-.047-2.759-.046-5.767c0-19.182,13.564-26.912,30.294-17.26s30.292,33.033,30.292,52.217q0,3.04-.1,5.68l44.93,25.923V503.335L939.37,344.934,923.185,412.99Z" fill="#e4dfd9"/>
              <path id="Path_1015" data-name="Path 1015" d="M912.244,483.048c0,14.882,10.522,33.016,23.5,40.5s23.5,1.494,23.5-13.388-10.52-33.016-23.5-40.5S912.244,468.165,912.244,483.048Z" fill="#2d2c37"/>
              <ellipse id="Ellipse_12" data-name="Ellipse 12" cx="19.123" cy="33.112" rx="19.123" ry="33.112" transform="matrix(0.863, -0.504, 0.505, 0.863, 1105.565, 594.824)" fill="#2d2c37"/>
              <ellipse id="Ellipse_13" data-name="Ellipse 13" cx="13.286" cy="23.006" rx="13.286" ry="23.006" transform="matrix(0.863, -0.504, 0.505, 0.863, 1115.708, 600.604)" fill="#504f58"/>
              <path id="Path_1016" data-name="Path 1016" d="M1124,605.225c0,9.369,6.625,20.785,14.794,25.5s14.792.94,14.792-8.428-6.623-20.784-14.792-25.5S1124,595.856,1124,605.225Z" fill="#c2c7d6"/>
              <ellipse id="Ellipse_14" data-name="Ellipse 14" cx="10.829" cy="18.75" rx="10.829" ry="18.75" transform="matrix(0.863, -0.504, 0.505, 0.863, 1119.978, 603.037)" fill="#a5acc2"/>
              <path id="Path_1017" data-name="Path 1017" d="M1130.633,609.049c0,5.17,3.654,11.47,8.163,14.071s8.163.52,8.163-4.65S1143.3,607,1138.8,604.4,1130.633,603.879,1130.633,609.049Z" fill="#cfd9e7"/>
              <ellipse id="Ellipse_15" data-name="Ellipse 15" cx="13.286" cy="23.006" rx="13.286" ry="23.006" transform="matrix(0.863, -0.504, 0.505, 0.863, 912.655, 483.45)" fill="#504f58"/>
              <path id="Path_1018" data-name="Path 1018" d="M920.951,488.07c0,9.369,6.623,20.784,14.792,25.5s14.794.94,14.794-8.428-6.625-20.785-14.794-25.5S920.951,478.7,920.951,488.07Z" fill="#b5bbcd"/>
              <path id="Path_1019" data-name="Path 1019" d="M924.4,490.061c0,7.184,5.08,15.939,11.344,19.553s11.344.722,11.344-6.462-5.08-15.941-11.344-19.555S924.4,482.875,924.4,490.061Z" fill="#cfd9e7"/>
              <path id="Path_1020" data-name="Path 1020" d="M929.554,493.034a13.628,13.628,0,0,0,6.19,10.669c3.419,1.972,6.19.393,6.19-3.526a13.628,13.628,0,0,0-6.19-10.669C932.325,487.537,929.554,489.114,929.554,493.034Z" fill="#e1e7ef"/>
              <path id="Path_1021" data-name="Path 1021" d="M932.381,494.665a7.4,7.4,0,0,0,3.362,5.8c1.857,1.071,3.362.214,3.362-1.916a7.409,7.409,0,0,0-3.362-5.8C933.886,491.68,932.381,492.537,932.381,494.665Z" fill="#c2c7d6"/>
              <path id="Path_1022" data-name="Path 1022" d="M883.831,465.495l17.27,14.081,7.927,4.574,1.84-16.794-27.038-15.6Z" fill="#b5bbcd"/>
              <g id="Group_508" data-name="Group 508">
                <path id="Path_1023" data-name="Path 1023" d="M1011,540.024v-126.5l-56.528-32.615v80.731l18.591,56.5Z" fill="#cdc6bc"/>
              </g>
              <path id="Path_1024" data-name="Path 1024" d="M938.142,361.107l12.74,7.351v72.065l-18.874-10.89-5.334-14.837Z" fill="#2d2c37"/>
              <path id="Path_1025" data-name="Path 1025" d="M949.184,437.594V369.425l-9.732-5.615-10.967,51.8,4.556,12.672Z" fill="#7572a4"/>
              <g id="Group_509" data-name="Group 509">
                <path id="Path_1026" data-name="Path 1026" d="M967.636,516.743l46,26.542v4l-46-26.542Z" fill="#9b897f"/>
              </g>
              <path id="Path_1027" data-name="Path 1027" d="M896.878,435.823l6.748,3.893v-7.738l-6.748-3.893Z" fill="#504f58"/>
              <path id="Path_1028" data-name="Path 1028" d="M897.451,435.5l5.6,3.232V432.3l-5.6-3.232Z" fill="#ff9a2e"/>
              <path id="Path_1029" data-name="Path 1029" d="M1096.4,571.094a5.64,5.64,0,0,0,2.565,4.421c1.418.818,2.565.164,2.565-1.461a5.648,5.648,0,0,0-2.565-4.423C1097.545,568.813,1096.4,569.469,1096.4,571.094Z" fill="#f9f1ec"/>
              <path id="Path_1030" data-name="Path 1030" d="M1096.787,571.318a4.793,4.793,0,0,0,2.176,3.751c1.2.693,2.178.137,2.178-1.24a4.792,4.792,0,0,0-2.178-3.751C1097.762,569.383,1096.787,569.939,1096.787,571.318Z" fill="#ff9a2e"/>
              <path id="Path_1031" data-name="Path 1031" d="M1019.477,526.714a5.65,5.65,0,0,0,2.567,4.423c1.418.818,2.565.162,2.565-1.463a5.647,5.647,0,0,0-2.565-4.423C1020.626,524.433,1019.477,525.089,1019.477,526.714Z" fill="#f9f1ec"/>
              <path id="Path_1032" data-name="Path 1032" d="M1019.866,526.938a4.8,4.8,0,0,0,2.178,3.751c1.2.693,2.176.139,2.176-1.24a4.79,4.79,0,0,0-2.176-3.751C1020.842,525,1019.866,525.559,1019.866,526.938Z" fill="#ff9a2e"/>
              <path id="Path_1033" data-name="Path 1033" d="M968.79,450.853l30.388,17.533c3.219,1.858,5.827-.114,5.827-4.4v-41.34c0-4.288-2.609-9.269-5.827-11.127L968.79,393.984c-3.219-1.856-5.827.114-5.827,4.4v41.34C962.963,444.015,965.571,449,968.79,450.853Z" fill="#2d2c37"/>
              <path id="Path_1034" data-name="Path 1034" d="M1003.306,463.32V421.349c0-3.04-1.849-6.568-4.128-7.885L968.79,395.934c-2.28-1.317-4.128.079-4.128,3.119v41.971c0,3.038,1.849,6.566,4.128,7.883l30.388,17.533C1001.458,467.754,1003.306,466.358,1003.306,463.32Z" fill="#7572a4"/>
              <path id="Path_1035" data-name="Path 1035" d="M942.216,504.192a2.738,2.738,0,0,1-2.854,1.762c-.535.01-.877.485-.71,1.207h0A1.931,1.931,0,0,0,940.3,508.6a4.225,4.225,0,0,0,3.791-2.339,1.976,1.976,0,0,0-.5-2.155h0C943.045,503.626,942.472,503.716,942.216,504.192Z" fill="#504f58"/>
              <path id="Path_1036" data-name="Path 1036" d="M929.271,489.019a2.739,2.739,0,0,1,2.856-1.762c.533-.008.876-.483.708-1.207h0a1.931,1.931,0,0,0-1.649-1.444,4.225,4.225,0,0,0-3.791,2.339,1.977,1.977,0,0,0,.5,2.155h0C928.444,489.587,929.014,489.5,929.271,489.019Z" fill="#504f58"/>
              <path id="Path_1037" data-name="Path 1037" d="M932.385,502.091a12.91,12.91,0,0,1-2.975-4.991A2.543,2.543,0,0,0,928,495.475h0c-.545-.123-.8.618-.431,1.642a20.452,20.452,0,0,0,3.947,6.626c.722.805,1.484.92,1.63.37h0A2.589,2.589,0,0,0,932.385,502.091Z" fill="#504f58"/>
              <path id="Path_1038" data-name="Path 1038" d="M939.1,491.12a12.931,12.931,0,0,1,2.973,4.991,2.544,2.544,0,0,0,1.407,1.625h0c.545.123.8-.616.431-1.642a20.442,20.442,0,0,0-3.947-6.624c-.722-.807-1.484-.92-1.63-.372h0A2.582,2.582,0,0,0,939.1,491.12Z" fill="#504f58"/>
              <g id="Group_510" data-name="Group 510">
                <path id="Path_1039" data-name="Path 1039" d="M929.176,459.153h-.909V433.329l-5.522-20.22.879-.238,5.551,20.4Z" fill="#c9c3b9"/>
              </g>
              <g id="Group_511" data-name="Group 511">
                <rect id="Rectangle_51" data-name="Rectangle 51" width="0.909" height="34.173" transform="matrix(0.041, -0.999, 0.999, 0.041, 891.789, 422.176)" fill="#c9c3b9"/>
              </g>
            </g>
            <g id="Group_526" data-name="Group 526">
              <path id="Path_1040" data-name="Path 1040" d="M786.163,521.846l12.107,15.479,11.137,6.426V525.894l-7.139-4.119-16.106-13.67Z" fill="#3f3436"/>
              <path id="Path_1041" data-name="Path 1041" d="M875.207,558.648c0-14.882-10.52-33.016-23.5-40.5-6.469-3.732-12.325-4.115-16.576-1.716h0l0,0-.1.056-14.84,8.57v11.487l33.328,45.722,13.918-8.081A11,11,0,0,0,869.3,573.1l.006,0v0C872.979,570.459,875.207,565.495,875.207,558.648Z" fill="#23222d"/>
              <path id="Path_1042" data-name="Path 1042" d="M860.692,567.024c0,14.882-10.52,20.876-23.5,13.388s-23.5-25.622-23.5-40.5,10.522-20.878,23.5-13.39S860.692,552.142,860.692,567.024Z" fill="#393843"/>
              <ellipse id="Ellipse_16" data-name="Ellipse 16" cx="18.395" cy="31.853" rx="18.395" ry="31.853" transform="matrix(0.863, -0.504, 0.505, 0.863, 804.654, 535.496)" fill="#2d2c37"/>
              <path id="Path_1043" data-name="Path 1043" d="M853.084,563.213c0,10.338-7.31,14.5-16.327,9.3s-16.327-17.8-16.327-28.141,7.31-14.505,16.327-9.3S853.084,552.872,853.084,563.213Z" fill="#504f58"/>
              <path id="Path_1044" data-name="Path 1044" d="M851.987,562c0,9.369-6.625,13.143-14.794,8.428S822.4,554.3,822.4,544.931s6.623-13.143,14.792-8.428S851.987,552.631,851.987,562Z" fill="#c4c2bb"/>
              <path id="Path_1045" data-name="Path 1045" d="M850.136,560.932c0,8.2-5.794,11.5-12.943,7.375S824.249,554.2,824.249,546s5.8-11.5,12.943-7.376S850.136,552.737,850.136,560.932Z" fill="#b7b4a9"/>
              <path id="Path_1046" data-name="Path 1046" d="M848.537,560.011c0,7.184-5.078,10.078-11.344,6.464S825.848,554.1,825.848,546.92s5.08-10.078,11.345-6.462S848.537,552.826,848.537,560.011Z" fill="#d5d2c9"/>
              <path id="Path_1047" data-name="Path 1047" d="M843.028,558.232c0,4.294-3.035,6.023-6.781,3.864a14.931,14.931,0,0,1-6.781-11.688c0-4.294,3.035-6.023,6.781-3.864A14.931,14.931,0,0,1,843.028,558.232Z" fill="#cac6bc"/>
              <path id="Path_1048" data-name="Path 1048" d="M830.72,553.584a12.866,12.866,0,0,0,2.856,5.056,2.523,2.523,0,0,1,.708,2.024h0c-.167.528-.939.372-1.649-.458a20.441,20.441,0,0,1-3.791-6.714c-.339-1.024-.054-1.733.5-1.581h0A2.6,2.6,0,0,1,830.72,553.584Z" fill="#504f58"/>
              <path id="Path_1049" data-name="Path 1049" d="M841.407,557.807c0,3.782-2.673,5.305-5.971,3.4a13.153,13.153,0,0,1-5.973-10.294c0-3.782,2.675-5.305,5.973-3.4A13.147,13.147,0,0,1,841.407,557.807Z" fill="#dddddb"/>
              <path id="Path_1050" data-name="Path 1050" d="M838.679,556.234c0,2.054-1.453,2.882-3.244,1.848a7.136,7.136,0,0,1-3.244-5.59c0-2.056,1.451-2.884,3.244-1.85A7.145,7.145,0,0,1,838.679,556.234Z" fill="#b7b4a9"/>
              <path id="Path_1051" data-name="Path 1051" d="M843.665,553.349a12.88,12.88,0,0,0-2.854-5.058,2.526,2.526,0,0,1-.71-2.024h0c.169-.528.939-.372,1.649.458a20.441,20.441,0,0,1,3.791,6.714c.339,1.026.056,1.733-.5,1.583h0A2.606,2.606,0,0,1,843.665,553.349Z" fill="#504f58"/>
              <path id="Path_1052" data-name="Path 1052" d="M840.553,562.826a2.741,2.741,0,0,0,2.973-1.558c.277-.454.862-.508,1.407,0h0a1.905,1.905,0,0,1,.431,2.139,4.229,4.229,0,0,1-3.947,2.07,2,2,0,0,1-1.63-1.51h0C839.641,563.25,840.008,562.8,840.553,562.826Z" fill="#504f58"/>
              <path id="Path_1053" data-name="Path 1053" d="M833.835,544.1a2.743,2.743,0,0,0-2.973,1.558c-.279.454-.864.508-1.409,0h0a1.906,1.906,0,0,1-.431-2.137,4.234,4.234,0,0,1,3.947-2.072,2,2,0,0,1,1.63,1.51h0C834.744,543.683,834.378,544.126,833.835,544.1Z" fill="#504f58"/>
              <g id="Group_513" data-name="Group 513">
                <path id="Path_1054" data-name="Path 1054" d="M1078.26,675.8c0-14.88-10.52-33.016-23.5-40.5-6.862-3.959-13.037-4.146-17.332-1.246l-14.692,8.5,9.947,16.209A55.274,55.274,0,0,0,1048.6,684.7l8.755,14.262,12.906-7.521a11.154,11.154,0,0,0,2.336-1.361h0C1076.128,687.4,1078.26,682.5,1078.26,675.8Z" fill="#23222d"/>
                <path id="Path_1055" data-name="Path 1055" d="M1063.745,684.177c0,14.882-10.52,20.876-23.5,13.388s-23.5-25.622-23.5-40.5,10.52-20.876,23.5-13.388S1063.745,669.295,1063.745,684.177Z" fill="#393843"/>
                <ellipse id="Ellipse_17" data-name="Ellipse 17" cx="18.396" cy="31.853" rx="18.396" ry="31.853" transform="matrix(0.863, -0.504, 0.505, 0.863, 1006.813, 652.649)" fill="#2d2c37"/>
                <ellipse id="Ellipse_18" data-name="Ellipse 18" cx="13.286" cy="23.006" rx="13.286" ry="23.006" transform="matrix(0.863, -0.504, 0.505, 0.863, 1016.721, 657.79)" fill="#504f58"/>
                <path id="Path_1056" data-name="Path 1056" d="M1055.038,679.154c0,9.369-6.623,13.141-14.792,8.428s-14.792-16.13-14.792-25.5,6.623-13.143,14.792-8.428S1055.038,669.786,1055.038,679.154Z" fill="#c4c2bb"/>
                <path id="Path_1057" data-name="Path 1057" d="M1053.554,678.3c0,8.424-5.961,11.82-13.31,7.579s-13.3-14.51-13.3-22.934,5.954-11.824,13.3-7.583a19.345,19.345,0,0,1,1.978,1.311,30.383,30.383,0,0,1,11.172,19.17A19.8,19.8,0,0,1,1053.554,678.3Z" fill="#b0ac9e"/>
                <path id="Path_1058" data-name="Path 1058" d="M1045.049,682.45c-6.958-4.013-12.6-13.736-12.6-21.712,0-3.225.922-5.669,2.478-7.176-4.7-.362-7.99,3.119-7.99,9.381,0,8.424,5.954,18.7,13.3,22.934,5.355,3.09,9.968,2.122,12.079-1.887C1050.269,684.476,1047.76,684.012,1045.049,682.45Z" fill="#b7b4a9"/>
                <path id="Path_1059" data-name="Path 1059" d="M1053.394,675.84c-1.4,2.029-4.058,2.411-7.1.653-4.509-2.6-8.163-8.9-8.163-14.071,0-3.472,1.647-5.553,4.1-5.753A30.383,30.383,0,0,1,1053.394,675.84Z" fill="#9d9783"/>
                <path id="Path_1060" data-name="Path 1060" d="M1040.246,657.353l-6.121,3.543,12.06,19.567,6.037-3.483-4.121-9.84Z" fill="#9d9783"/>
                <path id="Path_1061" data-name="Path 1061" d="M1048.409,675.328c0,5.17-3.656,7.253-8.163,4.652s-8.163-8.9-8.163-14.071,3.654-7.253,8.163-4.652S1048.409,670.158,1048.409,675.328Z" fill="#d5d2c9"/>
              </g>
              <path id="Path_1062" data-name="Path 1062" d="M793.255,471.74v41.477l17.724,10.224c4.643-9.674,15.354-10.979,27.831-3.78,16.728,9.652,19.023,23.533,28.433,51.142.756,2.218,1.843,6.8,1.843,6.8L1010,658.907q-.047-2.759-.046-5.765c0-19.185,13.564-26.914,30.294-17.26s30.294,33.033,30.294,52.215q0,3.04-.106,5.68l44.93,25.923V560.2l-274.545-158.4-16.185,68.056Z" fill="#ded8d1"/>
              <g id="Group_515" data-name="Group 515">
                <g id="Group_514" data-name="Group 514">
                  <path id="Path_1063" data-name="Path 1063" d="M1107.909,692.343c0,1.625-1.149,2.28-2.567,1.463a5.648,5.648,0,0,1-2.565-4.423c0-1.625,1.147-2.278,2.565-1.461A5.646,5.646,0,0,1,1107.909,692.343Z" fill="#b5aa9c"/>
                </g>
                <path id="Path_1064" data-name="Path 1064" d="M1108.186,691.047c0,1.625-1.149,2.28-2.565,1.463a5.649,5.649,0,0,1-2.567-4.423c0-1.625,1.149-2.278,2.567-1.461A5.65,5.65,0,0,1,1108.186,691.047Z" fill="#9da1bf"/>
                <path id="Path_1065" data-name="Path 1065" d="M1107.628,691.292c0,1.625-1.149,2.28-2.565,1.463a5.65,5.65,0,0,1-2.567-4.423c0-1.625,1.149-2.28,2.567-1.463A5.653,5.653,0,0,1,1107.628,691.292Z" fill="#f9f1ec"/>
                <path id="Path_1066" data-name="Path 1066" d="M1107.239,691.067c0,1.377-.974,1.933-2.176,1.24a4.79,4.79,0,0,1-2.178-3.751c0-1.379.974-1.933,2.178-1.24A4.793,4.793,0,0,1,1107.239,691.067Z" fill="#e06f2e"/>
              </g>
              <g id="Group_517" data-name="Group 517">
                <g id="Group_516" data-name="Group 516">
                  <path id="Path_1067" data-name="Path 1067" d="M1003.258,631.966c0,1.625-1.149,2.278-2.565,1.461a5.644,5.644,0,0,1-2.565-4.421c0-1.625,1.147-2.28,2.565-1.463A5.653,5.653,0,0,1,1003.258,631.966Z" fill="#b5aa9c"/>
                </g>
                <path id="Path_1068" data-name="Path 1068" d="M1003.537,630.667c0,1.627-1.149,2.28-2.567,1.463a5.65,5.65,0,0,1-2.565-4.423c0-1.623,1.149-2.278,2.565-1.461A5.649,5.649,0,0,1,1003.537,630.667Z" fill="#9da1bf"/>
                <path id="Path_1069" data-name="Path 1069" d="M1002.979,630.913c0,1.625-1.149,2.28-2.567,1.463a5.653,5.653,0,0,1-2.565-4.423c0-1.625,1.149-2.278,2.565-1.461A5.646,5.646,0,0,1,1002.979,630.913Z" fill="#f9f1ec"/>
                <path id="Path_1070" data-name="Path 1070" d="M1002.59,630.688c0,1.379-.974,1.935-2.178,1.24a4.79,4.79,0,0,1-2.176-3.751c0-1.377.974-1.933,2.176-1.24A4.793,4.793,0,0,1,1002.59,630.688Z" fill="#e06f2e"/>
              </g>
              <g id="Group_519" data-name="Group 519">
                <g id="Group_518" data-name="Group 518">
                  <path id="Path_1071" data-name="Path 1071" d="M926.339,587.586c0,1.625-1.149,2.278-2.565,1.461a5.646,5.646,0,0,1-2.567-4.421c0-1.625,1.149-2.28,2.567-1.463A5.653,5.653,0,0,1,926.339,587.586Z" fill="#b5aa9c"/>
                </g>
                <path id="Path_1072" data-name="Path 1072" d="M926.618,586.29c0,1.625-1.149,2.278-2.567,1.461a5.649,5.649,0,0,1-2.565-4.421c0-1.625,1.149-2.28,2.565-1.463A5.65,5.65,0,0,1,926.618,586.29Z" fill="#9da1bf"/>
                <path id="Path_1073" data-name="Path 1073" d="M926.058,586.533c0,1.625-1.147,2.28-2.565,1.463a5.648,5.648,0,0,1-2.565-4.423c0-1.625,1.147-2.278,2.565-1.461A5.644,5.644,0,0,1,926.058,586.533Z" fill="#f9f1ec"/>
                <path id="Path_1074" data-name="Path 1074" d="M925.669,586.309c0,1.379-.974,1.935-2.176,1.24a4.79,4.79,0,0,1-2.176-3.751c0-1.377.974-1.933,2.176-1.24A4.8,4.8,0,0,1,925.669,586.309Z" fill="#e06f2e"/>
              </g>
              <path id="Path_1075" data-name="Path 1075" d="M843.095,398.127l271,156.4,1.271,5.672L840.82,401.794Z" fill="#f3f1ee"/>
              <path id="Path_1076" data-name="Path 1076" d="M1212.645,497.663l-98.55,56.86,1.271,5.672,98.55-56.86Z" fill="#f3f1ee"/>
              <g id="Group_520" data-name="Group 520">
                <path id="Path_1077" data-name="Path 1077" d="M912.447,596.884v-126.5l-56.528-32.615V518.5L874.51,575Z" fill="#cdc6bc"/>
              </g>
              <path id="Path_1078" data-name="Path 1078" d="M912.447,593.487,909.9,592.02V471.739l-51.042-29.374v-2.9l53.584,30.916Z" fill="#f2f1f0" style="mix-blend-mode: multiply;isolation: isolate"/>
              <path id="Path_1079" data-name="Path 1079" d="M839.592,417.966l12.74,7.35v72.065l-18.875-10.89-5.334-14.837Z" fill="#2d2c37"/>
              <path id="Path_1080" data-name="Path 1080" d="M850.633,426.283v68.171L834.49,485.14l-4.557-12.672,10.968-51.8.843.487Z" fill="#573f3f"/>
              <g id="Group_521" data-name="Group 521">
                <path id="Path_1081" data-name="Path 1081" d="M1098.851,556.943l8.777,5.064v-3.9l-8.777-5.064Z" fill="#cdc6bc"/>
              </g>
              <path id="Path_1082" data-name="Path 1082" d="M1099.628,556.7l7.223,4.167v-2.881l-7.223-4.167Z" fill="#e06f2e"/>
              <g id="Group_522" data-name="Group 522">
                <path id="Path_1083" data-name="Path 1083" d="M989.46,493.829l8.777,5.064V495l-8.777-5.064Z" fill="#cdc6bc"/>
              </g>
              <path id="Path_1084" data-name="Path 1084" d="M990.237,493.587l7.222,4.167v-2.881l-7.222-4.167Z" fill="#e06f2e"/>
              <g id="Group_523" data-name="Group 523">
                <path id="Path_1085" data-name="Path 1085" d="M851.53,414.248l8.777,5.064v-3.9l-8.777-5.064Z" fill="#cdc6bc"/>
              </g>
              <path id="Path_1086" data-name="Path 1086" d="M852.307,414.007l7.222,4.167v-2.881l-7.222-4.167Z" fill="#e06f2e"/>
              <path id="Path_1087" data-name="Path 1087" d="M870.239,507.712l30.388,17.533c3.219,1.858,5.827-.112,5.827-4.4V479.5c0-4.288-2.609-9.271-5.827-11.127l-30.388-17.533c-3.219-1.858-5.827.112-5.827,4.4v41.338C864.412,500.874,867.021,505.856,870.239,507.712Z" fill="#2d2c37"/>
              <path id="Path_1088" data-name="Path 1088" d="M904.756,520.179V478.208c0-3.038-1.849-6.568-4.128-7.883l-30.388-17.533c-2.28-1.315-4.128.081-4.128,3.119v41.971c0,3.038,1.849,6.568,4.128,7.883L900.627,523.3C902.907,524.612,904.756,523.216,904.756,520.179Z" fill="#573f3f"/>
              <path id="Path_1089" data-name="Path 1089" d="M891.261,567.228l9.367,5.4c3.219,1.858,5.827-.112,5.827-4.4V541.906c0-4.288-2.609-9.271-5.827-11.127l-9.367-5.405c-3.219-1.856-5.827.114-5.827,4.4V556.1C885.433,560.389,888.042,565.37,891.261,567.228Z" fill="#2d2c37"/>
              <path id="Path_1090" data-name="Path 1090" d="M904.756,567.565V540.61c0-3.038-1.849-6.568-4.128-7.883l-9.367-5.4c-2.28-1.317-4.128.079-4.128,3.119V557.4c0,3.04,1.849,6.568,4.128,7.885l9.367,5.4C902.907,572,904.756,570.6,904.756,567.565Z" fill="#573f3f"/>
              <g id="Group_524" data-name="Group 524">
                <path id="Path_1091" data-name="Path 1091" d="M830.625,516.013h-.909V490.189l-5.521-20.22.879-.238,5.551,20.4Z" fill="#c9c3b9"/>
              </g>
              <g id="Group_525" data-name="Group 525">
                <rect id="Rectangle_52" data-name="Rectangle 52" width="0.909" height="34.177" transform="matrix(0.041, -0.999, 0.999, 0.041, 793.238, 479.036)" fill="#c9c3b9"/>
              </g>
            </g>
            <path id="Path_1092" data-name="Path 1092" d="M1115.365,719.7l98.55-56.86v-159.5l-98.55,56.86Z" fill="#ebe7e3"/>
            <path id="Path_1093" data-name="Path 1093" d="M1115.365,719.7l98.55-56.86V649.162l-98.55,56.86Z" fill="#554d4e"/>
            <path id="Path_1094" data-name="Path 1094" d="M1202.067,538.029V666.8l-74.854,43.189V581.215Z" fill="#9b897f"/>
            <path id="Path_1095" data-name="Path 1095" d="M1202.067,538.029v116.8l-74.854-43.189V581.215Z" fill="#856f63"/>
            <g id="Group_527" data-name="Group 527">
              <path id="Path_1096" data-name="Path 1096" d="M1149.861,649.184l21.093-12.17V612.827L1149.861,625Z" fill="#c99a6b"/>
              <path id="Path_1097" data-name="Path 1097" d="M1149.861,649.184l-21.093-12.17V612.827L1149.861,625Z" fill="#ae835b"/>
              <path id="Path_1098" data-name="Path 1098" d="M1149.861,625l-21.093-12.17,21.093-12.17,21.093,12.17Z" fill="#ae835b"/>
              <path id="Path_1099" data-name="Path 1099" d="M1159.366,629.067l3.389-1.955v-9.555l-3.389,1.956Z" fill="#d9af84"/>
              <path id="Path_1100" data-name="Path 1100" d="M1159.366,619.512l-21.093-12.17,3.389-1.955,21.093,12.17Z" fill="#ebcbab"/>
            </g>
            <g id="Group_528" data-name="Group 528">
              <path id="Path_1101" data-name="Path 1101" d="M1149.861,624.192l21.093-12.17V587.834L1149.861,600Z" fill="#c99a6b"/>
              <path id="Path_1102" data-name="Path 1102" d="M1149.861,624.192l-21.093-12.17V587.834L1149.861,600Z" fill="#ae835b"/>
              <path id="Path_1103" data-name="Path 1103" d="M1149.861,600l-21.093-12.17,21.093-12.17,21.093,12.17Z" fill="#e8b687"/>
              <path id="Path_1104" data-name="Path 1104" d="M1159.366,604.075l3.389-1.956v-9.555l-3.389,1.956Z" fill="#d9af84"/>
              <path id="Path_1105" data-name="Path 1105" d="M1159.366,594.52l-21.093-12.17,3.389-1.955,21.093,12.17Z" fill="#ebcbab"/>
            </g>
            <g id="Group_529" data-name="Group 529">
              <path id="Path_1106" data-name="Path 1106" d="M1173.833,663.015l21.093-12.17V626.657l-21.093,12.17Z" fill="#c99a6b"/>
              <path id="Path_1107" data-name="Path 1107" d="M1173.833,663.015l-21.093-12.17V626.657l21.093,12.17Z" fill="#ae835b"/>
              <path id="Path_1108" data-name="Path 1108" d="M1173.833,638.827l-21.093-12.17,21.093-12.17,21.093,12.17Z" fill="#e8b687"/>
              <path id="Path_1109" data-name="Path 1109" d="M1183.339,642.9l3.389-1.955v-9.555l-3.389,1.955Z" fill="#d9af84"/>
              <path id="Path_1110" data-name="Path 1110" d="M1183.339,633.343l-21.093-12.17,3.389-1.955,21.093,12.17Z" fill="#ebcbab"/>
            </g>
            <path id="Path_1111" data-name="Path 1111" d="M1127.214,622.619l74.852-43.187v-41.4l-74.852,43.187Z" fill="#fcfbfa"/>
            <path id="Path_1112" data-name="Path 1112" d="M1127.214,612.085l74.852-43.187v-1.317l-74.852,43.187Z" fill="#f0ece9"/>
            <path id="Path_1113" data-name="Path 1113" d="M1127.214,602.412l74.852-43.187v-1.317l-74.852,43.187Z" fill="#f0ece9"/>
            <path id="Path_1114" data-name="Path 1114" d="M1127.214,592.739l74.852-43.187v-1.317l-74.852,43.187Z" fill="#f0ece9"/>
            <path id="Path_1115" data-name="Path 1115" d="M1127.214,583.066l74.852-43.187v-1.317l-74.852,43.187Z" fill="#f0ece9"/>
            <path id="Path_1116" data-name="Path 1116" d="M1202.067,666.8l-3.155-1.82-71.7,41.366v3.641Z" fill="#6b6164"/>
            <g id="Group_530" data-name="Group 530">
              <path id="Path_1117" data-name="Path 1117" d="M1131.479,726.112l-16.114-9.3,98.55-56.86,16.114,9.3Z" fill="#6b6164"/>
              <path id="Path_1118" data-name="Path 1118" d="M1131.479,726.112l-16.114-9.3V719.7l16.114,9.3Z" fill="#493f41"/>
              <path id="Path_1119" data-name="Path 1119" d="M1230.03,669.252l-98.551,56.86V729l98.551-56.86Z" fill="#554d4e"/>
            </g>
            <path id="Path_1120" data-name="Path 1120" d="M939.58,340.287l273.065,157.376-98.55,56.86-271-156.4Z" fill="#fcfbfa"/>
            <g id="Group_531" data-name="Group 531">
              <path id="Path_1121" data-name="Path 1121" d="M1108.651,667.725,912.574,554.6v-5.682l2.515-2.879,193.562,116.008,2.515,2.8Z" fill="#cdc6bc"/>
              <path id="Path_1122" data-name="Path 1122" d="M1109.326,660.226,913.249,547.1l1.841-1.062,196.077,113.129Z" fill="#6b6164"/>
              <path id="Path_1123" data-name="Path 1123" d="M1109.326,660.226v5.681l1.841-1.062v-5.682Z" fill="#554d4e"/>
              <path id="Path_1124" data-name="Path 1124" d="M1109.326,665.908,913.249,552.779V547.1l196.077,113.129Z" fill="#3f3436"/>
            </g>
            <path id="Path_1125" data-name="Path 1125" d="M877.453,573.3l-18.591-56.5V439.464l-2.944-1.7V518.5L874.51,575l37.937,21.888v-3.4Z" fill="#9b897f"/>
            <path id="Path_1126" data-name="Path 1126" d="M877.453,573.3,874.51,575l37.937,21.888v-3.4Z" fill="#f3f1ee"/>
            <g id="Group_532" data-name="Group 532">
              <path id="Path_1127" data-name="Path 1127" d="M907.816,605.46l-46-26.542V581.8l46,26.542Z" fill="#3f3436"/>
              <path id="Path_1128" data-name="Path 1128" d="M907.816,605.46l7.273-4.2v2.885l-7.273,4.2Z" fill="#493f41"/>
              <path id="Path_1129" data-name="Path 1129" d="M907.816,605.46l7.273-4.2-46-26.542-7.273,4.2Z" fill="#6b6164"/>
            </g>
            <path id="Path_1130" data-name="Path 1130" d="M809.407,543.75l2.431-1.13V524.492l-2.431,1.4Z" fill="#493f41"/>
          </g>
          <path id="Path_1131" data-name="Path 1131" d="M1202.067,666.8l-3.155-1.82V539.848l3.155-1.82Z" fill="#ded8d1"/>
          <path id="Path_1132" data-name="Path 1132" d="M802.1,497.761l-4.506-2.6v-5.167l1.309-4.062,5.6,9.656Z" fill="#b5aa9c"/>
          <path id="Path_1133" data-name="Path 1133" d="M805.075,496.576l-6.748-3.893v-7.738l6.748,3.893Z" fill="#504f58"/>
          <path id="Path_1134" data-name="Path 1134" d="M804.5,495.588l-7.411-7.351,1.809-2.3,5.6,3.232Z" fill="#ff9a2e"/>
          <path id="Path_1135" data-name="Path 1135" d="M801.6,496l-4.506-2.6v-5.167l4.506,2.6Z" fill="#e06f2e"/>
          <path id="Path_1136" data-name="Path 1136" d="M804.5,489.164l-2.906,1.672V496l2.906-.415Z" fill="#e07427"/>
          <g id="Group_534" data-name="Group 534">
            <path id="Path_1137" data-name="Path 1137" d="M1108.413,677.074c0,2.393-1.691,3.356-3.775,2.151a8.308,8.308,0,0,1-3.777-6.508c0-2.391,1.691-3.354,3.777-2.151A8.318,8.318,0,0,1,1108.413,677.074Z" fill="#504f58"/>
            <path id="Path_1138" data-name="Path 1138" d="M1107.628,676.622c0,1.893-1.339,2.657-2.99,1.7a6.584,6.584,0,0,1-2.992-5.156c0-1.893,1.339-2.657,2.992-1.7A6.584,6.584,0,0,1,1107.628,676.622Z" fill="#d83b2e"/>
            <path id="Path_1139" data-name="Path 1139" d="M1102.3,671.406a10.666,10.666,0,0,0-1.634,2.078c-.281.693,3.19,5.549,3.19,5.549a7.681,7.681,0,0,0,2.852-.472C1107.8,678.043,1102.3,671.406,1102.3,671.406Z" fill="#d83b2e"/>
            <path id="Path_1140" data-name="Path 1140" d="M1105.048,677.371c0,1.49-1.053,2.089-2.35,1.34a5.179,5.179,0,0,1-2.351-4.053c0-1.488,1.053-2.087,2.351-1.338A5.179,5.179,0,0,1,1105.048,677.371Z" fill="#ff512e"/>
          </g>
          <path id="Path_1141" data-name="Path 1141" d="M1195.757,666.8h-55.369l-13.173,8.1v31.446Z" fill="#cdc6bc"/>
          <g id="Group_538" data-name="Group 538">
            <g id="Group_535" data-name="Group 535">
              <path id="Path_1142" data-name="Path 1142" d="M875.369,384.177l-4.337-2.48,3.428-2.039,3.372,4.519Z" fill="#ebe7e3"/>
              <path id="Path_1143" data-name="Path 1143" d="M877.832,384.177l3.428-2.039v-1.7l-3.428,2.039Z" fill="#e07427"/>
              <path id="Path_1144" data-name="Path 1144" d="M877.832,382.479,873.5,380l3.428-2.039,4.336,2.48Z" fill="#ff9a2e"/>
              <path id="Path_1145" data-name="Path 1145" d="M877.832,382.479,873.5,380v1.7l4.336,2.48Z" fill="#e06f2e"/>
            </g>
            <g id="Group_536" data-name="Group 536">
              <path id="Path_1146" data-name="Path 1146" d="M892.509,373.984l-4.337-2.48,3.428-2.039,3.372,4.518Z" fill="#ebe7e3"/>
              <path id="Path_1147" data-name="Path 1147" d="M894.972,373.984l3.428-2.039v-1.7l-3.428,2.039Z" fill="#e07427"/>
              <path id="Path_1148" data-name="Path 1148" d="M894.972,372.286l-4.336-2.48,3.428-2.038,4.337,2.48Z" fill="#ff9a2e"/>
              <path id="Path_1149" data-name="Path 1149" d="M894.972,372.286l-4.336-2.48v1.7l4.336,2.48Z" fill="#e06f2e"/>
            </g>
            <g id="Group_537" data-name="Group 537">
              <path id="Path_1150" data-name="Path 1150" d="M909.649,363.791l-4.337-2.48,3.428-2.038,3.371,4.518Z" fill="#ebe7e3"/>
              <path id="Path_1151" data-name="Path 1151" d="M912.112,363.791l3.428-2.039v-1.7l-3.428,2.038Z" fill="#e07427"/>
              <path id="Path_1152" data-name="Path 1152" d="M912.112,362.093l-4.336-2.48,3.428-2.039,4.336,2.48Z" fill="#ff9a2e"/>
              <path id="Path_1153" data-name="Path 1153" d="M912.112,362.093l-4.336-2.48v1.7l4.336,2.48Z" fill="#e06f2e"/>
            </g>
          </g>
          <g id="Group_539" data-name="Group 539">
            <path id="Path_1154" data-name="Path 1154" d="M1154.989,547.035l13.483-7.779v-4.069l-12.431,4.868-1.052,2.912Z" fill="#cdc6bc"/>
            <path id="Path_1155" data-name="Path 1155" d="M1157.713,545.088l13.483-7.779V533.24l-13.483,7.779Z" fill="#e07427"/>
            <path id="Path_1156" data-name="Path 1156" d="M1157.713,541.019l-1.672-.965,13.483-7.779,1.673.965Z" fill="#ff9a2e"/>
            <path id="Path_1157" data-name="Path 1157" d="M1157.713,541.019l-1.672-.965v4.069l1.672.965Z" fill="#e06f2e"/>
          </g>
          <g id="Group_553" data-name="Group 553">
            <g id="Group_545" data-name="Group 545">
              <path id="Path_1158" data-name="Path 1158" d="M1202.819,646.456l7.375-4.071V632.106l-5.983,1.023-1.392,3.048Z" fill="#cdc6bc"/>
              <path id="Path_1159" data-name="Path 1159" d="M1202.819,632.843l7.375-4.071V618.494l-5.983,1.023-1.392,3.048Z" fill="#cdc6bc"/>
              <path id="Path_1160" data-name="Path 1160" d="M1202.819,619.231l7.375-4.071V604.882l-5.983,1.023-1.392,3.048Z" fill="#cdc6bc"/>
              <path id="Path_1161" data-name="Path 1161" d="M1202.819,605.619l7.375-4.071V591.269l-5.983,1.024-1.392,3.048Z" fill="#cdc6bc"/>
              <g id="Group_544" data-name="Group 544">
                <g id="Group_540" data-name="Group 540">
                  <path id="Path_1162" data-name="Path 1162" d="M1205.884,644.373l7.375-4.071V630.023l-7.375,4.071Z" fill="#de4231"/>
                  <path id="Path_1163" data-name="Path 1163" d="M1205.884,634.095l-1.672-.965,7.375-4.071,1.672.965Z" fill="#fd6039"/>
                  <path id="Path_1164" data-name="Path 1164" d="M1205.884,634.095l-1.672-.965v10.278l1.672.965Z" fill="#de4037"/>
                </g>
                <g id="Group_541" data-name="Group 541">
                  <path id="Path_1165" data-name="Path 1165" d="M1205.884,630.761l7.375-4.071V616.411l-7.375,4.071Z" fill="#e07427"/>
                  <path id="Path_1166" data-name="Path 1166" d="M1205.884,620.482l-1.672-.965,7.375-4.071,1.672.965Z" fill="#ff9a2e"/>
                  <path id="Path_1167" data-name="Path 1167" d="M1205.884,620.482l-1.672-.965V629.8l1.672.965Z" fill="#e06f2e"/>
                </g>
                <g id="Group_542" data-name="Group 542">
                  <path id="Path_1168" data-name="Path 1168" d="M1205.884,617.148l7.375-4.071V602.8l-7.375,4.071Z" fill="#ededed"/>
                  <path id="Path_1169" data-name="Path 1169" d="M1205.884,606.87l-1.672-.965,7.375-4.071,1.672.965Z" fill="#fbf9ff"/>
                  <path id="Path_1170" data-name="Path 1170" d="M1205.884,606.87l-1.672-.965v10.278l1.672.965Z" fill="#e0e0e0"/>
                </g>
                <g id="Group_543" data-name="Group 543">
                  <path id="Path_1171" data-name="Path 1171" d="M1205.884,603.536l7.375-4.071V589.187l-7.375,4.071Z" fill="#de4231"/>
                  <path id="Path_1172" data-name="Path 1172" d="M1205.884,593.258l-1.672-.965,7.375-4.071,1.672.965Z" fill="#fd6039"/>
                  <path id="Path_1173" data-name="Path 1173" d="M1205.884,593.258l-1.672-.965v10.278l1.672.965Z" fill="#de4037"/>
                </g>
              </g>
            </g>
            <g id="Group_551" data-name="Group 551">
              <path id="Path_1174" data-name="Path 1174" d="M1116.677,695.964l7.375-4.071V681.614l-5.983,1.024-1.392,3.048Z" fill="#cdc6bc"/>
              <path id="Path_1175" data-name="Path 1175" d="M1116.677,682.351l7.375-4.071V668l-5.983,1.024-1.392,3.048Z" fill="#cdc6bc"/>
              <path id="Path_1176" data-name="Path 1176" d="M1116.677,668.739l7.375-4.071V654.39l-5.983,1.023-1.392,3.048Z" fill="#cdc6bc"/>
              <path id="Path_1177" data-name="Path 1177" d="M1116.677,655.127l7.375-4.071V640.777l-5.983,1.023-1.392,3.048Z" fill="#cdc6bc"/>
              <g id="Group_550" data-name="Group 550">
                <g id="Group_546" data-name="Group 546">
                  <path id="Path_1178" data-name="Path 1178" d="M1119.742,693.881l7.375-4.071V679.531l-7.375,4.071Z" fill="#de4231"/>
                  <path id="Path_1179" data-name="Path 1179" d="M1119.742,683.6l-1.672-.965,7.375-4.071,1.672.965Z" fill="#fd6039"/>
                  <path id="Path_1180" data-name="Path 1180" d="M1119.742,683.6l-1.672-.965v10.278l1.672.965Z" fill="#de4037"/>
                </g>
                <g id="Group_547" data-name="Group 547">
                  <path id="Path_1181" data-name="Path 1181" d="M1119.742,680.269l7.375-4.071V665.919l-7.375,4.071Z" fill="#e07427"/>
                  <path id="Path_1182" data-name="Path 1182" d="M1119.742,669.99l-1.672-.965,7.375-4.071,1.672.965Z" fill="#ff9a2e"/>
                  <path id="Path_1183" data-name="Path 1183" d="M1119.742,669.99l-1.672-.965V679.3l1.672.965Z" fill="#e06f2e"/>
                </g>
                <g id="Group_548" data-name="Group 548">
                  <path id="Path_1184" data-name="Path 1184" d="M1119.742,666.656l7.375-4.071V652.307l-7.375,4.071Z" fill="#ededed"/>
                  <path id="Path_1185" data-name="Path 1185" d="M1119.742,656.378l-1.672-.965,7.375-4.071,1.672.965Z" fill="#fbf9ff"/>
                  <path id="Path_1186" data-name="Path 1186" d="M1119.742,656.378l-1.672-.965v10.278l1.672.965Z" fill="#e0e0e0"/>
                </g>
                <g id="Group_549" data-name="Group 549">
                  <path id="Path_1187" data-name="Path 1187" d="M1119.742,653.044l7.375-4.071V638.694l-7.375,4.071Z" fill="#de4231"/>
                  <path id="Path_1188" data-name="Path 1188" d="M1119.742,642.766l-1.672-.965,7.375-4.071,1.672.965Z" fill="#fd6039"/>
                  <path id="Path_1189" data-name="Path 1189" d="M1119.742,642.766l-1.672-.965v10.278l1.672.965Z" fill="#de4037"/>
                </g>
              </g>
            </g>
            <g id="Group_552" data-name="Group 552">
              <path id="Path_1190" data-name="Path 1190" d="M1204.74,643.72l7.375-4.071V629.37l-7.375,4.071Z" fill="#eefaf9" style="mix-blend-mode: multiply;isolation: isolate"/>
              <path id="Path_1191" data-name="Path 1191" d="M1204.74,630.107l7.375-4.071V615.758l-7.375,4.071Z" fill="#f5ec73" style="mix-blend-mode: multiply;isolation: isolate"/>
              <path id="Path_1192" data-name="Path 1192" d="M1204.74,616.5l7.375-4.071V602.146l-7.375,4.071Z" fill="#eefaf9" style="mix-blend-mode: multiply;isolation: isolate"/>
              <path id="Path_1193" data-name="Path 1193" d="M1204.74,602.883l7.375-4.071V588.533l-7.375,4.071Z" fill="#eefaf9" style="mix-blend-mode: multiply;isolation: isolate"/>
              <path id="Path_1194" data-name="Path 1194" d="M1118.6,693.227l7.375-4.071V678.878l-7.375,4.071Z" fill="#eefaf9" style="mix-blend-mode: multiply;isolation: isolate"/>
              <path id="Path_1195" data-name="Path 1195" d="M1118.6,679.615l7.375-4.071V665.266l-7.375,4.071Z" fill="#f5ec73" style="mix-blend-mode: multiply;isolation: isolate"/>
              <path id="Path_1196" data-name="Path 1196" d="M1118.6,666l7.375-4.071V651.653l-7.375,4.071Z" fill="#eefaf9" style="mix-blend-mode: multiply;isolation: isolate"/>
              <path id="Path_1197" data-name="Path 1197" d="M1118.6,652.391l7.375-4.071V638.041l-7.375,4.071Z" fill="#eefaf9" style="mix-blend-mode: multiply;isolation: isolate"/>
            </g>
          </g>
          <path id="Path_1198" data-name="Path 1198" d="M850.633,426.283v26.269L833.29,462.559l8.454-41.4Z" fill="#b08480"/>
          <path id="Path_1199" data-name="Path 1199" d="M1200.583,582.25v10.974l-73.37,42.4V624.544Z" fill="#493f41"/>
          <path id="Path_1200" data-name="Path 1200" d="M1200.583,582.25l-73.37,42.294V622.62l71.7-41.337Z" fill="#6b6164"/>
          <g id="Group_562" data-name="Group 562">
            <g id="Group_554" data-name="Group 554">
              <path id="Path_1201" data-name="Path 1201" d="M1118.356,550.824,855.438,398.913l1.841-1.062L1119,550.824Z" fill="#ebe7e3"/>
              <path id="Path_1202" data-name="Path 1202" d="M1119,550.22,856.076,398.31l1.841-1.062,262.918,151.911Z" fill="#fcfbfa"/>
              <path id="Path_1203" data-name="Path 1203" d="M1119,550.22v.6l1.841-1.062v-.6Z" fill="#ebe7e3"/>
              <path id="Path_1204" data-name="Path 1204" d="M1119,550.824,856.076,398.913v-.6L1119,550.22Z" fill="#cdc6bc"/>
            </g>
            <g id="Group_555" data-name="Group 555">
              <path id="Path_1205" data-name="Path 1205" d="M1130.456,543.843,867.537,391.933l1.841-1.062,261.716,152.973Z" fill="#ebe7e3"/>
              <path id="Path_1206" data-name="Path 1206" d="M1131.094,543.24,868.176,391.329l1.841-1.062,262.919,151.911Z" fill="#fcfbfa"/>
              <path id="Path_1207" data-name="Path 1207" d="M1131.094,543.24v.6l1.841-1.062v-.6Z" fill="#ebe7e3"/>
              <path id="Path_1208" data-name="Path 1208" d="M1131.094,543.843,868.176,391.933v-.6L1131.094,543.24Z" fill="#cdc6bc"/>
            </g>
            <g id="Group_556" data-name="Group 556">
              <path id="Path_1209" data-name="Path 1209" d="M1142.555,536.863,879.636,384.952l1.841-1.062,261.716,152.973Z" fill="#ebe7e3"/>
              <path id="Path_1210" data-name="Path 1210" d="M1143.193,536.259,880.275,384.348l1.841-1.062L1145.034,535.2Z" fill="#fcfbfa"/>
              <path id="Path_1211" data-name="Path 1211" d="M1143.193,536.259v.6l1.841-1.062v-.6Z" fill="#ebe7e3"/>
              <path id="Path_1212" data-name="Path 1212" d="M1143.193,536.863,880.275,384.952v-.6l262.919,151.911Z" fill="#cdc6bc"/>
            </g>
            <g id="Group_557" data-name="Group 557">
              <path id="Path_1213" data-name="Path 1213" d="M1154.654,529.882,891.735,377.971l1.841-1.062,261.716,152.973Z" fill="#ebe7e3"/>
              <path id="Path_1214" data-name="Path 1214" d="M1155.292,529.278,892.374,377.368l1.841-1.062,262.918,151.911Z" fill="#fcfbfa"/>
              <path id="Path_1215" data-name="Path 1215" d="M1155.292,529.278v.6l1.841-1.062v-.6Z" fill="#ebe7e3"/>
              <path id="Path_1216" data-name="Path 1216" d="M1155.292,529.882,892.374,377.971v-.6l262.919,151.911Z" fill="#cdc6bc"/>
            </g>
            <g id="Group_558" data-name="Group 558">
              <path id="Path_1217" data-name="Path 1217" d="M1166.753,522.9,903.834,370.991l1.841-1.062L1167.391,522.9Z" fill="#ebe7e3"/>
              <path id="Path_1218" data-name="Path 1218" d="M1167.391,522.3,904.473,370.387l1.841-1.062,262.919,151.911Z" fill="#fcfbfa"/>
              <path id="Path_1219" data-name="Path 1219" d="M1167.391,522.3v.6l1.841-1.062v-.6Z" fill="#ebe7e3"/>
              <path id="Path_1220" data-name="Path 1220" d="M1167.391,522.9,904.473,370.991v-.6L1167.391,522.3Z" fill="#cdc6bc"/>
            </g>
            <g id="Group_559" data-name="Group 559">
              <path id="Path_1221" data-name="Path 1221" d="M1178.852,515.921,915.933,364.01l1.841-1.062L1179.49,515.921Z" fill="#ebe7e3"/>
              <path id="Path_1222" data-name="Path 1222" d="M1179.49,515.317,916.572,363.406l1.841-1.062,262.918,151.911Z" fill="#fcfbfa"/>
              <path id="Path_1223" data-name="Path 1223" d="M1179.49,515.317v.6l1.841-1.062v-.6Z" fill="#ebe7e3"/>
              <path id="Path_1224" data-name="Path 1224" d="M1179.49,515.921,916.572,364.01v-.6L1179.49,515.317Z" fill="#cdc6bc"/>
            </g>
            <g id="Group_560" data-name="Group 560">
              <path id="Path_1225" data-name="Path 1225" d="M1190.951,508.94,928.032,357.029l1.841-1.062L1191.589,508.94Z" fill="#ebe7e3"/>
              <path id="Path_1226" data-name="Path 1226" d="M1191.589,508.336,928.671,356.426l1.841-1.062,262.919,151.911Z" fill="#fcfbfa"/>
              <path id="Path_1227" data-name="Path 1227" d="M1191.589,508.336v.6l1.841-1.062v-.6Z" fill="#ebe7e3"/>
              <path id="Path_1228" data-name="Path 1228" d="M1191.589,508.94,928.671,357.029v-.6l262.918,151.911Z" fill="#cdc6bc"/>
            </g>
            <g id="Group_561" data-name="Group 561">
              <path id="Path_1229" data-name="Path 1229" d="M1203.05,501.959,940.131,350.048l1.841-1.062,261.716,152.973Z" fill="#ebe7e3"/>
              <path id="Path_1230" data-name="Path 1230" d="M1203.688,501.356,940.77,349.445l1.841-1.062L1205.53,500.293Z" fill="#fcfbfa"/>
              <path id="Path_1231" data-name="Path 1231" d="M1203.688,501.356v.6l1.841-1.062v-.6Z" fill="#ebe7e3"/>
              <path id="Path_1232" data-name="Path 1232" d="M1203.688,501.959,940.77,350.048v-.6l262.918,151.911Z" fill="#cdc6bc"/>
            </g>
          </g>
        </g>
        <g id="Group_566" data-name="Group 566">
          <g id="Group_564" data-name="Group 564">
            <path id="Path_1233" data-name="Path 1233" d="M1101.363,639.728a9.839,9.839,0,0,1-4.886-1.442l-55.288-31.9c-6.054-3.491-10.795-12.469-10.795-20.437V554.422c0-4.515,1.595-8.025,4.372-9.629,2.411-1.4,5.388-1.213,8.386.516l55.288,31.9c6.052,3.491,10.795,12.467,10.795,20.435v31.526c0,4.517-1.595,8.027-4.372,9.629A6.918,6.918,0,0,1,1101.363,639.728Zm-2.923-4.835c1.22.7,2.985,1.371,4.462.516,1.511-.872,2.413-3.2,2.413-6.235V597.647c0-6.475-4.049-14.279-8.838-17.042l-55.288-31.9c-1.218-.7-2.973-1.369-4.464-.518-1.509.872-2.411,3.2-2.411,6.235v31.526c0,6.477,4.049,14.281,8.838,17.044Z" fill="#e9e5e1"/>
          </g>
          <g id="Group_565" data-name="Group 565">
            <path id="Path_1234" data-name="Path 1234" d="M1101.328,637.924a9.82,9.82,0,0,1-4.884-1.442l-55.292-31.9c-6.052-3.491-10.793-12.469-10.793-20.437V552.62c0-4.517,1.593-8.027,4.37-9.631,2.419-1.392,5.39-1.209,8.386.518l55.292,31.9c6.05,3.491,10.791,12.469,10.791,20.437v31.526c0,4.515-1.595,8.025-4.37,9.629A6.921,6.921,0,0,1,1101.328,637.924Zm-63.085-91.939a3.039,3.039,0,0,0-1.551.4c-1.514.872-2.413,3.2-2.413,6.235v31.524c0,6.477,4.047,14.281,8.836,17.044l55.292,31.9c1.22.705,2.985,1.361,4.46.516,1.509-.87,2.411-3.2,2.411-6.233V595.846c0-6.477-4.045-14.281-8.834-17.044l-55.292-31.9A6.058,6.058,0,0,0,1038.243,545.986Z" fill="#d9d3cc"/>
          </g>
        </g>
        <g id="Group_569" data-name="Group 569">
          <g id="Group_567" data-name="Group 567">
            <path id="Path_1235" data-name="Path 1235" d="M1015.329,590.093a9.824,9.824,0,0,1-4.884-1.444l-55.292-31.9c-6.05-3.491-10.791-12.469-10.791-20.437V504.785c0-4.517,1.595-8.027,4.372-9.631,2.417-1.392,5.392-1.209,8.382.52l55.292,31.9c6.052,3.491,10.795,12.469,10.795,20.435v31.526c0,4.517-1.595,8.027-4.376,9.631A6.917,6.917,0,0,1,1015.329,590.093ZM952.245,498.15a3.034,3.034,0,0,0-1.547.4c-1.514.872-2.415,3.2-2.415,6.235v31.526c0,6.477,4.045,14.281,8.834,17.044l55.292,31.9c1.22.707,2.985,1.373,4.459.518,1.509-.872,2.415-3.2,2.415-6.235V548.01c0-6.473-4.049-14.277-8.838-17.042l-55.292-31.9A6.081,6.081,0,0,0,952.245,498.15Z" fill="#e9e5e1"/>
          </g>
          <g id="Group_568" data-name="Group 568">
            <path id="Path_1236" data-name="Path 1236" d="M1015.292,588.289a9.844,9.844,0,0,1-4.884-1.442l-55.288-31.9c-6.052-3.491-10.793-12.467-10.793-20.435V502.983c0-4.517,1.593-8.027,4.37-9.629,2.407-1.394,5.39-1.213,8.386.516l55.288,31.9c6.054,3.491,10.795,12.469,10.795,20.437v31.526c0,4.515-1.595,8.025-4.37,9.629A6.939,6.939,0,0,1,1015.292,588.289Zm-2.921-4.837c1.222.7,2.988,1.371,4.459.516,1.514-.87,2.415-3.2,2.415-6.233V546.208c0-6.477-4.049-14.281-8.838-17.044l-55.288-31.9c-1.212-.7-2.986-1.367-4.462-.516-1.511.872-2.411,3.2-2.411,6.235V534.51c0,6.475,4.047,14.279,8.836,17.042Z" fill="#d9d3cc"/>
          </g>
        </g>
        <g id="Group_571" data-name="Group 571">
          <path id="Path_1237" data-name="Path 1237" d="M964.128,517.6v11.485a2.821,2.821,0,0,0,4.216,2.449l10.014-5.707a2.815,2.815,0,0,0,.013-4.887l-10.014-5.78A2.819,2.819,0,0,0,964.128,517.6Z" fill="#de4037"/>
          <path id="Path_1238" data-name="Path 1238" d="M993.821,559.022V547.538a2.821,2.821,0,0,0-4.218-2.447L979.589,550.8a2.816,2.816,0,0,0-.013,4.887l10.014,5.778A2.82,2.82,0,0,0,993.821,559.022Z" fill="#de4037"/>
          <path id="Path_1239" data-name="Path 1239" d="M965.538,547.586l7.945,4.583a2.818,2.818,0,0,0,3.847-3.853l-7.943-13.694a2.82,2.82,0,0,0-5.259,1.415v9.109A2.817,2.817,0,0,0,965.538,547.586Z" fill="#f5b53d"/>
          <path id="Path_1240" data-name="Path 1240" d="M992.409,529.042l-7.943-4.583a2.819,2.819,0,0,0-3.85,3.853L988.56,542a2.821,2.821,0,0,0,5.261-1.413V531.48A2.818,2.818,0,0,0,992.409,529.042Z" fill="#f5b53d"/>
          <g id="Group_570" data-name="Group 570">
            <path id="Path_1241" data-name="Path 1241" d="M1015.392,551.8c0,4.132-2.584,5.316-6.591,3l-5.142-2.967v-13.6l5.292,3.054A12.535,12.535,0,0,1,1015.392,551.8Zm-4.006-2.274a5.542,5.542,0,0,0-2.521-4.789l-1.282-.741v6.616l1.47.847C1010.474,552.277,1011.386,551.524,1011.386,549.525Z" fill="#493f41"/>
            <path id="Path_1242" data-name="Path 1242" d="M1026.522,551.43v3.414l-6.1-3.52v1.667l5.544,3.2V559.6l-5.544-3.2v1.687l6.254,3.608v3.414l-10.179-5.873v-13.6Z" fill="#493f41"/>
            <path id="Path_1243" data-name="Path 1243" d="M1032.091,554.643V564.5l4.932,2.846v3.745l-8.861-5.112v-13.6Z" fill="#493f41"/>
            <path id="Path_1244" data-name="Path 1244" d="M1041.966,560.341v13.6l-3.924-2.264v-13.6Z" fill="#493f41"/>
            <path id="Path_1245" data-name="Path 1245" d="M1046.919,563.2l2.45,10.336,2.438-7.517,4,2.309-4.532,10.983-4.056-2.339-4.5-16.195Z" fill="#493f41"/>
            <path id="Path_1246" data-name="Path 1246" d="M1066.6,574.556v3.414l-6.1-3.52v1.669l5.544,3.2v3.412l-5.544-3.2v1.687l6.254,3.608v3.414l-10.179-5.871v-13.6Z" fill="#493f41"/>
            <path id="Path_1247" data-name="Path 1247" d="M1075.062,593.033l-1.422-4.35-1.47-.847v3.529l-3.924-2.264V575.5l5.734,3.308c3.21,1.852,5.053,4.681,5.053,7.783,0,1.979-.66,3.073-1.876,3.223l2.334,5.769Zm-2.892-8.611,1.809,1.042c.843.487,1.335.171,1.335-.876a2.66,2.66,0,0,0-1.335-2.361l-1.809-1.044Z" fill="#493f41"/>
            <path id="Path_1248" data-name="Path 1248" d="M1087.662,596.075V600.3l-3.92-2.261v-4.132l-4.328-11.963,3.906,2.253,2.382,6.614,2.3-3.913,3.9,2.255Z" fill="#493f41"/>
            <path id="Path_1249" data-name="Path 1249" d="M1006.854,562.907c-.314-.181-.521-.191-.521.1,0,1.219,4.393,2.992,4.393,6.508,0,2.16-1.659,2.16-3.568,1.057a14.157,14.157,0,0,1-4.247-4l1.041-1.81a12.728,12.728,0,0,0,3.229,3.375c.414.239.681.239.681-.108,0-1.259-4.393-2.963-4.393-6.366,0-1.939,1.428-2.334,3.631-1.063a13.462,13.462,0,0,1,3.685,3.277l-1.014,1.85A15.33,15.33,0,0,0,1006.854,562.907Z" fill="#493f41"/>
            <path id="Path_1250" data-name="Path 1250" d="M1018.615,567.38v2.436l-4.368-2.52v1.19l3.968,2.291v2.436l-3.968-2.291v1.2l4.478,2.584v2.436l-7.283-4.2v-9.7Z" fill="#493f41"/>
            <path id="Path_1251" data-name="Path 1251" d="M1024.65,580.566l-1.016-3.106-1.056-.607v2.52l-2.806-1.619v-9.7l4.1,2.366a6.522,6.522,0,0,1,3.618,5.561c0,1.413-.473,2.191-1.345,2.3l1.672,4.119Zm-2.071-6.15,1.295.747c.608.349.956.123.956-.626a1.892,1.892,0,0,0-.956-1.685l-1.295-.747Z" fill="#493f41"/>
            <path id="Path_1252" data-name="Path 1252" d="M1030.8,574.412l1.755,7.382,1.74-5.364,2.869,1.656-3.241,7.833-2.9-1.677-3.221-11.559Z" fill="#493f41"/>
            <path id="Path_1253" data-name="Path 1253" d="M1040.5,580.009v9.706l-2.8-1.619V578.39Z" fill="#493f41"/>
            <path id="Path_1254" data-name="Path 1254" d="M1045.919,585.707c-1.016-.585-1.753-.083-1.753,1.207a3.916,3.916,0,0,0,1.753,3.252,1.882,1.882,0,0,0,1.922,0l1.62,2.913a3.558,3.558,0,0,1-3.685-.189,9.364,9.364,0,0,1-4.493-7.6c0-2.852,1.938-3.812,4.6-2.276a10.541,10.541,0,0,1,3.579,3.836l-1.62,1.269A5.769,5.769,0,0,0,1045.919,585.707Z" fill="#493f41"/>
            <path id="Path_1255" data-name="Path 1255" d="M1057.189,589.635v2.436l-4.368-2.52v1.19l3.972,2.291v2.436l-3.972-2.291v1.2l4.478,2.584V599.4l-7.281-4.2V585.5Z" fill="#493f41"/>
          </g>
        </g>
        <path id="Path_1256" data-name="Path 1256" d="M1115.365,658.465,919.289,545.336v-5.682l196.077,113.129Z" fill="#f5b53d"/>
      </g>
      <g id="Group_573" data-name="Group 573">
        <path id="Path_1257" data-name="Path 1257" d="M1139.39,720.469h-2.936V685.554c-.8.472-1.766,1.113-2.567,1.689l-.371.193c-2.182.759-3.443.969-5.625-.449-.1-.062-12.989-8.041-20.792-13.184l-.741-.487-.581-.622c.383-.907.772-1.552,6.9-4.061l1.461,2.563c-1.02.416-2.492,1.053-3.418,1.471,7.788,5.06,18.625,11.772,18.744,11.844,1.143.743,1.391.745,2.885.225,4.722-3.358,5.54-2.925,6.156-2.609l.793.408.094,1.067Z" fill="#898184"/>
      </g>
      <g id="Group_574" data-name="Group 574">
        <path id="Path_1258" data-name="Path 1258" d="M1226.983,669.251h-2.936V639.362a6.292,6.292,0,0,1,3.21-5.484l.947-.533-14.291-8.033V621.95l17.32,9.731a1.907,1.907,0,0,1,0,3.325l-2.534,1.427a3.374,3.374,0,0,0-1.72,2.942Z" fill="#898184"/>
      </g>
      <path id="Path_1259" data-name="Path 1259" d="M1138.957,719.872a2.3,2.3,0,0,0-2.076,0,.633.633,0,0,0,.006,1.2,2.3,2.3,0,0,0,2.076,0A.633.633,0,0,0,1138.957,719.872Z" fill="#898184"/>
      <path id="Path_1260" data-name="Path 1260" d="M1226.55,668.668a2.288,2.288,0,0,0-2.076,0,.631.631,0,0,0,.006,1.2,2.3,2.3,0,0,0,2.076,0A.631.631,0,0,0,1226.55,668.668Z" fill="#898184"/>
      <path id="Path_1261" data-name="Path 1261" d="M1112.381,669.338a2.29,2.29,0,0,0,1.07,1.779c.577.318,1.035.039,1.022-.624a2.294,2.294,0,0,0-1.068-1.777C1112.827,668.4,1112.369,668.677,1112.381,669.338Z" fill="#898184"/>
    </g>
  </g>
</svg>
