<svg xmlns="http://www.w3.org/2000/svg" xmlns:xlink="http://www.w3.org/1999/xlink" width="99.673" height="193.669" viewBox="0 0 99.673 193.669">
  <defs>
    <linearGradient id="linear-gradient" x1="1458.798" y1="-11.066" x2="1459.764" y2="-11.066" gradientUnits="objectBoundingBox">
      <stop offset="0.122" stop-color="#fed3c9"/>
      <stop offset="1" stop-color="#fff2ef"/>
    </linearGradient>
  </defs>
  <g id="Group_604" data-name="Group 604" transform="translate(-835.258 -641.104)">
    <path id="Path_1342" data-name="Path 1342" d="M925.186,801.71c-9.225-5.322-22.524-6.843-34.171-4.615l-16.578-9.564L846.2,803.822l21.752,12.55c.341,4.652,3.539,9.238,9.677,12.779,13.052,7.529,34.277,7.492,47.41-.085S938.237,809.242,925.186,801.71Z" fill="#eae2d6" style="mix-blend-mode: multiply;isolation: isolate"/>
    <g id="Group_603" data-name="Group 603">
      <g id="Group_598" data-name="Group 598">
        <path id="Path_1343" data-name="Path 1343" d="M869.552,667.089s.133-1.533,1.3-1.067a38.36,38.36,0,0,1,6.829,5.355,20.823,20.823,0,0,0,2.226,4.155c1.066,1.267,20.053,9.55,20.272,10.288s-4.2,6.35-8.059,4.486-13.356-9.477-15-9.924a10.327,10.327,0,0,1-3.4-1.373,18.088,18.088,0,0,1-2.49-2.68s-3.323-1.086-3.693-1.583a.742.742,0,0,1,.629-1.138,31.041,31.041,0,0,1,3.735,1.009l-1.616-1.438s-3.148-1.508-3.171-2.112a1.445,1.445,0,0,1,1.008-1.217c.287-.01-.556-.393-.523-1.19s1.233-1.13,1.233-1.13Z" fill="#fed8d0"/>
        <path id="Path_1344" data-name="Path 1344" d="M877.355,676.391s-1.686.57-2.1-1.483.516-3.556.477-4.606a7.2,7.2,0,0,0-.221-1.648,3.53,3.53,0,0,1-.666-2.884c.439-1.5,1.3.248,1.389.437s.9,1.766.985,2.081.862,2.811.964,3.612S880.693,676.108,877.355,676.391Z" fill="#feded7"/>
      </g>
      <g id="Group_599" data-name="Group 599">
        <path id="Path_1345" data-name="Path 1345" d="M855.126,694.405l19.868-11.463V660.159l-19.868,11.463Z" fill="#c99a6b"/>
        <path id="Path_1346" data-name="Path 1346" d="M855.126,694.405l-19.868-11.463V660.159l19.868,11.463Z" fill="#ae835b"/>
        <path id="Path_1347" data-name="Path 1347" d="M855.126,671.622l-19.868-11.463L855.126,648.7l19.868,11.463Z" fill="#e8b687"/>
        <path id="Path_1348" data-name="Path 1348" d="M864.079,675.457l3.192-1.842v-9l-3.192,1.842Z" fill="#d9af84"/>
        <path id="Path_1349" data-name="Path 1349" d="M864.079,666.456l-19.868-11.463,3.193-1.842,19.868,11.463Z" fill="#ebcbab"/>
        <path id="Path_1350" data-name="Path 1350" d="M865.557,665.6l-19.868-11.463.18-.1L865.737,665.5Z" fill="#d1a986"/>
        <path id="Path_1351" data-name="Path 1351" d="M835.258,660.159l19.868,11.463-10.721-5.731Z" fill="#87623f"/>
      </g>
      <g id="Group_601" data-name="Group 601">
        <path id="Path_1352" data-name="Path 1352" d="M916.5,675.447s1.982-1.54,5.544-.015,5.132,5.99,5.428,7.061.55,14.888.55,14.888-1.57,4.092-8.07,2.445S916.5,675.447,916.5,675.447Z" fill="#fffbf0"/>
        <path id="Path_1353" data-name="Path 1353" d="M910.55,801.3c-.09-.123-3.733-2.07-6.408-2.014s-2.427,3.318-1.947,4.787,5.167,5.289,5.167,5.289l2.161,2.128a30.1,30.1,0,0,0,3.129,2.986,5.016,5.016,0,0,0,4.385.177c1.422-.605,1.709-.913,1.788-1.042a10.088,10.088,0,0,0-.008-5.99C917.818,804.773,910.55,801.3,910.55,801.3Z" fill="#5c6467"/>
        <path id="Path_1354" data-name="Path 1354" d="M919.508,781.77c.487,5.678.487,12.993.435,18.671a81.731,81.731,0,0,1-.358,8.441,5.015,5.015,0,0,1-4.351,2.02,7.628,7.628,0,0,1-2.713-.666,12.85,12.85,0,0,1-4.478-3.069c-.283-.587.127-3.658.254-4.5a58.191,58.191,0,0,0-.281-16.651c-1.38-7.6-4.274-19.284-4.4-23.019a58.115,58.115,0,0,1,.41-6.445c.562-6.138,1.534-13.94,1.534-13.94l17.174-6.778s.589,8.8-2.815,14.809c-3.354,5.909-2.817,11.944-2.74,14.22C917.281,767.165,919.048,776.093,919.508,781.77Z" fill="#7282b5"/>
        <path id="Path_1355" data-name="Path 1355" d="M912.521,810.236a12.85,12.85,0,0,1-4.478-3.069c-.283-.587.127-3.658.254-4.5a58.191,58.191,0,0,0-.281-16.651c-1.38-7.6-4.274-19.284-4.4-23.019a58.115,58.115,0,0,1,.41-6.445,18.38,18.38,0,0,1,6.552-4.219s-3.327,10.971-2.151,17.7c1.151,6.726,3.4,16.623,3.3,23.223-.129,6.624-2.355,12.481,0,15.883C911.959,809.5,912.24,809.853,912.521,810.236Z" fill="#e8d0c8" style="mix-blend-mode: multiply;isolation: isolate"/>
        <path id="Path_1356" data-name="Path 1356" d="M881.646,817.32c.6,1.34,1.31,3.31,5.99,4.494s6.148.751,7.185,1.182,2.988,1.458,3.583,1.565,3.845.693,5.569.008a3.609,3.609,0,0,0,2.171-1.966,2.034,2.034,0,0,0,.121-.458c.06-.553.254-3.491-.15-4.026s-9.687-5.59-9.687-5.59-7.718.372-9.377.347-4.2.154-4.7.514a4.005,4.005,0,0,0-.881,2.23A3.222,3.222,0,0,0,881.646,817.32Z" fill="#5c6467"/>
        <path id="Path_1357" data-name="Path 1357" d="M895.562,813.24s-3.273-.006-4.143.578a3.022,3.022,0,0,0,.573,4.893c1.9,1.167,7.066.97,7.92,1.065a4.515,4.515,0,0,0,2.992-.672c.533-.564-3.335-3.3-3.335-3.3Z" fill="#febfbf"/>
        <path id="Path_1358" data-name="Path 1358" d="M881.646,817.32c.6,1.34,1.31,3.31,5.99,4.494s6.148.751,7.185,1.182,2.988,1.458,3.583,1.565,3.845.693,5.569.008a3.609,3.609,0,0,0,2.171-1.966,1.643,1.643,0,0,0-.7.453c-1.291,1.388-5.457,1.13-6.86.668-3.775-1.228-4.82-1.1-4.82-1.1a45.355,45.355,0,0,1-4.94-1.03c-1.63-.522-4.3-1.269-5.652-2.657a7.026,7.026,0,0,1-1.7-3.321A3.222,3.222,0,0,0,881.646,817.32Z" fill="#504f60"/>
        <path id="Path_1359" data-name="Path 1359" d="M914.7,750.44c-1.765,2.942-7.474,7.161-7.807,9.283-.358,2.149-2.534,11.919-1.867,20.9s1.33,12.941,1.253,22.124c-.1,9.181.129,15.883.129,15.883a6.281,6.281,0,0,1-5.938,1.993,7.949,7.949,0,0,1-4.99-2.557,4.244,4.244,0,0,1-1.23-2.3c-.05-1.279-1.482-23.991-3.581-34.784s-4.888-31.254-3.225-38.954a2.083,2.083,0,0,1,.2-.562c2.84-6.649,28.358,2.48,28.358,2.48A11.317,11.317,0,0,1,914.7,750.44Z" fill="#7282b5"/>
        <g id="Group_600" data-name="Group 600">
          <path id="Path_1360" data-name="Path 1360" d="M896.455,818.731l-.639-.037c.714-12.56-.67-21.365-2.419-32.515-1.1-7.016-2.353-14.967-3.294-25.318-.643-7.022-1-16.44-1-16.534l.639-.023c0,.094.354,9.493.993,16.5.943,10.328,2.19,18.269,3.292,25.274C895.787,797.266,897.173,806.1,896.455,818.731Z" fill="#a0abcd"/>
        </g>
        <path id="Path_1361" data-name="Path 1361" d="M895.477,818.063a4.244,4.244,0,0,1-1.23-2.3c-.05-1.279-1.482-23.991-3.581-34.784s-4.888-31.254-3.225-38.954a2.083,2.083,0,0,1,.2-.562c.666.41,1.355.87,2.047,1.382a46.185,46.185,0,0,0-.46,15.677c1.176,8.953,4.172,27.086,4.555,31.408C894.119,793.663,894.989,811.464,895.477,818.063Z" fill="#e8d0c8" style="mix-blend-mode: multiply;isolation: isolate"/>
        <path id="Path_1362" data-name="Path 1362" d="M923.039,726.3c.231,2.865.666,9.718-.537,11.663-1.228,1.918-2.636,2.4-5.938,4.96-3.275,2.534-11.721,5.653-19.758,5.116a14.35,14.35,0,0,1-8.292-2.992,8.591,8.591,0,0,1-2.253-2.609s2.432-12.327,2.124-18.286c-.229-4.81-1.663-18.929-1.38-27.419a23.694,23.694,0,0,1,.562-5.039c1.638-5.986,7.626-9.335,11.03-12.2s11.236-4.885,14.23-5.191c2.971-.281,8.292.333,9.215,1.126s4.147,3.735,3.839,12.429c-.308,8.672-2.79,19.515-3.839,25.6C920.993,719.569,922.81,723.43,923.039,726.3Z" fill="#fdf5da"/>
        <path id="Path_1363" data-name="Path 1363" d="M891.764,728.673c-.562,5.6-2.942,7.8-3.25,16.37a8.591,8.591,0,0,1-2.253-2.609s2.432-12.327,2.124-18.286c-.229-4.81-1.663-18.929-1.38-27.419.331-.664.51-1,.51-1l10.93-1.612s-6.271,9.641-6.681,12.712C891.356,709.925,892.379,722.382,891.764,728.673Z" fill="#dedede" style="mix-blend-mode: multiply;isolation: isolate"/>
        <path id="Path_1364" data-name="Path 1364" d="M913.5,660.521s-1.53,6.895-1.191,9.134.677,3.373,1.3,4.072,1.151,1.211,1.151,1.211-.258,2.239-5.958,3.214-8.338.988-9.052,1.184l-.716.2.768-.913s-.822-6.306-1.064-7.061-1.62-.154-3.289-.474a2.007,2.007,0,0,1-1.818-2.014c-.106-.591-.808-6.934-.87-7.442a5.835,5.835,0,0,0-1-1.662l.956-1.735a3.724,3.724,0,0,1-.931-2.13c-.044-1.188.237-6.252,1.539-7.831s10.018-2.622,12.383-1.9S914.737,652.024,913.5,660.521Z" fill="#fed8d0"/>
        <path id="Path_1365" data-name="Path 1365" d="M893.415,650.73a1.811,1.811,0,0,1,.335,1.007c.069.72-.67,1.425-.631,2.486s.287,3.175.287,3.175a1.41,1.41,0,0,1,1.312.972,21.034,21.034,0,0,1,.687,2.48l.037,1.017.987.3s.25-2.472,1.969-1.941a6.536,6.536,0,0,1,4.251,3.5c.968,2,1.235,3.479,2.236,4.122s4.147.655,5.407.268a6.692,6.692,0,0,0,2.08-1.055s1.87-2.49,3.941-8.511.8-9.545-.013-10.7-3.223-2.083-3.223-2.083.115-2.644-6.052-3.9-13.366,4.02-14.184,4.9-.943,3.221-.943,3.221Z" fill="#754554"/>
        <path id="Path_1366" data-name="Path 1366" d="M895.932,655.149s-8.332-1.762-10.293-2.642c-1.366-.614-1.561-1.1-1.226-3.092a9.331,9.331,0,0,1,2.226-4.484,6.209,6.209,0,0,1,3.633-1.646c1.809.033,9.764.961,12.165,1.388S895.932,655.149,895.932,655.149Z" fill="#725e6d"/>
        <path id="Path_1367" data-name="Path 1367" d="M917.01,656.112s-1.724,3.135-9,2.975-15.617-5.607-15.862-7.359-.933-6.069,4.185-8.468,10.158-2.8,14.4-1.2S919.365,648.3,917.01,656.112Z" fill="#fef4dd"/>
        <path id="Path_1368" data-name="Path 1368" d="M897.1,661.489a1.813,1.813,0,0,1,.219-1.708c.61-.786,2.332.4,2.607,2.665s-.154,3.828-1.049,4.35-1.341-.951-1.341-.951S898.518,663.072,897.1,661.489Z" fill="url(#linear-gradient)"/>
      </g>
      <g id="Group_602" data-name="Group 602">
        <path id="Path_1369" data-name="Path 1369" d="M891.544,684.857c-2,.849-2.419,1.117-7.4,4.211-9.433,5.859-11.669,7.81-14.228,8.6s-3.631,4.026-3.412,6.4.029,3.674,5.536,2.582,20.055-8.364,24.375-11.354C901.718,691.635,897.592,682.29,891.544,684.857Z" fill="#fed8d0"/>
        <path id="Path_1370" data-name="Path 1370" d="M842.791,676.986s-1.006-1.413-.747-1.579.864-1.307,1.911.021a48.465,48.465,0,0,0,4.537,4.59c.171.046.945-.965.945-.965s-1.972-2.355-1.7-3.753,2.257-.4,2.421-.058,1.289,2.686,1.874,3.543a15.546,15.546,0,0,1,2.211,3.716c.369,1.277.387,3.526,1.141,4.427s16.526,11.424,16.526,11.424.081,11.649-4.4,8.05-16.406-16.548-17.039-16.9-5.669-2.182-6.048-2.484a15.486,15.486,0,0,1-1.241-3.112l-.824-2.257s-.71-1.028-.664-1.409a12.218,12.218,0,0,0,.013-1.273s-.71-1.367.017-1.656A4.736,4.736,0,0,1,842.791,676.986Z" fill="#fed8d0"/>
        <path id="Path_1371" data-name="Path 1371" d="M842.791,676.986l3.73,4.667-2.651-2.342-1.613-2.189Z" fill="#fab4a7"/>
        <path id="Path_1372" data-name="Path 1372" d="M841.706,678.969l2.649,3.534-1.331-1.143-1.306-1.8Z" fill="#fab4a7"/>
        <path id="Path_1373" data-name="Path 1373" d="M877.605,692.886a8.424,8.424,0,0,0,1.668,6.448,22.56,22.56,0,0,0,4.539,4.631s13.283-6.624,14.644-9.845c1.151-2.721,2.915-7.833-4.091-10.059C890.828,682.937,877.605,692.886,877.605,692.886Z" fill="#fffbf0"/>
      </g>
    </g>
  </g>
</svg>
