<svg id="Component_1_1" data-name="Component 1 – 1" xmlns="http://www.w3.org/2000/svg" width="621" height="450.001" viewBox="0 0 621 450.001">
  <g id="Vector_Smart_Object" data-name="Vector Smart Object" transform="translate(-1769.275 -1542.25)">
    <g id="Group_121" data-name="Group 121">
      <path id="Path_655" data-name="Path 655" d="M2052.642,1854.824l-136.365-78.388,136.365-78.389,89.061,156.777Z" fill="#f5f2e8"/>
      <g id="Group_109" data-name="Group 109">
        <g id="Group_108" data-name="Group 108">
          <path id="Path_656" data-name="Path 656" d="M2141.7,1854.824l136.364-78.388v-155.8L2141.7,1699.026Z" fill="#c99a6b"/>
          <path id="Path_657" data-name="Path 657" d="M2278.067,1620.638,2141.7,1699.026l73.581-39.194Z" fill="#87623f"/>
          <path id="Path_658" data-name="Path 658" d="M2141.7,1854.824l-136.365-78.388v-155.8l136.365,78.388Z" fill="#ae835b"/>
          <path id="Path_659" data-name="Path 659" d="M2141.7,1699.026l-136.365-78.388L2141.7,1542.25l136.364,78.388Z" fill="#e8b687"/>
          <path id="Path_660" data-name="Path 660" d="M2203.154,1725.249l21.91-12.6v-61.548l-21.91,12.594Z" fill="#d9af84"/>
          <path id="Path_661" data-name="Path 661" d="M2203.154,1663.7l-136.365-78.388,21.91-12.6,136.365,78.389Z" fill="#ebcbab"/>
          <path id="Path_662" data-name="Path 662" d="M2005.337,1620.638l136.365,78.388-73.582-39.194Z" fill="#87623f"/>
          <path id="Path_663" data-name="Path 663" d="M2082.552,1726.572l-21.91-12.6v-61.548l21.91,12.6Z" fill="#9c754e"/>
          <path id="Path_664" data-name="Path 664" d="M2082.552,1665.024l136.364-78.389-21.911-12.6-136.364,78.389Z" fill="#54493e" style="mix-blend-mode: screen;isolation: isolate"/>
          <path id="Path_665" data-name="Path 665" d="M2072.418,1659.2l136.365-78.388-1.508-.866-136.364,78.388Z" fill="#d1a986"/>
          <path id="Path_666" data-name="Path 666" d="M2082.552,1665.024v2.54l-13.358-7.115-8.553-5.339v-2.68Z" fill="#ae835b"/>
        </g>
        <path id="Path_667" data-name="Path 667" d="M2215.283,1659.833l-12.13,6.461V1663.7l21.91-12.6v2.621Z" fill="#ae835b"/>
      </g>
      <g id="Group_112" data-name="Group 112">
        <g id="Group_110" data-name="Group 110">
          <path id="Path_668" data-name="Path 668" d="M2133.379,1735.266l-28.774-16.543v-32.9l28.774,16.543Zm-26.882-17.631L2131.488,1732v-28.544L2106.5,1689.09Z" fill="#87623f"/>
        </g>
        <g id="Group_111" data-name="Group 111">
          <path id="Path_669" data-name="Path 669" d="M2122.166,1724.73l-6.347-3.648v-16.563l6.347,3.648Z" fill="#87623f"/>
          <path id="Path_670" data-name="Path 670" d="M2128.407,1714.907l-18.829-10.824,9.415-5.9Z" fill="#87623f"/>
        </g>
      </g>
      <g id="Group_120" data-name="Group 120">
        <path id="Path_671" data-name="Path 671" d="M2216.232,1754.582v44.1l58.608-33.69v-44.1Z" fill="#fff8e6"/>
        <path id="Path_672" data-name="Path 672" d="M2375.066,1685.767l-.157.091a9.566,9.566,0,0,0-9.521-.1l-29,16.673c-2.493-21.247-11.733-37.406-26.765-46.052-12.7-7.31-28.034-8.327-44.42-3.434l3.619-39.895-10.431-6.5a10.2,10.2,0,0,0-2.382-1.486l-.124-.078v.052a10.277,10.277,0,0,0-14.115,9.636v49c-44.387,27.28-78.762,87.223-78.913,138.507l-33.531,19.266a9.624,9.624,0,0,0-3.541,13.168,9.447,9.447,0,0,0,2.873,3.023l-.006.059,12.257,7.649,25.351-17.533c4.254,14.653,12.4,25.958,24.095,32.675a49.827,49.827,0,0,0,25.175,6.522c8.317,0,17.165-1.968,26.241-5.558v47.759a10.18,10.18,0,0,0,4.594,8.372l-.02.222,12.2,7.63.766-8.711a10.276,10.276,0,0,0,3.311-7.512v-30.082l2.7-30.623c37.274-26.466,66.061-75.56,70.989-120.785l25.279-17.54,13.474-7.747a9.38,9.38,0,0,0,3.677-4.15l7.617-5.29Zm-86.5,44.156a9.611,9.611,0,0,0-3.547,13.161,9.5,9.5,0,0,0,2.971,3.075l-.032.072,11.151,7.115,6.635-10.581-.432-.221,8.16-4.691c-.268,1.231-.406,2.456-.707,3.694-.137.541-.308,1.088-.445,1.635q-1.541,5.952-3.619,11.891c-.183.528-.347,1.056-.537,1.577q-2.346,6.46-5.287,12.81c-.229.5-.471.984-.707,1.485a174.52,174.52,0,0,1-14.626,25.2l-.491.7a158.672,158.672,0,0,1-19.161,22.5c-1.728,1.675-3.495,3.271-5.274,4.821v-1.375l6.642-13.754-11.563-7.486-.092.117a10.192,10.192,0,0,0-5.418-1.727,10.4,10.4,0,0,0-10.425,10.379v28.362c-9.639,5.069-18.735,7.669-26.719,7.552a33.491,33.491,0,0,1-5.117-.463,27.722,27.722,0,0,1-9.155-3.245,26.3,26.3,0,0,1-5.2-4.059c-.347-.326-.687-.665-1.014-1.023a31.37,31.37,0,0,1-4.208-5.577l-.039-.065a41.981,41.981,0,0,1-3.2-7.141c-.111-.3-.222-.593-.321-.9a57.263,57.263,0,0,1-2.114-8.672c-.157-.964-.262-1.974-.379-2.978l31.522-18.12c.111-.065.177-.183.281-.248l2.513,1.31,9.135-9.982-12.669-8.288-.2.234a9.54,9.54,0,0,0-8.743.287l-21.549,12.386q.471-3.782,1.191-7.61l.085-.443h0a155.468,155.468,0,0,1,15.581-42.983l-.007.007a174.455,174.455,0,0,1,9.417-15.683h0a151.973,151.973,0,0,1,30.907-33.985v24.6a10.3,10.3,0,0,0,5.765,9.161l-.079.072,10.771,6.841,7.054-9.7-3.71-2a10.184,10.184,0,0,0,1.054-4.378v-37.614c.118-.059.242-.137.353-.189a60.378,60.378,0,0,1,14.658-4.574,41.188,41.188,0,0,1,6.74-.573,30.763,30.763,0,0,1,9.9,1.746,26.76,26.76,0,0,1,4.921,1.974c10.948,6.294,17,20.368,17.073,39.627Z" fill="#ff4c4a"/>
        <g id="Group_113" data-name="Group 113">
          <path id="Path_673" data-name="Path 673" d="M2226.474,1787.221l-4.668,2.684v-32.957l4.668-2.684Z" fill="#ab9589"/>
          <path id="Path_674" data-name="Path 674" d="M2260.551,1767.633l-4.668,2.683V1737.36l4.668-2.683Z" fill="#ab9589"/>
          <path id="Path_675" data-name="Path 675" d="M2231.633,1784.256l-2.859,1.643v-32.957l2.859-1.643Z" fill="#ab9589"/>
          <path id="Path_676" data-name="Path 676" d="M2253.866,1771.475l-2.859,1.644v-32.957l2.859-1.644Z" fill="#ab9589"/>
          <path id="Path_677" data-name="Path 677" d="M2235.779,1781.873l-2.028,1.165v-32.957l2.028-1.165Z" fill="#ab9589"/>
          <path id="Path_678" data-name="Path 678" d="M2240.45,1779.188l-2.027,1.165V1747.4l2.027-1.165Z" fill="#ab9589"/>
          <path id="Path_679" data-name="Path 679" d="M2264.594,1765.308l-2.027,1.166v-32.957l2.027-1.165Z" fill="#ab9589"/>
          <path id="Path_680" data-name="Path 680" d="M2269.265,1762.623l-3.418,1.966v-32.957l3.418-1.966Z" fill="#ab9589"/>
          <path id="Path_681" data-name="Path 681" d="M2243.77,1777.28l-2.027,1.165v-32.957l2.027-1.165Z" fill="#ab9589"/>
          <path id="Path_682" data-name="Path 682" d="M2248.99,1774.278l-3.583,2.06v-32.957l3.583-2.06Z" fill="#ab9589"/>
        </g>
        <g id="Group_119" data-name="Group 119">
          <g id="Group_114" data-name="Group 114">
            <path id="Path_683" data-name="Path 683" d="M2225.9,1873.662a49.911,49.911,0,0,1-25.181-6.516c-17.74-10.2-27.51-30.779-27.51-57.956,0-52.515,35.985-114.341,81.93-140.748,23.944-13.767,46.979-15.7,64.857-5.414,17.74,10.2,27.51,30.786,27.51,57.955,0,52.515-35.992,114.341-81.943,140.748C2251.772,1869.661,2238.285,1873.662,2225.9,1873.662Zm68.842-196.371c-8.684,0-18.637,3.069-29.179,9.135-39.427,22.668-71.506,77.737-71.506,122.766,0,19.442,6.073,33.646,17.093,39.979,11.138,6.392,26.765,4.483,43.988-5.421,39.427-22.661,71.519-77.73,71.519-122.766,0-19.442-6.073-33.64-17.093-39.973A29.292,29.292,0,0,0,2294.746,1677.29Z" fill="#ff7270"/>
          </g>
          <g id="Group_115" data-name="Group 115">
            <path id="Path_684" data-name="Path 684" d="M2262.569,1730.62h0a10.411,10.411,0,0,1-10.431-10.386v-98.906a10.406,10.406,0,0,1,10.431-10.379h0a10.4,10.4,0,0,1,10.425,10.379v98.906A10.406,10.406,0,0,1,2262.569,1730.62Z" fill="#ff7270"/>
          </g>
          <g id="Group_116" data-name="Group 116">
            <path id="Path_685" data-name="Path 685" d="M2262.569,1926.248h0a10.406,10.406,0,0,1-10.431-10.379v-98.906a10.406,10.406,0,0,1,10.431-10.379h0a10.4,10.4,0,0,1,10.425,10.379v98.906A10.4,10.4,0,0,1,2262.569,1926.248Z" fill="#ff7270"/>
          </g>
          <g id="Group_117" data-name="Group 117">
            <path id="Path_686" data-name="Path 686" d="M2295.4,1749.73h0a9.6,9.6,0,0,1,3.54-13.161l76.819-44.162a9.7,9.7,0,0,1,13.219,3.525h0a9.615,9.615,0,0,1-3.54,13.161l-76.819,44.162A9.7,9.7,0,0,1,2295.4,1749.73Z" fill="#ff7270"/>
          </g>
          <g id="Group_118" data-name="Group 118">
            <path id="Path_687" data-name="Path 687" d="M2136.16,1841.273h0a9.611,9.611,0,0,1,3.541-13.168l76.819-44.162a9.7,9.7,0,0,1,13.212,3.525h0a9.611,9.611,0,0,1-3.54,13.168l-76.819,44.156A9.688,9.688,0,0,1,2136.16,1841.273Z" fill="#ff7270"/>
          </g>
        </g>
      </g>
    </g>
  </g>
  <g id="Vector_Smart_Object-2" data-name="Vector Smart Object" transform="translate(-1574.233 -439.679)">
    <g id="Group_487" data-name="Group 487">
      <path id="Path_932" data-name="Path 932" d="M1934.016,845.991l-8.513-5.641-.661-.435L1818.2,769.363l-.637-.411-.949-.628c15.046-11.434,26.929-21.048,30.615-25.125.431-.464.85-.92,1.27-1.367.395-.423.773-.825,1.138-1.236,6.808-7.406,11.11-17.584,13.789-27.494l26.42,2.389a2.841,2.841,0,0,0,2.252-.8l1.574-1.544.234-.23a2.525,2.525,0,0,0,.547-.784,2.6,2.6,0,0,0,.23-.948l.033-.809-9.635-6.314-17.89-11.75c.177-1.811.3-3.477.378-4.963.094-1.552.136-2.919.164-4.044a13.5,13.5,0,0,0-.366-3.633c-1.463-5.871-7.186-3.543-8.933-2.964-.329.111-6.344,3.518-16.25,9.188l-27.734-16.627-4.557,3.046a1.913,1.913,0,0,0-.514.5,2.027,2.027,0,0,0-.152,2.139l12.191,22.867-4.68,2.689c-.555.312-1.109.636-1.676.961-12.059,6.938-25.877,14.9-40.451,23.311-.583.337-1.163.677-1.746,1-4.618,2.668-9.327,5.386-14.056,8.12l-105.794-63.084-1.952-1.162-2.621-1.556-35.311,15.416s-1.352,3.042,0,4.056c1.15.866,66.218,62.6,85.656,81.041l-1.109.645q-.918.542-1.828,1.055c-23.683,13.737-44.47,25.815-57.581,33.492-.666.378-1.315.76-1.935,1.125-6.808,3.986-11.192,6.6-12.359,7.341-5.37,3.449-9.105,6.462-14.479,14.4-1.393,2.057-2.909,4.446-4.573,7.275-3.262,5.477-7.145,12.558-12.072,21.935a62.447,62.447,0,0,0-4.318,10.029q-.345,1.1-.608,2.11c-.169.669-.284,1.178-.39,1.683-.09.415-.177.829-.251,1.232-.033.2-.07.394-.1.583-.049.292-.111.6-.152.883-.041.267-.07.542-.094.8-2.194,17.255,9.471,16.676,14.775,16.405,1.356-.07,2.72-.164,4.117-.287,11.718-1.055,24.846-4.286,36.1-10.682,8.8-4.976,19.784-11.224,31.79-18.035.567-.324,1.151-.661,1.734-.989,17.376-9.874,36.7-20.876,54.413-31,.649-.378,1.3-.743,1.952-1.108,1.648-.944,3.5-2.057,5.535-3.313,4.384-2.71,9.586-6.1,15.305-9.935,16.883,6.462,46.828,17.8,75.5,28.648.477.181.957.357,1.434.542q.943.357,1.886.71c29.4,11.117,56.78,21.451,66.37,25.064a9.477,9.477,0,0,0,8.123-.677l29.259-17V846.8Z" fill="#49768f" opacity="0.2" style="mix-blend-mode: multiply;isolation: isolate"/>
      <g id="Group_486" data-name="Group 486">
        <g id="Group_392" data-name="Group 392">
          <g id="Group_391" data-name="Group 391">
            <g id="Group_388" data-name="Group 388">
              <path id="Path_933" data-name="Path 933" d="M1672.872,717.4a7.97,7.97,0,0,1-1.446,5,102.878,102.878,0,0,1-13.974,14.853c-7.437,6.532-17.417,13.478-28.91,16.709,0,0-4.092-4.077-8.633-9.4-6.911-8.137-14.821-19.193-10.712-23.159a81.571,81.571,0,0,1,18.666-12.6c1.512-.792,3.094-1.544,4.729-2.274a80.455,80.455,0,0,1,25.758-6.934,8.238,8.238,0,0,1,4.955,1.26c.152.082.292.181.431.263a20.5,20.5,0,0,1,6.9,7.9A18.879,18.879,0,0,1,1672.872,717.4Z" fill="#ff8c36"/>
              <path id="Path_934" data-name="Path 934" d="M1672.872,717.4a7.991,7.991,0,0,1-1.45,5s-17.877,24.5-42.875,31.55c0,0-4.1-4.073-8.633-9.4,25.6-9.1,44.49-28.5,50.728-35.532A18.941,18.941,0,0,1,1672.872,717.4Z" fill="#e8593a"/>
              <path id="Path_935" data-name="Path 935" d="M1633.854,744.608c0,3.949-1.266,6.819-3.353,8.367-2.486,1.843-6.134,1.81-10.21-.538-7.486-4.323-13.559-14.833-13.559-23.471,0-4.688,1.787-7.87,4.618-9.1,2.387-1.043,5.518-.7,8.941,1.273C1627.786,725.46,1633.854,735.97,1633.854,744.608Z" fill="#f6f7ef"/>
              <path id="Path_936" data-name="Path 936" d="M1632.343,744.6c0,3.3-.97,5.85-2.737,7.16a4.137,4.137,0,0,1-.37.246,5.425,5.425,0,0,1-2.884.764,9.246,9.246,0,0,1-3.5-.764l2.88-9.874a4.118,4.118,0,0,1-2.087-.456c-.136-.07-.279-.144-.423-.222a9.332,9.332,0,0,1-2.543-2.266,11.969,11.969,0,0,1-2.256-4.512l-7.1,1.7-1.578.382a22.94,22.94,0,0,1-1.512-7.8,11.941,11.941,0,0,1,.781-4.483,5.328,5.328,0,0,1,5.222-3.678,9.2,9.2,0,0,1,3.386.719,13.347,13.347,0,0,1,1.911.928,26.068,26.068,0,0,1,8.953,9.381c.053.09.1.181.164.279.234.4.395.7.542,1A25.407,25.407,0,0,1,1632.343,744.6Z" fill="#9a9893"/>
              <path id="Path_937" data-name="Path 937" d="M1620.682,739.193l-6.282,5.945c-.078-.1-.152-.193-.222-.292a30.785,30.785,0,0,1-4.429-8.079l1.578-.382,7.1-1.7A11.969,11.969,0,0,0,1620.682,739.193Z" fill="#b5b3ad"/>
              <path id="Path_938" data-name="Path 938" d="M1623.648,741.68l-5.033,7.776a25.661,25.661,0,0,1-4.216-4.319l6.282-5.945a9.332,9.332,0,0,0,2.543,2.266C1623.369,741.537,1623.513,741.611,1623.648,741.68Z" fill="#c9cdcb"/>
              <path id="Path_939" data-name="Path 939" d="M1625.735,742.136l-2.88,9.874a13.254,13.254,0,0,1-1.808-.879,18.594,18.594,0,0,1-2.432-1.675l5.033-7.776A4.118,4.118,0,0,0,1625.735,742.136Z" fill="#b5b3ad"/>
              <path id="Path_940" data-name="Path 940" d="M1628.291,738.527a3.573,3.573,0,0,1-1.426,3.235,2.413,2.413,0,0,1-1.064.357c-1.434.4-4.06.829-6.122-.439a5.081,5.081,0,0,1-1.631-1.613c-2.63-4.048-.226-8.355.674-9.705a2.222,2.222,0,0,1,.234-.337c.982-1.133,2.519-1.269,4.269-.259a9.333,9.333,0,0,1,2.51,2.217c.21.263.407.534.592.817a7.46,7.46,0,0,1,.431.653,12.5,12.5,0,0,1,.929,1.958A9.215,9.215,0,0,1,1628.291,738.527Z" fill="#6d6b68"/>
              <path id="Path_941" data-name="Path 941" d="M1628.291,738.527a3.573,3.573,0,0,1-1.426,3.235,2.413,2.413,0,0,1-1.064.357c-1.434.4-4.06.829-6.122-.439,5.506-3.034,6.1-9.36,6.056-9.689a9.07,9.07,0,0,1,.592.809,7.46,7.46,0,0,1,.431.653,12.5,12.5,0,0,1,.929,1.958A9.215,9.215,0,0,1,1628.291,738.527Z" fill="#585654"/>
              <path id="Path_942" data-name="Path 942" d="M1632.343,744.6c0,3.3-.97,5.85-2.737,7.16a4.137,4.137,0,0,1-.37.246c-.025-26.34-20.219-27.531-20.219-27.531a5.328,5.328,0,0,1,5.222-3.678,9.2,9.2,0,0,1,3.386.719,13.347,13.347,0,0,1,1.911.928,26.068,26.068,0,0,1,8.953,9.381c.053.09.1.181.164.279.234.4.395.7.542,1A25.407,25.407,0,0,1,1632.343,744.6Z" fill="#bbc6cb" style="mix-blend-mode: multiply;isolation: isolate"/>
            </g>
            <g id="Group_390" data-name="Group 390">
              <g id="Group_389" data-name="Group 389">
                <path id="Path_943" data-name="Path 943" d="M1663.808,703.139s-8.218,4.093-16.5,8.071c-7.219,3.481-14.5,6.881-16.419,7.431a5.766,5.766,0,0,1-.694.14c-3.567.443-4.8-4.007-4.8-4.007l2.469-5.973,2.207-5.358,5.411-13.117,4.08-2.258,18.888-10.387,4.425-2.443.156,4.66.707,21.217Z" fill="#f9642d"/>
                <path id="Path_944" data-name="Path 944" d="M1639.57,688.068l-9.38,30.708c-3.567.452-4.8-4-4.8-4l10.087-24.452Z" fill="#ffa634"/>
              </g>
            </g>
          </g>
          <path id="Path_945" data-name="Path 945" d="M1672.872,717.4a7.97,7.97,0,0,1-1.446,5,102.878,102.878,0,0,1-13.974,14.853c3.9-19.928-10.145-26.041-10.145-26.041s-11.1-4.631-13.448-4.438a2.289,2.289,0,0,1-1.266-.246,6.636,6.636,0,0,1-2.523-3.083l5.411-13.117,4.08-2.258,18.888-10.387c1.372.64,2.93,1.388,4.581,2.217l.707,21.217a20.5,20.5,0,0,1,6.9,7.9A18.879,18.879,0,0,1,1672.872,717.4Z" fill="#cc8c8c" opacity="0.5" style="mix-blend-mode: multiply;isolation: isolate"/>
        </g>
        <g id="Group_393" data-name="Group 393">
          <path id="Path_946" data-name="Path 946" d="M1762.362,716.6l-34,26-22.484,5.337-11.086,2.636s-92.029-87.359-93.414-88.4,0-4.159,0-4.159l36.207-15.81,2.691,1.6,2,1.191,118.671,70.765.805.484Z" fill="#f0f3ed"/>
          <path id="Path_947" data-name="Path 947" d="M1706.005,747.4l-.123.542-11.09,2.636s-92.025-87.359-93.414-88.4,0-4.159,0-4.159Z" fill="#d3dbdc"/>
          <path id="Path_948" data-name="Path 948" d="M1761.753,716.238l-16.794,5.09-42.425-26.793-.68-.427-23.107-14.589-.667-.416-22.912-14.474-.666-.417-23-14.52,10.77-4.7,22.509,13.423.7.417,23.607,14.074.68.4,23.813,14.2.7.416,46.672,27.83Z" fill="#bbc6cb"/>
          <path id="Path_949" data-name="Path 949" d="M1760.948,715.754l-15.89,4.825L1632.979,649.8,1643,645.423Z" fill="#e5eae7"/>
        </g>
        <path id="Path_950" data-name="Path 950" d="M1841.374,663.517,1821.1,675.912l-3.316,2.04-15.31-28.717a2.077,2.077,0,0,1,.156-2.192,2.007,2.007,0,0,1,.526-.509l4.676-3.124Z" fill="#ffa634"/>
        <path id="Path_951" data-name="Path 951" d="M1821.1,675.912l-3.316,2.04-15.31-28.717a2.077,2.077,0,0,1,.156-2.192Z" fill="#ff8c36"/>
        <g id="Group_413" data-name="Group 413">
          <g id="Group_407" data-name="Group 407">
            <g id="Group_394" data-name="Group 394">
              <path id="Path_952" data-name="Path 952" d="M1622.348,863.307l4.469-2.592-.007,2.8-4.469,2.6Z" fill="#55575d"/>
            </g>
            <g id="Group_403" data-name="Group 403">
              <g id="Group_398" data-name="Group 398">
                <g id="Group_397" data-name="Group 397" style="isolation: isolate">
                  <g id="Group_395" data-name="Group 395" style="isolation: isolate">
                    <path id="Path_953" data-name="Path 953" d="M1624.186,868.415a4.819,4.819,0,0,1,.041-.591l-1.791-1.039a5.833,5.833,0,0,0-.037.6,2.128,2.128,0,0,0,.887,1.946l1.787,1.035A2.114,2.114,0,0,1,1624.186,868.415Z" fill="#58595a"/>
                    <path id="Path_954" data-name="Path 954" d="M1622.9,865.147c-.037.09-.078.181-.111.271s-.07.189-.1.287-.066.205-.094.308c-.033.119-.062.234-.082.349-.033.144-.057.283-.078.423l1.791,1.039a3.784,3.784,0,0,1,.074-.423c.025-.115.053-.234.082-.345s.062-.209.095-.312.07-.189.1-.287l.111-.271Z" fill="#767b7d"/>
                    <path id="Path_955" data-name="Path 955" d="M1623.632,863.853c-.062.086-.119.172-.177.263l-.156.255c-.049.086-.1.168-.144.259s-.086.168-.131.255l-.119.263,1.787,1.039c.041-.09.078-.177.119-.263s.086-.172.131-.259.095-.168.144-.255.1-.172.156-.255.115-.181.177-.263Z" fill="#93999b"/>
                    <path id="Path_956" data-name="Path 956" d="M1625.427,862.142a5.021,5.021,0,0,0-1.015.784c-.115.111-.226.23-.333.353-.086.094-.164.2-.246.3s-.136.185-.2.275l1.787,1.039c.066-.094.131-.185.2-.275s.16-.2.247-.3c.107-.119.218-.242.333-.353a4.881,4.881,0,0,1,1.015-.784Z" fill="#767b7d"/>
                    <path id="Path_957" data-name="Path 957" d="M1627.716,862.938c.074-.025.144-.049.214-.07a3.734,3.734,0,0,1,.707-.1,1.764,1.764,0,0,1,.267.029,2.039,2.039,0,0,1,.472.172l-1.787-1.039a6.21,6.21,0,0,0-1.66-.025,4.634,4.634,0,0,0-.5.238l1.787,1.039a3.363,3.363,0,0,1,.382-.193Z" fill="#58595a"/>
                  </g>
                  <g id="Group_396" data-name="Group 396">
                    <path id="Path_958" data-name="Path 958" d="M1627.215,863.18c1.676-.965,3.041-.193,3.045,1.732a6.658,6.658,0,0,1-3.024,5.239c-1.676.969-3.041.189-3.049-1.737A6.667,6.667,0,0,1,1627.215,863.18Z" fill="#494445"/>
                  </g>
                </g>
              </g>
              <g id="Group_402" data-name="Group 402">
                <g id="Group_401" data-name="Group 401" style="isolation: isolate">
                  <g id="Group_399" data-name="Group 399" style="isolation: isolate">
                    <path id="Path_959" data-name="Path 959" d="M1627.235,870.094a4.9,4.9,0,0,1,.037-.6l-1.787-1.039a4.887,4.887,0,0,0-.041.6,2.128,2.128,0,0,0,.888,1.946l1.787,1.035A2.109,2.109,0,0,1,1627.235,870.094Z" fill="#58595a"/>
                    <path id="Path_960" data-name="Path 960" d="M1625.949,866.822c-.037.09-.074.181-.111.275s-.07.189-.1.287-.066.2-.094.3c-.029.119-.058.234-.082.349a3.789,3.789,0,0,0-.074.423l1.787,1.039a3.7,3.7,0,0,1,.074-.419c.025-.119.053-.238.082-.349s.062-.209.1-.312.066-.193.1-.287.074-.181.115-.271Z" fill="#767b7d"/>
                    <path id="Path_961" data-name="Path 961" d="M1626.676,865.529c-.062.086-.119.172-.177.263s-.107.168-.156.255-.1.172-.144.259-.086.172-.127.259-.082.172-.123.259l1.791,1.039c.037-.086.078-.177.119-.263s.082-.172.127-.259.094-.168.144-.255.1-.172.156-.255.115-.177.177-.263Z" fill="#93999b"/>
                    <path id="Path_962" data-name="Path 962" d="M1628.472,863.817a5.173,5.173,0,0,0-1.015.784c-.115.115-.226.23-.333.357-.082.094-.164.2-.247.3-.07.086-.135.181-.2.271l1.787,1.039c.066-.09.131-.185.2-.275s.164-.2.247-.3c.107-.123.218-.242.333-.353a5.02,5.02,0,0,1,1.015-.784Z" fill="#767b7d"/>
                    <path id="Path_963" data-name="Path 963" d="M1630.761,864.617c.074-.029.144-.053.214-.074a3.317,3.317,0,0,1,.707-.1,1.4,1.4,0,0,1,.271.029,2.19,2.19,0,0,1,.468.172l-1.787-1.035a6.184,6.184,0,0,0-1.66-.029,4.652,4.652,0,0,0-.5.238l1.787,1.039a4.1,4.1,0,0,1,.382-.189C1630.682,864.646,1630.719,864.634,1630.761,864.617Z" fill="#58595a"/>
                  </g>
                  <g id="Group_400" data-name="Group 400">
                    <path id="Path_964" data-name="Path 964" d="M1630.259,864.855c1.676-.969,3.041-.2,3.049,1.732a6.668,6.668,0,0,1-3.028,5.239c-1.676.969-3.04.193-3.045-1.732A6.646,6.646,0,0,1,1630.259,864.855Z" fill="#494445"/>
                  </g>
                </g>
              </g>
            </g>
            <g id="Group_404" data-name="Group 404">
              <path id="Path_965" data-name="Path 965" d="M1631.8,866.985l4.469-2.6-.014,4.582-4.469,2.6Z" fill="#6d7881"/>
            </g>
            <g id="Group_405" data-name="Group 405">
              <path id="Path_966" data-name="Path 966" d="M1620.887,860.688l4.469-2.6,10.915,6.3-4.469,2.6Z" fill="#a2afb8"/>
            </g>
            <g id="Group_406" data-name="Group 406">
              <path id="Path_967" data-name="Path 967" d="M1631.8,866.985l-.013,4.583-1.47-.847.007-2.808-7.98-4.605-.007,2.808-1.466-.844.013-4.583Z" fill="#85929c"/>
            </g>
          </g>
          <g id="Group_412" data-name="Group 412">
            <g id="Group_411" data-name="Group 411" style="isolation: isolate">
              <g id="Group_408" data-name="Group 408">
                <path id="Path_968" data-name="Path 968" d="M1629.158,845.714l1.787-1.037,4.442,2.562-1.789,1.037Z" fill="#a2afb8"/>
              </g>
              <g id="Group_409" data-name="Group 409">
                <path id="Path_969" data-name="Path 969" d="M1633.6,848.276l1.789-1.037-3.653,16.507-1.788,1.04Z" fill="#6d7881"/>
              </g>
              <g id="Group_410" data-name="Group 410">
                <path id="Path_970" data-name="Path 970" d="M1629.158,845.714l4.44,2.562-3.651,16.511-4.443-2.566Z" fill="#85929c"/>
              </g>
            </g>
          </g>
        </g>
        <g id="Group_432" data-name="Group 432">
          <g id="Group_426" data-name="Group 426">
            <g id="Group_414" data-name="Group 414">
              <path id="Path_971" data-name="Path 971" d="M1725.559,803.614l4.469-2.593-.008,2.8-4.469,2.6Z" fill="#55575d"/>
            </g>
            <g id="Group_418" data-name="Group 418">
              <g id="Group_417" data-name="Group 417" style="isolation: isolate">
                <g id="Group_415" data-name="Group 415" style="isolation: isolate">
                  <path id="Path_972" data-name="Path 972" d="M1727.4,808.722a4.926,4.926,0,0,1,.037-.6l-1.787-1.035a4.167,4.167,0,0,0-.037.6,2.114,2.114,0,0,0,.883,1.942l1.787,1.039A2.121,2.121,0,0,1,1727.4,808.722Z" fill="#58595a"/>
                  <path id="Path_973" data-name="Path 973" d="M1726.114,805.454c-.037.09-.074.181-.107.271s-.074.189-.107.287-.062.205-.095.308-.057.234-.086.349c-.025.144-.049.283-.07.423l1.787,1.035q.031-.209.074-.419c.025-.119.053-.234.086-.349s.057-.205.094-.308a3.036,3.036,0,0,1,.1-.287c.033-.094.07-.185.107-.271Z" fill="#767b7d"/>
                  <path id="Path_974" data-name="Path 974" d="M1726.841,804.157c-.058.09-.119.177-.173.267s-.107.168-.16.255-.095.168-.14.255-.09.172-.131.259l-.123.263,1.787,1.039c.041-.09.082-.177.123-.263s.086-.172.131-.259.09-.168.14-.255l.16-.259c.053-.09.115-.177.173-.259Z" fill="#93999b"/>
                  <path id="Path_975" data-name="Path 975" d="M1728.637,802.449a5.141,5.141,0,0,0-1.015.784c-.111.111-.226.23-.333.353-.082.094-.164.2-.247.3-.066.09-.135.181-.2.271l1.787,1.043c.066-.094.135-.185.2-.275.082-.1.164-.2.251-.3.1-.123.218-.242.329-.353a5.161,5.161,0,0,1,1.015-.788Z" fill="#767b7d"/>
                  <path id="Path_976" data-name="Path 976" d="M1730.925,803.245a2.223,2.223,0,0,1,.218-.07,3.723,3.723,0,0,1,.7-.1c.123,0,.2.016.271.025a2.053,2.053,0,0,1,.468.177l-1.787-1.039a6.227,6.227,0,0,0-1.66-.025,3.975,3.975,0,0,0-.5.238l1.787,1.035a4.118,4.118,0,0,1,.382-.189Z" fill="#58595a"/>
                </g>
                <g id="Group_416" data-name="Group 416">
                  <path id="Path_977" data-name="Path 977" d="M1730.424,803.483c1.677-.965,3.045-.193,3.049,1.737a6.674,6.674,0,0,1-3.028,5.239c-1.676.965-3.041.189-3.045-1.737A6.653,6.653,0,0,1,1730.424,803.483Z" fill="#494445"/>
                </g>
              </g>
            </g>
            <g id="Group_422" data-name="Group 422">
              <g id="Group_421" data-name="Group 421" style="isolation: isolate">
                <g id="Group_419" data-name="Group 419" style="isolation: isolate">
                  <path id="Path_978" data-name="Path 978" d="M1730.445,810.4a4.871,4.871,0,0,1,.037-.6l-1.787-1.043a4.966,4.966,0,0,0-.037.6,2.124,2.124,0,0,0,.887,1.946l1.787,1.035A2.107,2.107,0,0,1,1730.445,810.4Z" fill="#58595a"/>
                  <path id="Path_979" data-name="Path 979" d="M1729.163,807.129q-.062.135-.111.271a3.008,3.008,0,0,0-.1.291c-.037.1-.066.2-.094.3-.033.119-.062.234-.086.349-.029.14-.053.283-.074.419l1.787,1.043c.021-.14.045-.279.074-.423.025-.115.053-.234.086-.345s.058-.209.095-.312.066-.193.1-.287.07-.181.111-.271Z" fill="#767b7d"/>
                  <path id="Path_980" data-name="Path 980" d="M1729.886,805.836c-.057.086-.119.172-.172.259s-.107.172-.16.259-.094.172-.14.255-.09.172-.132.263-.082.172-.119.259l1.787,1.039.119-.263c.041-.086.086-.172.132-.259s.09-.168.14-.255.107-.172.16-.255.115-.177.177-.267Z" fill="#93999b"/>
                  <path id="Path_981" data-name="Path 981" d="M1731.681,804.124a5.259,5.259,0,0,0-1.015.784c-.111.115-.226.23-.333.357-.082.094-.164.193-.247.3-.066.086-.135.181-.2.271l1.792,1.035c.062-.09.131-.181.2-.271.082-.1.164-.2.25-.3.107-.123.218-.242.329-.353a5.138,5.138,0,0,1,1.015-.784Z" fill="#767b7d"/>
                  <path id="Path_982" data-name="Path 982" d="M1733.974,804.924a2.2,2.2,0,0,1,.214-.074,3.3,3.3,0,0,1,.7-.1,1.4,1.4,0,0,1,.271.029,2.185,2.185,0,0,1,.468.172l-1.783-1.039a6.278,6.278,0,0,0-1.664-.025,4.629,4.629,0,0,0-.5.238l1.787,1.039a2.562,2.562,0,0,1,.386-.189Z" fill="#58595a"/>
                </g>
                <g id="Group_420" data-name="Group 420">
                  <path id="Path_983" data-name="Path 983" d="M1733.469,805.162c1.676-.969,3.045-.2,3.049,1.733a6.667,6.667,0,0,1-3.028,5.239c-1.676.969-3.041.193-3.045-1.733A6.662,6.662,0,0,1,1733.469,805.162Z" fill="#494445"/>
                </g>
              </g>
            </g>
            <g id="Group_423" data-name="Group 423">
              <path id="Path_984" data-name="Path 984" d="M1735.014,807.292l4.469-2.6-.013,4.583-4.469,2.6Z" fill="#6d7881"/>
            </g>
            <g id="Group_424" data-name="Group 424">
              <path id="Path_985" data-name="Path 985" d="M1724.1,801l4.471-2.6,10.915,6.3-4.469,2.6Z" fill="#a2afb8"/>
            </g>
            <g id="Group_425" data-name="Group 425">
              <path id="Path_986" data-name="Path 986" d="M1735.014,807.292l-.013,4.583-1.469-.848.007-2.808-7.98-4.605-.007,2.808-1.466-.844L1724.1,801Z" fill="#85929c"/>
            </g>
          </g>
          <g id="Group_431" data-name="Group 431">
            <g id="Group_430" data-name="Group 430" style="isolation: isolate">
              <g id="Group_427" data-name="Group 427">
                <path id="Path_987" data-name="Path 987" d="M1732.369,786.021l1.787-1.037,4.441,2.562-1.788,1.037Z" fill="#a2afb8"/>
              </g>
              <g id="Group_428" data-name="Group 428">
                <path id="Path_988" data-name="Path 988" d="M1736.809,788.583l1.788-1.037-3.651,16.507-1.787,1.037Z" fill="#6d7881"/>
              </g>
              <g id="Group_429" data-name="Group 429">
                <path id="Path_989" data-name="Path 989" d="M1732.369,786.021l4.44,2.562-3.651,16.507-4.443-2.562Z" fill="#85929c"/>
              </g>
            </g>
          </g>
        </g>
        <path id="Path_990" data-name="Path 990" d="M1862.469,657.807c-.029,1.15-.07,2.549-.164,4.142-.086,1.523-.209,3.231-.39,5.091-.349,3.506-.875,7.529-1.68,11.787-.1.542-.206,1.084-.316,1.622-.514,2.578-1.126,5.226-1.861,7.9-2.749,10.165-7.162,20.605-14.143,28.2-.374.419-.764.833-1.163,1.264-.436.46-.863.928-1.307,1.4-10.186,11.286-81.478,63.774-112.676,83.049-2.079,1.289-3.986,2.422-5.678,3.4-.662.378-1.331.751-2,1.137-18.165,10.387-37.982,21.673-55.8,31.8-.6.333-1.2.682-1.779,1.014-12.31,6.987-23.576,13.392-32.6,18.495-11.546,6.56-25.006,9.874-37.025,10.957-1.43.123-2.831.218-4.208.292-5.452.275-17.417.87-15.17-16.82.029-.267.058-.542.1-.821a39.006,39.006,0,0,1,.916-4.479c.181-.706.39-1.429.625-2.176a63.869,63.869,0,0,1,4.429-10.288c5.05-9.611,9.031-16.873,12.376-22.494,1.709-2.894,3.262-5.353,4.692-7.46,5.51-8.141,9.339-11.232,14.849-14.767,1.2-.764,5.691-3.44,12.672-7.529.637-.378,1.3-.764,1.985-1.15,13.448-7.878,34.765-20.264,59.052-34.346q.937-.523,1.87-1.084c24.484-14.172,51.837-29.994,77.11-44.585.6-.333,1.191-.677,1.787-1.026,14.948-8.621,29.119-16.787,41.483-23.9.583-.333,1.155-.669,1.722-.985,24.982-14.381,42.189-24.214,42.76-24.407,1.787-.6,7.659-2.981,9.159,3.038A13.656,13.656,0,0,1,1862.469,657.807Z" fill="#d3dbdc"/>
        <path id="Path_991" data-name="Path 991" d="M1595.914,863.1c9.393-1.416,36.306-14.574,69.291-32.987a34.342,34.342,0,0,1-1.693,9.5c-12.31,6.987-23.576,13.392-32.6,18.495-11.546,6.56-25.006,9.874-37.025,10.957A8.839,8.839,0,0,0,1595.914,863.1Z" fill="#bbc6cb"/>
        <path id="Path_992" data-name="Path 992" d="M1723.9,795.626a33.409,33.409,0,0,1-1.943,9.122c-.263.71-.538,1.388-.859,2.053-18.165,10.387-37.982,21.673-55.8,31.8a37.321,37.321,0,0,0,1.344-9.278C1684.594,819.256,1704.3,807.691,1723.9,795.626Z" fill="#bbc6cb"/>
        <path id="Path_993" data-name="Path 993" d="M1800.463,745.178a39.84,39.84,0,0,1-.4,7.1c-24.636,18.4-54.072,39.309-71.292,49.992-2.079,1.289-3.986,2.422-5.678,3.4.057-.14.115-.292.168-.431a35.238,35.238,0,0,0,2.067-10.5c21.719-13.363,43.258-27.3,62.146-40.393Q1794.4,749.538,1800.463,745.178Z" fill="#bbc6cb"/>
        <path id="Path_994" data-name="Path 994" d="M1840.528,711.83a46.013,46.013,0,0,1,.916,7.39c-4.347,4.865-20.392,17.764-39.843,31.891a39.158,39.158,0,0,0,.193-6.9C1819.795,731.212,1832.047,721.022,1840.528,711.83Z" fill="#bbc6cb"/>
        <path id="Path_995" data-name="Path 995" d="M1860.234,678.826c-2.375,12.755-7.116,27.72-16.32,37.729-.374.419-.764.833-1.163,1.264a50.142,50.142,0,0,0-1.072-7.254c1.779-1.967,3.361-3.892,4.8-5.793C1855.213,693.232,1858.319,681.7,1860.234,678.826Z" fill="#bbc6cb"/>
        <path id="Path_996" data-name="Path 996" d="M1654.185,796.541c-5.284,2.853-8.283,4.45-8.283,4.45a109.037,109.037,0,0,0-17.779,17.3c-1.454,1.843.834,5.809-1.344,8.942-9.274,13.343-28.507,26.6-35.611,29.555-3.694,1.523-3,5.739-6.426,11.039-5.428-2.722-13.851-6.409-8.592-22.773a63.869,63.869,0,0,1,4.429-10.288c5.05-9.611,9.031-16.873,12.376-22.494,1.709-2.894,3.262-5.353,4.692-7.46,5.51-8.141,9.339-11.232,14.849-14.767,1.2-.764,5.691-3.44,12.672-7.529C1630.732,783.063,1644.751,785.485,1654.185,796.541Z" fill="#f6f7ef"/>
        <path id="Path_997" data-name="Path 997" d="M1714.572,762.844c-25.286,14.545-47.227,26.583-59.151,33.032-8.813-10.514-21.621-13.605-28.269-14.5,13.448-7.878,34.765-20.264,59.052-34.346C1693.157,748.036,1706.231,751.431,1714.572,762.844Z" fill="#f6f7ef"/>
        <path id="Path_998" data-name="Path 998" d="M1790.885,716.543c-24.148,15.7-51.085,31.768-75.122,45.607-7.967-11.011-20.178-14.866-27.689-16.208,24.484-14.172,51.837-29.994,77.11-44.585C1772.4,702.79,1783.477,706.559,1790.885,716.543Z" fill="#f6f7ef"/>
        <path id="Path_999" data-name="Path 999" d="M1830.3,689.127c-10.991,8.4-24.106,17.46-38.237,26.652-7.174-9.705-17.651-13.77-25.093-15.449,14.948-8.621,29.119-16.787,41.483-23.9C1815.033,678.034,1823.748,681.528,1830.3,689.127Z" fill="#f6f7ef"/>
        <path id="Path_1000" data-name="Path 1000" d="M1862.1,654.075c.082,7.611-12.088,19.895-30.7,34.21-6.332-7.382-14.615-11.027-21.222-12.842,24.982-14.381,42.189-24.214,42.76-24.407C1854.724,650.442,1860.6,648.056,1862.1,654.075Z" fill="#f6f7ef"/>
        <g id="Group_437" data-name="Group 437">
          <g id="Group_433" data-name="Group 433">
            <path id="Path_1001" data-name="Path 1001" d="M1666.635,829.319a37.321,37.321,0,0,1-1.344,9.278c-.6.333-1.2.682-1.779,1.014a34.342,34.342,0,0,0,1.693-9.5C1665.677,829.848,1666.166,829.581,1666.635,829.319Z" fill="#a2afb8"/>
            <path id="Path_1002" data-name="Path 1002" d="M1655.422,795.876c-.431.234-.846.456-1.237.665-9.434-11.056-23.453-13.478-29.016-14.02.637-.378,1.3-.764,1.985-1.15C1633.8,782.271,1646.608,785.362,1655.422,795.876Z" fill="#e5eae7"/>
            <path id="Path_1003" data-name="Path 1003" d="M1665.2,830.111c.362-8.211-1.775-17.391-6.286-26.4a35.453,35.453,0,0,0-4.733-7.168c.39-.209.805-.431,1.237-.665a35.354,35.354,0,0,1,4.746,7.209c4.454,8.913,6.664,18.01,6.467,26.234C1666.166,829.581,1665.677,829.848,1665.2,830.111Z" fill="#bbc6cb"/>
          </g>
          <g id="Group_434" data-name="Group 434">
            <path id="Path_1004" data-name="Path 1004" d="M1725.325,794.735a35.238,35.238,0,0,1-2.067,10.5c-.053.14-.111.291-.168.431-.662.378-1.331.751-2,1.137.32-.665.6-1.342.859-2.053a33.409,33.409,0,0,0,1.943-9.122C1724.384,795.334,1724.852,795.043,1725.325,794.735Z" fill="#a2afb8"/>
            <path id="Path_1005" data-name="Path 1005" d="M1715.764,762.15c-.4.25-.805.472-1.192.694-8.341-11.413-21.415-14.808-28.367-15.818q.937-.523,1.87-1.084C1695.585,747.284,1707.8,751.139,1715.764,762.15Z" fill="#e5eae7"/>
            <path id="Path_1006" data-name="Path 1006" d="M1725.325,794.735c-.473.308-.941.6-1.43.891.641-8.543-1.483-18.208-6.229-27.7a35.93,35.93,0,0,0-3.094-5.087c.386-.222.789-.443,1.192-.694a36.5,36.5,0,0,1,3.135,5.173C1723.579,776.671,1725.769,786.212,1725.325,794.735Z" fill="#bbc6cb"/>
          </g>
          <g id="Group_435" data-name="Group 435">
            <path id="Path_1007" data-name="Path 1007" d="M1801.6,751.111q-.77.56-1.541,1.166a39.84,39.84,0,0,0,.4-7.1c.444-.32.888-.636,1.331-.969A39.158,39.158,0,0,1,1801.6,751.111Z" fill="#c74c32"/>
            <path id="Path_1008" data-name="Path 1008" d="M1792.064,715.779c-.386.267-.776.517-1.179.764-7.408-9.984-18.486-13.753-25.7-15.186.6-.333,1.191-.677,1.787-1.026C1774.413,702.01,1784.891,706.074,1792.064,715.779Z" fill="#e5eae7"/>
            <path id="Path_1009" data-name="Path 1009" d="M1801.794,744.209c-.444.333-.887.649-1.331.969a56.641,56.641,0,0,0-6.315-23.339,34.927,34.927,0,0,0-3.262-5.3c.4-.246.793-.5,1.179-.764a38.838,38.838,0,0,1,3.32,5.436A58.452,58.452,0,0,1,1801.794,744.209Z" fill="#bbc6cb"/>
          </g>
          <g id="Group_436" data-name="Group 436">
            <path id="Path_1010" data-name="Path 1010" d="M1842.751,717.82c-.436.46-.863.928-1.307,1.4a46.694,46.694,0,0,0-.916-7.39c.4-.431.793-.85,1.15-1.264A50.142,50.142,0,0,1,1842.751,717.82Z" fill="#a2afb8"/>
            <path id="Path_1011" data-name="Path 1011" d="M1831.4,688.285c-.366.292-.735.567-1.1.842-6.554-7.6-15.268-11.093-21.847-12.7.583-.333,1.155-.669,1.722-.985C1816.783,677.258,1825.067,680.9,1831.4,688.285Z" fill="#e5eae7"/>
            <path id="Path_1012" data-name="Path 1012" d="M1841.678,710.565c-.357.415-.748.833-1.15,1.264a61.2,61.2,0,0,0-5.383-15.42,35,35,0,0,0-4.844-7.283c.362-.275.731-.55,1.1-.842a36.521,36.521,0,0,1,4.98,7.5A62.89,62.89,0,0,1,1841.678,710.565Z" fill="#bbc6cb"/>
          </g>
        </g>
        <g id="Group_439" data-name="Group 439">
          <path id="Path_1013" data-name="Path 1013" d="M1628.567,820.956v3.892a2.5,2.5,0,0,1-1.792,2.4l-14.582,4.335-.5.181-.875-.46-17.553-9.1-.308-.148v-9.779c1.709-2.894,3.262-5.353,4.692-7.46l.986,2.537.333.833.637.37,14.977,8.547.583.332.789-.115,9.356.283A3.355,3.355,0,0,1,1628.567,820.956Z" fill="#175d7e"/>
          <path id="Path_1014" data-name="Path 1014" d="M1628.567,824.827a2.509,2.509,0,0,1-1.792,2.418l-14.582,4.335-.5.181-.875-.46-17.553-9.1-.308-.148v-9.208c.086,1.745,0,5.514,9.841,10.37,11.127,5.493,15.835,3.687,15.835,3.687Z" fill="#7eaeab" opacity="0.5"/>
          <g id="Group_438" data-name="Group 438">
            <path id="Path_1015" data-name="Path 1015" d="M1615.953,817.324l-3.761,14.255-.5.181-.875-.458,3.761-14.2.583.333Z" fill="#f0f3ed"/>
            <path id="Path_1016" data-name="Path 1016" d="M1599.6,808.56l-6.342,13.646-.3-.151v-2.5l5.675-12.2.333.832Z" fill="#f6f7ef"/>
          </g>
        </g>
        <path id="Path_1017" data-name="Path 1017" d="M1890.142,685.568l-.041.829a2.626,2.626,0,0,1-.793,1.774l-1.857,1.819a2.882,2.882,0,0,1-2.305.817l-27.089-2.455-23.318-2.106s-1.828-2.788-.468-4.951a3.091,3.091,0,0,1,.468-.6l2.165-1.408,21.888-14.3,3.123,2.053,18.346,12.049Z" fill="#ffa634"/>
        <path id="Path_1018" data-name="Path 1018" d="M1595.914,863.1a8.839,8.839,0,0,1-2.026,5.965c-1.43.123-2.831.218-4.208.292-2.913.152-7.671.386-11.143-2.122-3.041-2.192-5.066-6.466-4.027-14.7.016-.267.058-.542.1-.821a39.006,39.006,0,0,1,.916-4.479s14.073-3.99,19.735,12.439A11.577,11.577,0,0,1,1595.914,863.1Z" fill="#ff8c36"/>
        <path id="Path_1019" data-name="Path 1019" d="M1595.914,863.1a8.839,8.839,0,0,1-2.026,5.965c-1.43.123-2.831.218-4.208.292-2.913.152-7.671.386-11.143-2.122C1587.934,869.962,1595.914,863.1,1595.914,863.1Z" fill="#e8593a"/>
        <g id="Group_454" data-name="Group 454">
          <g id="Group_442" data-name="Group 442">
            <g id="Group_440" data-name="Group 440">
              <path id="Path_1020" data-name="Path 1020" d="M1673.274,799.8a.9.9,0,0,1,.46-.135,1.445,1.445,0,0,1,.164.493l.612,4.266a2.149,2.149,0,0,1-.929,2.036l-2.363,1.367a1.22,1.22,0,0,1-.468.152,1.294,1.294,0,0,1-.169-.5l-.612-4.266a2.179,2.179,0,0,1,.928-2.045Z" fill="#265f91"/>
            </g>
            <g id="Group_441" data-name="Group 441">
              <path id="Path_1021" data-name="Path 1021" d="M1673.735,799.665c.427-.021.785.316.863.883l.612,4.266a2.17,2.17,0,0,1-.929,2.036l-2.375,1.371a.8.8,0,0,1-1.155-.242,1.294,1.294,0,0,1-.169-.5l-.612-4.266.612,4.266a1.294,1.294,0,0,0,.169.5,1.22,1.22,0,0,0,.468-.152l2.363-1.367a2.149,2.149,0,0,0,.929-2.036l-.612-4.266A1.445,1.445,0,0,0,1673.735,799.665Z" fill="#5a8db7"/>
            </g>
          </g>
          <g id="Group_445" data-name="Group 445">
            <g id="Group_443" data-name="Group 443">
              <path id="Path_1022" data-name="Path 1022" d="M1681.911,794.772a1.016,1.016,0,0,1,.464-.135,1.47,1.47,0,0,1,.164.5l.612,4.266a2.158,2.158,0,0,1-.929,2.036l-2.367,1.363a1.115,1.115,0,0,1-.468.152,1.246,1.246,0,0,1-.164-.493l-.612-4.266a2.2,2.2,0,0,1,.925-2.049Z" fill="#265f91"/>
            </g>
            <g id="Group_444" data-name="Group 444">
              <path id="Path_1023" data-name="Path 1023" d="M1682.375,794.636c.427-.016.781.32.863.887l.612,4.266a2.159,2.159,0,0,1-.929,2.032l-2.375,1.367a.8.8,0,0,1-1.159-.238,1.246,1.246,0,0,1-.164-.493l-.612-4.266.612,4.266a1.246,1.246,0,0,0,.164.493,1.115,1.115,0,0,0,.468-.152l2.367-1.363a2.158,2.158,0,0,0,.929-2.036l-.612-4.266A1.47,1.47,0,0,0,1682.375,794.636Z" fill="#5a8db7"/>
            </g>
          </g>
          <g id="Group_448" data-name="Group 448">
            <g id="Group_446" data-name="Group 446">
              <path id="Path_1024" data-name="Path 1024" d="M1690.552,789.747a1.014,1.014,0,0,1,.46-.135,1.362,1.362,0,0,1,.168.5l.608,4.266a2.14,2.14,0,0,1-.925,2.032l-2.367,1.367a1.107,1.107,0,0,1-.469.148,1.249,1.249,0,0,1-.164-.493l-.612-4.261a2.187,2.187,0,0,1,.924-2.049Z" fill="#265f91"/>
            </g>
            <g id="Group_447" data-name="Group 447">
              <path id="Path_1025" data-name="Path 1025" d="M1691.012,789.611c.427-.021.785.316.867.883l.608,4.27a2.155,2.155,0,0,1-.924,2.032l-2.375,1.367a.8.8,0,0,1-1.159-.242,1.249,1.249,0,0,1-.164-.493l-.612-4.261.612,4.261a1.249,1.249,0,0,0,.164.493,1.107,1.107,0,0,0,.469-.148l2.367-1.367a2.14,2.14,0,0,0,.925-2.032l-.608-4.266A1.362,1.362,0,0,0,1691.012,789.611Z" fill="#5a8db7"/>
            </g>
          </g>
          <g id="Group_451" data-name="Group 451">
            <g id="Group_449" data-name="Group 449">
              <path id="Path_1026" data-name="Path 1026" d="M1699.193,784.722a.922.922,0,0,1,.46-.135,1.367,1.367,0,0,1,.168.493l.608,4.27a2.14,2.14,0,0,1-.925,2.032l-2.367,1.363a1.117,1.117,0,0,1-.469.152,1.272,1.272,0,0,1-.168-.493l-.608-4.266a2.164,2.164,0,0,1,.924-2.044Z" fill="#265f91"/>
            </g>
            <g id="Group_450" data-name="Group 450">
              <path id="Path_1027" data-name="Path 1027" d="M1699.653,784.586c.432-.021.785.316.867.883l.608,4.266a2.159,2.159,0,0,1-.924,2.036l-2.375,1.367a.8.8,0,0,1-1.159-.242,1.272,1.272,0,0,1-.168-.493l-.608-4.266.608,4.266a1.272,1.272,0,0,0,.168.493,1.117,1.117,0,0,0,.469-.152l2.367-1.363a2.14,2.14,0,0,0,.925-2.032l-.608-4.27A1.367,1.367,0,0,0,1699.653,784.586Z" fill="#5a8db7"/>
            </g>
          </g>
          <g id="Group_452" data-name="Group 452">
            <path id="Path_1028" data-name="Path 1028" d="M1673.057,797.292c1.607-.924,3.139-.062,3.419,1.9l2.075,14.488a5.578,5.578,0,0,1-2.391,5.263l-2.642,1.523c-1.6.924-3.139.062-3.419-1.913l-2.075-14.488a5.571,5.571,0,0,1,2.4-5.251Zm5.165,16.578-2.071-14.476c-.255-1.757-1.611-2.521-3.036-1.7l-2.642,1.527a4.936,4.936,0,0,0-2.12,4.668l2.071,14.476c.255,1.757,1.607,2.513,3.036,1.687l2.638-1.523a4.929,4.929,0,0,0,2.124-4.66Z" fill="#a2afb8"/>
          </g>
          <g id="Group_453" data-name="Group 453">
            <path id="Path_1029" data-name="Path 1029" d="M1673.114,797.695c1.426-.821,2.782-.057,3.036,1.7l2.071,14.476a4.929,4.929,0,0,1-2.124,4.66l-2.638,1.523c-1.43.825-2.782.07-3.036-1.687l-2.071-14.476a4.936,4.936,0,0,1,2.12-4.668Zm2.1,7.119-.612-4.266c-.078-.567-.436-.9-.863-.883a.9.9,0,0,0-.46.135l-2.375,1.371a2.179,2.179,0,0,0-.928,2.045l.612,4.266a1.294,1.294,0,0,0,.169.5.8.8,0,0,0,1.155.242l2.375-1.371a2.17,2.17,0,0,0,.929-2.036Z" fill="#d3dbdc"/>
          </g>
        </g>
        <g id="Group_464" data-name="Group 464">
          <g id="Group_457" data-name="Group 457">
            <g id="Group_455" data-name="Group 455">
              <path id="Path_1030" data-name="Path 1030" d="M1808.676,721.625a.925.925,0,0,1,.46-.135,1.365,1.365,0,0,1,.168.493l.608,4.266a2.147,2.147,0,0,1-.925,2.036l-2.367,1.363a1.116,1.116,0,0,1-.469.152,1.247,1.247,0,0,1-.164-.493l-.612-4.266a2.187,2.187,0,0,1,.925-2.049Z" fill="#265f91"/>
            </g>
            <g id="Group_456" data-name="Group 456">
              <path id="Path_1031" data-name="Path 1031" d="M1809.137,721.49c.427-.021.785.316.867.883l.608,4.266a2.148,2.148,0,0,1-.924,2.032l-2.375,1.367a.8.8,0,0,1-1.159-.238,1.247,1.247,0,0,1-.164-.493l-.612-4.266.612,4.266a1.247,1.247,0,0,0,.164.493,1.116,1.116,0,0,0,.469-.152l2.367-1.363a2.147,2.147,0,0,0,.925-2.036l-.608-4.266A1.365,1.365,0,0,0,1809.137,721.49Z" fill="#5a8db7"/>
            </g>
          </g>
          <g id="Group_460" data-name="Group 460">
            <g id="Group_458" data-name="Group 458">
              <path id="Path_1032" data-name="Path 1032" d="M1817.317,716.6a1.015,1.015,0,0,1,.46-.135,1.286,1.286,0,0,1,.164.5l.612,4.266a2.131,2.131,0,0,1-.928,2.032l-2.363,1.363a1.077,1.077,0,0,1-.468.152,1.271,1.271,0,0,1-.169-.488l-.608-4.266a2.175,2.175,0,0,1,.925-2.049Z" fill="#265f91"/>
            </g>
            <g id="Group_459" data-name="Group 459">
              <path id="Path_1033" data-name="Path 1033" d="M1817.777,716.461c.427-.021.785.32.863.883l.612,4.27a2.146,2.146,0,0,1-.929,2.032l-2.375,1.367a.8.8,0,0,1-1.154-.242,1.271,1.271,0,0,1-.169-.488l-.608-4.266.608,4.266a1.271,1.271,0,0,0,.169.488,1.077,1.077,0,0,0,.468-.152l2.363-1.363a2.131,2.131,0,0,0,.928-2.032l-.612-4.266A1.286,1.286,0,0,0,1817.777,716.461Z" fill="#5a8db7"/>
            </g>
          </g>
          <g id="Group_463" data-name="Group 463">
            <g id="Group_461" data-name="Group 461">
              <path id="Path_1034" data-name="Path 1034" d="M1825.958,711.571a.911.911,0,0,1,.46-.135,1.437,1.437,0,0,1,.164.5l.612,4.266a2.143,2.143,0,0,1-.929,2.032l-2.363,1.363a1.134,1.134,0,0,1-.468.152,1.27,1.27,0,0,1-.168-.5l-.612-4.261a2.179,2.179,0,0,1,.928-2.044Z" fill="#265f91"/>
            </g>
            <g id="Group_462" data-name="Group 462">
              <path id="Path_1035" data-name="Path 1035" d="M1826.418,711.436c.427-.021.785.312.863.883l.612,4.266a2.166,2.166,0,0,1-.924,2.036l-2.375,1.367a.8.8,0,0,1-1.159-.242,1.27,1.27,0,0,1-.168-.5l-.612-4.261.612,4.261a1.27,1.27,0,0,0,.168.5,1.134,1.134,0,0,0,.468-.152l2.363-1.363a2.143,2.143,0,0,0,.929-2.032l-.612-4.266A1.437,1.437,0,0,0,1826.418,711.436Z" fill="#5a8db7"/>
            </g>
          </g>
        </g>
        <path id="Path_1036" data-name="Path 1036" d="M1889.312,688.17l-1.857,1.815a2.886,2.886,0,0,1-2.305.821l-50.411-4.561s-1.828-2.788-.468-4.951l50.8,7.718a2.279,2.279,0,0,0,1.865-.562l3.209-2.882-.037.825A2.646,2.646,0,0,1,1889.312,688.17Z" fill="#ff8c36"/>
        <g id="Group_468" data-name="Group 468">
          <g id="Group_465" data-name="Group 465">
            <path id="Path_1037" data-name="Path 1037" d="M1698.083,679.671l-11.017,6.214-.667-.416,11-6.2Z" fill="#bbc6cb"/>
          </g>
          <g id="Group_466" data-name="Group 466">
            <path id="Path_1038" data-name="Path 1038" d="M1722.591,694.285l-11.739,6.615-.68-.427,11.726-6.6Z" fill="#bbc6cb"/>
          </g>
          <g id="Group_467" data-name="Group 467">
            <path id="Path_1039" data-name="Path 1039" d="M1673.8,665.2l-10.312,5.794-.666-.413,10.282-5.8Z" fill="#bbc6cb"/>
          </g>
        </g>
        <path id="Path_1040" data-name="Path 1040" d="M1880.26,679.089l-3.5,2.2-16.846-.846-23.014-1.162-10.408-.53,27.882-18.5,3.069.653a5.67,5.67,0,0,1,4.47,6.072C1861.914,667.04,1880.26,679.089,1880.26,679.089Z" fill="#cc8c8c" opacity="0.5" style="mix-blend-mode: multiply;isolation: isolate"/>
        <g id="Group_469" data-name="Group 469">
          <path id="Path_1041" data-name="Path 1041" d="M1854.379,660.266s-25.2,18.072-27.7,18.466a5.849,5.849,0,0,1-6.516-3.584s11.427-61.29,12.433-63.478,17-8.991,17-8.991l2.474,1,.012.275Z" fill="#e8593a"/>
          <path id="Path_1042" data-name="Path 1042" d="M1852.086,603.956c-3.123,1.371-16.345,7.32-17.134,9.426-.8,2.147-7.186,54.8-8.452,65.375a5.765,5.765,0,0,1-6.336-3.609s11.427-61.29,12.433-63.478,17-8.991,17-8.991l2.474,1Z" fill="#ff8c36"/>
        </g>
        <g id="Group_475" data-name="Group 475">
          <g id="Group_470" data-name="Group 470">
            <path id="Path_1043" data-name="Path 1043" d="M1671.764,824.442,1668.5,830.1l-34.352,19.814-.011-3.762Z" fill="#e8593a"/>
          </g>
          <g id="Group_471" data-name="Group 471">
            <path id="Path_1044" data-name="Path 1044" d="M1680.263,819.542l-3.269,5.654-3.873,2.237,3.259-5.65Z" fill="#e8593a"/>
          </g>
          <g id="Group_472" data-name="Group 472">
            <path id="Path_1045" data-name="Path 1045" d="M1688.724,814.66l-3.259,5.65-3.854,2.225,3.259-5.65Z" fill="#e8593a"/>
          </g>
          <g id="Group_473" data-name="Group 473">
            <path id="Path_1046" data-name="Path 1046" d="M1697.214,809.763l-3.259,5.65-3.873,2.236,3.26-5.654Z" fill="#e8593a"/>
          </g>
          <g id="Group_474" data-name="Group 474">
            <path id="Path_1047" data-name="Path 1047" d="M1738.256,786.089l.01,3.761-39.7,22.9,3.259-5.654Z" fill="#e8593a"/>
          </g>
        </g>
        <g id="Group_485" data-name="Group 485">
          <g id="Group_480" data-name="Group 480">
            <g id="Group_479" data-name="Group 479">
              <g id="Group_476" data-name="Group 476">
                <path id="Path_1048" data-name="Path 1048" d="M1844.735,831.954a7.975,7.975,0,0,1-1.446,5,102.878,102.878,0,0,1-13.974,14.853c-7.437,6.532-17.417,13.478-28.91,16.709,0,0-4.092-4.077-8.633-9.405-6.907-8.137-14.82-19.189-10.712-23.155a81.425,81.425,0,0,1,18.666-12.6c1.512-.792,3.094-1.54,4.729-2.274a80.635,80.635,0,0,1,25.758-6.934,8.214,8.214,0,0,1,4.955,1.264c.152.082.292.177.432.259a20.513,20.513,0,0,1,6.9,7.907A18.891,18.891,0,0,1,1844.735,831.954Z" fill="#ff8c36"/>
                <path id="Path_1049" data-name="Path 1049" d="M1844.735,831.958a7.991,7.991,0,0,1-1.45,5s-17.878,24.505-42.875,31.554c0,0-4.1-4.073-8.633-9.4,25.6-9.1,44.49-28.5,50.727-35.536A18.982,18.982,0,0,1,1844.735,831.958Z" fill="#e8593a"/>
                <path id="Path_1050" data-name="Path 1050" d="M1805.718,859.169c0,3.945-1.266,6.823-3.349,8.371-2.49,1.839-6.139,1.8-10.214-.546-7.486-4.319-13.559-14.829-13.559-23.471,0-4.688,1.787-7.866,4.618-9.1,2.387-1.043,5.518-.706,8.941,1.273C1799.649,840.022,1805.718,850.527,1805.718,859.169Z" fill="#f6f7ef"/>
                <path id="Path_1051" data-name="Path 1051" d="M1804.21,859.165c0,3.3-.974,5.846-2.74,7.16a4.126,4.126,0,0,1-.37.246,5.472,5.472,0,0,1-2.884.764,9.325,9.325,0,0,1-3.5-.764l2.88-9.878a4.087,4.087,0,0,1-2.083-.452c-.14-.07-.283-.144-.423-.226a9.28,9.28,0,0,1-2.547-2.266,11.905,11.905,0,0,1-2.256-4.5l-7.1,1.7-1.578.382a22.965,22.965,0,0,1-1.512-7.809,11.972,11.972,0,0,1,.781-4.483,5.33,5.33,0,0,1,5.222-3.674,9.31,9.31,0,0,1,3.39.714,14.255,14.255,0,0,1,1.911.928,26.125,26.125,0,0,1,8.949,9.381c.053.09.1.181.164.279.234.406.394.7.546,1A25.488,25.488,0,0,1,1804.21,859.165Z" fill="#9a9893"/>
                <path id="Path_1052" data-name="Path 1052" d="M1792.545,853.75l-6.286,5.945c-.074-.1-.148-.189-.218-.287a30.975,30.975,0,0,1-4.429-8.079l1.578-.382,7.1-1.7A11.905,11.905,0,0,0,1792.545,853.75Z" fill="#b5b3ad"/>
                <path id="Path_1053" data-name="Path 1053" d="M1795.516,856.242l-5.037,7.772a25.381,25.381,0,0,1-4.22-4.319l6.286-5.945a9.28,9.28,0,0,0,2.547,2.266C1795.232,856.1,1795.376,856.172,1795.516,856.242Z" fill="#c9cdcb"/>
                <path id="Path_1054" data-name="Path 1054" d="M1797.6,856.694l-2.88,9.878a14.022,14.022,0,0,1-1.808-.879,18.92,18.92,0,0,1-2.432-1.679l5.037-7.772A4.087,4.087,0,0,0,1797.6,856.694Z" fill="#b5b3ad"/>
                <path id="Path_1055" data-name="Path 1055" d="M1800.155,853.089a3.582,3.582,0,0,1-1.426,3.235,2.406,2.406,0,0,1-1.064.353c-1.434.4-4.059.833-6.122-.435a5.137,5.137,0,0,1-1.631-1.617c-2.63-4.048-.226-8.35.674-9.7a2.514,2.514,0,0,1,.234-.341c.982-1.133,2.523-1.269,4.273-.259a9.455,9.455,0,0,1,2.506,2.217c.21.267.407.538.6.817.156.209.292.431.427.657a12.187,12.187,0,0,1,.928,1.958A9.218,9.218,0,0,1,1800.155,853.089Z" fill="#6d6b68"/>
                <path id="Path_1056" data-name="Path 1056" d="M1800.155,853.089a3.582,3.582,0,0,1-1.426,3.235,2.406,2.406,0,0,1-1.064.353c-1.434.4-4.059.833-6.122-.435,5.506-3.038,6.1-9.36,6.056-9.693.21.259.407.53.6.809.156.209.292.431.427.657a12.187,12.187,0,0,1,.928,1.958A9.218,9.218,0,0,1,1800.155,853.089Z" fill="#585654"/>
                <path id="Path_1057" data-name="Path 1057" d="M1804.21,859.165c0,3.3-.974,5.846-2.74,7.16a4.126,4.126,0,0,1-.37.246c-.025-26.344-20.219-27.535-20.219-27.535a5.33,5.33,0,0,1,5.222-3.674,9.31,9.31,0,0,1,3.39.714,14.255,14.255,0,0,1,1.911.928,26.125,26.125,0,0,1,8.949,9.381c.053.09.1.181.164.279.234.406.394.7.546,1A25.488,25.488,0,0,1,1804.21,859.165Z" fill="#bbc6cb" style="mix-blend-mode: multiply;isolation: isolate"/>
              </g>
              <g id="Group_478" data-name="Group 478">
                <g id="Group_477" data-name="Group 477">
                  <path id="Path_1058" data-name="Path 1058" d="M1835.671,817.7s-8.218,4.089-16.5,8.071c-7.215,3.481-14.5,6.877-16.419,7.431-.234.053-.473.111-.694.14-3.567.443-4.8-4.007-4.8-4.007l2.469-5.977,2.206-5.353,5.411-13.117,4.08-2.262,18.888-10.383,4.425-2.443.156,4.66.707,21.213Z" fill="#f9642d"/>
                  <path id="Path_1059" data-name="Path 1059" d="M1811.433,802.625l-9.38,30.713c-3.566.452-4.8-4.007-4.8-4.007l10.087-24.448Z" fill="#ffa634"/>
                </g>
              </g>
            </g>
            <path id="Path_1060" data-name="Path 1060" d="M1844.735,831.954a7.975,7.975,0,0,1-1.446,5,102.878,102.878,0,0,1-13.974,14.853c3.9-19.928-10.145-26.041-10.145-26.041s-11.1-4.631-13.448-4.442a2.253,2.253,0,0,1-1.266-.246,6.634,6.634,0,0,1-2.523-3.079l5.411-13.117,4.08-2.262,18.888-10.383c1.376.636,2.93,1.383,4.581,2.217l.707,21.213a20.513,20.513,0,0,1,6.9,7.907A18.891,18.891,0,0,1,1844.735,831.954Z" fill="#cc8c8c" opacity="0.5" style="mix-blend-mode: multiply;isolation: isolate"/>
          </g>
          <path id="Path_1061" data-name="Path 1061" d="M1931.694,825.464v4.857l-30.007,17.427a9.7,9.7,0,0,1-8.324.694c-25.828-9.734-158.834-59.931-162.9-61.8-4.511-2.077,0-11.093,0-11.093s46.491-30.507,55.514-35.709a15.462,15.462,0,0,1,16.3,0l8.744,5.8.641.419,109.373,72.354.678.443,8.731,5.78Z" fill="#f0f3ed"/>
          <path id="Path_1062" data-name="Path 1062" d="M1931.694,825.464v2.024l-30.007,20.26a9.709,9.709,0,0,1-8.324.694c-24.078-9.073-157.536-59.438-162.9-61.8-4.548-2,0-11.093,0-11.093l168.273,65.81,31.712-16.726Z" fill="#d3dbdc"/>
          <path id="Path_1063" data-name="Path 1063" d="M1921.715,818.849l-8.785,4.231-36.541-21.037-.708-.4-24.258-13.964-.693-.4-24.023-13.839-.708-.4-30.614-17.627,15.64-9.775.638.416,28.631,18.928.652.428,22.344,14.8.652.432,22.552,14.918.653.431,33.89,22.422Z" fill="#bbc6cb"/>
          <path id="Path_1064" data-name="Path 1064" d="M1921.035,818.407l-8.077,3.9-116.23-66.921,14.934-9.332Z" fill="#e5eae7"/>
          <g id="Group_484" data-name="Group 484">
            <g id="Group_481" data-name="Group 481">
              <path id="Path_1065" data-name="Path 1065" d="M1863.94,780.635l-12.518,7.043-.693-.4,12.559-7.073Z" fill="#bbc6cb"/>
            </g>
            <g id="Group_482" data-name="Group 482">
              <path id="Path_1066" data-name="Path 1066" d="M1887.145,795.984l-10.756,6.059-.708-.4,10.811-6.089Z" fill="#bbc6cb"/>
            </g>
            <g id="Group_483" data-name="Group 483">
              <path id="Path_1067" data-name="Path 1067" d="M1840.945,765.407l-14.239,8.031-.708-.4,14.3-8.057Z" fill="#bbc6cb"/>
            </g>
          </g>
        </g>
      </g>
      <path id="Path_1068" data-name="Path 1068" d="M1690.527,729.75a7.823,7.823,0,0,1,1.64-.739C1691.6,729.282,1691.053,729.537,1690.527,729.75Z" fill="#cc8c8c"/>
    </g>
  </g>
</svg>
