<svg xmlns="http://www.w3.org/2000/svg" xmlns:xlink="http://www.w3.org/1999/xlink" width="114" height="72" viewBox="0 0 114 72">
  <defs>
    <linearGradient id="linear-gradient" x1="5.107" y1="1.398" x2="5.092" y2="0.418" gradientUnits="objectBoundingBox">
      <stop offset="0" stop-color="#1a1818"/>
      <stop offset="1" stop-color="#49768f"/>
    </linearGradient>
  </defs>
  <g id="Vector_Smart_Object" data-name="Vector Smart Object" transform="translate(-39.917 -344.393)">
    <g id="Group_770" data-name="Group 770">
      <path id="Path_1860" data-name="Path 1860" d="M75.283,415.267,41.848,395.744c-2.576-1.5-2.576-3.942,0-5.444l66.688-38.43a10.2,10.2,0,0,1,9.325,0L151.3,371.392c2.574,1.5,2.574,3.94,0,5.444l-66.689,38.43A10.208,10.208,0,0,1,75.283,415.267Z" fill="#cfd4d9" opacity="0.2" style="mix-blend-mode: multiply;isolation: isolate"/>
      <path id="Path_1861" data-name="Path 1861" d="M50.8,384.117l58.615-34.226a9.463,9.463,0,0,1,8.642,0L149.9,368.484l4.012-.633V372.3a3.072,3.072,0,0,1-1.79,2.523L88.321,412.082a9.453,9.453,0,0,1-8.645,0L45.613,392.194a3.072,3.072,0,0,1-1.791-2.524v-4.453Z" fill="#d3dbdc"/>
      <path id="Path_1862" data-name="Path 1862" d="M43.822,385.217a3.069,3.069,0,0,0,1.791,2.523l34.063,19.889a9.453,9.453,0,0,0,8.645,0l63.805-37.255a2.673,2.673,0,0,0,0-5.046l-34.064-19.89a9.463,9.463,0,0,0-8.642,0L45.613,382.694A3.071,3.071,0,0,0,43.822,385.217Z" fill="#f0f3ed"/>
      <g id="Group_735" data-name="Group 735">
        <g id="Group_729" data-name="Group 729">
          <path id="Path_1863" data-name="Path 1863" d="M54.75,381.441a1.763,1.763,0,0,1,.938-1.131L74.546,369.3l35.525-20.742a5.089,5.089,0,0,1,4.64,0l32.754,19.125a1.784,1.784,0,0,1,.938,1.136,1.536,1.536,0,0,0-.938-1.581L114.71,348.107a5.085,5.085,0,0,0-4.64,0L73.793,369.293l-18.1,10.571A1.541,1.541,0,0,0,54.75,381.441Z" fill="#aeb8db"/>
        </g>
        <g id="Group_730" data-name="Group 730">
          <path id="Path_1864" data-name="Path 1864" d="M55.683,383.018l32.755,19.12a5.085,5.085,0,0,0,4.644,0l54.382-31.755a2.188,2.188,0,0,0,.656-.551,1.216,1.216,0,0,0,.282-1.024,1.784,1.784,0,0,0-.938-1.136L114.71,348.552a5.089,5.089,0,0,0-4.64,0L74.546,369.3,55.688,380.311a1.763,1.763,0,0,0-.938,1.131A1.541,1.541,0,0,0,55.683,383.018Z" fill="#ffe3bd"/>
        </g>
        <g id="Group_733" data-name="Group 733">
          <path id="Path_1865" data-name="Path 1865" d="M59.128,378.3l-3.44,2.008a1.438,1.438,0,0,0,0,2.712l8.626,5.036a56.288,56.288,0,0,0,5.852-3.643Q64.642,381.354,59.128,378.3Z" fill="#b1cc3c"/>
          <path id="Path_1866" data-name="Path 1866" d="M69.826,372.052l-9.246,5.4q5.434,3.005,10.864,6.017a40.66,40.66,0,0,0,7.05-6.778Z" fill="#ffe3bd"/>
          <path id="Path_1867" data-name="Path 1867" d="M77.022,367.851,71.286,371.2q4.047,2.171,8.1,4.335a29.116,29.116,0,0,0,2.7-4.435A26.6,26.6,0,0,1,77.022,367.851Z" fill="#ffe3bd"/>
          <path id="Path_1868" data-name="Path 1868" d="M83.16,364.266l-4.7,2.747c2.083,2.073,6.016,3.787,8.872,5.139s5.918,2.568,9.02,3.738q1.8-1.623,3.5-3.226c2.808-2.634,5.693-5.3,8.877-7.826a85.024,85.024,0,0,1-7.4-4.328c-2.5,3.051-7.222,7.052-13.957,5.23A32.473,32.473,0,0,1,83.16,364.266Z" fill="#ffe3bd"/>
          <path id="Path_1869" data-name="Path 1869" d="M95.626,356.988l-10.943,6.391c.56.232,1.113.453,1.656.669,6.538,2.591,10.889-1.235,13.378-4.353a.806.806,0,0,1,.133-.125C98.456,358.688,97.064,357.814,95.626,356.988Z" fill="#ffe3bd"/>
          <path id="Path_1870" data-name="Path 1870" d="M104.4,351.865l-7.307,4.267c4.392,2.513,8.3,5.37,12.943,7.7a63.3,63.3,0,0,1,7.068-4.676Q110.591,355.6,104.4,351.865Z" fill="#b1cc3c"/>
          <path id="Path_1871" data-name="Path 1871" d="M110.071,348.555l-4.221,2.463q6.215,3.75,12.76,7.317a55.325,55.325,0,0,1,7.357-3.209l-11.255-6.571A5.08,5.08,0,0,0,110.071,348.555Z" fill="#ffe3bd"/>
          <path id="Path_1872" data-name="Path 1872" d="M83.777,371.973a30.535,30.535,0,0,1-2.8,4.416l8.978,4.806c1.855-1.4,3.6-2.848,5.269-4.314A122.447,122.447,0,0,1,83.777,371.973Z" fill="#b1cc3c"/>
          <path id="Path_1873" data-name="Path 1873" d="M88.675,382.137q-4.3-2.3-8.608-4.606a42.484,42.484,0,0,1-7.146,6.754q3.106,1.725,6.21,3.442A56.63,56.63,0,0,0,88.675,382.137Z" fill="#ffe3bd"/>
          <path id="Path_1874" data-name="Path 1874" d="M77.459,388.454q-2.914-1.612-5.825-3.226a58.564,58.564,0,0,1-5.892,3.663l3.693,2.155A51.731,51.731,0,0,0,77.459,388.454Z" fill="#ffe3bd"/>
          <path id="Path_1875" data-name="Path 1875" d="M127.428,355.978a54.178,54.178,0,0,0-15.916,8.56,40.941,40.941,0,0,0,5.749,2.15,29.87,29.87,0,0,0,14.933.477,26.265,26.265,0,0,0,8.128-3.659Z" fill="#ffe3bd"/>
          <path id="Path_1876" data-name="Path 1876" d="M110.214,365.554c-1.8,1.438-3.52,2.936-5.2,4.46a122.892,122.892,0,0,0,15.685,6.337c.538-.387,1.085-.775,1.627-1.161,2.643-1.881,5.2-3.808,6.208-6.18a36.146,36.146,0,0,1-9.165-.539A37.917,37.917,0,0,1,110.214,365.554Z" fill="#ffe3bd"/>
          <path id="Path_1877" data-name="Path 1877" d="M103.9,371.027c-1.98,1.82-3.915,3.665-5.9,5.476q2.239.825,4.484,1.638c3.468,1.263,6.934,2.55,10.267,3.93a.615.615,0,0,1,.186-.2l6.45-4.588A125.3,125.3,0,0,1,103.9,371.027Z" fill="#ffe3bd"/>
          <path id="Path_1878" data-name="Path 1878" d="M71.048,391.989,84,399.554q1.672-.6,3.256-1.268-1.866-.8-3.685-1.629c-1.037-.472-2.054-.951-3.058-1.439-.315-.149-.63-.3-.938-.457-.627-.307-1.246-.616-1.863-.929-.389-.2-.77-.394-1.156-.594-.531-.276-1.062-.556-1.587-.837-.036-.021-.076-.04-.114-.061-.564-.3-1.122-.608-1.679-.916Q72.137,391.727,71.048,391.989Z" fill="#ffe3bd"/>
          <path id="Path_1879" data-name="Path 1879" d="M96.892,377.506a77.993,77.993,0,0,1-9.453,7.412,1.635,1.635,0,0,1,.18.078,201.852,201.852,0,0,0,19.347,9.041l12.535-7.318C112.741,383.109,104.623,380.373,96.892,377.506Z" fill="#ffe3bd"/>
          <path id="Path_1880" data-name="Path 1880" d="M86.065,385.784a51.14,51.14,0,0,1-10.948,5.053,149.033,149.033,0,0,0,13.838,6.7,47.954,47.954,0,0,0,9.422-5.617c.022-.018.047-.028.07-.046q-6.353-2.853-12.284-6.023C86.123,385.827,86.1,385.8,86.065,385.784Z" fill="#b1cc3c"/>
          <path id="Path_1881" data-name="Path 1881" d="M130.732,368.752c-.037.115-.074.231-.122.345a1.209,1.209,0,0,1-.069.181c-.037.094-.074.188-.121.281-.025.062-.059.123-.088.188-.077.152-.158.3-.245.451-.074.12-.147.24-.224.358s-.176.257-.271.386a.7.7,0,0,1-.075.1c-.091.121-.183.243-.285.363q-.17.209-.352.412c-.247.28-.517.554-.8.826-.505.484-1.059.956-1.639,1.419-.139.11-.274.22-.417.329-.386.3-.784.6-1.188.9-.754.556-1.521,1.106-2.287,1.656q4.531,1.419,9.3,2.567l12.32-7.192a66.4,66.4,0,0,1-9.236-4.528.673.673,0,0,1-.106-.079c-.525.177-1.064.346-1.617.5A23.5,23.5,0,0,1,130.732,368.752Z" fill="#b1cc3c"/>
          <path id="Path_1882" data-name="Path 1882" d="M136.579,367.05a64.283,64.283,0,0,0,9.066,4.4l1.823-1.063a1.437,1.437,0,0,0,0-2.712l-5.716-3.337A33.591,33.591,0,0,1,136.579,367.05Z" fill="#ffe3bd"/>
          <path id="Path_1883" data-name="Path 1883" d="M121.233,377.882c-2.27,1.616-4.565,3.222-6.839,4.839,2.245,1.011,4.452,2.047,6.537,3.162l9.354-5.46Q125.647,379.277,121.233,377.882Z" fill="#ffe3bd"/>
          <path id="Path_1884" data-name="Path 1884" d="M85.5,400.426l2.941,1.716a5.1,5.1,0,0,0,4.649,0l3.487-2.035q-2.607-1.085-5.211-2.173A62.245,62.245,0,0,1,85.5,400.426Z" fill="#b1cc3c"/>
          <path id="Path_1885" data-name="Path 1885" d="M92.95,397.127l5.089,2.123,7.453-4.352q-2.759-1.124-5.437-2.305A49.145,49.145,0,0,1,92.95,397.127Z" fill="#ffe3bd"/>
          <g id="Group_731" data-name="Group 731">
            <path id="Path_1886" data-name="Path 1886" d="M73.653,375.331l2.94,1.572c-.728.864-1.519,1.71-2.364,2.539l-3.363-1.964A26.843,26.843,0,0,1,73.653,375.331Z" fill="#ffb68d"/>
            <path id="Path_1887" data-name="Path 1887" d="M72.907,374.932a26.83,26.83,0,0,0-2.756,2.128L66.8,375.1l3.074-1.8Z" fill="#ffb68d"/>
            <path id="Path_1888" data-name="Path 1888" d="M70.294,377.978l3.39,1.979c-.775.731-1.582,1.45-2.443,2.148l-3.46-1.919C68.647,379.464,69.461,378.718,70.294,377.978Z" fill="#ffb68d"/>
            <path id="Path_1889" data-name="Path 1889" d="M69.578,377.561c-.836.743-1.655,1.494-2.529,2.221q-2.119-1.175-4.24-2.348l3.276-1.913Z" fill="#ffb68d"/>
            <path id="Path_1890" data-name="Path 1890" d="M78.787,373.985a28.113,28.113,0,0,0,1.531-2.6c-.475-.258-.89-.491-1.272-.714a25.423,25.423,0,0,1-2.208-1.429l-3.306,1.93Q76.158,372.58,78.787,373.985Z" fill="#ffb68d"/>
            <path id="Path_1891" data-name="Path 1891" d="M92.538,360.077l3.085-1.8c.8.48,1.589.969,2.35,1.446a14.876,14.876,0,0,1-3.052,2.822A8.045,8.045,0,0,0,92.538,360.077Z" fill="#ffb68d"/>
            <path id="Path_1892" data-name="Path 1892" d="M94.117,363.032a7.847,7.847,0,0,1-2.495.875,8.222,8.222,0,0,1-4.412-.615l-.11-.043,4.751-2.775A6.265,6.265,0,0,1,94.117,363.032Z" fill="#ffb68d"/>
            <path id="Path_1893" data-name="Path 1893" d="M115.509,350.3l3.609,2.107c-1.4.88-3.128,1.565-4.591,2.4q-1.715-.974-3.4-1.957A14.148,14.148,0,0,0,115.509,350.3Z" fill="#ffb68d"/>
            <path id="Path_1894" data-name="Path 1894" d="M113.613,349.2l1.153.673a12.64,12.64,0,0,1-4.355,2.562q-1.189-.7-2.376-1.4l3.137-1.831A2.679,2.679,0,0,1,113.613,349.2Z" fill="#ffb68d"/>
            <path id="Path_1895" data-name="Path 1895" d="M119.832,352.827l3.664,2.139c-1.651.641-3.274,1.358-4.85,2.143q-1.71-.937-3.407-1.9C116.685,354.373,118.434,353.7,119.832,352.827Z" fill="#ffb68d"/>
            <path id="Path_1896" data-name="Path 1896" d="M78.446,381.166c.731-.707,1.436-1.423,2.087-2.154q3,1.6,6,3.211-1.354.937-2.707,1.768A50.37,50.37,0,0,0,78.446,381.166Z" fill="#ffb68d"/>
            <path id="Path_1897" data-name="Path 1897" d="M83.125,384.413c-1.29.766-2.589,1.467-3.91,2.107L75,384.184q1.543-1.219,2.918-2.5A39.525,39.525,0,0,1,83.125,384.413Z" fill="#ffb68d"/>
            <path id="Path_1898" data-name="Path 1898" d="M70.5,387.366c.424-.271.852-.54,1.262-.817l3.226,1.787c-.651.246-1.313.473-1.976.691A21.184,21.184,0,0,0,70.5,387.366Z" fill="#ffb68d"/>
            <path id="Path_1899" data-name="Path 1899" d="M72.109,389.316c-.765.236-1.536.457-2.315.658l-1.829-1.068c.632-.361,1.251-.731,1.857-1.105A19.973,19.973,0,0,1,72.109,389.316Z" fill="#ffb68d"/>
            <path id="Path_1900" data-name="Path 1900" d="M119.155,360.825a50.008,50.008,0,0,1,8.027-3.706l5.77,3.369C129.293,362.149,123.632,361.975,119.155,360.825Z" fill="#ffb68d"/>
            <path id="Path_1901" data-name="Path 1901" d="M128.341,362.287a.217.217,0,0,0-.05-.075,15.976,15.976,0,0,0,5.386-1.3l4.483,2.617a23.3,23.3,0,0,1-6.564,2.8c-.631.154-1.279.277-1.941.376A28.128,28.128,0,0,0,128.341,362.287Z" fill="#ffb68d"/>
            <path id="Path_1902" data-name="Path 1902" d="M121.75,361.965c-1.522,1.274-1.44,2.871-2.2,4.315-.537-.122-1.071-.253-1.6-.406a38.345,38.345,0,0,1-4.239-1.5c1.558-1.144,3.11-2.171,4.676-3.1A29.432,29.432,0,0,0,121.75,361.965Z" fill="#ffb68d"/>
            <path id="Path_1903" data-name="Path 1903" d="M122.67,362.222a.229.229,0,0,0,.086-.123,29.14,29.14,0,0,0,4.641.174.187.187,0,0,0-.034.164,25.567,25.567,0,0,1,1.291,4.4,28,28,0,0,1-8.154-.353C121.26,365.062,121.145,363.466,122.67,362.222Z" fill="#ffb68d"/>
            <path id="Path_1904" data-name="Path 1904" d="M113.87,376.4q1.561.583,3.153,1.132l-4.62,3.286c-.625-.253-1.257-.5-1.889-.748A24.649,24.649,0,0,0,113.87,376.4Z" fill="#ffb68d"/>
            <path id="Path_1905" data-name="Path 1905" d="M108.747,374.369q2.1.884,4.273,1.711a23.387,23.387,0,0,1-3.346,3.666c-1.319-.509-2.637-1-3.942-1.486A23.335,23.335,0,0,0,108.747,374.369Z" fill="#ffb68d"/>
            <path id="Path_1906" data-name="Path 1906" d="M107.891,374a21.807,21.807,0,0,1-3.012,3.945q-.792-.292-1.571-.574-1.577-.574-3.153-1.149c.811-.747,1.614-1.5,2.419-2.249q.852-.8,1.707-1.59C105.46,372.936,106.668,373.474,107.891,374Z" fill="#ffb68d"/>
            <path id="Path_1907" data-name="Path 1907" d="M141.808,368.622c-.974-.478-1.93-.971-2.854-1.485.936-.443,1.87-.94,2.82-1.5l2.885,1.684C143.718,367.764,142.771,368.2,141.808,368.622Z" fill="#ffb68d"/>
            <path id="Path_1908" data-name="Path 1908" d="M145.375,367.741l.99.578a.757.757,0,0,1,0,1.428l-.9.528c-.972-.4-1.921-.83-2.855-1.27C143.542,368.593,144.461,368.169,145.375,367.741Z" fill="#ffb68d"/>
            <path id="Path_1909" data-name="Path 1909" d="M120.267,379.994l1.359-.961c1.956.6,3.945,1.165,5.946,1.689l-2.4,1.4C123.475,381.474,121.976,380.641,120.267,379.994Z" fill="#ffb68d"/>
            <path id="Path_1910" data-name="Path 1910" d="M124.473,382.53l-3.6,2.1c-1.327-.681-2.745-1.356-4.282-2.041q1.182-.838,2.368-1.675l.661-.466C121.327,381.076,122.817,381.874,124.473,382.53Z" fill="#ffb68d"/>
            <path id="Path_1911" data-name="Path 1911" d="M98.491,395.135c.633-.418,1.256-.843,1.855-1.282.925.4,1.834.787,2.74,1.165l-2.235,1.3C100.078,395.919,99.284,395.528,98.491,395.135Z" fill="#ffb68d"/>
            <path id="Path_1912" data-name="Path 1912" d="M97.821,395.574c.777.386,1.556.77,2.316,1.166l-2.268,1.324L95.4,397.033Q96.645,396.327,97.821,395.574Z" fill="#ffb68d"/>
          </g>
          <path id="Path_1913" data-name="Path 1913" d="M91.732,372.7a5.752,5.752,0,0,0-.143,1.318,7.512,7.512,0,0,0,.133,1.494,21.779,21.779,0,0,0,1.043,3.461c.2.534.386,1.068.551,1.606.047.143.092.285.132.429a7.561,7.561,0,0,1-.88,6.541,9.793,9.793,0,0,1-.873,1.136c-.2.226-.415.451-.649.674a26.306,26.306,0,0,1-8.7,5.189q-.89.347-1.826.667c-.828.289-1.682.555-2.552.809l2.728,1.593c.979-.3,1.944-.62,2.878-.966.612-.22,1.206-.451,1.789-.693a29.162,29.162,0,0,0,6.282-3.448,24.169,24.169,0,0,0,2.863-2.464c.344-.356.667-.715.96-1.083a8.674,8.674,0,0,0,1.653-3.042c.745-2.656-.081-5.146-.989-7.74-.03-.086-.059-.176-.093-.264a17.923,17.923,0,0,1-.7-2.417c-.436-2.208-.185-4.573,2.752-6.052a11.408,11.408,0,0,1,6.295-.952c.668.064,1.331.164,1.991.293a49.038,49.038,0,0,1,6.329,1.8q5.533,1.856,11.369,3.32c.645.161,1.295.323,1.951.474q5.314,1.267,10.837,2.193l2.919-1.7c-3.967-.612-7.89-1.345-11.7-2.237q-.928-.216-1.848-.445l-.076-.02c-5.173-1.3-9.894-3.012-14.921-4.47-.888-.258-1.819-.5-2.779-.71-.631-.137-1.273-.264-1.923-.364a19.78,19.78,0,0,0-7.933.171C94.507,367.852,92.3,370.2,91.732,372.7Z" fill="#85e6ea"/>
          <g id="Group_732" data-name="Group 732">
            <path id="Path_1914" data-name="Path 1914" d="M117.1,359.154a63.3,63.3,0,0,0-7.068,4.676c-4.638-2.327-8.55-5.184-12.943-7.7l-1.466.856c1.437.826,2.83,1.7,4.223,2.582a.806.806,0,0,0-.133.125c-2.489,3.118-6.84,6.944-13.378,4.352-.543-.214-1.1-.435-1.656-.667l-1.523.887a32.473,32.473,0,0,0,4.21,1.474c6.735,1.821,11.454-2.179,13.957-5.23a85.024,85.024,0,0,0,7.4,4.328c-.748.592-1.473,1.191-2.194,1.794-.361.31-.725.62-1.081.931-.253.216-.5.434-.748.655l-.087.076c-.077.067-.155.138-.232.2q-.774.689-1.536,1.385-.439.4-.873.8c-.213.192-.417.385-.626.581-.5.464-1,.931-1.5,1.4q-1.706,1.6-3.5,3.226c-.338-.13-.679-.255-1.012-.386-.317-.12-.635-.241-.948-.363-.227-.087-.45-.174-.674-.262l-.828-.33-.561-.225c-.07-.028-.132-.056-.2-.083-.184-.072-.36-.145-.535-.218-.367-.15-.725-.3-1.085-.455s-.716-.306-1.071-.463c-.139-.059-.279-.12-.413-.181-.2-.088-.4-.181-.6-.273-.369-.161-.728-.329-1.087-.5-2.856-1.352-6.789-3.066-8.872-5.139l-1.435.839a26.6,26.6,0,0,0,5.061,3.249,29.116,29.116,0,0,1-2.7,4.435q-4.054-2.165-8.1-4.335l-1.46.852,8.667,4.638a40.66,40.66,0,0,1-7.05,6.778q-5.434-3.011-10.864-6.017l-1.452.847q5.517,3.06,11.037,6.114a56.288,56.288,0,0,1-5.852,3.643l1.43.836a58.564,58.564,0,0,0,5.892-3.663q2.915,1.614,5.825,3.226a51.731,51.731,0,0,1-8.024,2.593l1.614.942q1.088-.264,2.133-.565c.557.308,1.114.611,1.679.916.037.021.077.04.114.061.525.281,1.056.561,1.587.837.386.2.766.4,1.156.594.616.313,1.235.622,1.863.929.308.154.622.308.938.457,1,.488,2.021.967,3.058,1.439q1.822.832,3.685,1.629-1.585.669-3.256,1.268l1.493.872a62.245,62.245,0,0,0,5.866-2.492q2.607,1.085,5.211,2.173l1.466-.857-5.089-2.123a49.145,49.145,0,0,0,7.1-4.534q2.683,1.181,5.437,2.305l1.475-.861c-.5-.2-.983-.4-1.477-.606s-.975-.406-1.464-.615c-.282-.117-.564-.24-.842-.359-.355-.152-.708-.3-1.06-.456-.081-.038-.162-.072-.245-.109-.357-.152-.712-.308-1.06-.465-.685-.3-1.367-.61-2.041-.919-.587-.265-1.163-.533-1.742-.8-.276-.126-.543-.253-.807-.381-.224-.105-.442-.207-.664-.314l-.1-.045c-.076-.037-.154-.073-.227-.111-.413-.194-.817-.391-1.224-.59s-.811-.4-1.214-.6c-.076-.037-.153-.077-.231-.114-.55-.274-1.1-.55-1.646-.829q-.506-.257-1-.515c-.774-.4-1.543-.8-2.3-1.213a1.635,1.635,0,0,0-.18-.078c.216-.139.429-.281.642-.427.151-.1.3-.2.452-.307l.277-.188.416-.292c.08-.056.161-.112.238-.17.146-.1.294-.205.436-.31.036-.026.073-.051.106-.079.054-.04.106-.079.164-.117.261-.191.517-.384.775-.576l.073-.055c.059-.044.117-.092.176-.133.238-.182.476-.369.713-.555.218-.169.434-.337.647-.51.256-.205.51-.408.77-.621.023-.017.044-.038.065-.055.191-.159.378-.31.564-.472.286-.24.573-.479.881-.74s.59-.507.884-.765c.134-.121.274-.241.411-.363.256-.224.509-.452.763-.677,7.731,2.866,15.85,5.6,22.61,9.213l1.429-.836c-2.085-1.115-4.292-2.151-6.537-3.162,2.274-1.617,4.569-3.223,6.839-4.839q4.42,1.393,9.052,2.541l1.564-.914q-4.766-1.148-9.3-2.567c.766-.55,1.533-1.1,2.287-1.656.4-.3.8-.594,1.188-.9.143-.109.283-.219.417-.329.58-.463,1.134-.935,1.639-1.419.283-.273.554-.546.8-.826q.181-.2.352-.412c.1-.12.195-.242.285-.363a.7.7,0,0,0,.075-.1c.094-.13.186-.255.271-.386s.15-.238.224-.358c.087-.149.168-.3.245-.451.029-.06.059-.125.088-.188.047-.093.083-.187.121-.281a1.066,1.066,0,0,0,.069-.181c.048-.114.085-.23.122-.345a23.5,23.5,0,0,0,2.478-.54c.554-.156,1.093-.325,1.617-.5a.673.673,0,0,0,.106.079,66.4,66.4,0,0,0,9.236,4.528l1.477-.864a64.283,64.283,0,0,1-9.066-4.4,33.591,33.591,0,0,0,5.17-2.711l-1.426-.832a26.265,26.265,0,0,1-8.128,3.659,29.87,29.87,0,0,1-14.933-.477,40.941,40.941,0,0,1-5.749-2.15,54.178,54.178,0,0,1,15.916-8.56l-1.46-.852a55.325,55.325,0,0,0-7.357,3.209q-6.547-3.564-12.76-7.317l-1.452.847Q110.585,355.605,117.1,359.154ZM75.116,390.838a51.14,51.14,0,0,0,10.948-5.053c.033.02.058.043.1.064,1.817.969,3.656,1.915,5.533,2.841.465.229.931.457,1.4.685q.609.3,1.232.59c.059.031.114.059.176.086l.094.044c.312.145.62.293.928.439s.626.293.938.436c.176.081.349.16.525.242.485.221.972.442,1.456.66-.023.018-.048.028-.07.046a47.954,47.954,0,0,1-9.422,5.617c-.609-.257-1.215-.517-1.812-.78s-1.193-.524-1.783-.792c-1.019-.462-2.02-.931-3.017-1.411l-.615-.3c-.441-.214-.88-.431-1.32-.65-.066-.034-.133-.064-.2-.1-.173-.084-.338-.167-.528-.266-.352-.176-.7-.355-1.052-.533-.111-.055-.213-.111-.324-.166q-.776-.4-1.54-.809C76.213,391.434,75.664,391.14,75.116,390.838Zm4.951-13.307q4.3,2.3,8.608,4.606a56.63,56.63,0,0,1-9.544,5.59q-3.1-1.722-6.21-3.442A42.484,42.484,0,0,0,80.067,377.531Zm15.159-.649c-.444.392-.9.782-1.356,1.172-.051.044-.1.084-.191.159q-.451.385-.914.764l-.105.089c-.213.171-.422.345-.635.516s-.425.342-.644.512c-.467.372-.939.737-1.424,1.1l-8.978-4.806a30.535,30.535,0,0,0,2.8-4.416c.378.191.759.375,1.143.561l.158.076.132.064c.436.208.873.411,1.316.615.465.216.936.425,1.408.633.4.176.8.351,1.253.544q.544.235,1.1.462c.059.026.114.049.172.071.309.128.618.257.969.4l.294.12c.054.023.112.044.172.066q.479.2.967.385l.878.345Q94.48,376.6,95.226,376.882Zm8.678-5.855a125.3,125.3,0,0,0,15.483,6.257l-6.45,4.588a.615.615,0,0,0-.186.2c-3.332-1.38-6.8-2.667-10.267-3.93q-2.243-.816-4.484-1.638C99.99,374.691,101.925,372.847,103.9,371.027Zm4.551-4.03c.285-.244.583-.487.875-.726s.587-.479.884-.716a37.917,37.917,0,0,0,9.156,2.917,36.146,36.146,0,0,0,9.165.539,6.719,6.719,0,0,1-.447.869c-.085.144-.176.284-.276.423s-.195.276-.3.411c-.087.12-.187.237-.311.379-.1.117-.2.231-.3.345-.073.082-.154.161-.234.243-.162.167-.33.334-.506.5l-.137.13c-.073.068-.145.138-.224.2-.021.017-.042.038-.065.056-.066.059-.132.12-.205.178-.091.084-.191.167-.294.249-.054.049-.112.1-.174.145-.145.117-.288.235-.434.351-.184.142-.366.282-.59.452-.271.2-.546.408-.824.615s-.584.42-.881.632c-.541.386-1.089.774-1.627,1.161a122.892,122.892,0,0,1-15.685-6.337c.451-.408.9-.814,1.363-1.225.18-.16.364-.319.548-.477.213-.188.424-.378.645-.561a.605.605,0,0,1,.1-.084C107.927,367.441,108.191,367.219,108.455,367Z" fill="#f6f7ef"/>
          </g>
        </g>
        <g id="Group_734" data-name="Group 734">
          <path id="Path_1915" data-name="Path 1915" d="M78.31,388.551l.467.037c.448.038,5.027-.868,10.775-5.546.526-.436,11.854-9.86,14.416-12.045l16.578,6.776.462-.247c8.294-4.471,9.376-8.328,9.417-8.489l.112-.433-.735-.082c-.181-.02-3.9-.433-6.269-.622l1.4-2.408c.137-.237-.08-.5-.486-.575a.983.983,0,0,0-.987.282l-2.028,3.479.975.056c1.562.09,4.8.43,6.3.593-.511,1.063-2.365,3.987-8.3,7.282l-16.858-6.89-.436.395c-1,.9-14.693,12.288-14.831,12.4a25.44,25.44,0,0,1-9.2,5.095l-2.7-1.574,2.217-1.3a.34.34,0,0,0,0-.642,1.2,1.2,0,0,0-1.1,0l-3.317,1.937,4.024,2.349Z" fill="#e8593a"/>
        </g>
      </g>
      <path id="Path_1916" data-name="Path 1916" d="M73.793,369.293l.753,0,73.575.539a1.216,1.216,0,0,0,.282-1.024,1.536,1.536,0,0,0-.938-1.581L114.71,348.107a5.085,5.085,0,0,0-4.64,0Z" fill="url(#linear-gradient)" style="mix-blend-mode: screen;isolation: isolate"/>
      <g id="Group_736" data-name="Group 736">
        <path id="Path_1917" data-name="Path 1917" d="M64.627,391.989l-3.135,1.831a.969.969,0,0,0,0,1.83l3.135,1.83a3.317,3.317,0,0,0,1.881.367,2.977,2.977,0,0,0,1.253-.367l3.134-1.83a.969.969,0,0,0,0-1.83l-3.134-1.831a3,3,0,0,0-1.253-.365A3.327,3.327,0,0,0,64.627,391.989Z" fill="#d3dbdc"/>
        <path id="Path_1918" data-name="Path 1918" d="M64.892,392.356l-3.135,1.831a.969.969,0,0,0,0,1.829l3.135,1.831a2.325,2.325,0,0,0,2.507,0l3.135-1.831a.969.969,0,0,0,0-1.829L67.4,392.356a2.325,2.325,0,0,0-2.507,0Z" fill="#e5eae7"/>
      </g>
      <g id="Group_737" data-name="Group 737">
        <path id="Path_1919" data-name="Path 1919" d="M140.267,378.831a.7.7,0,0,0-.225.087l-4.557,2.693a1.466,1.466,0,0,0-.656,1.148.691.691,0,0,0,.039.255c.093.238.334.307.619.142l4.554-2.69a1.462,1.462,0,0,0,.656-1.148C140.7,378.971,140.517,378.794,140.267,378.831Z" fill="#a2afb8"/>
        <path id="Path_1920" data-name="Path 1920" d="M140.267,378.831a.7.7,0,0,0-.225.087l-4.557,2.693a1.466,1.466,0,0,0-.656,1.148.691.691,0,0,0,.039.255.6.6,0,0,0,.227-.087l4.557-2.689a1.472,1.472,0,0,0,.655-1.149A.72.72,0,0,0,140.267,378.831Z" fill="#bbc6cb"/>
      </g>
      <g id="Group_738" data-name="Group 738">
        <path id="Path_1921" data-name="Path 1921" d="M126.655,353.654a.717.717,0,0,0,.187.153l9.767,5.7a1.43,1.43,0,0,0,1.313,0,.634.634,0,0,0,.2-.161c.158-.2.1-.445-.187-.611l-9.765-5.7a1.437,1.437,0,0,0-1.313,0C126.559,353.207,126.5,353.454,126.655,353.654Z" fill="#bbc6cb"/>
        <path id="Path_1922" data-name="Path 1922" d="M126.655,353.654a.717.717,0,0,0,.187.153l9.767,5.7a1.43,1.43,0,0,0,1.313,0,.634.634,0,0,0,.2-.161.6.6,0,0,0-.187-.155l-9.765-5.7a1.437,1.437,0,0,0-1.313,0A.689.689,0,0,0,126.655,353.654Z" fill="#d3dbdc"/>
      </g>
      <g id="Group_739" data-name="Group 739">
        <path id="Path_1923" data-name="Path 1923" d="M58.313,398.761l5.975,3.492c.225.132.416.1.514-.054a.644.644,0,0,0,.056-.475l-.293-1.123a1.326,1.326,0,0,0-.568-.846L58.6,396.6c-.022-.012-.044-.024-.065-.034a.329.329,0,0,0-.5.218l-.291.782A1.252,1.252,0,0,0,58.313,398.761Z" fill="#a2afb8"/>
        <path id="Path_1924" data-name="Path 1924" d="M58.763,398.674l5.976,3.491c.022.013.044.027.06.035a.641.641,0,0,0,.058-.477l-.118-.453-.172-.672a1.359,1.359,0,0,0-.568-.841l-4.126-2.411L58.6,396.6a.391.391,0,0,0-.066-.035.554.554,0,0,0-.052.13l-.291.782A1.242,1.242,0,0,0,58.763,398.674Z" fill="#bbc6cb"/>
        <path id="Path_1925" data-name="Path 1925" d="M60.38,398.719l4.359,2.551-.172-.672a1.359,1.359,0,0,0-.568-.841l-4.126-2.411-.065.178A1.254,1.254,0,0,0,60.38,398.719Z" fill="#85929c"/>
      </g>
      <path id="Path_1926" data-name="Path 1926" d="M125.726,367.728H113.348l-9.578-4.948,8.831-5.758,13.666.545Z" fill="#bbc6cb" opacity="0.3" style="mix-blend-mode: multiply;isolation: isolate"/>
      <g id="Group_762" data-name="Group 762">
        <g id="Group_745" data-name="Group 745">
          <g id="Group_744" data-name="Group 744">
            <g id="Group_743" data-name="Group 743" style="isolation: isolate">
              <g id="Group_740" data-name="Group 740">
                <path id="Path_1927" data-name="Path 1927" d="M125.694,356.523l-10.049-5.907.031,11.2,10.049,5.907Z" fill="#c48455"/>
              </g>
              <g id="Group_741" data-name="Group 741">
                <path id="Path_1928" data-name="Path 1928" d="M115.645,350.615l10.049,5.907,4.38-2.558,1.227-.715,4.034-2.357-10.049-5.9-4.069,2.376-1.224.715Z" fill="#ffe3bd"/>
              </g>
              <g id="Group_742" data-name="Group 742">
                <path id="Path_1929" data-name="Path 1929" d="M125.694,356.523l.031,11.2,9.641-5.629-.032-11.2Z" fill="#de9c6f"/>
              </g>
            </g>
          </g>
          <path id="Path_1930" data-name="Path 1930" d="M119.993,348.078l10.081,5.886,1.227-.715-10.084-5.886Z" fill="#e8593a"/>
          <path id="Path_1931" data-name="Path 1931" d="M131.3,353.256l-1.225.715v5.391l1.225-.715Z" fill="#bb5a31"/>
        </g>
        <g id="Group_755" data-name="Group 755">
          <g id="Group_747" data-name="Group 747">
            <path id="Path_1932" data-name="Path 1932" d="M123.367,363.554a.379.379,0,0,1,.126.051.841.841,0,0,1,.346.45c.064-.111.2-.136.346-.048a.863.863,0,0,1,.347.452c.065-.111.2-.134.346-.048a.664.664,0,0,1,.128.1,1.914,1.914,0,0,0-.821-1.226C123.79,363.054,123.458,363.178,123.367,363.554Z" fill="#c48455"/>
            <g id="Group_746" data-name="Group 746">
              <path id="Path_1933" data-name="Path 1933" d="M124.06,365.7c.124.072.176-.007.184-.078v-1.742a.128.128,0,0,0-.058-.1c-.057.033-.057,1.769-.057,1.769s-.015.046-.069.017a.179.179,0,0,1-.065-.134.125.125,0,0,0-.063-.1A.309.309,0,0,0,124.06,365.7Z" fill="#c48455"/>
            </g>
          </g>
          <g id="Group_751" data-name="Group 751">
            <g id="Group_748" data-name="Group 748">
              <path id="Path_1934" data-name="Path 1934" d="M122.227,363.476l.126.075c.251.147.456.028.456-.264v-.737l-1.035-.6v.735A1.013,1.013,0,0,0,122.227,363.476Z" fill="#c48455"/>
            </g>
            <g id="Group_749" data-name="Group 749">
              <path id="Path_1935" data-name="Path 1935" d="M122.233,364.585l.117.069v-1.22l-.117-.069Z" fill="#c48455"/>
            </g>
            <g id="Group_750" data-name="Group 750">
              <path id="Path_1936" data-name="Path 1936" d="M121.953,364.492l.674.394c.059-.072.033-.119,0-.138l-.674-.394C121.894,364.426,121.921,364.472,121.953,364.492Z" fill="#c48455"/>
            </g>
          </g>
          <g id="Group_754" data-name="Group 754">
            <g id="Group_752" data-name="Group 752">
              <path id="Path_1937" data-name="Path 1937" d="M118.992,362.727a.178.178,0,0,1,0-.161l1.05-1.511c.048-.071.189.011.239.139l1.049,2.738a.177.177,0,0,1,0,.161.083.083,0,0,1-.118.01l-2.1-1.225A.309.309,0,0,1,118.992,362.727Zm1.152-1.544s-1.052,1.51-1.032,1.557c0,0,2.1,1.227,2.118,1.2,0,0-1.049-2.736-1.068-2.759A.01.01,0,0,0,120.143,361.183Z" fill="#c48455"/>
            </g>
            <g id="Group_753" data-name="Group 753">
              <path id="Path_1938" data-name="Path 1938" d="M120.243,362.779l-.149-.084-.012-.269v-.75l.173.1v.751Zm-.161.24v-.2l.173.1v.2Z" fill="#c48455"/>
            </g>
          </g>
        </g>
        <g id="Group_761" data-name="Group 761">
          <path id="Path_1939" data-name="Path 1939" d="M120.393,358.364l3.9,2.279v-2.936l-3.9-2.281Z" fill="#ecebe3"/>
          <g id="Group_760" data-name="Group 760">
            <g id="Group_756" data-name="Group 756">
              <path id="Path_1940" data-name="Path 1940" d="M121.249,358.308l2.193,1.28c.042.024.077,0,.077-.046a.178.178,0,0,0-.077-.136l-2.193-1.28c-.044-.026-.079,0-.079.044A.174.174,0,0,0,121.249,358.308Z" fill="#744b44"/>
            </g>
            <g id="Group_757" data-name="Group 757">
              <path id="Path_1941" data-name="Path 1941" d="M121.249,357.76l2.193,1.28c.042.026.077.006.077-.045a.174.174,0,0,0-.077-.136l-2.193-1.28c-.044-.027-.079-.006-.079.044A.172.172,0,0,0,121.249,357.76Z" fill="#744b44"/>
            </g>
            <g id="Group_758" data-name="Group 758">
              <path id="Path_1942" data-name="Path 1942" d="M121.249,357.214l2.193,1.28c.042.024.077,0,.077-.046a.176.176,0,0,0-.077-.136l-2.193-1.28c-.044-.027-.079-.006-.079.045A.176.176,0,0,0,121.249,357.214Z" fill="#744b44"/>
            </g>
            <g id="Group_759" data-name="Group 759">
              <path id="Path_1943" data-name="Path 1943" d="M121.249,356.666l2.193,1.28c.042.024.077,0,.077-.046a.176.176,0,0,0-.077-.136l-2.193-1.28c-.044-.026-.079,0-.079.046A.173.173,0,0,0,121.249,356.666Z" fill="#744b44"/>
            </g>
          </g>
        </g>
      </g>
      <path id="Path_1944" data-name="Path 1944" d="M79.321,384.923s-15.223,1.019-16.843.977c-7.2-.188-5.132-8.689-.276-8.475,6.89.308,17.119,7.5,17.119,7.5Z" fill="#bbc6cb" opacity="0.3" style="mix-blend-mode: multiply;isolation: isolate"/>
      <g id="Group_767" data-name="Group 767">
        <g id="Group_766" data-name="Group 766" style="isolation: isolate">
          <g id="Group_764" data-name="Group 764">
            <path id="Path_1945" data-name="Path 1945" d="M79.407,364.41c0-.062,0-.122-.011-.181s-.01-.125-.019-.186-.016-.123-.027-.183-.023-.126-.037-.187-.031-.133-.05-.2-.042-.137-.065-.2-.059-.148-.093-.218a2.374,2.374,0,0,0-.143-.263,1.937,1.937,0,0,0-.655-.648l2.828,1.662a1.954,1.954,0,0,1,.656.649,2.332,2.332,0,0,1,.143.262,2.049,2.049,0,0,1,.091.218c.024.065.046.133.066.2s.035.13.051.2.027.123.037.187.019.122.027.182.015.123.019.186.008.121.011.182,0,.122,0,.185,0,.126,0,.183,0,.125-.008.186-.008.123-.015.187-.012.123-.019.187-.018.127-.029.192-.021.13-.031.194-.027.133-.041.2-.03.133-.046.2-.034.136-.053.2-.037.134-.057.2-.041.131-.064.2-.045.13-.068.2-.045.125-.07.187-.047.125-.073.186l-.079.183-2.828-1.662c.027-.061.053-.121.079-.183s.05-.123.074-.187.047-.123.07-.186.045-.13.065-.2.045-.131.064-.2l.059-.2c.017-.067.035-.134.051-.2s.033-.133.046-.2.029-.133.041-.2.023-.13.033-.192.019-.13.028-.193.015-.125.021-.186.01-.127.016-.187,0-.125.007-.186,0-.115,0-.172C79.411,364.532,79.411,364.47,79.407,364.41Z" fill="#bb2d36"/>
            <path id="Path_1946" data-name="Path 1946" d="M77.991,368.888c.1-.149.192-.3.283-.455l2.828,1.661c-.091.155-.185.308-.283.456-.077.119-.158.233-.239.345l-2.83-1.661C77.833,369.12,77.912,369,77.991,368.888Z" fill="#bb2d36"/>
            <g id="Group_763" data-name="Group 763">
              <path id="Path_1947" data-name="Path 1947" d="M78.462,368.1c.039-.076.077-.153.115-.229s.066-.136.1-.2.057-.123.083-.186l2.828,1.662c-.027.062-.054.123-.083.185s-.064.136-.1.2-.076.153-.117.229c-.062.115-.123.226-.187.337l-2.828-1.661C78.337,368.322,78.4,368.208,78.462,368.1Z" fill="#bb2d36"/>
              <path id="Path_1948" data-name="Path 1948" d="M77.289,369.813c.05-.059.1-.116.147-.175l.146-.182c.057-.072.112-.147.167-.223l2.83,1.661c-.056.076-.112.152-.169.225s-.1.122-.146.182-.1.116-.145.172-.1.111-.149.165l-2.828-1.661C77.192,369.924,77.241,369.868,77.289,369.813Z" fill="#bb2d36"/>
            </g>
            <path id="Path_1949" data-name="Path 1949" d="M75.67,371.2l.16-.1c.056-.034.109-.07.162-.108s.11-.077.166-.119.11-.084.166-.128.114-.092.169-.139.114-.1.168-.148.112-.1.168-.158.106-.105.16-.16.105-.109.155-.164l2.828,1.661c-.051.056-.1.111-.155.165s-.106.109-.16.161-.11.105-.167.155-.112.1-.169.15-.111.093-.169.138-.11.088-.167.13l-.163.119-.162.108c-.053.034-.106.066-.161.1-.036.022-2.866-1.64-2.866-1.64Z" fill="#bb2d36"/>
          </g>
          <path id="Path_1950" data-name="Path 1950" d="M72.933,371.49a1.807,1.807,0,0,0,.29.137,2.081,2.081,0,0,0,.231.066,1.816,1.816,0,0,0,.331.05,2.409,2.409,0,0,0,.347,0,2.684,2.684,0,0,0,.349-.051,3.511,3.511,0,0,0,.366-.1,3.968,3.968,0,0,0,.384-.153c.147-.07.272-.134.4-.209l2.83,1.662-.121.068c-.052.028-.105.055-.157.081-.031.017-.065.032-.1.048-.1.049-.155.071-.2.09s-.1.042-.154.059l-.152.051c-.052.016-.105.031-.157.043a3.122,3.122,0,0,1-.322.062l-.1.011c-.129.011-.187.013-.247.013a3.084,3.084,0,0,1-.416-.042c-.123-.031-.2-.049-.265-.073a2.083,2.083,0,0,1-.308-.144Z" fill="#bb2d36"/>
          <path id="Path_1951" data-name="Path 1951" d="M68.794,370.5c0-.111.01-.223.017-.335s.016-.222.027-.336.023-.225.037-.337.03-.232.047-.347.04-.232.06-.35.046-.241.071-.359.056-.242.083-.363.063-.242.1-.366.068-.244.105-.364.074-.24.114-.358.077-.233.121-.352.081-.225.126-.339.087-.222.133-.334.091-.222.139-.33.1-.222.151-.334.114-.243.174-.364c.068-.139.139-.277.212-.414.109-.205.221-.407.337-.608q.241-.416.506-.815c.14-.211.284-.421.431-.623.1-.137.2-.27.3-.4.087-.111.174-.221.263-.329s.174-.21.262-.313.176-.2.267-.3.185-.2.279-.3.19-.194.288-.288.2-.191.3-.282.2-.181.3-.268.2-.169.3-.252.2-.156.3-.23.2-.144.3-.214.191-.132.289-.194.192-.121.29-.178c.139-.082.212-.124.285-.164.027-.015.053-.027.081-.043l.11-.057.088-.045c.046-.023.092-.043.137-.066s.065-.031.1-.048c.132-.059.222-.1.313-.134s.185-.073.276-.106c.07-.023.1-.034.135-.044l.139-.045c.109-.031.149-.044.189-.054s.062-.018.094-.026l.1-.022.12-.027c.1-.021.138-.027.175-.032l.139-.023c.087-.015.124-.017.162-.021l.147-.016.14-.007c.059,0,.117,0,.174,0,.2,0,.267.007.338.012.22.022.328.037.432.056.164.035.228.053.29.07.033.009.063.018.093.029s.081.023.121.038c.092.035.152.061.212.088l.087.035c.087.042.173.087.254.134l2.83,1.664c-.083-.05-.169-.093-.256-.134a.906.906,0,0,0-.086-.038,1.928,1.928,0,0,0-.181-.073c-.05-.021-.1-.037-.151-.053-.031-.009-.06-.02-.092-.028-.063-.018-.128-.034-.192-.049a3.82,3.82,0,0,0-.418-.067c-.037,0-.075-.006-.112-.01-.071-.006-.141-.01-.215-.011l-.122,0-.174.006-.141.009c-.05,0-.1.009-.147.015l-.162.02-.138.023-.176.033-.121.027-.189.048-.121.034c-.069.021-.139.042-.208.065l-.1.033c-.1.035-.2.073-.309.115s-.212.089-.317.138l-.1.046c-.074.037-.149.072-.224.112-.037.017-.075.038-.112.057-.1.051-.2.108-.3.165-.163.1-.26.156-.355.22s-.193.127-.29.193-.2.139-.3.213-.2.153-.3.232-.2.165-.3.249-.2.178-.3.269-.2.186-.3.281-.195.191-.289.289-.189.2-.279.3-.179.2-.266.3-.176.207-.263.31-.178.22-.263.329c-.1.133-.2.269-.3.4-.147.2-.294.412-.433.622-.175.267-.344.54-.506.817-.116.2-.23.4-.336.606-.073.138-.144.277-.212.416-.06.12-.12.242-.176.364s-.1.221-.149.334-.094.219-.139.329-.091.222-.135.336-.083.225-.124.337-.083.235-.121.353-.079.237-.114.356-.071.243-.105.366-.065.244-.1.367-.057.241-.083.361-.05.242-.071.361-.044.233-.06.351-.034.23-.05.345-.025.226-.036.34-.019.223-.027.335-.012.222-.016.334,0,.209,0,.312c0,.137.007.276.019.421.011.122.029.247.046.373.006.035.011.071.018.109.019.125.045.251.073.38.06.252.1.406.146.562.037.13.076.26.118.392.063.188.116.337.173.488.075.2.158.409.245.616.022.053.045.1.066.155.07.163.144.326.22.493.029.059.056.116.082.174q.17.359.357.72c.021.039.041.079.062.116.115.221.234.441.355.66.023.044.046.084.069.126.135.24.274.478.415.714l.091.155c.139.23.279.46.419.685.128.205.237.374.343.542.03.043.058.088.087.133.08.122.16.244.241.363.039.061.08.121.118.18l.2.3.133.193c.063.092.124.183.187.271l.137.194c.058.084.117.169.176.249s.091.13.137.193.112.156.166.231.088.122.133.185l.158.216c.045.06.087.115.128.174l.151.2c.039.054.079.108.117.159s.1.126.143.187l.11.145c.045.06.088.116.132.171l.1.13c.042.053.081.1.118.153s.063.079.091.115.07.088.1.132l.077.1c.033.04.06.077.091.112s.044.054.06.079.052.064.075.092c.071.09.091.114.11.134.077.1-2.752-1.566-2.752-1.566-.1-.119-.114-.142-.139-.171l-.121-.153-.06-.075-.094-.12c-.023-.028-.047-.061-.073-.092s-.069-.088-.106-.134-.06-.079-.093-.119l-.114-.149c-.034-.042-.068-.087-.1-.132l-.132-.17c-.035-.048-.073-.1-.11-.146l-.14-.188-.12-.158-.152-.205-.123-.166-.163-.225L73.695,381c-.056-.078-.112-.159-.172-.238-.044-.062-.087-.123-.133-.187-.058-.082-.117-.169-.178-.253l-.135-.193c-.06-.089-.124-.178-.186-.271-.045-.065-.087-.127-.132-.194-.069-.1-.139-.2-.208-.307-.037-.057-.076-.114-.116-.172l-.249-.38c-.024-.039-.051-.077-.076-.116-.109-.17-.218-.339-.324-.51-.16-.257-.3-.486-.441-.719-.03-.053-.06-.1-.091-.153-.14-.237-.279-.474-.413-.715l-.068-.125c-.123-.22-.242-.439-.357-.66-.021-.039-.042-.079-.062-.119-.124-.24-.243-.48-.358-.719-.051-.106-.064-.139-.08-.174-.079-.165-.151-.33-.222-.494-.021-.05-.045-.1-.065-.153-.087-.207-.17-.414-.245-.617-.064-.172-.112-.309-.158-.446-.052-.161-.089-.276-.123-.391-.057-.2-.1-.353-.131-.506-.048-.208-.071-.317-.089-.42s-.019-.131-.027-.169-.016-.106-.023-.159c-.01-.07-.017-.142-.023-.211s-.011-.139-.015-.207-.006-.137-.006-.2C68.79,370.7,68.792,370.6,68.794,370.5Z" fill="#bb2d36"/>
          <g id="Group_765" data-name="Group 765">
            <path id="Path_1952" data-name="Path 1952" d="M85.279,364.5c.012,4.382-6.444,19.927-6.783,20.745-.343-.418-6.864-8.388-6.876-12.77a15.211,15.211,0,0,1,6.806-11.924C82.2,358.343,85.266,360.113,85.279,364.5Zm-6.817,8.39a8.445,8.445,0,0,0,3.778-6.618c-.006-2.435-1.709-3.415-3.8-2.192a8.443,8.443,0,0,0-3.78,6.62c.006,2.431,1.712,3.412,3.8,2.189Z" fill="#e63b33"/>
          </g>
        </g>
      </g>
      <g id="Group_768" data-name="Group 768">
        <path id="Path_1953" data-name="Path 1953" d="M144.509,377.9a.7.7,0,0,0,.892.007,2.475,2.475,0,0,0,1.106-1.937.77.77,0,0,0-.357-.742.9.9,0,0,1,.208.633,2.476,2.476,0,0,1-1.108,1.94A.789.789,0,0,1,144.509,377.9Z" fill="#bbc6cb"/>
        <path id="Path_1954" data-name="Path 1954" d="M144.294,377.266a2.341,2.341,0,0,0,1.107-1.9A2.347,2.347,0,0,0,144.294,377.266Z" fill="#85929c"/>
        <path id="Path_1955" data-name="Path 1955" d="M144.294,377.306a.881.881,0,0,0,.21.594.789.789,0,0,0,.746-.1,2.476,2.476,0,0,0,1.108-1.94.9.9,0,0,0-.208-.633.792.792,0,0,0-.749.1A2.486,2.486,0,0,1,144.294,377.306Z" fill="#a2afb8"/>
      </g>
      <g id="Group_769" data-name="Group 769">
        <path id="Path_1956" data-name="Path 1956" d="M147.918,375.815a.7.7,0,0,0,.892.009,2.475,2.475,0,0,0,1.106-1.937.767.767,0,0,0-.357-.742.9.9,0,0,1,.207.633,2.482,2.482,0,0,1-1.107,1.94A.792.792,0,0,1,147.918,375.815Z" fill="#bbc6cb"/>
        <path id="Path_1957" data-name="Path 1957" d="M147.7,375.177a2.332,2.332,0,0,0,1.108-1.9A2.348,2.348,0,0,0,147.7,375.177Z" fill="#85929c"/>
        <path id="Path_1958" data-name="Path 1958" d="M147.7,375.219a.88.88,0,0,0,.212.593.792.792,0,0,0,.746-.1,2.482,2.482,0,0,0,1.107-1.94.9.9,0,0,0-.207-.633.791.791,0,0,0-.749.1A2.485,2.485,0,0,1,147.7,375.219Z" fill="#a2afb8"/>
      </g>
    </g>
  </g>
</svg>
