<svg xmlns="http://www.w3.org/2000/svg" width="115" height="92" viewBox="0 0 115 92">
  <g id="Group_128" data-name="Group 128" transform="translate(-267.32 -209.529)">
    <g id="Group_45" data-name="Group 45">
      <path id="Path_81" data-name="Path 81" d="M376.884,244.377l-2.838-1.648-15.274,23.408-12.141,3.725.923.534-.923.365,17.8,9.7,4.117-4.148,9.316-30.766Z" fill="#f5f2e8"/>
      <path id="Path_82" data-name="Path 82" d="M280.713,242.79v0a2.926,2.926,0,0,0,.039.309c.313,1.757,24.032,21.973,27.056,24.232,3.321,2.484,10.916,6.879,15.993,9.979,0,0,.006,0,.01.006.895.545,1.8,1.093,2.722,1.645l.01.006c14.557,8.722,31.358,17.642,31.358,17.642a36.454,36.454,0,0,0,9.421,3.855c5.836,1.426,12.3,1.34,13.461.191a3.77,3.77,0,0,0-.356-1.948v0a18.477,18.477,0,0,0-2.971-4.384.141.141,0,0,1-.024-.029c-.231-.267-.458-.527-.682-.775l-.029-.031c-.348-.388-.686-.753-1-1.083-.28-.3-.539-.571-.762-.808-1.888-1.992-7.546-6.716-7.546-6.716l-20.24-11.247-44.131-25.009c-11.451-6.742-11.662-6.806-11.878-6.862s-.431-.106-.607-.166a5.951,5.951,0,0,0-1.436-.309l-6.578-1a1.94,1.94,0,0,0-1.695,1.421,2.551,2.551,0,0,0-.139.662A2.848,2.848,0,0,0,280.713,242.79Z" fill="#f5f2e8"/>
      <path id="Path_83" data-name="Path 83" d="M301.319,248.05l1.053-1.443-.709-12.587-2.6-2.057-7.136,10.659Z" fill="#f5f2e8"/>
      <path id="Path_84" data-name="Path 84" d="M295.54,251.384l-2.495.609-5.221-.056-16.857-.175-3.648-1.449,7.66-2.645,7.107-2.456,1.544-.532,2.879,1.617Z" fill="#f5f2e8"/>
      <path id="Path_85" data-name="Path 85" d="M343.044,286.024l-16.772-8.8-10.721,6.514-35.54,11.445,5.607,2.091L336.9,289.3l7.175-2.38Z" fill="#f5f2e8"/>
    </g>
    <g id="Group_46" data-name="Group 46">
      <path id="Path_86" data-name="Path 86" d="M357.8,288.716a2.483,2.483,0,0,0-1.124-1.942.772.772,0,0,0-.83-.06l-.7.408.476.778a2.654,2.654,0,0,0,.762,1.244l.419.684.618-.36a.557.557,0,0,0,.112-.065h0A.825.825,0,0,0,357.8,288.716Z" fill="#23222d"/>
      <path id="Path_87" data-name="Path 87" d="M357.1,289.117c0,.714-.5,1-1.124.642a2.482,2.482,0,0,1-1.125-1.943c0-.714.5-1,1.125-.642A2.484,2.484,0,0,1,357.1,289.117Z" fill="#393843"/>
      <path id="Path_88" data-name="Path 88" d="M356.988,289.1c0,.687-.484.963-1.082.617a2.387,2.387,0,0,1-1.082-1.869c0-.687.484-.963,1.082-.617A2.387,2.387,0,0,1,356.988,289.1Z" fill="#2d2c37"/>
      <path id="Path_89" data-name="Path 89" d="M356.737,288.935c0,.5-.35.7-.781.447a1.724,1.724,0,0,1-.781-1.35c0-.5.349-.7.781-.446A1.725,1.725,0,0,1,356.737,288.935Z" fill="#504f58"/>
      <path id="Path_90" data-name="Path 90" d="M356.685,288.877c0,.449-.317.631-.708.4a1.562,1.562,0,0,1-.708-1.223c0-.449.317-.63.708-.4A1.563,1.563,0,0,1,356.685,288.877Z" fill="#c4c2bb"/>
      <path id="Path_91" data-name="Path 91" d="M356.614,288.835c0,.4-.285.567-.637.364a1.4,1.4,0,0,1-.637-1.1c0-.4.284-.567.637-.363a.88.88,0,0,1,.094.062,1.459,1.459,0,0,1,.535.92A.969.969,0,0,1,356.614,288.835Z" fill="#b0ac9e"/>
      <path id="Path_92" data-name="Path 92" d="M356.207,289.035a1.33,1.33,0,0,1-.6-1.041.467.467,0,0,1,.119-.344c-.225-.017-.382.15-.382.45a1.4,1.4,0,0,0,.637,1.1c.256.148.477.1.578-.09A.484.484,0,0,1,356.207,289.035Z" fill="#b7b4a9"/>
      <path id="Path_93" data-name="Path 93" d="M356.606,288.718c-.067.1-.194.115-.34.031a.863.863,0,0,1-.391-.675c0-.167.078-.267.2-.276A1.459,1.459,0,0,1,356.606,288.718Z" fill="#9d9783"/>
      <path id="Path_94" data-name="Path 94" d="M355.977,287.831l-.293.17.577.938.289-.167-.2-.472Z" fill="#9d9783"/>
      <path id="Path_95" data-name="Path 95" d="M356.368,288.693c0,.248-.175.348-.391.223a.862.862,0,0,1-.391-.675c0-.248.175-.348.391-.223A.863.863,0,0,1,356.368,288.693Z" fill="#d5d2c9"/>
    </g>
    <path id="Path_96" data-name="Path 96" d="M355.319,288.192a.186.186,0,0,0,.1.148.584.584,0,0,0,.53.012.19.19,0,0,0,.113-.146h0V288.2l.242-10.221-.744-.05-.247,10.254h0v.006Z" fill="#23222d"/>
    <g id="Group_47" data-name="Group 47">
      <path id="Path_97" data-name="Path 97" d="M356.619,289.4a2.48,2.48,0,0,0-1.124-1.942.77.77,0,0,0-.83-.06l-.7.407.476.778a2.653,2.653,0,0,0,.762,1.244l.419.684.618-.36a.547.547,0,0,0,.112-.066h0A.826.826,0,0,0,356.619,289.4Z" fill="#23222d"/>
      <path id="Path_98" data-name="Path 98" d="M355.924,289.8c0,.714-.5,1-1.124.642a2.482,2.482,0,0,1-1.124-1.943c0-.714.5-1,1.124-.642A2.481,2.481,0,0,1,355.924,289.8Z" fill="#393843"/>
      <path id="Path_99" data-name="Path 99" d="M355.812,289.792c0,.687-.484.963-1.082.617a2.387,2.387,0,0,1-1.082-1.869c0-.687.484-.963,1.082-.617A2.387,2.387,0,0,1,355.812,289.792Z" fill="#2d2c37"/>
      <path id="Path_100" data-name="Path 100" d="M355.56,289.622c0,.5-.349.7-.781.446a1.725,1.725,0,0,1-.781-1.349c0-.5.35-.7.781-.446A1.722,1.722,0,0,1,355.56,289.622Z" fill="#504f58"/>
      <path id="Path_101" data-name="Path 101" d="M355.508,289.564c0,.449-.317.63-.708.4a1.562,1.562,0,0,1-.708-1.223c0-.449.317-.63.708-.4A1.561,1.561,0,0,1,355.508,289.564Z" fill="#c4c2bb"/>
      <path id="Path_102" data-name="Path 102" d="M355.437,289.523c0,.4-.285.567-.637.364a1.407,1.407,0,0,1-.637-1.1c0-.4.285-.567.637-.364a1.006,1.006,0,0,1,.094.063,1.459,1.459,0,0,1,.535.92A.969.969,0,0,1,355.437,289.523Z" fill="#b0ac9e"/>
      <path id="Path_103" data-name="Path 103" d="M355.03,289.722a1.33,1.33,0,0,1-.6-1.041.466.466,0,0,1,.119-.344c-.225-.017-.382.15-.382.45a1.407,1.407,0,0,0,.637,1.1c.256.148.477.1.578-.091A.48.48,0,0,1,355.03,289.722Z" fill="#b7b4a9"/>
      <path id="Path_104" data-name="Path 104" d="M355.429,289.405c-.067.1-.194.116-.34.031a.863.863,0,0,1-.391-.675c0-.167.079-.266.2-.276A1.459,1.459,0,0,1,355.429,289.405Z" fill="#9d9783"/>
      <path id="Path_105" data-name="Path 105" d="M354.8,288.518l-.293.17.577.938.289-.167-.2-.472Z" fill="#9d9783"/>
      <path id="Path_106" data-name="Path 106" d="M355.191,289.381c0,.248-.175.348-.391.223a.863.863,0,0,1-.391-.675c0-.248.175-.348.391-.223A.86.86,0,0,1,355.191,289.381Z" fill="#d5d2c9"/>
    </g>
    <g id="Group_48" data-name="Group 48">
      <path id="Path_107" data-name="Path 107" d="M338.684,280.264a2.482,2.482,0,0,0-1.125-1.943.773.773,0,0,0-.83-.06l-.7.408.477.778a2.648,2.648,0,0,0,.762,1.244l.419.684.618-.361a.577.577,0,0,0,.112-.065h0A.825.825,0,0,0,338.684,280.264Z" fill="#23222d"/>
      <path id="Path_108" data-name="Path 108" d="M337.99,280.666c0,.713-.5,1-1.125.642a2.484,2.484,0,0,1-1.124-1.943c0-.713.5-1,1.124-.642A2.482,2.482,0,0,1,337.99,280.666Z" fill="#393843"/>
      <path id="Path_109" data-name="Path 109" d="M337.876,280.653c0,.687-.484.963-1.082.618a2.388,2.388,0,0,1-1.082-1.869c0-.687.484-.964,1.082-.618A2.388,2.388,0,0,1,337.876,280.653Z" fill="#2d2c37"/>
      <path id="Path_110" data-name="Path 110" d="M337.626,280.483c0,.5-.35.7-.781.447a1.725,1.725,0,0,1-.782-1.35c0-.5.35-.7.782-.446A1.725,1.725,0,0,1,337.626,280.483Z" fill="#504f58"/>
      <path id="Path_111" data-name="Path 111" d="M337.572,280.425c0,.449-.317.631-.708.4a1.563,1.563,0,0,1-.708-1.223c0-.449.317-.631.708-.4A1.561,1.561,0,0,1,337.572,280.425Z" fill="#c4c2bb"/>
      <path id="Path_112" data-name="Path 112" d="M337.5,280.384c0,.4-.285.567-.637.363a1.4,1.4,0,0,1-.637-1.1c0-.4.285-.567.637-.363a.886.886,0,0,1,.1.062,1.461,1.461,0,0,1,.535.92A.98.98,0,0,1,337.5,280.384Z" fill="#b0ac9e"/>
      <path id="Path_113" data-name="Path 113" d="M337.094,280.583a1.331,1.331,0,0,1-.6-1.041.467.467,0,0,1,.118-.344c-.225-.018-.382.149-.382.449a1.4,1.4,0,0,0,.637,1.1c.256.148.477.1.579-.09A.486.486,0,0,1,337.094,280.583Z" fill="#b7b4a9"/>
      <path id="Path_114" data-name="Path 114" d="M337.494,280.266c-.067.1-.194.115-.34.031a.863.863,0,0,1-.391-.675c0-.167.079-.267.2-.276A1.461,1.461,0,0,1,337.494,280.266Z" fill="#9d9783"/>
      <path id="Path_115" data-name="Path 115" d="M336.865,279.379l-.293.17.577.938.289-.167-.2-.472Z" fill="#9d9783"/>
      <path id="Path_116" data-name="Path 116" d="M337.255,280.241c0,.248-.175.348-.391.223a.863.863,0,0,1-.391-.675c0-.248.175-.348.391-.223A.862.862,0,0,1,337.255,280.241Z" fill="#d5d2c9"/>
    </g>
    <g id="Group_49" data-name="Group 49">
      <path id="Path_117" data-name="Path 117" d="M337.507,280.951a2.484,2.484,0,0,0-1.124-1.942.77.77,0,0,0-.83-.06l-.7.408.476.777a2.653,2.653,0,0,0,.762,1.244l.419.684.618-.36a.553.553,0,0,0,.112-.065h0A.826.826,0,0,0,337.507,280.951Z" fill="#23222d"/>
      <path id="Path_118" data-name="Path 118" d="M336.813,281.353c0,.714-.5,1-1.124.642a2.482,2.482,0,0,1-1.125-1.943c0-.714.5-1,1.125-.642A2.482,2.482,0,0,1,336.813,281.353Z" fill="#393843"/>
      <path id="Path_119" data-name="Path 119" d="M336.7,281.34c0,.687-.484.963-1.082.617a2.387,2.387,0,0,1-1.082-1.869c0-.687.484-.963,1.082-.617A2.387,2.387,0,0,1,336.7,281.34Z" fill="#2d2c37"/>
      <path id="Path_120" data-name="Path 120" d="M336.449,281.17c0,.5-.35.7-.781.447a1.724,1.724,0,0,1-.781-1.35c0-.5.349-.7.781-.446A1.725,1.725,0,0,1,336.449,281.17Z" fill="#504f58"/>
      <path id="Path_121" data-name="Path 121" d="M336.4,281.112c0,.449-.317.631-.708.4a1.563,1.563,0,0,1-.708-1.223c0-.449.317-.63.708-.4A1.563,1.563,0,0,1,336.4,281.112Z" fill="#c4c2bb"/>
      <path id="Path_122" data-name="Path 122" d="M336.325,281.071c0,.4-.285.567-.637.364a1.405,1.405,0,0,1-.637-1.1c0-.4.285-.567.637-.363a.878.878,0,0,1,.094.062,1.459,1.459,0,0,1,.535.92A.962.962,0,0,1,336.325,281.071Z" fill="#b0ac9e"/>
      <path id="Path_123" data-name="Path 123" d="M335.918,281.27a1.33,1.33,0,0,1-.6-1.041.467.467,0,0,1,.119-.344c-.225-.017-.383.15-.383.45a1.405,1.405,0,0,0,.637,1.1c.256.148.477.1.578-.09A.484.484,0,0,1,335.918,281.27Z" fill="#b7b4a9"/>
      <path id="Path_124" data-name="Path 124" d="M336.317,280.953c-.067.1-.194.115-.34.031a.863.863,0,0,1-.391-.675c0-.167.078-.267.2-.276A1.459,1.459,0,0,1,336.317,280.953Z" fill="#9d9783"/>
      <path id="Path_125" data-name="Path 125" d="M335.688,280.066l-.293.17.577.938.289-.167-.2-.472Z" fill="#9d9783"/>
      <path id="Path_126" data-name="Path 126" d="M336.079,280.928c0,.248-.175.348-.391.223a.863.863,0,0,1-.391-.675c0-.248.175-.349.391-.223A.863.863,0,0,1,336.079,280.928Z" fill="#d5d2c9"/>
    </g>
    <g id="Group_127" data-name="Group 127">
      <g id="Group_122" data-name="Group 122">
        <g id="Group_72" data-name="Group 72">
          <path id="Path_127" data-name="Path 127" d="M354.537,264.584a1.765,1.765,0,0,0,.036.367,1.061,1.061,0,0,0,.252.517l.021.021.007.006a.755.755,0,0,0,.111.09.561.561,0,0,0,.073.043l3.88,2.075.187-.3.108-.173h0l.486-.786,1.586-2.562-3.963-2.128,0,0a.721.721,0,0,0-.211-.1h0l-.034-.01a1.267,1.267,0,0,0-.939.192l-.071.043c-.044.027-.088.057-.131.089a3.661,3.661,0,0,0-1.273,1.857,2.954,2.954,0,0,0-.1.5c-.006.045-.01.09-.012.133,0,.022,0,.043,0,.065S354.537,264.562,354.537,264.584Z" fill="#554d4e"/>
          <path id="Path_128" data-name="Path 128" d="M356.211,265.479a2.2,2.2,0,0,0,.023.326,1.684,1.684,0,0,0,.094.373,1.127,1.127,0,0,0,.324.467l.73,1.085a1.6,1.6,0,0,1-.382-.785,2.678,2.678,0,0,1-.054-.559c0-.034,0-.066,0-.1s0-.066,0-.1c0-.066.009-.134.017-.2.048-.024.1-.049.144-.077a3.155,3.155,0,0,0,.541-.4,4.61,4.61,0,0,0,1.092-1.551,3.673,3.673,0,0,0,.324-1.428c0-.047,0-.092,0-.136.065-.048.131-.093.2-.135.036-.023.072-.044.108-.066a2.719,2.719,0,0,1,.544-.244,1.592,1.592,0,0,1,.885-.048l-1.353.008a1.455,1.455,0,0,0-1.281.19c-.034.02-.066.041-.1.062a3.935,3.935,0,0,0-1.134,1.156,4.7,4.7,0,0,0-.529,1.076,3.551,3.551,0,0,0-.187.927h0C356.213,265.374,356.211,265.427,356.211,265.479Z" fill="#dad3cc"/>
          <path id="Path_129" data-name="Path 129" d="M356.945,266.386a2.678,2.678,0,0,0,.054.559,1.6,1.6,0,0,0,.382.785l.032.032.01.008a1.126,1.126,0,0,0,.168.138,1.006,1.006,0,0,0,.113.066l6.246,3.66.286-.463.164-.263h0l.74-1.2,2.413-3.9-6.373-3.739-.006,0a1.138,1.138,0,0,0-.321-.156h0l-.051-.015a1.924,1.924,0,0,0-1.429.293c-.036.022-.073.043-.108.066-.067.042-.133.087-.2.135a5.579,5.579,0,0,0-1.938,2.825,4.5,4.5,0,0,0-.159.766c-.008.068-.015.136-.017.2,0,.033,0,.066,0,.1S356.945,266.352,356.945,266.386Z" fill="#f3f1ee"/>
          <path id="Path_130" data-name="Path 130" d="M356.933,263.317l1.046.188.766.453,5.965,3.513,2.3-1.4-7.091-4.125h0l-1.848.212A3.935,3.935,0,0,0,356.933,263.317Z" fill="#fcfbfa"/>
          <path id="Path_131" data-name="Path 131" d="M356.211,265.479a2.2,2.2,0,0,0,.023.326,1.684,1.684,0,0,0,.094.373,1.127,1.127,0,0,0,.324.467l.73,1.085.032.032.01.008a1.126,1.126,0,0,0,.168.138,1.006,1.006,0,0,0,.113.066l6.246,3.66.286-.463.164-.263h0l.74-1.2-7.487-4.2-.526-.289-.723-.827a3.551,3.551,0,0,0-.187.927h0C356.213,265.374,356.211,265.427,356.211,265.479Z" fill="#ebe7e3"/>
          <path id="Path_132" data-name="Path 132" d="M356.211,265.479a2.2,2.2,0,0,0,.023.326,1.684,1.684,0,0,0,.094.373,1.127,1.127,0,0,0,.324.467l.73,1.085.032.032.01.008a1.126,1.126,0,0,0,.168.138,1.006,1.006,0,0,0,.113.066l6.246,3.66.286-.463.164-.263h0a4.053,4.053,0,0,0-.226-.409l-7.23-4.112-.728-1.066h0C356.213,265.374,356.211,265.427,356.211,265.479Z" fill="#ded8d1"/>
          <path id="Path_133" data-name="Path 133" d="M356.234,265.8a1.684,1.684,0,0,0,.094.373,1.127,1.127,0,0,0,.324.467l.73,1.085.032.032.01.008a1.126,1.126,0,0,0,.168.138,1.006,1.006,0,0,0,.113.066l6.246,3.66.286-.463L357,266.945h0Z" fill="#cdc6bc"/>
          <path id="Path_134" data-name="Path 134" d="M361.179,262.073h-.007a1.068,1.068,0,0,0-.322-.161l-.049-.014-1.356.008a1.452,1.452,0,0,0-1.279.2.7.7,0,0,0-.1.056,3.929,3.929,0,0,0-1.139,1.162,4.9,4.9,0,0,0-.524,1.071,3.5,3.5,0,0,0-.189.931,1.141,1.141,0,0,0-.007.154,1.649,1.649,0,0,0,.028.329,1.443,1.443,0,0,0,.091.371,1.166,1.166,0,0,0,.321.469l.735,1.084.028.035.014.007a1.112,1.112,0,0,0,.168.14c.035.021.07.042.112.063l4.605,2.7a1.066,1.066,0,0,1-.091-.084l-.014-.007-.028-.035a1.9,1.9,0,0,1-.44-1.344,5.362,5.362,0,0,1,2.432-4.192,1.92,1.92,0,0,1,1.426-.294l.049.014a1.067,1.067,0,0,1,.322.161h.007l.028.007Zm-1.293-.112c.014-.007.021-.007.028-.014h.014A.1.1,0,0,0,359.886,261.961Z" fill="#fecb4c" style="mix-blend-mode: multiply;isolation: isolate"/>
          <path id="Path_135" data-name="Path 135" d="M364.055,263.762s-1.18.1-2.085,2.043-1.167,3.459-.468,4.394c-.785-.46-4.075-2.428-4.075-2.428l2.081-4.008,1.672-1.689Z" fill="#d9b5a5" style="mix-blend-mode: multiply;isolation: isolate"/>
          <g id="Group_50" data-name="Group 50">
            <path id="Path_136" data-name="Path 136" d="M363.284,270.1c0,1.541,1.087,2.161,2.427,1.386a5.359,5.359,0,0,0,2.428-4.194c0-1.54-1.087-2.161-2.428-1.386A5.358,5.358,0,0,0,363.284,270.1Z" fill="#fcfbfa"/>
          </g>
          <g id="Group_51" data-name="Group 51">
            <path id="Path_137" data-name="Path 137" d="M363.388,270.067c0,1.508,1.063,2.114,2.375,1.356a5.242,5.242,0,0,0,2.375-4.1c0-1.507-1.064-2.114-2.375-1.356A5.241,5.241,0,0,0,363.388,270.067Z" fill="#ebe7e3"/>
          </g>
          <g id="Group_52" data-name="Group 52">
            <path id="Path_138" data-name="Path 138" d="M363.662,269.878c0,.026,0,.052,0,.077s0,.068.006.1a2.1,2.1,0,0,0,.034.269c.006.027.011.055.018.081a1.511,1.511,0,0,0,.087.26c.008.02.017.041.027.06a1.176,1.176,0,0,0,.121.2c.358.476,1.01.555,1.754.125a4.518,4.518,0,0,0,2.048-3.537,1.378,1.378,0,0,0-.673-1.355.973.973,0,0,0-.217-.071l-.057-.01a1.14,1.14,0,0,0-.231-.013l-.071,0a1.524,1.524,0,0,0-.224.038c-.027.007-.055.013-.082.022a2.065,2.065,0,0,0-.212.075l-.091.041c-.063.029-.126.063-.191.1h0c-.032.019-.065.038-.1.06-.059.036-.118.077-.176.119-.035.025-.068.051-.1.077-.054.043-.106.087-.158.133-.034.03-.069.062-.1.094s-.1.092-.14.142-.068.071-.1.108-.086.1-.128.151-.065.08-.1.122-.078.1-.115.158-.061.086-.089.131-.071.111-.1.169-.055.092-.08.139-.065.12-.1.18-.048.1-.068.143c-.031.065-.059.13-.087.2-.02.048-.038.095-.055.143-.027.071-.052.142-.074.214-.015.046-.029.092-.041.139-.022.078-.042.156-.058.233-.01.043-.019.088-.025.132-.016.084-.028.167-.036.249,0,.039-.008.079-.009.118C363.664,269.755,363.662,269.817,363.662,269.878Z" fill="#f3f1ee"/>
          </g>
          <g id="Group_71" data-name="Group 71">
            <path id="Path_139" data-name="Path 139" d="M363.662,269.878c0,.026,0,.052,0,.077s0,.068.006.1a2.1,2.1,0,0,0,.034.269c.006.027.011.055.018.081a1.511,1.511,0,0,0,.087.26c.008.02.017.041.027.06a1.176,1.176,0,0,0,.121.2,1.5,1.5,0,0,0,1.375-.185,4.518,4.518,0,0,0,2.048-3.537,1.714,1.714,0,0,0-.294-1.045.973.973,0,0,0-.217-.071l-.057-.01a1.14,1.14,0,0,0-.231-.013l-.071,0a1.524,1.524,0,0,0-.224.038c-.027.007-.055.013-.082.022a2.065,2.065,0,0,0-.212.075l-.091.041c-.063.029-.126.063-.191.1h0c-.032.019-.065.038-.1.06-.059.036-.118.077-.176.119-.035.025-.068.051-.1.077-.054.043-.106.087-.158.133-.034.03-.069.062-.1.094s-.1.092-.14.142-.068.071-.1.108-.086.1-.128.151-.065.08-.1.122-.078.1-.115.158-.061.086-.089.131-.071.111-.1.169-.055.092-.08.139-.065.12-.1.18-.048.1-.068.143c-.031.065-.059.13-.087.2-.02.048-.038.095-.055.143-.027.071-.052.142-.074.214-.015.046-.029.092-.041.139-.022.078-.042.156-.058.233-.01.043-.019.088-.025.132-.016.084-.028.167-.036.249,0,.039-.008.079-.009.118C363.664,269.755,363.662,269.817,363.662,269.878Z" fill="#493f41"/>
            <g id="Group_53" data-name="Group 53">
              <path id="Path_140" data-name="Path 140" d="M366.215,267.887a2.708,2.708,0,0,0,.279-.155l.821-.522c.031-.02.059-.019.059,0a.093.093,0,0,1-.042.06l-.848.626a2.709,2.709,0,0,1-.607.343l-.543.211v-.143Z" fill="#554d4e"/>
              <path id="Path_141" data-name="Path 141" d="M363.715,269.324l.461-.293a2.568,2.568,0,0,1,.238-.136l.04-.02.075-.036.354-.169.129-.062.048-.022.079-.039.045-.021.03-.014.022-.01.015-.008.013-.006.011-.006.008,0,.008,0,.006,0,.008,0,.006,0,.006,0,.006,0h0l.009,0v-.143h0l-.006,0-.006,0-.007,0-.006,0-.007,0-.01,0-.01,0-.013.006-.016.007-.021.007-.029.013-.045.016-.078.031-.046.019-.13.05-.11.043a2.564,2.564,0,0,0-.244.112c-.038.022-.078.043-.117.067-.082.049-.164.1-.244.162l-.446.329C363.73,269.236,363.721,269.281,363.715,269.324Z" fill="#554d4e"/>
            </g>
            <g id="Group_54" data-name="Group 54">
              <path id="Path_142" data-name="Path 142" d="M366.2,267.718c.092-.063.184-.133.275-.209l.8-.674c.031-.026.059-.031.063-.013a.094.094,0,0,1-.036.064l-.815.773a3.414,3.414,0,0,1-.6.459l-.55.326-.022-.129Z" fill="#6b6164"/>
              <path id="Path_143" data-name="Path 143" d="M363.669,269.691l.521-.437q.113-.094.229-.176l.046-.032.075-.051.352-.24.131-.088h0l.047-.031.078-.053.048-.031.029-.02.022-.014.016-.011.013-.009.01-.007.009-.006.007-.006.008,0,.007,0,.006,0,.008,0,0,0h0l.009-.006h0l-.011-.064h0l-.011-.063,0,0,0,0-.008,0,0,0-.008,0-.008,0-.008.006-.011.006-.013.008-.016.01-.021.012-.03.018-.045.027-.079.048-.047.028-.129.076-.113.066a2.619,2.619,0,0,0-.245.163c-.039.027-.078.057-.116.089-.08.064-.161.134-.238.207l-.5.471C363.675,269.613,363.671,269.652,363.669,269.691Z" fill="#6b6164"/>
            </g>
            <g id="Group_55" data-name="Group 55">
              <path id="Path_144" data-name="Path 144" d="M366.167,267.569c.089-.08.178-.166.263-.257l.758-.8c.029-.031.059-.043.066-.027s-.007.041-.029.066l-.757.9a4.113,4.113,0,0,1-.572.561l-.54.43-.043-.11Z" fill="#554d4e"/>
              <path id="Path_145" data-name="Path 145" d="M363.664,269.955c0,.035,0,.068.006.1l.57-.605c.071-.076.144-.149.219-.217l.045-.04.071-.064.34-.3.129-.114.043-.039.079-.069.043-.038.029-.027.02-.018.016-.014.012-.011.011-.009.008-.008.008-.008.007,0,.006-.006.008-.006.006,0,.006,0h0l0,0,.008-.008h0l-.02-.052h0l-.02-.054h0l0,0-.006,0,0,0-.006.006-.007,0-.008.006-.009.008-.01.008-.013.009-.016.013-.02.017-.03.023-.044.036-.076.061-.048.038-.128.1-.11.087c-.08.064-.159.132-.238.207-.04.036-.078.074-.117.113-.075.076-.147.157-.218.241Z" fill="#554d4e"/>
            </g>
            <g id="Group_56" data-name="Group 56">
              <path id="Path_146" data-name="Path 146" d="M366.1,267.444c.084-.093.166-.192.244-.3l.691-.913c.027-.034.057-.053.066-.04s0,.038-.02.066l-.676,1a4.612,4.612,0,0,1-.529.647l-.514.521-.062-.088Z" fill="#6b6164"/>
              <path id="Path_147" data-name="Path 147" d="M363.7,270.325c.006.027.011.055.018.081l.6-.791c.066-.087.134-.172.2-.252l.039-.045.068-.076.319-.356.12-.134.043-.05.071-.079.041-.046.027-.03.019-.022.015-.015.011-.013.009-.011.008-.009.008-.008.006-.008.007-.007,0-.006.013-.013h0l.009-.01-.029-.041h0l-.031-.043-.008.008-.006.006-.006.006-.006.006-.008.008-.008.009-.01.009-.012.013-.063.063-.042.043-.074.076-.043.044-.124.125-.1.1c-.076.076-.15.158-.224.244-.036.043-.071.087-.107.131-.068.087-.136.178-.2.272Z" fill="#6b6164"/>
            </g>
            <g id="Group_57" data-name="Group 57">
              <path id="Path_148" data-name="Path 148" d="M365.295,268.35l.039.031h0l.04.031,0-.006,0-.006.006-.006.006-.007.006-.008.008-.008.007-.01.008-.011.013-.014.014-.018.017-.024.026-.032.039-.048.068-.087.034-.043.12-.15.094-.12c.068-.085.133-.176.2-.268.034-.049.066-.1.1-.149.061-.1.12-.2.173-.3l.551-1.02-.057-.01-.577.948c-.057.094-.117.185-.18.274l-.037.053-.066.092-.286.395-.112.156-.034.046-.065.091-.037.051-.024.034-.018.024-.013.018-.011.015-.008.012-.008.01-.006.008-.006.008-.006.008,0,.007-.006.008,0,.006,0,0Z" fill="#554d4e"/>
              <path id="Path_149" data-name="Path 149" d="M363.808,270.666c.008.02.017.041.027.06l.6-.985c.055-.092.115-.183.178-.271.012-.019.025-.036.038-.055l.061-.085.289-.4h0l.108-.15.037-.052v0l.065-.088.037-.052.024-.034.017-.024.013-.019.011-.014.008-.013.007-.01.007-.008.006-.009.006-.007h0l0-.006.006-.008,0-.008h0l.006-.009h0l-.04-.031h0l-.039-.031,0,0v0l0,0-.006.006-.011.015-.007.008-.008.011-.009.011-.011.013-.014.018-.019.023-.024.031-.04.049-.069.087-.04.05-.115.145-.094.118c-.07.088-.137.181-.2.276-.031.047-.062.093-.093.141-.061.1-.119.2-.173.3Z" fill="#554d4e"/>
            </g>
            <g id="Group_58" data-name="Group 58">
              <path id="Path_150" data-name="Path 150" d="M365.286,268.363h0l.046.018h0l.048.019,0-.007,0-.006.009-.015.006-.008.006-.009.006-.01.008-.013.01-.015.012-.02.017-.025.022-.036.034-.054.059-.094.031-.048.1-.162.085-.133q.09-.141.172-.29c.029-.054.057-.108.084-.162.05-.1.1-.2.14-.305l.386-.929-.071,0-.415.871c-.047.1-.1.2-.152.29-.01.02-.02.038-.031.057l-.057.1-.245.423-.1.17-.029.05-.055.1-.033.055-.02.037-.016.026-.01.02-.01.016-.007.013-.007.011-.006.01,0,.01-.006.008,0,.008,0,.008-.006.01v0Z" fill="#6b6164"/>
              <path id="Path_151" data-name="Path 151" d="M364.758,269.48c-.065.113-.127.23-.182.347l-.5,1.04c-.019.04-.048.069-.061.064s-.01-.029,0-.061l.455-1.1a5.006,5.006,0,0,1,.4-.757l.417-.653.1.036Z" fill="#6b6164"/>
            </g>
            <g id="Group_59" data-name="Group 59">
              <path id="Path_152" data-name="Path 152" d="M365.281,268.377l.053,0h0l.054,0,0-.006,0-.007,0-.007,0-.008,0-.009,0-.01.006-.012.006-.013.008-.017.01-.02.013-.027.019-.037.029-.057.05-.1.027-.05.087-.174.071-.139c.05-.1.1-.2.14-.3.023-.055.045-.109.065-.165.04-.1.075-.207.1-.309l.238-.814c-.027.007-.055.013-.082.022l-.274.77c-.035.1-.074.2-.117.3l-.026.059-.045.1h0l-.2.444-.079.175-.023.052-.045.1-.026.058-.017.039-.012.027-.01.021-.007.016-.006.013-.006.012,0,.01,0,.009,0,.008,0,.008-.006.011v.006Z" fill="#554d4e"/>
              <path id="Path_153" data-name="Path 153" d="M364.883,269.512c-.053.118-.1.237-.143.357l-.376,1.058c-.014.041-.041.074-.057.073s-.015-.025-.006-.056l.322-1.1a4.657,4.657,0,0,1,.31-.778l.349-.691.108.009Z" fill="#554d4e"/>
            </g>
            <g id="Group_60" data-name="Group 60">
              <path id="Path_154" data-name="Path 154" d="M365.277,268.39h0l.055-.008h0l.059-.009,0-.006,0-.008,0-.007,0-.008,0-.008,0-.01,0-.012.006-.014.006-.017.008-.02.011-.027.013-.038.022-.059.039-.1.02-.052.068-.179.054-.14c.038-.1.073-.2.1-.308.017-.055.031-.109.045-.164.026-.1.047-.2.064-.3l.116-.689-.091.041-.153.656c-.022.1-.049.2-.08.3-.006.02-.013.039-.019.059l-.034.1-.147.45-.057.175-.017.054-.034.1-.02.059-.013.038-.008.027-.007.021-.006.016,0,.013,0,.013,0,.01,0,.01,0,.008,0,.008v.006l0,.01Z" fill="#6b6164"/>
              <path id="Path_155" data-name="Path 155" d="M365.021,269.509c-.039.119-.073.239-.1.356l-.243,1.043c-.009.04-.032.076-.05.079s-.02-.017-.015-.048l.18-1.066a4.139,4.139,0,0,1,.215-.775l.269-.708.117-.018Z" fill="#6b6164"/>
            </g>
            <g id="Group_61" data-name="Group 61">
              <path id="Path_156" data-name="Path 156" d="M365.274,268.4l.058-.022h0l.06-.022v-.006l0-.008,0-.015,0-.009,0-.01,0-.012,0-.013,0-.015.006-.022.006-.027.01-.037.015-.058.026-.1.014-.052.045-.175.036-.141c.026-.1.048-.2.066-.3.009-.053.018-.106.024-.158.012-.1.02-.2.023-.289l.017-.564c-.032.019-.065.038-.1.06l-.057.544c-.01.092-.024.188-.043.284,0,.02-.008.04-.011.06l-.02.1-.09.439-.036.173-.01.052-.02.1-.013.057-.007.037-.006.027,0,.021,0,.015,0,.014,0,.011v.01l0,.009,0,.008v.006l0,.009v.008h0Z" fill="#554d4e"/>
              <path id="Path_157" data-name="Path 157" d="M365.168,269.472a3.408,3.408,0,0,0-.053.345l-.1,1c0,.038-.023.077-.042.084s-.024-.011-.023-.04l.031-1a3.438,3.438,0,0,1,.113-.75l.182-.7.123-.046Z" fill="#554d4e"/>
            </g>
            <g id="Group_62" data-name="Group 62">
              <path id="Path_158" data-name="Path 158" d="M365.272,268.418l.059-.036h0l.061-.036V268.3l0-.011v-.013l0-.016,0-.02,0-.026,0-.036.008-.057.013-.1.007-.051.022-.167.018-.136q.019-.147.025-.29c0-.05,0-.1,0-.149a2.121,2.121,0,0,0-.019-.262l-.058-.447c-.035.025-.068.051-.1.077l.02.44c0,.087,0,.178,0,.272l0,.052-.006.094-.031.418-.011.161,0,.053-.008.1,0,.054,0,.035,0,.026v.121Z" fill="#6b6164"/>
              <path id="Path_159" data-name="Path 159" d="M365.321,269.4a2.954,2.954,0,0,0,0,.323l.041.92a.105.105,0,0,1-.031.085c-.015.009-.028,0-.031-.029l-.117-.907a2.744,2.744,0,0,1,.007-.7l.089-.676.124-.071Z" fill="#6b6164"/>
            </g>
            <g id="Group_63" data-name="Group 63">
              <path id="Path_160" data-name="Path 160" d="M365.074,266.825l.078.346a2.023,2.023,0,0,1,.039.243c0,.016,0,.032,0,.048l.006.085.032.384.012.148,0,.048.006.087,0,.049,0,.033v.023l0,.018v.092l.058-.047h0l.059-.046v-.346l0-.157V267.7a2.34,2.34,0,0,0-.018-.266c-.006-.043-.012-.087-.02-.129a1.628,1.628,0,0,0-.06-.237l-.115-.342C365.142,266.761,365.108,266.794,365.074,266.825Z" fill="#554d4e"/>
              <path id="Path_161" data-name="Path 161" d="M365.474,269.3a2.1,2.1,0,0,0,.043.291l.183.816a.092.092,0,0,1-.022.085c-.015.011-.03,0-.038-.019l-.263-.785a2.06,2.06,0,0,1-.1-.631l-.007-.629.123-.1Z" fill="#554d4e"/>
            </g>
            <g id="Group_64" data-name="Group 64">
              <path id="Path_162" data-name="Path 162" d="M364.833,267.075l.124.267a1.368,1.368,0,0,1,.078.209.409.409,0,0,1,.012.041l.021.074.091.337.035.129.011.043.022.076.011.043.008.029,0,.022,0,.015,0,.013,0,.01,0,.008v.008l0,.007,0,.007v.006l0,.006,0,.006h0l0,.009h0l.055-.056,0,0h0l0,0,.057-.055h0V268.3l0-.006v-.008l0-.009,0-.01,0-.014,0-.015,0-.022-.006-.03-.008-.046-.015-.082-.008-.043-.025-.139-.02-.113a1.633,1.633,0,0,0-.059-.235c-.012-.038-.026-.075-.041-.111a1.326,1.326,0,0,0-.1-.2l-.157-.251C364.9,267,364.866,267.038,364.833,267.075Z" fill="#6b6164"/>
              <path id="Path_163" data-name="Path 163" d="M365.623,269.172a1.481,1.481,0,0,0,.09.25l.319.687a.078.078,0,0,1-.01.081.026.026,0,0,1-.043-.008l-.4-.638a1.541,1.541,0,0,1-.2-.542l-.1-.563.117-.116Z" fill="#6b6164"/>
            </g>
            <g id="Group_65" data-name="Group 65">
              <path id="Path_164" data-name="Path 164" d="M364.609,267.348l.163.2a1.19,1.19,0,0,1,.114.165.359.359,0,0,1,.02.036l.033.061.149.281.057.106.019.036.034.063.018.036.013.024.009.018.007.012,0,.01,0,.01,0,.006,0,.008,0,.006,0,0,0,.006,0,0,0,0h0l0,.008.051-.064,0,0h0l.052-.064h0v0l0,0,0-.006,0-.006v-.006l0-.008,0-.008,0-.009,0-.011-.007-.015-.007-.017-.01-.026-.015-.04-.028-.069-.016-.038-.047-.118-.039-.1a1.285,1.285,0,0,0-.1-.2.98.98,0,0,0-.06-.087,1.013,1.013,0,0,0-.136-.151l-.193-.173C364.671,267.266,364.64,267.306,364.609,267.348Z" fill="#554d4e"/>
              <path id="Path_165" data-name="Path 165" d="M365.763,269.018a1.216,1.216,0,0,0,.135.2l.446.536a.064.064,0,0,1,0,.076.031.031,0,0,1-.048,0l-.526-.472a1.181,1.181,0,0,1-.3-.436l-.194-.48.108-.134Z" fill="#554d4e"/>
            </g>
            <g id="Group_66" data-name="Group 66">
              <path id="Path_166" data-name="Path 166" d="M364.4,267.637l.2.132a.989.989,0,0,1,.149.121.326.326,0,0,1,.027.027l.044.046.2.213.077.082.026.027.046.05.027.028.017.017.012.013.009.01.008.008.006.006.006.006,0,0,0,0,0,0,0,0,0,0,0,0h0l.006.006.045-.071,0,0h0l.045-.07h0l0,0,0,0,0,0,0,0,0,0,0-.006,0-.006-.006-.007-.006-.01-.008-.011-.011-.015-.015-.02-.023-.032-.04-.055-.023-.03-.068-.094-.056-.076a.978.978,0,0,0-.136-.153.9.9,0,0,0-.08-.066.952.952,0,0,0-.168-.1l-.224-.1C364.463,267.549,364.433,267.592,364.4,267.637Z" fill="#6b6164"/>
              <path id="Path_167" data-name="Path 167" d="M365.89,268.846a1.028,1.028,0,0,0,.175.148l.559.37a.05.05,0,0,1,.013.067.039.039,0,0,1-.05.015l-.635-.293a1,1,0,0,1-.384-.318l-.28-.381.1-.147Z" fill="#6b6164"/>
            </g>
            <g id="Group_67" data-name="Group 67">
              <path id="Path_168" data-name="Path 168" d="M364.219,267.944l.24.071a.851.851,0,0,1,.175.071l.034.018.054.031.249.141.094.054.033.018.057.032.032.019.022.012.015.008.011.006.009.006.008,0,.006,0,.006,0,0,0,0,0,0,0,0,0,0,0,.008,0,.039-.078h0l.038-.074,0,0,0,0,0,0,0,0,0,0-.006,0-.006,0-.008-.006-.008-.006-.01-.008-.014-.01-.02-.015-.03-.022-.052-.039-.029-.022-.087-.066-.072-.055a.9.9,0,0,0-.17-.1.851.851,0,0,0-.094-.039,1.012,1.012,0,0,0-.2-.048l-.257-.037C364.271,267.851,364.245,267.9,364.219,267.944Z" fill="#554d4e"/>
              <path id="Path_169" data-name="Path 169" d="M366,268.659a.979.979,0,0,0,.21.089l.656.192a.039.039,0,0,1,.024.057.051.051,0,0,1-.052.027l-.725-.1a1,1,0,0,1-.46-.188l-.359-.273.08-.155Z" fill="#554d4e"/>
            </g>
            <g id="Group_68" data-name="Group 68">
              <path id="Path_170" data-name="Path 170" d="M364.055,268.267l.285,0a1.267,1.267,0,0,1,.2.02l.036.008.061.013.29.065.108.025.038.008.065.015.037.008.024.006.018,0,.013,0,.011,0h.009l.007,0h.007l.006,0,.011,0h.018l.031-.079h0l.029-.076h0l0,0h0l0,0h0l-.011,0-.007,0-.008,0-.01,0-.013,0-.017-.006-.022-.008-.035-.012-.062-.023-.034-.012-.1-.038-.084-.031a1.05,1.05,0,0,0-.2-.049.783.783,0,0,0-.108-.012,1.244,1.244,0,0,0-.215.006l-.3.032C364.1,268.172,364.076,268.219,364.055,268.267Z" fill="#6b6164"/>
              <path id="Path_171" data-name="Path 171" d="M366.091,268.465a1.2,1.2,0,0,0,.238.027l.732.008c.028,0,.044.022.034.046a.062.062,0,0,1-.051.036l-.794.088a1.157,1.157,0,0,1-.521-.054l-.426-.155.063-.16Z" fill="#6b6164"/>
            </g>
            <g id="Group_69" data-name="Group 69">
              <path id="Path_172" data-name="Path 172" d="M363.913,268.606l.339-.075a1.613,1.613,0,0,1,.217-.033l.043,0,.068,0,.321-.014.12,0,.043,0,.072,0,.041,0h.138l.021-.078h0l.02-.078h-.094l-.026,0-.039,0-.071,0-.039,0-.117-.007-.094-.006a1.3,1.3,0,0,0-.22,0,.926.926,0,0,0-.114.016,1.774,1.774,0,0,0-.234.06l-.34.113C363.949,268.511,363.931,268.558,363.913,268.606Z" fill="#554d4e"/>
              <path id="Path_173" data-name="Path 173" d="M366.158,268.267a1.57,1.57,0,0,0,.259-.036l.786-.175c.03-.006.05.008.044.032a.077.077,0,0,1-.05.046l-.837.278a1.513,1.513,0,0,1-.567.081l-.479-.032.043-.16Z" fill="#554d4e"/>
            </g>
            <g id="Group_70" data-name="Group 70">
              <path id="Path_174" data-name="Path 174" d="M363.8,268.96l.4-.173a1.811,1.811,0,0,1,.233-.085l.04-.011.072-.02.345-.094.124-.034.048-.013.075-.02.045-.012.028-.008.021-.006.015,0,.013,0,.01,0h.008l.008,0,.006,0h.006l.006,0,.006,0h.008l.01,0,.011-.076h0l.011-.076H365.3l-.01,0-.012,0-.016,0-.019,0-.029,0-.043.008-.075.013-.043.008-.125.021-.1.019a1.776,1.776,0,0,0-.237.059l-.121.043a2.353,2.353,0,0,0-.238.112l-.391.21C363.824,268.866,363.81,268.913,363.8,268.96Z" fill="#6b6164"/>
              <path id="Path_175" data-name="Path 175" d="M366.2,268.073a1.972,1.972,0,0,0,.273-.1l.816-.353c.031-.013.055,0,.052.018a.086.086,0,0,1-.047.053l-.855.458a2.026,2.026,0,0,1-.6.215l-.519.091.022-.154Z" fill="#6b6164"/>
            </g>
            <path id="Path_176" data-name="Path 176" d="M364.838,269.4a.518.518,0,0,1-.31-.548,1.775,1.775,0,0,1,.8-1.387c.289-.167.542-.137.683.045h0l.006.008a.432.432,0,0,1,.042.068,1.5,1.5,0,0,1,.189.957,1.749,1.749,0,0,0-.26.468,2.062,2.062,0,0,1-.933.4.506.506,0,0,1-.159,0h-.007l-.009,0h0A.152.152,0,0,1,364.838,269.4Z" fill="#ebe7e3"/>
            <path id="Path_177" data-name="Path 177" d="M365.613,268.864c0,.2.143.286.321.183a.707.707,0,0,0,.321-.554c0-.2-.143-.286-.321-.183A.707.707,0,0,0,365.613,268.864Z" fill="#ebe7e3"/>
          </g>
          <path id="Path_178" data-name="Path 178" d="M365.358,268.25c.075.216.259.349.412.3a.37.37,0,0,0,.14-.487c-.075-.216-.259-.349-.412-.3S365.284,268.034,365.358,268.25Z" fill="#fcfbfa"/>
        </g>
        <g id="Group_95" data-name="Group 95">
          <path id="Path_179" data-name="Path 179" d="M331.855,280.793l-1.586,2.561-.482.784-.112.175-.189.308L327,283.292l-1.391-.749a.614.614,0,0,1-.07-.042.7.7,0,0,1-.112-.091l-.028-.028a1.031,1.031,0,0,1-.252-.518,1.5,1.5,0,0,1-.035-.364v-.133a.954.954,0,0,1,.014-.133,3.407,3.407,0,0,1,.1-.5,3.633,3.633,0,0,1,1.272-1.855.891.891,0,0,1,.133-.091c.021-.014.049-.028.07-.042a1.252,1.252,0,0,1,.936-.189l.035.007a.592.592,0,0,1,.21.1h.007l.748.406h.007Z" fill="#554d4e"/>
          <path id="Path_180" data-name="Path 180" d="M326.782,282.393a2.2,2.2,0,0,0,.023.326,1.683,1.683,0,0,0,.094.373,1.137,1.137,0,0,0,.324.467l.73,1.085a1.6,1.6,0,0,1-.382-.785,2.68,2.68,0,0,1-.055-.559c0-.034,0-.066,0-.1s0-.066,0-.1c0-.066.009-.134.017-.2.048-.024.1-.049.144-.077a3.154,3.154,0,0,0,.541-.4,4.606,4.606,0,0,0,1.092-1.552,3.669,3.669,0,0,0,.324-1.427c0-.047,0-.092,0-.136.064-.048.131-.093.2-.135.036-.023.072-.044.108-.066a2.719,2.719,0,0,1,.544-.244,1.592,1.592,0,0,1,.885-.048l-1.353.008a1.455,1.455,0,0,0-1.281.19c-.034.02-.066.04-.1.062a3.926,3.926,0,0,0-1.134,1.156,4.673,4.673,0,0,0-.529,1.076,3.55,3.55,0,0,0-.187.927h0C326.784,282.288,326.782,282.341,326.782,282.393Z" fill="#dad3cc"/>
          <path id="Path_181" data-name="Path 181" d="M327.516,283.3a2.68,2.68,0,0,0,.055.559,1.6,1.6,0,0,0,.382.785l.032.032.01.008a1.078,1.078,0,0,0,.168.137.916.916,0,0,0,.113.066l6.246,3.66.286-.463.163-.263h0l.74-1.2,2.412-3.9-6.372-3.738-.006,0a1.141,1.141,0,0,0-.321-.156h0l-.051-.015a1.924,1.924,0,0,0-1.429.293c-.036.022-.073.043-.108.066-.067.042-.134.087-.2.135a5.575,5.575,0,0,0-1.938,2.825,4.5,4.5,0,0,0-.159.766c-.008.068-.015.136-.017.2,0,.033,0,.066,0,.1S327.516,283.267,327.516,283.3Z" fill="#f3f1ee"/>
          <path id="Path_182" data-name="Path 182" d="M327.5,280.231l1.046.188.767.452,5.965,3.513,2.3-1.4-7.091-4.125h0l-1.849.212A3.926,3.926,0,0,0,327.5,280.231Z" fill="#fcfbfa"/>
          <path id="Path_183" data-name="Path 183" d="M326.782,282.393a2.2,2.2,0,0,0,.023.326,1.683,1.683,0,0,0,.094.373,1.137,1.137,0,0,0,.324.467l.73,1.085.032.032.01.008a1.078,1.078,0,0,0,.168.137.916.916,0,0,0,.113.066l6.246,3.66.286-.463.163-.263h0l.74-1.2-7.486-4.2-.526-.289-.723-.827a3.55,3.55,0,0,0-.187.927h0C326.784,282.288,326.782,282.341,326.782,282.393Z" fill="#ebe7e3"/>
          <path id="Path_184" data-name="Path 184" d="M326.782,282.393a2.2,2.2,0,0,0,.023.326,1.683,1.683,0,0,0,.094.373,1.137,1.137,0,0,0,.324.467l.73,1.085.032.032.01.008a1.078,1.078,0,0,0,.168.137.916.916,0,0,0,.113.066l6.246,3.66.286-.463.163-.263h0a4.035,4.035,0,0,0-.225-.41l-7.23-4.112-.728-1.066h0C326.784,282.288,326.782,282.341,326.782,282.393Z" fill="#ded8d1"/>
          <path id="Path_185" data-name="Path 185" d="M326.805,282.719a1.683,1.683,0,0,0,.094.373,1.137,1.137,0,0,0,.324.467l.73,1.085.032.032.01.008a1.078,1.078,0,0,0,.168.137.916.916,0,0,0,.113.066l6.246,3.66.286-.463-7.237-4.226h0Z" fill="#cdc6bc"/>
          <path id="Path_186" data-name="Path 186" d="M335.643,281.269l-3.893-2.282h-.007a1.067,1.067,0,0,0-.321-.161l-.049-.014-1.356.007a1.452,1.452,0,0,0-1.279.2.636.636,0,0,0-.091.056h-.007a3.929,3.929,0,0,0-1.139,1.162,4.9,4.9,0,0,0-.524,1.071,3.5,3.5,0,0,0-.189.931,1.135,1.135,0,0,0-.007.154,1.648,1.648,0,0,0,.028.329,1.442,1.442,0,0,0,.091.371,1.369,1.369,0,0,0,.1.2,1.05,1.05,0,0,0,.224.266l.734,1.085.028.035.014.007a1.115,1.115,0,0,0,.168.14c.035.021.07.042.112.063l.895.525,3.711,2.177a1.071,1.071,0,0,1-.091-.084l-.014-.007-.028-.035a1.9,1.9,0,0,1-.44-1.344,5.362,5.362,0,0,1,2.432-4.192,1.921,1.921,0,0,1,1.426-.294l.049.014a1.067,1.067,0,0,1,.321.161h.007l.028.007Zm-5.158-2.408h.014a.1.1,0,0,0-.042.014C330.471,278.869,330.478,278.869,330.485,278.862Z" fill="#fecb4c" style="mix-blend-mode: multiply;isolation: isolate"/>
          <path id="Path_187" data-name="Path 187" d="M335.643,281.269a5.019,5.019,0,0,0-3.375,1.148c-1.146,1.225-1.293,2.848-1.524,3.128s-1.572-.133-1.572-.133l-.895-.525c-.042-.021-.077-.042-.112-.063a1.115,1.115,0,0,1-.168-.14l-.014-.007-.028-.035-.734-1.085a1.05,1.05,0,0,1-.224-.266l-1.391-.749a.614.614,0,0,1-.07-.042.7.7,0,0,1-.112-.091l-.028-.028a1.031,1.031,0,0,1-.252-.518,1.5,1.5,0,0,1-.035-.364v-.133a.954.954,0,0,1,.014-.133,3.407,3.407,0,0,1,.1-.5,3.633,3.633,0,0,1,1.272-1.855.891.891,0,0,1,.133-.091c.021-.014.049-.028.07-.042a1.252,1.252,0,0,1,.936-.189l.035.007a.592.592,0,0,1,.21.1h.007l.748.406h.007a.636.636,0,0,1,.091-.056,1.452,1.452,0,0,1,1.279-.2l1.356-.007.049.014a1.067,1.067,0,0,1,.321.161h.007Z" fill="#d9b5a5" style="mix-blend-mode: multiply;isolation: isolate"/>
          <g id="Group_73" data-name="Group 73">
            <path id="Path_188" data-name="Path 188" d="M333.854,287.012c0,1.541,1.087,2.161,2.428,1.386a5.359,5.359,0,0,0,2.428-4.194c0-1.54-1.087-2.161-2.428-1.386A5.358,5.358,0,0,0,333.854,287.012Z" fill="#fcfbfa"/>
          </g>
          <g id="Group_74" data-name="Group 74">
            <ellipse id="Ellipse_4" data-name="Ellipse 4" cx="3.352" cy="1.934" rx="3.352" ry="1.934" transform="matrix(0.504, -0.864, 0.863, 0.505, 332.975, 287.527)" fill="#ebe7e3"/>
          </g>
          <g id="Group_75" data-name="Group 75">
            <path id="Path_189" data-name="Path 189" d="M334.233,286.793c0,.026,0,.052,0,.077s0,.068.006.1a2.231,2.231,0,0,0,.035.269c.006.027.01.055.018.081a1.49,1.49,0,0,0,.087.26c.008.02.017.041.027.06a1.13,1.13,0,0,0,.121.2c.358.476,1.01.555,1.754.125a4.518,4.518,0,0,0,2.048-3.537,1.378,1.378,0,0,0-.673-1.355.972.972,0,0,0-.217-.071l-.057-.011a1.141,1.141,0,0,0-.231-.013l-.072,0a1.535,1.535,0,0,0-.223.038c-.027.007-.055.013-.082.022a2.073,2.073,0,0,0-.212.075l-.091.041c-.063.029-.126.063-.191.1h0c-.032.02-.065.039-.1.061-.059.036-.118.077-.177.119-.034.025-.067.051-.1.077-.054.043-.106.087-.158.133-.034.03-.069.062-.1.094s-.1.092-.141.142-.067.071-.1.108-.086.1-.128.151-.065.08-.1.122-.079.1-.116.157-.06.087-.089.132-.071.111-.1.169-.055.092-.081.139-.064.12-.1.18-.048.1-.068.143c-.031.065-.059.13-.087.2-.02.048-.038.094-.055.143-.027.071-.052.142-.075.214-.015.046-.029.092-.041.139-.022.078-.042.156-.059.233-.009.043-.018.088-.025.132-.015.084-.027.167-.036.249,0,.039-.008.079-.01.118Q334.233,286.7,334.233,286.793Z" fill="#f3f1ee"/>
          </g>
          <g id="Group_94" data-name="Group 94">
            <path id="Path_190" data-name="Path 190" d="M334.233,286.793c0,.026,0,.052,0,.077s0,.068.006.1a2.231,2.231,0,0,0,.035.269c.006.027.01.055.018.081a1.49,1.49,0,0,0,.087.26c.008.02.017.041.027.06a1.13,1.13,0,0,0,.121.2,1.5,1.5,0,0,0,1.375-.185,4.518,4.518,0,0,0,2.048-3.537,1.714,1.714,0,0,0-.293-1.045.972.972,0,0,0-.217-.071l-.057-.011a1.141,1.141,0,0,0-.231-.013l-.072,0a1.535,1.535,0,0,0-.223.038c-.027.007-.055.013-.082.022a2.073,2.073,0,0,0-.212.075l-.091.041c-.063.029-.126.063-.191.1h0c-.032.02-.065.039-.1.061-.059.036-.118.077-.177.119-.034.025-.067.051-.1.077-.054.043-.106.087-.158.133-.034.03-.069.062-.1.094s-.1.092-.141.142-.067.071-.1.108-.086.1-.128.151-.065.08-.1.122-.079.1-.116.157-.06.087-.089.132-.071.111-.1.169-.055.092-.081.139-.064.12-.1.18-.048.1-.068.143c-.031.065-.059.13-.087.2-.02.048-.038.094-.055.143-.027.071-.052.142-.075.214-.015.046-.029.092-.041.139-.022.078-.042.156-.059.233-.009.043-.018.088-.025.132-.015.084-.027.167-.036.249,0,.039-.008.079-.01.118Q334.233,286.7,334.233,286.793Z" fill="#493f41"/>
            <g id="Group_76" data-name="Group 76">
              <path id="Path_191" data-name="Path 191" d="M336.786,284.8a2.593,2.593,0,0,0,.279-.155l.821-.521c.031-.02.059-.019.059,0a.093.093,0,0,1-.042.059l-.848.626a2.708,2.708,0,0,1-.607.343l-.543.211v-.143Z" fill="#554d4e"/>
              <path id="Path_192" data-name="Path 192" d="M334.285,286.239l.461-.293a2.561,2.561,0,0,1,.238-.136l.041-.02.075-.036.354-.17.13-.062.048-.022.079-.038.044-.021.031-.014.022-.01.015-.008.013-.006.011-.006.008,0,.008,0,.006,0,.008,0,.006,0,.006,0,.006,0h0l.009,0v-.143h0l0,0h0l-.006,0-.007,0-.006,0-.008,0-.009,0-.01,0-.013.006-.016.007-.021.007-.03.012-.044.017-.078.031-.046.019-.13.05-.11.043a2.677,2.677,0,0,0-.244.113c-.038.022-.079.043-.117.067-.082.049-.164.1-.244.162l-.447.329C334.3,286.151,334.292,286.2,334.285,286.239Z" fill="#554d4e"/>
            </g>
            <g id="Group_77" data-name="Group 77">
              <path id="Path_193" data-name="Path 193" d="M336.776,284.633c.092-.063.184-.133.275-.209l.8-.673c.03-.026.059-.031.063-.013a.1.1,0,0,1-.036.064l-.815.773a3.416,3.416,0,0,1-.6.459l-.551.326-.021-.129Z" fill="#6b6164"/>
              <path id="Path_194" data-name="Path 194" d="M334.24,286.606l.521-.437q.113-.094.229-.176l.046-.032.074-.051.353-.24.131-.088h0l.047-.032.078-.053.048-.031.029-.02.021-.014.017-.011.013-.009.01-.007.01-.006.007-.006.008,0,.007,0,.006,0,.008-.006,0,0h0l.01-.006h0l-.011-.064h0l-.011-.064,0,0,0,0-.008,0,0,0-.008,0-.008,0-.008.006-.011.006-.013.008-.016.01-.021.013-.03.017-.045.027-.079.048-.047.028-.129.076-.113.066a2.609,2.609,0,0,0-.245.163c-.039.027-.078.057-.116.089-.081.064-.161.134-.238.207l-.5.471C334.245,286.527,334.242,286.567,334.24,286.606Z" fill="#6b6164"/>
            </g>
            <g id="Group_78" data-name="Group 78">
              <path id="Path_195" data-name="Path 195" d="M336.738,284.483c.089-.079.177-.165.263-.256l.758-.8c.029-.031.059-.043.066-.027s-.006.041-.028.066l-.757.9a4.111,4.111,0,0,1-.572.561l-.541.43-.042-.11Z" fill="#554d4e"/>
              <path id="Path_196" data-name="Path 196" d="M334.234,286.87c0,.034,0,.068.006.1l.571-.605c.071-.076.143-.149.219-.217l.045-.04.071-.064.34-.3.129-.114.044-.039.079-.069.043-.038.029-.027.02-.018.016-.014.012-.011.011-.009.008-.008.008-.008.007-.006.006,0,.008-.007.006,0,.006,0h0l0,0,.008-.008h0l-.021-.052h0l-.02-.054h0l0,0-.006,0,0,0-.006.006-.008,0-.007.006-.009.007-.01.008-.013.01-.015.013-.02.017-.03.023-.045.036-.075.061-.048.038-.129.1-.109.087c-.08.064-.159.132-.238.207-.04.036-.078.074-.117.113-.075.076-.147.157-.218.241Z" fill="#554d4e"/>
            </g>
            <g id="Group_79" data-name="Group 79">
              <path id="Path_197" data-name="Path 197" d="M336.675,284.358c.084-.093.166-.192.244-.3l.691-.913c.026-.035.057-.053.066-.04s0,.038-.021.066l-.675,1a4.614,4.614,0,0,1-.529.647l-.514.521-.063-.088Z" fill="#6b6164"/>
              <path id="Path_198" data-name="Path 198" d="M334.274,287.24c.006.027.01.055.018.081l.6-.791c.066-.087.134-.172.2-.252l.039-.045.067-.076.32-.356.12-.134.043-.05.071-.079.041-.046.027-.03.019-.022.015-.015.011-.013.009-.011.008-.009.008-.008.006-.007.007-.008,0-.006.013-.013h0l.009-.01-.03-.041h0l-.031-.043-.008.008-.006.006-.006.006-.006.006-.008.008-.008.009-.01.009-.012.013-.063.063-.042.043-.074.076-.043.044-.124.125-.1.1c-.075.076-.15.158-.223.244-.036.043-.072.087-.107.131-.068.087-.136.178-.2.272Z" fill="#6b6164"/>
            </g>
            <g id="Group_80" data-name="Group 80">
              <path id="Path_199" data-name="Path 199" d="M335.866,285.265l.039.031h0l.04.031,0-.006,0-.006.006-.006.006-.007.006-.008.008-.008.007-.011.008-.01.012-.014.014-.018.018-.023.026-.032.039-.048.067-.087L336.2,285l.12-.15.094-.12c.068-.085.133-.176.2-.268.034-.048.066-.1.1-.149.061-.1.12-.2.174-.3l.551-1.02-.057-.011-.577.948c-.057.094-.117.185-.18.274l-.037.053-.066.092-.286.395-.112.156-.034.045-.065.091-.037.051-.024.034-.017.025-.013.018-.011.015-.008.013-.008.01-.006.008-.006.008-.006.008,0,.007-.006.008,0,.006,0,0Z" fill="#554d4e"/>
              <path id="Path_200" data-name="Path 200" d="M334.379,287.581c.008.02.017.041.027.06l.6-.985c.055-.092.115-.183.178-.271.012-.019.024-.036.038-.055l.061-.085.289-.4h0l.108-.15.037-.052v0l.065-.088.037-.052.024-.034.017-.025.013-.018.011-.014.008-.013.007-.01.007-.008.006-.009.006-.007h0l0-.006.006-.008,0-.008h0l.006-.009h0l-.04-.031h0l-.039-.031,0,0,0,0v0l0,0-.006.006-.011.015-.007.008-.008.01-.009.011-.011.013-.014.018-.019.023-.024.031-.04.049-.068.087-.041.05-.115.145-.094.118c-.07.088-.138.18-.2.276-.032.046-.062.093-.093.141-.061.1-.119.2-.173.3Z" fill="#554d4e"/>
            </g>
            <g id="Group_81" data-name="Group 81">
              <path id="Path_201" data-name="Path 201" d="M335.857,285.277h0l.047.019h0l.048.019,0-.007,0-.006.01-.015.006-.008.006-.009.006-.011.008-.013.009-.015.013-.019.017-.025.022-.036.035-.054.059-.094.032-.048.1-.162.085-.133c.06-.094.117-.19.172-.29.029-.054.057-.108.084-.162.05-.1.1-.2.139-.305l.386-.929-.072,0-.414.871c-.048.1-.1.2-.152.29a.619.619,0,0,1-.03.057l-.058.1-.245.423-.1.17-.029.05-.055.1-.033.055-.02.037-.016.026-.011.02-.009.016-.008.013-.006.011-.006.01,0,.01-.006.008,0,.008,0,.008-.006.01,0,0v0Z" fill="#6b6164"/>
              <path id="Path_202" data-name="Path 202" d="M335.329,286.4c-.066.113-.126.23-.183.347l-.5,1.04c-.019.04-.048.069-.061.064s-.01-.029,0-.061l.455-1.1a4.942,4.942,0,0,1,.4-.757l.417-.654.1.037Z" fill="#6b6164"/>
            </g>
            <g id="Group_82" data-name="Group 82">
              <path id="Path_203" data-name="Path 203" d="M335.852,285.291l.053,0h0l.054,0,0-.006,0-.007,0-.007,0-.008,0-.009,0-.01.007-.012.006-.013.008-.017.01-.02.013-.027.019-.037.029-.057.05-.1.026-.05.087-.174.071-.139c.05-.1.1-.2.14-.3.023-.055.045-.109.064-.165.041-.1.076-.207.1-.309l.239-.814c-.027.007-.055.013-.082.022l-.274.77c-.035.1-.074.2-.117.3-.008.02-.017.039-.027.059l-.045.1h0l-.2.444-.079.175-.023.052-.045.1-.026.058-.017.038-.012.027-.01.02-.007.017-.006.013-.006.012,0,.011,0,.009,0,.008,0,.008-.006.011,0,0Z" fill="#554d4e"/>
              <path id="Path_204" data-name="Path 204" d="M335.453,286.427c-.053.118-.1.237-.144.357l-.375,1.058c-.015.041-.041.074-.057.073s-.015-.024-.006-.056l.322-1.1a4.71,4.71,0,0,1,.31-.778l.349-.691.108.009Z" fill="#554d4e"/>
            </g>
            <g id="Group_83" data-name="Group 83">
              <path id="Path_205" data-name="Path 205" d="M335.848,285.3h0l.055-.008h0l.059-.009v-.006l0-.008,0-.007,0-.008,0-.008,0-.01,0-.012.006-.014L336,285.2l.007-.02.011-.027.014-.038.022-.059.039-.1.02-.052.068-.179.054-.141c.038-.1.073-.2.1-.307.017-.055.031-.109.045-.164.026-.1.047-.2.064-.3l.116-.689-.091.041-.153.656c-.022.1-.049.2-.08.3-.006.02-.013.039-.019.059l-.034.1-.147.45-.057.175-.017.054-.034.1-.02.059-.013.038-.008.027-.007.021-.006.016,0,.014,0,.012,0,.01,0,.01,0,.008,0,.008,0,.006,0,.01Z" fill="#6b6164"/>
              <path id="Path_206" data-name="Path 206" d="M335.591,286.424c-.038.119-.072.239-.1.356l-.242,1.043c-.009.04-.032.076-.05.079s-.02-.018-.015-.048l.18-1.066a4.142,4.142,0,0,1,.215-.775l.269-.708.117-.018Z" fill="#6b6164"/>
            </g>
            <g id="Group_84" data-name="Group 84">
              <path id="Path_207" data-name="Path 207" d="M335.845,285.319l.058-.022h0l.061-.022v-.006l0-.008,0-.015,0-.009,0-.011,0-.012,0-.013,0-.015.006-.022.006-.027.01-.037.015-.058.026-.1.014-.052.045-.175.036-.141c.026-.1.048-.2.066-.3.009-.053.017-.106.024-.158.012-.1.02-.2.023-.289l.017-.565c-.032.02-.065.039-.1.061l-.057.544c-.01.092-.024.188-.043.284,0,.02-.008.04-.011.06l-.02.1-.09.439-.036.173-.01.052-.02.1-.013.058-.007.037-.006.027,0,.021,0,.015,0,.014,0,.011,0,.01v.009l0,.008v.006l0,.009v.008h0Z" fill="#554d4e"/>
              <path id="Path_208" data-name="Path 208" d="M335.739,286.387c-.024.116-.042.232-.054.345l-.1,1c0,.039-.022.077-.041.084s-.024-.011-.023-.04l.031-1a3.445,3.445,0,0,1,.113-.75l.182-.7.123-.046Z" fill="#554d4e"/>
            </g>
            <g id="Group_85" data-name="Group 85">
              <path id="Path_209" data-name="Path 209" d="M335.843,285.333l.059-.036h0l.061-.036v-.045l0-.011v-.013l0-.016,0-.02,0-.026,0-.036.008-.057.013-.1.006-.051.022-.167.017-.136q.02-.147.025-.29c0-.05,0-.1,0-.149a2.26,2.26,0,0,0-.019-.262l-.059-.447c-.034.025-.067.051-.1.077l.02.44c0,.087,0,.178,0,.271l0,.053-.006.094-.031.418-.011.161,0,.052-.008.1,0,.054,0,.035,0,.026v.121Z" fill="#6b6164"/>
              <path id="Path_210" data-name="Path 210" d="M335.892,286.317a2.774,2.774,0,0,0,0,.323l.041.92a.1.1,0,0,1-.032.085c-.015.009-.027,0-.031-.029l-.117-.907a2.746,2.746,0,0,1,.007-.7l.089-.676.124-.072Z" fill="#6b6164"/>
            </g>
            <g id="Group_86" data-name="Group 86">
              <path id="Path_211" data-name="Path 211" d="M335.645,283.74l.078.346a2.023,2.023,0,0,1,.038.243c0,.016,0,.032,0,.048l.006.085.031.384.013.148,0,.048.006.087,0,.049,0,.033v.023l0,.018v.092l.058-.047h0l.059-.046v-.628a2.182,2.182,0,0,0-.017-.266c-.006-.043-.012-.087-.02-.129a1.637,1.637,0,0,0-.06-.236l-.115-.342C335.713,283.676,335.678,283.708,335.645,283.74Z" fill="#554d4e"/>
              <path id="Path_212" data-name="Path 212" d="M336.045,286.215a2.2,2.2,0,0,0,.043.291l.183.816a.1.1,0,0,1-.022.085c-.015.011-.03,0-.038-.019l-.263-.785a2.083,2.083,0,0,1-.1-.631l-.006-.629.123-.1Z" fill="#554d4e"/>
            </g>
            <g id="Group_87" data-name="Group 87">
              <path id="Path_213" data-name="Path 213" d="M335.4,283.99l.124.267a1.412,1.412,0,0,1,.078.209.4.4,0,0,1,.012.041l.021.074.091.337.035.129.011.043.022.076.01.043.008.029.006.022,0,.015,0,.013,0,.011,0,.008v.008l0,.007,0,.007v.006l0,.006,0,.006h0l0,.009h0l.055-.056,0,0h0l0,0,.057-.055h0v-.047l0-.01,0-.014,0-.015,0-.022-.006-.03-.008-.046-.015-.082-.008-.043-.025-.139-.02-.113a1.651,1.651,0,0,0-.059-.235,1.151,1.151,0,0,0-.041-.111,1.287,1.287,0,0,0-.1-.2l-.158-.251C335.47,283.917,335.437,283.953,335.4,283.99Z" fill="#6b6164"/>
              <path id="Path_214" data-name="Path 214" d="M336.194,286.086a1.6,1.6,0,0,0,.091.25l.319.687a.078.078,0,0,1-.01.081.026.026,0,0,1-.043-.008l-.4-.638a1.542,1.542,0,0,1-.2-.542l-.1-.563.117-.116Z" fill="#6b6164"/>
            </g>
            <g id="Group_88" data-name="Group 88">
              <path id="Path_215" data-name="Path 215" d="M335.18,284.263l.162.2a1.134,1.134,0,0,1,.115.165l.02.036.033.062.149.281.057.106.019.036.034.063.018.036.013.024.009.017.006.013.006.01,0,.01,0,.006,0,.008,0,0,0,0,0,.006,0,0,0,0h0l0,.008.051-.064,0,0h0l.052-.064h0l0,0v0l0-.006,0,0V285.2l0-.008,0-.008,0-.009,0-.011-.007-.015-.007-.017-.01-.026-.015-.041-.028-.069-.016-.038-.048-.118-.038-.1a1.285,1.285,0,0,0-.1-.2c-.02-.031-.038-.059-.06-.087a1.015,1.015,0,0,0-.136-.151l-.193-.173C335.242,284.181,335.211,284.221,335.18,284.263Z" fill="#554d4e"/>
              <path id="Path_216" data-name="Path 216" d="M336.334,285.933a1.214,1.214,0,0,0,.135.2l.446.536a.064.064,0,0,1,0,.076.031.031,0,0,1-.048,0l-.526-.472a1.181,1.181,0,0,1-.3-.436l-.194-.479.108-.134Z" fill="#554d4e"/>
            </g>
            <g id="Group_89" data-name="Group 89">
              <path id="Path_217" data-name="Path 217" d="M334.975,284.552l.2.132a.986.986,0,0,1,.149.121l.027.027.044.047.2.214.077.082.026.027.046.05.026.027.018.018.012.013.009.01.008.008.006.006.006.006,0,0,0,0,0,0,0,0,0,0,0,0h0l.006.006.045-.071,0,0h0l.045-.07h0v0l0,0,0,0,0,0,0,0,0-.006,0-.006-.006-.008-.007-.009-.008-.011-.011-.015-.015-.02-.023-.031-.04-.055-.023-.03-.068-.094-.056-.076a.977.977,0,0,0-.136-.153.9.9,0,0,0-.08-.066.953.953,0,0,0-.168-.1l-.225-.1C335.034,284.463,335,284.507,334.975,284.552Z" fill="#6b6164"/>
              <path id="Path_218" data-name="Path 218" d="M336.461,285.761a1.031,1.031,0,0,0,.175.148l.559.37a.05.05,0,0,1,.013.067.039.039,0,0,1-.05.015l-.635-.293a1.006,1.006,0,0,1-.384-.318l-.28-.381.1-.147Z" fill="#6b6164"/>
            </g>
            <g id="Group_90" data-name="Group 90">
              <path id="Path_219" data-name="Path 219" d="M334.79,284.859l.24.071a.868.868,0,0,1,.175.071l.034.018.054.031.249.141.094.054.033.018.057.031.032.019.022.012.015.008.011.006.009.006.008,0,.006,0,.006,0,0,0,0,0,0,0,0,0,0,0,.008,0,.039-.078h0l.038-.074,0,0h0l0,0,0,0,0,0-.006,0-.006,0-.008-.006-.008-.007-.01-.008-.014-.01-.02-.015-.03-.022-.052-.039-.029-.022-.087-.066-.072-.055a.907.907,0,0,0-.17-.1.738.738,0,0,0-.094-.039,1.034,1.034,0,0,0-.2-.048l-.257-.037C334.842,284.766,334.816,284.813,334.79,284.859Z" fill="#554d4e"/>
              <path id="Path_220" data-name="Path 220" d="M336.572,285.574a.977.977,0,0,0,.21.089l.656.192a.04.04,0,0,1,.024.057.051.051,0,0,1-.052.027l-.725-.1a.989.989,0,0,1-.46-.189l-.359-.272.08-.155Z" fill="#554d4e"/>
            </g>
            <g id="Group_91" data-name="Group 91">
              <path id="Path_221" data-name="Path 221" d="M334.626,285.182l.285,0a1.191,1.191,0,0,1,.2.02l.036.008.062.014.289.064.109.025.038.008.065.015.037.008.024.006.017,0,.013,0,.011,0h.01l.007,0h.007l.006,0h.01l0,0h.014l.031-.079h0l.029-.076h0l0,0h0l0,0h0l-.011,0-.008,0-.008,0-.01,0-.013,0-.017-.006-.022-.008-.035-.012-.062-.023-.035-.012-.1-.038-.084-.031a1.048,1.048,0,0,0-.2-.049.774.774,0,0,0-.108-.012,1.238,1.238,0,0,0-.215.006l-.3.032C334.67,285.086,334.647,285.134,334.626,285.182Z" fill="#6b6164"/>
              <path id="Path_222" data-name="Path 222" d="M336.661,285.38a1.2,1.2,0,0,0,.239.027l.732.008a.033.033,0,0,1,.034.045.063.063,0,0,1-.052.036l-.793.088a1.151,1.151,0,0,1-.521-.055l-.426-.155.063-.16Z" fill="#6b6164"/>
            </g>
            <g id="Group_92" data-name="Group 92">
              <path id="Path_223" data-name="Path 223" d="M334.484,285.521l.339-.075a1.62,1.62,0,0,1,.216-.033l.044,0,.068,0,.321-.014.12,0,.043,0,.071,0,.041,0h.138l.021-.078h0l.021-.078h-.094l-.027,0-.038,0-.071,0-.039,0-.117-.007-.094-.007a1.38,1.38,0,0,0-.22.006.932.932,0,0,0-.114.016,1.772,1.772,0,0,0-.234.06l-.34.113C334.52,285.426,334.5,285.473,334.484,285.521Z" fill="#554d4e"/>
              <path id="Path_224" data-name="Path 224" d="M336.728,285.182a1.578,1.578,0,0,0,.26-.036l.786-.175c.03-.006.05.008.043.032a.074.074,0,0,1-.05.046l-.837.278a1.507,1.507,0,0,1-.567.081l-.479-.032.043-.16Z" fill="#554d4e"/>
            </g>
            <g id="Group_93" data-name="Group 93">
              <path id="Path_225" data-name="Path 225" d="M334.369,285.874l.4-.173a1.806,1.806,0,0,1,.233-.085l.04-.011.072-.02.345-.094.124-.034.048-.013.075-.02.045-.012.028-.008.021-.006.015,0,.013,0,.01,0h.008l.008,0,.006,0h.006l.006,0h.013l.01,0,.011-.076h0l.011-.076h-.054l-.012,0-.016,0-.02,0-.029,0-.043.008-.075.013-.043.008-.126.021-.1.019a1.778,1.778,0,0,0-.237.06c-.04.013-.08.028-.122.043a2.506,2.506,0,0,0-.238.112l-.391.21C334.395,285.781,334.381,285.827,334.369,285.874Z" fill="#6b6164"/>
              <path id="Path_226" data-name="Path 226" d="M336.771,284.988a1.962,1.962,0,0,0,.273-.1l.816-.353c.031-.013.055,0,.052.018a.088.088,0,0,1-.047.053l-.855.458a2.031,2.031,0,0,1-.6.215l-.519.091.022-.154Z" fill="#6b6164"/>
            </g>
            <path id="Path_227" data-name="Path 227" d="M335.409,286.311a.518.518,0,0,1-.31-.548,1.772,1.772,0,0,1,.8-1.387c.289-.167.542-.137.683.045h0l.006.009a.406.406,0,0,1,.043.067,1.5,1.5,0,0,1,.189.957,1.735,1.735,0,0,0-.26.468,2.062,2.062,0,0,1-.933.4.505.505,0,0,1-.159,0h-.008l-.008,0h0A.18.18,0,0,1,335.409,286.311Z" fill="#ebe7e3"/>
            <path id="Path_228" data-name="Path 228" d="M336.184,285.779c0,.2.143.286.321.183a.707.707,0,0,0,.321-.554c0-.2-.143-.286-.321-.183A.707.707,0,0,0,336.184,285.779Z" fill="#ebe7e3"/>
          </g>
          <path id="Path_229" data-name="Path 229" d="M335.929,285.165c.075.216.259.349.412.3a.37.37,0,0,0,.14-.487c-.075-.216-.259-.349-.412-.3S335.855,284.948,335.929,285.165Z" fill="#fcfbfa"/>
        </g>
        <path id="Path_230" data-name="Path 230" d="M356.367,271.932l4.117-4.148,12.081-28.721-.983-1.167-1.915-1.649L346.024,259.28l-7.46,2.955Z" fill="#ded8d1"/>
        <path id="Path_231" data-name="Path 231" d="M371.586,237.894l-12.132,28.988-4.116,4.15-16.773-9.7,1.258-.686.1-.056,9.428-5.172.1-.056.07-.07,3.424-3.394.14-.14,8.3-8.216.133-.126,7.226-7.167Z" fill="#fcfbfa"/>
        <g id="Group_96" data-name="Group 96">
          <path id="Path_232" data-name="Path 232" d="M351.99,256.245l-8.261,5.676-.042-.007-3.893-1.183.028-.084.021-.084.084.028,3.774,1.148,7.925-5.445-2.271-.875.1-.056.07-.07Z" fill="#f3f1ee"/>
        </g>
        <g id="Group_97" data-name="Group 97">
          <path id="Path_233" data-name="Path 233" d="M363.185,244.326l-.07.084-7.645,8.251-2.523-.763.14-.14,2.327.714,7.5-8.1-1.531-.833.133-.126Z" fill="#f3f1ee"/>
        </g>
        <path id="Path_234" data-name="Path 234" d="M370.254,237.278l-15.1,26.768-7.725,5.673,7.906,1.314,4.117-4.148L371.582,237.9Z" fill="#f3f1ee"/>
        <path id="Path_235" data-name="Path 235" d="M282.224,234.043v0a2.92,2.92,0,0,0,.039.309c.313,1.757,12.74,15.323,15.765,17.582,3.322,2.484,22.207,13.53,27.285,16.629,0,0,.006,0,.01.006q1.343.818,2.722,1.645l.01.006c14.557,8.723,31.358,17.643,31.358,17.643a36.454,36.454,0,0,0,9.421,3.855c5.837,1.426,12.3,1.34,13.461.191a3.777,3.777,0,0,0-.356-1.948v0a18.5,18.5,0,0,0-2.972-4.384.2.2,0,0,1-.025-.029c-.23-.267-.458-.527-.682-.776l-.029-.031c-.348-.388-.686-.753-1-1.083-.28-.3-.539-.57-.762-.807-1.888-1.992-7.546-6.716-7.546-6.716l-31.532-17.9-44.131-25.009a2.511,2.511,0,0,0-.586-.211c-.214-.058-.431-.106-.607-.166a5.918,5.918,0,0,0-1.435-.309l-6.578-1a1.939,1.939,0,0,0-1.695,1.421,2.546,2.546,0,0,0-.139.661A2.849,2.849,0,0,0,282.224,234.043Z" fill="#ebe7e3"/>
        <path id="Path_236" data-name="Path 236" d="M282.363,232.958c2.146,1.9,11.4,11.333,14.982,13.93,4.005,2.905,64.485,37.545,64.485,37.545s10.737,7.121,19.769,6.266c.568-.054-.828-3.212-4.363-7.042-.28-.3-.539-.57-.762-.807-.081-.087-.17-.178-.266-.272-.785-.8-2.005-1.9-3.221-2.965-2.033-1.786-4.059-3.479-4.059-3.479l-75.663-42.907a2.511,2.511,0,0,0-.586-.211c-.214-.058-.431-.106-.607-.166a5.918,5.918,0,0,0-1.435-.309l-6.578-1A1.939,1.939,0,0,0,282.363,232.958Z" fill="#f3f1ee"/>
        <path id="Path_237" data-name="Path 237" d="M382.3,291.914c-1.167,1.148-7.625,1.232-13.467-.2a36.287,36.287,0,0,1-9.421-3.856s-5.3-2.869-12.866-7.055c-.629-.35-1.279-.714-1.943-1.085-.091-.049-.189-.105-.287-.161-5.172-2.869-11.175-6.243-17.178-9.686-11.769-6.747-23.545-13.787-29.108-17.937a73.311,73.311,0,0,1-6.374-6.236c-.769-.819-1.551-1.666-2.32-2.512-.182-.2-.356-.4-.538-.595-.2-.231-.412-.462-.615-.693l-1.111-1.26c-.475-.539-.93-1.064-1.349-1.561-.154-.182-.3-.357-.447-.525-.182-.224-.356-.434-.531-.644-.426-.525-.818-1.015-1.146-1.449-.063-.084-.126-.161-.182-.238a8.8,8.8,0,0,1-1.111-1.743.708.708,0,0,1-.042-.133,2.332,2.332,0,0,1-.042-.308q-.01-.22,0-.42c1.461,1.939,12.461,12.541,15.123,14.893,1.922,1.7,31.868,19.379,50.891,30.493,7.324,4.283,13.027,7.586,14.9,8.636,6.737,3.765,18.967,5.081,19.1,3.758s-2.257-4.57-3.187-5.725a18.212,18.212,0,0,1,2.893,4.283.054.054,0,0,0,.007.021.042.042,0,0,1,.007.028l.021.042a3.928,3.928,0,0,1,.14.4.618.618,0,0,1,.035.1,2.756,2.756,0,0,1,.1.448.388.388,0,0,1,.021.119A2.523,2.523,0,0,1,382.3,291.914Z" fill="#ded8d1"/>
        <path id="Path_238" data-name="Path 238" d="M282.443,232.755a46.4,46.4,0,0,0,5.456,4.775c1.63.943,10.1,5.623,10.1,5.623s57.033,33.761,62.626,36.465,11.085,3.182,13.26,2.822-4.954-6.306-4.954-6.306l-75.905-42.87-2-.554s-6.728-1.107-7.187-1.053A2.189,2.189,0,0,0,282.443,232.755Z" fill="#fcfbfa"/>
        <path id="Path_239" data-name="Path 239" d="M293.661,234l9.168,5.3c.848-.376.881,0,.881,0l.553-.757-1.087-12.819-2.6-2.058Z" fill="#de4037"/>
        <path id="Path_240" data-name="Path 240" d="M303.88,237.859l-1.048,1.442-9.386-5.424,5.493-8.209.1-.147,1.544-2.3,2.593,2.058Z" fill="#ff8e8c"/>
        <g id="Group_98" data-name="Group 98" style="mix-blend-mode: multiply;isolation: isolate">
          <path id="Path_241" data-name="Path 241" d="M300.393,226.76l-.035.056-3.271,6.383-2.069-1.218.084-.147,1.915,1.127,3.166-6.159-1.244-1.134.1-.147Z" fill="#ffa7c4"/>
        </g>
        <path id="Path_242" data-name="Path 242" d="M302.83,239.3l1.053-1.443-.709-12.586-2.6-2.057-.716,1.07,1.777,2.363-.349,8.836-1.82,1.876Z" fill="#ffa4a6"/>
        <path id="Path_243" data-name="Path 243" d="M382.3,291.914c-1.167,1.148-7.625,1.232-13.467-.2a36.287,36.287,0,0,1-9.421-3.856s-5.3-2.869-12.866-7.055c-.629-.35-1.279-.714-1.943-1.085-.091-.049-.189-.105-.287-.161-5.172-2.869-11.175-6.243-17.178-9.686-11.769-6.747-23.545-13.787-29.108-17.937a73.311,73.311,0,0,1-6.374-6.236c-.769-.819-1.551-1.666-2.32-2.512-.182-.2-.356-.4-.538-.595-.2-.231-.412-.462-.615-.693l-1.111-1.26c-.475-.539-.93-1.064-1.349-1.561-.154-.182-.3-.357-.447-.525-.182-.224-.356-.434-.531-.644-.426-.525-.818-1.015-1.146-1.449-.063-.084-.126-.161-.182-.238a8.8,8.8,0,0,1-1.111-1.743.708.708,0,0,1-.042-.133,2.332,2.332,0,0,1-.042-.308c1.188,2.233,12.943,14.123,15.256,15.992,1.726,1.4,31.253,19.085,50.178,30.01,6.388,3.681,11.566,6.593,14.068,7.845,9.917,4.983,20.379,4.241,20.54,3.7a1.244,1.244,0,0,0,.014-.462A2.523,2.523,0,0,1,382.3,291.914Z" fill="#cdc6bc"/>
        <path id="Path_244" data-name="Path 244" d="M355.931,268.756c-.2-.07-2.53-1.246-2.6-1.246,0,0-3.334-2.142-5.8.35-1.964,1.995-.035,5.207.727,8.8a4.585,4.585,0,0,1-.021,2.352,2.788,2.788,0,0,1-1.691,1.8l-.049.014s-.727-.42-1.894-1.1c-.091-.049-.189-.105-.287-.161-.874-.511-1.964-1.134-3.159-1.827-5.13-2.96-12.216-7.048-13.1-7.509a.007.007,0,0,0-.007-.007,4.847,4.847,0,0,0-.909-.343c-11.769-6.747-23.545-13.787-29.108-17.937a73.311,73.311,0,0,1-6.374-6.236c-.769-.819-1.551-1.666-2.32-2.512-.182-.2-.356-.4-.538-.595-.2-.231-.412-.462-.615-.693l-1.111-1.26c-.475-.539-.93-1.064-1.349-1.561-.154-.182-.3-.357-.447-.525-.182-.224-.356-.434-.531-.644-.426-.525-.818-1.015-1.146-1.449-.063-.084-.126-.161-.182-.238a8.8,8.8,0,0,1-1.111-1.743.708.708,0,0,1-.042-.133,2.332,2.332,0,0,1-.042-.308q-.01-.22,0-.42a2.73,2.73,0,0,1,.14-.665,1.94,1.94,0,0,1,1.7-1.421l6.506.994.07.007a5.892,5.892,0,0,1,1.433.315c.182.056.4.1.608.161a2.229,2.229,0,0,1,.587.217Z" fill="#fecb4c" style="mix-blend-mode: multiply;isolation: isolate"/>
        <path id="Path_245" data-name="Path 245" d="M345.588,278.176a5.732,5.732,0,0,1-1.272,1.386c-.874-.511-1.964-1.134-3.159-1.827-.021-.112-.035-.182-.035-.182Z" fill="#d9b5a5" style="mix-blend-mode: multiply;isolation: isolate"/>
        <path id="Path_246" data-name="Path 246" d="M296.2,243.617a6.768,6.768,0,0,1-2.285,1.575c-.454.126-1.363.329-2.257.511-1.544-1.645-3.145-3.415-4.585-5.06l1.859-.119Z" fill="#d9b5a5" style="mix-blend-mode: multiply;isolation: isolate"/>
        <path id="Path_247" data-name="Path 247" d="M345.586,278.177l-7.175,2.38-52.792,8.207-4.1-2.326,35.54-11.445,10.721-6.514,16.772,8.8Z" fill="#ded8d1"/>
        <g id="Group_100" data-name="Group 100">
          <path id="Path_248" data-name="Path 248" d="M296.583,243.05c-.08.106-.383.568-.383.568l-1.262.308-22.461-.463-3.644-1.452c-.311-.207,0-.449,0-.449l16.308-5.178,11.912,6.25A2.975,2.975,0,0,0,296.583,243.05Z" fill="#de4037"/>
          <path id="Path_249" data-name="Path 249" d="M297.052,242.639l-2.495.609-5.22-.056-16.857-.175-3.648-1.449,4.361-1.5.231-.084,3.068-1.057,7.017-2.422.182-.07,1.454-.5,2.879,1.617Z" fill="#ff8e8c"/>
          <path id="Path_250" data-name="Path 250" d="M292.77,240.226l-2.02.8-17.5.787-2.838-.794-1.576.544,3.644,1.451,22.081.23,2.5-.609Z" fill="#ffa4a6"/>
          <g id="Group_99" data-name="Group 99" style="mix-blend-mode: multiply;isolation: isolate">
            <path id="Path_251" data-name="Path 251" d="M285.514,237.929l-10.35,3.009-.028-.014-1.943-.861.231-.084,1.754.777,9.98-2.9-1.649-1.351.182-.07Z" fill="#ffa7c4"/>
          </g>
        </g>
        <path id="Path_252" data-name="Path 252" d="M303.16,240.839a58.7,58.7,0,0,0-6.541-1.946c-1.223-.084-4.151-.476-4.151-.476l-4.445-.868-.126-.021-3.152.385-8.254,1.008,7.107-2.456a7.929,7.929,0,0,1-1.335-2.114,2.332,2.332,0,0,1-.042-.308q-.01-.22,0-.42a2.73,2.73,0,0,1,.14-.665,1.94,1.94,0,0,1,1.7-1.421l6.506.994.454.182Z" fill="#ffd69d" style="mix-blend-mode: multiply;isolation: isolate"/>
        <path id="Path_253" data-name="Path 253" d="M284.654,209.529l4.625,3.065c1.918,1.376,3.7,5.385,3.7,5.385l6.035,16.806,4.455,5.887-.294.173-14.188-8.109-4.082-.788,1.425-3.233-1.425-7.824-.544-11.191Z" fill="#ffdd8a"/>
        <path id="Path_254" data-name="Path 254" d="M303.174,240.848l-7.981-3.541-7.667-4.619-2.914-.56,1.425-3.233-.943-5.186-.042-.217-.44-2.421-.175-7.74v-.2l-.078-3.422,4.627,3.065c1.915,1.372,3.7,5.382,3.7,5.382l6.038,16.811Z" fill="#f5a938"/>
        <path id="Path_255" data-name="Path 255" d="M303.174,240.846l-7.981-3.541-1.279-3.709-4.242-15.2-.685-5.627c1.915,1.372,3.7,5.382,3.7,5.382l6.038,16.81Z" fill="#f5b53d"/>
        <path id="Path_256" data-name="Path 256" d="M344.554,277.275l-7.17,2.379-52.792,8.209-3.068-1.428,16.367-5.683.217-.077,13.341-4.64.2-.07,5.409-1.876.573-.35.168-.1,7.974-4.843.161-.1,1.845-1.12Z" fill="#fcfbfa"/>
        <path id="Path_257" data-name="Path 257" d="M339.195,274.178,332.82,277.3l-49.894,9.79,1.663.774,52.792-8.207,7.175-2.38Z" fill="#f3f1ee"/>
        <path id="Path_258" data-name="Path 258" d="M366.985,284.771l2.278.677a12.605,12.605,0,0,0,3.375.461c.139,0,.278,0,.419-.006l1.357-.046a3,3,0,0,0,1.813-.689l.34-.283a.894.894,0,0,0,.234-1.078l-.593-1.228c-.785-.8-1.287-1.352-2.5-2.421l-.074.069,1.483,1.929a.638.638,0,0,1-.043.83,1.977,1.977,0,0,1-1.345.61l-.094,0c-.18.008-.36.013-.54.013a12.386,12.386,0,0,1-2.319-.22l-3.1-.589Z" fill="#554d4e"/>
        <path id="Path_259" data-name="Path 259" d="M373.713,280.164l2.275,2.2.72,1.493a.793.793,0,0,1-.208.955l-.34.282a2.887,2.887,0,0,1-1.749.664l-1.358.045a12.5,12.5,0,0,1-3.762-.449l-2.17-.649.623-1.777,3.01.572a12.553,12.553,0,0,0,2.882.209l.093,0a2.084,2.084,0,0,0,1.415-.642h0a.743.743,0,0,0,.052-.965Z" fill="#573f3f"/>
        <g id="Group_101" data-name="Group 101">
          <path id="Path_260" data-name="Path 260" d="M340.465,269.179l-.674-.389a.289.289,0,0,0-.416.192l-.355.987a.444.444,0,0,0,.158.523l.674.39a.289.289,0,0,0,.416-.192l.355-.988A.444.444,0,0,0,340.465,269.179Z" fill="#5e7286"/>
          <path id="Path_261" data-name="Path 261" d="M343.8,271.11l-.673-.389a.289.289,0,0,0-.416.191l-.356.988a.444.444,0,0,0,.159.523l.673.389a.289.289,0,0,0,.416-.191l.356-.987A.444.444,0,0,0,343.8,271.11Z" fill="#5e7286"/>
          <path id="Path_262" data-name="Path 262" d="M347.141,273.04l-.674-.39a.289.289,0,0,0-.416.192l-.355.987a.444.444,0,0,0,.158.523l.673.389a.29.29,0,0,0,.417-.192l.355-.987A.445.445,0,0,0,347.141,273.04Z" fill="#5e7286"/>
        </g>
        <g id="Group_104" data-name="Group 104">
          <path id="Path_263" data-name="Path 263" d="M339.984,271.022a.417.417,0,0,0,.381-.3l.356-.987a.545.545,0,0,0-.2-.649l-.673-.389a.365.365,0,0,0-.185-.051.418.418,0,0,0-.381.3l-.356.987a.547.547,0,0,0,.2.649l.673.389A.364.364,0,0,0,339.984,271.022Z" fill="#9c958d"/>
          <path id="Path_264" data-name="Path 264" d="M340.465,269.179l-.674-.389a.289.289,0,0,0-.416.192l-.355.987a.444.444,0,0,0,.158.523l.674.39a.289.289,0,0,0,.416-.192l.355-.988A.444.444,0,0,0,340.465,269.179Z" fill="#573f3f"/>
          <path id="Path_265" data-name="Path 265" d="M343.323,272.952a.417.417,0,0,0,.381-.3l.356-.987a.545.545,0,0,0-.2-.648l-.673-.39a.364.364,0,0,0-.184-.05.417.417,0,0,0-.381.3l-.356.987a.546.546,0,0,0,.2.649l.673.389A.365.365,0,0,0,343.323,272.952Z" fill="#9c958d"/>
          <path id="Path_266" data-name="Path 266" d="M343.8,271.11l-.673-.389a.289.289,0,0,0-.416.191l-.356.988a.444.444,0,0,0,.159.523l.673.389a.289.289,0,0,0,.416-.191l.356-.987A.444.444,0,0,0,343.8,271.11Z" fill="#573f3f"/>
          <path id="Path_267" data-name="Path 267" d="M346.66,274.882a.418.418,0,0,0,.381-.3l.356-.987a.547.547,0,0,0-.2-.649l-.674-.389a.362.362,0,0,0-.185-.05.416.416,0,0,0-.38.3l-.356.987a.545.545,0,0,0,.2.649l.673.39A.364.364,0,0,0,346.66,274.882Z" fill="#9c958d"/>
          <path id="Path_268" data-name="Path 268" d="M347.141,273.04l-.674-.39a.289.289,0,0,0-.416.192l-.355.987a.444.444,0,0,0,.158.523l.673.389a.29.29,0,0,0,.417-.192l.355-.987A.445.445,0,0,0,347.141,273.04Z" fill="#573f3f"/>
          <path id="Path_269" data-name="Path 269" d="M350,276.813a.418.418,0,0,0,.381-.3l.355-.987a.545.545,0,0,0-.2-.649l-.673-.389a.365.365,0,0,0-.184-.051.418.418,0,0,0-.381.3l-.356.987a.547.547,0,0,0,.2.649l.674.389A.365.365,0,0,0,350,276.813Z" fill="#9c958d"/>
          <path id="Path_270" data-name="Path 270" d="M350.479,274.969l-.673-.389a.29.29,0,0,0-.417.192l-.355.987a.445.445,0,0,0,.159.524l.673.389a.289.289,0,0,0,.416-.192l.356-.987A.446.446,0,0,0,350.479,274.969Z" fill="#f3f1ee"/>
          <path id="Path_271" data-name="Path 271" d="M353.337,278.742a.417.417,0,0,0,.381-.3l.356-.987a.547.547,0,0,0-.2-.649l-.674-.389a.365.365,0,0,0-.185-.051.418.418,0,0,0-.381.3l-.355.987a.546.546,0,0,0,.2.649l.673.389A.364.364,0,0,0,353.337,278.742Z" fill="#9c958d"/>
          <path id="Path_272" data-name="Path 272" d="M353.817,276.9l-.673-.389a.289.289,0,0,0-.416.192l-.356.987a.446.446,0,0,0,.159.524l.673.389a.29.29,0,0,0,.417-.192l.355-.988A.444.444,0,0,0,353.817,276.9Z" fill="#f3f1ee"/>
          <path id="Path_273" data-name="Path 273" d="M363.737,283.715a.462.462,0,0,0,.41-.376l.312-1.122a.546.546,0,0,0-.231-.654l-.67-.291a.321.321,0,0,0-.13-.027.463.463,0,0,0-.41.377l-.312,1.122a.545.545,0,0,0,.231.654l.67.292A.324.324,0,0,0,363.737,283.715Z" fill="#9c958d"/>
          <path id="Path_274" data-name="Path 274" d="M364.187,281.658l-.67-.291c-.158-.069-.336.057-.4.282l-.312,1.122a.449.449,0,0,0,.173.531l.67.291c.158.069.337-.057.4-.282l.312-1.122A.448.448,0,0,0,364.187,281.658Z" fill="#f3f1ee"/>
          <g id="Group_102" data-name="Group 102">
            <path id="Path_275" data-name="Path 275" d="M357.526,285.524a.073.073,0,0,1-.037-.01l-1.733-.957a3.519,3.519,0,0,1-.254-2.021,15.743,15.743,0,0,1,.9-2.783,1.189,1.189,0,0,1,.474-.7.165.165,0,0,1,.143.008l1.514.831c.191.11.138.61-.007,1.025a16.486,16.486,0,0,0-.892,2.765,5.657,5.657,0,0,0-.016,1.032c.021.6.017.756-.052.8A.064.064,0,0,1,357.526,285.524Zm.013-.1h0Zm-.6-6.276a.077.077,0,0,0-.03.006,1.115,1.115,0,0,0-.414.639,15.6,15.6,0,0,0-.892,2.767,3.685,3.685,0,0,0,.2,1.908l1.7.94a4.907,4.907,0,0,0,0-.685,5.741,5.741,0,0,1,.019-1.058,16.456,16.456,0,0,1,.9-2.782c.167-.475.143-.843.051-.9l-1.512-.831A.055.055,0,0,0,356.938,279.146Z" fill="#9c958d"/>
          </g>
          <g id="Group_103" data-name="Group 103">
            <path id="Path_276" data-name="Path 276" d="M313.2,259.719a.077.077,0,0,1-.039-.012l-1.671-1.018a3.734,3.734,0,0,1-.206-2.068,16.673,16.673,0,0,1,.936-2.82,1.2,1.2,0,0,1,.482-.7.158.158,0,0,1,.139.013l1.461.883c.184.117.122.626-.029,1.045a17.234,17.234,0,0,0-.931,2.8,6.107,6.107,0,0,0-.039,1.055c.008.614,0,.774-.069.813A.069.069,0,0,1,313.2,259.719Zm.015-.1h0Zm-.454-6.428a.076.076,0,0,0-.026,0,1.165,1.165,0,0,0-.42.645,16.579,16.579,0,0,0-.931,2.806,3.942,3.942,0,0,0,.16,1.955l1.639,1a5.275,5.275,0,0,0,.015-.7,6.113,6.113,0,0,1,.041-1.079,17.471,17.471,0,0,1,.936-2.821c.174-.483.159-.86.07-.917l-1.46-.883A.047.047,0,0,0,312.757,253.19Z" fill="#fcfbfa" style="mix-blend-mode: soft-light;isolation: isolate"/>
          </g>
        </g>
        <g id="Group_105" data-name="Group 105" style="mix-blend-mode: multiply;isolation: isolate">
          <path id="Path_277" data-name="Path 277" d="M287.016,224.751l-1.922-1.043-.042-.217,1.705.924-.748-3,.014-7.061-1.586-1.029v-.2l1.754,1.141v.049l-.014,7.082Z" fill="#e7d08c"/>
        </g>
        <path id="Path_278" data-name="Path 278" d="M368.517,236.469l.528-2.671,3.521,5.264-.983-1.167Z" fill="#f5a938"/>
        <path id="Path_279" data-name="Path 279" d="M281.522,286.438l.528-2.671,3.569,5-1.031-.9Z" fill="#f5a938"/>
        <g id="Group_106" data-name="Group 106">
          <path id="Path_280" data-name="Path 280" d="M333.309,267.162a.416.416,0,0,0,.38-.3l.356-.987a.546.546,0,0,0-.2-.649l-.673-.389a.366.366,0,0,0-.185-.05.417.417,0,0,0-.381.3l-.356.987a.545.545,0,0,0,.2.649l.674.389A.358.358,0,0,0,333.309,267.162Z" fill="#9c958d"/>
          <path id="Path_281" data-name="Path 281" d="M333.789,265.32l-.673-.39a.29.29,0,0,0-.417.192l-.355.987a.444.444,0,0,0,.158.523l.674.389a.289.289,0,0,0,.416-.192l.355-.987A.444.444,0,0,0,333.789,265.32Z" fill="#e9e5e1"/>
        </g>
        <g id="Group_107" data-name="Group 107">
          <path id="Path_282" data-name="Path 282" d="M336.646,269.093a.418.418,0,0,0,.381-.3l.356-.987a.546.546,0,0,0-.2-.649l-.673-.389a.365.365,0,0,0-.185-.051.418.418,0,0,0-.381.3l-.355.987a.545.545,0,0,0,.2.649l.673.389A.365.365,0,0,0,336.646,269.093Z" fill="#9c958d"/>
          <path id="Path_283" data-name="Path 283" d="M337.127,267.249l-.673-.389a.289.289,0,0,0-.416.192l-.356.987a.445.445,0,0,0,.159.524l.673.389a.289.289,0,0,0,.416-.192l.356-.987A.445.445,0,0,0,337.127,267.249Z" fill="#573f3f"/>
        </g>
        <g id="Group_108" data-name="Group 108">
          <path id="Path_284" data-name="Path 284" d="M329.97,265.232a.417.417,0,0,0,.381-.3l.356-.987a.546.546,0,0,0-.2-.649l-.674-.389a.364.364,0,0,0-.185-.05.417.417,0,0,0-.381.3l-.355.987a.546.546,0,0,0,.2.649l.673.389A.364.364,0,0,0,329.97,265.232Z" fill="#9c958d"/>
          <path id="Path_285" data-name="Path 285" d="M330.45,263.389l-.673-.389a.289.289,0,0,0-.416.191l-.356.987a.445.445,0,0,0,.159.524l.673.389a.289.289,0,0,0,.417-.192l.355-.987A.444.444,0,0,0,330.45,263.389Z" fill="#e9e5e1"/>
        </g>
        <g id="Group_109" data-name="Group 109">
          <path id="Path_286" data-name="Path 286" d="M333.309,267.162a.416.416,0,0,0,.38-.3l.356-.987a.545.545,0,0,0-.2-.649l-.673-.389a.366.366,0,0,0-.185-.05.417.417,0,0,0-.381.3l-.356.987a.545.545,0,0,0,.2.649l.674.389A.358.358,0,0,0,333.309,267.162Z" fill="#9c958d"/>
          <path id="Path_287" data-name="Path 287" d="M333.789,265.32l-.673-.39a.29.29,0,0,0-.417.192l-.355.987a.443.443,0,0,0,.159.523l.673.389a.289.289,0,0,0,.416-.192l.355-.987A.444.444,0,0,0,333.789,265.32Z" fill="#573f3f"/>
        </g>
        <g id="Group_110" data-name="Group 110">
          <path id="Path_288" data-name="Path 288" d="M326.632,263.3a.417.417,0,0,0,.381-.3l.355-.987a.544.544,0,0,0-.2-.649l-.673-.39a.371.371,0,0,0-.185-.05.418.418,0,0,0-.381.3l-.356.987a.547.547,0,0,0,.2.649l.674.389A.364.364,0,0,0,326.632,263.3Z" fill="#9c958d"/>
          <path id="Path_289" data-name="Path 289" d="M327.113,261.459l-.673-.389a.289.289,0,0,0-.417.192l-.355.987a.444.444,0,0,0,.159.523l.673.39a.289.289,0,0,0,.416-.192l.356-.988A.445.445,0,0,0,327.113,261.459Z" fill="#e9e5e1"/>
        </g>
        <g id="Group_111" data-name="Group 111">
          <path id="Path_290" data-name="Path 290" d="M329.97,265.232a.417.417,0,0,0,.381-.3l.356-.987a.546.546,0,0,0-.2-.649l-.674-.389a.364.364,0,0,0-.185-.05.417.417,0,0,0-.381.3l-.355.987a.546.546,0,0,0,.2.649l.673.389A.364.364,0,0,0,329.97,265.232Z" fill="#9c958d"/>
          <path id="Path_291" data-name="Path 291" d="M330.45,263.389l-.673-.389a.289.289,0,0,0-.416.191l-.356.987a.445.445,0,0,0,.159.524l.673.389a.289.289,0,0,0,.417-.192l.355-.987A.444.444,0,0,0,330.45,263.389Z" fill="#573f3f"/>
        </g>
        <g id="Group_112" data-name="Group 112">
          <path id="Path_292" data-name="Path 292" d="M323.294,261.372a.418.418,0,0,0,.381-.3l.356-.987a.546.546,0,0,0-.2-.649l-.674-.389a.364.364,0,0,0-.184-.051.417.417,0,0,0-.381.3l-.356.987a.546.546,0,0,0,.2.649l.673.389A.365.365,0,0,0,323.294,261.372Z" fill="#9c958d"/>
          <path id="Path_293" data-name="Path 293" d="M323.775,259.529l-.674-.389a.289.289,0,0,0-.416.192l-.355.987a.445.445,0,0,0,.158.524l.673.389a.29.29,0,0,0,.417-.192l.355-.987A.446.446,0,0,0,323.775,259.529Z" fill="#e9e5e1"/>
        </g>
        <g id="Group_113" data-name="Group 113">
          <path id="Path_294" data-name="Path 294" d="M326.632,263.3a.417.417,0,0,0,.381-.3l.355-.987a.544.544,0,0,0-.2-.649l-.673-.39a.364.364,0,0,0-.185-.05.418.418,0,0,0-.381.3l-.356.987a.547.547,0,0,0,.2.649l.674.389A.364.364,0,0,0,326.632,263.3Z" fill="#9c958d"/>
          <path id="Path_295" data-name="Path 295" d="M327.113,261.459l-.673-.389a.289.289,0,0,0-.417.192l-.355.987a.444.444,0,0,0,.159.523l.673.39a.289.289,0,0,0,.416-.192l.356-.988A.445.445,0,0,0,327.113,261.459Z" fill="#573f3f"/>
        </g>
        <g id="Group_114" data-name="Group 114">
          <path id="Path_296" data-name="Path 296" d="M319.956,259.442a.418.418,0,0,0,.381-.3l.355-.987a.545.545,0,0,0-.2-.649l-.673-.389a.364.364,0,0,0-.184-.05.417.417,0,0,0-.381.3l-.355.987a.545.545,0,0,0,.2.649l.673.389A.365.365,0,0,0,319.956,259.442Z" fill="#9c958d"/>
          <path id="Path_297" data-name="Path 297" d="M320.436,257.6l-.673-.389a.289.289,0,0,0-.416.192l-.356.987a.445.445,0,0,0,.159.524l.673.389a.289.289,0,0,0,.416-.192l.356-.987A.445.445,0,0,0,320.436,257.6Z" fill="#e9e5e1"/>
        </g>
        <g id="Group_115" data-name="Group 115">
          <path id="Path_298" data-name="Path 298" d="M323.294,261.372a.418.418,0,0,0,.381-.3l.356-.987a.546.546,0,0,0-.2-.649l-.674-.389a.364.364,0,0,0-.184-.051.417.417,0,0,0-.381.3l-.356.987a.546.546,0,0,0,.2.649l.673.389A.365.365,0,0,0,323.294,261.372Z" fill="#9c958d"/>
          <path id="Path_299" data-name="Path 299" d="M323.775,259.529l-.674-.389a.289.289,0,0,0-.416.192l-.355.987a.445.445,0,0,0,.158.524l.673.389a.29.29,0,0,0,.417-.192l.355-.987A.446.446,0,0,0,323.775,259.529Z" fill="#573f3f"/>
        </g>
        <g id="Group_116" data-name="Group 116">
          <path id="Path_300" data-name="Path 300" d="M316.618,257.512a.418.418,0,0,0,.381-.3l.356-.987a.546.546,0,0,0-.2-.649l-.674-.389a.363.363,0,0,0-.184-.05.417.417,0,0,0-.381.3l-.356.987a.545.545,0,0,0,.2.649l.673.39A.366.366,0,0,0,316.618,257.512Z" fill="#9c958d"/>
          <path id="Path_301" data-name="Path 301" d="M317.1,255.669l-.674-.389a.289.289,0,0,0-.416.191l-.355.988a.444.444,0,0,0,.158.523l.674.389a.289.289,0,0,0,.416-.192l.355-.987A.444.444,0,0,0,317.1,255.669Z" fill="#573f3f"/>
        </g>
        <g id="Group_117" data-name="Group 117">
          <path id="Path_302" data-name="Path 302" d="M319.956,259.442a.418.418,0,0,0,.381-.3l.355-.987a.545.545,0,0,0-.2-.649l-.673-.389a.364.364,0,0,0-.184-.05.417.417,0,0,0-.381.3l-.355.987a.545.545,0,0,0,.2.649l.673.389A.365.365,0,0,0,319.956,259.442Z" fill="#9c958d"/>
          <path id="Path_303" data-name="Path 303" d="M320.436,257.6l-.673-.389a.289.289,0,0,0-.416.192l-.356.987a.445.445,0,0,0,.159.524l.673.389a.289.289,0,0,0,.416-.192l.356-.987A.445.445,0,0,0,320.436,257.6Z" fill="#573f3f"/>
        </g>
        <g id="Group_118" data-name="Group 118">
          <path id="Path_304" data-name="Path 304" d="M316.618,257.512a.418.418,0,0,0,.381-.3l.356-.987a.545.545,0,0,0-.2-.649l-.674-.389a.363.363,0,0,0-.184-.05.417.417,0,0,0-.381.3l-.356.987a.545.545,0,0,0,.2.649l.673.39A.366.366,0,0,0,316.618,257.512Z" fill="#9c958d"/>
          <path id="Path_305" data-name="Path 305" d="M317.1,255.669l-.674-.389a.289.289,0,0,0-.416.191l-.355.988a.444.444,0,0,0,.158.523l.674.389a.289.289,0,0,0,.416-.192l.355-.987A.444.444,0,0,0,317.1,255.669Z" fill="#573f3f"/>
        </g>
        <g id="Group_119" data-name="Group 119">
          <path id="Path_306" data-name="Path 306" d="M309.942,253.652a.416.416,0,0,0,.38-.3l.356-.987a.546.546,0,0,0-.2-.649l-.673-.389a.367.367,0,0,0-.185-.051.418.418,0,0,0-.381.3l-.356.987a.547.547,0,0,0,.2.649l.674.389A.364.364,0,0,0,309.942,253.652Z" fill="#9c958d"/>
          <path id="Path_307" data-name="Path 307" d="M310.422,251.809l-.673-.389a.29.29,0,0,0-.417.192l-.355.987a.444.444,0,0,0,.158.523l.674.39a.289.289,0,0,0,.416-.192l.355-.988A.444.444,0,0,0,310.422,251.809Z" fill="#573f3f"/>
        </g>
        <g id="Group_120" data-name="Group 120">
          <path id="Path_308" data-name="Path 308" d="M306.6,251.722a.418.418,0,0,0,.381-.3l.356-.987a.546.546,0,0,0-.2-.649l-.674-.389a.365.365,0,0,0-.185-.051.418.418,0,0,0-.381.3l-.355.987a.546.546,0,0,0,.2.649l.673.389A.365.365,0,0,0,306.6,251.722Z" fill="#9c958d"/>
          <path id="Path_309" data-name="Path 309" d="M307.084,249.879l-.673-.389a.289.289,0,0,0-.416.192l-.355.987a.445.445,0,0,0,.158.524l.673.389a.29.29,0,0,0,.417-.192l.355-.987A.445.445,0,0,0,307.084,249.879Z" fill="#573f3f"/>
        </g>
        <g id="Group_121" data-name="Group 121">
          <path id="Path_310" data-name="Path 310" d="M309.942,253.652a.416.416,0,0,0,.38-.3l.356-.987a.545.545,0,0,0-.2-.649l-.673-.389a.367.367,0,0,0-.185-.051.418.418,0,0,0-.381.3l-.356.987a.547.547,0,0,0,.2.649l.674.389A.364.364,0,0,0,309.942,253.652Z" fill="#9c958d"/>
          <path id="Path_311" data-name="Path 311" d="M310.422,251.809l-.673-.389a.29.29,0,0,0-.417.192l-.355.987a.444.444,0,0,0,.158.523l.674.39a.289.289,0,0,0,.416-.192l.355-.988A.444.444,0,0,0,310.422,251.809Z" fill="#573f3f"/>
        </g>
      </g>
      <path id="Path_312" data-name="Path 312" d="M285.129,232.627l13.833,9.214,63.287,36.392s5,2.333,5.51,2.683c.477.327,3.418,4.52,4.641,5.453a30.667,30.667,0,0,0,9.323,4.4c-.646-.785-6.856-4.965-6.856-4.965l-1.774-2.192a7.753,7.753,0,0,0-.547-1.069,13.95,13.95,0,0,0-3.889-3.536l-5.871-2.638-61.466-35.524-13.614-7.868-2.166-.563Z" fill="#fcfbfa" style="mix-blend-mode: soft-light;isolation: isolate"/>
      <g id="Group_123" data-name="Group 123">
        <path id="Path_313" data-name="Path 313" d="M328.354,270.242l-.112.07-7.618,5.144-2.991-1.715.168-.1,2.816,1.61,7.422-5-2.264-1.449.161-.1Z" fill="#f3f1ee"/>
      </g>
      <g id="Group_124" data-name="Group 124">
        <path id="Path_314" data-name="Path 314" d="M314.167,277.569l-.182.049-14.4,4.1-.028-.021-1.663-.945.217-.077,1.5.854,14.145-4.024-2.306-1.47.2-.07Z" fill="#f3f1ee"/>
      </g>
      <g id="Group_125" data-name="Group 125">
        <path id="Path_315" data-name="Path 315" d="M294.05,226.569c0,2.114-1.491,2.966-3.331,1.9a7.353,7.353,0,0,1-3.332-5.755c0-2.114,1.492-2.966,3.332-1.9A7.354,7.354,0,0,1,294.05,226.569Z" fill="#ebe7e3"/>
      </g>
      <g id="Group_126" data-name="Group 126">
        <path id="Path_316" data-name="Path 316" d="M292.661,223.759v1.11a.389.389,0,0,1-.725.2l-.966-1.668a.389.389,0,0,1,.53-.532l.966.558A.388.388,0,0,1,292.661,223.759Z" fill="#de4037"/>
        <path id="Path_317" data-name="Path 317" d="M288.776,225.527v-1.11a.388.388,0,0,1,.725-.195l.966,1.668a.389.389,0,0,1-.53.533l-.966-.558A.39.39,0,0,1,288.776,225.527Z" fill="#de4037"/>
        <path id="Path_318" data-name="Path 318" d="M292.078,227.661l-1.251-.724a.389.389,0,0,1,0-.675l1.252-.715a.389.389,0,0,1,.581.338v1.438A.388.388,0,0,1,292.078,227.661Z" fill="#f5b53d"/>
        <path id="Path_319" data-name="Path 319" d="M289.359,221.625l1.252.724a.389.389,0,0,1,0,.675l-1.251.715a.389.389,0,0,1-.581-.338v-1.437A.389.389,0,0,1,289.359,221.625Z" fill="#f5b53d"/>
      </g>
    </g>
  </g>
</svg>
