<svg xmlns="http://www.w3.org/2000/svg" width="94" height="88" viewBox="0 0 94 88">
  <g id="Group_207" data-name="Group 207" transform="translate(-108.238 -242.304)">
    <g id="Group_205" data-name="Group 205">
      <g id="Group_196" data-name="Group 196">
        <g id="Group_182" data-name="Group 182">
          <path id="Path_355" data-name="Path 355" d="M131.981,276.151l70.257,40.477L178.495,330.3l-70.257-40.477Z" fill="#f5f2e8"/>
          <path id="Path_356" data-name="Path 356" d="M121.96,293.079l3.184-2.451,11.3,7.924L163.6,317.061l3.536-2.12,9.424,5.969-4.363-12.082-50.1-24.816Z" fill="#0f0e1b"/>
          <path id="Path_357" data-name="Path 357" d="M178.052,320.744a10.676,10.676,0,0,0-4.86-8.361,3.45,3.45,0,0,0-3.428-.355h0l-.02.012-3.068,1.769v2.371l6.892,9.439,2.878-1.668a2.306,2.306,0,0,0,.386-.224h0A3.508,3.508,0,0,0,178.052,320.744Z" fill="#23222d"/>
          <path id="Path_358" data-name="Path 358" d="M136.063,296.56a10.676,10.676,0,0,0-4.86-8.361,3.341,3.341,0,0,0-3.584-.257l-3.038,1.754,2.057,3.347a11.4,11.4,0,0,0,3.292,5.354l1.81,2.944,2.669-1.553a2.336,2.336,0,0,0,.483-.281h0A3.547,3.547,0,0,0,136.063,296.56Z" fill="#23222d"/>
          <g id="Group_161" data-name="Group 161">
            <path id="Path_359" data-name="Path 359" d="M199.655,301.532v8.563l-3.665-2.111a13.337,13.337,0,0,0-5.755-7.41c-3.459-1.993-3.933.326-5.88,3.784a7.909,7.909,0,0,0-.381.966L154.836,288.54c.006-.372.009-.765.009-1.18,0-3.96-2.8-10.93-6.264-12.922s-6.265-.4-6.265,3.563q0,.628.022,1.2l-9.29-5.351V243.062l56.772,32.7,3.347,17.9Z" fill="#e4dfd9"/>
            <path id="Path_360" data-name="Path 360" d="M195.429,310.736c0,3.072-2.175,4.31-4.859,2.763a10.676,10.676,0,0,1-4.859-8.361c0-3.072,2.175-4.31,4.859-2.764A10.678,10.678,0,0,1,195.429,310.736Z" fill="#2d2c37"/>
            <path id="Path_361" data-name="Path 361" d="M153.44,286.551c0,3.072-2.175,4.31-4.859,2.764s-4.86-7.433-4.86-10.5,2.176-4.31,4.86-2.764S153.44,283.478,153.44,286.551Z" fill="#2d2c37"/>
            <path id="Path_362" data-name="Path 362" d="M151.957,285.7c0,2.135-1.511,2.995-3.376,1.92s-3.376-5.817-3.376-7.952,1.511-2.995,3.376-1.92S151.957,283.562,151.957,285.7Z" fill="#504f58"/>
            <path id="Path_363" data-name="Path 363" d="M151.64,285.514c0,1.934-1.37,2.713-3.059,1.74s-3.059-5.472-3.059-7.406,1.369-2.713,3.059-1.74S151.64,283.58,151.64,285.514Z" fill="#c2c7d6"/>
            <path id="Path_364" data-name="Path 364" d="M151.332,285.337c0,1.74-1.231,2.44-2.751,1.565s-2.752-5.138-2.752-6.878,1.232-2.44,2.752-1.565S151.332,283.6,151.332,285.337Z" fill="#a5acc2"/>
            <path id="Path_365" data-name="Path 365" d="M150.269,282.581c0,1.067-.756,3.64-1.688,3.1s-1.688-3.98-1.688-5.047.756-1.5,1.688-.961A3.711,3.711,0,0,1,150.269,282.581Z" fill="#cfd9e7"/>
            <path id="Path_366" data-name="Path 366" d="M193.945,309.882c0,2.135-1.511,2.994-3.376,1.92a7.42,7.42,0,0,1-3.376-5.81c0-2.135,1.512-2.994,3.376-1.92A7.419,7.419,0,0,1,193.945,309.882Z" fill="#504f58"/>
            <path id="Path_367" data-name="Path 367" d="M193.629,309.7c0,1.934-1.37,2.713-3.059,1.74a6.72,6.72,0,0,1-3.059-5.264c0-1.934,1.369-2.713,3.059-1.74A6.722,6.722,0,0,1,193.629,309.7Z" fill="#b5bbcd"/>
            <path id="Path_368" data-name="Path 368" d="M192.915,309.288c0,1.483-1.05,2.081-2.345,1.334a5.154,5.154,0,0,1-2.346-4.036c0-1.483,1.05-2.08,2.346-1.334A5.153,5.153,0,0,1,192.915,309.288Z" fill="#cfd9e7"/>
            <path id="Path_369" data-name="Path 369" d="M191.849,308.674c0,.809-.573,1.135-1.279.728a2.811,2.811,0,0,1-1.28-2.2c0-.809.573-1.135,1.28-.728A2.809,2.809,0,0,1,191.849,308.674Z" fill="#e1e7ef"/>
            <path id="Path_370" data-name="Path 370" d="M191.265,308.337c0,.44-.311.617-.7.4a1.528,1.528,0,0,1-.7-1.2c0-.44.311-.617.7-.4A1.528,1.528,0,0,1,191.265,308.337Z" fill="#c2c7d6"/>
            <path id="Path_371" data-name="Path 371" d="M200.644,313.427l-20.472,8.955-3.423-1.171-2.139-1.232,21.826-12.572,3.356,1.933.851,1.25Z" fill="#6b6164"/>
            <path id="Path_372" data-name="Path 372" d="M189.442,274.517,133.516,242.3l-.469.758,56.772,32.7Z" fill="#f3f1ee"/>
            <path id="Path_373" data-name="Path 373" d="M174.461,286.877l-40.546-23.354V262.35L174.461,285.7Z" fill="#98979d"/>
            <g id="Group_149" data-name="Group 149">
              <path id="Path_374" data-name="Path 374" d="M175.008,298.974V270.716l11.689,6.733v18.809l-3.844,7.235Z" fill="#cdc6bc"/>
            </g>
            <path id="Path_375" data-name="Path 375" d="M190.073,279.393l-2.634-1.517v14.877l3.9,2.248,1.1-1.792Z" fill="#2d2c37"/>
            <path id="Path_376" data-name="Path 376" d="M187.79,292.553V278.48l2.012,1.159,2.268,13.306-.942,1.531Z" fill="#7572a4"/>
            <g id="Group_150" data-name="Group 150">
              <path id="Path_377" data-name="Path 377" d="M183.974,304.5l-9.513-5.479v.827l9.513,5.479Z" fill="#9b897f"/>
            </g>
            <g id="Group_151" data-name="Group 151">
              <path id="Path_378" data-name="Path 378" d="M133.047,273.02l-3.332-1.919v.827l3.332,1.919Z" fill="#9b897f"/>
            </g>
            <path id="Path_379" data-name="Path 379" d="M198.606,304.647l-1.4-.8v-1.6l1.4.8Z" fill="#504f58"/>
            <path id="Path_380" data-name="Path 380" d="M198.488,304.443l-1.158-.667V302.45l1.158.667Z" fill="#ff9a2e"/>
            <path id="Path_381" data-name="Path 381" d="M136.046,267.6c0,.494-.349.693-.78.444a1.715,1.715,0,0,1-.78-1.344c0-.493.349-.692.78-.443A1.713,1.713,0,0,1,136.046,267.6Z" fill="#504f58"/>
            <path id="Path_382" data-name="Path 382" d="M135.884,267.509c0,.392-.277.549-.618.352a1.359,1.359,0,0,1-.618-1.064c0-.391.277-.548.618-.351A1.358,1.358,0,0,1,135.884,267.509Z" fill="#ff512e"/>
            <path id="Path_383" data-name="Path 383" d="M135.709,270.437c0,.335-.237.471-.531.3a1.165,1.165,0,0,1-.531-.913c0-.335.237-.471.531-.3A1.165,1.165,0,0,1,135.709,270.437Z" fill="#f9f1ec"/>
            <path id="Path_384" data-name="Path 384" d="M135.628,270.391c0,.284-.2.4-.45.255a.99.99,0,0,1-.45-.774c0-.285.2-.4.45-.256A.99.99,0,0,1,135.628,270.391Z" fill="#ff9a2e"/>
            <path id="Path_385" data-name="Path 385" d="M157.349,285.044c0,.335-.238.471-.531.3a1.165,1.165,0,0,1-.531-.913c0-.335.237-2.613.531-2.444S157.349,284.709,157.349,285.044Z" fill="#f9f1ec"/>
            <path id="Path_386" data-name="Path 386" d="M157.268,285c0,.285-.2.4-.45.256a.988.988,0,0,1-.45-.775c0-.284.2-.4.45-.255A.99.99,0,0,1,157.268,285Z" fill="#ff9a2e"/>
            <path id="Path_387" data-name="Path 387" d="M173.255,292.063c0,.336-.238.471-.531.3a1.165,1.165,0,0,1-.531-.913c0-.336.237-.471.531-.3A1.167,1.167,0,0,1,173.255,292.063Z" fill="#f9f1ec"/>
            <path id="Path_388" data-name="Path 388" d="M173.174,292.016c0,.285-.2.4-.45.256a.988.988,0,0,1-.45-.774c0-.285.2-.4.45-.256A.99.99,0,0,1,173.174,292.016Z" fill="#ff9a2e"/>
            <g id="Group_152" data-name="Group 152">
              <path id="Path_389" data-name="Path 389" d="M136.462,246.325l-1.815-1.045v-.8l1.815,1.045Z" fill="#cdc6bc"/>
            </g>
            <path id="Path_390" data-name="Path 390" d="M136.3,246.09l-1.493-.86v-.595l1.493.86Z" fill="#ff9a2e"/>
            <g id="Group_153" data-name="Group 153">
              <path id="Path_391" data-name="Path 391" d="M159.083,259.354l-1.815-1.045v-.8l1.815,1.045Z" fill="#cdc6bc"/>
            </g>
            <path id="Path_392" data-name="Path 392" d="M158.922,259.119l-1.494-.86v-.595l1.494.86Z" fill="#ff9a2e"/>
            <g id="Group_154" data-name="Group 154">
              <path id="Path_393" data-name="Path 393" d="M187.6,275.782l-1.815-1.045v-.8l1.815,1.045Z" fill="#cdc6bc"/>
            </g>
            <path id="Path_394" data-name="Path 394" d="M187.444,275.547l-1.493-.86v-.595l1.493.86Z" fill="#ff9a2e"/>
            <g id="Group_156" data-name="Group 156">
              <g id="Group_155" data-name="Group 155">
                <path id="Path_395" data-name="Path 395" d="M149,267.608a1.826,1.826,0,0,1-.9-.268l-11.433-6.586a5.056,5.056,0,0,1-2.123-4.031v-6.508a1.979,1.979,0,0,1,.794-1.8,1.488,1.488,0,0,1,1.517.107l11.433,6.585a5.058,5.058,0,0,1,2.124,4.032v6.508a1.975,1.975,0,0,1-.8,1.8A1.21,1.21,0,0,1,149,267.608Zm-.713-.593a1.133,1.133,0,0,0,1.14.107,1.633,1.633,0,0,0,.607-1.475v-6.508a4.645,4.645,0,0,0-1.936-3.707l-11.433-6.585a1.133,1.133,0,0,0-1.14-.107,1.63,1.63,0,0,0-.607,1.474v6.508a4.645,4.645,0,0,0,1.936,3.706Z" fill="#cdc6bc"/>
              </g>
            </g>
            <g id="Group_158" data-name="Group 158">
              <g id="Group_157" data-name="Group 157">
                <path id="Path_396" data-name="Path 396" d="M166.788,277.855a1.82,1.82,0,0,1-.9-.268L154.453,271a5.059,5.059,0,0,1-2.123-4.031v-6.508a1.979,1.979,0,0,1,.8-1.8,1.487,1.487,0,0,1,1.516.107l11.433,6.585a5.059,5.059,0,0,1,2.123,4.031v6.508a1.979,1.979,0,0,1-.8,1.8A1.219,1.219,0,0,1,166.788,277.855Zm-13.046-18.977a.841.841,0,0,0-.427.11,1.631,1.631,0,0,0-.608,1.475v6.508a4.645,4.645,0,0,0,1.936,3.706l11.433,6.586a1.133,1.133,0,0,0,1.14.107,1.632,1.632,0,0,0,.607-1.475v-6.508a4.647,4.647,0,0,0-1.935-3.706l-11.434-6.585A1.448,1.448,0,0,0,153.742,258.877Z" fill="#cdc6bc"/>
              </g>
            </g>
            <path id="Path_397" data-name="Path 397" d="M183.736,290.62l-6.284-5.762a2.876,2.876,0,0,1-1.2-2.3v-8.533c0-.885.539-1.293,1.2-.909l6.284,3.62a2.876,2.876,0,0,1,1.2,2.3v10.677C184.941,290.6,184.4,291,183.736,290.62Z" fill="#2d2c37"/>
            <path id="Path_398" data-name="Path 398" d="M176.6,282.828v-8.664c0-.628.382-.916.853-.644l6.284,3.619a2.038,2.038,0,0,1,.853,1.628v10.806c0,.628-.382.916-.853.644l-6.284-5.762A2.041,2.041,0,0,1,176.6,282.828Z" fill="#7572a4"/>
            <path id="Path_399" data-name="Path 399" d="M179.389,297.9l-1.937-1.116c-.666-.383-1.2-3.554-1.2-4.44v-5.434c0-.885.539-1.292,1.2-.909l1.937,1.115a2.876,2.876,0,0,1,1.2,2.3v7.577C180.594,297.875,180.055,298.282,179.389,297.9Z" fill="#2d2c37"/>
            <path id="Path_400" data-name="Path 400" d="M176.6,292.611v-5.565c0-.627.382-.916.853-.644l1.937,1.116a2.037,2.037,0,0,1,.853,1.627v7.707c0,.628-.382.916-.853.644l-1.937-1.115C176.981,296.109,176.6,293.238,176.6,292.611Z" fill="#7572a4"/>
            <path id="Path_401" data-name="Path 401" d="M189.23,307.961a2.661,2.661,0,0,0,.591,1.044.522.522,0,0,1,.147.417h0c-.035.109-.195.077-.341-.094a4.216,4.216,0,0,1-.784-1.385c-.071-.212-.012-.358.1-.327h0A.537.537,0,0,1,189.23,307.961Z" fill="#504f58"/>
            <path id="Path_402" data-name="Path 402" d="M191.908,307.912a2.66,2.66,0,0,0-.59-1.044.521.521,0,0,1-.147-.418h0c.035-.108.194-.077.341.1a4.211,4.211,0,0,1,.784,1.385c.07.212.012.358-.1.327h0A.538.538,0,0,1,191.908,307.912Z" fill="#504f58"/>
            <path id="Path_403" data-name="Path 403" d="M191.264,309.869a.567.567,0,0,0,.615-.322c.057-.093.178-.1.291,0h0a.394.394,0,0,1,.089.442.876.876,0,0,1-.816.427.415.415,0,0,1-.337-.312h0C191.076,309.957,191.151,309.865,191.264,309.869Z" fill="#504f58"/>
            <path id="Path_404" data-name="Path 404" d="M189.874,306a.567.567,0,0,0-.614.322c-.057.093-.178.1-.291,0h0a.393.393,0,0,1-.089-.442.875.875,0,0,1,.816-.427.413.413,0,0,1,.337.312h0C190.063,305.917,189.988,306.008,189.874,306Z" fill="#504f58"/>
            <g id="Group_159" data-name="Group 159">
              <path id="Path_405" data-name="Path 405" d="M192.115,301.878h-.188l.007-5.378,1.145-2.867.174.07-1.138,2.85Z" fill="#c9c3b9"/>
            </g>
            <g id="Group_160" data-name="Group 160">
              <path id="Path_406" data-name="Path 406" d="M199.585,303.008l-7.06-7.844.139-.125,7.06,7.844Z" fill="#c9c3b9"/>
            </g>
          </g>
          <path id="Path_407" data-name="Path 407" d="M112.669,287.132l-3.332-1.919,3.959-2.28,3.332,1.919Z" fill="#6b6164"/>
          <g id="Group_176" data-name="Group 176">
            <path id="Path_408" data-name="Path 408" d="M179.276,313.27v8.562l-3.665-2.111a13.339,13.339,0,0,0-5.754-7.41c-3.459-1.992-3.934.327-5.88,3.785a7.862,7.862,0,0,0-.381.965l-29.138-16.783q.009-.558.009-1.18a13.765,13.765,0,0,0-6.265-10.779c-3.459-1.993-6.264-.4-6.264,3.563q0,.628.022,1.2l-9.291-5.351V254.8l56.772,32.7,3.347,17.905Z" fill="#ded8d1"/>
            <g id="Group_162" data-name="Group 162">
              <path id="Path_409" data-name="Path 409" d="M115.362,281.988c0,.391-.276.548-.618.351a1.358,1.358,0,0,1-.618-1.064c0-.391.277-.548.618-.351A1.357,1.357,0,0,1,115.362,281.988Z" fill="#cdc6bc"/>
            </g>
            <g id="Group_163" data-name="Group 163">
              <path id="Path_410" data-name="Path 410" d="M153.563,301.352,113.017,278v-1.173l.52-.594,40.026,23.948.52.578Z" fill="#cdc6bc"/>
            </g>
            <g id="Group_164" data-name="Group 164">
              <path id="Path_411" data-name="Path 411" d="M177.612,316.63l-.932-.537v-1.067l.271-.839,1.158,1.993Z" fill="#b5aa9c"/>
            </g>
            <path id="Path_412" data-name="Path 412" d="M175.05,322.474c0,3.072-2.175,4.31-4.859,2.764a10.676,10.676,0,0,1-4.86-8.361c0-3.073,2.175-4.31,4.86-2.764A10.677,10.677,0,0,1,175.05,322.474Z" fill="#2d2c37"/>
            <path id="Path_413" data-name="Path 413" d="M175.05,322.474c0,3.072-2.175,4.31-4.859,2.764a10.676,10.676,0,0,1-4.86-8.361c0-3.073,2.175-4.31,4.86-2.764A10.677,10.677,0,0,1,175.05,322.474Z" fill="#393843"/>
            <ellipse id="Ellipse_5" data-name="Ellipse 5" cx="3.805" cy="6.574" rx="3.805" ry="6.574" transform="matrix(0.863, -0.505, 0.505, 0.863, 163.462, 315.965)" fill="#2d2c37"/>
            <path id="Path_414" data-name="Path 414" d="M133.062,298.289c0,3.073-2.175,4.31-4.86,2.764a10.677,10.677,0,0,1-4.859-8.361c0-3.072,2.175-4.31,4.859-2.764A10.676,10.676,0,0,1,133.062,298.289Z" fill="#393843"/>
            <path id="Path_415" data-name="Path 415" d="M132.574,298.233c0,2.955-2.093,4.145-4.674,2.659a10.27,10.27,0,0,1-4.674-8.043c0-2.955,2.092-4.145,4.674-2.659A10.272,10.272,0,0,1,132.574,298.233Z" fill="#2d2c37"/>
            <path id="Path_416" data-name="Path 416" d="M131.488,297.5c0,2.134-1.511,2.994-3.376,1.92a7.419,7.419,0,0,1-3.376-5.81c0-2.135,1.511-2.995,3.376-1.92A7.416,7.416,0,0,1,131.488,297.5Z" fill="#504f58"/>
            <path id="Path_417" data-name="Path 417" d="M131.261,297.252c0,1.933-1.369,2.713-3.059,1.74a6.724,6.724,0,0,1-3.058-5.264c0-1.934,1.369-2.713,3.058-1.74A6.72,6.72,0,0,1,131.261,297.252Z" fill="#c4c2bb"/>
            <path id="Path_418" data-name="Path 418" d="M130.954,297.075c0,1.739-1.232,2.44-2.752,1.565a6.045,6.045,0,0,1-2.751-4.734c0-1.74,1.231-2.441,2.751-1.566a4.015,4.015,0,0,1,.409.271,6.269,6.269,0,0,1,2.31,3.957A4.036,4.036,0,0,1,130.954,297.075Z" fill="#b0ac9e"/>
            <path id="Path_419" data-name="Path 419" d="M129.2,297.932a5.72,5.72,0,0,1-2.605-4.481,2.005,2.005,0,0,1,.513-1.481c-.973-.075-1.653.644-1.653,1.937a6.045,6.045,0,0,0,2.751,4.734c1.107.637,2.061.438,2.5-.389A2.092,2.092,0,0,1,129.2,297.932Z" fill="#b7b4a9"/>
            <g id="Group_165" data-name="Group 165" style="mix-blend-mode: multiply;isolation: isolate">
              <path id="Path_420" data-name="Path 420" d="M130.793,296.769c0,1.067-.756,1.5-1.688.961a3.709,3.709,0,0,1-1.688-2.9c0-1.067.756-1.5,1.688-.961A3.709,3.709,0,0,1,130.793,296.769Z" fill="#cdc6bc"/>
            </g>
            <path id="Path_421" data-name="Path 421" d="M130.921,296.568c-.289.419-.839.5-1.469.135a3.711,3.711,0,0,1-1.688-2.9c0-.717.341-1.146.847-1.187A6.269,6.269,0,0,1,130.921,296.568Z" fill="#9d9783"/>
            <path id="Path_422" data-name="Path 422" d="M128.2,292.752l-1.266.731,2.494,4.039,1.248-.719-.852-2.031Z" fill="#9d9783"/>
            <ellipse id="Ellipse_6" data-name="Ellipse 6" cx="1.374" cy="2.374" rx="1.374" ry="2.374" transform="translate(125.815 294.132) rotate(-30.311)" fill="#b7b4a9"/>
            <path id="Path_423" data-name="Path 423" d="M129.726,296.436c0,1.02-.723,1.431-1.614.918a3.546,3.546,0,0,1-1.614-2.777c0-1.021.722-1.432,1.614-.919A3.548,3.548,0,0,1,129.726,296.436Z" fill="#d5d2c9"/>
            <path id="Path_424" data-name="Path 424" d="M173.477,321.686c0,2.135-1.511,2.995-3.376,1.921a7.42,7.42,0,0,1-3.376-5.81c0-2.135,1.511-2.995,3.376-1.92A7.416,7.416,0,0,1,173.477,321.686Z" fill="#504f58"/>
            <path id="Path_425" data-name="Path 425" d="M173.249,321.436c0,1.934-1.369,2.714-3.058,1.74a6.72,6.72,0,0,1-3.059-5.263c0-1.934,1.369-2.714,3.059-1.74A6.721,6.721,0,0,1,173.249,321.436Z" fill="#c4c2bb"/>
            <path id="Path_426" data-name="Path 426" d="M172.867,321.217c0,1.692-1.2,2.374-2.676,1.522a5.88,5.88,0,0,1-2.677-4.606c0-1.692,1.2-2.374,2.677-1.522A5.881,5.881,0,0,1,172.867,321.217Z" fill="#b7b4a9"/>
            <path id="Path_427" data-name="Path 427" d="M172.536,321.026c0,1.483-1.05,2.08-2.345,1.334a5.157,5.157,0,0,1-2.346-4.037c0-1.483,1.05-2.08,2.346-1.334A5.156,5.156,0,0,1,172.536,321.026Z" fill="#d5d2c9"/>
            <path id="Path_428" data-name="Path 428" d="M171.4,320.659c0,.886-.628,1.244-1.4.8a3.079,3.079,0,0,1-1.4-2.413c0-.886.628-1.243,1.4-.8A3.079,3.079,0,0,1,171.4,320.659Z" fill="#cac6bc"/>
            <path id="Path_429" data-name="Path 429" d="M168.852,319.7a2.664,2.664,0,0,0,.59,1.044.518.518,0,0,1,.147.418h0c-.034.109-.194.077-.341-.094a4.222,4.222,0,0,1-.784-1.386c-.07-.211-.011-.358.1-.327h0A.539.539,0,0,1,168.852,319.7Z" fill="#504f58"/>
            <path id="Path_430" data-name="Path 430" d="M171.062,320.571c0,.781-.553,1.1-1.235.7a2.715,2.715,0,0,1-1.235-2.125c0-.78.553-1.1,1.235-.7A2.713,2.713,0,0,1,171.062,320.571Z" fill="#dddddb"/>
            <path id="Path_431" data-name="Path 431" d="M170.5,320.247c0,.424-.3.594-.671.382a1.474,1.474,0,0,1-.671-1.155c0-.424.3-.6.671-.382A1.477,1.477,0,0,1,170.5,320.247Z" fill="#b7b4a9"/>
            <path id="Path_432" data-name="Path 432" d="M180.173,325.218l-3.542-.39-1.639-.944-.381-3.905,2.139,1.232,3.423,1.171Z" fill="#493f41"/>
            <path id="Path_433" data-name="Path 433" d="M169.064,286.255l-55.927-32.213-.469.758,56.772,32.7Z" fill="#f3f1ee"/>
            <path id="Path_434" data-name="Path 434" d="M153.7,299.8,113.156,276.45l.381-.219,40.546,23.354Z" fill="#6b6164"/>
            <path id="Path_435" data-name="Path 435" d="M153.7,299.8v1.173l.381-.219v-1.173Z" fill="#554d4e"/>
            <g id="Group_166" data-name="Group 166">
              <path id="Path_436" data-name="Path 436" d="M154.629,310.712V284.6l11.689,6.733V308l-3.844,7.235Z" fill="#cdc6bc"/>
            </g>
            <path id="Path_437" data-name="Path 437" d="M169.695,291.131l-2.635-1.517v14.877l3.9,2.248,1.1-1.792Z" fill="#2d2c37"/>
            <path id="Path_438" data-name="Path 438" d="M167.411,304.291V290.218l2.013,1.159,2.268,13.306-.942,1.531Z" fill="#573f3f"/>
            <path id="Path_439" data-name="Path 439" d="M112.669,287.132l-3.332-1.919v.6l3.332,1.919Z" fill="#493f41"/>
            <path id="Path_440" data-name="Path 440" d="M178.227,316.385l-1.4-.8v-1.6l1.4.8Z" fill="#504f58"/>
            <path id="Path_441" data-name="Path 441" d="M178.109,316.181l-1.533-1.518.374-.476,1.158.667Z" fill="#ff9a2e"/>
            <path id="Path_442" data-name="Path 442" d="M177.508,316.267l-.932-.537v-1.067l.932.537Z" fill="#e06f2e"/>
            <path id="Path_443" data-name="Path 443" d="M115.668,281.484c0,.494-.349.693-.78.444a1.716,1.716,0,0,1-.781-1.344c0-.493.35-.692.781-.444A1.714,1.714,0,0,1,115.668,281.484Z" fill="#504f58"/>
            <path id="Path_444" data-name="Path 444" d="M115.505,281.39c0,.392-.277.549-.618.352a1.359,1.359,0,0,1-.618-1.064c0-.391.277-.548.618-.351A1.358,1.358,0,0,1,115.505,281.39Z" fill="#d83b2e"/>
            <path id="Path_445" data-name="Path 445" d="M114.4,280.314a2.25,2.25,0,0,0-.338.429c-.057.144.659,1.146.659,1.146a1.6,1.6,0,0,0,.59-.1C115.541,281.684,114.4,280.314,114.4,280.314Z" fill="#d83b2e"/>
            <g id="Group_167" data-name="Group 167">
              <path id="Path_446" data-name="Path 446" d="M115.388,284.535c0,.335-.237.471-.531.3a1.167,1.167,0,0,1-.531-.913c0-.335.238-.471.531-.3A1.167,1.167,0,0,1,115.388,284.535Z" fill="#b5aa9c"/>
            </g>
            <g id="Group_168" data-name="Group 168">
              <path id="Path_447" data-name="Path 447" d="M137.028,297c0,.335-.237.471-.531.3a1.165,1.165,0,0,1-.531-.913c0-.335.237-.471.531-.3A1.166,1.166,0,0,1,137.028,297Z" fill="#b5aa9c"/>
            </g>
            <g id="Group_169" data-name="Group 169">
              <path id="Path_448" data-name="Path 448" d="M152.934,306.161c0,.335-.237.471-.531.3a1.165,1.165,0,0,1-.531-.913c0-.335.237-.471.531-.3A1.165,1.165,0,0,1,152.934,306.161Z" fill="#b5aa9c"/>
            </g>
            <path id="Path_449" data-name="Path 449" d="M114.972,281.545c0,.307-.217.431-.486.276a1.067,1.067,0,0,1-.486-.836c0-.307.218-.431.486-.276A1.067,1.067,0,0,1,114.972,281.545Z" fill="#ff512e"/>
            <path id="Path_450" data-name="Path 450" d="M115.445,284.267c0,.336-.237.471-.531.3a1.166,1.166,0,0,1-.53-.913c0-.336.237-.471.53-.3A1.165,1.165,0,0,1,115.445,284.267Z" fill="#9da1bf"/>
            <path id="Path_451" data-name="Path 451" d="M137.085,296.731c0,.336-.237.471-.531.3a1.167,1.167,0,0,1-.531-.913c0-.336.238-.471.531-.3A1.165,1.165,0,0,1,137.085,296.731Z" fill="#9da1bf"/>
            <path id="Path_452" data-name="Path 452" d="M152.991,305.893c0,.335-.237.471-.531.3a1.167,1.167,0,0,1-.531-.913c0-.335.238-.471.531-.3A1.166,1.166,0,0,1,152.991,305.893Z" fill="#9da1bf"/>
            <path id="Path_453" data-name="Path 453" d="M115.329,284.318c0,.335-.237.471-.53.3a1.165,1.165,0,0,1-.531-.913c0-.335.237-.471.531-.3A1.166,1.166,0,0,1,115.329,284.318Z" fill="#f9f1ec"/>
            <path id="Path_454" data-name="Path 454" d="M115.249,284.272c0,.284-.2.4-.45.255a.988.988,0,0,1-.451-.774c0-.285.2-.4.451-.256A.99.99,0,0,1,115.249,284.272Z" fill="#e06f2e"/>
            <path id="Path_455" data-name="Path 455" d="M136.969,296.783c0,.335-.237.471-.531.3a1.166,1.166,0,0,1-.53-.913c0-.336.237-.471.53-.3A1.165,1.165,0,0,1,136.969,296.783Z" fill="#f9f1ec"/>
            <path id="Path_456" data-name="Path 456" d="M136.889,296.736c0,.284-.2.4-.451.255a.99.99,0,0,1-.45-.774c0-.285.2-.4.45-.256A.989.989,0,0,1,136.889,296.736Z" fill="#e06f2e"/>
            <path id="Path_457" data-name="Path 457" d="M152.875,305.943c0,.336-.237.471-.531.3a1.166,1.166,0,0,1-.53-.913c0-.336.237-.471.53-.3A1.165,1.165,0,0,1,152.875,305.943Z" fill="#f9f1ec"/>
            <path id="Path_458" data-name="Path 458" d="M152.795,305.9c0,.285-.2.4-.45.256a.99.99,0,0,1-.45-.774c0-.285.2-.4.45-.256A.988.988,0,0,1,152.795,305.9Z" fill="#e06f2e"/>
            <g id="Group_170" data-name="Group 170">
              <path id="Path_459" data-name="Path 459" d="M116.083,258.063l-1.815-1.045v-.8l1.815,1.045Z" fill="#cdc6bc"/>
            </g>
            <path id="Path_460" data-name="Path 460" d="M115.923,257.828l-1.493-.86v-.595l1.493.86Z" fill="#e06f2e"/>
            <g id="Group_171" data-name="Group 171">
              <path id="Path_461" data-name="Path 461" d="M138.7,271.092l-1.815-1.045v-.8l1.815,1.045Z" fill="#cdc6bc"/>
            </g>
            <path id="Path_462" data-name="Path 462" d="M138.543,270.857,137.05,270V269.4l1.494.86Z" fill="#e06f2e"/>
            <g id="Group_172" data-name="Group 172">
              <path id="Path_463" data-name="Path 463" d="M167.226,287.52l-1.815-1.045v-.8l1.815,1.045Z" fill="#cdc6bc"/>
            </g>
            <path id="Path_464" data-name="Path 464" d="M167.065,287.285l-1.493-.86v-.595l1.493.86Z" fill="#e06f2e"/>
            <path id="Path_465" data-name="Path 465" d="M163.357,302.358l-6.283-3.619a2.876,2.876,0,0,1-1.2-2.3v-8.533c0-.885.539-1.293,1.2-.909l6.283,3.62a2.877,2.877,0,0,1,1.206,2.3v8.534C164.562,302.334,164.022,302.741,163.357,302.358Z" fill="#2d2c37"/>
            <path id="Path_466" data-name="Path 466" d="M156.22,296.709v-8.664c0-.628.382-.916.853-.644l6.283,3.619a2.038,2.038,0,0,1,.854,1.628v8.664c0,.627-.382.916-.854.644l-6.283-3.619A2.039,2.039,0,0,1,156.22,296.709Z" fill="#573f3f"/>
            <path id="Path_467" data-name="Path 467" d="M159.01,309.636l-1.936-1.115a2.876,2.876,0,0,1-1.2-2.3v-5.434c0-.885.539-1.293,1.2-.909L159.01,301a2.877,2.877,0,0,1,1.206,2.3v5.434C160.215,309.613,159.675,310.02,159.01,309.636Z" fill="#2d2c37"/>
            <path id="Path_468" data-name="Path 468" d="M156.22,306.491v-5.565c0-.627.382-.916.853-.644l1.936,1.116a2.038,2.038,0,0,1,.854,1.627v5.565c0,.627-.382.915-.854.644l-1.936-1.116A2.037,2.037,0,0,1,156.22,306.491Z" fill="#573f3f"/>
            <path id="Path_469" data-name="Path 469" d="M171.529,319.651a2.664,2.664,0,0,0-.59-1.044.518.518,0,0,1-.147-.418h0c.034-.109.194-.077.341.094a4.215,4.215,0,0,1,.784,1.386c.07.211.011.358-.1.327h0A.539.539,0,0,1,171.529,319.651Z" fill="#504f58"/>
            <path id="Path_470" data-name="Path 470" d="M170.885,321.607a.567.567,0,0,0,.614-.322c.057-.094.178-.1.292,0h0a.393.393,0,0,1,.088.441.873.873,0,0,1-.816.427.413.413,0,0,1-.337-.311h0C170.7,321.694,170.773,321.6,170.885,321.607Z" fill="#504f58"/>
            <path id="Path_471" data-name="Path 471" d="M169.5,317.742a.567.567,0,0,0-.614.322c-.057.094-.178.1-.292,0h0a.393.393,0,0,1-.088-.441.873.873,0,0,1,.816-.427.413.413,0,0,1,.337.311h0C169.684,317.655,169.608,317.747,169.5,317.742Z" fill="#504f58"/>
            <path id="Path_472" data-name="Path 472" d="M169.355,320.924a4.214,4.214,0,0,1-.784-1.386.494.494,0,0,1-.026-.182c-.1-.005-.146.128-.081.324a4.214,4.214,0,0,0,.784,1.386c.147.171.306.2.341.094.008-.023-.006-.056-.008-.084A.413.413,0,0,1,169.355,320.924Z" fill="#b7b4a9"/>
            <path id="Path_473" data-name="Path 473" d="M171.921,319.854a.537.537,0,0,1-.285-.345,2.661,2.661,0,0,0-.591-1.044.579.579,0,0,1-.138-.333.09.09,0,0,0-.115.057.518.518,0,0,0,.147.418,2.664,2.664,0,0,1,.59,1.044.541.541,0,0,0,.285.345c.076.021.123-.042.129-.145C171.935,319.85,171.93,319.856,171.921,319.854Z" fill="#b7b4a9"/>
            <path id="Path_474" data-name="Path 474" d="M171.171,322.012a.414.414,0,0,1-.337-.312c-.007-.032.009-.049.011-.075a.165.165,0,0,0-.118.217.413.413,0,0,0,.337.311.873.873,0,0,0,.816-.427l0-.009A.88.88,0,0,1,171.171,322.012Z" fill="#b7b4a9"/>
            <g id="Group_173" data-name="Group 173">
              <path id="Path_475" data-name="Path 475" d="M168.7,317.922a.4.4,0,0,1-.092-.432.743.743,0,0,0-.1.133.393.393,0,0,0,.088.441c.113.1.234.094.292,0a1.032,1.032,0,0,1,.1-.132C168.918,318.014,168.8,318.022,168.7,317.922Z" fill="#b7b4a9"/>
              <path id="Path_476" data-name="Path 476" d="M169.6,317.6a.563.563,0,0,0-.6.3.563.563,0,0,1,.49-.155c.088,0,.138-.064.147-.16C169.628,317.586,169.62,317.6,169.6,317.6Z" fill="#b7b4a9"/>
            </g>
            <g id="Group_174" data-name="Group 174">
              <path id="Path_477" data-name="Path 477" d="M171.736,313.616h-.188l.007-5.378,1.146-2.867.174.07-1.139,2.85Z" fill="#c9c3b9"/>
            </g>
            <g id="Group_175" data-name="Group 175">
              <path id="Path_478" data-name="Path 478" d="M179.207,314.745l-7.061-7.843.139-.125,7.061,7.843Z" fill="#c9c3b9"/>
            </g>
          </g>
          <path id="Path_479" data-name="Path 479" d="M199.655,301.532,179.276,313.27v8.562l20.379-11.738Z" fill="#e4dfd9"/>
          <path id="Path_480" data-name="Path 480" d="M195.248,304.51l-11.564,6.661v8.451l11.564-6.661Z" fill="#ebe7e3"/>
          <path id="Path_481" data-name="Path 481" d="M194.662,305.9l-10.392,5.986v2.105l10.392-5.986Z" fill="#554d4e"/>
          <path id="Path_482" data-name="Path 482" d="M194.662,309.64l-10.392,5.986v3.1l10.392-5.986Z" fill="#554d4e"/>
          <path id="Path_483" data-name="Path 483" d="M194.058,307.658l-9.788,5.638v.7l10.392-5.986V305.9l-.6.348Z" fill="#cdc6bc"/>
          <path id="Path_484" data-name="Path 484" d="M194.058,309.988v2.405l-9.788,5.638v.7l10.392-5.986v-3.1Z" fill="#cdc6bc"/>
          <path id="Path_485" data-name="Path 485" d="M179.276,313.27l20.379-11.738-6.488-7.864-20.379,11.738Z" fill="#f3f1ee"/>
          <path id="Path_486" data-name="Path 486" d="M172.788,305.405l6.539,7.478,3.829-2.069,16.221-9.393-6.209-7.754,6.488,7.864L179.276,313.27Z" fill="#faf8f5"/>
          <path id="Path_487" data-name="Path 487" d="M183.683,311.171l11.564-6.661-4.1-4.786-11.564,6.661Z" fill="#f3f1ee"/>
          <path id="Path_488" data-name="Path 488" d="M169.441,287.5l20.379-11.738,3.347,17.905-20.379,11.738Z" fill="#ebe7e3"/>
          <path id="Path_489" data-name="Path 489" d="M183.175,298.323l.074.347-10.166,5.856-2.4-13.749,10.106-5.821.074.347Z" fill="#554d4e"/>
          <path id="Path_490" data-name="Path 490" d="M182.867,298.5l-3.7,2.128L173.319,304l-.531-3.077-1.66-9.61-.063-.366,5.65-3.255,3.841-2.212,1.488,8.384.3,1.708Z" fill="#b08480"/>
          <path id="Path_491" data-name="Path 491" d="M192.594,293.287l-8.967,5.165-.074-.347-2.31-13.021-.074-.347,9.027-5.2Z" fill="#554d4e"/>
          <path id="Path_492" data-name="Path 492" d="M192.213,293.116l-3.062,1.764-4.161,2.4-1.13.651-.437-2.465-.08-.449-1.532-8.635-.262-1.473,5.207-3,3.2-1.845,1.2,6.942.938,5.432Z" fill="#b08480"/>
          <path id="Path_493" data-name="Path 493" d="M192.07,292.945l-.241.392-1.338.771-2.7-1.555v-11.24l2.092-1.205Z" fill="#d6b6b2"/>
          <path id="Path_494" data-name="Path 494" d="M169.441,287.5l20.379-11.738-.377-1.245-20.379,11.738Z" fill="#f3f1ee"/>
          <path id="Path_495" data-name="Path 495" d="M189.442,274.517,133.516,242.3l-20.379,11.738,55.927,32.213Z" fill="#fcfbfa"/>
          <path id="Path_496" data-name="Path 496" d="M200.644,310.591l-20.472,11.791v2.836l20.472-11.791Z" fill="#554d4e"/>
          <path id="Path_497" data-name="Path 497" d="M178.109,314.855l-.6.345v1.067l.6-.086Z" fill="#e07427"/>
          <path id="Path_498" data-name="Path 498" d="M183.278,310.964v8.562l.4.095v-8.451Z" fill="#ded8d1"/>
          <path id="Path_499" data-name="Path 499" d="M153.7,300.977l-40.546-23.354V276.45L153.7,299.8Z" fill="#493f41"/>
          <g id="Group_178" data-name="Group 178">
            <path id="Path_500" data-name="Path 500" d="M195.573,311.578l2.788-1.606-2.551.383-.237.383Z" fill="#b5aa9c"/>
            <path id="Path_501" data-name="Path 501" d="M195.762,304.6l2.152-1.015c.211-.122.382-.024.382.217v4.477a.84.84,0,0,1-.382.658l-2.152,1.239c-.211.122-.382.024-.382-.217v-4.477A1.321,1.321,0,0,1,195.762,304.6Z" fill="#b5aa9c"/>
            <path id="Path_502" data-name="Path 502" d="M198.572,303.267l-.219-.128,0,0,0,0h0a.27.27,0,0,0-.266.029l-2.152,1.239a.839.839,0,0,0-.382.657v4.477a.272.272,0,0,0,.1.236h0l.026.015.212.121.068-.168,2.129-1.226a.839.839,0,0,0,.382-.658v-4.323Z" fill="#393843"/>
            <g id="Group_177" data-name="Group 177">
              <path id="Path_503" data-name="Path 503" d="M196.129,304.519l2.151-1.239c.211-.121.382-.024.382.217v4.477a.841.841,0,0,1-.382.658l-2.151,1.239c-.211.122-.382.024-.382-.217v-4.477A.842.842,0,0,1,196.129,304.519Z" fill="#5c5b64"/>
              <path id="Path_504" data-name="Path 504" d="M196.237,304.78l1.936-1.115c.143-.083.259-.018.259.146v4.116a.568.568,0,0,1-.259.444l-1.936,1.115c-.143.083-.259.018-.259-.146v-4.116A.569.569,0,0,1,196.237,304.78Z" fill="#cfcedf"/>
              <path id="Path_505" data-name="Path 505" d="M198.821,304.022l-.449-.365-2.3,5.857.545.113Z" fill="#cfcedf"/>
              <path id="Path_506" data-name="Path 506" d="M196.771,305.093l1.853-1.068c.137-.079.248-.016.248.14v3.942a.546.546,0,0,1-.248.426l-1.853,1.067c-.137.079-.249.016-.249-.139v-3.942A.544.544,0,0,1,196.771,305.093Z" fill="#f3f1ee"/>
              <path id="Path_507" data-name="Path 507" d="M196.333,304.923l1.853-1.067c.137-.079.248-.017.248.139v3.942a.545.545,0,0,1-.248.426l-1.853,1.067c-.137.08-.249.017-.249-.139v-3.942A.544.544,0,0,1,196.333,304.923Z" fill="#eefaf9" style="mix-blend-mode: multiply;isolation: isolate"/>
            </g>
            <path id="Path_508" data-name="Path 508" d="M196.157,311.394l2.788-1.606v-.84l-2.788,1.606Z" fill="#e07427"/>
            <path id="Path_509" data-name="Path 509" d="M196.157,310.554l-.346-.2,2.788-1.606.346.2Z" fill="#ff9a2e"/>
            <path id="Path_510" data-name="Path 510" d="M196.157,310.554l-.346-.2v.84l.346.2Z" fill="#e06f2e"/>
          </g>
          <g id="Group_180" data-name="Group 180">
            <path id="Path_511" data-name="Path 511" d="M179.907,320.618l2.788-1.606-2.551.383-.237.383Z" fill="#b5aa9c"/>
            <path id="Path_512" data-name="Path 512" d="M180.1,313.635l2.152-1.015c.211-.121.382-.024.382.217v4.477a.84.84,0,0,1-.382.658l-2.152,1.239c-.211.122-.382.024-.382-.217v-4.477A1.322,1.322,0,0,1,180.1,313.635Z" fill="#b5aa9c"/>
            <path id="Path_513" data-name="Path 513" d="M182.906,312.306l-.219-.128,0,0h0a.27.27,0,0,0-.266.029l-2.152,1.239a.839.839,0,0,0-.382.657v4.478a.271.271,0,0,0,.1.235h0a.168.168,0,0,0,.026.015l.212.121.068-.168,2.129-1.226a.839.839,0,0,0,.382-.657v-4.323Z" fill="#393843"/>
            <g id="Group_179" data-name="Group 179">
              <path id="Path_514" data-name="Path 514" d="M180.463,313.56l2.151-1.24c.211-.122.382-.024.382.217v4.477a.841.841,0,0,1-.382.658l-2.151,1.239c-.211.122-.382.024-.382-.217v-4.477A.839.839,0,0,1,180.463,313.56Z" fill="#5c5b64"/>
              <path id="Path_515" data-name="Path 515" d="M180.571,313.82l1.936-1.115c.143-.083.259-.018.259.146v4.116a.568.568,0,0,1-.259.444l-1.936,1.115c-.143.082-.259.017-.259-.146v-4.116A.57.57,0,0,1,180.571,313.82Z" fill="#cfcedf"/>
              <path id="Path_516" data-name="Path 516" d="M183.155,313.061l-.449-.365-2.3,5.857.545.113Z" fill="#cfcedf"/>
              <path id="Path_517" data-name="Path 517" d="M181.105,314.132l1.853-1.068c.137-.079.248-.016.248.14v3.942a.545.545,0,0,1-.248.426l-1.853,1.067c-.137.079-.249.017-.249-.139v-3.942A.544.544,0,0,1,181.105,314.132Z" fill="#f3f1ee"/>
            </g>
            <path id="Path_518" data-name="Path 518" d="M180.49,320.434l2.788-1.606v-.84l-2.788,1.606Z" fill="#e07427"/>
            <path id="Path_519" data-name="Path 519" d="M195.869,311.237l2.788-1.606v-.84l-2.788,1.606Z" fill="#f5ec73" style="mix-blend-mode: multiply;isolation: isolate"/>
            <path id="Path_520" data-name="Path 520" d="M180.2,320.277l2.788-1.606v-.84l-2.788,1.606Z" fill="#f5ec73" style="mix-blend-mode: multiply;isolation: isolate"/>
            <path id="Path_521" data-name="Path 521" d="M180.49,319.594l-.346-.2,2.788-1.606.346.2Z" fill="#ff9a2e"/>
            <path id="Path_522" data-name="Path 522" d="M180.49,319.594l-.346-.2v.84l.346.2Z" fill="#e06f2e"/>
          </g>
          <path id="Path_523" data-name="Path 523" d="M155.238,310.361V284.947l-.609-.351v26.115l7.845,4.518.285-.537Z" fill="#9b897f"/>
          <path id="Path_524" data-name="Path 524" d="M182.347,295.572l.519,2.928-9.547,5.5-.531-3.077Z" fill="#997a77"/>
          <path id="Path_525" data-name="Path 525" d="M192.213,293.116l-8.352,4.811-.516-2.914,5.819-3.257,2.933.68Z" fill="#997a77"/>
          <path id="Path_526" data-name="Path 526" d="M155.238,310.361l-.609.351,7.845,4.518.285-.537Z" fill="#f3f1ee"/>
          <g id="Group_181" data-name="Group 181">
            <path id="Path_527" data-name="Path 527" d="M162.092,317.332l-9.513-5.479v.6l9.513,5.479Z" fill="#493f41"/>
            <path id="Path_528" data-name="Path 528" d="M162.092,317.332l1.5-.866v.6l-1.5.866Z" fill="#554d4e"/>
            <path id="Path_529" data-name="Path 529" d="M162.092,317.332l1.5-.866-9.513-5.479-1.5.866Z" fill="#6b6164"/>
          </g>
          <path id="Path_530" data-name="Path 530" d="M180.655,313.9l1.853-1.067c.137-.079.248-.017.248.139v3.942a.545.545,0,0,1-.248.426l-1.853,1.068c-.137.079-.249.016-.249-.14v-3.942A.544.544,0,0,1,180.655,313.9Z" fill="#eefaf9" style="mix-blend-mode: multiply;isolation: isolate"/>
          <path id="Path_531" data-name="Path 531" d="M155.238,284.947v.532l10.334,6.068v16.389l-3.318,6.465.506.291,3.559-6.7V291.33Z" fill="#f2f1f0" style="mix-blend-mode: multiply;isolation: isolate"/>
        </g>
        <path id="Path_532" data-name="Path 532" d="M183.278,310.964l-5.456-6.619,5.861,6.826Z" fill="#ded8d1"/>
        <path id="Path_533" data-name="Path 533" d="M194.058,307.658l.6.348-10.392,5.986v-.7Z" fill="#f3f1ee"/>
        <path id="Path_534" data-name="Path 534" d="M194.058,312.393l.6.348-10.392,5.986v-.7Z" fill="#f3f1ee"/>
        <path id="Path_535" data-name="Path 535" d="M180.557,285.48l.386,2.176-1.606-1.474Z" fill="#cbcadd"/>
        <path id="Path_536" data-name="Path 536" d="M184.589,283.156v6.418c0,.627-.382.915-.853.643l-1.484-1.361-.7-3.95Z" fill="#cbcadd"/>
        <path id="Path_537" data-name="Path 537" d="M180.943,287.656l-1.606-1.474,1.22-.7Z" fill="#d6b6b2"/>
        <path id="Path_538" data-name="Path 538" d="M181.551,284.906l3.039-1.75v6.418c0,.627-.382.915-.853.643l-1.484-1.361Z" fill="#d6b6b2"/>
        <g id="Group_191" data-name="Group 191">
          <g id="Group_183" data-name="Group 183">
            <path id="Path_539" data-name="Path 539" d="M168.845,285.106l-54.368-31.36.381-.219,54.119,31.579Z" fill="#ebe7e3"/>
            <path id="Path_540" data-name="Path 540" d="M168.977,284.981l-54.368-31.36.381-.219,54.368,31.36Z" fill="#fcfbfa"/>
            <path id="Path_541" data-name="Path 541" d="M168.977,284.981v.125l.381-.219v-.125Z" fill="#ebe7e3"/>
            <path id="Path_542" data-name="Path 542" d="M168.977,285.106l-54.368-31.36v-.125l54.368,31.36Z" fill="#cdc6bc"/>
          </g>
          <g id="Group_184" data-name="Group 184">
            <path id="Path_543" data-name="Path 543" d="M171.347,283.665,116.98,252.3l.381-.219,54.119,31.579Z" fill="#ebe7e3"/>
            <path id="Path_544" data-name="Path 544" d="M171.479,283.54l-54.368-31.36.381-.219,54.368,31.36Z" fill="#fcfbfa"/>
            <path id="Path_545" data-name="Path 545" d="M171.479,283.54v.125l.381-.219v-.125Z" fill="#ebe7e3"/>
            <path id="Path_546" data-name="Path 546" d="M171.479,283.665,117.112,252.3v-.125l54.368,31.36Z" fill="#cdc6bc"/>
          </g>
          <g id="Group_185" data-name="Group 185">
            <path id="Path_547" data-name="Path 547" d="M173.849,282.223l-54.368-31.36.381-.219,54.119,31.579Z" fill="#ebe7e3"/>
            <path id="Path_548" data-name="Path 548" d="M173.981,282.1l-54.368-31.36.381-.219,54.368,31.36Z" fill="#fcfbfa"/>
            <path id="Path_549" data-name="Path 549" d="M173.981,282.1v.125l.381-.219v-.125Z" fill="#ebe7e3"/>
            <path id="Path_550" data-name="Path 550" d="M173.981,282.223l-54.368-31.36v-.125l54.368,31.36Z" fill="#cdc6bc"/>
          </g>
          <g id="Group_186" data-name="Group 186">
            <path id="Path_551" data-name="Path 551" d="M176.351,280.782l-54.368-31.36.381-.219,54.119,31.579Z" fill="#ebe7e3"/>
            <path id="Path_552" data-name="Path 552" d="M176.483,280.658,122.115,249.3l.381-.219,54.368,31.36Z" fill="#fcfbfa"/>
            <path id="Path_553" data-name="Path 553" d="M176.483,280.658v.125l.381-.219v-.125Z" fill="#ebe7e3"/>
            <path id="Path_554" data-name="Path 554" d="M176.483,280.782l-54.368-31.36V249.3l54.368,31.36Z" fill="#cdc6bc"/>
          </g>
          <g id="Group_187" data-name="Group 187">
            <path id="Path_555" data-name="Path 555" d="M178.853,279.341l-54.368-31.36.381-.219,54.119,31.579Z" fill="#ebe7e3"/>
            <path id="Path_556" data-name="Path 556" d="M178.985,279.217l-54.368-31.36.381-.219L179.366,279Z" fill="#fcfbfa"/>
            <path id="Path_557" data-name="Path 557" d="M178.985,279.217v.125l.381-.219V279Z" fill="#ebe7e3"/>
            <path id="Path_558" data-name="Path 558" d="M178.985,279.341l-54.368-31.36v-.125l54.368,31.36Z" fill="#cdc6bc"/>
          </g>
          <g id="Group_188" data-name="Group 188">
            <path id="Path_559" data-name="Path 559" d="M181.355,277.9l-54.368-31.36.381-.219L181.487,277.9Z" fill="#ebe7e3"/>
            <path id="Path_560" data-name="Path 560" d="M181.487,277.776l-54.368-31.36.381-.219,54.368,31.36Z" fill="#fcfbfa"/>
            <path id="Path_561" data-name="Path 561" d="M181.487,277.776v.125l.381-.219v-.125Z" fill="#ebe7e3"/>
            <path id="Path_562" data-name="Path 562" d="M181.487,277.9l-54.368-31.36v-.125l54.368,31.36Z" fill="#cdc6bc"/>
          </g>
          <g id="Group_189" data-name="Group 189">
            <path id="Path_563" data-name="Path 563" d="M183.857,276.459,129.489,245.1l.381-.219,54.119,31.579Z" fill="#ebe7e3"/>
            <path id="Path_564" data-name="Path 564" d="M183.989,276.335l-54.368-31.36.381-.219,54.368,31.36Z" fill="#fcfbfa"/>
            <path id="Path_565" data-name="Path 565" d="M183.989,276.335v.125l.381-.219v-.125Z" fill="#ebe7e3"/>
            <path id="Path_566" data-name="Path 566" d="M183.989,276.459,129.621,245.1v-.125l54.368,31.36Z" fill="#cdc6bc"/>
          </g>
          <g id="Group_190" data-name="Group 190">
            <path id="Path_567" data-name="Path 567" d="M186.359,275.018l-54.368-31.36.381-.219,54.119,31.579Z" fill="#ebe7e3"/>
            <path id="Path_568" data-name="Path 568" d="M186.491,274.894l-54.368-31.36.381-.219,54.368,31.36Z" fill="#fcfbfa"/>
            <path id="Path_569" data-name="Path 569" d="M186.491,274.894v.125l.381-.219v-.125Z" fill="#ebe7e3"/>
            <path id="Path_570" data-name="Path 570" d="M186.491,275.018l-54.368-31.36v-.125l54.368,31.36Z" fill="#cdc6bc"/>
          </g>
        </g>
        <g id="Group_195" data-name="Group 195">
          <g id="Group_192" data-name="Group 192">
            <path id="Path_571" data-name="Path 571" d="M174.145,282.734l-.9-.512.709-.421.7.933Z" fill="#ebe7e3"/>
            <path id="Path_572" data-name="Path 572" d="M174.654,282.734l.709-.421v-.351l-.709.421Z" fill="#e07427"/>
            <path id="Path_573" data-name="Path 573" d="M174.654,282.384l-.9-.512.709-.421.9.512Z" fill="#ff9a2e"/>
            <path id="Path_574" data-name="Path 574" d="M174.654,282.384l-.9-.512v.351l.9.512Z" fill="#e06f2e"/>
          </g>
          <g id="Group_193" data-name="Group 193">
            <path id="Path_575" data-name="Path 575" d="M177.689,280.63l-.9-.512.709-.421.7.933Z" fill="#ebe7e3"/>
            <path id="Path_576" data-name="Path 576" d="M178.2,280.63l.709-.421v-.351l-.709.421Z" fill="#e07427"/>
            <path id="Path_577" data-name="Path 577" d="M178.2,280.279l-.9-.512.709-.421.9.512Z" fill="#ff9a2e"/>
            <path id="Path_578" data-name="Path 578" d="M178.2,280.279l-.9-.512v.351l.9.512Z" fill="#e06f2e"/>
          </g>
          <g id="Group_194" data-name="Group 194">
            <path id="Path_579" data-name="Path 579" d="M181.234,278.526l-.9-.512.709-.421.7.933Z" fill="#ebe7e3"/>
            <path id="Path_580" data-name="Path 580" d="M181.743,278.526l.709-.421v-.351l-.709.421Z" fill="#e07427"/>
            <path id="Path_581" data-name="Path 581" d="M181.743,278.175l-.9-.512.709-.421.9.512Z" fill="#ff9a2e"/>
            <path id="Path_582" data-name="Path 582" d="M181.743,278.175l-.9-.512v.351l.9.512Z" fill="#e06f2e"/>
          </g>
        </g>
        <path id="Path_583" data-name="Path 583" d="M179.511,303.621l4.649-2.678-.9-1.1-4.649,2.678Z" fill="#cdc6bc"/>
        <path id="Path_584" data-name="Path 584" d="M186,299.857l4.649-2.678-.9-1.1-4.649,2.678Z" fill="#cdc6bc"/>
        <path id="Path_585" data-name="Path 585" d="M181.482,300.181a.209.209,0,0,0,.335-.04.341.341,0,0,0-.03-.412.209.209,0,0,0-.335.041A.339.339,0,0,0,181.482,300.181Z" fill="#493f41"/>
        <path id="Path_586" data-name="Path 586" d="M181.5,300.152a.183.183,0,0,0,.292-.036.3.3,0,0,0-.026-.358.179.179,0,0,0-.274.011l-.019.024A.3.3,0,0,0,181.5,300.152Z" fill="#493f41"/>
        <path id="Path_587" data-name="Path 587" d="M181.638,299.7a1.086,1.086,0,0,1,.213.035c.052.022.03.385.03.385a.86.86,0,0,1-.225.088C181.554,300.226,181.638,299.7,181.638,299.7Z" fill="#493f41"/>
        <path id="Path_588" data-name="Path 588" d="M181.72,300.088a.143.143,0,0,0,.23-.028.234.234,0,0,0-.021-.283.144.144,0,0,0-.23.028A.234.234,0,0,0,181.72,300.088Z" fill="#5c504e"/>
        <path id="Path_589" data-name="Path 589" d="M182.347,295.572l.519,2.928-3.7,2.128-8.043-9.316-.063-.366,5.65-3.255,5.329,6.172Z" fill="#383838" style="mix-blend-mode: screen;isolation: isolate"/>
        <path id="Path_590" data-name="Path 590" d="M184.99,297.277l-1.13.651-.437-2.465Z" fill="#383838" style="mix-blend-mode: screen;isolation: isolate"/>
        <path id="Path_591" data-name="Path 591" d="M192.213,293.116l-3.062,1.764-7.339-8.5-.262-1.473,5.207-3,4.4,5.1.938,5.432Z" fill="#383838" style="mix-blend-mode: screen;isolation: isolate"/>
        <path id="Path_592" data-name="Path 592" d="M186.243,320.169l-1.3.747v-.575l1.3-.748Z" fill="#493f41"/>
        <path id="Path_593" data-name="Path 593" d="M186.128,320.133l-1.068.615v-.425l1.068-.615Z" fill="#e06f2e"/>
        <path id="Path_594" data-name="Path 594" d="M195.48,314.6l-1.068.615v-.425l1.068-.615Z" fill="#e06f2e"/>
        <path id="Path_595" data-name="Path 595" d="M179.448,300.081l-.293.277,2.468-.25-.027-.348Z" fill="#493f41"/>
        <path id="Path_596" data-name="Path 596" d="M181.806,299.057c-.026,0-7,3.611-7,3.611l-.074-.221,6.794-3.666Z" fill="#5c504e"/>
      </g>
      <g id="Group_199" data-name="Group 199">
        <g id="Group_197" data-name="Group 197">
          <path id="Path_597" data-name="Path 597" d="M146.417,292.325a2.036,2.036,0,0,1-1.011-.3l-11.433-6.585a5.219,5.219,0,0,1-2.232-4.219v-6.508a2.185,2.185,0,0,1,.9-1.988,1.7,1.7,0,0,1,1.734.107l11.433,6.585a5.22,5.22,0,0,1,2.232,4.219v6.508a2.183,2.183,0,0,1-.9,1.988A1.432,1.432,0,0,1,146.417,292.325Zm-.6-1a.945.945,0,0,0,.922.107,1.455,1.455,0,0,0,.5-1.287v-6.508a4.475,4.475,0,0,0-1.828-3.518l-11.433-6.586a.945.945,0,0,0-.922-.106,1.453,1.453,0,0,0-.5,1.287v6.508a4.478,4.478,0,0,0,1.827,3.519Z" fill="#e9e5e1"/>
        </g>
        <g id="Group_198" data-name="Group 198">
          <path id="Path_598" data-name="Path 598" d="M146.409,291.953a2.018,2.018,0,0,1-1.009-.3l-11.434-6.585a5.22,5.22,0,0,1-2.232-4.219v-6.508a2.183,2.183,0,0,1,.9-1.988,1.7,1.7,0,0,1,1.734.107l11.433,6.586a5.218,5.218,0,0,1,2.232,4.218v6.508a2.186,2.186,0,0,1-.9,1.988A1.444,1.444,0,0,1,146.409,291.953Zm-13.045-18.98a.625.625,0,0,0-.32.083,1.454,1.454,0,0,0-.5,1.287v6.508a4.478,4.478,0,0,0,1.828,3.519l11.433,6.585a.941.941,0,0,0,.922.107,1.455,1.455,0,0,0,.5-1.287v-6.508a4.478,4.478,0,0,0-1.827-3.518l-11.434-6.586A1.266,1.266,0,0,0,133.364,272.973Z" fill="#d9d3cc"/>
        </g>
      </g>
      <g id="Group_202" data-name="Group 202">
        <g id="Group_200" data-name="Group 200">
          <path id="Path_599" data-name="Path 599" d="M128.626,282.078a2.039,2.039,0,0,1-1.01-.3L116.183,275.2a5.218,5.218,0,0,1-2.232-4.219v-6.508a2.185,2.185,0,0,1,.9-1.988,1.7,1.7,0,0,1,1.735.107l11.433,6.586a5.218,5.218,0,0,1,2.232,4.218V279.9a2.184,2.184,0,0,1-.9,1.988A1.434,1.434,0,0,1,128.626,282.078Zm-.6-1a.943.943,0,0,0,.922.107,1.454,1.454,0,0,0,.5-1.287v-6.508a4.476,4.476,0,0,0-1.827-3.518l-11.433-6.586a.945.945,0,0,0-.922-.107,1.455,1.455,0,0,0-.5,1.287v6.508a4.474,4.474,0,0,0,1.828,3.518Z" fill="#e9e5e1"/>
        </g>
        <g id="Group_201" data-name="Group 201">
          <path id="Path_600" data-name="Path 600" d="M128.619,281.706a2.037,2.037,0,0,1-1.01-.3l-11.433-6.585a5.218,5.218,0,0,1-2.232-4.219V264.1a2.183,2.183,0,0,1,.9-1.988,1.7,1.7,0,0,1,1.734.107l11.433,6.586a5.217,5.217,0,0,1,2.232,4.219v6.508a2.18,2.18,0,0,1-.9,1.988A1.429,1.429,0,0,1,128.619,281.706Zm-13.045-18.98a.635.635,0,0,0-.32.083,1.455,1.455,0,0,0-.5,1.286V270.6a4.476,4.476,0,0,0,1.827,3.518l11.433,6.586a.943.943,0,0,0,.922.107,1.456,1.456,0,0,0,.5-1.287v-6.508a4.478,4.478,0,0,0-1.827-3.519l-11.433-6.585A1.258,1.258,0,0,0,115.574,262.726Z" fill="#d9d3cc"/>
        </g>
      </g>
      <path id="Path_601" data-name="Path 601" d="M153.214,298.095l-40.546-23.354v-1.173l40.546,23.354Z" fill="#f5b53d"/>
      <g id="Group_204" data-name="Group 204">
        <path id="Path_602" data-name="Path 602" d="M118.757,267.808v2.371a.583.583,0,0,0,.872.505l2.071-1.178a.581.581,0,0,0,0-1.009l-2.071-1.193A.583.583,0,0,0,118.757,267.808Z" fill="#de4037"/>
        <path id="Path_603" data-name="Path 603" d="M124.9,276.358v-2.371a.583.583,0,0,0-.872-.505l-2.071,1.178a.581.581,0,0,0,0,1.009l2.071,1.193A.583.583,0,0,0,124.9,276.358Z" fill="#de4037"/>
        <path id="Path_604" data-name="Path 604" d="M119.049,274l1.642.947a.582.582,0,0,0,.8-.8l-1.642-2.827a.583.583,0,0,0-1.088.292v1.881A.58.58,0,0,0,119.049,274Z" fill="#f5b53d"/>
        <path id="Path_605" data-name="Path 605" d="M124.605,270.169l-1.642-.946a.582.582,0,0,0-.8.8l1.642,2.827a.583.583,0,0,0,1.088-.292v-1.881A.582.582,0,0,0,124.605,270.169Z" fill="#f5b53d"/>
        <g id="Group_203" data-name="Group 203">
          <path id="Path_606" data-name="Path 606" d="M129.357,274.867c0,.853-.535,1.1-1.363.62l-1.063-.612v-2.806l1.094.631A2.588,2.588,0,0,1,129.357,274.867Zm-.829-.469a1.142,1.142,0,0,0-.521-.988l-.265-.153v1.366l.3.175C128.34,274.966,128.528,274.81,128.528,274.4Z" fill="#493f41"/>
          <path id="Path_607" data-name="Path 607" d="M131.659,274.791v.705l-1.262-.727v.344l1.146.66v.7l-1.146-.66v.348l1.293.745v.7l-2.1-1.213V273.6Z" fill="#493f41"/>
          <path id="Path_608" data-name="Path 608" d="M132.809,275.454v2.034l1.02.587v.772L132,277.793v-2.806Z" fill="#493f41"/>
          <path id="Path_609" data-name="Path 609" d="M134.852,276.631v2.806l-.812-.467v-2.807Z" fill="#493f41"/>
          <path id="Path_610" data-name="Path 610" d="M135.876,277.221l.507,2.134.5-1.552.828.478-.937,2.266-.839-.483-.93-3.342Z" fill="#493f41"/>
          <path id="Path_611" data-name="Path 611" d="M139.946,279.565v.705l-1.262-.727v.344l1.147.66v.7l-1.147-.66v.348l1.293.745v.7l-2.1-1.213v-2.806Z" fill="#493f41"/>
          <path id="Path_612" data-name="Path 612" d="M141.7,283.379l-.294-.9-.3-.175v.728l-.812-.467v-2.806l1.185.683a1.883,1.883,0,0,1,1.045,1.608c0,.409-.137.634-.388.665l.483,1.191Zm-.6-1.777.374.215c.175.1.276.035.276-.181a.548.548,0,0,0-.276-.488l-.374-.215Z" fill="#493f41"/>
          <path id="Path_613" data-name="Path 613" d="M144.3,284.008v.872l-.811-.467v-.852l-.9-2.47.808.466.493,1.365.475-.807.808.465Z" fill="#493f41"/>
          <path id="Path_614" data-name="Path 614" d="M127.591,277.16c-.065-.037-.107-.039-.107.021,0,.252.908.618.908,1.344,0,.446-.343.446-.737.218a2.915,2.915,0,0,1-.878-.826l.214-.374a2.629,2.629,0,0,0,.668.7c.086.05.14.05.14-.022,0-.26-.908-.611-.908-1.315,0-.4.3-.481.751-.219a2.806,2.806,0,0,1,.762.676l-.209.382A3.171,3.171,0,0,0,127.591,277.16Z" fill="#493f41"/>
          <path id="Path_615" data-name="Path 615" d="M130.023,278.084v.5l-.9-.519v.245l.821.473v.5l-.821-.473v.248l.926.533v.5l-1.507-.867v-2Z" fill="#493f41"/>
          <path id="Path_616" data-name="Path 616" d="M131.272,280.806l-.211-.641-.217-.125v.52l-.58-.334v-2l.848.488a1.345,1.345,0,0,1,.748,1.148c0,.292-.1.453-.278.474l.345.851Zm-.428-1.269.268.154c.126.073.2.026.2-.129a.389.389,0,0,0-.2-.348l-.268-.155Z" fill="#493f41"/>
          <path id="Path_617" data-name="Path 617" d="M132.544,279.536l.363,1.524.36-1.108.594.342-.671,1.617-.6-.346-.666-2.386Z" fill="#493f41"/>
          <path id="Path_618" data-name="Path 618" d="M134.55,280.691v2l-.58-.334v-2Z" fill="#493f41"/>
          <path id="Path_619" data-name="Path 619" d="M135.67,281.867c-.211-.121-.362-.017-.362.249a.806.806,0,0,0,.362.672.389.389,0,0,0,.4,0l.335.6a.739.739,0,0,1-.763-.039,1.932,1.932,0,0,1-.929-1.569c0-.589.4-.787.951-.47a2.182,2.182,0,0,1,.74.792l-.335.262A1.2,1.2,0,0,0,135.67,281.867Z" fill="#493f41"/>
          <path id="Path_620" data-name="Path 620" d="M138,282.678v.5l-.9-.52v.246l.821.472v.5l-.821-.473v.249l.926.533v.5l-1.506-.868v-2Z" fill="#493f41"/>
        </g>
      </g>
      <path id="Path_621" data-name="Path 621" d="M190.77,294.813a.21.21,0,0,0,.335-.04.341.341,0,0,0-.03-.412.21.21,0,0,0-.335.04A.341.341,0,0,0,190.77,294.813Z" fill="#493f41"/>
      <path id="Path_622" data-name="Path 622" d="M190.789,294.785a.183.183,0,0,0,.292-.036.3.3,0,0,0-.026-.359.18.18,0,0,0-.274.012c-.006.007-.012.015-.019.024A.3.3,0,0,0,190.789,294.785Z" fill="#493f41"/>
      <path id="Path_623" data-name="Path 623" d="M190.926,294.333a1.086,1.086,0,0,1,.213.035c.053.022.031.385.031.385a.841.841,0,0,1-.226.088C190.843,294.858,190.926,294.333,190.926,294.333Z" fill="#493f41"/>
      <path id="Path_624" data-name="Path 624" d="M191.008,294.721a.144.144,0,0,0,.23-.028.234.234,0,0,0-.021-.283.143.143,0,0,0-.23.028A.234.234,0,0,0,191.008,294.721Z" fill="#5c504e"/>
      <path id="Path_625" data-name="Path 625" d="M188.736,294.713l-.293.277,2.468-.25-.027-.348Z" fill="#493f41"/>
      <path id="Path_626" data-name="Path 626" d="M191.094,293.69c-.026,0-7,3.611-7,3.611l-.075-.22,6.794-3.666Z" fill="#5c504e"/>
      <path id="Path_627" data-name="Path 627" d="M191.149,299.724l3.792,4.719-11.2,6.46-5.92-6.558,5.861,6.826,11.564-6.661Z" fill="#faf8f5"/>
    </g>
    <path id="Path_628" data-name="Path 628" d="M187.64,322.063l3.3-1.9a1.4,1.4,0,0,0,.585-1.116v-1.878c0-.43-.262-.628-.585-.442l-3.3,1.9a1.4,1.4,0,0,0-.586,1.116v1.878C187.054,322.052,187.316,322.249,187.64,322.063Z" fill="#faf8f5"/>
    <path id="Path_629" data-name="Path 629" d="M191.7,317.244v1.881a1.4,1.4,0,0,1-.59,1.115l-3.3,1.9c-.324.186-.583-.009-.583-.437v-1.881a1.394,1.394,0,0,1,.583-1.114l3.3-1.9C191.438,316.614,191.7,316.816,191.7,317.244Z" fill="#ebe7e3"/>
    <path id="Path_630" data-name="Path 630" d="M191.7,317.244v.21l-4.474,2.575v-.21a1.394,1.394,0,0,1,.583-1.114l3.3-1.9C191.438,316.614,191.7,316.816,191.7,317.244Z" fill="#ff8e8c" style="mix-blend-mode: multiply;isolation: isolate"/>
    <g id="Group_206" data-name="Group 206">
      <path id="Path_631" data-name="Path 631" d="M110.7,285.107c0-.05-.014-3.806-.01-6.055-.415-.2-.851-.413-1.1-.543l-.229-.122.064-.306a2.36,2.36,0,0,1,1.572-.869.363.363,0,0,1,.306.368c0,.206-.007.594-.008,1.091.408.194.736.348.744.351a.764.764,0,0,0,.839.026l.416-.265.327.51-.417.265a1.347,1.347,0,0,1-1.46-.008c-.01,0-.192-.087-.45-.209,0,2.262.009,5.717.009,5.765Zm-.495-6.965c.147.074.315.155.487.238,0-.19,0-.359,0-.5A3.812,3.812,0,0,0,110.2,278.142Z" fill="#898184"/>
    </g>
    <path id="Path_632" data-name="Path 632" d="M111.217,284.982a.476.476,0,0,0-.429,0c-.119.068-.118.179,0,.248a.479.479,0,0,0,.429,0C111.336,285.162,111.335,285.051,111.217,284.982Z" fill="#898184"/>
    <path id="Path_633" data-name="Path 633" d="M113.243,278.917a.472.472,0,0,0,.221.367c.119.066.214.009.211-.128a.473.473,0,0,0-.22-.367C113.335,278.722,113.241,278.779,113.243,278.917Z" fill="#898184"/>
  </g>
</svg>
