<svg xmlns="http://www.w3.org/2000/svg" xmlns:xlink="http://www.w3.org/1999/xlink" width="81" height="82" viewBox="0 0 81 82">
  <defs>
    <clipPath id="clip-path">
      <path id="Path_2028" data-name="Path 2028" d="M346.592,210.878l-.025,8.858a1.913,1.913,0,0,1-1.125,1.565,6.062,6.062,0,0,1-5.472,0,1.926,1.926,0,0,1-1.143-1.587l.025-8.858a1.928,1.928,0,0,0,1.143,1.587,6.062,6.062,0,0,0,5.472,0A1.91,1.91,0,0,0,346.592,210.878Z" fill="none"/>
    </clipPath>
    <clipPath id="clip-path-2">
      <path id="Path_2034" data-name="Path 2034" d="M346.76,219.509v.295a2,2,0,0,1-1.174,1.638,6.36,6.36,0,0,1-5.731,0,2.018,2.018,0,0,1-1.195-1.662v-.295a2.011,2.011,0,0,0,1.195,1.661,6.354,6.354,0,0,0,5.729,0A2,2,0,0,0,346.76,219.509Z" fill="none"/>
    </clipPath>
    <clipPath id="clip-path-3">
      <path id="Path_2040" data-name="Path 2040" d="M346.76,215.161v.295a2,2,0,0,1-1.174,1.638,6.36,6.36,0,0,1-5.731,0,2.018,2.018,0,0,1-1.195-1.662v-.295a2.011,2.011,0,0,0,1.195,1.661,6.361,6.361,0,0,0,5.729,0A2,2,0,0,0,346.76,215.161Z" fill="none"/>
    </clipPath>
    <clipPath id="clip-path-4">
      <path id="Path_2046" data-name="Path 2046" d="M346.579,210.722v.295a1.924,1.924,0,0,0-1.142-1.587,6.062,6.062,0,0,0-5.472,0A1.907,1.907,0,0,0,338.84,211V210.7a1.909,1.909,0,0,1,1.125-1.565,6.062,6.062,0,0,1,5.472,0A1.923,1.923,0,0,1,346.579,210.722Z" fill="none"/>
    </clipPath>
    <clipPath id="clip-path-5">
      <path id="Path_2065" data-name="Path 2065" d="M346.76,210.723v.295a2,2,0,0,1-1.174,1.638,6.36,6.36,0,0,1-5.731,0,2.016,2.016,0,0,1-1.195-1.662v-.3a2.011,2.011,0,0,0,1.195,1.662,6.351,6.351,0,0,0,5.729,0A1.994,1.994,0,0,0,346.76,210.723Z" fill="none"/>
    </clipPath>
    <linearGradient id="linear-gradient" x1="0.789" y1="1.14" x2="0.065" y2="-0.043" gradientUnits="objectBoundingBox">
      <stop offset="0"/>
      <stop offset="1" stop-color="#49768f"/>
    </linearGradient>
    <linearGradient id="linear-gradient-2" x1="0.95" y1="0.866" x2="-0.08" y2="0.027" xlink:href="#linear-gradient"/>
    <clipPath id="clip-path-6">
      <path id="Path_2125" data-name="Path 2125" d="M277.584,201.842l.426-.248a2.013,2.013,0,0,1,.81.815,2.082,2.082,0,0,1,.224.974l-.428.247a2.052,2.052,0,0,0-.224-.974A2.008,2.008,0,0,0,277.584,201.842Z" fill="none"/>
    </clipPath>
    <clipPath id="clip-path-7">
      <path id="Path_2156" data-name="Path 2156" d="M285.111,206.982l.428-.247a.251.251,0,0,0-.108.238l-.428.246A.252.252,0,0,1,285.111,206.982Z" fill="#bb5a31"/>
    </clipPath>
    <clipPath id="clip-path-8">
      <path id="Path_2158" data-name="Path 2158" d="M284.658,206.2l.428-.247-.42.242Z" fill="none"/>
    </clipPath>
    <clipPath id="clip-path-9">
      <path id="Path_2172" data-name="Path 2172" d="M290.286,212.73l.426-.247a1.937,1.937,0,0,0,.2.751.7.7,0,0,0,.254.285,4.275,4.275,0,0,1-.408.257.7.7,0,0,1-.273-.3A1.907,1.907,0,0,1,290.286,212.73Z" fill="none"/>
    </clipPath>
    <clipPath id="clip-path-10">
      <path id="Path_2176" data-name="Path 2176" d="M291.951,214.356l-.426.247a.406.406,0,0,0,.076-.057,1,1,0,0,0,.241-.759,2.05,2.05,0,0,0-.1-.536c-.025-.085-.058-.184-.1-.293a5.631,5.631,0,0,0-.376-.769c-.048-.085-.151-.246-.3-.481l.428-.247c.152.235.255.4.3.481a5.381,5.381,0,0,1,.376.769c.043.109.076.207.1.293a2.04,2.04,0,0,1,.1.536.989.989,0,0,1-.24.758A.354.354,0,0,1,291.951,214.356Z" fill="none"/>
    </clipPath>
    <clipPath id="clip-path-11">
      <path id="Path_2181" data-name="Path 2181" d="M290.755,209.338l.426-.248a2.034,2.034,0,0,1,.6.526,2.152,2.152,0,0,1,.316.573,2.418,2.418,0,0,1,.144.663l-.428.247a2.415,2.415,0,0,0-.143-.663,2.155,2.155,0,0,0-.317-.573A2.024,2.024,0,0,0,290.755,209.338Z" fill="none"/>
    </clipPath>
    <clipPath id="clip-path-12">
      <path id="Path_2198" data-name="Path 2198" d="M340.031,214.175l-.025,8.858a1.911,1.911,0,0,1-1.125,1.565,6.062,6.062,0,0,1-5.472,0,1.928,1.928,0,0,1-1.143-1.587l.026-8.858a1.923,1.923,0,0,0,1.142,1.585,6.062,6.062,0,0,0,5.472,0A1.907,1.907,0,0,0,340.031,214.175Z" fill="none"/>
    </clipPath>
    <clipPath id="clip-path-13">
      <path id="Path_2204" data-name="Path 2204" d="M340.2,222.807v.295a2,2,0,0,1-1.175,1.638,6.36,6.36,0,0,1-5.73,0,2.018,2.018,0,0,1-1.195-1.662v-.295a2.015,2.015,0,0,0,1.195,1.661,6.354,6.354,0,0,0,5.729,0A2,2,0,0,0,340.2,222.807Z" fill="none"/>
    </clipPath>
    <clipPath id="clip-path-14">
      <path id="Path_2210" data-name="Path 2210" d="M340.2,218.458v.3a2,2,0,0,1-1.175,1.638,6.36,6.36,0,0,1-5.73,0,2.018,2.018,0,0,1-1.195-1.662v-.3a2.015,2.015,0,0,0,1.195,1.662,6.357,6.357,0,0,0,5.729,0A2,2,0,0,0,340.2,218.458Z" fill="none"/>
    </clipPath>
    <clipPath id="clip-path-15">
      <path id="Path_2216" data-name="Path 2216" d="M340.02,214.02v.295a1.926,1.926,0,0,0-1.143-1.587,6.062,6.062,0,0,0-5.472,0,1.911,1.911,0,0,0-1.125,1.564V214a1.909,1.909,0,0,1,1.125-1.564,6.062,6.062,0,0,1,5.472,0A1.927,1.927,0,0,1,340.02,214.02Z" fill="none"/>
    </clipPath>
    <clipPath id="clip-path-16">
      <path id="Path_2235" data-name="Path 2235" d="M340.2,214.021v.295a2,2,0,0,1-1.175,1.638,6.36,6.36,0,0,1-5.73,0,2.018,2.018,0,0,1-1.195-1.662V214a2.013,2.013,0,0,0,1.195,1.661,6.351,6.351,0,0,0,5.729,0A2,2,0,0,0,340.2,214.021Z" fill="none"/>
    </clipPath>
  </defs>
  <g id="Vector_Smart_Object" data-name="Vector Smart Object" transform="translate(-267.141 -161.325)">
    <g id="Group_1056" data-name="Group 1056">
      <g id="Group_771" data-name="Group 771" opacity="0.2" style="mix-blend-mode: multiply;isolation: isolate">
        <path id="Path_1959" data-name="Path 1959" d="M339.747,221.344c1.759,1.01,1.768,2.647.019,3.656a7.035,7.035,0,0,1-6.349,0c-1.76-1.009-1.769-2.646-.021-3.655A7.036,7.036,0,0,1,339.747,221.344Z" fill="#49768f" opacity="0.2" style="mix-blend-mode: multiply;isolation: isolate"/>
      </g>
      <g id="Group_772" data-name="Group 772" opacity="0.2" style="mix-blend-mode: multiply;isolation: isolate">
        <path id="Path_1960" data-name="Path 1960" d="M346.532,217.926c1.759,1.009,1.769,2.646.02,3.656a7.038,7.038,0,0,1-6.35,0c-1.76-1.01-1.768-2.647-.02-3.656A7.034,7.034,0,0,1,346.532,217.926Z" fill="#49768f" opacity="0.2" style="mix-blend-mode: multiply;isolation: isolate"/>
      </g>
      <path id="Path_1961" data-name="Path 1961" d="M295.9,238.361l-22.41-12.86c-1.726-.991-1.726-2.6,0-3.587l44.7-25.317a6.946,6.946,0,0,1,6.249,0l22.41,12.861c1.726.99,1.726,2.6,0,3.587l-44.7,25.316A6.939,6.939,0,0,1,295.9,238.361Z" fill="#49768f" opacity="0.2" style="mix-blend-mode: multiply;isolation: isolate"/>
      <g id="Group_817" data-name="Group 817">
        <g id="Group_778" data-name="Group 778">
          <g id="Group_777" data-name="Group 777" style="isolation: isolate">
            <g id="Group_773" data-name="Group 773">
              <path id="Path_1962" data-name="Path 1962" d="M297.735,217.263l42.719-24.676-.063,22.1-42.719,24.676Z" fill="#bbc6cb"/>
            </g>
            <g id="Group_774" data-name="Group 774">
              <path id="Path_1963" data-name="Path 1963" d="M340.455,192.587l-.006,2.133-42.719,24.511.006-1.967Z" fill="#bbc6cb"/>
            </g>
            <g id="Group_775" data-name="Group 775">
              <path id="Path_1964" data-name="Path 1964" d="M267.637,199.991l42.719-24.676,30.1,17.272-42.719,24.676Z" fill="#dcdcdc"/>
            </g>
            <g id="Group_776" data-name="Group 776">
              <path id="Path_1965" data-name="Path 1965" d="M297.735,217.265l-.029,11.047-.034,11.049-4.161-2.388-.606-.346V234.8l-19-10.9c-.006,0-1.566.924-1.566.924l-.607-.345-4.16-2.389.029-11.045.034-11.05,15.047,8.637Z" fill="#f0f3ed"/>
            </g>
          </g>
        </g>
        <g id="Group_794" data-name="Group 794">
          <g id="Group_793" data-name="Group 793" style="isolation: isolate">
            <g id="Group_779" data-name="Group 779">
              <path id="Path_1966" data-name="Path 1966" d="M267.573,200.037l42.719-24.676.43.246L268,200.284Z" fill="#dcdcdc"/>
            </g>
            <g id="Group_780" data-name="Group 780">
              <path id="Path_1967" data-name="Path 1967" d="M268.016,195.51l42.719-24.676-.013,4.773L268,200.284Z" fill="#b3452d"/>
            </g>
            <g id="Group_781" data-name="Group 781">
              <path id="Path_1968" data-name="Path 1968" d="M274.374,187.1l42.719-24.676-6.358,8.411L268.016,195.51Z" fill="#7a2f1e"/>
            </g>
            <g id="Group_782" data-name="Group 782">
              <path id="Path_1969" data-name="Path 1969" d="M297.241,217.063l42.719-24.676.43.246-42.719,24.676Z" fill="#dcdcdc"/>
            </g>
            <g id="Group_783" data-name="Group 783">
              <path id="Path_1970" data-name="Path 1970" d="M297.255,212.289l42.719-24.676-.014,4.773-42.719,24.676Z" fill="#c5c5c5"/>
            </g>
            <g id="Group_784" data-name="Group 784">
              <path id="Path_1971" data-name="Path 1971" d="M274.374,187.1l42.719-24.676,8.308.024-42.719,24.676Z" fill="#9e9e9e"/>
            </g>
            <g id="Group_785" data-name="Group 785">
              <path id="Path_1972" data-name="Path 1972" d="M298.115,212.508l42.719-24.676-.014,5.048L298.1,217.556Z" fill="#bb2d36"/>
            </g>
            <g id="Group_786" data-name="Group 786">
              <path id="Path_1973" data-name="Path 1973" d="M273.768,186l42.719-24.676,8.917.024-42.719,24.676Z" fill="#fc5959"/>
            </g>
            <g id="Group_787" data-name="Group 787">
              <path id="Path_1974" data-name="Path 1974" d="M282.683,187.123,325.4,162.447l8.282,9.5-42.719,24.676Z" fill="#fbfbfb"/>
            </g>
            <g id="Group_788" data-name="Group 788">
              <path id="Path_1975" data-name="Path 1975" d="M290.964,196.619l42.719-24.676,6.291,15.67-42.719,24.676Z" fill="#f4f4f4"/>
            </g>
            <g id="Group_789" data-name="Group 789">
              <path id="Path_1976" data-name="Path 1976" d="M282.683,187.123l8.281,9.5,6.291,15.67-.014,4.774.429.246-30.1-17.272.43.247.014-4.774,6.358-8.411Z" fill="#f0f3ed"/>
            </g>
            <g id="Group_790" data-name="Group 790">
              <path id="Path_1977" data-name="Path 1977" d="M282.686,186.025,325.4,161.349l8.89,10.2L291.576,196.22Z" fill="#f44545"/>
            </g>
            <g id="Group_791" data-name="Group 791">
              <path id="Path_1978" data-name="Path 1978" d="M282.686,186.025l8.89,10.2,6.539,16.288-.014,5.048-.43-.247-.429-.246.014-4.774-6.291-15.67-8.281-9.5-8.309-.025-6.358,8.411L268,200.284l-.43-.247-.432-.247.015-5.048L273.768,186Z" fill="#bb3e45"/>
            </g>
            <g id="Group_792" data-name="Group 792">
              <path id="Path_1979" data-name="Path 1979" d="M291.576,196.22,334.3,171.544l6.539,16.288-42.719,24.676Z" fill="#e63b33"/>
            </g>
          </g>
        </g>
        <g id="Group_816" data-name="Group 816">
          <g id="Group_801" data-name="Group 801">
            <g id="Group_800" data-name="Group 800" style="isolation: isolate">
              <g id="Group_795" data-name="Group 795">
                <path id="Path_1980" data-name="Path 1980" d="M301.913,210.7l.427-.247-.015,5.118-.427.247Z" fill="#c57a50"/>
              </g>
              <g id="Group_796" data-name="Group 796">
                <path id="Path_1981" data-name="Path 1981" d="M277.023,183.784l.427-.247,9.247.005-.427.247Z" fill="#ffbd97"/>
              </g>
              <g id="Group_797" data-name="Group 797">
                <path id="Path_1982" data-name="Path 1982" d="M295.24,194.076l.427-.246,6.674,16.627-.427.247Z" fill="#f49764"/>
              </g>
              <g id="Group_798" data-name="Group 798">
                <path id="Path_1983" data-name="Path 1983" d="M286.27,183.789l.427-.247,8.969,10.287-.427.246Z" fill="#fb9c66"/>
              </g>
              <g id="Group_799" data-name="Group 799">
                <path id="Path_1984" data-name="Path 1984" d="M286.27,183.789l8.969,10.287,6.674,16.627-.015,5.118-.215-.123.014-5.05-6.612-16.472-8.817-10.111-9.152-.008-.094-.273Z" fill="#9a6a4e"/>
              </g>
            </g>
          </g>
          <g id="Group_802" data-name="Group 802">
            <path id="Path_1985" data-name="Path 1985" d="M306.434,208.092l.428-.247-.015,5.118-.427.247Z" fill="#c57a50"/>
            <path id="Path_1986" data-name="Path 1986" d="M281.544,181.173l.427-.247,9.247.006-.428.246Z" fill="#ffbd97"/>
            <path id="Path_1987" data-name="Path 1987" d="M299.76,191.466l.427-.247,6.674,16.627-.428.247Z" fill="#f49764"/>
            <path id="Path_1988" data-name="Path 1988" d="M290.791,181.178l.428-.246,8.969,10.287-.427.247Z" fill="#fb9c66"/>
            <path id="Path_1989" data-name="Path 1989" d="M290.791,181.178l8.969,10.287,6.674,16.627-.014,5.118-.215-.123.014-5.05-6.612-16.472-8.817-10.111-9.152-.008-.094-.273Z" fill="#9a6a4e"/>
          </g>
          <g id="Group_803" data-name="Group 803">
            <path id="Path_1990" data-name="Path 1990" d="M310.955,205.482l.427-.247-.015,5.118-.427.246Z" fill="#c57a50"/>
            <path id="Path_1991" data-name="Path 1991" d="M286.064,178.562l.427-.246,9.247.005-.427.246Z" fill="#ffbd97"/>
            <path id="Path_1992" data-name="Path 1992" d="M304.281,188.855l.427-.247,6.674,16.627-.427.247Z" fill="#f49764"/>
            <path id="Path_1993" data-name="Path 1993" d="M295.312,178.567l.427-.246,8.969,10.287-.427.247Z" fill="#fb9c66"/>
            <path id="Path_1994" data-name="Path 1994" d="M295.312,178.567l8.969,10.287,6.674,16.627-.015,5.118-.214-.123.014-5.05-6.612-16.472-8.817-10.111-9.152-.008-.094-.273Z" fill="#9a6a4e"/>
          </g>
          <g id="Group_804" data-name="Group 804">
            <path id="Path_1995" data-name="Path 1995" d="M315.475,202.871l.428-.246-.015,5.118-.427.247Z" fill="#c57a50"/>
            <path id="Path_1996" data-name="Path 1996" d="M290.585,175.952l.428-.246,9.247.005-.428.247Z" fill="#ffbd97"/>
            <path id="Path_1997" data-name="Path 1997" d="M308.8,186.244l.427-.246,6.674,16.627-.428.246Z" fill="#f49764"/>
            <path id="Path_1998" data-name="Path 1998" d="M299.832,175.957l.428-.247L309.228,186l-.427.246Z" fill="#fb9c66"/>
            <path id="Path_1999" data-name="Path 1999" d="M299.832,175.957l8.969,10.287,6.674,16.627-.014,5.119-.215-.124.014-5.05-6.612-16.472-8.817-10.111-9.152-.008-.094-.273Z" fill="#9a6a4e"/>
          </g>
          <g id="Group_805" data-name="Group 805">
            <path id="Path_2000" data-name="Path 2000" d="M320,200.26l.427-.247-.015,5.118-.427.247Z" fill="#c57a50"/>
            <path id="Path_2001" data-name="Path 2001" d="M295.106,173.341l.427-.247,9.247,0-.427.247Z" fill="#ffbd97"/>
            <path id="Path_2002" data-name="Path 2002" d="M313.322,183.633l.427-.247,6.674,16.627-.427.247Z" fill="#f49764"/>
            <path id="Path_2003" data-name="Path 2003" d="M304.353,173.347l.427-.247,8.969,10.287-.427.247Z" fill="#fb9c66"/>
            <path id="Path_2004" data-name="Path 2004" d="M304.353,173.347l8.969,10.287L320,200.26l-.015,5.118-.214-.124.014-5.05-6.613-16.472-8.816-10.111-9.152-.009-.094-.273Z" fill="#9a6a4e"/>
          </g>
          <g id="Group_806" data-name="Group 806">
            <path id="Path_2005" data-name="Path 2005" d="M324.516,197.65l.428-.247-.015,5.119-.428.246Z" fill="#c57a50"/>
            <path id="Path_2006" data-name="Path 2006" d="M299.626,170.731l.428-.247,9.247,0-.428.247Z" fill="#ffbd97"/>
            <path id="Path_2007" data-name="Path 2007" d="M317.842,181.023l.427-.246,6.674,16.627-.428.247Z" fill="#f49764"/>
            <path id="Path_2008" data-name="Path 2008" d="M308.873,170.736l.428-.247,8.969,10.287-.427.246Z" fill="#fb9c66"/>
            <path id="Path_2009" data-name="Path 2009" d="M308.873,170.736l8.969,10.287,6.674,16.627-.015,5.118-.215-.123.014-5.05-6.612-16.472-8.817-10.111L299.72,171l-.094-.273Z" fill="#9a6a4e"/>
          </g>
          <g id="Group_807" data-name="Group 807">
            <path id="Path_2010" data-name="Path 2010" d="M329.037,195.039l.427-.246-.015,5.118-.427.247Z" fill="#c57a50"/>
            <path id="Path_2011" data-name="Path 2011" d="M304.147,168.12l.427-.247,9.247.005-.427.247Z" fill="#ffbd97"/>
            <path id="Path_2012" data-name="Path 2012" d="M322.363,178.412l.427-.247,6.674,16.627-.427.246Z" fill="#f49764"/>
            <path id="Path_2013" data-name="Path 2013" d="M313.394,168.125l.427-.247,8.969,10.287-.427.247Z" fill="#fb9c66"/>
            <path id="Path_2014" data-name="Path 2014" d="M313.394,168.125l8.969,10.287,6.674,16.627-.015,5.118-.215-.123.014-5.05-6.612-16.472L313.393,168.4l-9.152-.008-.094-.273Z" fill="#9a6a4e"/>
          </g>
          <g id="Group_808" data-name="Group 808">
            <path id="Path_2015" data-name="Path 2015" d="M333.558,192.428l.428-.246-.015,5.118-.428.247Z" fill="#c57a50"/>
            <path id="Path_2016" data-name="Path 2016" d="M308.667,165.509l.428-.247,9.247.005-.427.247Z" fill="#ffbd97"/>
            <path id="Path_2017" data-name="Path 2017" d="M326.884,175.8l.427-.247,6.674,16.627-.428.246Z" fill="#f49764"/>
            <path id="Path_2018" data-name="Path 2018" d="M317.914,165.514l.427-.247,8.969,10.287-.427.247Z" fill="#fb9c66"/>
            <path id="Path_2019" data-name="Path 2019" d="M317.914,165.514l8.969,10.287,6.674,16.627-.015,5.119-.215-.123.014-5.05L326.731,175.9l-8.817-10.111-9.152-.008-.094-.273Z" fill="#9a6a4e"/>
          </g>
          <g id="Group_815" data-name="Group 815">
            <g id="Group_814" data-name="Group 814" style="isolation: isolate">
              <g id="Group_809" data-name="Group 809">
                <path id="Path_2020" data-name="Path 2020" d="M338.079,189.818l.427-.247-.015,5.118-.427.247Z" fill="#c57a50"/>
              </g>
              <g id="Group_810" data-name="Group 810">
                <path id="Path_2021" data-name="Path 2021" d="M313.188,162.9l.427-.247,9.247.005-.427.247Z" fill="#ffbd97"/>
              </g>
              <g id="Group_811" data-name="Group 811">
                <path id="Path_2022" data-name="Path 2022" d="M331.4,173.191l.427-.247,6.674,16.627-.427.247Z" fill="#f49764"/>
              </g>
              <g id="Group_812" data-name="Group 812">
                <path id="Path_2023" data-name="Path 2023" d="M322.435,162.9l.427-.247,8.969,10.287-.427.247Z" fill="#fb9c66"/>
              </g>
              <g id="Group_813" data-name="Group 813">
                <path id="Path_2024" data-name="Path 2024" d="M322.435,162.9l8.969,10.287,6.674,16.627-.015,5.118-.214-.123.014-5.05-6.612-16.472-8.817-10.111-9.152-.009-.094-.273Z" fill="#9a6a4e"/>
              </g>
            </g>
          </g>
        </g>
      </g>
      <g id="Group_843" data-name="Group 843">
        <g id="Group_823" data-name="Group 823">
          <g id="Group_822" data-name="Group 822" style="isolation: isolate">
            <g id="Group_820" data-name="Group 820" style="isolation: isolate">
              <g id="Group_819" data-name="Group 819" clip-path="url(#clip-path)">
                <g id="Group_818" data-name="Group 818" style="isolation: isolate">
                  <path id="Path_2025" data-name="Path 2025" d="M346.592,210.912a1.325,1.325,0,0,1-.026.221,1.389,1.389,0,0,1-.062.216,1.487,1.487,0,0,1-.1.219,1.72,1.72,0,0,1-.156.23,2.1,2.1,0,0,1-.239.257,2.993,2.993,0,0,1-.491.361l-.047.028a4.42,4.42,0,0,1-.848.37l-.025,8.858a4.35,4.35,0,0,0,.848-.37l.046-.028a2.944,2.944,0,0,0,.491-.361,2.212,2.212,0,0,0,.24-.257,1.715,1.715,0,0,0,.156-.23,1.477,1.477,0,0,0,.1-.219,1.352,1.352,0,0,0,.063-.216,1.326,1.326,0,0,0,.025-.22c0-.035.026-8.893.026-8.893Z" fill="#ff8726"/>
                  <path id="Path_2026" data-name="Path 2026" d="M343.887,212.995c-.162.029-.327.052-.493.068-.142.013-.286.024-.43.028s-.264.006-.4,0-.255-.01-.381-.02-.252-.025-.377-.043-.257-.04-.384-.066l-.025,8.858c.126.027.254.048.384.067s.249.03.377.041.253.017.38.02.265,0,.4,0,.287-.015.429-.028c.167-.017.332-.039.494-.068a5.493,5.493,0,0,0,.732-.182l.025-8.858A5.629,5.629,0,0,1,343.887,212.995Z" fill="#ffb424"/>
                  <path id="Path_2027" data-name="Path 2027" d="M341.024,212.866a4.713,4.713,0,0,1-.47-.157,4.332,4.332,0,0,1-.558-.266,1.928,1.928,0,0,1-1.143-1.587l-.025,8.858a1.926,1.926,0,0,0,1.143,1.587,4.317,4.317,0,0,0,.557.266q.228.089.47.158c.132.037.266.07.4.1l.025-8.858C341.29,212.936,341.155,212.9,341.024,212.866Z" fill="#ffce2b"/>
                </g>
              </g>
            </g>
            <g id="Group_821" data-name="Group 821">
              <path id="Path_2029" data-name="Path 2029" d="M345.45,209.292c1.516.869,1.524,2.279.017,3.151a6.062,6.062,0,0,1-5.472,0c-1.516-.871-1.524-2.281-.018-3.151A6.061,6.061,0,0,1,345.45,209.292Z" fill="#ffce2b"/>
            </g>
          </g>
        </g>
        <g id="Group_828" data-name="Group 828">
          <g id="Group_827" data-name="Group 827" style="isolation: isolate">
            <g id="Group_826" data-name="Group 826" style="isolation: isolate">
              <g id="Group_825" data-name="Group 825" clip-path="url(#clip-path-2)">
                <g id="Group_824" data-name="Group 824" style="isolation: isolate">
                  <path id="Path_2030" data-name="Path 2030" d="M346.76,219.544a1.355,1.355,0,0,1-.027.232,1.4,1.4,0,0,1-.065.228,1.618,1.618,0,0,1-.108.229,1.882,1.882,0,0,1-.162.241,2.315,2.315,0,0,1-.252.268,3.1,3.1,0,0,1-.511.377v.295a3.1,3.1,0,0,0,.511-.376,2.419,2.419,0,0,0,.252-.269,1.954,1.954,0,0,0,.162-.24,1.458,1.458,0,0,0,.108-.23,1.4,1.4,0,0,0,.065-.228,1.329,1.329,0,0,0,.027-.231v-.3Z" fill="#85929c"/>
                  <path id="Path_2031" data-name="Path 2031" d="M345.584,221.147a4.67,4.67,0,0,1-.884.387,5.985,5.985,0,0,1-.767.189c-.17.03-.343.054-.518.072-.149.015-.3.025-.45.029s-.277.006-.416,0v.295c.139,0,.278,0,.416,0s.3-.016.45-.03c.175-.017.347-.041.518-.072a5.805,5.805,0,0,0,.767-.189,4.64,4.64,0,0,0,.886-.387l.048-.029v-.295Z" fill="#a2afb8"/>
                  <path id="Path_2032" data-name="Path 2032" d="M342.148,221.806c-.133-.011-.264-.026-.395-.044s-.27-.043-.4-.07-.284-.064-.423-.1c-.168-.048-.333-.1-.491-.165v.295a5.155,5.155,0,0,0,.492.165c.138.039.279.074.422.1s.267.05.4.07.263.034.395.044.266.018.4.021v-.295C342.415,221.824,342.281,221.817,342.148,221.806Z" fill="#bbc6cb"/>
                  <path id="Path_2033" data-name="Path 2033" d="M340.437,221.424v.295a4.276,4.276,0,0,1-.582-.277,2.018,2.018,0,0,1-1.195-1.662v-.295a2.011,2.011,0,0,0,1.195,1.661,4.274,4.274,0,0,0,.582.278Z" fill="#d3dbdc"/>
                </g>
              </g>
            </g>
            <path id="Path_2035" data-name="Path 2035" d="M346.579,219.5a1.912,1.912,0,0,1-1.124,1.569,6.072,6.072,0,0,1-5.473,0,1.956,1.956,0,0,1-1.142-1.542l0-.734a1.412,1.412,0,0,0,0,1.379,2.548,2.548,0,0,0,1.016.971,6.357,6.357,0,0,0,5.729,0,2.519,2.519,0,0,0,.993-.947,1.409,1.409,0,0,0,.015-1.362C346.583,218.819,346.579,219.5,346.579,219.5Z" fill="#e5eae7"/>
          </g>
        </g>
        <g id="Group_833" data-name="Group 833">
          <g id="Group_832" data-name="Group 832" style="isolation: isolate">
            <g id="Group_831" data-name="Group 831" style="isolation: isolate">
              <g id="Group_830" data-name="Group 830" clip-path="url(#clip-path-3)">
                <g id="Group_829" data-name="Group 829" style="isolation: isolate">
                  <path id="Path_2036" data-name="Path 2036" d="M346.76,215.2a1.355,1.355,0,0,1-.027.232,1.392,1.392,0,0,1-.065.226,1.631,1.631,0,0,1-.108.23,1.873,1.873,0,0,1-.162.24,2.236,2.236,0,0,1-.252.269,3.1,3.1,0,0,1-.511.377v.295a3.1,3.1,0,0,0,.511-.377,2.315,2.315,0,0,0,.252-.268,1.881,1.881,0,0,0,.162-.241,1.511,1.511,0,0,0,.174-.456,1.355,1.355,0,0,0,.027-.231v-.3Z" fill="#85929c"/>
                  <path id="Path_2037" data-name="Path 2037" d="M345.584,216.8a4.6,4.6,0,0,1-.884.386,5.985,5.985,0,0,1-.767.191q-.256.045-.518.071c-.149.016-.3.025-.45.03s-.277.006-.416,0v.295c.139,0,.278,0,.416,0s.3-.015.45-.03q.262-.025.518-.071a5.8,5.8,0,0,0,.767-.191,4.637,4.637,0,0,0,.886-.386l.048-.029v-.295Z" fill="#a2afb8"/>
                  <path id="Path_2038" data-name="Path 2038" d="M342.148,217.457c-.133-.011-.264-.026-.395-.044s-.27-.043-.4-.07-.284-.064-.423-.1c-.168-.048-.333-.1-.491-.165v.295c.158.062.323.117.492.165.138.039.279.074.422.1s.267.05.4.07.263.033.395.044.266.018.4.021v-.295C342.415,217.475,342.281,217.467,342.148,217.457Z" fill="#bbc6cb"/>
                  <path id="Path_2039" data-name="Path 2039" d="M340.437,217.076v.295a4.415,4.415,0,0,1-.582-.277,2.018,2.018,0,0,1-1.195-1.662v-.295a2.011,2.011,0,0,0,1.195,1.661,4.416,4.416,0,0,0,.582.278Z" fill="#d3dbdc"/>
                </g>
              </g>
            </g>
            <path id="Path_2041" data-name="Path 2041" d="M346.579,215.155a1.909,1.909,0,0,1-1.124,1.569,6.065,6.065,0,0,1-5.473,0,1.953,1.953,0,0,1-1.142-1.542l0-.734a1.414,1.414,0,0,0,0,1.38,2.555,2.555,0,0,0,1.016.971,6.365,6.365,0,0,0,5.729,0,2.519,2.519,0,0,0,.993-.947,1.409,1.409,0,0,0,.015-1.362C346.583,214.47,346.579,215.155,346.579,215.155Z" fill="#e5eae7"/>
          </g>
        </g>
        <g id="Group_842" data-name="Group 842">
          <g id="Group_841" data-name="Group 841" style="isolation: isolate">
            <g id="Group_836" data-name="Group 836" style="isolation: isolate">
              <g id="Group_835" data-name="Group 835" clip-path="url(#clip-path-4)">
                <g id="Group_834" data-name="Group 834" style="isolation: isolate">
                  <path id="Path_2042" data-name="Path 2042" d="M345.438,209.135a4.189,4.189,0,0,0-.558-.266v.295a4.26,4.26,0,0,1,.558.266,1.924,1.924,0,0,1,1.142,1.587v-.295A1.923,1.923,0,0,0,345.438,209.135Z" fill="#85929c"/>
                  <path id="Path_2043" data-name="Path 2043" d="M344.41,208.712c-.132-.037-.267-.07-.4-.1s-.255-.047-.384-.066-.25-.031-.377-.041-.254-.017-.38-.02-.265,0-.4,0-.287.013-.429.028c-.167.016-.332.039-.494.068a5.494,5.494,0,0,0-.732.182v.295a5.835,5.835,0,0,1,.733-.182c.161-.029.327-.052.493-.068.142-.013.285-.024.43-.028s.264-.006.4,0,.255.01.381.02.252.025.376.043.257.039.384.066.272.061.4.1c.161.046.318.1.469.158v-.295C344.728,208.81,344.57,208.758,344.41,208.712Z" fill="#a2afb8"/>
                  <path id="Path_2044" data-name="Path 2044" d="M339.966,209.135l-.047.028a2.946,2.946,0,0,0-.491.361,2.1,2.1,0,0,0-.239.257,1.844,1.844,0,0,0-.157.23,1.6,1.6,0,0,0-.1.219,1.384,1.384,0,0,0-.062.216,1.216,1.216,0,0,0-.026.221v.295a1.325,1.325,0,0,1,.026-.221,1.385,1.385,0,0,1,.062-.216,1.484,1.484,0,0,1,.1-.219,1.8,1.8,0,0,1,.156-.23,2.113,2.113,0,0,1,.24-.257,2.948,2.948,0,0,1,.49-.36l.047-.028a4.356,4.356,0,0,1,.848-.371v-.295A4.32,4.32,0,0,0,339.966,209.135Z" fill="#85929c"/>
                  <path id="Path_2045" data-name="Path 2045" d="M338.841,210.667v.295c0,.034,0-.261,0-.261Z" fill="#757776"/>
                </g>
              </g>
            </g>
            <g id="Group_839" data-name="Group 839" style="isolation: isolate">
              <g id="Group_838" data-name="Group 838" clip-path="url(#clip-path-5)">
                <g id="Group_837" data-name="Group 837" style="isolation: isolate">
                  <path id="Path_2047" data-name="Path 2047" d="M346.76,210.723v0Z" fill="#85929c"/>
                  <path id="Path_2048" data-name="Path 2048" d="M346.76,210.758v.295a1.329,1.329,0,0,1-.027.232v-.295a1.355,1.355,0,0,0,.027-.232Z" fill="#85929c"/>
                  <path id="Path_2049" data-name="Path 2049" d="M346.733,210.99v.295a1.4,1.4,0,0,1-.065.228v-.295a1.4,1.4,0,0,0,.065-.228Z" fill="#85929c"/>
                  <path id="Path_2050" data-name="Path 2050" d="M346.667,211.218v.295a1.46,1.46,0,0,1-.108.23v-.3a1.618,1.618,0,0,0,.108-.229Z" fill="#85929c"/>
                  <path id="Path_2051" data-name="Path 2051" d="M346.559,211.446v.3a1.952,1.952,0,0,1-.162.24v-.295a1.962,1.962,0,0,0,.162-.241Z" fill="#85929c"/>
                  <path id="Path_2052" data-name="Path 2052" d="M346.4,211.687v.295a2.419,2.419,0,0,1-.252.269v-.3a2.315,2.315,0,0,0,.252-.268Z" fill="#85929c"/>
                  <path id="Path_2053" data-name="Path 2053" d="M346.145,211.955v.3a3.1,3.1,0,0,1-.511.376v-.295a3.1,3.1,0,0,0,.511-.377Z" fill="#85929c"/>
                  <path id="Path_2054" data-name="Path 2054" d="M345.634,212.332v.295l-.048.029a4.571,4.571,0,0,1-.886.387v-.3a4.512,4.512,0,0,0,.886-.387l.05-.028Z" fill="#a2afb8"/>
                  <path id="Path_2055" data-name="Path 2055" d="M344.7,212.747v.3a5.982,5.982,0,0,1-.767.189v-.295a5.921,5.921,0,0,0,.766-.191Z" fill="#a2afb8"/>
                  <path id="Path_2056" data-name="Path 2056" d="M343.933,212.938v.295c-.17.03-.343.055-.518.072v-.295c.175-.018.347-.041.518-.072Z" fill="#a2afb8"/>
                  <path id="Path_2057" data-name="Path 2057" d="M343.415,213.009v.295q-.223.022-.45.03v-.3c.15,0,.3-.015.45-.029Z" fill="#a2afb8"/>
                  <path id="Path_2058" data-name="Path 2058" d="M342.965,213.039v.3c-.139,0-.278,0-.416,0v-.295c.139,0,.277,0,.416,0Z" fill="#a2afb8"/>
                  <path id="Path_2059" data-name="Path 2059" d="M342.549,213.041v.295c-.133,0-.267-.01-.4-.021v-.295c.133.011.266.018.4.021Z" fill="#bbc6cb"/>
                  <path id="Path_2060" data-name="Path 2060" d="M342.148,213.019v.295c-.132-.01-.264-.025-.395-.044v-.295c.131.018.263.033.395.044Z" fill="#bbc6cb"/>
                  <path id="Path_2061" data-name="Path 2061" d="M341.754,212.976v.295c-.135-.019-.27-.041-.4-.07v-.295c.132.027.266.05.4.07Z" fill="#bbc6cb"/>
                  <path id="Path_2062" data-name="Path 2062" d="M341.352,212.906v.295c-.143-.029-.284-.064-.423-.1V212.8c.138.039.279.074.423.1Z" fill="#bbc6cb"/>
                  <path id="Path_2063" data-name="Path 2063" d="M340.929,212.8v.295a4.961,4.961,0,0,1-.492-.165v-.295c.158.062.323.117.492.165Z" fill="#bbc6cb"/>
                  <path id="Path_2064" data-name="Path 2064" d="M340.437,212.638v.295a4.413,4.413,0,0,1-.582-.277,2.016,2.016,0,0,1-1.195-1.662v-.3a2.011,2.011,0,0,0,1.195,1.662,4.414,4.414,0,0,0,.582.278Z" fill="#d3dbdc"/>
                </g>
              </g>
            </g>
            <g id="Group_840" data-name="Group 840">
              <path id="Path_2066" data-name="Path 2066" d="M345.566,209.061c1.585.909,1.593,2.389.018,3.3a6.351,6.351,0,0,1-5.729,0c-1.585-.909-1.594-2.389-.019-3.3A6.36,6.36,0,0,1,345.566,209.061Zm-5.584,3.225a6.062,6.062,0,0,0,5.472,0c1.507-.87,1.5-2.281-.017-3.151a6.062,6.062,0,0,0-5.472,0c-1.507.87-1.5,2.281.017,3.151Z" fill="#e5eae7"/>
            </g>
          </g>
        </g>
      </g>
      <path id="Path_2067" data-name="Path 2067" d="M292.9,218.867V234.8l-19-10.9c-.006,0-1.566.895-1.566.895V207.068l1.566.9,13.877,7.965Z" fill="#bbc6cb"/>
      <path id="Path_2068" data-name="Path 2068" d="M287.785,215.93l-13.877-7.965-1.566-.9v17.725l1.56-.9,19,10.905V218.867Z" fill="#f6f7ef"/>
      <g id="Group_849" data-name="Group 849">
        <path id="Path_2069" data-name="Path 2069" d="M293.511,218.521v18.45l-.606-.346V218.867l-5.119-2.937-13.877-7.965-.785-.449-.782-.449v17.754l-.606-.346v-18.45l1.388.8,1.088.624,18.693,10.73Z" fill="#d3dbdc"/>
        <path id="Path_2070" data-name="Path 2070" d="M287.786,215.93l-13.877,7.961V207.965Z" fill="#6d7881"/>
        <path id="Path_2071" data-name="Path 2071" d="M273.908,207.965v15.926l-1.566.931V207.068Z" fill="#a2afb8"/>
        <path id="Path_2072" data-name="Path 2072" d="M292.9,218.867V234.8l-19-10.9c0-.007,13.877-7.968,13.877-7.968Z" fill="#bbc6cb"/>
        <g id="Group_848" data-name="Group 848">
          <path id="Path_2073" data-name="Path 2073" d="M292.9,218.867v5.69L273.124,213.21v-5.693l.785.449,13.877,7.965Z" fill="#deddd5"/>
          <g id="Group_847" data-name="Group 847">
            <g id="Group_844" data-name="Group 844">
              <path id="Path_2074" data-name="Path 2074" d="M292.9,219.879v.349l-19.781-11.351v-.349Z" fill="#bbc6cb"/>
            </g>
            <g id="Group_845" data-name="Group 845">
              <path id="Path_2075" data-name="Path 2075" d="M292.9,221.385v.349l-19.781-11.35v-.349Z" fill="#bbc6cb"/>
            </g>
            <g id="Group_846" data-name="Group 846">
              <path id="Path_2076" data-name="Path 2076" d="M292.9,222.765v.349l-19.781-11.35v-.35Z" fill="#bbc6cb"/>
            </g>
          </g>
        </g>
      </g>
      <g id="Group_853" data-name="Group 853">
        <g id="Group_850" data-name="Group 850">
          <path id="Path_2077" data-name="Path 2077" d="M285.477,197.106l-5.711-3.277-5.71-3.277v6.554l5.71,3.277,5.711,3.277,5.71,3.277v-6.554Z" fill="#175d7e"/>
          <path id="Path_2078" data-name="Path 2078" d="M291.188,205.874v1.062l-5.712-3.277-5.71-3.277-5.71-3.277v-6.554l.879.5v5.492l5.71,3.277,5.71,3.277Z" fill="url(#linear-gradient)" style="mix-blend-mode: screen;isolation: isolate"/>
          <path id="Path_2079" data-name="Path 2079" d="M291.188,200.382v5.492l-4.832-2.773-5.71-3.277-5.71-3.277v-5.492l4.831,2.773,5.71,3.277Z" fill="url(#linear-gradient-2)" style="mix-blend-mode: screen;isolation: isolate"/>
          <path id="Path_2080" data-name="Path 2080" d="M291.188,200.382v5.492l-4.832-2.773-5.71-3.277-5.71-3.277v-5.492l4.831,2.773,5.71,3.277Z" fill="url(#linear-gradient-2)" style="mix-blend-mode: screen;isolation: isolate"/>
          <path id="Path_2081" data-name="Path 2081" d="M273.8,190.116v7.137l17.639,10.122v-7.137ZM290.934,206.5l-16.623-9.54v-5.972l16.623,9.54Z" fill="#d3dbdc"/>
        </g>
        <g id="Group_851" data-name="Group 851">
          <path id="Path_2082" data-name="Path 2082" d="M280.02,193.683v7.137l-.507-.291v-7.137Z" fill="#d3dbdc"/>
        </g>
        <g id="Group_852" data-name="Group 852">
          <path id="Path_2083" data-name="Path 2083" d="M285.731,196.961V204.1l-.508-.291v-7.137Z" fill="#d3dbdc"/>
        </g>
      </g>
      <g id="Group_857" data-name="Group 857">
        <g id="Group_854" data-name="Group 854">
          <path id="Path_2084" data-name="Path 2084" d="M325.913,204.423l5.711-3.277,5.71-3.277v6.554l-5.71,3.277-5.711,3.277-5.71,3.277V207.7Z" fill="#175d7e"/>
          <path id="Path_2085" data-name="Path 2085" d="M320.2,213.192v1.062l5.712-3.277,5.71-3.277,5.71-3.277v-6.554l-.879.5v5.492l-5.71,3.277-5.71,3.277Z" fill="#5c9abc"/>
          <path id="Path_2086" data-name="Path 2086" d="M320.2,207.7v5.492l4.833-2.773,5.71-3.277,5.71-3.277v-5.492l-4.831,2.773-5.71,3.277Z" fill="#175d7e"/>
          <path id="Path_2087" data-name="Path 2087" d="M319.948,207.554v7.137l17.638-10.123v-7.136Zm.508.292,16.623-9.54v5.972l-16.623,9.54Z" fill="#e5eae7"/>
        </g>
        <g id="Group_855" data-name="Group 855">
          <path id="Path_2088" data-name="Path 2088" d="M331.369,201v7.137l.508-.291V200.71Z" fill="#e5eae7"/>
        </g>
        <g id="Group_856" data-name="Group 856">
          <path id="Path_2089" data-name="Path 2089" d="M325.658,204.278v7.136l.508-.291v-7.137Z" fill="#e5eae7"/>
        </g>
      </g>
      <g id="Group_861" data-name="Group 861">
        <g id="Group_858" data-name="Group 858">
          <path id="Path_2090" data-name="Path 2090" d="M307.312,215.128l5.711-3.277,5.71-3.277v6.554l-5.71,3.277-5.711,3.277-5.71,3.277v-6.554Z" fill="#175d7e"/>
          <path id="Path_2091" data-name="Path 2091" d="M301.6,223.9v1.062l5.711-3.277,5.711-3.277,5.71-3.277v-6.554l-.88.5v5.492l-5.71,3.277-5.71,3.277Z" fill="#5c9abc"/>
          <path id="Path_2092" data-name="Path 2092" d="M301.6,218.4V223.9l4.832-2.773,5.71-3.277,5.71-3.277v-5.492l-4.831,2.773-5.711,3.277Z" fill="#175d7e"/>
          <path id="Path_2093" data-name="Path 2093" d="M301.348,218.26V225.4l17.639-10.122v-7.137Zm.508.29,16.623-9.54v5.972l-16.623,9.54Z" fill="#e5eae7"/>
        </g>
        <g id="Group_859" data-name="Group 859">
          <path id="Path_2094" data-name="Path 2094" d="M312.768,211.706v7.137l.508-.291v-7.137Z" fill="#e5eae7"/>
        </g>
        <g id="Group_860" data-name="Group 860">
          <path id="Path_2095" data-name="Path 2095" d="M307.058,214.983v7.137l.508-.291v-7.137Z" fill="#e5eae7"/>
        </g>
      </g>
      <g id="Group_950" data-name="Group 950">
        <g id="Group_871" data-name="Group 871" opacity="0.5">
          <g id="Group_862" data-name="Group 862">
            <path id="Path_2096" data-name="Path 2096" d="M274.419,199.549l-.7,4.611-.629-.361-.369-2.97-.358,2.553-.633-.364-.719-5.424.693.4.339,2.877.325-2.5.693.4.337,2.874.329-2.492Z" fill="#9d5940"/>
          </g>
          <g id="Group_863" data-name="Group 863">
            <path id="Path_2097" data-name="Path 2097" d="M275.988,200.45l.72,5.423-.695-.4-.15-1.239-.69-.4-.164,1.06-.687-.395.759-4.576Zm-.712,2.715.491.281-.24-2.112-.25,1.831Z" fill="#9d5940"/>
          </g>
          <g id="Group_864" data-name="Group 864">
            <path id="Path_2098" data-name="Path 2098" d="M279,205l.484,2.463-.716-.41-.395-2.115-.059-.034-.381-.219,0,1.885-.662-.38.015-5,1.042.6a2,2,0,0,1,.81.814,2.068,2.068,0,0,1,.223.974v.728A.7.7,0,0,1,279,205Zm-.288-1.052,0-.729a.7.7,0,0,0-.376-.651l-.4-.229,0,1.6.4.229a.232.232,0,0,0,.379-.22Z" fill="#9d5940"/>
          </g>
          <g id="Group_865" data-name="Group 865">
            <path id="Path_2099" data-name="Path 2099" d="M281.94,203.863l0,.758-1.221-.7,0,1.364.892.512,0,.76-.892-.512,0,1.364,1.221.7,0,.76-1.881-1.079.014-5.005Z" fill="#9d5940"/>
          </g>
          <g id="Group_866" data-name="Group 866">
            <path id="Path_2100" data-name="Path 2100" d="M284.512,205.341l-.014,5-.66-.379.006-2.122-.8-.457-.006,2.121-.66-.379.014-5,.66.379-.006,2.124.8.457.006-2.124Z" fill="#9d5940"/>
          </g>
          <g id="Group_867" data-name="Group 867">
            <path id="Path_2101" data-name="Path 2101" d="M286.882,206.988a2.032,2.032,0,0,1,.3,1.023l-.009,2.731a.708.708,0,0,1-.308.673.728.728,0,0,1-.741-.076,2.268,2.268,0,0,1-1.042-1.8l.008-2.731a.7.7,0,0,1,.31-.669.717.717,0,0,1,.739.074A2.051,2.051,0,0,1,286.882,206.988Zm-.391,3.35.008-2.738a.819.819,0,0,0-.377-.647.265.265,0,0,0-.27-.029.254.254,0,0,0-.113.241l-.008,2.738a.721.721,0,0,0,.112.37.752.752,0,0,0,.268.28.263.263,0,0,0,.267.027.258.258,0,0,0,.112-.242Z" fill="#9d5940"/>
          </g>
          <g id="Group_868" data-name="Group 868">
            <path id="Path_2102" data-name="Path 2102" d="M289.857,208.409l-.011,3.871a.688.688,0,0,1-.309.667.732.732,0,0,1-.74-.08,2.049,2.049,0,0,1-.741-.773,2.007,2.007,0,0,1-.3-1.016l.011-3.871.646.371-.01,3.862a.727.727,0,0,0,.108.368.752.752,0,0,0,.271.281.23.23,0,0,0,.379-.214l.011-3.86Z" fill="#9d5940"/>
          </g>
          <g id="Group_869" data-name="Group 869">
            <path id="Path_2103" data-name="Path 2103" d="M291.492,209.285a2.043,2.043,0,0,1,.6.526,2.12,2.12,0,0,1,.316.573,2.36,2.36,0,0,1,.143.662l-.633-.232a1.462,1.462,0,0,0-.153-.566.638.638,0,0,0-.261-.274c-.122-.07-.213-.063-.277.025a.554.554,0,0,0-.078.322,1.942,1.942,0,0,0,.257.848,4.882,4.882,0,0,0,.293.487c.152.235.254.4.3.482a5.323,5.323,0,0,1,.376.769c.043.108.076.206.1.292a2.04,2.04,0,0,1,.1.536.992.992,0,0,1-.24.759.469.469,0,0,1-.456.093,1.317,1.317,0,0,1-.365-.154,1.964,1.964,0,0,1-.644-.591,2.524,2.524,0,0,1-.335-.681,2.993,2.993,0,0,1-.143-.793l.629.309a1.9,1.9,0,0,0,.2.751.707.707,0,0,0,.254.286c.164.089.279.072.365-.035a.482.482,0,0,0,.067-.294,1.642,1.642,0,0,0-.246-.76q-.2-.326-.585-.974a5.851,5.851,0,0,1-.462-.917,2.309,2.309,0,0,1-.146-.786c0-.457.135-.727.4-.806A.827.827,0,0,1,291.492,209.285Z" fill="#9d5940"/>
          </g>
          <g id="Group_870" data-name="Group 870">
            <path id="Path_2104" data-name="Path 2104" d="M295.016,211.367l0,.758-1.219-.7,0,1.364.89.511,0,.76-.89-.511,0,1.363,1.219.7,0,.76-1.881-1.079.014-5.005Z" fill="#9d5940"/>
          </g>
        </g>
        <g id="Group_884" data-name="Group 884" style="isolation: isolate">
          <g id="Group_872" data-name="Group 872">
            <path id="Path_2105" data-name="Path 2105" d="M271.985,200.882l.427-.247-.358,2.553-.427.247Z" fill="#bb5a31"/>
          </g>
          <g id="Group_873" data-name="Group 873">
            <path id="Path_2106" data-name="Path 2106" d="M270.968,198.045l.427-.247.339,2.877-.428.247Z" fill="#bb5a31"/>
          </g>
          <g id="Group_874" data-name="Group 874">
            <path id="Path_2107" data-name="Path 2107" d="M270.276,197.647l.427-.247.693.4-.427.247Z" fill="#ffee60"/>
          </g>
          <g id="Group_875" data-name="Group 875">
            <path id="Path_2108" data-name="Path 2108" d="M274.436,203.893l.427-.247-.164,1.059-.428.247Z" fill="#bb5a31"/>
          </g>
          <g id="Group_876" data-name="Group 876">
            <path id="Path_2109" data-name="Path 2109" d="M274.541,203.219l.427-.247.489.281-.427.247Z" fill="#ffee60"/>
          </g>
          <g id="Group_877" data-name="Group 877">
            <path id="Path_2110" data-name="Path 2110" d="M271.632,198.425l.428-.247.692.4-.427.247Z" fill="#ffee60"/>
          </g>
          <g id="Group_878" data-name="Group 878">
            <path id="Path_2111" data-name="Path 2111" d="M272.325,198.823l.427-.247.337,2.874-.427.247Z" fill="#bb5a31"/>
          </g>
          <g id="Group_879" data-name="Group 879">
            <path id="Path_2112" data-name="Path 2112" d="M273.683,199.6l.428-.246-.7,4.61-.428.247Z" fill="#bb5a31"/>
          </g>
          <g id="Group_880" data-name="Group 880">
            <path id="Path_2113" data-name="Path 2113" d="M272.99,199.2l.428-.247.693.4-.428.246Z" fill="#ffee60"/>
          </g>
          <g id="Group_881" data-name="Group 881">
            <path id="Path_2114" data-name="Path 2114" d="M274.79,201.387l.427-.247-.25,1.831-.427.247Z" fill="#bb5a31"/>
          </g>
          <g id="Group_882" data-name="Group 882">
            <path id="Path_2115" data-name="Path 2115" d="M274.345,199.982l.427-.247.908.521-.428.246Z" fill="#ffee60"/>
          </g>
          <g id="Group_883" data-name="Group 883">
            <path id="Path_2116" data-name="Path 2116" d="M275.252,200.5l.428-.246.719,5.424-.427.247Z" fill="#bb5a31"/>
          </g>
        </g>
        <g id="Group_893" data-name="Group 893" style="isolation: isolate">
          <g id="Group_885" data-name="Group 885">
            <path id="Path_2117" data-name="Path 2117" d="M277.194,204.741l.427-.247-.006,1.885-.427.247Z" fill="#bb5a31"/>
          </g>
          <g id="Group_886" data-name="Group 886">
            <path id="Path_2118" data-name="Path 2118" d="M278.261,205.054l.428-.247.483,2.464-.428.247Z" fill="#bb5a31"/>
          </g>
          <path id="Path_2119" data-name="Path 2119" d="M278.23,204.024a.2.2,0,0,1-.063,0,.314.314,0,0,1-.07-.016.5.5,0,0,1-.074-.036l-.4-.229-.426.248.4.229a1.585,1.585,0,0,0,.691-.221A.163.163,0,0,1,278.23,204.024Z" fill="#ffee60"/>
          <g id="Group_887" data-name="Group 887">
            <path id="Path_2120" data-name="Path 2120" d="M277.2,202.394l.427-.247,0,1.6-.427.247Z" fill="#bb5a31"/>
          </g>
          <path id="Path_2121" data-name="Path 2121" d="M278.618,203.63l0,.727a1.287,1.287,0,0,1-.019.227.863.863,0,0,1-.059.186.557.557,0,0,1-.08.127.616.616,0,0,1-.152.135l.428-.247a.516.516,0,0,0,.122-.1c.043-.052.058-.066.069-.083a.482.482,0,0,0,.036-.067.92.92,0,0,0,.042-.109.381.381,0,0,0,.014-.052c.02-.118.021-.135.024-.152s0-.035,0-.054,0-.036,0-.055l0-.73Z" fill="#bb5a31"/>
          <g id="Group_888" data-name="Group 888">
            <path id="Path_2122" data-name="Path 2122" d="M276.541,201.242l.428-.246,1.043.6-.427.247Z" fill="#ffee60"/>
          </g>
          <g id="Group_891" data-name="Group 891" style="isolation: isolate">
            <g id="Group_890" data-name="Group 890" clip-path="url(#clip-path-6)">
              <g id="Group_889" data-name="Group 889" style="isolation: isolate">
                <path id="Path_2123" data-name="Path 2123" d="M278.709,202.223c-.014-.021-.028-.041-.044-.063l-.034-.044c-.076-.09-.087-.1-.1-.115l-.038-.04-.043-.041-.046-.043-.051-.045c-.018-.016-.037-.03-.056-.045s-.038-.03-.059-.045l-.064-.046-.07-.045c-.025-.016-.05-.031-.076-.046a4.6,4.6,0,0,0-.444.237l.094.056.069.045.064.046c.02.015.041.029.06.045s.037.029.055.045l.051.045.047.043.042.043.038.039.035.038c.077.092.088.107.1.122l.044.062c.023.033.043.066.063.1l.428-.248C278.753,202.289,278.732,202.255,278.709,202.223Z" fill="#ffee60"/>
                <path id="Path_2124" data-name="Path 2124" d="M279.044,203.3c0-.027,0-.055,0-.082l-.006-.074-.008-.07c0-.022-.006-.044-.009-.065s-.007-.041-.011-.062-.007-.04-.011-.059l-.014-.057-.015-.054c0-.017-.009-.034-.015-.05-.152-.36-.165-.382-.178-.4l-.428.248c.014.022.026.044.038.067.146.353.15.37.156.387l.014.054.014.057.011.058.011.063c0,.021.007.043.009.065s.006.047.008.07l.006.075c0,.027,0,.053,0,.081s0,.055,0,.083l.428-.247C279.045,203.355,279.045,203.327,279.044,203.3Z" fill="#bb5a31"/>
              </g>
            </g>
          </g>
          <g id="Group_892" data-name="Group 892">
            <path id="Path_2126" data-name="Path 2126" d="M278.26,205.054l.484,2.464-.715-.41-.4-2.116-.058-.034-.381-.218-.006,1.885-.662-.38.015-5,1.043.6a2.008,2.008,0,0,1,.809.814,2.052,2.052,0,0,1,.224.974l0,.727A.694.694,0,0,1,278.26,205.054ZM277.973,204v-.729a.7.7,0,0,0-.376-.651l-.4-.23,0,1.6.4.229a.257.257,0,0,0,.267.025.261.261,0,0,0,.112-.244Z" fill="#ffb42b"/>
          </g>
        </g>
        <g id="Group_902" data-name="Group 902" style="isolation: isolate">
          <g id="Group_894" data-name="Group 894">
            <path id="Path_2127" data-name="Path 2127" d="M279.975,206.1l.427-.247,0,1.364-.427.247Z" fill="#bb5a31"/>
          </g>
          <g id="Group_895" data-name="Group 895">
            <path id="Path_2128" data-name="Path 2128" d="M281.192,208.162l.427-.247,0,.76-.427.247Z" fill="#bb5a31"/>
          </g>
          <g id="Group_896" data-name="Group 896">
            <path id="Path_2129" data-name="Path 2129" d="M279.971,207.461l.427-.247,1.221.7-.427.247Z" fill="#ffee60"/>
          </g>
          <g id="Group_897" data-name="Group 897">
            <path id="Path_2130" data-name="Path 2130" d="M279.977,205.337l.427-.246.892.512-.428.247Z" fill="#ffee60"/>
          </g>
          <g id="Group_898" data-name="Group 898">
            <path id="Path_2131" data-name="Path 2131" d="M280.869,205.85l.428-.247,0,.76-.427.247Z" fill="#bb5a31"/>
          </g>
          <g id="Group_899" data-name="Group 899">
            <path id="Path_2132" data-name="Path 2132" d="M279.981,203.974l.428-.246,0,1.364-.427.246Z" fill="#bb5a31"/>
          </g>
          <g id="Group_900" data-name="Group 900">
            <path id="Path_2133" data-name="Path 2133" d="M281.2,203.916l.427-.247,0,.758-.427.246Z" fill="#bb5a31"/>
          </g>
          <g id="Group_901" data-name="Group 901">
            <path id="Path_2134" data-name="Path 2134" d="M279.323,202.837l.428-.247,1.881,1.079-.427.247Z" fill="#ffee60"/>
          </g>
        </g>
        <g id="Group_910" data-name="Group 910" style="isolation: isolate">
          <g id="Group_903" data-name="Group 903">
            <path id="Path_2135" data-name="Path 2135" d="M282.31,207.44l.427-.247-.006,2.121-.428.247Z" fill="#bb5a31"/>
          </g>
          <g id="Group_904" data-name="Group 904">
            <path id="Path_2136" data-name="Path 2136" d="M282.312,206.682l.428-.247.8.458-.428.246Z" fill="#ffee60"/>
          </g>
          <g id="Group_905" data-name="Group 905">
            <path id="Path_2137" data-name="Path 2137" d="M281.659,204.18l.428-.247.66.379-.428.247Z" fill="#ffee60"/>
          </g>
          <g id="Group_906" data-name="Group 906">
            <path id="Path_2138" data-name="Path 2138" d="M282.318,204.558l.428-.247-.006,2.124-.428.247Z" fill="#bb5a31"/>
          </g>
          <g id="Group_907" data-name="Group 907">
            <path id="Path_2139" data-name="Path 2139" d="M283.775,205.394l.428-.247-.015,5-.427.247Z" fill="#bb5a31"/>
          </g>
          <g id="Group_908" data-name="Group 908">
            <path id="Path_2140" data-name="Path 2140" d="M283.116,205.016l.427-.246.66.379-.428.247Z" fill="#ffee60"/>
          </g>
          <g id="Group_909" data-name="Group 909">
            <path id="Path_2141" data-name="Path 2141" d="M283.775,205.394l-.014,5-.66-.379.006-2.121-.8-.458-.006,2.122-.66-.379.014-5,.66.379-.006,2.124.8.457.006-2.124Z" fill="#ffb42b"/>
          </g>
        </g>
        <g id="Group_920" data-name="Group 920" style="isolation: isolate">
          <path id="Path_2142" data-name="Path 2142" d="M286.013,210.408a.182.182,0,0,1-.065,0,.345.345,0,0,1-.07-.016.51.51,0,0,1-.076-.036.616.616,0,0,1-.146-.115.806.806,0,0,1-.123-.165.847.847,0,0,1-.083-.187.609.609,0,0,1-.028-.182l-.426.247a2.5,2.5,0,0,0,.149.429,1.033,1.033,0,0,0,.925,0A.18.18,0,0,1,286.013,210.408Z" fill="#ffee60"/>
          <g id="Group_911" data-name="Group 911">
            <path id="Path_2143" data-name="Path 2143" d="M285,207.219l.428-.247-.008,2.738-.427.246Z" fill="#bb5a31"/>
          </g>
          <g id="Group_914" data-name="Group 914">
            <path id="Path_2144" data-name="Path 2144" d="M285.111,206.982l.428-.247a.251.251,0,0,0-.108.238l-.428.246A.252.252,0,0,1,285.111,206.982Z" fill="#bb5a31"/>
            <g id="Group_913" data-name="Group 913" clip-path="url(#clip-path-7)">
              <g id="Group_912" data-name="Group 912" style="isolation: isolate">
                <path id="Path_2145" data-name="Path 2145" d="M285.111,206.982l.428-.247a.179.179,0,0,0-.067.063l-.426.247a.194.194,0,0,1,.065-.063Z" fill="#bb5a31"/>
                <path id="Path_2146" data-name="Path 2146" d="M285.045,207.044l.426-.247c-.012.022-.44.27-.44.27Z" fill="#bb5a31"/>
                <path id="Path_2147" data-name="Path 2147" d="M285.032,207.068l.428-.248c-.008.02-.435.267-.435.267Z" fill="#bb5a31"/>
                <path id="Path_2148" data-name="Path 2148" d="M285.024,207.087l.428-.247c-.007.019-.434.266-.434.266Z" fill="#bb5a31"/>
                <path id="Path_2149" data-name="Path 2149" d="M285.017,207.106l.428-.247c0,.018-.432.265-.432.265Z" fill="#bb5a31"/>
                <path id="Path_2150" data-name="Path 2150" d="M285.012,207.124l.428-.247c0,.018-.431.265-.431.265Z" fill="#bb5a31"/>
                <path id="Path_2151" data-name="Path 2151" d="M285.009,207.142l.428-.247c0,.018-.43.265-.43.265Z" fill="#bb5a31"/>
                <path id="Path_2152" data-name="Path 2152" d="M285.007,207.16l.428-.247c0,.018-.43.266-.43.266Z" fill="#bb5a31"/>
                <path id="Path_2153" data-name="Path 2153" d="M285,207.179l.428-.248c0,.02-.429.267-.429.267Z" fill="#bb5a31"/>
                <path id="Path_2154" data-name="Path 2154" d="M285,207.2l.428-.247c0,.02-.429.267-.429.267Z" fill="#bb5a31"/>
                <path id="Path_2155" data-name="Path 2155" d="M285,207.218l.428-.247-.428.248Z" fill="#bb5a31"/>
              </g>
            </g>
          </g>
          <g id="Group_917" data-name="Group 917" style="isolation: isolate">
            <g id="Group_916" data-name="Group 916" clip-path="url(#clip-path-8)">
              <g id="Group_915" data-name="Group 915" style="isolation: isolate">
                <path id="Path_2157" data-name="Path 2157" d="M284.658,206.2l.428-.247-.42.242Z" fill="#855e16"/>
              </g>
            </g>
          </g>
          <g id="Group_918" data-name="Group 918">
            <path id="Path_2159" data-name="Path 2159" d="M286.42,211.021a.815.815,0,0,1-.056.187.663.663,0,0,1-.231.26l.428-.247a.566.566,0,0,0,.121-.1c.042-.052.056-.065.068-.082a.482.482,0,0,0,.036-.067.841.841,0,0,0,.042-.109c.006-.017.009-.034.014-.05.019-.118.021-.136.024-.154l0-.053c0-.019,0-.038,0-.057l-.428.243A1.165,1.165,0,0,1,286.42,211.021Z" fill="#bb5a31"/>
            <path id="Path_2160" data-name="Path 2160" d="M286.875,207.764l0-.055c0-.018,0-.036,0-.054l-.006-.053c-.01-.068-.014-.086-.017-.1l-.01-.05-.012-.053-.014-.052c-.02-.068-.026-.085-.032-.1l-.017-.049-.018-.049c-.047-.111-.055-.128-.063-.145s-.018-.036-.027-.055-.021-.041-.033-.063-.032-.058-.048-.086l-.426.247a2.724,2.724,0,0,1,.133.261,2.149,2.149,0,0,1,.095.256,1.91,1.91,0,0,1,.056.253,1.629,1.629,0,0,1,.019.251l-.008,2.731.428-.247.007-2.731C286.876,207.8,286.875,207.781,286.875,207.764Z" fill="#bb5a31"/>
          </g>
          <path id="Path_2161" data-name="Path 2161" d="M285.806,206.585a2.115,2.115,0,0,1,.178.212,2.63,2.63,0,0,1,.161.246l.426-.247c-.037-.065-.07-.117-.1-.166-.017-.027-.036-.052-.054-.076s-.034-.046-.049-.064l-.038-.047-.037-.044-.038-.041c-.053-.055-.067-.07-.081-.083l-.044-.04-.045-.038c-.061-.049-.077-.062-.092-.073l-.047-.034-.048-.031-.048-.03-.1-.052a2.267,2.267,0,0,0-.49-.091c-.028.007-.051.012-.071.019a.585.585,0,0,0-.094.043l-.428.247a.56.56,0,0,1,.159-.061.623.623,0,0,1,.177-.008.81.81,0,0,1,.194.045,1.336,1.336,0,0,1,.209.1,1.794,1.794,0,0,1,.209.141A2.031,2.031,0,0,1,285.806,206.585Z" fill="#ffee60"/>
          <g id="Group_919" data-name="Group 919">
            <path id="Path_2162" data-name="Path 2162" d="M286.145,207.042a2.018,2.018,0,0,1,.3,1.021l-.008,2.731a.715.715,0,0,1-.308.674.73.73,0,0,1-.742-.076,2.276,2.276,0,0,1-1.041-1.8l.008-2.731a.7.7,0,0,1,.309-.671.718.718,0,0,1,.739.074A2.062,2.062,0,0,1,286.145,207.042Zm-.391,3.35.008-2.738a.815.815,0,0,0-.377-.647.261.261,0,0,0-.268-.029.25.25,0,0,0-.114.24L285,209.957a.71.71,0,0,0,.112.369.725.725,0,0,0,.267.28.258.258,0,0,0,.267.027.251.251,0,0,0,.112-.241Z" fill="#ffb42b"/>
          </g>
        </g>
        <g id="Group_925" data-name="Group 925" style="isolation: isolate">
          <path id="Path_2163" data-name="Path 2163" d="M288.682,211.945a.2.2,0,0,1-.063,0,.285.285,0,0,1-.071-.017.409.409,0,0,1-.076-.035.714.714,0,0,1-.147-.115,1.015,1.015,0,0,1-.124-.166.863.863,0,0,1-.081-.187.609.609,0,0,1-.028-.182l-.426.247a2.216,2.216,0,0,0,.146.425,1.027,1.027,0,0,0,.928.006A.178.178,0,0,1,288.682,211.945Z" fill="#ffee60"/>
          <g id="Group_921" data-name="Group 921">
            <path id="Path_2164" data-name="Path 2164" d="M287.03,207.262l.428-.247.646.371-.428.247Z" fill="#ffee60"/>
          </g>
          <g id="Group_922" data-name="Group 922">
            <path id="Path_2165" data-name="Path 2165" d="M287.676,207.633l.428-.247-.011,3.861-.427.247Z" fill="#bb5a31"/>
          </g>
          <path id="Path_2166" data-name="Path 2166" d="M289.122,208.463l-.011,3.869a1.364,1.364,0,0,1-.018.223.86.86,0,0,1-.055.182.531.531,0,0,1-.078.126.57.57,0,0,1-.143.129l.428-.247a.5.5,0,0,0,.115-.1c.039-.048.052-.059.062-.075a.4.4,0,0,0,.035-.065.671.671,0,0,0,.041-.107.33.33,0,0,0,.014-.05c.019-.118.021-.135.024-.152s0-.036,0-.055,0-.037,0-.056l.011-3.873Z" fill="#bb5a31"/>
          <g id="Group_923" data-name="Group 923">
            <path id="Path_2167" data-name="Path 2167" d="M288.435,208.068l.427-.246.687.394-.428.247Z" fill="#ffee60"/>
          </g>
          <g id="Group_924" data-name="Group 924">
            <path id="Path_2168" data-name="Path 2168" d="M289.122,208.463l-.011,3.869a.693.693,0,0,1-.31.668.738.738,0,0,1-.74-.08,2.055,2.055,0,0,1-.74-.773,2,2,0,0,1-.3-1.016l.01-3.871.646.371-.01,3.86a.721.721,0,0,0,.109.369.758.758,0,0,0,.27.281.263.263,0,0,0,.267.027.252.252,0,0,0,.112-.242l.011-3.86Z" fill="#ffb42b"/>
          </g>
        </g>
        <g id="Group_937" data-name="Group 937" style="isolation: isolate">
          <g id="Group_926" data-name="Group 926">
            <path id="Path_2169" data-name="Path 2169" d="M289.657,212.42l.427-.247.629.31-.427.247Z" fill="#ffee60"/>
          </g>
          <g id="Group_929" data-name="Group 929" style="isolation: isolate">
            <g id="Group_928" data-name="Group 928" clip-path="url(#clip-path-9)">
              <g id="Group_927" data-name="Group 927" style="isolation: isolate">
                <path id="Path_2170" data-name="Path 2170" d="M290.914,213.234c-.13-.33-.134-.346-.139-.364l-.014-.058c0-.021-.009-.043-.012-.064s-.009-.048-.012-.073-.009-.055-.012-.082-.008-.063-.01-.094c0-.015-.429.232-.429.232,0,.046.008.077.011.109s.008.055.012.082.008.049.012.073l.012.064.015.058.014.052c.143.346.571.1.571.1Z" fill="#bb5a31"/>
                <path id="Path_2171" data-name="Path 2171" d="M291.178,213.525a1.73,1.73,0,0,1-.245-.258l-.428.247c.012.021.025.04.037.059.217.2.643-.044.643-.044Z" fill="#ffee60"/>
              </g>
            </g>
          </g>
          <path id="Path_2173" data-name="Path 2173" d="M291.4,213.573a.237.237,0,0,1-.068.006.324.324,0,0,1-.07-.015.53.53,0,0,1-.079-.035l-.426.247a1.643,1.643,0,0,0,.7-.225A.219.219,0,0,1,291.4,213.573Z" fill="#ffbd44"/>
          <g id="Group_932" data-name="Group 932" style="isolation: isolate">
            <g id="Group_931" data-name="Group 931" clip-path="url(#clip-path-10)">
              <g id="Group_930" data-name="Group 930" style="isolation: isolate">
                <path id="Path_2174" data-name="Path 2174" d="M291.943,212.413c-.018-.038-.036-.076-.055-.114s-.051-.1-.078-.149c-.036-.067-.074-.137-.115-.207-.067-.114-.164-.267-.3-.481l-.428.247c.139.214.236.367.289.456s.092.165.13.232c.027.05.052.1.077.148s.037.077.056.115l.044.1.428-.248C291.974,212.478,291.959,212.445,291.943,212.413Z" fill="#bb5a31"/>
                <path id="Path_2175" data-name="Path 2175" d="M292.268,213.54c-.012-.163-.015-.181-.018-.2s-.006-.038-.01-.058l-.014-.066c0-.025-.011-.05-.018-.077s-.015-.058-.023-.089c-.036-.12-.045-.148-.055-.177s-.019-.056-.029-.085-.019-.052-.03-.079c-.019-.049-.032-.082-.045-.113s-.025-.058-.037-.089l-.428.248.037.087c.015.033.027.064.039.1s.027.071.036.1.02.057.029.084.019.058.027.085c.036.124.044.154.052.183s.011.052.017.076.01.045.015.066l.01.058.007.05c.01.2.01.226.009.25s0,.048,0,.071,0,.046-.007.068l-.009.065-.014.063a.558.558,0,0,1-.017.063.523.523,0,0,1-.02.064.606.606,0,0,1-.029.067.643.643,0,0,1-.042.077.659.659,0,0,1-.1.118.406.406,0,0,1-.076.057l.426-.247a.354.354,0,0,0,.077-.058.61.61,0,0,0,.1-.117.653.653,0,0,0,.043-.077c.01-.021.02-.044.029-.067s.015-.041.02-.064.011-.041.017-.063.009-.041.012-.064.007-.041.01-.064l.007-.067c0-.024,0-.047,0-.071s0-.048,0-.074Z" fill="#bb5a31"/>
              </g>
            </g>
          </g>
          <path id="Path_2177" data-name="Path 2177" d="M290.965,211.708l.428-.247c-.06-.09-.109-.169-.156-.244-.068-.113-.107-.183-.138-.243-.043-.083-.08-.164-.113-.241a2.322,2.322,0,0,1-.08-.221,1.481,1.481,0,0,1-.048-.2,1.211,1.211,0,0,1-.016-.183.787.787,0,0,1,.02-.189.369.369,0,0,1,.058-.132.191.191,0,0,1,.056-.053l-.426.247a.174.174,0,0,0-.056.052,6.012,6.012,0,0,0,0,.766l.018.053.021.056c.007.017.014.035.021.053s.019.046.028.066l.032.068.037.077.041.077c.02.039.044.081.07.126C290.856,211.538,290.905,211.618,290.965,211.708Z" fill="#bb5a31"/>
          <path id="Path_2178" data-name="Path 2178" d="M290.415,209.195a1,1,0,0,1,.16.054,1.424,1.424,0,0,1,.18.09l.426-.248-.045-.025c-.019-.01-.037-.02-.055-.028l-.051-.025c-.519-.047-.546-.034-.571-.019l-.428.246a.492.492,0,0,1,.106-.045.461.461,0,0,1,.131-.017A.66.66,0,0,1,290.415,209.195Z" fill="#ffee60"/>
          <g id="Group_935" data-name="Group 935" style="isolation: isolate">
            <g id="Group_934" data-name="Group 934" clip-path="url(#clip-path-11)">
              <g id="Group_933" data-name="Group 933" style="isolation: isolate">
                <path id="Path_2179" data-name="Path 2179" d="M291.811,209.651c-.051-.067-.064-.083-.077-.1l-.036-.041-.037-.04-.039-.041-.044-.044-.046-.043-.051-.044-.052-.043-.054-.04-.056-.04-.059-.038-.063-.038c-.015-.009-.441.239-.441.239.035.02.056.033.077.046l.059.038.056.04.054.041.052.041.051.044.046.043.044.043.039.043c.012.013.026.027.037.041l.036.04.038.048c.055.072.071.094.086.117l.428-.247C291.844,209.695,291.828,209.673,291.811,209.651Z" fill="#ffee60"/>
                <path id="Path_2180" data-name="Path 2180" d="M292.241,210.8c0-.025-.006-.05-.009-.075l-.01-.073c0-.024-.008-.047-.012-.07l-.014-.068-.016-.067-.017-.065-.018-.062-.02-.059c-.006-.019-.012-.038-.019-.057l-.037-.094-.021-.048-.021-.048-.024-.048-.027-.052c-.014-.025-.026-.049-.041-.073-.024-.04-.049-.081-.076-.119l-.428.247c.027.039.052.078.077.119.014.024.027.048.039.073l.027.052.024.048.021.048.021.049.021.052c.023.061.029.08.035.1l.02.059c.006.021.012.041.018.063l.017.064c.006.022.01.045.016.067s.01.045.014.067.009.047.012.071.007.048.01.073.006.05.009.076,0,.036,0,.055l.428-.247Z" fill="#bb5a31"/>
              </g>
            </g>
          </g>
          <g id="Group_936" data-name="Group 936">
            <path id="Path_2182" data-name="Path 2182" d="M290.755,209.338a2.024,2.024,0,0,1,.6.525,2.155,2.155,0,0,1,.317.573,2.415,2.415,0,0,1,.143.663l-.633-.233a1.5,1.5,0,0,0-.153-.565.649.649,0,0,0-.262-.275c-.122-.07-.213-.062-.276.025a.549.549,0,0,0-.079.323,1.958,1.958,0,0,0,.257.847,5.122,5.122,0,0,0,.293.488c.152.235.255.4.3.481a5.631,5.631,0,0,1,.376.769c.042.109.074.207.1.293a2.05,2.05,0,0,1,.1.536,1,1,0,0,1-.241.759.467.467,0,0,1-.456.092,1.338,1.338,0,0,1-.366-.152,1.989,1.989,0,0,1-.644-.591,2.531,2.531,0,0,1-.335-.682,3.029,3.029,0,0,1-.143-.793l.629.311a1.907,1.907,0,0,0,.2.75.7.7,0,0,0,.254.286c.164.089.279.073.367-.034a.5.5,0,0,0,.067-.294,1.672,1.672,0,0,0-.246-.761l-.587-.974a5.851,5.851,0,0,1-.462-.916,2.371,2.371,0,0,1-.146-.787c0-.457.137-.725.4-.805A.825.825,0,0,1,290.755,209.338Z" fill="#ffb42b"/>
          </g>
        </g>
        <g id="Group_938" data-name="Group 938">
          <path id="Path_2183" data-name="Path 2183" d="M293.053,213.6l.427-.247,0,1.364-.428.247Z" fill="#bb5a31"/>
        </g>
        <g id="Group_939" data-name="Group 939">
          <path id="Path_2184" data-name="Path 2184" d="M294.268,215.666l.427-.247,0,.76-.427.247Z" fill="#bb5a31"/>
        </g>
        <g id="Group_940" data-name="Group 940">
          <path id="Path_2185" data-name="Path 2185" d="M293.049,214.966l.428-.247,1.219.7-.427.247Z" fill="#ffee60"/>
        </g>
        <g id="Group_941" data-name="Group 941">
          <path id="Path_2186" data-name="Path 2186" d="M293.055,212.843l.428-.247.89.511-.428.246Z" fill="#ffee60"/>
        </g>
        <g id="Group_942" data-name="Group 942">
          <path id="Path_2187" data-name="Path 2187" d="M293.945,213.353l.428-.246,0,.76-.427.247Z" fill="#bb5a31"/>
        </g>
        <g id="Group_943" data-name="Group 943">
          <path id="Path_2188" data-name="Path 2188" d="M293.059,211.479l.427-.247,0,1.364-.428.247Z" fill="#bb5a31"/>
        </g>
        <g id="Group_944" data-name="Group 944">
          <path id="Path_2189" data-name="Path 2189" d="M294.28,211.42l.427-.247,0,.758-.427.247Z" fill="#bb5a31"/>
        </g>
        <g id="Group_945" data-name="Group 945">
          <path id="Path_2190" data-name="Path 2190" d="M292.4,210.341l.428-.247,1.881,1.079-.427.247Z" fill="#ffee60"/>
        </g>
        <g id="Group_946" data-name="Group 946">
          <path id="Path_2191" data-name="Path 2191" d="M281.2,203.916l0,.758-1.221-.7,0,1.364.892.512,0,.76-.892-.512,0,1.364,1.221.7,0,.76-1.881-1.079.014-5.005Z" fill="#ffb42b"/>
        </g>
        <g id="Group_947" data-name="Group 947">
          <path id="Path_2192" data-name="Path 2192" d="M275.251,200.5l.72,5.425-.695-.4-.15-1.24-.69-.4-.164,1.058-.687-.394.759-4.577Zm-.711,2.716.49.28-.24-2.111-.249,1.831Z" fill="#ffb42b"/>
        </g>
        <g id="Group_948" data-name="Group 948">
          <path id="Path_2193" data-name="Path 2193" d="M273.683,199.6l-.7,4.611-.628-.361-.37-2.97-.358,2.552-.632-.363-.719-5.424.693.4.338,2.877.325-2.5.693.4.337,2.874.329-2.492Z" fill="#ffb42b"/>
        </g>
        <g id="Group_949" data-name="Group 949">
          <path id="Path_2194" data-name="Path 2194" d="M294.28,211.42l0,.758-1.219-.7,0,1.364.89.511,0,.761-.89-.511,0,1.364,1.219.7,0,.76-1.881-1.079.014-5.006Z" fill="#ffb42b"/>
        </g>
      </g>
      <g id="Group_976" data-name="Group 976">
        <g id="Group_956" data-name="Group 956">
          <g id="Group_955" data-name="Group 955" style="isolation: isolate">
            <g id="Group_953" data-name="Group 953" style="isolation: isolate">
              <g id="Group_952" data-name="Group 952" clip-path="url(#clip-path-12)">
                <g id="Group_951" data-name="Group 951" style="isolation: isolate">
                  <path id="Path_2195" data-name="Path 2195" d="M340.031,214.209a1.231,1.231,0,0,1-.026.221,1.388,1.388,0,0,1-.062.216,1.6,1.6,0,0,1-.1.219,1.967,1.967,0,0,1-.156.23,2.218,2.218,0,0,1-.241.257,3.013,3.013,0,0,1-.49.361l-.047.027a4.277,4.277,0,0,1-.847.371l-.026,8.858a4.352,4.352,0,0,0,.848-.37l.047-.028a2.982,2.982,0,0,0,.49-.361,2.213,2.213,0,0,0,.24-.257,1.715,1.715,0,0,0,.156-.23,1.471,1.471,0,0,0,.1-.219,1.274,1.274,0,0,0,.063-.216,1.217,1.217,0,0,0,.025-.221c0-.034.026-8.892.026-8.892Z" fill="#ff8726"/>
                  <path id="Path_2196" data-name="Path 2196" d="M337.326,216.292c-.162.029-.327.052-.493.067-.142.015-.285.025-.43.029s-.264,0-.4,0-.255-.01-.381-.021-.252-.024-.377-.041-.257-.04-.384-.066l-.025,8.858c.126.026.254.048.384.066s.25.033.377.043.253.017.38.02.265,0,.4,0,.287-.015.429-.028c.167-.017.332-.039.494-.068a5.868,5.868,0,0,0,.732-.182l.026-8.858A5.827,5.827,0,0,1,337.326,216.292Z" fill="#ffb424"/>
                  <path id="Path_2197" data-name="Path 2197" d="M334.463,216.163a4.807,4.807,0,0,1-.47-.157,4.192,4.192,0,0,1-.558-.267,1.923,1.923,0,0,1-1.142-1.585l-.026,8.858a1.928,1.928,0,0,0,1.143,1.587,4.26,4.26,0,0,0,.558.266,4.8,4.8,0,0,0,.469.157c.132.038.266.071.4.1l.025-8.858C334.729,216.234,334.595,216.2,334.463,216.163Z" fill="#ffce2b"/>
                </g>
              </g>
            </g>
            <g id="Group_954" data-name="Group 954">
              <path id="Path_2199" data-name="Path 2199" d="M338.889,212.589c1.516.87,1.524,2.282.017,3.151a6.062,6.062,0,0,1-5.472,0c-1.516-.869-1.524-2.28-.018-3.15A6.061,6.061,0,0,1,338.889,212.589Z" fill="#ffce2b"/>
            </g>
          </g>
        </g>
        <g id="Group_961" data-name="Group 961">
          <g id="Group_960" data-name="Group 960" style="isolation: isolate">
            <g id="Group_959" data-name="Group 959" style="isolation: isolate">
              <g id="Group_958" data-name="Group 958" clip-path="url(#clip-path-13)">
                <g id="Group_957" data-name="Group 957" style="isolation: isolate">
                  <path id="Path_2200" data-name="Path 2200" d="M340.2,222.842a1.355,1.355,0,0,1-.027.232,1.408,1.408,0,0,1-.065.228,1.619,1.619,0,0,1-.108.229,1.885,1.885,0,0,1-.162.241,2.317,2.317,0,0,1-.252.268,3.1,3.1,0,0,1-.511.377v.295a3.152,3.152,0,0,0,.512-.376,2.517,2.517,0,0,0,.25-.269,1.967,1.967,0,0,0,.164-.24,1.558,1.558,0,0,0,.107-.23,1.413,1.413,0,0,0,.067-.228,1.461,1.461,0,0,0,.026-.231v-.3Z" fill="#85929c"/>
                  <path id="Path_2201" data-name="Path 2201" d="M339.024,224.445a4.6,4.6,0,0,1-.884.386,5.988,5.988,0,0,1-.767.191c-.17.03-.343.054-.518.072-.149.015-.3.025-.45.029s-.277.006-.416,0v.295c.139,0,.278,0,.416,0s.3-.016.451-.03c.174-.018.347-.041.517-.072a5.892,5.892,0,0,0,.767-.189,4.54,4.54,0,0,0,.886-.387l.048-.029v-.295Z" fill="#a2afb8"/>
                  <path id="Path_2202" data-name="Path 2202" d="M335.588,225.1c-.132-.011-.264-.026-.395-.044s-.27-.043-.4-.07-.285-.064-.423-.1c-.169-.048-.334-.1-.492-.165v.295a4.951,4.951,0,0,0,.492.165c.138.039.28.074.423.1s.266.05.4.07.263.033.395.044.266.018.4.021v-.295C335.854,225.121,335.721,225.114,335.588,225.1Z" fill="#bbc6cb"/>
                  <path id="Path_2203" data-name="Path 2203" d="M333.876,224.722v.295a4.338,4.338,0,0,1-.582-.277,2.018,2.018,0,0,1-1.195-1.662v-.295a2.015,2.015,0,0,0,1.195,1.661,4.28,4.28,0,0,0,.582.278Z" fill="#d3dbdc"/>
                </g>
              </g>
            </g>
            <path id="Path_2205" data-name="Path 2205" d="M340.019,222.8a1.908,1.908,0,0,1-1.124,1.569,6.065,6.065,0,0,1-5.473,0,1.953,1.953,0,0,1-1.142-1.541l0-.734a1.412,1.412,0,0,0,0,1.379,2.548,2.548,0,0,0,1.016.971,6.357,6.357,0,0,0,5.729,0,2.531,2.531,0,0,0,.994-.947,1.415,1.415,0,0,0,.015-1.362C340.022,222.116,340.019,222.8,340.019,222.8Z" fill="#e5eae7"/>
          </g>
        </g>
        <g id="Group_966" data-name="Group 966">
          <g id="Group_965" data-name="Group 965" style="isolation: isolate">
            <g id="Group_964" data-name="Group 964" style="isolation: isolate">
              <g id="Group_963" data-name="Group 963" clip-path="url(#clip-path-14)">
                <g id="Group_962" data-name="Group 962" style="isolation: isolate">
                  <path id="Path_2206" data-name="Path 2206" d="M340.2,218.493a1.355,1.355,0,0,1-.027.232,1.4,1.4,0,0,1-.065.226,1.632,1.632,0,0,1-.108.23,1.968,1.968,0,0,1-.162.241,2.514,2.514,0,0,1-.252.268,3.164,3.164,0,0,1-.511.377v.295a3.156,3.156,0,0,0,.512-.377,2.407,2.407,0,0,0,.25-.268,1.9,1.9,0,0,0,.164-.241,1.5,1.5,0,0,0,.107-.229,1.359,1.359,0,0,0,.092-.46v-.295Z" fill="#85929c"/>
                  <path id="Path_2207" data-name="Path 2207" d="M339.024,220.1a4.529,4.529,0,0,1-.884.387,5.8,5.8,0,0,1-.767.189c-.17.031-.343.055-.518.072-.149.015-.3.025-.45.03s-.277.006-.416,0v.295c.139,0,.278,0,.416,0s.3-.015.451-.029c.174-.018.347-.041.517-.072a5.894,5.894,0,0,0,.767-.189,4.61,4.61,0,0,0,.886-.387l.048-.029v-.295Z" fill="#a2afb8"/>
                  <path id="Path_2208" data-name="Path 2208" d="M335.588,220.755c-.132-.011-.264-.026-.395-.045s-.27-.041-.4-.068-.285-.064-.423-.1c-.169-.048-.334-.1-.492-.165v.295c.159.062.323.117.492.165.138.039.28.073.423.1s.266.05.4.07.263.033.395.044.266.018.4.021v-.295C335.854,220.773,335.721,220.765,335.588,220.755Z" fill="#bbc6cb"/>
                  <path id="Path_2209" data-name="Path 2209" d="M333.876,220.374v.295a4.632,4.632,0,0,1-.582-.277,2.018,2.018,0,0,1-1.195-1.662v-.3a2.015,2.015,0,0,0,1.195,1.662,4.418,4.418,0,0,0,.582.278Z" fill="#d3dbdc"/>
                </g>
              </g>
            </g>
            <path id="Path_2211" data-name="Path 2211" d="M340.032,217.787c-.01-.019-.014.666-.014.666a1.909,1.909,0,0,1-1.124,1.569,6.072,6.072,0,0,1-5.473,0,1.953,1.953,0,0,1-1.142-1.542l0-.734a1.414,1.414,0,0,0,0,1.38,2.546,2.546,0,0,0,1.016.97,6.357,6.357,0,0,0,5.729,0,2.515,2.515,0,0,0,.994-.947A1.413,1.413,0,0,0,340.032,217.787Z" fill="#e5eae7"/>
          </g>
        </g>
        <g id="Group_975" data-name="Group 975">
          <g id="Group_974" data-name="Group 974" style="isolation: isolate">
            <g id="Group_969" data-name="Group 969" style="isolation: isolate">
              <g id="Group_968" data-name="Group 968" clip-path="url(#clip-path-15)">
                <g id="Group_967" data-name="Group 967" style="isolation: isolate">
                  <path id="Path_2212" data-name="Path 2212" d="M338.877,212.433a4.328,4.328,0,0,0-.558-.266v.295a4.19,4.19,0,0,1,.558.266,1.926,1.926,0,0,1,1.143,1.587v-.295A1.927,1.927,0,0,0,338.877,212.433Z" fill="#85929c"/>
                  <path id="Path_2213" data-name="Path 2213" d="M337.849,212.009c-.132-.037-.267-.07-.4-.1s-.254-.047-.384-.066-.25-.031-.376-.041-.254-.017-.381-.02-.265,0-.4,0-.288.013-.43.028c-.167.017-.332.039-.493.068a5.474,5.474,0,0,0-.733.182v.295a5.648,5.648,0,0,1,.733-.182c.162-.029.327-.052.493-.068.143-.013.285-.024.43-.028s.264-.006.4,0,.255.01.381.02.252.025.376.043.257.04.384.066.272.061.4.1c.161.046.318.1.469.158v-.295C338.167,212.108,338.011,212.055,337.849,212.009Z" fill="#a2afb8"/>
                  <path id="Path_2214" data-name="Path 2214" d="M333.4,212.433l-.047.028a2.948,2.948,0,0,0-.491.361,2.188,2.188,0,0,0-.239.256,1.8,1.8,0,0,0-.156.231,1.478,1.478,0,0,0-.1.219,1.375,1.375,0,0,0-.062.216,1.326,1.326,0,0,0-.026.22v.3a1.323,1.323,0,0,1,.025-.221,1.516,1.516,0,0,1,.062-.216,1.606,1.606,0,0,1,.1-.219,1.721,1.721,0,0,1,.156-.23,2.111,2.111,0,0,1,.24-.257,3.065,3.065,0,0,1,.49-.361l.047-.027a4.385,4.385,0,0,1,.848-.371v-.295A4.353,4.353,0,0,0,333.4,212.433Z" fill="#85929c"/>
                  <path id="Path_2215" data-name="Path 2215" d="M332.28,213.964v.3c0,.034,0-.262,0-.262Z" fill="#757776"/>
                </g>
              </g>
            </g>
            <g id="Group_972" data-name="Group 972" style="isolation: isolate">
              <g id="Group_971" data-name="Group 971" clip-path="url(#clip-path-16)">
                <g id="Group_970" data-name="Group 970" style="isolation: isolate">
                  <path id="Path_2217" data-name="Path 2217" d="M340.2,214.021v0Z" fill="#85929c"/>
                  <path id="Path_2218" data-name="Path 2218" d="M340.2,214.055v.3a1.461,1.461,0,0,1-.026.231v-.295a1.355,1.355,0,0,0,.027-.232Z" fill="#85929c"/>
                  <path id="Path_2219" data-name="Path 2219" d="M340.172,214.288v.295a1.412,1.412,0,0,1-.067.228v-.295a1.408,1.408,0,0,0,.065-.228Z" fill="#85929c"/>
                  <path id="Path_2220" data-name="Path 2220" d="M340.107,214.515v.295a1.5,1.5,0,0,1-.107.229v-.295a1.68,1.68,0,0,0,.108-.229Z" fill="#85929c"/>
                  <path id="Path_2221" data-name="Path 2221" d="M340,214.744v.295a1.9,1.9,0,0,1-.164.241v-.295a1.884,1.884,0,0,0,.162-.241Z" fill="#85929c"/>
                  <path id="Path_2222" data-name="Path 2222" d="M339.836,214.985v.295a2.4,2.4,0,0,1-.25.268v-.295a2.316,2.316,0,0,0,.252-.268Z" fill="#85929c"/>
                  <path id="Path_2223" data-name="Path 2223" d="M339.584,215.253v.295a3.09,3.09,0,0,1-.512.377v-.295a3.1,3.1,0,0,0,.511-.377Z" fill="#85929c"/>
                  <path id="Path_2224" data-name="Path 2224" d="M339.073,215.63v.295l-.048.029a4.64,4.64,0,0,1-.886.387v-.3a4.531,4.531,0,0,0,.884-.387l.05-.028Z" fill="#a2afb8"/>
                  <path id="Path_2225" data-name="Path 2225" d="M338.139,216.045v.3a5.985,5.985,0,0,1-.767.189v-.295a5.806,5.806,0,0,0,.767-.191Z" fill="#a2afb8"/>
                  <path id="Path_2226" data-name="Path 2226" d="M337.372,216.235v.295c-.17.03-.343.054-.518.072v-.295c.175-.018.347-.041.518-.072Z" fill="#a2afb8"/>
                  <path id="Path_2227" data-name="Path 2227" d="M336.854,216.307v.295c-.149.015-.3.025-.45.029v-.295c.15,0,.3-.015.45-.029Z" fill="#a2afb8"/>
                  <path id="Path_2228" data-name="Path 2228" d="M336.4,216.336v.295c-.139.006-.278.006-.416,0v-.295c.139,0,.277,0,.416,0Z" fill="#a2afb8"/>
                  <path id="Path_2229" data-name="Path 2229" d="M335.988,216.338v.295c-.133,0-.267-.01-.4-.021v-.295c.133.011.266.018.4.021Z" fill="#bbc6cb"/>
                  <path id="Path_2230" data-name="Path 2230" d="M335.588,216.317v.295q-.2-.015-.4-.044v-.295c.131.018.263.033.395.044Z" fill="#bbc6cb"/>
                  <path id="Path_2231" data-name="Path 2231" d="M335.193,216.273v.295c-.135-.019-.27-.041-.4-.07V216.2c.132.027.266.05.4.07Z" fill="#bbc6cb"/>
                  <path id="Path_2232" data-name="Path 2232" d="M334.791,216.2v.295c-.143-.029-.284-.064-.423-.1V216.1c.139.039.279.073.423.1Z" fill="#bbc6cb"/>
                  <path id="Path_2233" data-name="Path 2233" d="M334.368,216.1v.295a4.827,4.827,0,0,1-.491-.165v-.295q.239.092.492.165Z" fill="#bbc6cb"/>
                  <path id="Path_2234" data-name="Path 2234" d="M333.876,215.936v.295a4.494,4.494,0,0,1-.583-.277,2.018,2.018,0,0,1-1.195-1.662V214a2.013,2.013,0,0,0,1.195,1.661,4.281,4.281,0,0,0,.582.278Z" fill="#d3dbdc"/>
                </g>
              </g>
            </g>
            <g id="Group_973" data-name="Group 973">
              <path id="Path_2236" data-name="Path 2236" d="M339.006,212.359c1.585.909,1.593,2.389.018,3.3a6.351,6.351,0,0,1-5.729,0c-1.585-.909-1.594-2.389-.019-3.3A6.36,6.36,0,0,1,339.006,212.359Zm-5.583,3.225a6.06,6.06,0,0,0,5.471,0c1.507-.87,1.5-2.281-.017-3.151a6.062,6.062,0,0,0-5.472,0c-1.506.87-1.5,2.281.018,3.151Z" fill="#e5eae7"/>
            </g>
          </g>
        </g>
      </g>
      <g id="Group_1055" data-name="Group 1055">
        <path id="Path_2237" data-name="Path 2237" d="M322.467,242.511l-11.127-6.385a.938.938,0,0,1,0-1.781l11.127-6.386a3.452,3.452,0,0,1,3.1,0l11.127,6.386a.938.938,0,0,1,0,1.781l-11.127,6.385A3.445,3.445,0,0,1,322.467,242.511Z" fill="#cc8c8c" opacity="0.2" style="mix-blend-mode: multiply;isolation: isolate"/>
        <g id="Group_993" data-name="Group 993">
          <g id="Group_985" data-name="Group 985">
            <g id="Group_980" data-name="Group 980">
              <g id="Group_979" data-name="Group 979">
                <g id="Group_977" data-name="Group 977">
                  <path id="Path_2238" data-name="Path 2238" d="M318.647,237.5l0,1.593-1.156.663v-1.595Z" fill="#9a6a4e"/>
                </g>
                <g id="Group_978" data-name="Group 978">
                  <path id="Path_2239" data-name="Path 2239" d="M312.19,233.8l0,1.593-1.155.664v-1.6Z" fill="#9a6a4e"/>
                </g>
              </g>
              <path id="Path_2240" data-name="Path 2240" d="M323.707,240.92v2.405l-1.153-.661v-1.582l-5.06-2.9v1.582l-1.4-.8v-1.582l-5.06-2.9v1.582l-1.151-.661v-2.405Z" fill="#d4a36e"/>
            </g>
            <g id="Group_984" data-name="Group 984">
              <g id="Group_983" data-name="Group 983">
                <g id="Group_981" data-name="Group 981">
                  <path id="Path_2241" data-name="Path 2241" d="M328.767,237.5l0,1.593,1.155.664v-1.6Z" fill="#d4a36e"/>
                </g>
                <g id="Group_982" data-name="Group 982">
                  <path id="Path_2242" data-name="Path 2242" d="M335.223,233.8l0,1.593,1.156.664V234.46Z" fill="#d4a36e"/>
                </g>
              </g>
              <path id="Path_2243" data-name="Path 2243" d="M337.526,232.989v2.405l-1.151.66v-1.582l-5.06,2.9v1.582l-1.4.8v-1.582l-5.06,2.9v1.582l-1.152.661V240.92Z" fill="#9a6a4e"/>
            </g>
          </g>
          <g id="Group_992" data-name="Group 992">
            <g id="Group_986" data-name="Group 986">
              <path id="Path_2244" data-name="Path 2244" d="M323.707,225.058l-13.821,7.931,13.821,7.931,13.819-7.931Zm-10.92,8.663,12.194-7,.61.349-12.2,7Zm3.011,1.727,12.194-7,.61.351-12.2,7Zm3.011,1.729,12.194-7,.61.349-12.2,7Zm3.622,2.077-.611-.35,12.194-7,.609.35Z" fill="#f3c895"/>
            </g>
            <g id="Group_991" data-name="Group 991">
              <g id="Group_987" data-name="Group 987">
                <path id="Path_2245" data-name="Path 2245" d="M334.013,232.32l-11.827,6.792-.366-.209,12.195-7Z" fill="#9a6a4e"/>
                <path id="Path_2246" data-name="Path 2246" d="M334.624,232.254l-.361.207-.25-.141,0-.415Z" fill="#d4a36e"/>
              </g>
              <g id="Group_988" data-name="Group 988">
                <path id="Path_2247" data-name="Path 2247" d="M331,230.593l-11.827,6.792-.366-.209,12.194-7Z" fill="#9a6a4e"/>
                <path id="Path_2248" data-name="Path 2248" d="M331.613,230.528l-.361.207-.25-.141v-.415Z" fill="#d4a36e"/>
              </g>
              <g id="Group_989" data-name="Group 989">
                <path id="Path_2249" data-name="Path 2249" d="M327.991,228.865l-11.827,6.792-.366-.209,12.195-7Z" fill="#9a6a4e"/>
                <path id="Path_2250" data-name="Path 2250" d="M328.6,228.8l-.361.207-.25-.141,0-.415Z" fill="#d4a36e"/>
              </g>
              <g id="Group_990" data-name="Group 990">
                <path id="Path_2251" data-name="Path 2251" d="M324.981,227.138l-11.827,6.792-.365-.209,12.195-7Z" fill="#9a6a4e"/>
                <path id="Path_2252" data-name="Path 2252" d="M325.592,227.072l-.361.207-.25-.141,0-.415Z" fill="#d4a36e"/>
              </g>
            </g>
          </g>
        </g>
        <path id="Path_2253" data-name="Path 2253" d="M317.6,236.773l3.324.007,1.8-1.04,4.913,2.844,8.995-5.177-9.97-5.813Z" fill="#49768f" opacity="0.3" style="mix-blend-mode: multiply;isolation: isolate"/>
        <g id="Group_1010" data-name="Group 1010">
          <g id="Group_998" data-name="Group 998">
            <g id="Group_997" data-name="Group 997" style="isolation: isolate">
              <g id="Group_994" data-name="Group 994">
                <path id="Path_2254" data-name="Path 2254" d="M317.63,228.862l11.976-6.918-.022,7.918-11.977,6.918Z" fill="#c48455"/>
                <path id="Path_2255" data-name="Path 2255" d="M328.538,223.782l-.015,5.472-9.849,5.688v-.209l9.637-5.567.015-5.261Z" fill="#715245"/>
                <path id="Path_2256" data-name="Path 2256" d="M328.326,223.9l-.015,5.261-9.637,5.567.017-5.261Z" fill="#9c6147"/>
              </g>
              <g id="Group_995" data-name="Group 995">
                <path id="Path_2257" data-name="Path 2257" d="M310.7,224.885l11.976-6.918,6.931,3.978-11.976,6.918Z" fill="#ffe3bd"/>
                <path id="Path_2258" data-name="Path 2258" d="M327.487,221.947l-.183.106-4.628-2.654L313,224.987l-.183-.106,9.858-5.694Z" fill="#9c6147"/>
                <path id="Path_2259" data-name="Path 2259" d="M327.3,222.053l-9.675,5.588L313,224.987l9.675-5.589Z" fill="#de9c6f"/>
              </g>
              <g id="Group_996" data-name="Group 996">
                <path id="Path_2260" data-name="Path 2260" d="M317.63,228.862l-.023,7.918-6.931-3.978.022-7.918Z" fill="#de9c6f"/>
                <path id="Path_2261" data-name="Path 2261" d="M316.55,234.623v.332l-4.811-2.759.017-5.485.213.12-.017,5.154Z" fill="#9c6147"/>
                <path id="Path_2262" data-name="Path 2262" d="M316.567,229.472l-.017,5.151-4.6-2.639.017-5.154Z" fill="#c48455"/>
              </g>
            </g>
          </g>
          <g id="Group_1003" data-name="Group 1003">
            <g id="Group_1001" data-name="Group 1001">
              <g id="Group_999" data-name="Group 999">
                <path id="Path_2263" data-name="Path 2263" d="M323.129,229.13l.583-1.495c.029-.075.1-.117.132-.076l.583.825c.029.041-.007.136-.065.169l-1.168.669C323.136,229.256,323.1,229.2,323.129,229.13Z" fill="#744b44"/>
              </g>
              <g id="Group_1000" data-name="Group 1000">
                <path id="Path_2264" data-name="Path 2264" d="M323.962,229.941l-.367.211c-.032.018-.056,0-.056-.033V228.73l.479-.277v1.39A.123.123,0,0,1,323.962,229.941Z" fill="#744b44"/>
              </g>
            </g>
            <g id="Group_1002" data-name="Group 1002">
              <path id="Path_2265" data-name="Path 2265" d="M321.964,231.485l-.114.065v-.123l.334-.192v.123l-.113.065v.692l-.107.061Z" fill="#744b44"/>
              <path id="Path_2266" data-name="Path 2266" d="M322.378,231.594v.345l-.107.062v-.815l.107-.062v.346l.129-.075v-.345l.107-.062v.815l-.107.062v-.345Z" fill="#744b44"/>
              <path id="Path_2267" data-name="Path 2267" d="M322.817,231.687l-.107.062v-.815l.107-.062Z" fill="#744b44"/>
              <path id="Path_2268" data-name="Path 2268" d="M323.26,231.23a.373.373,0,0,1-.038.167.306.306,0,0,1-.073.1.358.358,0,0,1-.06.044.142.142,0,0,1-.1.024.09.09,0,0,1-.054-.048.252.252,0,0,1-.024-.1l.1-.067c0,.045.015.074.033.085a.04.04,0,0,0,.044,0,.153.153,0,0,0,.056-.073.161.161,0,0,0,.01-.061.089.089,0,0,0-.039-.077l-.1-.048a.218.218,0,0,1-.076-.063.194.194,0,0,1-.024-.1.35.35,0,0,1,.065-.206.309.309,0,0,1,.1-.092.167.167,0,0,1,.1-.027.074.074,0,0,1,.052.035.181.181,0,0,1,.024.081l-.1.08a.089.089,0,0,0-.026-.064c-.009-.007-.024-.006-.042,0a.1.1,0,0,0-.045.056.188.188,0,0,0-.012.067.112.112,0,0,0,.042.09.214.214,0,0,0,.048.025.326.326,0,0,1,.049.021.172.172,0,0,1,.061.055.2.2,0,0,1,.017.029A.168.168,0,0,1,323.26,231.23Z" fill="#744b44"/>
              <path id="Path_2269" data-name="Path 2269" d="M323.761,230.943a.361.361,0,0,1-.038.167.314.314,0,0,1-.073.1.318.318,0,0,1-.06.044.134.134,0,0,1-.1.024.084.084,0,0,1-.054-.048.246.246,0,0,1-.024-.1l.1-.066c0,.045.016.073.033.084a.038.038,0,0,0,.044,0,.143.143,0,0,0,.056-.072.16.16,0,0,0,.011-.061.087.087,0,0,0-.041-.077l-.095-.049a.2.2,0,0,1-.076-.063.191.191,0,0,1-.024-.1.353.353,0,0,1,.065-.206.294.294,0,0,1,.1-.091.16.16,0,0,1,.1-.028.07.07,0,0,1,.051.035.163.163,0,0,1,.024.081l-.1.081a.089.089,0,0,0-.025-.064c-.01-.008-.024-.007-.043,0a.1.1,0,0,0-.044.055.171.171,0,0,0-.014.067.11.11,0,0,0,.043.09.152.152,0,0,0,.047.025c.025.01.042.017.05.021a.193.193,0,0,1,.061.055.263.263,0,0,1,.017.029A.192.192,0,0,1,323.761,230.943Z" fill="#744b44"/>
              <path id="Path_2270" data-name="Path 2270" d="M323.957,231.032l-.107.062v-.815l.107-.062Z" fill="#744b44"/>
              <path id="Path_2271" data-name="Path 2271" d="M324.389,230.589a.332.332,0,0,1-.048.166.34.34,0,0,1-.12.126l-.168.1v-.815l.168-.1a.113.113,0,0,1,.12-.011.116.116,0,0,1,.048.109Zm-.229.205.064-.037a.122.122,0,0,0,.043-.046.116.116,0,0,0,.018-.059v-.427a.037.037,0,0,0-.061-.036l-.064.037Z" fill="#744b44"/>
              <path id="Path_2272" data-name="Path 2272" d="M324.484,230.731v-.816l.3-.175v.124l-.2.113v.222l.144-.083v.123l-.144.083v.223l.2-.113v.123Z" fill="#744b44"/>
              <path id="Path_2273" data-name="Path 2273" d="M325.106,230.383a.118.118,0,0,1-.121.012.114.114,0,0,1-.049-.109v-.63l.1-.061v.629a.038.038,0,0,0,.062.035.139.139,0,0,0,.061-.105v-.629l.112-.064v.63a.323.323,0,0,1-.05.167A.336.336,0,0,1,325.106,230.383Z" fill="#744b44"/>
              <path id="Path_2274" data-name="Path 2274" d="M325.54,229.31a.119.119,0,0,1,.124-.016.132.132,0,0,1,.043.114v.118a.344.344,0,0,1-.048.166.338.338,0,0,1-.118.126l-.063.035v.307l-.106.062v-.815Zm.063.159a.044.044,0,0,0-.017-.041.044.044,0,0,0-.044.006l-.065.037v.261l.065-.037a.138.138,0,0,0,.061-.105Z" fill="#744b44"/>
            </g>
          </g>
          <g id="Group_1009" data-name="Group 1009">
            <path id="Path_2275" data-name="Path 2275" d="M315.435,232.685l-2.821-1.619V228.98l2.821,1.619Z" fill="#ecebe3"/>
            <g id="Group_1008" data-name="Group 1008">
              <g id="Group_1004" data-name="Group 1004">
                <path id="Path_2276" data-name="Path 2276" d="M314.817,231.935l-1.585-.909a.126.126,0,0,1-.056-.1c0-.036.026-.049.056-.033l1.585.909a.126.126,0,0,1,.056.1C314.873,231.938,314.847,231.953,314.817,231.935Z" fill="#744b44"/>
              </g>
              <g id="Group_1005" data-name="Group 1005">
                <path id="Path_2277" data-name="Path 2277" d="M314.817,231.546l-1.585-.909a.124.124,0,0,1-.056-.1c0-.036.026-.05.056-.033l1.585.909a.124.124,0,0,1,.056.1C314.873,231.549,314.847,231.564,314.817,231.546Z" fill="#744b44"/>
              </g>
              <g id="Group_1006" data-name="Group 1006">
                <path id="Path_2278" data-name="Path 2278" d="M314.817,231.158l-1.585-.909a.126.126,0,0,1-.056-.1c0-.036.026-.05.056-.033l1.585.909a.126.126,0,0,1,.056.1C314.873,231.161,314.847,231.175,314.817,231.158Z" fill="#744b44"/>
              </g>
              <g id="Group_1007" data-name="Group 1007">
                <path id="Path_2279" data-name="Path 2279" d="M314.817,230.769l-1.585-.909a.124.124,0,0,1-.056-.1c0-.036.026-.05.056-.033l1.585.909a.124.124,0,0,1,.056.1C314.873,230.772,314.847,230.787,314.817,230.769Z" fill="#744b44"/>
              </g>
            </g>
          </g>
        </g>
        <g id="Group_1031" data-name="Group 1031">
          <g id="Group_1020" data-name="Group 1020">
            <g id="Group_1013" data-name="Group 1013">
              <g id="Group_1011" data-name="Group 1011">
                <path id="Path_2280" data-name="Path 2280" d="M327.466,223.962,333.8,227.6l-.548.316-5.741,3.318-6.332-3.634.546-.315Z" fill="#f3c895"/>
                <path id="Path_2281" data-name="Path 2281" d="M323.593,228.089h7.8l-3.886,2.244Z" fill="#de9c6f"/>
                <path id="Path_2282" data-name="Path 2282" d="M327.47,224.857l4.774,2.74-.155.089-4.575-2.626-4.194,2.423-.308.179-.081.047-.2-.114.236-.136.308-.179Z" fill="#9c6147"/>
                <path id="Path_2283" data-name="Path 2283" d="M327.513,225.061l4.575,2.626-.389.225h-8.417l-.352-.2.081-.047.308-.179Z" fill="#de9c6f"/>
              </g>
              <g id="Group_1012" data-name="Group 1012">
                <path id="Path_2284" data-name="Path 2284" d="M331.7,227.911l-.308.179h-7.8l-.311-.179Z" fill="#9c6147"/>
                <path id="Path_2285" data-name="Path 2285" d="M333.246,227.279l.551.316-.156.089-.392.227H321.726l-.549-.315.546-.315h11.523Z" fill="#f3c895"/>
              </g>
            </g>
            <g id="Group_1016" data-name="Group 1016">
              <g id="Group_1014" data-name="Group 1014">
                <path id="Path_2286" data-name="Path 2286" d="M321.177,227.6l6.332,3.634v.644l.02,6.623-6.332-3.634v-.629Z" fill="#de9c6f"/>
                <path id="Path_2287" data-name="Path 2287" d="M326.748,236.977l-3.755-2.156,3.743-2.147Z" fill="#de9c6f"/>
                <path id="Path_2288" data-name="Path 2288" d="M321.958,229.128l.2.114.014,4.838v.449l-.2-.114v-.272l0-.356Z" fill="#9c6147"/>
                <path id="Path_2289" data-name="Path 2289" d="M322.157,229.242l4.575,2.626,0,.449-4.21,2.414-.352-.2v-.449Z" fill="#c48455"/>
                <path id="Path_2290" data-name="Path 2290" d="M326.748,236.977l-3.755-2.156-.157-.089,3.9-2.236v.179Z" fill="#c48455"/>
              </g>
              <g id="Group_1015" data-name="Group 1015">
                <path id="Path_2291" data-name="Path 2291" d="M326.956,230.925l.551.316,0,.632-5.763,3.305-.549-.315v-.629Z" fill="#9c6147"/>
                <path id="Path_2292" data-name="Path 2292" d="M322.993,234.821l-.157-.089,3.9-2.236,0-.179-4.21,2.415.313.179,3.912,2.245v-.179Z" fill="#9c6147"/>
                <path id="Path_2293" data-name="Path 2293" d="M326.956,230.925l.551.316v.179l0,.453-.775.445-4.21,2.414-.778.446-.549-.315v-.629l.776-.446,4.207-2.416Z" fill="#de9c6f"/>
              </g>
            </g>
            <g id="Group_1019" data-name="Group 1019">
              <g id="Group_1017" data-name="Group 1017">
                <path id="Path_2294" data-name="Path 2294" d="M333.8,227.6v7.265l-.55.317-5.761,3.329v-7.267l.548-.316Z" fill="#c48455"/>
                <path id="Path_2295" data-name="Path 2295" d="M332.164,234.735l-.155.089-3.744,2.161V232.5Z" fill="#9c6147"/>
                <path id="Path_2296" data-name="Path 2296" d="M333.019,229.174v5.244l-.156.089v-5.251Z" fill="#715245"/>
                <path id="Path_2297" data-name="Path 2297" d="M332.863,229.257v5.251l-.391.226-4.208-2.416v-.4l.081-.046.31-.18Z" fill="#9c6147"/>
              </g>
              <g id="Group_1018" data-name="Group 1018">
                <path id="Path_2298" data-name="Path 2298" d="M333.8,234.229v.632l-.55.317-5.761-3.308v-.631l.548-.316Z" fill="#9c6147"/>
                <path id="Path_2299" data-name="Path 2299" d="M332.473,234.733l-.309.18-3.9,2.25v-.179l3.744-2.161.155-.089-3.9-2.24v-.179Z" fill="#715245"/>
                <path id="Path_2300" data-name="Path 2300" d="M333.8,234.229v.632l-.156.089-.394.228-.775-.445-4.208-2.416-.778-.446v-.631l.548-.316.777.446,4.208,2.413Z" fill="#c48455"/>
              </g>
            </g>
          </g>
          <g id="Group_1024" data-name="Group 1024">
            <g id="Group_1023" data-name="Group 1023">
              <g id="Group_1021" data-name="Group 1021">
                <path id="Path_2301" data-name="Path 2301" d="M328.928,229.086l-1.42.815a.207.207,0,0,1-.127.019.118.118,0,0,1-.094-.054l-.519-1.112c-.025-.054.069-.108.161-.093l1.94.3a.117.117,0,0,1,.093.054C328.974,229.039,328.961,229.067,328.928,229.086Zm-2.047-.36c0,.011.514,1.123.514,1.123.019.009.027.01.034.006l1.42-.815c-.009-.019-1.949-.317-1.949-.317A.029.029,0,0,0,326.88,228.726Z" fill="#c48455"/>
              </g>
              <g id="Group_1022" data-name="Group 1022">
                <path id="Path_2302" data-name="Path 2302" d="M327.565,229.191l-.434-.249.117-.067.434.249.141.092-.1.057Zm.343.2-.117-.067.117-.067.117.067Z" fill="#c48455"/>
              </g>
            </g>
          </g>
          <g id="Group_1030" data-name="Group 1030">
            <path id="Path_2303" data-name="Path 2303" d="M324.636,235.413l1.738,1v-1.285l-1.738-1Z" fill="#ecebe3"/>
            <g id="Group_1029" data-name="Group 1029">
              <g id="Group_1025" data-name="Group 1025">
                <path id="Path_2304" data-name="Path 2304" d="M325.017,235.388l.976.561c.019.01.035,0,.035-.02a.078.078,0,0,0-.035-.061l-.976-.559c-.019-.011-.035,0-.035.02A.077.077,0,0,0,325.017,235.388Z" fill="#744b44"/>
              </g>
              <g id="Group_1026" data-name="Group 1026">
                <path id="Path_2305" data-name="Path 2305" d="M325.017,235.15l.976.56c.019.011.035,0,.035-.02a.077.077,0,0,0-.035-.059l-.976-.561c-.019-.01-.035,0-.035.02A.078.078,0,0,0,325.017,235.15Z" fill="#744b44"/>
              </g>
              <g id="Group_1027" data-name="Group 1027">
                <path id="Path_2306" data-name="Path 2306" d="M325.017,234.91l.976.561c.019.01.035,0,.035-.02a.078.078,0,0,0-.035-.061l-.976-.559c-.019-.011-.035,0-.035.02A.076.076,0,0,0,325.017,234.91Z" fill="#744b44"/>
              </g>
              <g id="Group_1028" data-name="Group 1028">
                <path id="Path_2307" data-name="Path 2307" d="M325.017,234.671l.976.559c.019.011.035,0,.035-.02a.077.077,0,0,0-.035-.059l-.976-.561c-.019-.01-.035,0-.035.02A.078.078,0,0,0,325.017,234.671Z" fill="#744b44"/>
              </g>
            </g>
          </g>
        </g>
        <g id="Group_1054" data-name="Group 1054">
          <path id="Path_2308" data-name="Path 2308" d="M321.126,225.091l1.723,0,4.3-2.473-2.8-1.512Z" fill="#49768f" opacity="0.3" style="mix-blend-mode: multiply;isolation: isolate"/>
          <g id="Group_1037" data-name="Group 1037">
            <g id="Group_1036" data-name="Group 1036">
              <g id="Group_1035" data-name="Group 1035" style="isolation: isolate">
                <g id="Group_1032" data-name="Group 1032">
                  <path id="Path_2309" data-name="Path 2309" d="M321.126,221.046l3.694-2.134-.012,4.048-3.694,2.134Z" fill="#d4a36e"/>
                </g>
                <g id="Group_1033" data-name="Group 1033">
                  <path id="Path_2310" data-name="Path 2310" d="M324.82,218.912l-3.694,2.134-1.61-.924-.451-.258-1.483-.851,3.694-2.134,1.5.859.45.258Z" fill="#ffe3bd"/>
                </g>
                <g id="Group_1034" data-name="Group 1034">
                  <path id="Path_2311" data-name="Path 2311" d="M321.126,221.046l-.011,4.048-3.544-2.034.012-4.048Z" fill="#f3c895"/>
                </g>
              </g>
            </g>
            <path id="Path_2312" data-name="Path 2312" d="M323.221,218l-3.705,2.127-.451-.258,3.707-2.127Z" fill="#e8593a"/>
            <path id="Path_2313" data-name="Path 2313" d="M319.065,219.866l.451.258v1.948l-.451-.259Z" fill="#bb5a31"/>
          </g>
          <g id="Group_1047" data-name="Group 1047">
            <g id="Group_1039" data-name="Group 1039">
              <path id="Path_2314" data-name="Path 2314" d="M321.982,223.587a.156.156,0,0,0-.047.018.3.3,0,0,0-.126.163c-.024-.04-.072-.048-.127-.017a.313.313,0,0,0-.128.164c-.024-.04-.072-.049-.127-.018a.285.285,0,0,0-.046.036.692.692,0,0,1,.3-.443C321.826,223.407,321.948,223.45,321.982,223.587Z" fill="#c48455"/>
              <g id="Group_1038" data-name="Group 1038">
                <path id="Path_2315" data-name="Path 2315" d="M321.726,224.362c-.045.026-.064,0-.067-.028v-.63a.045.045,0,0,1,.021-.036c.011-.007.02,0,.02.012v.627c0,.006.006.017.025.006a.062.062,0,0,0,.025-.047.045.045,0,0,1,.023-.036c.012-.006.02,0,.02.015A.155.155,0,0,1,321.726,224.362Z" fill="#c48455"/>
              </g>
            </g>
            <g id="Group_1043" data-name="Group 1043">
              <g id="Group_1040" data-name="Group 1040">
                <path id="Path_2316" data-name="Path 2316" d="M322.4,223.558l-.047.027c-.091.054-.166.01-.166-.1v-.266l.38-.219v.266A.364.364,0,0,1,322.4,223.558Z" fill="#c48455"/>
              </g>
              <g id="Group_1041" data-name="Group 1041">
                <path id="Path_2317" data-name="Path 2317" d="M322.4,223.959l-.043.025v-.441l.043-.025Z" fill="#c48455"/>
              </g>
              <g id="Group_1042" data-name="Group 1042">
                <path id="Path_2318" data-name="Path 2318" d="M322.5,223.926l-.248.141c-.011.007-.021,0-.021-.012a.051.051,0,0,1,.021-.037l.248-.141c.012-.008.021,0,.021.012A.047.047,0,0,1,322.5,223.926Z" fill="#c48455"/>
              </g>
            </g>
            <g id="Group_1046" data-name="Group 1046">
              <g id="Group_1044" data-name="Group 1044">
                <path id="Path_2319" data-name="Path 2319" d="M323.546,223.343l-.772.443c-.018.01-.035.009-.044,0a.065.065,0,0,1,0-.058l.386-.989c.018-.047.07-.076.088-.05l.386.546a.065.065,0,0,1,0,.058A.108.108,0,0,1,323.546,223.343Zm-.386-.613c-.007.008-.393,1-.393,1s.778-.434.778-.434c.007-.017-.379-.562-.379-.562Z" fill="#c48455"/>
              </g>
              <g id="Group_1045" data-name="Group 1045">
                <path id="Path_2320" data-name="Path 2320" d="M323.126,223.216v-.271l.063-.036v.271l0,.1-.054.03Zm0,.214v-.074l.063-.036v.073Z" fill="#c48455"/>
              </g>
            </g>
          </g>
          <g id="Group_1053" data-name="Group 1053">
            <path id="Path_2321" data-name="Path 2321" d="M323.074,221.712l-1.435.823v-1.061l1.435-.823Z" fill="#ecebe3"/>
            <g id="Group_1052" data-name="Group 1052">
              <g id="Group_1048" data-name="Group 1048">
                <path id="Path_2322" data-name="Path 2322" d="M322.76,221.691l-.807.463c-.016.009-.028,0-.028-.017a.063.063,0,0,1,.028-.049l.807-.463c.016-.009.028,0,.028.017A.063.063,0,0,1,322.76,221.691Z" fill="#744b44"/>
              </g>
              <g id="Group_1049" data-name="Group 1049">
                <path id="Path_2323" data-name="Path 2323" d="M322.76,221.494l-.807.462c-.016.009-.028,0-.028-.016a.061.061,0,0,1,.028-.049l.807-.463c.016-.009.028,0,.028.017A.063.063,0,0,1,322.76,221.494Z" fill="#744b44"/>
              </g>
              <g id="Group_1050" data-name="Group 1050">
                <path id="Path_2324" data-name="Path 2324" d="M322.76,221.3l-.807.463c-.016.009-.028,0-.028-.017a.063.063,0,0,1,.028-.049l.807-.462c.016-.009.028,0,.028.016A.061.061,0,0,1,322.76,221.3Z" fill="#744b44"/>
              </g>
              <g id="Group_1051" data-name="Group 1051">
                <path id="Path_2325" data-name="Path 2325" d="M322.76,221.1l-.807.463c-.016.009-.028,0-.028-.017a.063.063,0,0,1,.028-.049l.807-.462c.016-.01.028,0,.028.016A.063.063,0,0,1,322.76,221.1Z" fill="#744b44"/>
              </g>
            </g>
          </g>
        </g>
      </g>
    </g>
  </g>
</svg>
