<svg id="Component_1_1" data-name="Component 1 – 1" xmlns="http://www.w3.org/2000/svg" width="168" height="135" viewBox="0 0 168 135">
  <g id="Vector_Smart_Object_copy_19" data-name="Vector Smart Object copy 19" transform="translate(-1304.999 -3150)">
    <g id="Vector_Smart_Object_copy_19-2" data-name="Vector Smart Object copy 19" transform="translate(650.872 2909.536)">
      <g id="Group_547" data-name="Group 547">
        <g id="Group_513" data-name="Group 513">
          <g id="Group_503" data-name="Group 503">
            <path id="Path_939" data-name="Path 939" d="M658.645,260.724a2.259,2.259,0,1,1-2.259-2.259A2.259,2.259,0,0,1,658.645,260.724Z" fill="#242c36"/>
          </g>
          <g id="Group_504" data-name="Group 504">
            <path id="Path_940" data-name="Path 940" d="M674.991,262.97A2.259,2.259,0,1,1,677,260.489,2.259,2.259,0,0,1,674.991,262.97Z" fill="#242c36"/>
          </g>
          <g id="Group_505" data-name="Group 505">
            <path id="Path_941" data-name="Path 941" d="M693.362,262.97a2.259,2.259,0,1,1,2.012-2.481A2.259,2.259,0,0,1,693.362,262.97Z" fill="#242c36"/>
          </g>
          <g id="Group_506" data-name="Group 506">
            <path id="Path_942" data-name="Path 942" d="M730.1,262.97a2.259,2.259,0,1,1,2.012-2.481A2.259,2.259,0,0,1,730.1,262.97Z" fill="#242c36"/>
          </g>
          <g id="Group_507" data-name="Group 507">
            <path id="Path_943" data-name="Path 943" d="M711.732,262.97a2.259,2.259,0,1,1,2.012-2.481A2.259,2.259,0,0,1,711.732,262.97Z" fill="#242c36"/>
          </g>
          <g id="Group_508" data-name="Group 508">
            <path id="Path_944" data-name="Path 944" d="M658.645,276.768a2.259,2.259,0,1,1-2.259-2.258A2.259,2.259,0,0,1,658.645,276.768Z" fill="#242c36"/>
          </g>
          <g id="Group_509" data-name="Group 509">
            <path id="Path_945" data-name="Path 945" d="M674.991,279.015A2.259,2.259,0,1,1,677,276.534,2.259,2.259,0,0,1,674.991,279.015Z" fill="#242c36"/>
          </g>
          <g id="Group_510" data-name="Group 510">
            <path id="Path_946" data-name="Path 946" d="M693.362,279.015a2.259,2.259,0,1,1,2.012-2.481A2.259,2.259,0,0,1,693.362,279.015Z" fill="#242c36"/>
          </g>
          <g id="Group_511" data-name="Group 511">
            <path id="Path_947" data-name="Path 947" d="M730.1,279.015a2.259,2.259,0,1,1,2.012-2.481A2.259,2.259,0,0,1,730.1,279.015Z" fill="#242c36"/>
          </g>
          <g id="Group_512" data-name="Group 512">
            <path id="Path_948" data-name="Path 948" d="M711.732,279.015a2.259,2.259,0,1,1,2.012-2.481A2.259,2.259,0,0,1,711.732,279.015Z" fill="#242c36"/>
          </g>
        </g>
        <g id="Group_524" data-name="Group 524">
          <g id="Group_514" data-name="Group 514">
            <path id="Path_949" data-name="Path 949" d="M658.645,293.851a2.259,2.259,0,1,1-2.259-2.259A2.259,2.259,0,0,1,658.645,293.851Z" fill="#242c36"/>
          </g>
          <g id="Group_515" data-name="Group 515">
            <path id="Path_950" data-name="Path 950" d="M674.991,296.1A2.259,2.259,0,1,1,677,293.617,2.259,2.259,0,0,1,674.991,296.1Z" fill="#242c36"/>
          </g>
          <g id="Group_516" data-name="Group 516">
            <path id="Path_951" data-name="Path 951" d="M693.362,296.1a2.259,2.259,0,1,1,2.012-2.481A2.259,2.259,0,0,1,693.362,296.1Z" fill="#242c36"/>
          </g>
          <g id="Group_517" data-name="Group 517">
            <path id="Path_952" data-name="Path 952" d="M730.1,296.1a2.259,2.259,0,1,1,2.012-2.481A2.259,2.259,0,0,1,730.1,296.1Z" fill="#242c36"/>
          </g>
          <g id="Group_518" data-name="Group 518">
            <path id="Path_953" data-name="Path 953" d="M711.732,296.1a2.259,2.259,0,1,1,2.012-2.481A2.259,2.259,0,0,1,711.732,296.1Z" fill="#242c36"/>
          </g>
          <g id="Group_519" data-name="Group 519">
            <path id="Path_954" data-name="Path 954" d="M658.645,309.9a2.259,2.259,0,1,1-2.259-2.259A2.259,2.259,0,0,1,658.645,309.9Z" fill="#242c36"/>
          </g>
          <g id="Group_520" data-name="Group 520">
            <path id="Path_955" data-name="Path 955" d="M674.991,312.144A2.259,2.259,0,1,1,677,309.663,2.259,2.259,0,0,1,674.991,312.144Z" fill="#242c36"/>
          </g>
          <g id="Group_521" data-name="Group 521">
            <path id="Path_956" data-name="Path 956" d="M693.362,312.144a2.259,2.259,0,1,1,2.012-2.481A2.259,2.259,0,0,1,693.362,312.144Z" fill="#242c36"/>
          </g>
          <g id="Group_522" data-name="Group 522">
            <path id="Path_957" data-name="Path 957" d="M730.1,312.144a2.259,2.259,0,1,1,2.012-2.481A2.259,2.259,0,0,1,730.1,312.144Z" fill="#242c36"/>
          </g>
          <g id="Group_523" data-name="Group 523">
            <path id="Path_958" data-name="Path 958" d="M711.732,312.144a2.259,2.259,0,1,1,2.012-2.481A2.259,2.259,0,0,1,711.732,312.144Z" fill="#242c36"/>
          </g>
        </g>
        <g id="Group_535" data-name="Group 535">
          <g id="Group_525" data-name="Group 525">
            <path id="Path_959" data-name="Path 959" d="M658.645,324.032a2.259,2.259,0,1,1-2.259-2.259A2.26,2.26,0,0,1,658.645,324.032Z" fill="#242c36"/>
          </g>
          <g id="Group_526" data-name="Group 526">
            <path id="Path_960" data-name="Path 960" d="M674.991,326.279A2.259,2.259,0,1,1,677,323.8,2.259,2.259,0,0,1,674.991,326.279Z" fill="#242c36"/>
          </g>
          <g id="Group_527" data-name="Group 527">
            <path id="Path_961" data-name="Path 961" d="M693.362,326.279a2.259,2.259,0,1,1,2.012-2.481A2.259,2.259,0,0,1,693.362,326.279Z" fill="#242c36"/>
          </g>
          <g id="Group_528" data-name="Group 528">
            <path id="Path_962" data-name="Path 962" d="M730.1,326.279a2.259,2.259,0,1,1,2.012-2.481A2.259,2.259,0,0,1,730.1,326.279Z" fill="#242c36"/>
          </g>
          <g id="Group_529" data-name="Group 529">
            <path id="Path_963" data-name="Path 963" d="M711.732,326.279a2.259,2.259,0,1,1,2.012-2.481A2.259,2.259,0,0,1,711.732,326.279Z" fill="#242c36"/>
          </g>
          <g id="Group_530" data-name="Group 530">
            <path id="Path_964" data-name="Path 964" d="M658.645,340.077a2.259,2.259,0,1,1-2.259-2.258A2.259,2.259,0,0,1,658.645,340.077Z" fill="#242c36"/>
          </g>
          <g id="Group_531" data-name="Group 531">
            <path id="Path_965" data-name="Path 965" d="M674.991,342.323A2.259,2.259,0,1,1,677,339.844,2.257,2.257,0,0,1,674.991,342.323Z" fill="#242c36"/>
          </g>
          <g id="Group_532" data-name="Group 532">
            <path id="Path_966" data-name="Path 966" d="M693.362,342.323a2.259,2.259,0,1,1,2.012-2.479A2.257,2.257,0,0,1,693.362,342.323Z" fill="#242c36"/>
          </g>
          <g id="Group_533" data-name="Group 533">
            <path id="Path_967" data-name="Path 967" d="M730.1,342.323a2.259,2.259,0,1,1,2.012-2.479A2.257,2.257,0,0,1,730.1,342.323Z" fill="#242c36"/>
          </g>
          <g id="Group_534" data-name="Group 534">
            <path id="Path_968" data-name="Path 968" d="M711.732,342.323a2.259,2.259,0,1,1,2.012-2.479A2.257,2.257,0,0,1,711.732,342.323Z" fill="#242c36"/>
          </g>
        </g>
        <g id="Group_546" data-name="Group 546">
          <g id="Group_536" data-name="Group 536">
            <path id="Path_969" data-name="Path 969" d="M658.645,357.159a2.259,2.259,0,1,1-2.259-2.258A2.259,2.259,0,0,1,658.645,357.159Z" fill="#242c36"/>
          </g>
          <g id="Group_537" data-name="Group 537">
            <path id="Path_970" data-name="Path 970" d="M674.991,359.406A2.259,2.259,0,1,1,677,356.925,2.259,2.259,0,0,1,674.991,359.406Z" fill="#242c36"/>
          </g>
          <g id="Group_538" data-name="Group 538">
            <path id="Path_971" data-name="Path 971" d="M693.362,359.406a2.259,2.259,0,1,1,2.012-2.481A2.259,2.259,0,0,1,693.362,359.406Z" fill="#242c36"/>
          </g>
          <g id="Group_539" data-name="Group 539">
            <path id="Path_972" data-name="Path 972" d="M730.1,359.406a2.259,2.259,0,1,1,2.012-2.481A2.259,2.259,0,0,1,730.1,359.406Z" fill="#242c36"/>
          </g>
          <g id="Group_540" data-name="Group 540">
            <path id="Path_973" data-name="Path 973" d="M711.732,359.406a2.259,2.259,0,1,1,2.012-2.481A2.259,2.259,0,0,1,711.732,359.406Z" fill="#242c36"/>
          </g>
          <g id="Group_541" data-name="Group 541">
            <path id="Path_974" data-name="Path 974" d="M658.645,373.206a2.259,2.259,0,1,1-2.259-2.259A2.26,2.26,0,0,1,658.645,373.206Z" fill="#242c36"/>
          </g>
          <g id="Group_542" data-name="Group 542">
            <path id="Path_975" data-name="Path 975" d="M674.991,375.452A2.259,2.259,0,1,1,677,372.971,2.259,2.259,0,0,1,674.991,375.452Z" fill="#242c36"/>
          </g>
          <g id="Group_543" data-name="Group 543">
            <path id="Path_976" data-name="Path 976" d="M693.362,375.452a2.259,2.259,0,1,1,2.012-2.481A2.259,2.259,0,0,1,693.362,375.452Z" fill="#242c36"/>
          </g>
          <g id="Group_544" data-name="Group 544">
            <path id="Path_977" data-name="Path 977" d="M730.1,375.452a2.259,2.259,0,1,1,2.012-2.481A2.259,2.259,0,0,1,730.1,375.452Z" fill="#242c36"/>
          </g>
          <g id="Group_545" data-name="Group 545">
            <path id="Path_978" data-name="Path 978" d="M711.732,375.452a2.259,2.259,0,1,1,2.012-2.481A2.259,2.259,0,0,1,711.732,375.452Z" fill="#242c36"/>
          </g>
        </g>
      </g>
    </g>
    <path id="Color_Overlay" data-name="Color Overlay" d="M1378.494,3282.975a2.259,2.259,0,1,1,2.481,2.012,2.361,2.361,0,0,1-.238.012A2.26,2.26,0,0,1,1378.494,3282.975Zm-18.37,0a2.258,2.258,0,1,1,2.48,2.012,2.359,2.359,0,0,1-.238.012A2.259,2.259,0,0,1,1360.124,3282.975Zm-18.371,0a2.258,2.258,0,1,1,2.48,2.012,2.374,2.374,0,0,1-.238.012A2.259,2.259,0,0,1,1341.753,3282.975Zm-18.371,0a2.258,2.258,0,1,1,2.48,2.012,2.361,2.361,0,0,1-.238.012A2.259,2.259,0,0,1,1323.383,3282.975Zm-18.383-.234a2.259,2.259,0,1,1,2.259,2.259A2.259,2.259,0,0,1,1305,3282.741Zm73.495-15.812a2.259,2.259,0,1,1,2.481,2.012,2.341,2.341,0,0,1-.236.013A2.261,2.261,0,0,1,1378.494,3266.929Zm-18.37,0a2.258,2.258,0,1,1,2.48,2.012,2.337,2.337,0,0,1-.236.013A2.259,2.259,0,0,1,1360.124,3266.929Zm-18.371,0a2.258,2.258,0,1,1,2.48,2.012,2.341,2.341,0,0,1-.236.013A2.259,2.259,0,0,1,1341.753,3266.929Zm-18.371,0a2.258,2.258,0,1,1,2.48,2.012,2.339,2.339,0,0,1-.236.013A2.259,2.259,0,0,1,1323.383,3266.929ZM1305,3266.7a2.259,2.259,0,1,1,2.259,2.259A2.259,2.259,0,0,1,1305,3266.7Zm73.495-16.849a2.259,2.259,0,1,1,2.481,2.012,2.359,2.359,0,0,1-.24.013A2.258,2.258,0,0,1,1378.494,3249.846Zm-18.37,0a2.258,2.258,0,1,1,2.48,2.012,2.354,2.354,0,0,1-.24.013A2.256,2.256,0,0,1,1360.124,3249.846Zm-18.371,0a2.258,2.258,0,1,1,2.48,2.012,2.359,2.359,0,0,1-.24.013A2.256,2.256,0,0,1,1341.753,3249.846Zm-18.371,0a2.258,2.258,0,1,1,2.48,2.012,2.356,2.356,0,0,1-.24.013A2.256,2.256,0,0,1,1323.383,3249.846Zm-18.383-.234a2.259,2.259,0,1,1,2.259,2.259A2.259,2.259,0,0,1,1305,3249.612Zm73.495-15.81a2.259,2.259,0,1,1,2.481,2.012,2.325,2.325,0,0,1-.236.012A2.261,2.261,0,0,1,1378.494,3233.8Zm-18.37,0a2.258,2.258,0,1,1,2.48,2.012,2.323,2.323,0,0,1-.236.012A2.26,2.26,0,0,1,1360.124,3233.8Zm-18.371,0a2.258,2.258,0,1,1,2.48,2.012,2.327,2.327,0,0,1-.236.012A2.26,2.26,0,0,1,1341.753,3233.8Zm-18.371,0a2.258,2.258,0,1,1,2.48,2.012,2.325,2.325,0,0,1-.236.012A2.26,2.26,0,0,1,1323.383,3233.8Zm-18.383-.234a2.259,2.259,0,1,1,2.259,2.259A2.259,2.259,0,0,1,1305,3233.568Zm73.495-13.9a2.259,2.259,0,1,1,2.481,2.012,2.326,2.326,0,0,1-.236.013A2.261,2.261,0,0,1,1378.494,3219.667Zm-18.37,0a2.258,2.258,0,1,1,2.48,2.012,2.324,2.324,0,0,1-.236.013A2.26,2.26,0,0,1,1360.124,3219.667Zm-18.371,0a2.258,2.258,0,1,1,2.48,2.012,2.328,2.328,0,0,1-.236.013A2.26,2.26,0,0,1,1341.753,3219.667Zm-18.371,0a2.258,2.258,0,1,1,2.48,2.012,2.326,2.326,0,0,1-.236.013A2.26,2.26,0,0,1,1323.383,3219.667Zm-18.383-.234a2.259,2.259,0,1,1,2.259,2.257A2.259,2.259,0,0,1,1305,3219.433Zm0-16.047a2.259,2.259,0,1,1,2.259,2.26A2.261,2.261,0,0,1,1305,3203.386Zm73.495.235a2.259,2.259,0,1,1,2.481,2.011,2.292,2.292,0,0,1-.238.013A2.26,2.26,0,0,1,1378.494,3203.621Zm-18.37,0a2.258,2.258,0,1,1,2.48,2.011,2.29,2.29,0,0,1-.238.013A2.258,2.258,0,0,1,1360.124,3203.621Zm-18.371,0a2.258,2.258,0,1,1,2.48,2.011,2.3,2.3,0,0,1-.238.013A2.258,2.258,0,0,1,1341.753,3203.621Zm-18.371,0a2.258,2.258,0,1,1,2.48,2.011,2.292,2.292,0,0,1-.238.013A2.258,2.258,0,0,1,1323.383,3203.621Zm55.111-17.083a2.259,2.259,0,1,1,2.481,2.012,2.325,2.325,0,0,1-.236.012A2.261,2.261,0,0,1,1378.494,3186.538Zm-18.37,0a2.258,2.258,0,1,1,2.48,2.012,2.323,2.323,0,0,1-.236.012A2.26,2.26,0,0,1,1360.124,3186.538Zm-18.371,0a2.258,2.258,0,1,1,2.48,2.012,2.327,2.327,0,0,1-.236.012A2.26,2.26,0,0,1,1341.753,3186.538Zm-18.371,0a2.258,2.258,0,1,1,2.48,2.012,2.325,2.325,0,0,1-.236.012A2.26,2.26,0,0,1,1323.383,3186.538ZM1305,3186.3a2.259,2.259,0,1,1,2.259,2.259A2.259,2.259,0,0,1,1305,3186.3Zm73.495-15.81a2.259,2.259,0,1,1,2.481,2.011,2.292,2.292,0,0,1-.238.013A2.26,2.26,0,0,1,1378.494,3170.494Zm-18.37,0a2.258,2.258,0,1,1,2.48,2.011,2.29,2.29,0,0,1-.238.013A2.258,2.258,0,0,1,1360.124,3170.494Zm-18.371,0a2.258,2.258,0,1,1,2.48,2.011,2.3,2.3,0,0,1-.238.013A2.258,2.258,0,0,1,1341.753,3170.494Zm-18.371,0a2.258,2.258,0,1,1,2.48,2.011,2.292,2.292,0,0,1-.238.013A2.258,2.258,0,0,1,1323.383,3170.494Zm-18.383-.235a2.259,2.259,0,1,1,2.259,2.258A2.259,2.259,0,0,1,1305,3170.259Z" fill="#e8ebf0"/>
  </g>
  <g id="Vector_Smart_Object_copy_22" data-name="Vector Smart Object copy 22" transform="translate(-564.127 -240.465)">
    <g id="Group_637" data-name="Group 637">
      <g id="Group_603" data-name="Group 603">
        <g id="Group_593" data-name="Group 593">
          <path id="Path_1019" data-name="Path 1019" d="M658.645,260.724a2.259,2.259,0,1,1-2.259-2.259A2.259,2.259,0,0,1,658.645,260.724Z" fill="#242c36"/>
        </g>
        <g id="Group_594" data-name="Group 594">
          <path id="Path_1020" data-name="Path 1020" d="M674.991,262.97A2.259,2.259,0,1,1,677,260.489,2.259,2.259,0,0,1,674.991,262.97Z" fill="#242c36"/>
        </g>
        <g id="Group_595" data-name="Group 595">
          <path id="Path_1021" data-name="Path 1021" d="M693.362,262.97a2.259,2.259,0,1,1,2.012-2.481A2.259,2.259,0,0,1,693.362,262.97Z" fill="#242c36"/>
        </g>
        <g id="Group_596" data-name="Group 596">
          <path id="Path_1022" data-name="Path 1022" d="M730.1,262.97a2.259,2.259,0,1,1,2.012-2.481A2.259,2.259,0,0,1,730.1,262.97Z" fill="#242c36"/>
        </g>
        <g id="Group_597" data-name="Group 597">
          <path id="Path_1023" data-name="Path 1023" d="M711.732,262.97a2.259,2.259,0,1,1,2.012-2.481A2.259,2.259,0,0,1,711.732,262.97Z" fill="#242c36"/>
        </g>
        <g id="Group_598" data-name="Group 598">
          <path id="Path_1024" data-name="Path 1024" d="M658.645,276.768a2.259,2.259,0,1,1-2.259-2.258A2.259,2.259,0,0,1,658.645,276.768Z" fill="#242c36"/>
        </g>
        <g id="Group_599" data-name="Group 599">
          <path id="Path_1025" data-name="Path 1025" d="M674.991,279.015A2.259,2.259,0,1,1,677,276.534,2.259,2.259,0,0,1,674.991,279.015Z" fill="#242c36"/>
        </g>
        <g id="Group_600" data-name="Group 600">
          <path id="Path_1026" data-name="Path 1026" d="M693.362,279.015a2.259,2.259,0,1,1,2.012-2.481A2.259,2.259,0,0,1,693.362,279.015Z" fill="#242c36"/>
        </g>
        <g id="Group_601" data-name="Group 601">
          <path id="Path_1027" data-name="Path 1027" d="M730.1,279.015a2.259,2.259,0,1,1,2.012-2.481A2.259,2.259,0,0,1,730.1,279.015Z" fill="#242c36"/>
        </g>
        <g id="Group_602" data-name="Group 602">
          <path id="Path_1028" data-name="Path 1028" d="M711.732,279.015a2.259,2.259,0,1,1,2.012-2.481A2.259,2.259,0,0,1,711.732,279.015Z" fill="#242c36"/>
        </g>
      </g>
      <g id="Group_614" data-name="Group 614">
        <g id="Group_604" data-name="Group 604">
          <path id="Path_1029" data-name="Path 1029" d="M658.645,293.851a2.259,2.259,0,1,1-2.259-2.259A2.259,2.259,0,0,1,658.645,293.851Z" fill="#242c36"/>
        </g>
        <g id="Group_605" data-name="Group 605">
          <path id="Path_1030" data-name="Path 1030" d="M674.991,296.1A2.259,2.259,0,1,1,677,293.617,2.259,2.259,0,0,1,674.991,296.1Z" fill="#242c36"/>
        </g>
        <g id="Group_606" data-name="Group 606">
          <path id="Path_1031" data-name="Path 1031" d="M693.362,296.1a2.259,2.259,0,1,1,2.012-2.481A2.259,2.259,0,0,1,693.362,296.1Z" fill="#242c36"/>
        </g>
        <g id="Group_607" data-name="Group 607">
          <path id="Path_1032" data-name="Path 1032" d="M730.1,296.1a2.259,2.259,0,1,1,2.012-2.481A2.259,2.259,0,0,1,730.1,296.1Z" fill="#242c36"/>
        </g>
        <g id="Group_608" data-name="Group 608">
          <path id="Path_1033" data-name="Path 1033" d="M711.732,296.1a2.259,2.259,0,1,1,2.012-2.481A2.259,2.259,0,0,1,711.732,296.1Z" fill="#242c36"/>
        </g>
        <g id="Group_609" data-name="Group 609">
          <path id="Path_1034" data-name="Path 1034" d="M658.645,309.9a2.259,2.259,0,1,1-2.259-2.259A2.259,2.259,0,0,1,658.645,309.9Z" fill="#242c36"/>
        </g>
        <g id="Group_610" data-name="Group 610">
          <path id="Path_1035" data-name="Path 1035" d="M674.991,312.144A2.259,2.259,0,1,1,677,309.663,2.259,2.259,0,0,1,674.991,312.144Z" fill="#242c36"/>
        </g>
        <g id="Group_611" data-name="Group 611">
          <path id="Path_1036" data-name="Path 1036" d="M693.362,312.144a2.259,2.259,0,1,1,2.012-2.481A2.259,2.259,0,0,1,693.362,312.144Z" fill="#242c36"/>
        </g>
        <g id="Group_612" data-name="Group 612">
          <path id="Path_1037" data-name="Path 1037" d="M730.1,312.144a2.259,2.259,0,1,1,2.012-2.481A2.259,2.259,0,0,1,730.1,312.144Z" fill="#242c36"/>
        </g>
        <g id="Group_613" data-name="Group 613">
          <path id="Path_1038" data-name="Path 1038" d="M711.732,312.144a2.259,2.259,0,1,1,2.012-2.481A2.259,2.259,0,0,1,711.732,312.144Z" fill="#242c36"/>
        </g>
      </g>
      <g id="Group_625" data-name="Group 625">
        <g id="Group_615" data-name="Group 615">
          <path id="Path_1039" data-name="Path 1039" d="M658.645,324.032a2.259,2.259,0,1,1-2.259-2.259A2.26,2.26,0,0,1,658.645,324.032Z" fill="#242c36"/>
        </g>
        <g id="Group_616" data-name="Group 616">
          <path id="Path_1040" data-name="Path 1040" d="M674.991,326.279A2.259,2.259,0,1,1,677,323.8,2.259,2.259,0,0,1,674.991,326.279Z" fill="#242c36"/>
        </g>
        <g id="Group_617" data-name="Group 617">
          <path id="Path_1041" data-name="Path 1041" d="M693.362,326.279a2.259,2.259,0,1,1,2.012-2.481A2.259,2.259,0,0,1,693.362,326.279Z" fill="#242c36"/>
        </g>
        <g id="Group_618" data-name="Group 618">
          <path id="Path_1042" data-name="Path 1042" d="M730.1,326.279a2.259,2.259,0,1,1,2.012-2.481A2.259,2.259,0,0,1,730.1,326.279Z" fill="#242c36"/>
        </g>
        <g id="Group_619" data-name="Group 619">
          <path id="Path_1043" data-name="Path 1043" d="M711.732,326.279a2.259,2.259,0,1,1,2.012-2.481A2.259,2.259,0,0,1,711.732,326.279Z" fill="#242c36"/>
        </g>
        <g id="Group_620" data-name="Group 620">
          <path id="Path_1044" data-name="Path 1044" d="M658.645,340.077a2.259,2.259,0,1,1-2.259-2.258A2.259,2.259,0,0,1,658.645,340.077Z" fill="#242c36"/>
        </g>
        <g id="Group_621" data-name="Group 621">
          <path id="Path_1045" data-name="Path 1045" d="M674.991,342.323A2.259,2.259,0,1,1,677,339.844,2.257,2.257,0,0,1,674.991,342.323Z" fill="#242c36"/>
        </g>
        <g id="Group_622" data-name="Group 622">
          <path id="Path_1046" data-name="Path 1046" d="M693.362,342.323a2.259,2.259,0,1,1,2.012-2.479A2.257,2.257,0,0,1,693.362,342.323Z" fill="#242c36"/>
        </g>
        <g id="Group_623" data-name="Group 623">
          <path id="Path_1047" data-name="Path 1047" d="M730.1,342.323a2.259,2.259,0,1,1,2.012-2.479A2.257,2.257,0,0,1,730.1,342.323Z" fill="#242c36"/>
        </g>
        <g id="Group_624" data-name="Group 624">
          <path id="Path_1048" data-name="Path 1048" d="M711.732,342.323a2.259,2.259,0,1,1,2.012-2.479A2.257,2.257,0,0,1,711.732,342.323Z" fill="#242c36"/>
        </g>
      </g>
      <g id="Group_636" data-name="Group 636">
        <g id="Group_626" data-name="Group 626">
          <path id="Path_1049" data-name="Path 1049" d="M658.645,357.159a2.259,2.259,0,1,1-2.259-2.258A2.259,2.259,0,0,1,658.645,357.159Z" fill="#242c36"/>
        </g>
        <g id="Group_627" data-name="Group 627">
          <path id="Path_1050" data-name="Path 1050" d="M674.991,359.406A2.259,2.259,0,1,1,677,356.925,2.259,2.259,0,0,1,674.991,359.406Z" fill="#242c36"/>
        </g>
        <g id="Group_628" data-name="Group 628">
          <path id="Path_1051" data-name="Path 1051" d="M693.362,359.406a2.259,2.259,0,1,1,2.012-2.481A2.259,2.259,0,0,1,693.362,359.406Z" fill="#242c36"/>
        </g>
        <g id="Group_629" data-name="Group 629">
          <path id="Path_1052" data-name="Path 1052" d="M730.1,359.406a2.259,2.259,0,1,1,2.012-2.481A2.259,2.259,0,0,1,730.1,359.406Z" fill="#242c36"/>
        </g>
        <g id="Group_630" data-name="Group 630">
          <path id="Path_1053" data-name="Path 1053" d="M711.732,359.406a2.259,2.259,0,1,1,2.012-2.481A2.259,2.259,0,0,1,711.732,359.406Z" fill="#242c36"/>
        </g>
        <g id="Group_631" data-name="Group 631">
          <path id="Path_1054" data-name="Path 1054" d="M658.645,373.206a2.259,2.259,0,1,1-2.259-2.259A2.26,2.26,0,0,1,658.645,373.206Z" fill="#242c36"/>
        </g>
        <g id="Group_632" data-name="Group 632">
          <path id="Path_1055" data-name="Path 1055" d="M674.991,375.452A2.259,2.259,0,1,1,677,372.971,2.259,2.259,0,0,1,674.991,375.452Z" fill="#242c36"/>
        </g>
        <g id="Group_633" data-name="Group 633">
          <path id="Path_1056" data-name="Path 1056" d="M693.362,375.452a2.259,2.259,0,1,1,2.012-2.481A2.259,2.259,0,0,1,693.362,375.452Z" fill="#242c36"/>
        </g>
        <g id="Group_634" data-name="Group 634">
          <path id="Path_1057" data-name="Path 1057" d="M730.1,375.452a2.259,2.259,0,1,1,2.012-2.481A2.259,2.259,0,0,1,730.1,375.452Z" fill="#242c36"/>
        </g>
        <g id="Group_635" data-name="Group 635">
          <path id="Path_1058" data-name="Path 1058" d="M711.732,375.452a2.259,2.259,0,1,1,2.012-2.481A2.259,2.259,0,0,1,711.732,375.452Z" fill="#242c36"/>
        </g>
      </g>
    </g>
  </g>
  <path id="Color_Overlay-2" data-name="Color Overlay" d="M1468.494,3282.975a2.259,2.259,0,1,1,2.481,2.012,2.361,2.361,0,0,1-.238.012A2.26,2.26,0,0,1,1468.494,3282.975Zm-18.37,0a2.258,2.258,0,1,1,2.48,2.012,2.359,2.359,0,0,1-.238.012A2.259,2.259,0,0,1,1450.124,3282.975Zm-18.371,0a2.258,2.258,0,1,1,2.48,2.012,2.374,2.374,0,0,1-.238.012A2.259,2.259,0,0,1,1431.753,3282.975Zm-18.371,0a2.258,2.258,0,1,1,2.48,2.012,2.361,2.361,0,0,1-.238.012A2.259,2.259,0,0,1,1413.383,3282.975Zm-18.383-.234a2.259,2.259,0,1,1,2.259,2.259A2.259,2.259,0,0,1,1395,3282.741Zm73.495-15.812a2.259,2.259,0,1,1,2.481,2.012,2.341,2.341,0,0,1-.236.013A2.261,2.261,0,0,1,1468.494,3266.929Zm-18.37,0a2.258,2.258,0,1,1,2.48,2.012,2.337,2.337,0,0,1-.236.013A2.259,2.259,0,0,1,1450.124,3266.929Zm-18.371,0a2.258,2.258,0,1,1,2.48,2.012,2.341,2.341,0,0,1-.236.013A2.259,2.259,0,0,1,1431.753,3266.929Zm-18.371,0a2.258,2.258,0,1,1,2.48,2.012,2.339,2.339,0,0,1-.236.013A2.259,2.259,0,0,1,1413.383,3266.929ZM1395,3266.7a2.259,2.259,0,1,1,2.259,2.259A2.259,2.259,0,0,1,1395,3266.7Zm73.495-16.849a2.259,2.259,0,1,1,2.481,2.012,2.359,2.359,0,0,1-.24.013A2.258,2.258,0,0,1,1468.494,3249.846Zm-18.37,0a2.258,2.258,0,1,1,2.48,2.012,2.354,2.354,0,0,1-.24.013A2.256,2.256,0,0,1,1450.124,3249.846Zm-18.371,0a2.258,2.258,0,1,1,2.48,2.012,2.359,2.359,0,0,1-.24.013A2.256,2.256,0,0,1,1431.753,3249.846Zm-18.371,0a2.258,2.258,0,1,1,2.48,2.012,2.356,2.356,0,0,1-.24.013A2.256,2.256,0,0,1,1413.383,3249.846Zm-18.383-.234a2.259,2.259,0,1,1,2.259,2.259A2.259,2.259,0,0,1,1395,3249.612Zm73.495-15.81a2.259,2.259,0,1,1,2.481,2.012,2.325,2.325,0,0,1-.236.012A2.261,2.261,0,0,1,1468.494,3233.8Zm-18.37,0a2.258,2.258,0,1,1,2.48,2.012,2.323,2.323,0,0,1-.236.012A2.26,2.26,0,0,1,1450.124,3233.8Zm-18.371,0a2.258,2.258,0,1,1,2.48,2.012,2.325,2.325,0,0,1-.236.012A2.26,2.26,0,0,1,1431.753,3233.8Zm-18.371,0a2.258,2.258,0,1,1,2.48,2.012,2.325,2.325,0,0,1-.236.012A2.26,2.26,0,0,1,1413.383,3233.8Zm-18.383-.234a2.259,2.259,0,1,1,2.259,2.259A2.259,2.259,0,0,1,1395,3233.568Zm73.495-13.9a2.259,2.259,0,1,1,2.481,2.012,2.326,2.326,0,0,1-.236.013A2.261,2.261,0,0,1,1468.494,3219.667Zm-18.37,0a2.258,2.258,0,1,1,2.48,2.012,2.324,2.324,0,0,1-.236.013A2.26,2.26,0,0,1,1450.124,3219.667Zm-18.371,0a2.258,2.258,0,1,1,2.48,2.012,2.326,2.326,0,0,1-.236.013A2.26,2.26,0,0,1,1431.753,3219.667Zm-18.371,0a2.258,2.258,0,1,1,2.48,2.012,2.326,2.326,0,0,1-.236.013A2.26,2.26,0,0,1,1413.383,3219.667Zm-18.383-.234a2.259,2.259,0,1,1,2.259,2.257A2.259,2.259,0,0,1,1395,3219.433Zm0-16.047a2.259,2.259,0,1,1,2.259,2.26A2.261,2.261,0,0,1,1395,3203.386Zm73.495.235a2.259,2.259,0,1,1,2.481,2.011,2.292,2.292,0,0,1-.238.013A2.26,2.26,0,0,1,1468.494,3203.621Zm-18.37,0a2.258,2.258,0,1,1,2.48,2.011,2.29,2.29,0,0,1-.238.013A2.258,2.258,0,0,1,1450.124,3203.621Zm-18.371,0a2.258,2.258,0,1,1,2.48,2.011,2.3,2.3,0,0,1-.238.013A2.258,2.258,0,0,1,1431.753,3203.621Zm-18.371,0a2.258,2.258,0,1,1,2.48,2.011,2.292,2.292,0,0,1-.238.013A2.258,2.258,0,0,1,1413.383,3203.621Zm55.111-17.083a2.259,2.259,0,1,1,2.481,2.012,2.325,2.325,0,0,1-.236.012A2.261,2.261,0,0,1,1468.494,3186.538Zm-18.37,0a2.258,2.258,0,1,1,2.48,2.012,2.323,2.323,0,0,1-.236.012A2.26,2.26,0,0,1,1450.124,3186.538Zm-18.371,0a2.258,2.258,0,1,1,2.48,2.012,2.325,2.325,0,0,1-.236.012A2.26,2.26,0,0,1,1431.753,3186.538Zm-18.371,0a2.258,2.258,0,1,1,2.48,2.012,2.325,2.325,0,0,1-.236.012A2.26,2.26,0,0,1,1413.383,3186.538ZM1395,3186.3a2.259,2.259,0,1,1,2.259,2.259A2.259,2.259,0,0,1,1395,3186.3Zm73.495-15.81a2.259,2.259,0,1,1,2.481,2.011,2.292,2.292,0,0,1-.238.013A2.26,2.26,0,0,1,1468.494,3170.494Zm-18.37,0a2.258,2.258,0,1,1,2.48,2.011,2.29,2.29,0,0,1-.238.013A2.258,2.258,0,0,1,1450.124,3170.494Zm-18.371,0a2.258,2.258,0,1,1,2.48,2.011,2.3,2.3,0,0,1-.238.013A2.258,2.258,0,0,1,1431.753,3170.494Zm-18.371,0a2.258,2.258,0,1,1,2.48,2.011,2.292,2.292,0,0,1-.238.013A2.258,2.258,0,0,1,1413.383,3170.494Zm-18.383-.235a2.259,2.259,0,1,1,2.259,2.258A2.259,2.259,0,0,1,1395,3170.259Z" transform="translate(-1304.999 -3150)" fill="#e8ebf0"/>
  <g id="Vector_Smart_Object" data-name="Vector Smart Object" transform="translate(-22.585 -439.847)">
    <g id="Group_705" data-name="Group 705">
      <g id="Group_699" data-name="Group 699">
        <g id="Group_685" data-name="Group 685">
          <g id="Group_684" data-name="Group 684">
            <g id="Group_683" data-name="Group 683">
              <path id="Path_1099" data-name="Path 1099" d="M138.9,454.6a1.94,1.94,0,0,1,1.831,1.974V517.25a1.892,1.892,0,0,1-.92,1.625L73.293,559.325a1.87,1.87,0,0,1-2.573-.662,1.9,1.9,0,0,1,.658-2.587l65.6-39.9a.01.01,0,0,0,0-.008V456.492A1.881,1.881,0,0,1,138.9,454.6Z" fill="#2e495b"/>
            </g>
          </g>
        </g>
        <g id="Group_688" data-name="Group 688">
          <g id="Group_687" data-name="Group 687">
            <g id="Group_686" data-name="Group 686">
              <path id="Path_1100" data-name="Path 1100" d="M71.264,454.6a1.942,1.942,0,0,0-1.831,1.976v60.67a1.894,1.894,0,0,0,.921,1.625l66.524,40.451a1.868,1.868,0,0,0,2.571-.662,1.894,1.894,0,0,0-.658-2.587l-65.6-39.9a.01.01,0,0,1,0-.008V456.492A1.881,1.881,0,0,0,71.264,454.6Z" fill="#2e495b"/>
            </g>
          </g>
        </g>
        <g id="Group_689" data-name="Group 689">
          <path id="Path_1101" data-name="Path 1101" d="M105.077,439.849,39.59,477.912a.01.01,0,0,0,0,.008v58.858a.01.01,0,0,0,0,.008l65.487,38.059a.011.011,0,0,0,.01,0l65.494-38.059a.01.01,0,0,0,0-.008V477.92a.01.01,0,0,0,0-.008l-65.494-38.063A.009.009,0,0,0,105.077,439.849Z" fill="#ffd56c"/>
        </g>
        <path id="Path_1102" data-name="Path 1102" d="M164.438,532.972,112.089,563.39a.009.009,0,0,1-.014-.008V519.794a.009.009,0,0,1,0-.008l52.349-30.417a.01.01,0,0,1,.014.008v43.585A.01.01,0,0,1,164.438,532.972Z" fill="#e5af42"/>
        <path id="Path_1103" data-name="Path 1103" d="M46.583,532.965V489.38a.01.01,0,0,1,.014-.008L71.71,503.966l27.221,15.818a.01.01,0,0,1,0,.008V563.38a.009.009,0,0,1-.014.008L46.588,532.973A.01.01,0,0,1,46.583,532.965Z" fill="#f7c759"/>
        <path id="Path_1104" data-name="Path 1104" d="M105.51,447.482,157.864,477.9a.009.009,0,0,1,0,.017L105.51,508.34a.009.009,0,0,1-.01,0L53.159,477.921a.01.01,0,0,1,0-.017L105.5,447.482A.009.009,0,0,1,105.51,447.482Z" fill="#ffe3a4"/>
        <path id="Path_1105" data-name="Path 1105" d="M105.085,562.477c-.778,0-.973,8.02-.583,12.03a.009.009,0,0,0,0,.007l.57.332a.011.011,0,0,0,.01,0l.578-.336a.01.01,0,0,0,0-.007C106.059,570.491,105.863,562.477,105.085,562.477Z" fill="#faad00"/>
        <g id="Group_690" data-name="Group 690">
          <path id="Path_1106" data-name="Path 1106" d="M105.085,552.909c-1.038,0-1.038-14.256,0-14.256S106.123,552.909,105.085,552.909Z" fill="#faad00"/>
        </g>
        <g id="Group_691" data-name="Group 691">
          <path id="Path_1107" data-name="Path 1107" d="M130.974,501.665c-.519-.9,13.2-8.875,13.722-7.97S131.322,502.272,130.974,501.665Z" fill="#faad00"/>
        </g>
        <g id="Group_692" data-name="Group 692">
          <path id="Path_1108" data-name="Path 1108" d="M65.476,493.7c.519-.906,14.239,7.066,13.72,7.97C78.848,502.272,64.957,494.6,65.476,493.7Z" fill="#faad00"/>
        </g>
        <path id="Path_1109" data-name="Path 1109" d="M115.516,511c-.521-.906-10.4,4.809-10.4,4.809s-.02-.008-.032-.008-.02.008-.033.008-9.88-5.714-10.4-4.809,9.461,6.066,9.658,6.169c0,0,0,0,0,0-.005.223-.259,11.909.768,11.909s.773-11.686.768-11.909c0,0,0,0,0,0C106.056,517.069,116.03,511.9,115.516,511Z" fill="#faad00"/>
        <path id="Path_1110" data-name="Path 1110" d="M161.075,484.176c.233.406,5.909-2.538,9.506-4.81a.009.009,0,0,0,0-.008v-1.444l-.007-.006C166.791,479.754,160.709,483.536,161.075,484.176Z" fill="#faad00"/>
        <path id="Path_1111" data-name="Path 1111" d="M39.585,478.525a.009.009,0,0,0,0,.008c3.314,2.292,10.516,6.1,10.779,5.643.39-.678-6.517-4.916-10.2-6.6a.009.009,0,0,0-.009,0l-.572.332a.01.01,0,0,0,0,.008Z" fill="#faad00"/>
        <g id="Group_695" data-name="Group 695">
          <g id="Group_694" data-name="Group 694">
            <g id="Group_693" data-name="Group 693">
              <path id="Path_1112" data-name="Path 1112" d="M72.289,559.59a1.94,1.94,0,0,1-1.83-1.974V496.945a1.894,1.894,0,0,1,.92-1.625L137.9,454.87a1.87,1.87,0,0,1,2.572.662,1.9,1.9,0,0,1-.658,2.587l-65.6,39.9a.01.01,0,0,0,0,.008V557.7A1.881,1.881,0,0,1,72.289,559.59Z" fill="#3b566b"/>
            </g>
          </g>
        </g>
        <g id="Group_698" data-name="Group 698">
          <g id="Group_697" data-name="Group 697">
            <g id="Group_696" data-name="Group 696">
              <path id="Path_1113" data-name="Path 1113" d="M137.789,559.59a1.94,1.94,0,0,1-1.83-1.974v-59.59a.009.009,0,0,0,0-.008l-65.6-39.895a1.9,1.9,0,0,1-.658-2.587,1.873,1.873,0,0,1,2.571-.662l66.525,40.447a1.894,1.894,0,0,1,.92,1.625V557.7A1.881,1.881,0,0,1,137.789,559.59Z" fill="#3b566b"/>
            </g>
          </g>
        </g>
      </g>
      <g id="Group_701" data-name="Group 701">
        <g id="Group_700" data-name="Group 700">
          <path id="Path_1114" data-name="Path 1114" d="M105.087,482.045c-3.633,0-6.479-2.08-6.479-4.737s2.847-4.739,6.479-4.739,6.481,2.081,6.481,4.739S108.72,482.045,105.087,482.045Zm0-5.7c-1.682,0-2.639.7-2.726.978a.01.01,0,0,0,0,.008,3.426,3.426,0,0,0,2.726.937c1.679,0,2.638-.705,2.727-.979a.01.01,0,0,0,0-.008A3.416,3.416,0,0,0,105.087,476.346Z" fill="#3b566b"/>
        </g>
      </g>
      <g id="Group_704" data-name="Group 704">
        <g id="Group_703" data-name="Group 703">
          <g id="Group_702" data-name="Group 702">
            <path id="Path_1115" data-name="Path 1115" d="M100.27,479.246c-26.534,0-33.887-4.673-34.2-4.883a1.893,1.893,0,0,1-.531-2.615,1.866,1.866,0,0,1,2.579-.549c.1.064,3.207,1.877,12.331,3.122a.009.009,0,0,0,.006-.018,16.232,16.232,0,0,1-5.824-4.707,1.9,1.9,0,0,1,.418-2.637,1.869,1.869,0,0,1,2.621.42c4.742,6.574,21.3,8.03,27.36,8.039a1.919,1.919,0,0,1,1.886,1.445,1.887,1.887,0,0,1-1.79,2.33Q102.6,479.246,100.27,479.246Z" fill="#3b566b"/>
          </g>
        </g>
      </g>
    </g>
  </g>
</svg>
