<svg xmlns="http://www.w3.org/2000/svg" width="49" height="55" viewBox="0 0 49 55">
  <g id="Vector_Smart_Object" data-name="Vector Smart Object" transform="translate(-468.856 -409.66)">
    <g id="Group_393" data-name="Group 393">
      <g id="Group_389" data-name="Group 389">
        <g id="Group_388" data-name="Group 388">
          <path id="Path_800" data-name="Path 800" d="M493.354,444.589a6.512,6.512,0,0,1-3.195-.77l-20.965-12.076a.675.675,0,0,1-.338-.586v-4.776a6.942,6.942,0,0,1,3.2-5.518l18.107-10.431a7,7,0,0,1,6.39,0l18.111,10.431a6.943,6.943,0,0,1,3.2,5.518v4.776a.674.674,0,0,1-.339.586l-20.968,12.076A6.514,6.514,0,0,1,493.354,444.589Zm-23.143-13.821,20.626,11.882a5.92,5.92,0,0,0,5.035,0L516.5,430.768v-4.387a5.635,5.635,0,0,0-2.518-4.347L495.871,411.6a5.909,5.909,0,0,0-5.035,0L472.73,422.034a5.634,5.634,0,0,0-2.519,4.347Z" fill="#bcbec0"/>
        </g>
      </g>
      <g id="Group_390" data-name="Group 390">
        <path id="Path_801" data-name="Path 801" d="M493.356,434.016a4.571,4.571,0,0,1-2.245-.544l-15.719-9.054a.676.676,0,1,1,.677-1.171l15.72,9.055a3.53,3.53,0,0,0,3.132,0l15.724-9.055a.676.676,0,1,1,.677,1.171L495.6,433.474A4.583,4.583,0,0,1,493.356,434.016Z" fill="#bcbec0"/>
      </g>
      <g id="Group_391" data-name="Group 391">
        <path id="Path_802" data-name="Path 802" d="M493.353,464.66a.675.675,0,0,1-.677-.674v-19.95a.676.676,0,0,1,.339-.586l.232-.133a.686.686,0,0,1,.316-.088,5.073,5.073,0,0,0,2.309-.578L515.411,431.4a.677.677,0,0,1,1.016.585v19.106a.675.675,0,0,1-.338.585l-22.4,12.9A.677.677,0,0,1,493.353,464.66Zm.677-20.108v18.263L515.072,450.7V433.152l-.411.238-18.112,10.43A6.1,6.1,0,0,1,494.031,444.552Z" fill="#bcbec0"/>
      </g>
      <g id="Group_392" data-name="Group 392">
        <path id="Path_803" data-name="Path 803" d="M493.353,464.66a.675.675,0,0,1-.339-.09l-22.391-12.9a.676.676,0,0,1-.338-.585V431.981a.677.677,0,0,1,1.016-.585l19.535,11.253a5.07,5.07,0,0,0,2.307.578.674.674,0,0,1,.313.088l.233.133a.674.674,0,0,1,.34.586v19.95a.674.674,0,0,1-.677.674ZM471.641,450.7l21.035,12.118V444.552a6.132,6.132,0,0,1-2.517-.733l-18.518-10.667Z" fill="#bcbec0"/>
      </g>
    </g>
  </g>
</svg>
