<svg xmlns="http://www.w3.org/2000/svg" width="83.984" height="56.677" viewBox="0 0 83.984 56.677">
  <path id="Color_Overlay" data-name="Color Overlay" d="M1104.765,2153.207a1.572,1.572,0,0,1-.009-.172,1.623,1.623,0,1,1,1.79,1.634,1.61,1.61,0,0,1-.171.009A1.629,1.629,0,0,1,1104.765,2153.207Zm-11.517,0a1.572,1.572,0,0,1-.009-.172,1.643,1.643,0,1,1,.009.172Zm-12.262,0a1.572,1.572,0,0,1-.009-.172,1.622,1.622,0,1,1,1.79,1.634,1.617,1.617,0,0,1-1.781-1.462Zm-11.518,0a1.572,1.572,0,0,1-.009-.172,1.622,1.622,0,1,1,1.789,1.634,1.61,1.61,0,0,1-.171.009A1.628,1.628,0,0,1,1069.468,2153.207Zm-10.147,0a1.572,1.572,0,0,1-.009-.172,1.623,1.623,0,1,1,1.79,1.634,1.617,1.617,0,0,1-1.781-1.462Zm-11.516,0a1.643,1.643,0,0,1,1.445-1.8,1.641,1.641,0,0,1,.335,3.264,1.61,1.61,0,0,1-.171.009A1.628,1.628,0,0,1,1047.805,2153.207Zm-12.262,0a1.572,1.572,0,0,1-.009-.172,1.643,1.643,0,1,1,.009.172Zm-11.518,0a1.572,1.572,0,0,1-.009-.172,1.623,1.623,0,1,1,1.79,1.634,1.617,1.617,0,0,1-1.781-1.462Zm80.741-13.35a1.572,1.572,0,0,1-.009-.172,1.623,1.623,0,1,1,1.79,1.634,1.587,1.587,0,0,1-.169.009A1.63,1.63,0,0,1,1104.765,2139.857Zm-11.517,0a1.572,1.572,0,0,1-.009-.172,1.623,1.623,0,1,1,1.79,1.634,1.6,1.6,0,0,1-.17.009A1.629,1.629,0,0,1,1093.248,2139.857Zm-12.262,0a1.572,1.572,0,0,1-.009-.172,1.622,1.622,0,1,1,1.79,1.634,1.594,1.594,0,0,1-.17.009A1.629,1.629,0,0,1,1080.986,2139.857Zm-11.518,0a1.572,1.572,0,0,1-.009-.172,1.622,1.622,0,1,1,1.789,1.634,1.589,1.589,0,0,1-.169.009A1.629,1.629,0,0,1,1069.468,2139.857Zm-10.147,0a1.572,1.572,0,0,1-.009-.172,1.623,1.623,0,1,1,1.79,1.634,1.59,1.59,0,0,1-.17.009A1.63,1.63,0,0,1,1059.322,2139.857Zm-11.516,0a1.652,1.652,0,0,1-.009-.175,1.622,1.622,0,1,1,1.788,1.637,1.587,1.587,0,0,1-.169.009A1.628,1.628,0,0,1,1047.805,2139.857Zm-12.262,0a1.572,1.572,0,0,1-.009-.172,1.623,1.623,0,1,1,1.79,1.634,1.6,1.6,0,0,1-.17.009A1.629,1.629,0,0,1,1035.543,2139.857Zm-11.518,0a1.572,1.572,0,0,1-.009-.172,1.623,1.623,0,1,1,1.79,1.634,1.594,1.594,0,0,1-.17.009A1.629,1.629,0,0,1,1024.025,2139.857Zm80.741-13.348a1.572,1.572,0,0,1-.009-.172,1.623,1.623,0,1,1,1.79,1.634,1.653,1.653,0,0,1-.169.009A1.63,1.63,0,0,1,1104.765,2126.509Zm-11.517,0a1.572,1.572,0,0,1-.009-.172,1.623,1.623,0,1,1,1.79,1.634,1.662,1.662,0,0,1-.17.009A1.628,1.628,0,0,1,1093.248,2126.509Zm-12.262,0a1.572,1.572,0,0,1-.009-.172,1.622,1.622,0,1,1,1.79,1.634,1.66,1.66,0,0,1-.17.009A1.629,1.629,0,0,1,1080.986,2126.509Zm-11.518,0a1.572,1.572,0,0,1-.009-.172,1.622,1.622,0,1,1,1.789,1.634,1.655,1.655,0,0,1-.169.009A1.629,1.629,0,0,1,1069.468,2126.509Zm-10.147,0a1.572,1.572,0,0,1-.009-.172,1.623,1.623,0,1,1,1.79,1.634,1.656,1.656,0,0,1-.17.009A1.63,1.63,0,0,1,1059.322,2126.509Zm-11.516,0a1.652,1.652,0,0,1-.009-.175,1.622,1.622,0,1,1,1.788,1.636,1.653,1.653,0,0,1-.169.009A1.628,1.628,0,0,1,1047.805,2126.509Zm-12.262,0a1.572,1.572,0,0,1-.009-.172,1.623,1.623,0,1,1,1.79,1.634,1.662,1.662,0,0,1-.17.009A1.628,1.628,0,0,1,1035.543,2126.509Zm-11.518,0a1.572,1.572,0,0,1-.009-.172,1.623,1.623,0,1,1,1.79,1.634,1.66,1.66,0,0,1-.17.009A1.629,1.629,0,0,1,1024.025,2126.509Zm80.741-13.349a1.572,1.572,0,0,1-.009-.172,1.623,1.623,0,1,1,1.79,1.634,1.653,1.653,0,0,1-.169.009A1.629,1.629,0,0,1,1104.765,2113.16Zm-11.517,0a1.572,1.572,0,0,1-.009-.172,1.623,1.623,0,1,1,1.79,1.634,1.662,1.662,0,0,1-.17.009A1.628,1.628,0,0,1,1093.248,2113.16Zm-12.262,0a1.572,1.572,0,0,1-.009-.172,1.622,1.622,0,1,1,1.79,1.634,1.66,1.66,0,0,1-.17.009A1.629,1.629,0,0,1,1080.986,2113.16Zm-11.518,0a1.572,1.572,0,0,1-.009-.172,1.622,1.622,0,1,1,1.789,1.634,1.655,1.655,0,0,1-.169.009A1.629,1.629,0,0,1,1069.468,2113.16Zm-10.147,0a1.572,1.572,0,0,1-.009-.172,1.623,1.623,0,1,1,1.79,1.634,1.656,1.656,0,0,1-.17.009A1.629,1.629,0,0,1,1059.322,2113.16Zm-11.516,0a1.643,1.643,0,0,1,1.445-1.8,1.641,1.641,0,0,1,.335,3.264,1.653,1.653,0,0,1-.169.009A1.628,1.628,0,0,1,1047.805,2113.16Zm-12.262,0a1.572,1.572,0,0,1-.009-.172,1.623,1.623,0,1,1,1.79,1.634,1.662,1.662,0,0,1-.17.009A1.628,1.628,0,0,1,1035.543,2113.16Zm-11.518,0a1.572,1.572,0,0,1-.009-.172,1.623,1.623,0,1,1,1.79,1.634,1.66,1.66,0,0,1-.17.009A1.629,1.629,0,0,1,1024.025,2113.16Zm80.733-13.52a1.621,1.621,0,1,1,1.621,1.642A1.631,1.631,0,0,1,1104.757,2099.641Zm-11.518,0a1.621,1.621,0,1,1,1.622,1.642A1.631,1.631,0,0,1,1093.239,2099.641Zm-12.262,0a1.622,1.622,0,1,1,1.622,1.642A1.631,1.631,0,0,1,1080.977,2099.641Zm-11.517,0a1.621,1.621,0,1,1,1.621,1.642A1.631,1.631,0,0,1,1069.46,2099.641Zm-10.147,0a1.622,1.622,0,1,1,1.622,1.642A1.633,1.633,0,0,1,1059.313,2099.641Zm-11.516,0a1.621,1.621,0,1,1,1.621,1.642A1.631,1.631,0,0,1,1047.8,2099.641Zm-12.263,0a1.621,1.621,0,1,1,1.622,1.642A1.631,1.631,0,0,1,1035.534,2099.641Zm-11.518,0a1.622,1.622,0,1,1,1.622,1.642A1.632,1.632,0,0,1,1024.016,2099.641Z" transform="translate(-1024.016 -2098)" fill="#18152c"/>
</svg>
