<svg xmlns="http://www.w3.org/2000/svg" width="59" height="89.001" viewBox="0 0 59 89.001">
  <path id="Color_Overlay" data-name="Color Overlay" d="M1771,314.282a1.709,1.709,0,1,1,1.708,1.719A1.713,1.713,0,0,1,1771,314.282Zm55.593.178a1.709,1.709,0,1,1,1.7,1.54A1.716,1.716,0,0,1,1826.592,314.46Zm-13.9,0a1.71,1.71,0,1,1,1.7,1.54A1.716,1.716,0,0,1,1812.7,314.46Zm-13.9,0a1.71,1.71,0,1,1,1.7,1.54A1.717,1.717,0,0,1,1798.8,314.46Zm-13.9,0a1.71,1.71,0,1,1,1.7,1.54A1.717,1.717,0,0,1,1784.9,314.46Zm41.688-12.206a1.708,1.708,0,1,1,1.876,1.53,1.74,1.74,0,0,1-.18.01A1.712,1.712,0,0,1,1826.592,302.254Zm-13.9,0a1.708,1.708,0,1,1,1.877,1.53,1.741,1.741,0,0,1-.18.01A1.712,1.712,0,0,1,1812.7,302.254Zm-13.9,0a1.709,1.709,0,1,1,1.877,1.53,1.741,1.741,0,0,1-.18.01A1.713,1.713,0,0,1,1798.8,302.254Zm-13.9,0a1.709,1.709,0,1,1,1.877,1.53,1.741,1.741,0,0,1-.18.01A1.713,1.713,0,0,1,1784.9,302.254Zm-13.9-.178a1.709,1.709,0,1,1,1.708,1.718A1.714,1.714,0,0,1,1771,302.076Zm55.593-12.817a1.708,1.708,0,1,1,1.876,1.531,1.774,1.774,0,0,1-.182.01A1.71,1.71,0,0,1,1826.592,289.259Zm-13.9,0a1.708,1.708,0,1,1,1.877,1.531,1.778,1.778,0,0,1-.182.01A1.71,1.71,0,0,1,1812.7,289.259Zm-13.9,0a1.708,1.708,0,1,1,1.877,1.531,1.778,1.778,0,0,1-.182.01A1.712,1.712,0,0,1,1798.8,289.259Zm-13.9,0a1.708,1.708,0,1,1,1.877,1.531,1.778,1.778,0,0,1-.182.01A1.712,1.712,0,0,1,1784.9,289.259Zm-13.9-.178a1.709,1.709,0,1,1,1.708,1.719A1.714,1.714,0,0,1,1771,289.081Zm0-12.2a1.709,1.709,0,1,1,1.708,1.719A1.713,1.713,0,0,1,1771,276.876Zm55.593.178a1.709,1.709,0,1,1,1.7,1.54A1.716,1.716,0,0,1,1826.592,277.054Zm-13.9,0a1.71,1.71,0,1,1,1.7,1.54A1.716,1.716,0,0,1,1812.7,277.054Zm-13.9,0a1.71,1.71,0,1,1,1.7,1.54A1.717,1.717,0,0,1,1798.8,277.054Zm-13.9,0a1.71,1.71,0,1,1,1.7,1.54A1.717,1.717,0,0,1,1784.9,277.054Zm41.688-10.751a1.708,1.708,0,1,1,1.876,1.53,1.732,1.732,0,0,1-.18.01A1.712,1.712,0,0,1,1826.592,266.3Zm-13.9,0a1.708,1.708,0,1,1,1.877,1.53,1.732,1.732,0,0,1-.18.01A1.712,1.712,0,0,1,1812.7,266.3Zm-13.9,0a1.7,1.7,0,1,1,1.7,1.54A1.716,1.716,0,0,1,1798.8,266.3Zm-13.9,0a1.7,1.7,0,1,1,1.7,1.54A1.716,1.716,0,0,1,1784.9,266.3Zm-13.9-.178a1.709,1.709,0,1,1,1.708,1.717A1.714,1.714,0,0,1,1771,266.125Zm0-12.207a1.709,1.709,0,1,1,1.708,1.719A1.714,1.714,0,0,1,1771,253.918Zm55.593.178a1.709,1.709,0,1,1,1.7,1.54A1.716,1.716,0,0,1,1826.592,254.1Zm-13.9,0a1.71,1.71,0,1,1,1.7,1.54A1.716,1.716,0,0,1,1812.7,254.1Zm-13.9,0a1.71,1.71,0,1,1,1.7,1.54A1.717,1.717,0,0,1,1798.8,254.1Zm-13.9,0a1.71,1.71,0,1,1,1.7,1.54A1.717,1.717,0,0,1,1784.9,254.1Zm41.688-12.994a1.709,1.709,0,1,1,1.7,1.54A1.716,1.716,0,0,1,1826.592,241.1Zm-13.9,0a1.71,1.71,0,1,1,1.7,1.54A1.716,1.716,0,0,1,1812.7,241.1Zm-13.9,0a1.71,1.71,0,1,1,1.7,1.54A1.717,1.717,0,0,1,1798.8,241.1Zm-13.9,0a1.71,1.71,0,1,1,1.7,1.54A1.717,1.717,0,0,1,1784.9,241.1Zm-13.9-.178a1.709,1.709,0,1,1,1.708,1.718A1.713,1.713,0,0,1,1771,240.924Zm55.593-12.027a1.709,1.709,0,1,1,1.7,1.54A1.715,1.715,0,0,1,1826.592,228.9Zm-13.9,0a1.71,1.71,0,1,1,1.7,1.54A1.715,1.715,0,0,1,1812.7,228.9Zm-13.9,0a1.71,1.71,0,1,1,1.7,1.54A1.716,1.716,0,0,1,1798.8,228.9Zm-13.9,0a1.71,1.71,0,1,1,1.7,1.54A1.716,1.716,0,0,1,1784.9,228.9Zm-13.9-.178a1.709,1.709,0,1,1,1.708,1.717A1.714,1.714,0,0,1,1771,228.719Z" transform="translate(-1770.999 -227)" fill="#060315"/>
</svg>
