<svg xmlns="http://www.w3.org/2000/svg" width="33.577" height="54.684" viewBox="0 0 33.577 54.684">
  <path id="Color_Overlay" data-name="Color Overlay" d="M197.873,10030.232a1.428,1.428,0,0,1-.01-2.072,1.391,1.391,0,0,1,2.049,0,1.456,1.456,0,1,1-2.039,2.077Zm20.416-.008a1.429,1.429,0,0,1,.008-2.071,1.393,1.393,0,0,1,2.049.01,1.457,1.457,0,1,1-2.057,2.062Zm-10.223-.015a1.425,1.425,0,0,1,.03-2.069,1.393,1.393,0,0,1,2.049.035,1.455,1.455,0,1,1-2.079,2.034Zm20.436.015a1.429,1.429,0,0,1,0-2.071,1.4,1.4,0,0,1,2.052.007,1.457,1.457,0,1,1-2.054,2.064Zm-30.634-10.339a1.476,1.476,0,0,1-.443-1.032v0a1.476,1.476,0,0,1,.446-1.037,1.4,1.4,0,0,1,2.049.008,1.457,1.457,0,1,1-2.052,2.066Zm30.614-.022a1.429,1.429,0,0,1,.045-2.072,1.4,1.4,0,0,1,2.049.051,1.435,1.435,0,0,1-.05,2.074,1.413,1.413,0,0,1-.992.426A1.455,1.455,0,0,1,228.483,10019.863Zm-20.409.015a1.426,1.426,0,0,1,.015-2.071,1.389,1.389,0,0,1,2.047.022,1.487,1.487,0,0,1-1.028,2.512A1.441,1.441,0,0,1,208.074,10019.878Zm10.15-.062a1.436,1.436,0,0,1-.375-.959,1.5,1.5,0,0,1,.516-1.113,1.4,1.4,0,0,1,2.047.146,1.442,1.442,0,0,1-.146,2.074,1.392,1.392,0,0,1-.94.377A1.478,1.478,0,0,1,218.224,10019.815Zm10.286-10.264a1.487,1.487,0,0,1-.451-1.042,1.466,1.466,0,0,1,.441-1.032,1.4,1.4,0,0,1,2.049,0,1.457,1.457,0,1,1-2.039,2.079Zm-20.469-.048a1.444,1.444,0,0,1-.405-.994,1.484,1.484,0,0,1,.486-1.077,1.4,1.4,0,0,1,2.049.085,1.436,1.436,0,0,1-.086,2.074,1.4,1.4,0,0,1-.973.409A1.465,1.465,0,0,1,208.041,10009.5Zm10.236.025a1.433,1.433,0,0,1,.033-2.074,1.392,1.392,0,0,1,2.047.04,1.488,1.488,0,0,1-1.034,2.5A1.456,1.456,0,0,1,218.277,10009.529Zm-20.421,0a1.465,1.465,0,0,1-.428-1.018,1.484,1.484,0,0,1,.461-1.058,1.386,1.386,0,0,1,2.044.033A1.482,1.482,0,0,1,198.9,10010,1.451,1.451,0,0,1,197.856,10009.532Zm30.67-10.307a1.494,1.494,0,0,1-.466-1.06,1.456,1.456,0,0,1,.425-1.013,1.394,1.394,0,0,1,2.049-.035,1.456,1.456,0,1,1-2.009,2.107Zm-10.241-.03a1.43,1.43,0,0,1,.018-2.072,1.4,1.4,0,0,1,2.049.023,1.488,1.488,0,0,1-1.03,2.513A1.449,1.449,0,0,1,218.285,9999.2Zm-10.2.008a1.43,1.43,0,0,1,.008-2.072,1.381,1.381,0,0,1,2.044.008,1.484,1.484,0,0,1-1.022,2.518A1.443,1.443,0,0,1,208.082,9999.2Zm-10.253-.038a1.455,1.455,0,0,1-.4-.989,1.5,1.5,0,0,1,.486-1.085,1.388,1.388,0,0,1,2.047.088,1.481,1.481,0,0,1-1.059,2.477A1.464,1.464,0,0,1,197.828,9999.165Zm30.667-10.312a1.429,1.429,0,0,1,.018-2.071,1.4,1.4,0,0,1,2.052.022,1.457,1.457,0,1,1-2.069,2.049Zm-10.223-.013a1.446,1.446,0,0,1-.42-1.007,1.493,1.493,0,0,1,.471-1.067,1.386,1.386,0,0,1,2.044.053,1.484,1.484,0,0,1-1.042,2.5A1.45,1.45,0,0,1,218.272,9988.841Zm-20.409.013a1.427,1.427,0,0,1,.02-2.071,1.381,1.381,0,0,1,2.044.022,1.482,1.482,0,0,1-1.027,2.51A1.445,1.445,0,0,1,197.863,9988.854Zm10.216.008a1.433,1.433,0,0,1,.01-2.072,1.382,1.382,0,0,1,2.044.008,1.483,1.483,0,0,1-1.023,2.518A1.448,1.448,0,0,1,208.079,9988.861Zm20.419-10.347a1.459,1.459,0,0,1-.433-1.024,1.474,1.474,0,0,1,.456-1.05,1.381,1.381,0,0,1,2.044.022,1.457,1.457,0,1,1-2.067,2.052Zm-10.211,0a1.452,1.452,0,0,1-.436-1.024,1.478,1.478,0,0,1,.453-1.05,1.384,1.384,0,0,1,2.047.022,1.484,1.484,0,0,1-1.028,2.512A1.447,1.447,0,0,1,218.287,9978.515Zm-10.2.013a1.43,1.43,0,0,1-.008-2.072,1.383,1.383,0,0,1,2.044-.007,1.456,1.456,0,1,1-2.037,2.079Zm-10.236-.021a1.455,1.455,0,0,1-.425-1.017,1.481,1.481,0,0,1,.463-1.058,1.386,1.386,0,0,1,2.044.038,1.484,1.484,0,0,1-1.035,2.5A1.454,1.454,0,0,1,197.853,9978.507Z" transform="translate(-197.423 -9975.999)" fill="#1d1f44"/>
</svg>
