<svg xmlns="http://www.w3.org/2000/svg" width="60" height="60.001" viewBox="0 0 60 60.001">
  <path id="Color_Overlay" data-name="Color Overlay" d="M943,6653.865q0,1.1-.086,2.206l-27.844,27.843c-.733.055-1.469.083-2.2.087Zm-39.1,28.795,37.765-37.763c.169.548.324,1.1.46,1.657l-36.565,36.567Q904.72,6682.915,903.9,6682.66Zm35.849-15.231a30.351,30.351,0,0,1-13.317,13.315Zm-42.908,11.98,41.573-41.571c.277.438.542.879.792,1.327L898.166,6680.2Q897.494,6679.825,896.837,6679.409ZM891.7,6675.3c-.178-.176-.351-.356-.523-.535l42.589-42.587c.179.171.359.345.535.523s.352.355.523.535l-42.587,42.588C892.055,6675.652,891.877,6675.479,891.7,6675.3Zm-4.9-6.465,41.036-41.036q.674.375,1.327.792l-41.571,41.571Q887.174,6669.508,886.8,6668.834Zm-2.919-7.389,36.567-36.565q.833.2,1.657.46L884.34,6663.1Q884.084,6662.28,883.879,6661.445Zm-.793-9.516,27.844-27.842q1.1-.083,2.2-.087L883,6654.135C883,6653.4,883.032,6652.662,883.086,6651.929Zm8.768-19.074a30.21,30.21,0,0,1,7.718-5.6l-13.316,13.316A30.167,30.167,0,0,1,891.854,6632.855Z" transform="translate(-883 -6624)" fill="#ffa62b"/>
</svg>
