<svg xmlns="http://www.w3.org/2000/svg" width="71.583" height="66.609" viewBox="0 0 71.583 66.609">
  <path id="Color_Overlay" data-name="Color Overlay" d="M1701.684,5090.978l36.036-.649a38.377,38.377,0,0,1-7.412,3.354l-21.553.389A32.669,32.669,0,0,1,1701.684,5090.978Zm-8.906-7.695,54.636-.984q-.443.5-.906,1-1.128,1.2-2.324,2.281l-48.494.874A32.42,32.42,0,0,1,1692.778,5083.283Zm-4.632-7.769,64.7-1.167q-.857,1.659-1.885,3.255l-61.264,1.1A32.969,32.969,0,0,1,1688.146,5075.514Zm-2.229-7.814,69.963-1.262q-.426,1.632-1,3.238l-68.291,1.232Q1686.177,5069.322,1685.917,5067.7Zm-.38-7.847,71.516-1.29q-.063,1.613-.272,3.226l-71.3,1.288C1685.454,5062.005,1685.472,5060.928,1685.537,5059.853Zm1.342-7.879,69.627-1.254c.194,1.06.34,2.133.436,3.211l-70.827,1.28Q1686.426,5053.582,1686.88,5051.974Zm3.231-7.913,63.968-1.154a33.207,33.207,0,0,1,1.248,3.2l-66.795,1.2Q1689.239,5045.66,1690.11,5044.061Zm5.722-7.957,53.324-.962a32.513,32.513,0,0,1,2.394,3.179l-58.439,1.054A39.678,39.678,0,0,1,1695.833,5036.1Zm10.4-8.04,33.324-.6a32.37,32.37,0,0,1,4.85,3.133l-43.357.783A38.772,38.772,0,0,1,1706.229,5028.064Z" transform="translate(-1685.47 -5027.462)" fill="#e6dbda"/>
</svg>
