<svg xmlns="http://www.w3.org/2000/svg" width="60" height="60" viewBox="0 0 60 60">
  <path id="Color_Overlay" data-name="Color Overlay" d="M222,607.865q0,1.1-.086,2.205l-27.843,27.843q-1.1.082-2.205.086ZM182.9,636.66,220.66,598.9q.255.822.461,1.658l-36.566,36.566Q183.721,636.914,182.9,636.66Zm35.848-15.232a30.341,30.341,0,0,1-13.316,13.316ZM175.838,633.41l41.572-41.571q.414.655.792,1.327L177.166,634.2Q176.494,633.825,175.838,633.41ZM170.7,629.3c-.178-.176-.352-.355-.524-.535l42.588-42.588c.18.172.359.346.535.524s.352.355.524.535l-42.588,42.588C171.056,629.652,170.877,629.478,170.7,629.3Zm-4.9-6.466L206.834,581.8q.672.377,1.327.792L166.59,624.162Q166.176,623.506,165.8,622.834Zm-2.919-7.389,36.566-36.566q.834.205,1.658.461L163.34,617.1Q163.085,616.28,162.879,615.445Zm-.793-9.516,27.843-27.843q1.1-.084,2.205-.086L162,608.135Q162,607.032,162.086,605.93Zm8.768-19.076a30.205,30.205,0,0,1,7.717-5.6l-13.316,13.316A30.19,30.19,0,0,1,170.854,586.854Z" transform="translate(-162 -578)" fill="#ffa62b"/>
</svg>
