<svg xmlns="http://www.w3.org/2000/svg" width="235.268" height="253.54" viewBox="0 0 235.268 253.54">
  <g id="Group_677" data-name="Group 677" transform="translate(-1071.595 -557.542)">
    <g id="Group_676" data-name="Group 676">
      <path id="Path_1585" data-name="Path 1585" d="M1193.4,607.872a.465.465,0,0,1-.044-.927l62.34-5.705a.425.425,0,0,1,.5.42.462.462,0,0,1-.416.5l-62.34,5.707Z" fill="#0c0402"/>
      <path id="Path_1586" data-name="Path 1586" d="M1248.526,699.787a.461.461,0,0,1-.3-.109l-66.365-55.631a.463.463,0,0,1,.591-.713l66.365,55.631a.464.464,0,0,1,.058.655A.455.455,0,0,1,1248.526,699.787Z" fill="#0c0402"/>
      <path id="Path_1587" data-name="Path 1587" d="M1072.575,698.895a.466.466,0,0,1-.356-.762l40.074-48.381a.459.459,0,0,1,.649-.06.467.467,0,0,1,.06.655l-40.074,48.381A.452.452,0,0,1,1072.575,698.895Z" fill="#0c0402"/>
      <path id="Path_1588" data-name="Path 1588" d="M1072.056,768.868a.487.487,0,0,1-.194-.042.468.468,0,0,1-.224-.618l51.407-111.453a.461.461,0,0,1,.614-.225.467.467,0,0,1,.224.616L1072.476,768.6A.465.465,0,0,1,1072.056,768.868Z" fill="#0c0402"/>
      <path id="Path_1589" data-name="Path 1589" d="M1306.4,688.068a.453.453,0,0,1-.194-.044l-117.381-54.793a.469.469,0,0,1-.224-.618.46.46,0,0,1,.612-.228l117.381,54.795a.468.468,0,0,1,.226.618A.462.462,0,0,1,1306.4,688.068Z" fill="#0c0402"/>
      <path id="Path_1590" data-name="Path 1590" d="M1190.6,595.3a.464.464,0,0,1-.157-.9l99.983-36.825a.463.463,0,0,1,.316.871l-99.985,36.825A.408.408,0,0,1,1190.6,595.3Z" fill="#0c0402"/>
      <path id="Path_1591" data-name="Path 1591" d="M1216.557,811.082a.459.459,0,0,1-.432-.307L1160.781,658.7a.465.465,0,0,1,.275-.595.454.454,0,0,1,.591.279l55.344,152.074a.463.463,0,0,1-.275.595A.431.431,0,0,1,1216.557,811.082Z" fill="#0c0402"/>
      <path id="Path_1592" data-name="Path 1592" d="M1159.731,783.693a.461.461,0,0,1-.459-.423L1148.252,661.4a.463.463,0,0,1,.418-.506.428.428,0,0,1,.5.418l11.017,121.876a.464.464,0,0,1-.418.506Z" fill="#0c0402"/>
    </g>
    <path id="Path_1593" data-name="Path 1593" d="M1144.165,655.893a43.213,43.213,0,0,1-27.912-10.2,44.02,44.02,0,0,1,24.028-77.6,43.292,43.292,0,0,1,31.951,10.016,43.762,43.762,0,0,1,15.554,29.808h0a43.875,43.875,0,0,1-9.952,32.142,43.355,43.355,0,0,1-29.63,15.647Q1146.174,655.894,1144.165,655.893Zm.15-87.051q-1.964,0-3.949.181a42.435,42.435,0,0,0-29.006,15.32,43.237,43.237,0,0,0,5.484,60.642,42.627,42.627,0,0,0,60.28-5.517,42.951,42.951,0,0,0,9.742-31.461h0a42.848,42.848,0,0,0-15.226-29.18A42.332,42.332,0,0,0,1144.316,568.842Z" fill="#0c0402"/>
  </g>
</svg>
