<svg xmlns="http://www.w3.org/2000/svg" width="293.732" height="329.474" viewBox="0 0 293.732 329.474">
  <g id="Group_675" data-name="Group 675" transform="translate(-1200.708 -600.981)">
    <g id="Group_667" data-name="Group 667">
      <path id="Path_1534" data-name="Path 1534" d="M1296.571,724.359c10.605-22.486,23.319-67.123,44.909-56.96s-12.508,49.882-28.522,66.4c-16.254,16.762-51.515,41.859-51.515,41.859l-2.946-4.541S1290.295,737.664,1296.571,724.359Z" fill="#ff3f41"/>
      <path id="Path_1535" data-name="Path 1535" d="M1258.5,771.114c-3.826,1.445-11.559-5.254-17.627.776,0,0-1.729,3.192,1.069,8.156,2.293-3.3,14.757-.952,19.5-4.39Z" fill="#f85b2d"/>
    </g>
    <path id="Path_1536" data-name="Path 1536" d="M1359.329,664.554l32.878,64.9,41.347-21.549-31.633-63.9Z" fill="#d7c191"/>
    <path id="Path_1537" data-name="Path 1537" d="M1359.329,664.554l-11.956,5.763,33.625,63.9,11.208-4.761Z" fill="#c5ac75"/>
    <path id="Path_1538" data-name="Path 1538" d="M1390.206,783.339c-14.178,13.248-62.012,9.271-74.719,23.025,0,0,9.55,38.981,15.145,49.52l-5.8,2.794s-24.864-42.368-35.13-60.737l-.506-.887c-.21-.423-.462-.848-.672-1.229a8.739,8.739,0,0,1,1.3-10.242c.293-.3.547-.592.841-.846a5.683,5.683,0,0,1,.716-.72c24.864-25.1,55.494-27.257,55.494-27.257l51.074-12.021C1411.117,764.041,1398.2,778.05,1390.206,783.339Z" fill="#f9b51c"/>
    <path id="Path_1539" data-name="Path 1539" d="M1333.451,869.6c-.757.467-1.725,1.059-2.944,1.735-.3.17-.589.339-.926.509a70.047,70.047,0,0,1-20.826,6.729,1.59,1.59,0,0,1-1.3-2.75c7.532-6.307,16.618-9.185,17.334-17.438l5.891-2.5,2.438,6.518.379,1.015,1.053,2.753A2.887,2.887,0,0,1,1333.451,869.6Z" fill="#061028"/>
    <g id="Group_674" data-name="Group 674">
      <path id="Path_1554" data-name="Path 1554" d="M1200.708,832.336a69.1,69.1,0,0,1,62.282,2.04,69.883,69.883,0,0,1,35.6,51.452,62.972,62.972,0,0,0-32.657-56.9A62.214,62.214,0,0,0,1200.708,832.336Z" fill="#040c1e"/>
      <path id="Path_1555" data-name="Path 1555" d="M1388.012,840.855a69.92,69.92,0,0,1,106.427,38.774,63.42,63.42,0,0,0-106.427-38.774Z" fill="#040c1e"/>
      <path id="Path_1556" data-name="Path 1556" d="M1233.067,899.02a2.066,2.066,0,0,1-.529-.07,2.115,2.115,0,0,1-1.505-2.583l30.6-117.836c-9.146-1.972-22.848-3.354-26.312.5-.337.376-1.367,1.521-.27,4.646a2.106,2.106,0,1,1-3.969,1.408c-1.6-4.548-.272-7.345,1.122-8.892,6.634-7.375,29.884-1.937,32.509-1.3l2.08.511L1235.1,897.438A2.106,2.106,0,0,1,1233.067,899.02Z" fill="#2d0d08"/>
      <path id="Path_1557" data-name="Path 1557" d="M1344.008,891.789a2.112,2.112,0,0,1-2.034-2.653l24.52-94.412a2.1,2.1,0,1,1,4.066,1.071l-24.52,94.412A2.1,2.1,0,0,1,1344.008,891.789Z" fill="#2d0d08"/>
      <path id="Path_1558" data-name="Path 1558" d="M1426.957,899.02c-.055,0-.109,0-.162-.007l-82.948-6.314a2.083,2.083,0,0,1-1.325-.611l-86.706-87.021a2.131,2.131,0,0,1-.4-2.434,2.1,2.1,0,0,1,2.164-1.161l105.739,14.179a2.091,2.091,0,0,1,1.353.762l63.912,79.155a2.128,2.128,0,0,1,.233,2.316A2.1,2.1,0,0,1,1426.957,899.02Zm-82.013-10.483,77.3,5.884-60.306-74.686L1263.2,806.494Z" fill="#2d0d08"/>
      <path id="Path_1559" data-name="Path 1559" d="M1360.423,890.588a16.415,16.415,0,1,1-16.415-16.511A16.464,16.464,0,0,1,1360.423,890.588Z" fill="#2d0d08"/>
      <path id="Path_1560" data-name="Path 1560" d="M1390.938,795.258h-36.054a3.939,3.939,0,0,1-3.928-3.951h0a3.941,3.941,0,0,1,3.928-3.951h36.054a3.939,3.939,0,0,1,3.925,3.951h0A3.937,3.937,0,0,1,1390.938,795.258Z" fill="#5872c5"/>
      <path id="Path_1561" data-name="Path 1561" d="M1348.451,890.588a4.443,4.443,0,1,1-4.443-4.467A4.455,4.455,0,0,1,1348.451,890.588Z" fill="#3e5cbc"/>
    </g>
    <path id="Path_1562" data-name="Path 1562" d="M1291.978,629.154l2.489,16.128,4.759-1.6s2.418,14.572,14.272,9.847c4.11,10.523,5.479,18.416,6.1,29.568,0,0,14.395-8.33,23.91-17.917-13.076-14.908-23.04-36.082-26.843-48.653C1316.669,616.527,1298.046,612.018,1291.978,629.154Z" fill="#f89184"/>
    <path id="Path_1563" data-name="Path 1563" d="M1397.948,744.74s-24.906,16.042-51.074,12.021q-.949-.951-1.893-1.9c-19.733-20.908-38.328-63.91-18.766-85.536,20.153-22.3,47.8,18.537,54.021,39.318q.63,2.035,1.263,3.937a129.58,129.58,0,0,0,11.864,25.224c1.473,2.414,2.692,4.232,3.491,5.419C1397.569,744.233,1397.948,744.74,1397.948,744.74Z" fill="#ff3f41"/>
    <path id="Path_1564" data-name="Path 1564" d="M1396.854,743.218c-32.479.253-18.974-15.111-33.53-17.777-15.482-2.836-6.9-11.3,18.175-12.867a129.58,129.58,0,0,0,11.864,25.224C1394.835,740.212,1396.055,742.031,1396.854,743.218Z" fill="#ff555e"/>
    <path id="Path_1565" data-name="Path 1565" d="M1297.326,635.031c.508,2.325,1.413,4.1,2.023,3.965s.693-2.128.185-4.453-1.411-4.1-2.02-3.963S1296.82,632.706,1297.326,635.031Z" fill="#2d0d08"/>
    <path id="Path_1566" data-name="Path 1566" d="M1397.948,744.74s-24.906,16.042-51.074,12.021q-.949-.951-1.893-1.9l48.382-17.057C1396.055,742.2,1397.948,744.74,1397.948,744.74Z" fill="#3e5cbc"/>
    <path id="Path_1567" data-name="Path 1567" d="M1390.206,783.339c-14.178,13.248-36.349,44.525-42.533,58.24,0,0,14.767,50.916,20.361,61.455l-5.763,2.834s-24.317-39.573-34.793-57.6c-.21-.381-.42-.718-.589-1.057-1.935-3.3-3.281-5.756-3.87-6.941.21-2.794.545-5.545.924-8.339a5.425,5.425,0,0,1,.169-1.143c5.26-38.175,22.763-74.024,22.763-74.024l51.074-12.021C1411.117,764.041,1398.2,778.05,1390.206,783.339Z" fill="#f9b51c"/>
    <path id="Path_1568" data-name="Path 1568" d="M1343.567,709.288a18.932,18.932,0,0,1-4.42-.523.529.529,0,0,1-.009-1.027c8.045-2.023,14.76-9.4,16.96-14a.54.54,0,0,1,.7-.249.532.532,0,0,1,.24.709c-1.953,4.086-7.745,11.073-15.529,13.907,10.936,1.266,18.726-7.935,18.807-8.033a.52.52,0,0,1,.741-.067.534.534,0,0,1,.065.746C1361.047,700.853,1353.879,709.288,1343.567,709.288Z" fill="#fff"/>
    <path id="Path_1569" data-name="Path 1569" d="M1374.01,915.687a39.481,39.481,0,0,1-2.946,2.878c-.252.256-.5.467-.8.72a71.845,71.845,0,0,1-18.091,11.048,1.6,1.6,0,0,1-1.935-2.372c5.807-7.914,13.3-13.924,12.033-22.093l5.763-2.834,3.955,5.754.589.848,1.683,2.455A2.881,2.881,0,0,1,1374.01,915.687Z" fill="#061028"/>
    <path id="Path_1570" data-name="Path 1570" d="M1401.922,644.007s10.959,12.527,16.937,14.532l-7.613,4.3Z" fill="#c5ac75"/>
    <path id="Path_1571" data-name="Path 1571" d="M1298.508,728.9c11.954-21.789,27.363-65.557,48.292-54.084s-15.521,49.018-32.509,64.514c-17.246,15.731-53.97,38.607-53.97,38.607l-2.665-4.713S1291.433,741.8,1298.508,728.9Z" fill="#ff3f41"/>
    <path id="Path_1572" data-name="Path 1572" d="M1257.656,773.226c-3.9,1.206-11.215-5.958-17.639-.311,0,0-1.923,3.078.57,8.207,2.487-3.155,14.785-.042,19.733-3.182Z" fill="#f89184"/>
    <path id="Path_1573" data-name="Path 1573" d="M1326.762,615.99c-1.773,11.259-.273,20.27.051,24.363-5.655,1.556-13.746-4.578-14.529-9.872s-6.283-3.512-5.99-1.257,4.775,8.028,4.775,8.028l-4.775,1.844s-3.2-11.563-6.733-15.136C1299.561,623.96,1314.152,612.908,1326.762,615.99Z" fill="#2d0d08"/>
    <path id="Path_1574" data-name="Path 1574" d="M1319.243,632.223a22.327,22.327,0,0,0-10.264-5.968c-8.583-2.119-15.725,2.943-18.535,6.476a12.531,12.531,0,0,1-9.834,4.516c3.357-37.961,35.511-40.59,49.714-32.583A38.116,38.116,0,0,1,1319.243,632.223Z" fill="#020614"/>
    <path id="Path_1575" data-name="Path 1575" d="M1319.243,632.223a22.327,22.327,0,0,0-10.264-5.968c14.674-5.417,21.345-21.591,21.345-21.591A38.116,38.116,0,0,1,1319.243,632.223Z" fill="#020614"/>
    <path id="Path_1576" data-name="Path 1576" d="M1308.455,654.971l-.048,0a.524.524,0,0,1-.473-.576c.547-5.74-2.452-20.277-7.564-27.831a.535.535,0,0,1,.141-.736.526.526,0,0,1,.732.142c5.315,7.861,8.315,22.5,7.735,28.525A.524.524,0,0,1,1308.455,654.971Z" fill="#fa402f"/>
    <path id="Path_1577" data-name="Path 1577" d="M1370.1,912.895a6.518,6.518,0,0,0,.968,5.67c-.252.256-.5.467-.8.72a7.885,7.885,0,0,1-1.177-6.729,7.08,7.08,0,0,1,2.9-3.768l.589.848A6.48,6.48,0,0,0,1370.1,912.895Z" fill="#fff"/>
    <path id="Path_1578" data-name="Path 1578" d="M1330.507,871.331c-.3.17-.589.339-.926.509-1.683-3.765-.926-6.1.042-7.405a5.561,5.561,0,0,1,3.491-2.033l.379,1.015a4.629,4.629,0,0,0-3.027,1.693C1329.664,866.17,1329.034,868.074,1330.507,871.331Z" fill="#fff"/>
    <path id="Path_1579" data-name="Path 1579" d="M1327.478,848.265c-.21-.381-.42-.718-.589-1.057,2.272-3.512,2.944-7.069,1.893-9.988a9.494,9.494,0,0,0-4.84-5.292,5.425,5.425,0,0,1,.169-1.143,10.861,10.861,0,0,1,5.68,6.054C1330.969,840.225,1330.17,844.288,1327.478,848.265Z" fill="#ffdb92"/>
    <path id="Path_1580" data-name="Path 1580" d="M1294.114,790.789c-.169,2.583-1.6,4.952-4.417,7.152l-.506-.887c2.441-1.991,3.745-4.107,3.872-6.307a8.914,8.914,0,0,0-2.4-6.009,5.683,5.683,0,0,1,.716-.72A9.856,9.856,0,0,1,1294.114,790.789Z" fill="#ffdb92"/>
    <path id="Path_1581" data-name="Path 1581" d="M1349.525,760.837c-3.224,6.888-8.862,18.639-3.759,21.071s17.588-14.318,18.394-24.855Z" fill="#ffd47d"/>
    <path id="Path_1582" data-name="Path 1582" d="M1401.922,724.389l8.468-44.193,7.077,10.739,2.371-10.739,8.08,16.322-3.8,16.3Z" fill="#c5ac75"/>
    <path id="Path_1583" data-name="Path 1583" d="M1401.707,658a4.139,4.139,0,1,1-4.14-4.163A4.15,4.15,0,0,1,1401.707,658Z" fill="#faebda"/>
    <path id="Path_1584" data-name="Path 1584" d="M1370.337,667.094,1388.6,658l2.887,5.582-18.462,8.915Z" fill="#faebda"/>
  </g>
</svg>
