<svg xmlns="http://www.w3.org/2000/svg" width="121.946" height="122.678" viewBox="0 0 121.946 122.678">
  <g id="Group_670" data-name="Group 670" transform="translate(-1172.093 -835.565)">
    <g id="Group_668" data-name="Group 668">
      <rect id="Rectangle_53" data-name="Rectangle 53" width="109.195" height="1.061" transform="matrix(0.298, -0.955, 0.955, 0.298, 1216.293, 949.176)" fill="#faebda"/>
      <path id="Path_1540" data-name="Path 1540" d="M1285.029,913.769l-104.241-32.721.315-1.009,104.241,32.721Z" fill="#faebda"/>
      <rect id="Rectangle_54" data-name="Rectangle 54" width="109.196" height="1.06" transform="translate(1184.467 921.941) rotate(-27.671)" fill="#faebda"/>
      <path id="Path_1541" data-name="Path 1541" d="M1257.957,945.793,1207.248,848.5l.929-.491,50.709,97.287Z" fill="#faebda"/>
    </g>
    <path id="Path_1542" data-name="Path 1542" d="M1260.129,841.953a60.794,60.794,0,0,0-81.686,27.724A61.5,61.5,0,0,0,1206,951.855a60.792,60.792,0,0,0,81.686-27.726A61.492,61.492,0,0,0,1260.129,841.953Zm21.86,79.336a54.449,54.449,0,0,1-73.163,24.83,55.078,55.078,0,0,1-24.682-73.6,54.446,54.446,0,0,1,73.161-24.83A55.076,55.076,0,0,1,1281.989,921.29Z" fill="#ffeacc"/>
    <g id="Group_669" data-name="Group 669">
      <rect id="Rectangle_55" data-name="Rectangle 55" width="109.195" height="1.061" transform="translate(1208.334 945.874) rotate(-63.62)" fill="#ffeacc"/>
      <path id="Path_1543" data-name="Path 1543" d="M1281.754,921.762l-97.846-48.77.468-.947,97.846,48.77Z" fill="#ffeacc"/>
      <rect id="Rectangle_56" data-name="Rectangle 56" width="109.196" height="1.06" transform="matrix(0.947, -0.32, 0.32, 0.947, 1181.169, 913.976)" fill="#ffeacc"/>
      <path id="Path_1544" data-name="Path 1544" d="M1250.023,949.116l-34.907-104.087.994-.339,34.906,104.086Z" fill="#ffeacc"/>
    </g>
    <path id="Path_1545" data-name="Path 1545" d="M1237.593,899.16a5.037,5.037,0,0,1-6.77,2.3,5.1,5.1,0,0,1-2.284-6.808,5.037,5.037,0,0,1,6.77-2.3A5.093,5.093,0,0,1,1237.593,899.16Z" fill="#2d0d08"/>
  </g>
</svg>
