<svg xmlns="http://www.w3.org/2000/svg" width="121.947" height="122.677" viewBox="0 0 121.947 122.677">
  <g id="Group_673" data-name="Group 673" transform="translate(-1365.981 -835.565)">
    <g id="Group_671" data-name="Group 671">
      <path id="Path_1546" data-name="Path 1546" d="M1424.1,951.758l-1.049-.067,6.76-109.641,1.049.067Z" fill="#faebda"/>
      <path id="Path_1547" data-name="Path 1547" d="M1481.419,900.833l-108.99-6.8.063-1.055,108.99,6.8Z" fill="#faebda"/>
      <path id="Path_1548" data-name="Path 1548" d="M1386.38,933.66l-.7-.793,81.847-72.718.7.793Z" fill="#faebda"/>
      <rect id="Rectangle_57" data-name="Rectangle 57" width="1.052" height="109.85" transform="translate(1390.42 856.085) rotate(-41.449)" fill="#faebda"/>
    </g>
    <path id="Path_1549" data-name="Path 1549" d="M1441.873,837.445a61.3,61.3,0,1,0,44.186,74.468A60.933,60.933,0,0,0,1441.873,837.445Zm38.019,72.9a54.619,54.619,0,1,1-39.575-66.7A54.574,54.574,0,0,1,1479.892,910.347Z" fill="#ffeacc"/>
    <g id="Group_672" data-name="Group 672">
      <path id="Path_1550" data-name="Path 1550" d="M1414.1,950.29l-1.019-.261,26.723-106.511,1.019.26Z" fill="#ffeacc"/>
      <path id="Path_1551" data-name="Path 1551" d="M1479.767,910.859l-105.878-26.884.255-1.025,105.878,26.885Z" fill="#ffeacc"/>
      <path id="Path_1552" data-name="Path 1552" d="M1380.344,925.512l-.542-.909,93.762-56.3.542.909Z" fill="#ffeacc"/>
      <rect id="Rectangle_58" data-name="Rectangle 58" width="1.052" height="109.85" transform="translate(1398.521 850.012) rotate(-30.833)" fill="#ffeacc"/>
    </g>
    <path id="Path_1553" data-name="Path 1553" d="M1431.854,898.147a5.054,5.054,0,1,1-3.662-6.17A5.05,5.05,0,0,1,1431.854,898.147Z" fill="#2d0d08"/>
  </g>
</svg>
