<svg xmlns="http://www.w3.org/2000/svg" width="385" height="185" viewBox="0 0 385 185">
  <g id="Vector_Smart_Object" data-name="Vector Smart Object" transform="matrix(-1, 0, 0, -1, 563.643, -166.283)" opacity="0.102">
    <g id="Group_458" data-name="Group 458">
      <path id="Path_939" data-name="Path 939" d="M542.977-297.29a18.726,18.726,0,0,0,.762-5.359c0-5.811-2.368-10.523-5.291-10.523-1.638,0-3.084,1.511-4.054,3.838a23.213,23.213,0,0,1,.543,5.046,21.873,21.873,0,0,1-1.061,6.843c.017.056.036.1.051.155h-2.014a17.32,17.32,0,0,0,1.365-7c0-5.811-2.368-10.523-5.291-10.523S522.7-310.1,522.7-304.288a17.32,17.32,0,0,0,1.365,7H511.471a21.809,21.809,0,0,1-1.1-7c0-7.191,3.111-13.02,6.948-13.02h10.671a4.718,4.718,0,0,1,3.311,1.637h7.15c3.837,0,6.948,5.831,6.948,13.022a22.872,22.872,0,0,1-.629,5.359Z" fill="#646464"/>
      <path id="Path_940" data-name="Path 940" d="M440.287-304.564h-2.812a33.829,33.829,0,0,0,.309-4.528c0-9.673-3.943-17.514-8.8-17.514-2.72,0-5.149,2.453-6.765,6.308a38.509,38.509,0,0,1,.919,8.477,38.92,38.92,0,0,1-.678,7.257h-2.879a32.668,32.668,0,0,0,.8-7.257c0-9.671-3.943-17.514-8.8-17.514s-8.8,7.843-8.8,17.514a32.525,32.525,0,0,0,.8,7.257H385.254c-.429-2.271-3.01-4.707-3.01-7.257,0-11.966,5.178-21.669,11.564-21.669H411.57a7.837,7.837,0,0,1,5.609,2.727h11.8c6.386,0,11.564,9.7,11.564,21.671A40.073,40.073,0,0,1,440.287-304.564Z" fill="#646464"/>
      <path id="Path_941" data-name="Path 941" d="M388.828-284.333v-14.055l13.3,8.422,1.98,2.244L521.8-290.477l-2.749-3.014-130.223-4.9v-10.7l159.138,8.887,3.372,12.505Z" fill="#646464"/>
      <g id="Group_455" data-name="Group 455">
        <path id="Path_942" data-name="Path 942" d="M200.022-320.26c1-13.08,6.991-23.144,14.248-23.144,7.2,0,13.146,9.9,14.221,22.819C219.159-322.792,209.51-322.206,200.022-320.26Z" fill="#646464"/>
        <path id="Path_943" data-name="Path 943" d="M190.67-317.938c.429-14.194,6.687-25.466,14.371-25.466h9.229v6.274a36.168,36.168,0,0,1,4.867,15.221C209.642-322.422,199.993-320.62,190.67-317.938Z" fill="#646464"/>
      </g>
      <path id="Path_944" data-name="Path 944" d="M298.653-297.276h-9.229c-7.958,0-14.412-12.09-14.412-27s6.453-27,14.412-27h9.229c7.961,0,14.412,12.09,14.412,27S306.614-297.276,298.653-297.276Zm1-47.774c-5.614,0-10.167,9.3-10.167,20.771s4.553,20.771,10.167,20.771,10.165-9.3,10.165-20.771S305.263-345.05,299.649-345.05Z" fill="#646464"/>
      <path id="Path_945" data-name="Path 945" d="M494.573-309.746l-37.826-2.743a7.169,7.169,0,0,0-7.681,6.853h0A7.554,7.554,0,0,0,456-297.724l37.829,2.743a7.167,7.167,0,0,0,7.679-6.853h0A7.554,7.554,0,0,0,494.573-309.746Z" fill="#646464"/>
      <g id="Group_457" data-name="Group 457">
        <path id="Path_946" data-name="Path 946" d="M240.294-270.1H204.863l-2.8-2.58h38.227Z" fill="#646464"/>
        <path id="Path_947" data-name="Path 947" d="M194.9-270.1v-2.581h45.4v2.581Zm-1.341-11.828h45.4v2.581h-45.4Zm-1.338-9.245h45.4v2.581h-45.4Zm-1.341-9.247h45.4v2.581h-45.4Z" fill="#646464"/>
        <rect id="Rectangle_45" data-name="Rectangle 45" width="45.398" height="2.58" transform="translate(192.215 -291.176)" fill="#646464"/>
        <g id="Group_456" data-name="Group 456">
          <path id="Path_948" data-name="Path 948" d="M395.111-287.721H382.245V-173.73l6.772.881-18.924,5.053H358.97c-6.753,2.056-9.639,1.419-9.639,1.419-1.6-.041-3.4-.148-5.335-.3-11.88-3.276-22.614-9.555-27.852-19.206-19.775.111-41.263-2-54.073-5.509a101.183,101.183,0,0,0,16.225,14.33l-.306-.063c-22.071-7.453-32.919-24.575-36.534-31.522-5.322-1.017-8.335-1.765-8.335-1.765l-6.511-17.383,4.4.283-4.724-16.153v9.833h-3.733l-2.412-2.421v-16.335A153,153,0,0,1,192.2-264.021c28.549,6.337,57.356,1.363,57.356,1.363s-7.1-38.958-7.519-44.524c-42.177-3.128-54.7.513-54.7.513a125.721,125.721,0,0,0,.617,22.039,21.166,21.166,0,0,1-1.63-1.634l-.068-.075c-.3-.339-.6-.712-.9-1.1-.055-.073-.111-.133-.166-.206-.275-.363-.55-.763-.822-1.17-.08-.116-.162-.22-.239-.344-.251-.383-.494-.806-.738-1.228-.1-.172-.2-.324-.3-.5-.219-.4-.427-.835-.639-1.266-.116-.235-.236-.45-.35-.7-.2-.441-.391-.923-.581-1.4-.111-.271-.227-.521-.333-.8-.2-.518-.371-1.082-.552-1.639-.089-.278-.188-.533-.273-.821q-.387-1.3-.711-2.729l2.424-2.634-3.434-2.637V-328.03s68.495-6.894,100.345-1.695v-1.944h11.168a40.379,40.379,0,0,0-.675,7.39c0,11.473,4.553,20.771,10.167,20.771s10.165-9.3,10.165-20.771a40.384,40.384,0,0,0-.673-7.39H316l86.124,7.39v34.313h-7.018ZM360.294-177c10.3-2.068,11.214-15.623,11.214-15.623-13.274,27.11-36.384,0-36.384,0C339.7-184.357,350-174.935,360.294-177ZM317.7-252.938a.4.4,0,0,0,.386.39l.217,0a4.565,4.565,0,0,0,4.6-3.174l6.053,7.31-11.255-.574,5.144,26.267,20.325-1.983v-22.981l-11.11-.569L322.82-259.41l-.012.01a4.5,4.5,0,0,0-3.374-2.664,10.376,10.376,0,0,0-1.336-.184.372.372,0,0,0-.4.383Zm-4.635,36.224-6.314-28.061s-1.886-4.942-13.31-4.356c0,0-16.527.269-34.833-.133l8.344,28.8ZM226.61-250.943l8.274,27.88,27.191,2.208-8.265-28.531C244.189-249.659,234.431-250.132,226.61-250.943Zm42.662-50.35c-2.006-.4-11.863-1.961-22.144-3.579,0,0,0,6.53,3.789,10.422,6.22,3.8,17.151,8.32,19.959,6.175S271.276-300.891,269.272-301.293Zm-20.513,7.531s9.205,19.909,59.495,26.061c0,0,16.905,1.061,30.849-1.91C339.1-269.612,267.234-277.394,248.759-293.762Zm67.173-16.528-1.982,2.862,62.456,4.857,7.765-3.9Z" fill="#646464"/>
          <path id="Path_949" data-name="Path 949" d="M399.285-176.393V-282.878H387.068v104.892l12.217,1.593m4.823,5.511-21.864-2.848V-287.721h21.864v116.839Z" fill="#646464"/>
        </g>
        <path id="Path_950" data-name="Path 950" d="M238.954-281.931v2.58H194.84l-1.285-1.186v-1.394Z" fill="#646464"/>
        <rect id="Rectangle_46" data-name="Rectangle 46" width="45.398" height="2.58" transform="translate(190.875 -300.423)" fill="#646464"/>
      </g>
      <rect id="Rectangle_47" data-name="Rectangle 47" width="8.888" height="22.981" transform="translate(327.944 -247.68)" fill="#646464"/>
      <path id="Path_951" data-name="Path 951" d="M325.037-246.2l2.906-1.483V-224.7l-2.906-1.483Z" fill="#646464"/>
      <path id="Path_952" data-name="Path 952" d="M554.523-269.78l2.214,12.384-40.876,12.074,42.03-5.621.844,4.719-144.578,53.6,148.468-31.841,1.018,5.7-2.2.657L404.108-170.882,402.765-280.64l145.32-1.843-3.72-17.924,4.735.3Z" fill="#646464"/>
    </g>
    <path id="Path_953" data-name="Path 953" d="M544.654-328.791,349.061-351.283h74.074l121.393,22.492Z" fill="#646464"/>
  </g>
</svg>
